<svg width="250" height="250" viewBox="0 0 250 250" fill="none" xmlns="http://www.w3.org/2000/svg">
<path fill-rule="evenodd" clip-rule="evenodd" d="M89.3275 51.8517C86.809 48.8955 85.1045 45.2728 85.3893 41.2133C86.21 29.517 102.492 32.09 105.659 37.9933C108.826 43.8967 108.45 58.8709 104.356 59.926C102.724 60.3468 99.2466 59.316 95.7074 57.1828L97.9289 72.8991H84.8118L89.3275 51.8517Z" fill="#B28B67"/>
<path fill-rule="evenodd" clip-rule="evenodd" d="M96.3631 42.505C96.8652 49.4993 98.1934 52.9964 100.348 52.9964C103.579 52.9964 106.321 50.9449 107.739 50.9449C108.773 50.9449 108.542 52.2384 107.857 53.1974C107.292 53.9887 104.539 54.7513 104.539 55.978C104.539 57.2047 106.714 56.2557 106.714 56.9832C106.714 58.1866 107.096 60.4493 105.007 60.4493C102.893 60.4493 96.8329 59.679 95.7942 56.5417C95.1239 54.5171 94.6906 50.3215 94.4941 43.9552C94.3658 43.9399 94.2353 43.9321 94.103 43.9321C92.2919 43.9321 90.8237 45.4003 90.8237 47.2114C90.8237 48.1308 91.2021 48.9618 91.8116 49.5573C91.0528 50.6283 90.2025 51.7471 89.228 52.9016C85.5673 50.7053 82.8508 44.2759 86.4298 38.0995C87.419 35.0738 89.6585 33.4577 92.3034 32.7072C94.4459 31.811 96.6701 31.71 98.5475 32.2472C102.228 32.5629 105.514 33.6852 106.446 34.3517C106.446 37.836 105.771 38.8698 100.004 38.7787C98.587 39.527 97.4977 40.8156 96.3631 42.505Z" fill="#191847"/>
<path fill-rule="evenodd" clip-rule="evenodd" d="M80.4397 118.262L100.255 187.798L114.712 239.049H125.257L109.894 118.262H80.4397Z" fill="#983698"/>
<path fill-rule="evenodd" clip-rule="evenodd" d="M75.1405 118.262C74.6822 154.102 73.1193 173.65 72.6381 176.906C72.1569 180.162 64.8806 200.876 50.8093 239.049H61.7328C79.6466 202.429 89.6465 181.714 91.7326 176.906C93.8187 172.097 100.257 152.549 109.953 118.262H75.1405Z" fill="#B96CB9"/>
<path fill-rule="evenodd" clip-rule="evenodd" d="M49.833 248.887L50.3796 237.41H61.857C67.2993 241.235 74.4044 244.333 83.1723 246.701V248.887H62.4036L55.2985 247.794V248.887H49.833Z" fill="#191847"/>
<path fill-rule="evenodd" clip-rule="evenodd" d="M113.232 248.887L113.779 237.41H125.256C130.699 241.235 137.804 244.333 146.572 246.701V248.887H125.803L118.698 247.794V248.887H113.232Z" fill="#191847"/>
<path fill-rule="evenodd" clip-rule="evenodd" d="M126.546 109.304L143.044 123.291C147.672 124.894 151.502 126.753 154.534 128.869C155.234 129.602 156.041 131.045 152.958 130.59C149.874 130.135 146.61 129.795 146.108 130.822C145.606 131.85 147.394 133.245 146.43 134.612C145.787 135.523 143.23 132.947 138.759 126.885L122.036 118.539L126.546 109.304ZM51.8371 103.252L61.5174 104.658C51.1265 127.203 45.5558 139.126 44.8053 140.427C43.1167 143.354 45.1026 148.454 45.8789 151.153C41.9556 152.286 43.2086 146.225 38.2478 147.736C33.7198 149.116 29.9832 152.245 25.4987 148.525C24.9473 148.067 24.4829 146.572 26.2353 145.701C30.6013 143.53 37.0116 139.557 38.008 138.093C39.3669 136.097 43.9766 124.483 51.8371 103.252Z" fill="#B28B67"/>
<path fill-rule="evenodd" clip-rule="evenodd" d="M92.2969 63.7893L98.2952 61.8057C106.432 82.1319 118.567 101.798 138.842 118.41L133.828 127.06C116.009 116.564 99.1416 108.41 92.2969 92.6593C89.9996 87.3731 92.1094 70.1101 92.2969 63.7893Z" fill="#C5CFD6"/>
<path fill-rule="evenodd" clip-rule="evenodd" d="M71.6946 120.995C88.8771 122.817 102.402 122.817 112.268 120.995C113.491 120.77 113.683 118.723 113.116 117.334C104.289 95.7034 98.235 76.8297 98.235 61.8057C96.6152 62.6223 93.7804 62.7447 89.7306 62.1728C78.8468 77.6555 73.8439 95.4202 71.6946 120.995Z" fill="#E766E7"/>
<path fill-rule="evenodd" clip-rule="evenodd" d="M87.0252 60.875H91.561C92.6171 67.0865 95.9482 151.199 106.231 178.714H50.5901C51.7964 153.508 61.3121 123.229 70.9515 97.8917C62.4279 105.692 54.9988 118.908 48.6644 137.541L38.2422 134.865C45.9915 101.473 61.924 76.9298 86.0397 61.2352C86.0919 61.1146 86.1439 60.9945 86.1956 60.875H86.597C86.7448 60.7802 86.8928 60.6857 87.0411 60.5916L87.0252 60.875V60.875Z" fill="#DDE3E9"/>
<path fill-rule="evenodd" clip-rule="evenodd" d="M146.515 42.4853L113.485 75.5147C108.799 80.201 108.799 87.799 113.485 92.4853L146.515 125.515C151.201 130.201 158.799 130.201 163.485 125.515L196.515 92.4853C201.201 87.799 201.201 80.201 196.515 75.5147L163.485 42.4853C158.799 37.799 151.201 37.799 146.515 42.4853ZM155 94C160.523 94 165 89.5229 165 84C165 78.4772 160.523 74 155 74C149.477 74 145 78.4772 145 84C145 89.5229 149.477 94 155 94Z" fill="#FF74FF"/>
<path d="M217.44 204.591H204.078C203.644 204.591 203.292 204.943 203.292 205.377V207.342C203.292 207.776 203.644 208.128 204.078 208.128H217.44C217.874 208.128 218.226 207.776 218.226 207.342V205.377C218.226 204.943 217.874 204.591 217.44 204.591Z" fill="#AFB9C5"/>
<path fill-rule="evenodd" clip-rule="evenodd" d="M207.222 193.195C208.909 187.726 209.854 181.962 210.058 175.903H211.152H211.853C212.056 181.962 213.002 187.726 214.689 193.195H217.243C220.607 193.195 223.335 195.922 223.335 199.286C223.335 202.65 220.607 205.377 217.243 205.377H204.274C200.91 205.377 198.183 202.65 198.183 199.286C198.183 195.922 200.91 193.195 204.274 193.195H207.222Z" fill="#DDE3E9"/>
<path fill-rule="evenodd" clip-rule="evenodd" d="M196.855 148.66C201.359 148.22 205.862 148 210.366 148C214.869 148 219.373 148.22 223.876 148.66L225.693 179.885C220.584 180.374 215.475 180.619 210.366 180.619C205.257 180.619 200.148 180.374 195.039 179.885L196.855 148.66Z" fill="#C5CFD6"/>
<path fill-rule="evenodd" clip-rule="evenodd" d="M194.253 208.128H226.872H235.125V249H226.872V216.774H194.253V249H186V208.128H194.253Z" fill="#F2F2F2"/>
</svg>
