<svg width="400" height="100" viewBox="0 0 400 100" fill="none" xmlns="http://www.w3.org/2000/svg">
<path d="M142.336 73.768C147.776 73.768 152.384 71.656 155.84 67.624L150.848 61.736C148.8 63.912 146.112 65.64 142.72 65.64C136.576 65.64 132.608 60.648 132.608 52.072C132.608 43.688 137.152 38.632 142.848 38.632C145.856 38.632 148.096 40.04 150.208 41.96L155.2 35.944C152.384 33.064 148.032 30.504 142.656 30.504C132.096 30.504 122.944 38.568 122.944 52.392C122.944 66.408 131.776 73.768 142.336 73.768ZM170.321 73.768C174.673 73.768 177.617 71.784 180.305 68.584H180.497L181.201 73H188.881V41.256H179.473V62.248C177.617 64.744 176.209 65.768 173.841 65.768C171.089 65.768 169.873 64.296 169.873 59.752V41.256H160.465V60.968C160.465 68.904 163.409 73.768 170.321 73.768ZM197.16 73H206.568V54.568C208.232 50.28 211.176 48.744 213.544 48.744C214.888 48.744 215.848 48.936 217 49.256L218.536 41.128C217.64 40.744 216.552 40.488 214.76 40.488C211.496 40.488 208.04 42.536 205.736 46.824H205.48L204.84 41.256H197.16V73ZM222.66 73H232.068V41.256H222.66V73ZM227.332 36.584C230.532 36.584 232.772 34.536 232.772 31.656C232.772 28.776 230.532 26.792 227.332 26.792C224.196 26.792 221.892 28.776 221.892 31.656C221.892 34.536 224.196 36.584 227.332 36.584ZM253.98 73.768C261.98 73.768 269.404 67.688 269.404 57.128C269.404 46.568 261.98 40.488 253.98 40.488C245.916 40.488 238.492 46.568 238.492 57.128C238.492 67.688 245.916 73.768 253.98 73.768ZM253.98 66.152C250.076 66.152 248.156 62.632 248.156 57.128C248.156 51.624 250.076 48.104 253.98 48.104C257.82 48.104 259.804 51.624 259.804 57.128C259.804 62.632 257.82 66.152 253.98 66.152ZM284.879 73.768C293.391 73.768 297.935 69.288 297.935 63.528C297.935 57.704 293.391 55.464 289.359 53.992C286.095 52.776 283.151 52.008 283.151 49.96C283.151 48.36 284.303 47.464 286.735 47.464C288.975 47.464 291.151 48.488 293.455 50.152L297.679 44.52C294.927 42.472 291.343 40.488 286.479 40.488C279.119 40.488 274.319 44.52 274.319 50.408C274.319 55.656 278.863 58.28 282.703 59.752C285.967 61.032 289.167 61.992 289.167 64.104C289.167 65.768 287.951 66.792 285.135 66.792C282.447 66.792 279.823 65.64 276.943 63.464L272.719 69.352C275.919 71.976 280.719 73.768 284.879 73.768ZM303.91 73H313.318V41.256H303.91V73ZM308.582 36.584C311.782 36.584 314.022 34.536 314.022 31.656C314.022 28.776 311.782 26.792 308.582 26.792C305.446 26.792 303.142 28.776 303.142 31.656C303.142 34.536 305.446 36.584 308.582 36.584ZM333.822 73.768C336.894 73.768 339.198 73.128 340.862 72.616L339.39 65.768C338.558 66.088 337.406 66.408 336.382 66.408C333.885 66.408 332.286 64.936 332.286 61.352V48.616H339.902V41.256H332.286V32.808H324.478L323.39 41.256L318.526 41.64V48.616H322.878V61.48C322.878 68.84 325.95 73.768 333.822 73.768ZM349.618 85.416C357.106 85.416 360.498 81.32 363.506 73.32L374.514 41.256H365.49L361.65 54.888C360.882 57.896 360.178 60.904 359.474 63.912H359.218C358.385 60.776 357.618 57.768 356.722 54.888L352.178 41.256H342.706L354.93 72.168L354.482 73.832C353.65 76.328 352.05 77.992 348.914 77.992C348.21 77.992 347.378 77.736 346.802 77.608L345.138 84.776C346.418 85.16 347.698 85.416 349.618 85.416Z" fill="#FF74FF"/>
<path fill-rule="evenodd" clip-rule="evenodd" d="M41.5146 8.4853L8.48518 41.5147C3.79889 46.201 3.79889 53.799 8.48518 58.4853L41.5146 91.5147C46.2009 96.201 53.7989 96.201 58.4852 91.5147L91.5146 58.4853C96.2009 53.799 96.2009 46.201 91.5146 41.5147L58.4852 8.4853C53.7989 3.79901 46.2009 3.79901 41.5146 8.4853ZM49.9999 60C55.5227 60 59.9999 55.5229 59.9999 50C59.9999 44.4772 55.5227 40 49.9999 40C44.4771 40 39.9999 44.4772 39.9999 50C39.9999 55.5229 44.4771 60 49.9999 60Z" fill="url(#paint0_linear)"/>
<defs>
<linearGradient id="paint0_linear" x1="49.9999" y1="1.89165e-05" x2="49.9999" y2="100" gradientUnits="userSpaceOnUse">
<stop stop-color="#FD92FF"/>
<stop offset="1" stop-color="#FF58E4"/>
</linearGradient>
</defs>
</svg>
