<svg width="150" height="150" viewBox="0 0 150 150" fill="none" xmlns="http://www.w3.org/2000/svg">
<path fill-rule="evenodd" clip-rule="evenodd" d="M66.5146 33.4853L33.4852 66.5147C28.7989 71.201 28.7989 78.799 33.4852 83.4853L66.5146 116.515C71.2009 121.201 78.7989 121.201 83.4852 116.515L116.515 83.4853C121.201 78.799 121.201 71.201 116.515 66.5147L83.4852 33.4853C78.7989 28.799 71.2009 28.799 66.5146 33.4853ZM74.9999 85C80.5227 85 84.9999 80.5228 84.9999 75C84.9999 69.4771 80.5227 65 74.9999 65C69.4771 65 64.9999 69.4771 64.9999 75C64.9999 80.5228 69.4771 85 74.9999 85Z" fill="#FF74FF"/>
<path d="M73.2862 65.6511C68.7094 66.3983 65.9287 70.3341 65.9287 74.9073C65.9287 77.7286 66.0317 80.3427 67.9593 82.6208C69.8938 84.9071 72.5883 85.8249 75.5541 85.8249C78.6127 85.8249 80.3159 84.6537 82.4897 82.5549C84.8585 80.2677 84.6784 77.2427 84.6784 74.1953C84.6784 71.9999 84.0802 69.4043 82.4369 67.8267C81.3346 66.7685 79.9462 66.0172 78.7977 64.9918C77.8076 64.1078 75.4175 64.3595 74.2356 64.4908C72.5275 64.6806 70.8417 65.5858 69.4888 66.6005" stroke="black" stroke-opacity="0.3" stroke-linecap="round" stroke-linejoin="round"/>
<path d="M48.054 71.8451C46.4254 71.9033 45.2329 72.6047 44.6141 74.1515C44.2491 75.0642 44.0462 76.3785 44.311 77.3541C44.6008 78.4217 46.1706 79.3476 47.1314 79.766C48.0879 80.1825 49.3974 80.2946 50.4263 80.2668C52.7203 80.2048 53.7775 77.2065 53.4839 75.285C53.3254 74.2477 52.1407 72.9889 51.4674 72.201C50.3717 70.9188 48.6532 71.1011 47.2237 71.7265" stroke="black" stroke-opacity="0.3" stroke-linecap="round" stroke-linejoin="round"/>
<path d="M47.2235 56.8997C46.1138 56.9195 45.0628 57.073 44.3767 58.0397C43.912 58.6945 43.624 59.6558 43.6716 60.4647C43.799 62.6307 46.3537 64.5016 48.291 64.9655C50.4127 65.4735 51.3644 63.2265 51.6649 61.4663C51.8589 60.3301 51.6057 59.4226 50.9664 58.4812C50.591 57.9283 50.1619 57.3439 49.5431 57.0446C48.6011 56.5892 47.7896 56.9823 46.8676 57.2555" stroke="black" stroke-opacity="0.3" stroke-linecap="round" stroke-linejoin="round"/>
<path d="M47.6981 89.8748C46.804 89.8748 45.6755 89.9117 45.2072 90.8237C44.8903 91.4409 44.822 92.4512 45.1017 93.0905C45.6289 94.2954 46.4933 95.3791 47.3423 96.3722C48.1057 97.2653 48.9103 97.4899 50.0572 97.5781C51.2732 97.6717 51.6501 97.2322 52.2055 96.2141C52.7123 95.2849 53.1944 94.2767 53.1544 93.196C53.1159 92.1577 51.6504 90.817 50.9007 90.1845C49.8607 89.307 48.4778 89.2195 47.2236 89.6375" stroke="black" stroke-opacity="0.3" stroke-linecap="round" stroke-linejoin="round"/>
<path d="M51.6123 63.0676C52.6135 63.3124 53.4236 63.9557 54.3273 64.4251C55.1915 64.8741 56.0394 65.3699 56.8841 65.8551C58.6355 66.8612 60.4958 67.6377 62.3404 68.4646C63.2375 68.8668 64.2072 69.398 65.0158 69.9473C65.5394 70.3029 66.0519 70.9773 66.6764 71.1334" stroke="black" stroke-opacity="0.3" stroke-linecap="round" stroke-linejoin="round"/>
<path d="M53.5103 76.3527C56.2001 76.3527 58.9638 76.5343 61.642 76.2604C62.8276 76.1392 64.0687 75.9968 65.2531 75.9968" stroke="black" stroke-opacity="0.3" stroke-linecap="round" stroke-linejoin="round"/>
<path d="M52.6799 91.8912C53.3192 91.0862 54.2486 90.5499 55.0786 89.9604C55.9867 89.3156 56.8559 88.5923 57.787 87.9835C59.3315 86.9736 60.7606 85.9937 62.2087 84.8534C63.8929 83.5271 65.5154 82.1397 67.0323 80.6228" stroke="black" stroke-opacity="0.3" stroke-linecap="round" stroke-linejoin="round"/>
<path d="M30.3802 71.2521C28.3471 71.2521 25.7542 72.9837 25.7542 75.2257C25.7542 76.169 25.6565 77.0165 26.3737 77.7496C27.136 78.5288 28.2138 79.4867 29.339 79.6474C31.5818 79.9678 34.3679 78.449 34.8217 76.1153C35.0246 75.0717 35.0317 73.6247 34.1759 72.8864C32.8993 71.785 32.1487 71.1833 30.3802 71.0149" stroke="black" stroke-opacity="0.3" stroke-linecap="round" stroke-linejoin="round"/>
<path d="M28.6009 56.4252C26.9453 56.5456 25.0425 58.4812 25.0425 60.2209C25.0425 62.5176 27.5959 64.1257 29.6619 64.2472C30.4649 64.2944 31.6168 64.4197 32.3702 64.1088C33.4162 63.6771 33.7674 62.447 33.9122 61.4334C34.1137 60.0228 34.1935 58.716 33.1742 57.585C31.9939 56.2753 30.3686 55.3577 28.6009 55.3577" stroke="black" stroke-opacity="0.3" stroke-linecap="round" stroke-linejoin="round"/>
<path d="M28.4824 40.0564C26.5951 40.0564 25.0265 41.5521 24.8119 43.483C24.7305 44.2162 25.3077 44.7247 25.7675 45.2227C26.7236 46.2586 27.8788 47.211 29.2402 47.6346C31.494 48.3357 33.0939 46.9162 33.9123 44.946C34.2281 44.1859 34.4661 43.4696 34.4132 42.6396C34.3438 41.5536 32.6119 41.079 31.8036 40.7681" stroke="black" stroke-opacity="0.3" stroke-linecap="round" stroke-linejoin="round"/>
<path d="M29.3127 90.1119C28.5162 90.1119 27.7093 89.9586 27.059 90.4942C26.6144 90.8603 26.4659 91.5302 26.4659 92.0757C26.4659 92.7554 26.3203 93.6294 26.5977 94.2635C27.0344 95.2615 27.8148 95.8168 28.8646 96.0427C30.7151 96.4409 33.1594 96.4243 33.9321 94.4282C34.7806 92.2362 33.3519 90.1328 31.0919 89.7561" stroke="black" stroke-opacity="0.3" stroke-linecap="round" stroke-linejoin="round"/>
<path d="M29.3127 106.718C27.2875 106.752 26.1101 108.574 26.1101 110.514C26.1101 113.065 28.9343 113.911 31.0326 114.25C32.0122 114.408 33.1184 113.93 33.8135 113.235C34.5701 112.478 34.6321 110.91 34.6504 109.907C34.6677 108.954 34.532 108.357 33.8794 107.607C32.8966 106.479 32.0667 106.243 30.6175 106.243" stroke="black" stroke-opacity="0.3" stroke-linecap="round" stroke-linejoin="round"/>
<path d="M29.7871 40.2937C30.5177 40.2937 32.4423 40.0747 32.7525 41.0053" stroke="black" stroke-opacity="0.3" stroke-linecap="round" stroke-linejoin="round"/>
<path d="M34.6504 75.5222C38.2042 75.5222 41.79 75.4036 45.3257 75.4036" stroke="black" stroke-opacity="0.3" stroke-linecap="round" stroke-linejoin="round"/>
<path d="M34.0574 92.6028C37.5367 92.6028 41.0161 92.6028 44.4955 92.6028" stroke="black" stroke-opacity="0.3" stroke-linecap="round" stroke-linejoin="round"/>
<path d="M33.9387 60.3396C35.2215 60.3396 36.5043 60.3396 37.7871 60.3396C38.5487 60.3396 39.3622 60.2555 40.1067 60.4319C40.944 60.6302 41.7417 60.8141 42.5976 60.8141" stroke="black" stroke-opacity="0.3" stroke-linecap="round" stroke-linejoin="round"/>
<path d="M33.583 46.1058C35.0812 48.1434 36.8658 49.925 38.3803 51.9443C39.2083 53.0483 40.3416 53.8993 41.148 55.0283C41.7681 55.8965 42.326 56.9112 42.835 57.8487C43.0623 58.2675 43.5158 58.5864 43.6653 59.0348" stroke="black" stroke-opacity="0.3" stroke-linecap="round" stroke-linejoin="round"/>
<path d="M34.2944 74.2176C35.2478 72.4698 36.9331 71.3233 38.3273 69.9475C39.5663 68.7248 40.8337 67.4993 42.1164 66.3297C43.4615 65.1034 44.4021 63.3982 45.6815 62.1189" stroke="black" stroke-opacity="0.3" stroke-linecap="round" stroke-linejoin="round"/>
<path d="M33.583 61.8816C35.4063 63.8409 36.9007 66.1129 38.6571 68.1418C39.7439 69.3972 40.8436 70.6494 42.064 71.7793C42.8507 72.5078 43.7785 73.2012 44.377 74.0989" stroke="black" stroke-opacity="0.3" stroke-linecap="round" stroke-linejoin="round"/>
<path d="M33.2271 78.3691C37.3056 82.561 41.1896 86.9247 45.3258 91.0609" stroke="black" stroke-opacity="0.3" stroke-linecap="round" stroke-linejoin="round"/>
<path d="M34.2944 106.718C36.4014 104.246 39.1302 102.595 41.5629 100.504C42.5622 99.6449 43.4903 98.6986 44.4953 97.8483C45.1583 97.2873 45.6324 96.3044 46.3931 95.9241" stroke="black" stroke-opacity="0.3" stroke-linecap="round" stroke-linejoin="round"/>
<path d="M34.4131 91.0607C34.9616 88.7667 36.7585 86.5078 38.2812 84.7676C39.7312 83.1104 41.1009 81.3581 42.5711 79.7264C43.3825 78.826 44.3067 78.0193 45.1345 77.1301C45.471 76.7687 45.6795 76.3927 46.1559 76.2339" stroke="black" stroke-opacity="0.3" stroke-linecap="round" stroke-linejoin="round"/>
<path d="M99.7766 73.2337C98.7857 73.2337 97.5506 73.0508 96.661 73.6169C95.8234 74.1499 94.9028 75.0712 94.6643 76.0649C94.1451 78.228 96.1076 79.185 97.9715 79.5762C99.1469 79.8229 100.694 79.8655 101.755 79.2424C102.72 78.6757 103.063 77.611 103.276 76.578C103.474 75.6147 103.384 74.8037 102.657 74.1177C101.62 73.1382 100.674 71.9947 99.2203 71.7871" stroke="black" stroke-opacity="0.3" stroke-linecap="round" stroke-linejoin="round"/>
<path d="M119.361 71.7871C116.868 72.1958 115.364 73.769 115.583 76.2937C115.752 78.2267 117.972 79.3218 119.694 79.3537C120.471 79.368 121.628 79.5872 122.056 78.7478C122.646 77.59 122.699 76.3403 122.699 75.0758C122.699 73.1819 120.871 72.3435 119.249 72.3435" stroke="black" stroke-opacity="0.3" stroke-linecap="round" stroke-linejoin="round"/>
<path d="M100.222 55.3186C97.9438 55.3671 95.8384 56.7322 94.8373 58.8113C93.7947 60.9768 96.185 63.2164 98.1075 63.6641C99.4241 63.9707 100.49 63.7186 101.6 63.0026C102.595 62.3606 102.986 61.8722 103.164 60.6535C103.343 59.4248 103.264 58.3075 102.472 57.3215C101.283 55.8419 100.121 55.3186 98.2187 55.3186" stroke="black" stroke-opacity="0.3" stroke-linecap="round" stroke-linejoin="round"/>
<path d="M97.885 89.7019C96.3595 89.7265 95.0548 90.3668 94.2377 91.6801C93.7915 92.3972 93.87 93.8331 94.0399 94.6226C94.5578 97.0295 96.5299 98.3812 98.8864 98.3812C99.6675 98.3812 101.107 98.7192 101.446 97.7754C101.847 96.6547 101.891 95.3949 101.891 94.2146C101.891 92.9862 101.387 91.9887 100.444 91.1732C100.046 90.8289 99.6323 90.3571 99.1461 90.147C98.3192 89.7897 97.3161 89.9244 96.4384 89.9244" stroke="black" stroke-opacity="0.3" stroke-linecap="round" stroke-linejoin="round"/>
<path d="M118.359 55.9864C114.083 56.0565 113.787 62.266 117.58 63.5529C118.291 63.7941 119.342 63.9904 120.003 63.5282C120.76 62.9996 121.323 62.0631 121.586 61.1914C121.797 60.4913 122.07 59.7309 121.87 58.9907C121.676 58.2736 121.13 57.6329 120.745 57.0125C120.358 56.3892 120.051 55.976 119.472 55.5413" stroke="black" stroke-opacity="0.3" stroke-linecap="round" stroke-linejoin="round"/>
<path d="M117.914 90.4809C116.792 90.4809 114.495 90.4416 113.859 91.6554C113.422 92.4896 113.465 93.6465 113.865 94.4805C114.812 96.4562 117.116 98.9298 119.497 98.8263C120.255 98.7934 120.919 97.9215 121.357 97.3736C121.91 96.6827 122.102 95.827 122.303 94.9936C122.446 94.4022 122.5 93.4671 122.056 93.003C121.237 92.1466 120.2 91.329 119.027 91.1485" stroke="black" stroke-opacity="0.3" stroke-linecap="round" stroke-linejoin="round"/>
<path d="M116.69 41.2983C115.825 41.2983 114.756 41.0559 114.193 41.8608C113.765 42.4713 113.368 43.3453 113.352 44.1048C113.332 45.0428 113.243 46.1267 113.865 46.9114C114.581 47.8139 115.498 48.2711 116.628 48.463C117.515 48.6135 118.447 48.8439 119.163 48.1725C119.945 47.439 120.688 46.8658 121.135 45.8605C121.455 45.1392 121.673 43.9525 121.45 43.1652C121.274 42.5426 120.306 42.3553 119.787 42.1823C118.906 41.8887 118.06 41.6938 117.135 41.6321" stroke="black" stroke-opacity="0.3" stroke-linecap="round" stroke-linejoin="round"/>
<path d="M117.469 107.951C116.511 107.951 115.323 108.125 114.854 109.063C114.492 109.788 114.387 111.071 114.712 111.82C115.159 112.853 116.646 113.485 117.698 113.626C118.517 113.735 119.87 113.99 120.671 113.687C121.866 113.236 122.083 112.105 122.421 111.017C122.652 110.271 122.977 109.248 122.365 108.618C121.886 108.126 121.377 107.566 120.69 107.394C119.736 107.156 118.364 107.108 117.469 107.506" stroke="black" stroke-opacity="0.3" stroke-linecap="round" stroke-linejoin="round"/>
<path d="M84.866 75.1253C86.6407 75.1253 88.4605 74.9913 90.2009 75.4035C90.8235 75.5509 91.4578 75.6817 92.0987 75.6817C92.9008 75.6817 93.7951 75.9042 94.5467 75.9042" stroke="black" stroke-opacity="0.3" stroke-linecap="round" stroke-linejoin="round"/>
<path d="M103.671 75.5704C106.638 75.5704 109.606 75.5704 112.573 75.5704C113.293 75.5704 114.586 75.464 115.244 75.7929" stroke="black" stroke-opacity="0.3" stroke-linecap="round" stroke-linejoin="round"/>
<path d="M82.863 68.6714C85.6732 67.3908 88.6807 66.3761 91.1838 64.5296C91.9096 63.9941 92.7832 63.3678 93.3474 62.6626C93.5643 62.3915 94.0013 61.8801 94.3241 61.7725" stroke="black" stroke-opacity="0.3" stroke-linecap="round" stroke-linejoin="round"/>
<path d="M82.1956 83.248C83.8357 84.4782 85.3222 85.707 86.7701 87.155C87.7857 88.1706 88.9505 89.0303 89.9846 90.0357C90.8005 90.8288 91.9796 91.1405 92.7665 91.9273" stroke="black" stroke-opacity="0.3" stroke-linecap="round" stroke-linejoin="round"/>
<path d="M101.78 98.7151C103.766 100.648 106.001 102.357 108.122 104.143C108.935 104.827 109.685 105.633 110.514 106.282C111.119 106.755 111.602 107.486 112.239 107.895C112.579 108.114 112.908 108.285 113.241 108.507" stroke="black" stroke-opacity="0.3" stroke-linecap="round" stroke-linejoin="round"/>
<path d="M101.78 55.4299C103.256 53.4939 105.555 52.3821 107.38 50.8059C108.217 50.0836 108.996 49.2206 109.686 48.3579C110.207 47.7072 111.202 46.911 112.017 46.6394" stroke="black" stroke-opacity="0.3" stroke-linecap="round" stroke-linejoin="round"/>
<path d="M103.671 59.1019C107.248 59.1019 110.777 59.7696 114.353 59.7696" stroke="black" stroke-opacity="0.3" stroke-linecap="round" stroke-linejoin="round"/>
<path d="M101.891 93.5964C104.59 93.5964 107.289 93.5964 109.989 93.5964C110.403 93.5964 111.146 93.4466 111.516 93.652C111.691 93.7496 112.15 93.8189 112.35 93.8189" stroke="black" stroke-opacity="0.3" stroke-linecap="round" stroke-linejoin="round"/>
<path d="M102.447 73.3448C104.255 71.3462 106.397 69.8824 108.567 68.3376C109.956 67.3486 111.191 66.1473 112.511 65.0674C113.554 64.2136 114.822 63.1516 116.022 62.5514" stroke="black" stroke-opacity="0.3" stroke-linecap="round" stroke-linejoin="round"/>
<path d="M101 91.5936C102.513 90.3443 103.615 88.7347 105.012 87.3776C106.066 86.3541 107.3 85.4954 108.468 84.6081C109.629 83.7262 111.17 82.792 112.016 81.579C112.668 80.6461 113.503 79.6793 114.44 79.0198C114.816 78.7552 115.09 78.2063 115.466 78.0183" stroke="black" stroke-opacity="0.3" stroke-linecap="round" stroke-linejoin="round"/>
<path d="M102.67 78.9084C103.86 81.1634 105.895 82.9512 107.504 84.9172C108.375 85.9821 109.361 86.9712 110.292 87.9834C111.442 89.2337 112.955 90.2162 114.353 91.1484" stroke="black" stroke-opacity="0.3" stroke-linecap="round" stroke-linejoin="round"/>
<path d="M102.892 62.1062C106 64.8591 108.684 68.0773 111.93 70.6742C112.505 71.1341 113.243 71.4194 113.791 71.8982C114.187 72.2453 114.584 72.6085 115.021 72.8997" stroke="black" stroke-opacity="0.3" stroke-linecap="round" stroke-linejoin="round"/>
<path d="M32.7905 106.393C33.5351 103.144 35.8428 100.51 37.192 97.5158C37.8805 95.9877 38.5997 94.3993 39.5225 92.9907C40.1182 92.0816 40.7514 91.112 41.2473 90.1471C42.3192 88.0612 43.1197 85.8594 44.4989 83.9405C45.0859 83.1238 45.6446 82.2789 46.2483 81.474C46.4631 81.1877 46.6303 80.7722 46.9222 80.5776" stroke="black" stroke-opacity="0.3" stroke-linecap="round" stroke-linejoin="round"/>
<path d="M32.6792 89.5906C32.7823 87.8632 33.6733 86.5307 34.4039 85.0223C35.182 83.4159 35.8268 81.7581 36.7963 80.2499C37.6087 78.9861 38.5619 77.8297 39.3617 76.5594C40.1123 75.3673 40.6706 74.0703 41.4203 72.8812C42.6283 70.965 43.7105 68.8885 44.7832 66.891C45.2878 65.9514 46.3282 65.0381 46.5883 63.9979" stroke="black" stroke-opacity="0.3" stroke-linecap="round" stroke-linejoin="round"/>
<path d="M32.0115 48.4197C32.9395 50.6306 34.2899 52.6067 35.4362 54.7004C36.4456 56.5441 37.3126 58.4649 38.1809 60.3753C38.7538 61.6356 39.1283 62.9846 39.714 64.2451C40.386 65.6913 41.37 66.9867 42.0198 68.4488C42.6067 69.7693 42.929 71.2735 43.9424 72.368C44.1137 72.553 44.4031 72.8862 44.474 73.1346C44.5351 73.3483 44.8844 74.162 45.0304 74.2349" stroke="black" stroke-opacity="0.3" stroke-linecap="round" stroke-linejoin="round"/>
<path d="M32.6792 64.7769C34.1981 68.2053 35.9841 71.5587 37.6865 74.9027C39.0715 77.6232 40.5739 80.2482 42.4712 82.6423C43.7369 84.2395 44.7226 86.1026 45.8094 87.8103C46.2417 88.4896 46.6797 89.3284 47.0334 90.0358" stroke="black" stroke-opacity="0.3" stroke-linecap="round" stroke-linejoin="round"/>
<path d="M101.78 72.7884C101.867 69.4964 103.442 66.6884 105.019 63.9298C105.943 62.3128 106.793 60.653 107.733 59.0462C108.346 57.997 109.081 56.973 109.575 55.8626C110.389 54.0297 111.109 51.8451 112.375 50.2618C112.922 49.5787 113.521 48.6921 113.797 47.8633" stroke="black" stroke-opacity="0.3" stroke-linecap="round" stroke-linejoin="round"/>
<path d="M101.78 91.7049C102.17 90.9389 102.644 90.2588 103.115 89.5413C103.778 88.53 104.271 87.4394 104.84 86.3762C105.649 84.8621 106.647 83.4705 107.393 81.9191C108.683 79.2349 110.15 76.6308 111.454 73.9569C112.627 71.5517 114.096 69.2856 115.355 66.9158C116.027 65.6505 116.73 64.5758 117.58 63.4417" stroke="black" stroke-opacity="0.3" stroke-linecap="round" stroke-linejoin="round"/>
<path d="M101.446 63.8867C102.039 65.9633 103.538 67.8157 104.555 69.7162C105.325 71.1546 106.13 72.5612 106.954 73.9693C107.704 75.2514 108.277 76.6279 109.019 77.9133C109.701 79.0967 110.236 80.4414 111.071 81.5234C112.241 83.0406 112.985 84.8467 114.106 86.4009C114.837 87.4146 115.551 88.4387 116.245 89.4794" stroke="black" stroke-opacity="0.3" stroke-linecap="round" stroke-linejoin="round"/>
<path d="M100.11 79.5762C101.001 82.4306 102.558 84.9493 104.116 87.4765C104.928 88.794 105.608 90.1614 106.366 91.5071C107.638 93.7649 108.807 96.2158 110.341 98.3133C111.845 100.369 112.996 102.559 114.31 104.73C114.732 105.428 115.141 106.153 115.577 106.838C115.828 107.232 115.97 107.695 116.245 108.062" stroke="black" stroke-opacity="0.3" stroke-linecap="round" stroke-linejoin="round"/>
<path d="M66.406 103.546C72.6568 103.546 78.9075 103.546 85.1583 103.546" stroke="black" stroke-opacity="0.3" stroke-linecap="round" stroke-linejoin="round"/>
<path d="M82.6731 100.5C84.151 101.703 83.1887 101.232 84.7567 102.319C85.1179 102.57 86.2915 102.954 86.5308 103.33C86.6503 103.518 82.9449 106.273 82.6731 106.817" stroke="black" stroke-opacity="0.3" stroke-linecap="round" stroke-linejoin="round"/>
<path d="M26.8604 32.4112C27.4543 32.0114 29.2819 30.0836 29.2819 31.5306C29.2819 32.3246 29.6295 32.2625 30.3826 32.1788C31.4801 32.0568 32.6055 31.5306 33.6846 31.5306" stroke="black" stroke-opacity="0.3" stroke-linecap="round" stroke-linejoin="round"/>
<path d="M45.1318 33.7319C47.0018 31.4304 46.5961 35.6347 48.7519 35.7131C50.5849 35.7798 50.5038 34.348 51.736 33.7319" stroke="black" stroke-opacity="0.3" stroke-linecap="round" stroke-linejoin="round"/>
<path d="M96.644 33.2917C97.2663 32.865 98.2289 32.2551 98.6131 33.2795C98.8446 33.8969 99.5094 33.7761 100.056 33.6097C100.971 33.3313 101.299 33.0397 101.927 32.4111" stroke="black" stroke-opacity="0.3" stroke-linecap="round" stroke-linejoin="round"/>
<path d="M113.815 33.952C115.214 33.6783 116.89 33.2605 118.34 33.524C119.534 33.7411 120.484 34.1722 121.74 34.1722" stroke="black" stroke-opacity="0.3" stroke-linecap="round" stroke-linejoin="round"/>
<path d="M19 42.6057C20.6186 42.6057 22.2372 42.6057 23.8558 42.6057" stroke="black" stroke-opacity="0.3" stroke-linecap="round" stroke-linejoin="round"/>
<path d="M20.5664 60.1494C22.1328 60.1494 23.6992 60.1494 25.2656 60.1494" stroke="black" stroke-opacity="0.3" stroke-linecap="round" stroke-linejoin="round"/>
<path d="M20.5664 74.5602C22.2521 74.5602 24.12 74.3349 25.7355 74.8734" stroke="black" stroke-opacity="0.3" stroke-linecap="round" stroke-linejoin="round"/>
<path d="M21.1929 92.417C22.707 92.417 24.2212 92.417 25.7354 92.417" stroke="black" stroke-opacity="0.3" stroke-linecap="round" stroke-linejoin="round"/>
<path d="M21.1929 109.96C21.6746 109.96 24.6405 109.65 24.9522 110.274" stroke="black" stroke-opacity="0.3" stroke-linecap="round" stroke-linejoin="round"/>
<path d="M23.6992 108.551C23.8618 108.817 25.3321 110.423 25.0219 110.822C24.6556 111.293 24.275 111.734 23.8559 112.153" stroke="black" stroke-opacity="0.3" stroke-linecap="round" stroke-linejoin="round"/>
<path d="M24.4824 91.3204C25.9655 92.444 26.016 93.7028 24.7957 94.9231" stroke="black" stroke-opacity="0.3" stroke-linecap="round" stroke-linejoin="round"/>
<path d="M23.2292 72.8372C24.0667 73.6507 24.9993 73.9989 24.9523 75.2215C24.9211 76.0311 24.0959 76.5028 23.8558 77.223" stroke="black" stroke-opacity="0.3" stroke-linecap="round" stroke-linejoin="round"/>
<path d="M22.916 58.8962C23.2766 59.1813 24.639 59.9302 24.639 60.5409C24.639 61.2721 23.3462 62.082 22.916 62.6556" stroke="black" stroke-opacity="0.3" stroke-linecap="round" stroke-linejoin="round"/>
<path d="M22.6028 41.196C23.1063 41.8606 24.0894 42.2027 24.4476 42.9191C24.8912 43.8062 22.2191 45.4094 21.8196 46.2085" stroke="black" stroke-opacity="0.3" stroke-linecap="round" stroke-linejoin="round"/>
<path d="M121.285 44.3289C122.956 44.3289 124.627 44.3289 126.298 44.3289" stroke="black" stroke-opacity="0.3" stroke-linecap="round" stroke-linejoin="round"/>
<path d="M122.382 59.9926C122.777 59.9926 126.075 59.7046 126.298 60.1492" stroke="black" stroke-opacity="0.3" stroke-linecap="round" stroke-linejoin="round"/>
<path d="M122.852 76.1265C123.948 76.1265 125.045 76.1265 126.141 76.1265" stroke="black" stroke-opacity="0.3" stroke-linecap="round" stroke-linejoin="round"/>
<path d="M122.695 93.9833C123.805 93.9833 124.777 93.8267 125.828 93.8267" stroke="black" stroke-opacity="0.3" stroke-linecap="round" stroke-linejoin="round"/>
<path d="M122.695 110.117C123.438 110.117 125.009 109.832 125.671 110.274" stroke="black" stroke-opacity="0.3" stroke-linecap="round" stroke-linejoin="round"/>
<path d="M124.574 107.924C124.958 108.43 125.984 109.206 125.984 109.882C125.984 110.661 125.007 111.975 124.574 112.623" stroke="black" stroke-opacity="0.3" stroke-linecap="round" stroke-linejoin="round"/>
<path d="M124.418 92.5735C124.866 92.7591 125.984 93.4269 125.984 94.0616C125.984 94.9551 124.786 95.5961 124.418 96.3328" stroke="black" stroke-opacity="0.3" stroke-linecap="round" stroke-linejoin="round"/>
<path d="M125.044 74.2468C125.684 74.731 126.728 75.5174 126.915 76.3614C127.013 76.7988 126.733 76.5355 126.298 76.753C125.939 76.9325 125.219 77.3435 125.044 77.6929" stroke="black" stroke-opacity="0.3" stroke-linecap="round" stroke-linejoin="round"/>
<path d="M124.574 58.2698C125.201 58.7769 125.712 59.3202 126.263 59.871C127.071 60.6788 125.037 62.3614 124.731 63.1256" stroke="black" stroke-opacity="0.3" stroke-linecap="round" stroke-linejoin="round"/>
<path d="M124.888 42.4492C125.376 42.6518 126.924 43.3793 126.924 44.0939C126.924 45.2573 124.888 46.1679 124.888 47.4617" stroke="black" stroke-opacity="0.3" stroke-linecap="round" stroke-linejoin="round"/>
<path d="M70.5957 94.5507C71.1811 93.888 71.8999 93.3792 72.5233 92.7558C72.9812 92.2979 73.1509 91.7102 73.4598 91.1638C73.7516 90.6475 74.1013 89.8945 74.0334 89.283C73.9574 88.5997 73.1161 89.0192 72.9681 89.4157C72.7528 89.9927 72.7262 90.6449 72.6677 91.2535C72.5879 92.0834 72.5398 92.9406 72.496 93.7742C72.4345 94.9414 72.2979 96.0745 72.0316 97.2158C71.9254 97.6709 71.7168 98.4369 71.3683 98.7649C71.291 98.8376 71.2199 97.6382 71.2356 97.4694C71.2874 96.913 71.6345 96.3659 72.0004 95.9593C72.3225 95.6015 72.7144 95.3117 73.054 94.9721C73.3587 94.6674 73.4768 94.1518 73.8266 93.9186" stroke="black" stroke-opacity="0.3" stroke-linecap="round" stroke-linejoin="round"/>
<path d="M75.5826 90.4771C74.8118 91.4897 74.9505 92.5802 74.9505 93.7781C74.9505 94.1199 74.8498 95.273 75.2314 95.4638" stroke="black" stroke-opacity="0.3" stroke-linecap="round" stroke-linejoin="round"/>
<path d="M76.3552 94.0592C76.5658 93.7268 77.0437 93.0388 77.5492 93.1618C77.8828 93.2429 78.1231 93.8311 78.1657 94.1294C78.261 94.7964 78.0159 95.183 77.3385 95.183" stroke="black" stroke-opacity="0.3" stroke-linecap="round" stroke-linejoin="round"/>
<path d="M78.9541 93.6377C78.7097 93.9798 78.6731 94.2087 78.6731 94.6171C78.6731 94.7407 78.6022 95.1683 78.7082 95.2531C79.0137 95.4975 79.3579 95.5165 79.7267 95.3936" stroke="black" stroke-opacity="0.3" stroke-linecap="round" stroke-linejoin="round"/>
<path d="M79.3752 89.7046C80.0256 90.7343 80.5693 92.0162 80.5693 93.2554C80.5693 93.9459 80.2883 94.5793 80.2883 95.2532" stroke="black" stroke-opacity="0.3" stroke-linecap="round" stroke-linejoin="round"/>
<path d="M71.2725 33.6091C71.7682 33.5994 73.9897 32.9906 74.0359 33.5682C74.1059 34.4425 75.1258 33.6703 75.4279 33.4044C75.5808 33.2698 76.8907 31.649 76.9734 32.1455C77.0402 32.5465 76.8297 32.8722 77.3521 32.8722" stroke="black" stroke-opacity="0.3" stroke-linecap="round" stroke-linejoin="round"/>
<path d="M74.6728 41.4297C74.6728 43.8737 74.3879 46.2981 74.3879 48.7369C74.3879 50.6451 74.3879 52.5532 74.3879 54.4614C74.3879 56.2587 74.3879 58.0561 74.3879 59.8534" stroke="black" stroke-opacity="0.3" stroke-linecap="round" stroke-linejoin="round"/>
<path d="M59.0901 56.0603C60.6387 56.0603 62.5512 56.0603 64.0901 56.0603C65.49 56.0603 66.8151 55.8704 68.215 55.8704C70.0328 55.8704 71.8486 56.0603 73.6704 56.0603C75.5601 56.0603 77.4371 56.3193 79.3262 56.3452C80.8802 56.3665 82.422 56.5351 83.9796 56.5351C85.0876 56.5351 86.1955 56.5351 87.3035 56.5351C88.7467 56.5351 90.2765 56.5991 91.672 56.2502" stroke="black" stroke-opacity="0.3" stroke-linecap="round" stroke-linejoin="round"/>
<path d="M72.6785 42.3793C73.1588 41.6197 73.6832 40.9095 74.2191 40.1951C74.3853 39.9734 74.7191 39.2808 74.8627 39.7202C75.0695 40.3528 75.2836 40.9747 75.5064 41.5985C75.6086 41.8845 75.812 42.0931 75.9074 42.3793" stroke="black" stroke-opacity="0.3" stroke-linecap="round" stroke-linejoin="round"/>
<path d="M88.728 54.9208C89.6847 54.9425 90.6087 55.2466 91.5137 55.5275C91.6864 55.5811 92.1315 55.6088 92.1469 55.8705C92.2102 56.9473 90.6411 57.5386 90.3425 58.4346" stroke="black" stroke-opacity="0.3" stroke-linecap="round" stroke-linejoin="round"/>
<path d="M59.157 54.7184C59.9052 54.7184 60.6559 54.7347 61.4042 54.7184C61.9878 54.7057 62.5657 54.4833 63.1516 54.4833C63.5446 54.4833 63.9329 54.4245 64.3307 54.4245C64.5996 54.4245 65.0818 54.4331 65.3433 54.3526C65.7549 54.226 66.2539 54.3188 66.6824 54.3069C67.1126 54.2949 67.5494 54.1564 67.9726 54.0717C68.7725 53.9117 69.5161 53.5981 70.2721 53.3335C70.8687 53.1247 71.5848 52.7853 72.1044 52.4255C72.6696 52.0342 73.0215 51.3927 73.62 51.0602C74.1326 50.7754 74.5938 50.2865 75.0604 49.9236C75.2691 49.7612 75.4851 49.6096 75.6777 49.4271C75.8971 49.2193 76.2521 49.1467 76.4714 48.9274C76.8878 48.5109 77.5571 48.3116 78.0882 48.0879C78.683 47.8375 79.3502 47.802 79.9402 47.5751C80.1799 47.4829 80.5369 47.4026 80.7927 47.3661C81.222 47.3048 81.6604 47.1493 82.0992 47.1342C82.7482 47.1118 83.3709 47.0166 84.0263 47.0166C85.2557 47.0166 85.2727 47.0166 86.4999 47.0166C87.1211 47.0166 88.8917 47.0166 89.4999 47.0166C90.0708 47.0166 90.4173 47.1342 90.9999 47.1342" stroke="black" stroke-opacity="0.3" stroke-linecap="round" stroke-linejoin="round"/>
<path d="M66.1907 101.883C66.1907 103.083 66.1907 104.283 66.1907 105.483" stroke="black" stroke-opacity="0.3" stroke-linecap="round" stroke-linejoin="round"/>
<path d="M43.9077 56.4303C45.0933 55.4929 46.3208 54.6142 47.3903 53.5448C48.2995 52.6355 49.0696 51.6333 49.9773 50.7255C51.0398 49.6631 51.833 48.3852 52.8629 47.3259C53.5793 46.589 54.3775 45.9605 55.1017 45.2363C57.145 43.193 59.1125 41.1019 60.9226 38.8516C62.2074 37.2542 63.4627 35.6812 64.9192 34.2248C65.4173 33.7267 65.8415 33.265 66.4118 32.8483C66.8765 32.5087 67.5791 31.8548 67.9375 31.3889C68.6556 30.4554 69.7137 30.2811 70.7733 30.0457C72.2767 29.7116 74.1648 30.0125 75.6986 30.0125C76.2149 30.0125 76.4709 30.0262 76.8595 30.3442C77.4854 30.8563 79.4038 30.3969 80.1762 30.4934C81.5903 30.6702 82.8174 31.7075 83.7915 32.6659C84.6848 33.5448 85.7305 34.2418 86.5941 35.1534C87.4631 36.0707 87.9495 37.3142 88.8329 38.2214C89.8803 39.2972 91.2025 40.1658 92.1165 41.3557C92.7923 42.2355 93.4014 43.1353 94.0568 44.0091C94.5335 44.6448 95.4961 45.0967 96.0717 45.6841C96.8438 46.4719 97.6886 47.1824 98.5344 47.8897C99.7846 48.9353 100.988 49.9292 102.15 51.0904C102.501 51.4418 102.835 51.8944 103.194 52.2181C103.864 52.8208 104.906 53.2312 105.632 53.8599C106.588 54.6866 107.39 56.0194 108.153 57.0273C109.096 58.2731 110.119 59.5047 110.956 60.825C111.8 62.1577 112.781 63.3839 113.907 64.49C114.715 65.2826 115.725 66.0288 116.296 67.0273C116.674 67.6899 117.236 68.2026 117.639 68.8515C118.145 69.6676 118.543 70.5653 119.098 71.3557C120.034 72.6875 120.027 74.2787 120.027 75.8333C120.027 77.8257 119.042 79.4448 118.169 81.1898C117.498 82.532 116.614 83.7777 115.665 84.9377C114.673 86.1509 113.989 87.5637 113.012 88.7851C112.548 89.3656 111.836 89.8371 111.304 90.3772C109.424 92.2852 107.721 94.3651 105.815 96.2478C104.52 97.5261 102.843 98.6393 101.37 99.7138C99.9921 100.719 98.4651 101.517 97.075 102.516C93.8477 104.836 90.6538 107.074 87.6721 109.714C86.6813 110.591 85.8582 111.843 84.9855 112.848C84.0887 113.881 83.0746 114.857 82.1165 115.833C81.2383 116.728 80.3857 117.597 79.3139 118.254C78.8643 118.53 78.2751 118.862 77.9043 119.233C77.3483 119.789 75.4239 119.415 74.687 119.415C73.9795 119.415 73.2719 119.415 72.5643 119.415C70.681 119.415 69.301 118.413 67.755 117.475C66.4823 116.703 65.3118 115.435 64.2559 114.39C62.9061 113.055 61.3232 112.088 59.8778 110.875C57.6145 108.975 55.7943 106.606 53.6091 104.606C51.8864 103.03 50.2186 101.398 48.5677 99.7469C47.0755 98.2547 45.4759 96.9015 44.0901 95.3025C42.593 93.5751 40.7986 92.1557 39.3472 90.3772C38.3691 89.1786 37.5229 87.8729 36.3289 86.878C35.1935 85.9318 34.2966 84.7409 33.0454 83.9261C32.2799 83.4277 31.8528 82.6506 31.2212 82.019C29.8498 80.6476 29.6023 79.2827 29.314 77.4087C29.0778 75.873 29.0891 73.7231 29.3969 72.218C30.0066 69.2375 32.4689 67.3844 34.5047 65.3855C35.043 64.8571 35.5579 64.3102 36.1382 63.8267C36.5362 63.495 37.1121 63.1712 37.3737 62.7156C38.2294 61.2249 39.6552 60.1262 40.8729 58.9345C42.9202 56.9307 44.8938 54.8472 46.9259 52.8151C47.6893 52.0517 48.797 51.4296 49.4301 50.5763C50.5408 49.0791 52.1672 47.7933 53.576 46.5796C55.9724 44.515 57.7103 41.7104 59.8778 39.4155C61.5738 37.6196 62.9075 35.4792 64.6871 33.777C65.5453 32.9561 66.7322 32.5028 67.6058 31.6875C68.2273 31.1073 68.9676 30.5422 69.7285 30.1618C72.2698 28.8911 75.2427 28.147 78.0867 28.8185C79.4488 29.1401 80.8953 29.5205 81.818 30.6427C82.5854 31.576 83.1609 32.613 83.9076 33.5614C84.7656 34.6514 85.5351 35.8024 86.4117 36.8782C87.4178 38.1129 88.4699 39.2703 89.3968 40.5763C89.7621 41.0911 90.1487 41.372 90.6488 41.7538C91.763 42.604 92.8081 43.5483 93.8744 44.4569C95.7505 46.0557 97.4599 47.82 99.5128 49.1998C101.354 50.4373 103.431 51.1644 105.251 52.4005C106.5 53.2492 107.548 54.5184 108.534 55.6509C109.353 56.5912 110.29 57.4555 111.038 58.4535C113.248 61.3997 115.807 64.089 117.904 67.1434C119.137 68.9395 120.555 71.1633 120.624 73.412C120.664 74.7211 120.657 76.0502 120.624 77.359C120.585 78.9324 119.396 80.3022 118.418 81.422C117.069 82.9668 116.191 84.8499 114.654 86.2478C113.177 87.5899 111.495 89.0473 109.844 90.1616C108.946 90.768 107.664 91.1813 106.893 91.9526C105.906 92.9395 105.465 94.4086 104.538 95.4684C103.466 96.6931 101.927 97.3944 100.74 98.5529C98.602 100.64 96.7519 102.916 94.8362 105.203C92.3783 108.137 89.9671 111.098 87.5228 114.042C86.5605 115.201 85.3095 116.048 84.1729 117.027C83.2773 117.799 82.4771 119.033 81.3703 119.531C80.9527 119.719 80.2506 119.693 79.7948 119.788C78.7983 119.997 77.8057 120.248 76.8263 120.526C75.6063 120.873 74.1471 121.617 72.8628 121.654C72.0239 121.678 71.0439 121.777 70.2426 121.505C68.7718 121.005 67.8345 119.205 66.7103 118.221C65.5886 117.24 64.4205 116.299 63.3438 115.269C62.296 114.267 61.5362 113.114 60.624 111.986C59.9281 111.125 59.5006 110.186 58.8828 109.316C58.2952 108.488 57.4831 107.877 56.7932 107.143C55.6788 105.958 54.6288 104.746 53.6091 103.478C52.0419 101.53 50.1874 99.8585 48.6506 97.8896C47.8929 96.9187 47.1577 95.8826 46.2957 95.0206C43.6993 92.4241 40.5489 90.4116 37.8049 87.9725C36.5815 86.8851 35.5133 85.6478 34.3555 84.4899C33.6392 83.7737 33.279 82.8583 32.6473 82.0687C31.6322 80.7997 30.6817 80.1731 30.3588 78.4866C29.8388 75.7712 29.9133 72.995 30.3588 70.2777C30.7938 67.6241 32.1794 65.7705 34.057 63.893" stroke="black" stroke-opacity="0.3" stroke-linecap="round" stroke-linejoin="round"/>
</svg>
