<svg width="250" height="250" viewBox="0 0 250 250" fill="none" xmlns="http://www.w3.org/2000/svg">
<path fill-rule="evenodd" clip-rule="evenodd" d="M89.3275 51.8516C86.809 48.8954 85.1045 45.2726 85.3893 41.2132C86.21 29.5169 102.492 32.0899 105.659 37.9932C108.826 43.8965 108.45 58.8708 104.356 59.9259C102.724 60.3466 99.2466 59.3159 95.7074 57.1827L97.9289 72.899H84.8118L89.3275 51.8516Z" fill="#B28B67"/>
<path fill-rule="evenodd" clip-rule="evenodd" d="M96.3631 42.505C96.8652 49.4992 98.1934 52.9963 100.348 52.9963C103.579 52.9963 106.321 50.9448 107.739 50.9448C108.773 50.9448 108.542 52.2383 107.857 53.1974C107.292 53.9886 104.539 54.7513 104.539 55.978C104.539 57.2047 106.714 56.2556 106.714 56.9832C106.714 58.1866 107.096 60.4492 105.007 60.4492C102.893 60.4492 96.8329 59.6789 95.7942 56.5417C95.1239 54.517 94.6906 50.3215 94.4941 43.9551C94.3658 43.9399 94.2353 43.932 94.103 43.932C92.2919 43.932 90.8237 45.4002 90.8237 47.2113C90.8237 48.1307 91.2021 48.9618 91.8116 49.5572C91.0528 50.6282 90.2025 51.747 89.228 52.9015C85.5673 50.7052 82.8508 44.2758 86.4298 38.0994C87.419 35.0737 89.6585 33.4576 92.3034 32.7072C94.4459 31.811 96.6701 31.7099 98.5475 32.2472C102.228 32.5629 105.514 33.6851 106.446 34.3516C106.446 37.836 105.771 38.8697 100.004 38.7786C98.587 39.5269 97.4977 40.8156 96.3631 42.505Z" fill="#191847"/>
<path fill-rule="evenodd" clip-rule="evenodd" d="M80.4397 118.262L100.255 187.798L114.712 239.049H125.257L109.894 118.262H80.4397Z" fill="#983698"/>
<path fill-rule="evenodd" clip-rule="evenodd" d="M75.1405 118.262C74.6822 154.102 73.1193 173.65 72.6381 176.906C72.1569 180.162 64.8806 200.876 50.8093 239.049H61.7328C79.6466 202.429 89.6465 181.714 91.7326 176.906C93.8187 172.097 100.257 152.549 109.953 118.262H75.1405Z" fill="#B96CB9"/>
<path fill-rule="evenodd" clip-rule="evenodd" d="M49.833 248.887L50.3796 237.41H61.857C67.2993 241.235 74.4044 244.332 83.1723 246.701V248.887H62.4036L55.2985 247.794V248.887H49.833Z" fill="#191847"/>
<path fill-rule="evenodd" clip-rule="evenodd" d="M113.232 248.887L113.779 237.41H125.256C130.699 241.235 137.804 244.332 146.572 246.701V248.887H125.803L118.698 247.794V248.887H113.232Z" fill="#191847"/>
<path fill-rule="evenodd" clip-rule="evenodd" d="M126.546 109.305L143.044 123.292C147.672 124.894 151.502 126.753 154.534 128.869C155.234 129.602 156.041 131.045 152.958 130.59C149.874 130.135 146.61 129.795 146.108 130.822C145.606 131.85 147.394 133.246 146.43 134.612C145.787 135.523 143.23 132.947 138.759 126.885L122.036 118.539L126.546 109.305ZM51.8371 103.252L61.5174 104.658C51.1265 127.203 45.5558 139.126 44.8053 140.427C43.1167 143.354 45.1026 148.454 45.8789 151.153C41.9556 152.286 43.2086 146.225 38.2478 147.736C33.7198 149.116 29.9832 152.245 25.4987 148.525C24.9473 148.067 24.4829 146.572 26.2353 145.701C30.6013 143.53 37.0116 139.557 38.008 138.093C39.3669 136.097 43.9766 124.483 51.8371 103.252Z" fill="#B28B67"/>
<path fill-rule="evenodd" clip-rule="evenodd" d="M92.2969 63.7893L98.2952 61.8057C106.432 82.1319 118.567 101.798 138.842 118.41L133.828 127.06C116.009 116.564 99.1416 108.41 92.2969 92.6593C89.9996 87.3731 92.1094 70.1101 92.2969 63.7893Z" fill="#C5CFD6"/>
<path fill-rule="evenodd" clip-rule="evenodd" d="M71.6946 120.995C88.8771 122.817 102.402 122.817 112.268 120.995C113.491 120.77 113.683 118.723 113.116 117.334C104.289 95.7034 98.235 76.8297 98.235 61.8057C96.6152 62.6223 93.7804 62.7447 89.7306 62.1728C78.8468 77.6555 73.8439 95.4202 71.6946 120.995Z" fill="#E766E7"/>
<path fill-rule="evenodd" clip-rule="evenodd" d="M87.0252 60.875H91.561C92.6171 67.0865 95.9482 151.199 106.231 178.714H50.5901C51.7964 153.508 61.3121 123.229 70.9515 97.8917C62.4279 105.692 54.9988 118.908 48.6644 137.541L38.2422 134.865C45.9915 101.473 61.924 76.9298 86.0397 61.2352C86.0919 61.1146 86.1439 60.9945 86.1956 60.875H86.597C86.7448 60.7802 86.8928 60.6857 87.0411 60.5916L87.0252 60.875V60.875Z" fill="#DDE3E9"/>
<path fill-rule="evenodd" clip-rule="evenodd" d="M146.515 42.4853L113.485 75.5147C108.799 80.201 108.799 87.799 113.485 92.4853L146.515 125.515C151.201 130.201 158.799 130.201 163.485 125.515L196.515 92.4853C201.201 87.799 201.201 80.201 196.515 75.5147L163.485 42.4853C158.799 37.799 151.201 37.799 146.515 42.4853ZM155 94C160.523 94 165 89.5229 165 84C165 78.4772 160.523 74 155 74C149.477 74 145 78.4772 145 84C145 89.5229 149.477 94 155 94Z" fill="#FF74FF"/>
</svg>
