<svg width="320" height="160" viewBox="0 0 320 160" fill="none" xmlns="http://www.w3.org/2000/svg">
<rect width="320" height="160" fill="#FF74FF"/>
<path d="M42.604 85.824C42.856 84.996 43.084 84.108 43.3 83.232H43.348C43.576 84.096 43.804 84.996 44.056 85.824L44.332 86.784H42.328L42.604 85.824ZM39.976 90H41.392L42.004 87.876H44.644L45.256 90H46.72L44.164 82.152H42.532L39.976 90ZM53.6521 90.144C55.4161 90.144 56.4721 89.088 56.4721 87.816C56.4721 86.676 55.8121 86.088 54.8881 85.692L53.8201 85.248C53.1721 84.984 52.5721 84.756 52.5721 84.144C52.5721 83.568 53.0641 83.22 53.8081 83.22C54.4801 83.22 55.0081 83.472 55.5121 83.892L56.2201 83.004C55.6081 82.392 54.7201 82.008 53.8081 82.008C52.2721 82.008 51.1681 82.968 51.1681 84.216C51.1681 85.368 51.9841 85.98 52.7521 86.304L53.8321 86.772C54.5401 87.072 55.0441 87.276 55.0441 87.924C55.0441 88.536 54.5641 88.932 53.6761 88.932C52.9561 88.932 52.2001 88.572 51.6361 88.044L50.8201 88.992C51.5641 89.724 52.5961 90.144 53.6521 90.144ZM60.2391 90.144C60.9111 90.144 61.6071 89.904 62.1591 89.424L61.5951 88.512C61.2591 88.788 60.8391 89.016 60.3831 89.016C59.4591 89.016 58.8111 88.236 58.8111 87.06C58.8111 85.872 59.4711 85.092 60.4191 85.092C60.7911 85.092 61.0911 85.248 61.4031 85.524L62.0751 84.624C61.6431 84.252 61.1031 83.964 60.3471 83.964C58.7751 83.964 57.3951 85.092 57.3951 87.06C57.3951 89.016 58.6311 90.144 60.2391 90.144ZM64.6329 90.144C65.3289 90.144 65.9289 89.796 66.4569 89.352H66.5049L66.6009 90H67.7409V86.508C67.7409 84.864 67.0089 83.964 65.5449 83.964C64.6089 83.964 63.7689 84.324 63.1209 84.732L63.6249 85.656C64.1529 85.344 64.7049 85.08 65.2809 85.08C66.0849 85.08 66.3369 85.608 66.3609 86.232C63.9369 86.496 62.8929 87.156 62.8929 88.416C62.8929 89.448 63.6009 90.144 64.6329 90.144ZM65.0769 89.064C64.5849 89.064 64.2249 88.836 64.2249 88.308C64.2249 87.72 64.7529 87.3 66.3609 87.096V88.416C65.9169 88.824 65.5569 89.064 65.0769 89.064ZM70.7364 90.144C71.0604 90.144 71.3004 90.096 71.4684 90.024L71.2884 88.992C71.1804 89.016 71.1324 89.016 71.0724 89.016C70.9284 89.016 70.7724 88.896 70.7724 88.56V81.528H69.3924V88.488C69.3924 89.508 69.7524 90.144 70.7364 90.144ZM74.0782 90.144C74.7742 90.144 75.3742 89.796 75.9022 89.352H75.9502L76.0462 90H77.1862V86.508C77.1862 84.864 76.4542 83.964 74.9902 83.964C74.0542 83.964 73.2142 84.324 72.5662 84.732L73.0702 85.656C73.5982 85.344 74.1502 85.08 74.7262 85.08C75.5302 85.08 75.7822 85.608 75.8062 86.232C73.3822 86.496 72.3382 87.156 72.3382 88.416C72.3382 89.448 73.0462 90.144 74.0782 90.144ZM74.5222 89.064C74.0302 89.064 73.6702 88.836 73.6702 88.308C73.6702 87.72 74.1982 87.3 75.8062 87.096V88.416C75.3622 88.824 75.0022 89.064 74.5222 89.064ZM81.6937 90.144C83.0017 90.144 84.2137 88.98 84.2137 86.952C84.2137 85.14 83.3617 83.964 81.8857 83.964C81.2857 83.964 80.6737 84.264 80.1817 84.696L80.2177 83.712V81.528H78.8377V90H79.9297L80.0497 89.376H80.0857C80.5777 89.868 81.1537 90.144 81.6937 90.144ZM81.4057 89.004C81.0577 89.004 80.6377 88.872 80.2177 88.512V85.764C80.6737 85.32 81.0817 85.104 81.5137 85.104C82.4017 85.104 82.7857 85.8 82.7857 86.976C82.7857 88.308 82.1857 89.004 81.4057 89.004ZM86.9434 90.144C87.2674 90.144 87.5074 90.096 87.6754 90.024L87.4954 88.992C87.3874 89.016 87.3394 89.016 87.2794 89.016C87.1354 89.016 86.9794 88.896 86.9794 88.56V81.528H85.5994V88.488C85.5994 89.508 85.9594 90.144 86.9434 90.144ZM91.3773 90.144C92.1213 90.144 92.8293 89.88 93.3933 89.508L92.9253 88.644C92.4933 88.92 92.0613 89.076 91.5573 89.076C90.6093 89.076 89.9373 88.476 89.8173 87.432H93.5613C93.5973 87.288 93.6213 87.024 93.6213 86.76C93.6213 85.116 92.7813 83.964 91.1853 83.964C89.8053 83.964 88.4733 85.14 88.4733 87.06C88.4733 89.004 89.7453 90.144 91.3773 90.144ZM89.8053 86.496C89.9253 85.548 90.5253 85.032 91.2213 85.032C92.0253 85.032 92.4213 85.584 92.4213 86.496H89.8053ZM98.7319 90H100.124V82.152H98.7319V90ZM101.999 90H103.379V85.884C103.835 85.392 104.255 85.152 104.615 85.152C105.239 85.152 105.527 85.512 105.527 86.484V90H106.907V85.884C107.363 85.392 107.771 85.152 108.143 85.152C108.755 85.152 109.043 85.512 109.043 86.484V90H110.435V86.304C110.435 84.816 109.859 83.964 108.611 83.964C107.867 83.964 107.279 84.42 106.715 85.02C106.439 84.36 105.947 83.964 105.083 83.964C104.351 83.964 103.775 84.384 103.283 84.912H103.235L103.139 84.108H101.999V90ZM113.54 90.144C114.236 90.144 114.836 89.796 115.364 89.352H115.412L115.508 90H116.648V86.508C116.648 84.864 115.916 83.964 114.452 83.964C113.516 83.964 112.676 84.324 112.028 84.732L112.532 85.656C113.06 85.344 113.612 85.08 114.188 85.08C114.992 85.08 115.244 85.608 115.268 86.232C112.844 86.496 111.8 87.156 111.8 88.416C111.8 89.448 112.508 90.144 113.54 90.144ZM113.984 89.064C113.492 89.064 113.132 88.836 113.132 88.308C113.132 87.72 113.66 87.3 115.268 87.096V88.416C114.824 88.824 114.464 89.064 113.984 89.064ZM120.351 92.604C122.271 92.604 123.495 91.692 123.495 90.528C123.495 89.508 122.751 89.076 121.335 89.076H120.291C119.571 89.076 119.331 88.872 119.331 88.536C119.331 88.272 119.439 88.128 119.619 87.972C119.883 88.08 120.171 88.128 120.423 88.128C121.671 88.128 122.655 87.432 122.655 86.124C122.655 85.716 122.511 85.356 122.319 85.128H123.399V84.108H121.287C121.047 84.024 120.747 83.964 120.423 83.964C119.187 83.964 118.095 84.72 118.095 86.076C118.095 86.772 118.467 87.336 118.863 87.636V87.684C118.527 87.924 118.215 88.32 118.215 88.776C118.215 89.256 118.443 89.568 118.743 89.76V89.808C118.203 90.144 117.903 90.576 117.903 91.068C117.903 92.1 118.947 92.604 120.351 92.604ZM120.423 87.264C119.847 87.264 119.391 86.832 119.391 86.076C119.391 85.332 119.847 84.912 120.423 84.912C120.999 84.912 121.443 85.344 121.443 86.076C121.443 86.832 120.987 87.264 120.423 87.264ZM120.567 91.704C119.631 91.704 119.055 91.392 119.055 90.864C119.055 90.588 119.199 90.324 119.511 90.084C119.739 90.144 119.991 90.168 120.315 90.168H121.119C121.791 90.168 122.163 90.3 122.163 90.756C122.163 91.26 121.515 91.704 120.567 91.704ZM126.866 90.144C127.61 90.144 128.318 89.88 128.882 89.508L128.414 88.644C127.982 88.92 127.55 89.076 127.046 89.076C126.098 89.076 125.426 88.476 125.306 87.432H129.05C129.086 87.288 129.11 87.024 129.11 86.76C129.11 85.116 128.27 83.964 126.674 83.964C125.294 83.964 123.962 85.14 123.962 87.06C123.962 89.004 125.234 90.144 126.866 90.144ZM125.294 86.496C125.414 85.548 126.014 85.032 126.71 85.032C127.514 85.032 127.91 85.584 127.91 86.496H125.294ZM134.221 90H135.613V86.928H136.813L138.505 90H140.065L138.193 86.724C139.129 86.4 139.753 85.68 139.753 84.48C139.753 82.728 138.505 82.152 136.873 82.152H134.221V90ZM135.613 85.824V83.268H136.729C137.797 83.268 138.385 83.58 138.385 84.48C138.385 85.368 137.797 85.824 136.729 85.824H135.613ZM143.605 90.144C144.349 90.144 145.057 89.88 145.621 89.508L145.153 88.644C144.721 88.92 144.289 89.076 143.785 89.076C142.837 89.076 142.165 88.476 142.045 87.432H145.789C145.825 87.288 145.849 87.024 145.849 86.76C145.849 85.116 145.009 83.964 143.413 83.964C142.033 83.964 140.701 85.14 140.701 87.06C140.701 89.004 141.973 90.144 143.605 90.144ZM142.033 86.496C142.153 85.548 142.753 85.032 143.449 85.032C144.253 85.032 144.649 85.584 144.649 86.496H142.033ZM149.627 90.144C150.299 90.144 150.995 89.904 151.547 89.424L150.983 88.512C150.647 88.788 150.227 89.016 149.771 89.016C148.847 89.016 148.199 88.236 148.199 87.06C148.199 85.872 148.859 85.092 149.807 85.092C150.179 85.092 150.479 85.248 150.791 85.524L151.463 84.624C151.031 84.252 150.491 83.964 149.735 83.964C148.163 83.964 146.783 85.092 146.783 87.06C146.783 89.016 148.019 90.144 149.627 90.144ZM154.829 90.144C156.305 90.144 157.637 89.016 157.637 87.06C157.637 85.092 156.305 83.964 154.829 83.964C153.365 83.964 152.033 85.092 152.033 87.06C152.033 89.016 153.365 90.144 154.829 90.144ZM154.829 89.016C153.965 89.016 153.449 88.236 153.449 87.06C153.449 85.872 153.965 85.092 154.829 85.092C155.693 85.092 156.221 85.872 156.221 87.06C156.221 88.236 155.693 89.016 154.829 89.016ZM161.055 92.604C162.975 92.604 164.199 91.692 164.199 90.528C164.199 89.508 163.455 89.076 162.039 89.076H160.995C160.275 89.076 160.035 88.872 160.035 88.536C160.035 88.272 160.143 88.128 160.323 87.972C160.587 88.08 160.875 88.128 161.127 88.128C162.375 88.128 163.359 87.432 163.359 86.124C163.359 85.716 163.215 85.356 163.023 85.128H164.103V84.108H161.991C161.751 84.024 161.451 83.964 161.127 83.964C159.891 83.964 158.799 84.72 158.799 86.076C158.799 86.772 159.171 87.336 159.567 87.636V87.684C159.231 87.924 158.919 88.32 158.919 88.776C158.919 89.256 159.147 89.568 159.447 89.76V89.808C158.907 90.144 158.607 90.576 158.607 91.068C158.607 92.1 159.651 92.604 161.055 92.604ZM161.127 87.264C160.551 87.264 160.095 86.832 160.095 86.076C160.095 85.332 160.551 84.912 161.127 84.912C161.703 84.912 162.147 85.344 162.147 86.076C162.147 86.832 161.691 87.264 161.127 87.264ZM161.271 91.704C160.335 91.704 159.759 91.392 159.759 90.864C159.759 90.588 159.903 90.324 160.215 90.084C160.443 90.144 160.695 90.168 161.019 90.168H161.823C162.495 90.168 162.867 90.3 162.867 90.756C162.867 91.26 162.219 91.704 161.271 91.704ZM165.238 90H166.618V85.884C167.11 85.404 167.446 85.152 167.962 85.152C168.61 85.152 168.886 85.512 168.886 86.484V90H170.266V86.304C170.266 84.816 169.714 83.964 168.454 83.964C167.65 83.964 167.05 84.384 166.522 84.9H166.474L166.378 84.108H165.238V90ZM171.953 90H173.333V84.108H171.953V90ZM172.649 83.076C173.141 83.076 173.501 82.752 173.501 82.296C173.501 81.828 173.141 81.504 172.649 81.504C172.157 81.504 171.797 81.828 171.797 82.296C171.797 82.752 172.157 83.076 172.649 83.076ZM177.169 90.144C177.637 90.144 178.045 90.036 178.369 89.928L178.129 88.908C177.961 88.98 177.721 89.04 177.517 89.04C176.953 89.04 176.689 88.704 176.689 88.008V85.2H178.189V84.108H176.689V82.5H175.537L175.369 84.108L174.457 84.168V85.2H175.297V88.008C175.297 89.28 175.801 90.144 177.169 90.144ZM179.429 90H180.809V84.108H179.429V90ZM180.125 83.076C180.617 83.076 180.977 82.752 180.977 82.296C180.977 81.828 180.617 81.504 180.125 81.504C179.633 81.504 179.273 81.828 179.273 82.296C179.273 82.752 179.633 83.076 180.125 83.076ZM184.982 90.144C186.458 90.144 187.79 89.016 187.79 87.06C187.79 85.092 186.458 83.964 184.982 83.964C183.518 83.964 182.186 85.092 182.186 87.06C182.186 89.016 183.518 90.144 184.982 90.144ZM184.982 89.016C184.118 89.016 183.602 88.236 183.602 87.06C183.602 85.872 184.118 85.092 184.982 85.092C185.846 85.092 186.374 85.872 186.374 87.06C186.374 88.236 185.846 89.016 184.982 89.016ZM189.156 90H190.536V85.884C191.028 85.404 191.364 85.152 191.88 85.152C192.528 85.152 192.804 85.512 192.804 86.484V90H194.184V86.304C194.184 84.816 193.632 83.964 192.372 83.964C191.568 83.964 190.968 84.384 190.44 84.9H190.392L190.296 84.108H189.156V90ZM199.663 90H204.511V88.824H201.055V86.508H203.875V85.332H201.055V83.328H204.391V82.152H199.663V90ZM206 90H207.38V85.884C207.872 85.404 208.208 85.152 208.724 85.152C209.372 85.152 209.648 85.512 209.648 86.484V90H211.028V86.304C211.028 84.816 210.476 83.964 209.216 83.964C208.412 83.964 207.812 84.384 207.284 84.9H207.236L207.14 84.108H206V90ZM214.767 92.604C216.687 92.604 217.911 91.692 217.911 90.528C217.911 89.508 217.167 89.076 215.751 89.076H214.707C213.987 89.076 213.747 88.872 213.747 88.536C213.747 88.272 213.855 88.128 214.035 87.972C214.299 88.08 214.587 88.128 214.839 88.128C216.087 88.128 217.071 87.432 217.071 86.124C217.071 85.716 216.927 85.356 216.735 85.128H217.815V84.108H215.703C215.463 84.024 215.163 83.964 214.839 83.964C213.603 83.964 212.511 84.72 212.511 86.076C212.511 86.772 212.883 87.336 213.279 87.636V87.684C212.943 87.924 212.631 88.32 212.631 88.776C212.631 89.256 212.859 89.568 213.159 89.76V89.808C212.619 90.144 212.319 90.576 212.319 91.068C212.319 92.1 213.363 92.604 214.767 92.604ZM214.839 87.264C214.263 87.264 213.807 86.832 213.807 86.076C213.807 85.332 214.263 84.912 214.839 84.912C215.415 84.912 215.859 85.344 215.859 86.076C215.859 86.832 215.403 87.264 214.839 87.264ZM214.983 91.704C214.047 91.704 213.471 91.392 213.471 90.864C213.471 90.588 213.615 90.324 213.927 90.084C214.155 90.144 214.407 90.168 214.731 90.168H215.535C216.207 90.168 216.579 90.3 216.579 90.756C216.579 91.26 215.931 91.704 214.983 91.704ZM218.949 90H220.329V84.108H218.949V90ZM219.645 83.076C220.137 83.076 220.497 82.752 220.497 82.296C220.497 81.828 220.137 81.504 219.645 81.504C219.153 81.504 218.793 81.828 218.793 82.296C218.793 82.752 219.153 83.076 219.645 83.076ZM222.09 90H223.47V85.884C223.962 85.404 224.298 85.152 224.814 85.152C225.462 85.152 225.738 85.512 225.738 86.484V90H227.118V86.304C227.118 84.816 226.566 83.964 225.306 83.964C224.502 83.964 223.902 84.384 223.374 84.9H223.326L223.23 84.108H222.09V90ZM231.325 90.144C232.069 90.144 232.777 89.88 233.341 89.508L232.873 88.644C232.441 88.92 232.009 89.076 231.505 89.076C230.557 89.076 229.885 88.476 229.765 87.432H233.509C233.545 87.288 233.569 87.024 233.569 86.76C233.569 85.116 232.729 83.964 231.133 83.964C229.753 83.964 228.421 85.14 228.421 87.06C228.421 89.004 229.693 90.144 231.325 90.144ZM229.753 86.496C229.873 85.548 230.473 85.032 231.169 85.032C231.973 85.032 232.369 85.584 232.369 86.496H229.753ZM240.264 90H241.656V83.328H243.924V82.152H237.996V83.328H240.264V90ZM244.583 90H245.963V86.4C246.323 85.512 246.887 85.188 247.355 85.188C247.607 85.188 247.763 85.224 247.967 85.284L248.207 84.084C248.027 84 247.835 83.964 247.535 83.964C246.911 83.964 246.287 84.384 245.867 85.152H245.819L245.723 84.108H244.583V90ZM250.171 90.144C250.867 90.144 251.467 89.796 251.995 89.352H252.043L252.139 90H253.279V86.508C253.279 84.864 252.547 83.964 251.083 83.964C250.147 83.964 249.307 84.324 248.659 84.732L249.163 85.656C249.691 85.344 250.243 85.08 250.819 85.08C251.623 85.08 251.875 85.608 251.899 86.232C249.475 86.496 248.431 87.156 248.431 88.416C248.431 89.448 249.139 90.144 250.171 90.144ZM250.615 89.064C250.123 89.064 249.763 88.836 249.763 88.308C249.763 87.72 250.291 87.3 251.899 87.096V88.416C251.455 88.824 251.095 89.064 250.615 89.064ZM254.931 90H256.311V84.108H254.931V90ZM255.627 83.076C256.119 83.076 256.479 82.752 256.479 82.296C256.479 81.828 256.119 81.504 255.627 81.504C255.135 81.504 254.775 81.828 254.775 82.296C254.775 82.752 255.135 83.076 255.627 83.076ZM258.071 90H259.451V85.884C259.943 85.404 260.279 85.152 260.795 85.152C261.443 85.152 261.719 85.512 261.719 86.484V90H263.099V86.304C263.099 84.816 262.547 83.964 261.287 83.964C260.483 83.964 259.883 84.384 259.355 84.9H259.307L259.211 84.108H258.071V90ZM264.786 90H266.166V84.108H264.786V90ZM265.482 83.076C265.974 83.076 266.334 82.752 266.334 82.296C266.334 81.828 265.974 81.504 265.482 81.504C264.99 81.504 264.63 81.828 264.63 82.296C264.63 82.752 264.99 83.076 265.482 83.076ZM267.927 90H269.307V85.884C269.799 85.404 270.135 85.152 270.651 85.152C271.299 85.152 271.575 85.512 271.575 86.484V90H272.955V86.304C272.955 84.816 272.403 83.964 271.143 83.964C270.339 83.964 269.739 84.384 269.211 84.9H269.163L269.067 84.108H267.927V90ZM276.694 92.604C278.614 92.604 279.838 91.692 279.838 90.528C279.838 89.508 279.094 89.076 277.678 89.076H276.634C275.914 89.076 275.674 88.872 275.674 88.536C275.674 88.272 275.782 88.128 275.962 87.972C276.226 88.08 276.514 88.128 276.766 88.128C278.014 88.128 278.998 87.432 278.998 86.124C278.998 85.716 278.854 85.356 278.662 85.128H279.742V84.108H277.63C277.39 84.024 277.09 83.964 276.766 83.964C275.53 83.964 274.438 84.72 274.438 86.076C274.438 86.772 274.81 87.336 275.206 87.636V87.684C274.87 87.924 274.558 88.32 274.558 88.776C274.558 89.256 274.786 89.568 275.086 89.76V89.808C274.546 90.144 274.246 90.576 274.246 91.068C274.246 92.1 275.29 92.604 276.694 92.604ZM276.766 87.264C276.19 87.264 275.734 86.832 275.734 86.076C275.734 85.332 276.19 84.912 276.766 84.912C277.342 84.912 277.786 85.344 277.786 86.076C277.786 86.832 277.33 87.264 276.766 87.264ZM276.91 91.704C275.974 91.704 275.398 91.392 275.398 90.864C275.398 90.588 275.542 90.324 275.854 90.084C276.082 90.144 276.334 90.168 276.658 90.168H277.462C278.134 90.168 278.506 90.3 278.506 90.756C278.506 91.26 277.858 91.704 276.91 91.704ZM42.52 105.144C44.008 105.144 44.812 104.328 44.812 103.32C44.812 102.216 43.924 101.832 43.12 101.532C42.484 101.304 41.896 101.124 41.896 100.656C41.896 100.284 42.172 100.008 42.76 100.008C43.228 100.008 43.648 100.212 44.056 100.512L44.692 99.672C44.212 99.3 43.552 98.964 42.736 98.964C41.416 98.964 40.588 99.696 40.588 100.728C40.588 101.712 41.464 102.156 42.244 102.444C42.868 102.684 43.504 102.9 43.504 103.392C43.504 103.8 43.204 104.1 42.568 104.1C41.968 104.1 41.464 103.848 40.936 103.44L40.288 104.328C40.864 104.796 41.716 105.144 42.52 105.144ZM46.44 107.424C47.724 107.424 48.336 106.596 48.828 105.264L50.964 99.108H49.632L48.744 102C48.6 102.528 48.444 103.116 48.3 103.656H48.252C48.072 103.104 47.904 102.516 47.736 102L46.716 99.108H45.312L47.628 104.928L47.52 105.3C47.328 105.888 46.968 106.308 46.344 106.308C46.2 106.308 46.032 106.26 45.924 106.224L45.672 107.304C45.888 107.376 46.116 107.424 46.44 107.424ZM53.6294 105.144C55.1174 105.144 55.9214 104.328 55.9214 103.32C55.9214 102.216 55.0334 101.832 54.2294 101.532C53.5934 101.304 53.0054 101.124 53.0054 100.656C53.0054 100.284 53.2814 100.008 53.8694 100.008C54.3374 100.008 54.7574 100.212 55.1654 100.512L55.8014 99.672C55.3214 99.3 54.6614 98.964 53.8454 98.964C52.5254 98.964 51.6974 99.696 51.6974 100.728C51.6974 101.712 52.5734 102.156 53.3534 102.444C53.9774 102.684 54.6134 102.9 54.6134 103.392C54.6134 103.8 54.3134 104.1 53.6774 104.1C53.0774 104.1 52.5734 103.848 52.0454 103.44L51.3974 104.328C51.9734 104.796 52.8254 105.144 53.6294 105.144ZM58.995 105.144C59.463 105.144 59.871 105.036 60.195 104.928L59.955 103.908C59.787 103.98 59.547 104.04 59.343 104.04C58.779 104.04 58.515 103.704 58.515 103.008V100.2H60.015V99.108H58.515V97.5H57.363L57.195 99.108L56.283 99.168V100.2H57.123V103.008C57.123 104.28 57.627 105.144 58.995 105.144ZM63.5874 105.144C64.3314 105.144 65.0394 104.88 65.6034 104.508L65.1354 103.644C64.7034 103.92 64.2714 104.076 63.7674 104.076C62.8194 104.076 62.1474 103.476 62.0274 102.432H65.7714C65.8074 102.288 65.8314 102.024 65.8314 101.76C65.8314 100.116 64.9914 98.964 63.3954 98.964C62.0154 98.964 60.6834 100.14 60.6834 102.06C60.6834 104.004 61.9554 105.144 63.5874 105.144ZM62.0154 101.496C62.1354 100.548 62.7354 100.032 63.4314 100.032C64.2354 100.032 64.6314 100.584 64.6314 101.496H62.0154ZM67.1494 105H68.5294V100.884C68.9854 100.392 69.4054 100.152 69.7654 100.152C70.3894 100.152 70.6774 100.512 70.6774 101.484V105H72.0574V100.884C72.5134 100.392 72.9214 100.152 73.2934 100.152C73.9054 100.152 74.1934 100.512 74.1934 101.484V105H75.5854V101.304C75.5854 99.816 75.0094 98.964 73.7614 98.964C73.0174 98.964 72.4294 99.42 71.8654 100.02C71.5894 99.36 71.0974 98.964 70.2334 98.964C69.5014 98.964 68.9254 99.384 68.4334 99.912H68.3854L68.2894 99.108H67.1494V105Z" fill="white"/>
<path fill-rule="evenodd" clip-rule="evenodd" d="M56.7253 25.2427L40.272 41.696C37.9289 44.0392 37.9289 47.8381 40.272 50.1813L56.7253 66.6346C59.0685 68.9777 62.8674 68.9777 65.2106 66.6346L81.6639 50.1813C84.007 47.8381 84.007 44.0392 81.6639 41.696L65.2106 25.2427C62.8674 22.8996 59.0685 22.8996 56.7253 25.2427ZM60.968 50.9264C63.7226 50.9264 65.9557 48.6933 65.9557 45.9387C65.9557 43.184 63.7226 40.9509 60.968 40.9509C58.2133 40.9509 55.9802 43.184 55.9802 45.9387C55.9802 48.6933 58.2133 50.9264 60.968 50.9264Z" fill="white"/>
<path d="M106.706 57.384C109.426 57.384 111.73 56.328 113.458 54.312L110.962 51.368C109.938 52.456 108.594 53.32 106.898 53.32C103.826 53.32 101.842 50.824 101.842 46.536C101.842 42.344 104.114 39.816 106.962 39.816C108.466 39.816 109.586 40.52 110.642 41.48L113.138 38.472C111.73 37.032 109.554 35.752 106.866 35.752C101.586 35.752 97.0101 39.784 97.0101 46.696C97.0101 53.704 101.426 57.384 106.706 57.384ZM120.699 57.384C122.875 57.384 124.347 56.392 125.691 54.792H125.787L126.139 57H129.979V41.128H125.275V51.624C124.347 52.872 123.643 53.384 122.459 53.384C121.083 53.384 120.475 52.648 120.475 50.376V41.128H115.771V50.984C115.771 54.952 117.243 57.384 120.699 57.384ZM134.118 57H138.822V47.784C139.654 45.64 141.126 44.872 142.31 44.872C142.982 44.872 143.462 44.968 144.038 45.128L144.806 41.064C144.358 40.872 143.814 40.744 142.918 40.744C141.286 40.744 139.558 41.768 138.406 43.912H138.278L137.958 41.128H134.118V57ZM146.868 57H151.572V41.128H146.868V57ZM149.204 38.792C150.804 38.792 151.924 37.768 151.924 36.328C151.924 34.888 150.804 33.896 149.204 33.896C147.636 33.896 146.484 34.888 146.484 36.328C146.484 37.768 147.636 38.792 149.204 38.792ZM162.528 57.384C166.528 57.384 170.24 54.344 170.24 49.064C170.24 43.784 166.528 40.744 162.528 40.744C158.496 40.744 154.784 43.784 154.784 49.064C154.784 54.344 158.496 57.384 162.528 57.384ZM162.528 53.576C160.576 53.576 159.616 51.816 159.616 49.064C159.616 46.312 160.576 44.552 162.528 44.552C164.448 44.552 165.44 46.312 165.44 49.064C165.44 51.816 164.448 53.576 162.528 53.576ZM177.978 57.384C182.234 57.384 184.506 55.144 184.506 52.264C184.506 49.352 182.234 48.232 180.218 47.496C178.586 46.888 177.114 46.504 177.114 45.48C177.114 44.68 177.69 44.232 178.906 44.232C180.026 44.232 181.114 44.744 182.266 45.576L184.378 42.76C183.002 41.736 181.21 40.744 178.778 40.744C175.098 40.744 172.698 42.76 172.698 45.704C172.698 48.328 174.97 49.64 176.89 50.376C178.522 51.016 180.122 51.496 180.122 52.552C180.122 53.384 179.514 53.896 178.106 53.896C176.762 53.896 175.45 53.32 174.01 52.232L171.898 55.176C173.498 56.488 175.898 57.384 177.978 57.384ZM187.493 57H192.197V41.128H187.493V57ZM189.829 38.792C191.429 38.792 192.549 37.768 192.549 36.328C192.549 34.888 191.429 33.896 189.829 33.896C188.261 33.896 187.109 34.888 187.109 36.328C187.109 37.768 188.261 38.792 189.829 38.792ZM202.449 57.384C203.985 57.384 205.137 57.064 205.969 56.808L205.233 53.384C204.817 53.544 204.241 53.704 203.729 53.704C202.481 53.704 201.681 52.968 201.681 51.176V44.808H205.489V41.128H201.681V36.904H197.777L197.233 41.128L194.801 41.32V44.808H196.977V51.24C196.977 54.92 198.513 57.384 202.449 57.384ZM210.347 63.208C214.091 63.208 215.787 61.16 217.291 57.16L222.795 41.128H218.283L216.363 47.944C215.979 49.448 215.627 50.952 215.275 52.456H215.147C214.731 50.888 214.347 49.384 213.899 47.944L211.627 41.128H206.891L213.003 56.584L212.779 57.416C212.363 58.664 211.563 59.496 209.995 59.496C209.643 59.496 209.227 59.368 208.939 59.304L208.107 62.888C208.747 63.08 209.387 63.208 210.347 63.208Z" fill="white"/>
<path d="M107.528 131.144C109.724 131.144 111.44 128.9 111.44 126.308C111.44 124.28 110.384 123.008 108.608 123.008C106.424 123.008 104.696 125.252 104.696 127.844C104.696 129.872 105.764 131.144 107.528 131.144ZM107.6 130.028C106.544 130.028 106.028 129.14 106.028 127.748C106.028 125.924 107.144 124.124 108.536 124.124C109.592 124.124 110.12 125.012 110.12 126.404C110.12 128.228 108.992 130.028 107.6 130.028ZM113.378 130.376H113.402C113.69 130.832 114.158 131.144 114.71 131.144C116.33 131.144 117.866 129.368 117.866 127.112C117.866 125.732 117.23 124.964 116.186 124.964C115.514 124.964 114.842 125.336 114.278 125.828H114.242L114.266 125.108H113.222L111.566 133.328H112.85L113.186 131.576L113.378 130.376ZM115.658 126.02C116.198 126.02 116.546 126.428 116.546 127.28C116.546 128.804 115.622 130.088 114.626 130.088C114.254 130.088 113.906 129.884 113.654 129.392L114.158 126.872C114.602 126.296 115.202 126.02 115.658 126.02ZM118.693 128.648C118.693 130.232 119.653 131.144 121.057 131.144C121.897 131.144 122.593 130.856 123.073 130.52L122.593 129.692C122.269 129.932 121.813 130.16 121.393 130.16C120.505 130.16 119.809 129.632 119.941 128.384H123.529C123.613 128.192 123.781 127.652 123.781 127.136C123.781 125.912 123.277 124.964 121.909 124.964C120.361 124.964 118.693 126.452 118.693 128.648ZM120.049 127.568C120.337 126.56 121.045 125.96 121.753 125.96C122.473 125.96 122.713 126.476 122.713 127.052C122.713 127.244 122.689 127.412 122.653 127.568H120.049ZM124.42 131H125.716L126.508 126.98C127.132 126.344 127.588 126.068 127.996 126.068C128.5 126.068 128.74 126.32 128.74 126.824C128.74 127.004 128.692 127.172 128.644 127.448L127.924 131H129.208L129.952 127.28C130.024 126.968 130.048 126.728 130.048 126.452C130.048 125.504 129.64 124.964 128.656 124.964C127.912 124.964 127.252 125.408 126.628 125.936H126.58L126.64 125.108H125.596L124.42 131ZM134.961 131.144C136.317 131.144 137.301 130.4 137.301 129.26C137.301 128.54 136.869 128.072 135.993 127.604C135.489 127.316 134.985 127.112 134.985 126.68C134.985 126.272 135.381 125.936 135.921 125.936C136.389 125.936 136.749 126.188 137.049 126.488L137.769 125.804C137.313 125.324 136.689 124.964 135.921 124.964C134.745 124.964 133.773 125.732 133.773 126.8C133.773 127.508 134.253 128 135.033 128.432C135.777 128.84 136.089 129.044 136.089 129.416C136.089 129.848 135.609 130.184 135.057 130.184C134.529 130.184 134.049 129.896 133.665 129.392L132.897 130.016C133.341 130.688 134.217 131.144 134.961 131.144ZM140.53 131.144C142.15 131.144 143.782 129.608 143.782 127.364C143.782 125.888 142.906 124.964 141.574 124.964C139.966 124.964 138.334 126.488 138.334 128.744C138.334 130.208 139.21 131.144 140.53 131.144ZM140.674 130.1C139.99 130.1 139.63 129.584 139.63 128.696C139.63 127.196 140.506 126.008 141.442 126.008C142.114 126.008 142.474 126.512 142.474 127.4C142.474 128.912 141.61 130.1 140.674 130.1ZM150.363 125.108H149.079L148.287 129.128C147.699 129.752 147.231 130.04 146.835 130.04C146.343 130.04 146.103 129.788 146.103 129.284C146.103 129.104 146.139 128.936 146.199 128.66L146.907 125.108H145.623L144.879 128.828C144.819 129.128 144.783 129.38 144.783 129.656C144.783 130.592 145.203 131.144 146.187 131.144C146.895 131.144 147.567 130.688 148.155 130.16H148.203L148.155 131H149.199L150.363 125.108ZM150.928 131H152.224L152.92 127.436C153.4 126.536 153.964 126.104 154.516 126.104C154.72 126.104 154.924 126.128 155.068 126.2L155.5 125.072C155.344 125 155.164 124.964 154.912 124.964C154.204 124.964 153.556 125.516 153.088 126.248H153.04L153.148 125.108H152.104L150.928 131ZM157.546 131.144C158.434 131.144 159.034 130.784 159.478 130.46L158.926 129.644C158.626 129.884 158.266 130.1 157.81 130.1C157.018 130.1 156.622 129.584 156.622 128.696C156.622 127.232 157.546 126.008 158.602 126.008C158.998 126.008 159.238 126.152 159.514 126.464L160.234 125.684C159.91 125.3 159.406 124.964 158.686 124.964C156.85 124.964 155.302 126.632 155.302 128.744C155.302 130.268 156.25 131.144 157.546 131.144ZM160.4 128.648C160.4 130.232 161.36 131.144 162.764 131.144C163.604 131.144 164.3 130.856 164.78 130.52L164.3 129.692C163.976 129.932 163.52 130.16 163.1 130.16C162.212 130.16 161.516 129.632 161.648 128.384H165.236C165.32 128.192 165.488 127.652 165.488 127.136C165.488 125.912 164.984 124.964 163.616 124.964C162.068 124.964 160.4 126.452 160.4 128.648ZM161.756 127.568C162.044 126.56 162.752 125.96 163.46 125.96C164.18 125.96 164.42 126.476 164.42 127.052C164.42 127.244 164.396 127.412 164.36 127.568H161.756ZM170.783 125.744H170.747C170.495 125.276 170.027 124.964 169.451 124.964C167.819 124.964 166.283 126.74 166.283 128.996C166.283 130.376 166.931 131.144 167.963 131.144C168.635 131.144 169.355 130.76 169.907 130.184H169.943L169.883 131H170.939L172.643 122.528H171.359L170.951 124.616L170.783 125.744ZM168.491 130.088C167.951 130.088 167.615 129.68 167.615 128.816C167.615 127.304 168.527 126.02 169.523 126.02C169.883 126.02 170.255 126.236 170.519 126.74L170.039 129.092C169.547 129.8 168.995 130.088 168.491 130.088ZM176.02 131L176.271 130.316H176.296C176.56 130.82 177.04 131.144 177.628 131.144C179.248 131.144 180.784 129.368 180.784 127.112C180.784 125.72 180.148 124.964 179.104 124.964C178.456 124.964 177.808 125.3 177.256 125.744H177.232L177.52 124.616L177.94 122.528H176.656L174.952 131H176.02ZM178.576 126.02C179.116 126.02 179.464 126.428 179.464 127.28C179.464 128.804 178.54 130.088 177.544 130.088C177.172 130.088 176.824 129.872 176.572 129.368L177.076 126.872C177.52 126.296 178.12 126.02 178.576 126.02ZM181.196 133.424C182.372 133.424 183.104 132.596 183.836 131.312L187.148 125.108H185.9L184.436 128.084C184.16 128.636 183.872 129.296 183.608 129.848H183.56C183.536 129.296 183.476 128.612 183.416 128.084L183.044 125.108H181.76L182.78 130.94L182.6 131.3C182.276 131.96 181.784 132.392 181.28 132.392C181.124 132.392 180.968 132.344 180.848 132.272L180.44 133.208C180.668 133.34 181.004 133.424 181.196 133.424Z" fill="white" fill-opacity="0.7"/>
<path d="M226.416 132.192C228.912 132.192 230.352 130.688 230.352 128.96C230.352 127.488 229.552 126.64 228.288 126.128L226.944 125.584C226.048 125.216 225.36 124.992 225.36 124.352C225.36 123.76 225.872 123.408 226.688 123.408C227.52 123.408 228.16 123.712 228.848 124.24L230.048 122.752C229.152 121.856 227.888 121.376 226.688 121.376C224.512 121.376 222.976 122.752 222.976 124.48C222.976 126 224 126.896 225.072 127.328L226.432 127.904C227.344 128.288 227.936 128.496 227.936 129.152C227.936 129.776 227.456 130.16 226.48 130.16C225.616 130.16 224.656 129.712 223.904 129.072L222.56 130.688C223.616 131.68 225.056 132.192 226.416 132.192ZM234.534 132.192C235.302 132.192 235.878 132.032 236.294 131.904L235.926 130.192C235.718 130.272 235.43 130.352 235.174 130.352C234.549 130.352 234.15 129.984 234.15 129.088V125.904H236.054V124.064H234.15V121.952H232.198L231.926 124.064L230.71 124.16V125.904H231.798V129.12C231.798 130.96 232.566 132.192 234.534 132.192ZM240.873 132.192C241.817 132.192 242.873 131.856 243.689 131.296L242.905 129.872C242.329 130.224 241.785 130.4 241.193 130.4C240.137 130.4 239.337 129.872 239.129 128.72H243.881C243.929 128.528 243.977 128.096 243.977 127.68C243.977 125.52 242.857 123.872 240.601 123.872C238.697 123.872 236.857 125.456 236.857 128.032C236.857 130.656 238.601 132.192 240.873 132.192ZM239.113 127.168C239.273 126.16 239.913 125.664 240.649 125.664C241.593 125.664 241.977 126.288 241.977 127.168H239.113ZM245.603 132H247.955V127.392C248.371 126.32 249.107 125.936 249.699 125.936C250.035 125.936 250.275 125.984 250.563 126.064L250.947 124.032C250.723 123.936 250.451 123.872 250.003 123.872C249.187 123.872 248.323 124.384 247.747 125.456H247.683L247.523 124.064H245.603V132ZM256.138 132.192C257.85 132.192 259.482 130.624 259.482 127.888C259.482 125.456 258.282 123.872 256.362 123.872C255.626 123.872 254.874 124.208 254.266 124.752L254.33 123.536V120.784H251.978V132H253.818L254.01 131.152H254.074C254.698 131.84 255.434 132.192 256.138 132.192ZM255.594 130.272C255.194 130.272 254.746 130.144 254.33 129.76V126.512C254.778 126.016 255.21 125.792 255.69 125.792C256.634 125.792 257.066 126.512 257.066 127.936C257.066 129.568 256.41 130.272 255.594 130.272ZM263.309 132.192C263.837 132.192 264.237 132.112 264.493 132L264.205 130.256C264.077 130.288 264.013 130.288 263.917 130.288C263.725 130.288 263.501 130.128 263.501 129.632V120.784H261.149V129.536C261.149 131.136 261.693 132.192 263.309 132.192ZM268.112 132.192C269.2 132.192 269.936 131.696 270.608 130.896H270.656L270.832 132H272.752V124.064H270.4V129.312C269.936 129.936 269.584 130.192 268.992 130.192C268.304 130.192 268 129.824 268 128.688V124.064H265.648V128.992C265.648 130.976 266.384 132.192 268.112 132.192ZM278.373 132.192C279.317 132.192 280.373 131.856 281.189 131.296L280.405 129.872C279.829 130.224 279.285 130.4 278.693 130.4C277.637 130.4 276.837 129.872 276.629 128.72H281.381C281.429 128.528 281.477 128.096 281.477 127.68C281.477 125.52 280.357 123.872 278.101 123.872C276.197 123.872 274.357 125.456 274.357 128.032C274.357 130.656 276.101 132.192 278.373 132.192ZM276.613 127.168C276.773 126.16 277.413 125.664 278.149 125.664C279.093 125.664 279.477 126.288 279.477 127.168H276.613Z" fill="white" fill-opacity="0.7"/>
<path d="M215.996 127.3C215.999 127.2 216 127.1 216 127C216 120.373 210.627 115 204 115C197.373 115 192 120.373 192 127C192 128.824 192.407 130.552 193.135 132.1H198.6C199.76 132.1 200.7 131.16 200.7 130C200.7 128.84 199.76 127.9 198.6 127.9C196.446 127.9 194.7 126.154 194.7 124C194.7 121.846 196.446 120.1 198.6 120.1H200.4C203.548 120.1 206.1 122.652 206.1 125.8V129.4C206.1 130.891 207.309 132.1 208.8 132.1C210.291 132.1 211.5 130.891 211.5 129.4V129.1H210.6C209.109 129.1 207.9 127.891 207.9 126.4C207.9 124.909 209.109 123.7 210.6 123.7C212.091 123.7 213.3 124.909 213.3 126.4V127.3H215.996Z" fill="white" fill-opacity="0.7"/>
<path d="M215.817 129.1H213.3V129.4C213.3 131.885 211.285 133.9 208.8 133.9C206.315 133.9 204.3 131.885 204.3 129.4V125.8C204.3 123.646 202.554 121.9 200.4 121.9H198.6C197.44 121.9 196.5 122.84 196.5 124C196.5 125.16 197.44 126.1 198.6 126.1C200.754 126.1 202.5 127.846 202.5 130C202.5 132.154 200.754 133.9 198.6 133.9H194.181C196.353 136.985 199.941 139 204 139C209.911 139 214.824 134.726 215.817 129.1Z" fill="white" fill-opacity="0.7"/>
<path d="M211.5 126.4V127.3H210.6C210.103 127.3 209.7 126.897 209.7 126.4C209.7 125.903 210.103 125.5 210.6 125.5C211.097 125.5 211.5 125.903 211.5 126.4Z" fill="white" fill-opacity="0.7"/>
</svg>
