<svg width="100" height="100" viewBox="0 0 100 100" fill="none" xmlns="http://www.w3.org/2000/svg">
<path fill-rule="evenodd" clip-rule="evenodd" d="M41.5146 8.48528L8.48518 41.5147C3.79889 46.201 3.79889 53.799 8.48518 58.4853L41.5146 91.5147C46.2009 96.201 53.7989 96.201 58.4852 91.5147L91.5146 58.4853C96.2009 53.799 96.2009 46.201 91.5146 41.5147L58.4852 8.48529C53.7989 3.79899 46.2009 3.79899 41.5146 8.48528ZM49.9999 60C55.5227 60 59.9999 55.5228 59.9999 50C59.9999 44.4772 55.5227 40 49.9999 40C44.4771 40 39.9999 44.4772 39.9999 50C39.9999 55.5228 44.4771 60 49.9999 60Z" fill="#FF74FF"/>
</svg>
