<svg width="320" height="160" viewBox="0 0 320 160" fill="none" xmlns="http://www.w3.org/2000/svg">
<rect width="320" height="160" fill="#FF4C4C"/>
<path d="M42.604 85.824C42.856 84.996 43.084 84.108 43.3 83.232H43.348C43.576 84.096 43.804 84.996 44.056 85.824L44.332 86.784H42.328L42.604 85.824ZM39.976 90H41.392L42.004 87.876H44.644L45.256 90H46.72L44.164 82.152H42.532L39.976 90ZM53.9383 90.144C55.0063 90.144 55.9183 89.736 56.4463 89.208V85.752H53.7103V86.892H55.1983V88.584C54.9463 88.812 54.5143 88.932 54.0703 88.932C52.4983 88.932 51.6703 87.852 51.6703 86.064C51.6703 84.3 52.6063 83.22 53.9983 83.22C54.7303 83.22 55.1863 83.52 55.5823 83.904L56.3263 83.004C55.8343 82.5 55.0663 82.008 53.9503 82.008C51.8623 82.008 50.2423 83.532 50.2423 86.1C50.2423 88.704 51.8143 90.144 53.9383 90.144ZM58.0655 90H59.4455V86.4C59.8055 85.512 60.3695 85.188 60.8375 85.188C61.0895 85.188 61.2455 85.224 61.4495 85.284L61.6895 84.084C61.5095 84 61.3175 83.964 61.0175 83.964C60.3935 83.964 59.7695 84.384 59.3495 85.152H59.3015L59.2055 84.108H58.0655V90ZM63.6536 90.144C64.3496 90.144 64.9496 89.796 65.4776 89.352H65.5256L65.6216 90H66.7616V86.508C66.7616 84.864 66.0296 83.964 64.5656 83.964C63.6296 83.964 62.7896 84.324 62.1416 84.732L62.6456 85.656C63.1736 85.344 63.7256 85.08 64.3016 85.08C65.1056 85.08 65.3576 85.608 65.3816 86.232C62.9576 86.496 61.9136 87.156 61.9136 88.416C61.9136 89.448 62.6216 90.144 63.6536 90.144ZM64.0976 89.064C63.6056 89.064 63.2456 88.836 63.2456 88.308C63.2456 87.72 63.7736 87.3 65.3816 87.096V88.416C64.9376 88.824 64.5776 89.064 64.0976 89.064ZM68.4131 92.328H69.7931V90.48L69.7571 89.496C70.2371 89.904 70.7531 90.144 71.2691 90.144C72.5771 90.144 73.7891 88.98 73.7891 86.964C73.7891 85.14 72.9371 83.964 71.4731 83.964C70.8251 83.964 70.1891 84.312 69.6971 84.732H69.6491L69.5531 84.108H68.4131V92.328ZM70.9811 89.004C70.6331 89.004 70.2251 88.872 69.7931 88.512V85.764C70.2491 85.32 70.6571 85.104 71.0891 85.104C71.9771 85.104 72.3611 85.8 72.3611 86.976C72.3611 88.308 71.7611 89.004 70.9811 89.004ZM75.1865 90H76.5665V85.884C77.0585 85.404 77.3945 85.152 77.9105 85.152C78.5585 85.152 78.8345 85.512 78.8345 86.484V90H80.2145V86.304C80.2145 84.816 79.6625 83.964 78.4025 83.964C77.5985 83.964 77.0105 84.384 76.5185 84.852L76.5665 83.712V81.528H75.1865V90ZM85.046 89.004C83.81 89.004 83.018 87.876 83.018 86.04C83.018 84.288 83.81 83.22 85.046 83.22C86.282 83.22 87.074 84.288 87.074 86.04C87.074 87.876 86.282 89.004 85.046 89.004ZM87.542 92.088C88.082 92.088 88.538 91.98 88.802 91.86L88.55 90.828C88.322 90.9 88.046 90.948 87.698 90.948C86.942 90.948 86.234 90.672 85.874 90.048C87.47 89.688 88.514 88.224 88.514 86.04C88.514 83.508 87.098 82.008 85.046 82.008C83.006 82.008 81.59 83.508 81.59 86.04C81.59 88.308 82.706 89.784 84.398 90.084C84.902 91.248 85.982 92.088 87.542 92.088ZM90.0839 90H94.7399V88.824H91.4759V82.152H90.0839V90ZM100.678 85.824C100.93 84.996 101.158 84.108 101.374 83.232H101.422C101.65 84.096 101.878 84.996 102.13 85.824L102.406 86.784H100.402L100.678 85.824ZM98.0502 90H99.4662L100.078 87.876H102.718L103.33 90H104.794L102.238 82.152H100.606L98.0502 90ZM105.762 90H107.154V87.12H108.282C109.974 87.12 111.27 86.316 111.27 84.576C111.27 82.752 109.974 82.152 108.234 82.152H105.762V90ZM107.154 86.004V83.268H108.126C109.29 83.268 109.902 83.592 109.902 84.576C109.902 85.536 109.338 86.004 108.174 86.004H107.154ZM112.746 90H114.138V82.152H112.746V90ZM121.052 90.144C121.52 90.144 121.928 90.036 122.252 89.928L122.012 88.908C121.844 88.98 121.604 89.04 121.4 89.04C120.836 89.04 120.572 88.704 120.572 88.008V85.2H122.072V84.108H120.572V82.5H119.42L119.252 84.108L118.34 84.168V85.2H119.18V88.008C119.18 89.28 119.684 90.144 121.052 90.144ZM123.312 90H124.692V85.884C125.184 85.404 125.52 85.152 126.036 85.152C126.684 85.152 126.96 85.512 126.96 86.484V90H128.34V86.304C128.34 84.816 127.788 83.964 126.528 83.964C125.724 83.964 125.136 84.384 124.644 84.852L124.692 83.712V81.528H123.312V90ZM131.431 90.144C132.127 90.144 132.727 89.796 133.255 89.352H133.303L133.399 90H134.539V86.508C134.539 84.864 133.807 83.964 132.343 83.964C131.407 83.964 130.567 84.324 129.919 84.732L130.423 85.656C130.951 85.344 131.503 85.08 132.079 85.08C132.883 85.08 133.135 85.608 133.159 86.232C130.735 86.496 129.691 87.156 129.691 88.416C129.691 89.448 130.399 90.144 131.431 90.144ZM131.875 89.064C131.383 89.064 131.023 88.836 131.023 88.308C131.023 87.72 131.551 87.3 133.159 87.096V88.416C132.715 88.824 132.355 89.064 131.875 89.064ZM138.079 90.144C138.547 90.144 138.955 90.036 139.279 89.928L139.039 88.908C138.871 88.98 138.631 89.04 138.427 89.04C137.863 89.04 137.599 88.704 137.599 88.008V85.2H139.099V84.108H137.599V82.5H136.447L136.279 84.108L135.367 84.168V85.2H136.207V88.008C136.207 89.28 136.711 90.144 138.079 90.144ZM143.302 90H144.682V84.108H143.302V90ZM143.998 83.076C144.49 83.076 144.85 82.752 144.85 82.296C144.85 81.828 144.49 81.504 143.998 81.504C143.506 81.504 143.146 81.828 143.146 82.296C143.146 82.752 143.506 83.076 143.998 83.076ZM148.086 90.144C149.574 90.144 150.378 89.328 150.378 88.32C150.378 87.216 149.49 86.832 148.686 86.532C148.05 86.304 147.462 86.124 147.462 85.656C147.462 85.284 147.738 85.008 148.326 85.008C148.794 85.008 149.214 85.212 149.622 85.512L150.258 84.672C149.778 84.3 149.118 83.964 148.302 83.964C146.982 83.964 146.154 84.696 146.154 85.728C146.154 86.712 147.03 87.156 147.81 87.444C148.434 87.684 149.07 87.9 149.07 88.392C149.07 88.8 148.77 89.1 148.134 89.1C147.534 89.1 147.03 88.848 146.502 88.44L145.854 89.328C146.43 89.796 147.282 90.144 148.086 90.144ZM156.001 90.144C156.697 90.144 157.297 89.796 157.825 89.352H157.873L157.969 90H159.109V86.508C159.109 84.864 158.377 83.964 156.913 83.964C155.977 83.964 155.137 84.324 154.489 84.732L154.993 85.656C155.521 85.344 156.073 85.08 156.649 85.08C157.453 85.08 157.705 85.608 157.729 86.232C155.305 86.496 154.261 87.156 154.261 88.416C154.261 89.448 154.969 90.144 156.001 90.144ZM156.445 89.064C155.953 89.064 155.593 88.836 155.593 88.308C155.593 87.72 156.121 87.3 157.729 87.096V88.416C157.285 88.824 156.925 89.064 156.445 89.064ZM162.513 90.144C163.317 90.144 163.893 89.748 164.409 89.136H164.445L164.553 90H165.681V84.108H164.301V88.14C163.857 88.716 163.509 88.956 162.993 88.956C162.357 88.956 162.081 88.596 162.081 87.624V84.108H160.701V87.804C160.701 89.292 161.253 90.144 162.513 90.144ZM169.505 90.144C169.973 90.144 170.381 90.036 170.705 89.928L170.465 88.908C170.297 88.98 170.057 89.04 169.853 89.04C169.289 89.04 169.025 88.704 169.025 88.008V85.2H170.525V84.108H169.025V82.5H167.873L167.705 84.108L166.793 84.168V85.2H167.633V88.008C167.633 89.28 168.137 90.144 169.505 90.144ZM173.989 90.144C175.465 90.144 176.797 89.016 176.797 87.06C176.797 85.092 175.465 83.964 173.989 83.964C172.525 83.964 171.193 85.092 171.193 87.06C171.193 89.016 172.525 90.144 173.989 90.144ZM173.989 89.016C173.125 89.016 172.609 88.236 172.609 87.06C172.609 85.872 173.125 85.092 173.989 85.092C174.853 85.092 175.381 85.872 175.381 87.06C175.381 88.236 174.853 89.016 173.989 89.016ZM178.163 90H179.543V85.884C179.999 85.392 180.419 85.152 180.779 85.152C181.403 85.152 181.691 85.512 181.691 86.484V90H183.071V85.884C183.527 85.392 183.935 85.152 184.307 85.152C184.919 85.152 185.207 85.512 185.207 86.484V90H186.599V86.304C186.599 84.816 186.023 83.964 184.775 83.964C184.031 83.964 183.443 84.42 182.879 85.02C182.603 84.36 182.111 83.964 181.247 83.964C180.515 83.964 179.939 84.384 179.447 84.912H179.399L179.303 84.108H178.163V90ZM189.704 90.144C190.4 90.144 191 89.796 191.528 89.352H191.576L191.672 90H192.812V86.508C192.812 84.864 192.08 83.964 190.616 83.964C189.68 83.964 188.84 84.324 188.192 84.732L188.696 85.656C189.224 85.344 189.776 85.08 190.352 85.08C191.156 85.08 191.408 85.608 191.432 86.232C189.008 86.496 187.964 87.156 187.964 88.416C187.964 89.448 188.672 90.144 189.704 90.144ZM190.148 89.064C189.656 89.064 189.296 88.836 189.296 88.308C189.296 87.72 189.824 87.3 191.432 87.096V88.416C190.988 88.824 190.628 89.064 190.148 89.064ZM196.352 90.144C196.82 90.144 197.228 90.036 197.552 89.928L197.312 88.908C197.144 88.98 196.904 89.04 196.7 89.04C196.136 89.04 195.872 88.704 195.872 88.008V85.2H197.372V84.108H195.872V82.5H194.72L194.552 84.108L193.64 84.168V85.2H194.48V88.008C194.48 89.28 194.984 90.144 196.352 90.144ZM198.612 90H199.992V84.108H198.612V90ZM199.308 83.076C199.8 83.076 200.16 82.752 200.16 82.296C200.16 81.828 199.8 81.504 199.308 81.504C198.816 81.504 198.456 81.828 198.456 82.296C198.456 82.752 198.816 83.076 199.308 83.076ZM204.213 90.144C204.885 90.144 205.581 89.904 206.133 89.424L205.569 88.512C205.233 88.788 204.813 89.016 204.357 89.016C203.433 89.016 202.785 88.236 202.785 87.06C202.785 85.872 203.445 85.092 204.393 85.092C204.765 85.092 205.065 85.248 205.377 85.524L206.049 84.624C205.617 84.252 205.077 83.964 204.321 83.964C202.749 83.964 201.369 85.092 201.369 87.06C201.369 89.016 202.605 90.144 204.213 90.144ZM208.607 90.144C209.303 90.144 209.903 89.796 210.431 89.352H210.479L210.575 90H211.715V86.508C211.715 84.864 210.983 83.964 209.519 83.964C208.583 83.964 207.743 84.324 207.095 84.732L207.599 85.656C208.127 85.344 208.679 85.08 209.255 85.08C210.059 85.08 210.311 85.608 210.335 86.232C207.911 86.496 206.867 87.156 206.867 88.416C206.867 89.448 207.575 90.144 208.607 90.144ZM209.051 89.064C208.559 89.064 208.199 88.836 208.199 88.308C208.199 87.72 208.727 87.3 210.335 87.096V88.416C209.891 88.824 209.531 89.064 209.051 89.064ZM214.71 90.144C215.034 90.144 215.274 90.096 215.442 90.024L215.262 88.992C215.154 89.016 215.106 89.016 215.046 89.016C214.902 89.016 214.746 88.896 214.746 88.56V81.528H213.366V88.488C213.366 89.508 213.726 90.144 214.71 90.144ZM217.968 90.144C218.292 90.144 218.532 90.096 218.7 90.024L218.52 88.992C218.412 89.016 218.364 89.016 218.304 89.016C218.16 89.016 218.004 88.896 218.004 88.56V81.528H216.624V88.488C216.624 89.508 216.984 90.144 217.968 90.144ZM220.278 92.424C221.562 92.424 222.174 91.596 222.666 90.264L224.802 84.108H223.47L222.582 87C222.438 87.528 222.282 88.116 222.138 88.656H222.09C221.91 88.104 221.742 87.516 221.574 87L220.554 84.108H219.15L221.466 89.928L221.358 90.3C221.166 90.888 220.806 91.308 220.182 91.308C220.038 91.308 219.87 91.26 219.762 91.224L219.51 92.304C219.726 92.376 219.954 92.424 220.278 92.424ZM230.838 92.604C232.758 92.604 233.982 91.692 233.982 90.528C233.982 89.508 233.238 89.076 231.822 89.076H230.778C230.058 89.076 229.818 88.872 229.818 88.536C229.818 88.272 229.926 88.128 230.106 87.972C230.37 88.08 230.658 88.128 230.91 88.128C232.158 88.128 233.142 87.432 233.142 86.124C233.142 85.716 232.998 85.356 232.806 85.128H233.886V84.108H231.774C231.534 84.024 231.234 83.964 230.91 83.964C229.674 83.964 228.582 84.72 228.582 86.076C228.582 86.772 228.954 87.336 229.35 87.636V87.684C229.014 87.924 228.702 88.32 228.702 88.776C228.702 89.256 228.93 89.568 229.23 89.76V89.808C228.69 90.144 228.39 90.576 228.39 91.068C228.39 92.1 229.434 92.604 230.838 92.604ZM230.91 87.264C230.334 87.264 229.878 86.832 229.878 86.076C229.878 85.332 230.334 84.912 230.91 84.912C231.486 84.912 231.93 85.344 231.93 86.076C231.93 86.832 231.474 87.264 230.91 87.264ZM231.054 91.704C230.118 91.704 229.542 91.392 229.542 90.864C229.542 90.588 229.686 90.324 229.998 90.084C230.226 90.144 230.478 90.168 230.802 90.168H231.606C232.278 90.168 232.65 90.3 232.65 90.756C232.65 91.26 232.002 91.704 231.054 91.704ZM237.353 90.144C238.097 90.144 238.805 89.88 239.369 89.508L238.901 88.644C238.469 88.92 238.037 89.076 237.533 89.076C236.585 89.076 235.913 88.476 235.793 87.432H239.537C239.573 87.288 239.597 87.024 239.597 86.76C239.597 85.116 238.757 83.964 237.161 83.964C235.781 83.964 234.449 85.14 234.449 87.06C234.449 89.004 235.721 90.144 237.353 90.144ZM235.781 86.496C235.901 85.548 236.501 85.032 237.197 85.032C238.001 85.032 238.397 85.584 238.397 86.496H235.781ZM240.915 90H242.295V85.884C242.787 85.404 243.123 85.152 243.639 85.152C244.287 85.152 244.563 85.512 244.563 86.484V90H245.943V86.304C245.943 84.816 245.391 83.964 244.131 83.964C243.327 83.964 242.727 84.384 242.199 84.9H242.151L242.055 84.108H240.915V90ZM250.15 90.144C250.894 90.144 251.602 89.88 252.166 89.508L251.698 88.644C251.266 88.92 250.834 89.076 250.33 89.076C249.382 89.076 248.71 88.476 248.59 87.432H252.334C252.37 87.288 252.394 87.024 252.394 86.76C252.394 85.116 251.554 83.964 249.958 83.964C248.578 83.964 247.246 85.14 247.246 87.06C247.246 89.004 248.518 90.144 250.15 90.144ZM248.578 86.496C248.698 85.548 249.298 85.032 249.994 85.032C250.798 85.032 251.194 85.584 251.194 86.496H248.578ZM253.712 90H255.092V86.4C255.452 85.512 256.016 85.188 256.484 85.188C256.736 85.188 256.892 85.224 257.096 85.284L257.336 84.084C257.156 84 256.964 83.964 256.664 83.964C256.04 83.964 255.416 84.384 254.996 85.152H254.948L254.852 84.108H253.712V90ZM259.3 90.144C259.996 90.144 260.596 89.796 261.124 89.352H261.172L261.268 90H262.408V86.508C262.408 84.864 261.676 83.964 260.212 83.964C259.276 83.964 258.436 84.324 257.788 84.732L258.292 85.656C258.82 85.344 259.372 85.08 259.948 85.08C260.752 85.08 261.004 85.608 261.028 86.232C258.604 86.496 257.56 87.156 257.56 88.416C257.56 89.448 258.268 90.144 259.3 90.144ZM259.744 89.064C259.252 89.064 258.892 88.836 258.892 88.308C258.892 87.72 259.42 87.3 261.028 87.096V88.416C260.584 88.824 260.224 89.064 259.744 89.064ZM265.948 90.144C266.416 90.144 266.824 90.036 267.148 89.928L266.908 88.908C266.74 88.98 266.5 89.04 266.296 89.04C265.732 89.04 265.468 88.704 265.468 88.008V85.2H266.968V84.108H265.468V82.5H264.316L264.148 84.108L263.236 84.168V85.2H264.076V88.008C264.076 89.28 264.58 90.144 265.948 90.144ZM270.541 90.144C271.285 90.144 271.993 89.88 272.557 89.508L272.089 88.644C271.657 88.92 271.225 89.076 270.721 89.076C269.773 89.076 269.101 88.476 268.981 87.432H272.725C272.761 87.288 272.785 87.024 272.785 86.76C272.785 85.116 271.945 83.964 270.349 83.964C268.969 83.964 267.637 85.14 267.637 87.06C267.637 89.004 268.909 90.144 270.541 90.144ZM268.969 86.496C269.089 85.548 269.689 85.032 270.385 85.032C271.189 85.032 271.585 85.584 271.585 86.496H268.969ZM276.167 90.144C276.803 90.144 277.403 89.796 277.835 89.364H277.883L277.979 90H279.119V81.528H277.739V83.664L277.787 84.612C277.331 84.216 276.911 83.964 276.239 83.964C274.955 83.964 273.743 85.14 273.743 87.06C273.743 89.004 274.691 90.144 276.167 90.144ZM276.503 89.004C275.651 89.004 275.171 88.32 275.171 87.048C275.171 85.812 275.783 85.104 276.539 85.104C276.935 85.104 277.331 85.236 277.739 85.596V88.344C277.343 88.8 276.959 89.004 276.503 89.004ZM42.304 105.144C43 105.144 43.6 104.796 44.128 104.352H44.176L44.272 105H45.412V101.508C45.412 99.864 44.68 98.964 43.216 98.964C42.28 98.964 41.44 99.324 40.792 99.732L41.296 100.656C41.824 100.344 42.376 100.08 42.952 100.08C43.756 100.08 44.008 100.608 44.032 101.232C41.608 101.496 40.564 102.156 40.564 103.416C40.564 104.448 41.272 105.144 42.304 105.144ZM42.748 104.064C42.256 104.064 41.896 103.836 41.896 103.308C41.896 102.72 42.424 102.3 44.032 102.096V103.416C43.588 103.824 43.228 104.064 42.748 104.064ZM47.0635 105H48.4435V100.884C48.9355 100.404 49.2715 100.152 49.7875 100.152C50.4355 100.152 50.7115 100.512 50.7115 101.484V105H52.0915V101.304C52.0915 99.816 51.5395 98.964 50.2795 98.964C49.4755 98.964 48.8755 99.384 48.3475 99.9H48.2995L48.2035 99.108H47.0635V105ZM55.8423 105.144C56.4783 105.144 57.0783 104.796 57.5103 104.364H57.5583L57.6543 105H58.7943V96.528H57.4143V98.664L57.4623 99.612C57.0063 99.216 56.5863 98.964 55.9143 98.964C54.6303 98.964 53.4183 100.14 53.4183 102.06C53.4183 104.004 54.3663 105.144 55.8423 105.144ZM56.1783 104.004C55.3263 104.004 54.8463 103.32 54.8463 102.048C54.8463 100.812 55.4583 100.104 56.2143 100.104C56.6103 100.104 57.0063 100.236 57.4143 100.596V103.344C57.0183 103.8 56.6343 104.004 56.1783 104.004ZM65.4741 105.144C66.2181 105.144 66.9261 104.88 67.4901 104.508L67.0221 103.644C66.5901 103.92 66.1581 104.076 65.6541 104.076C64.7061 104.076 64.0341 103.476 63.9141 102.432H67.6581C67.6941 102.288 67.7181 102.024 67.7181 101.76C67.7181 100.116 66.8781 98.964 65.2821 98.964C63.9021 98.964 62.5701 100.14 62.5701 102.06C62.5701 104.004 63.8421 105.144 65.4741 105.144ZM63.9021 101.496C64.0221 100.548 64.6221 100.032 65.3181 100.032C66.1221 100.032 66.5181 100.584 66.5181 101.496H63.9021ZM70.3235 105.144C71.0195 105.144 71.6195 104.796 72.1475 104.352H72.1955L72.2915 105H73.4315V101.508C73.4315 99.864 72.6995 98.964 71.2355 98.964C70.2995 98.964 69.4595 99.324 68.8115 99.732L69.3155 100.656C69.8435 100.344 70.3955 100.08 70.9715 100.08C71.7755 100.08 72.0275 100.608 72.0515 101.232C69.6275 101.496 68.5835 102.156 68.5835 103.416C68.5835 104.448 69.2915 105.144 70.3235 105.144ZM70.7675 104.064C70.2755 104.064 69.9155 103.836 69.9155 103.308C69.9155 102.72 70.4435 102.3 72.0515 102.096V103.416C71.6075 103.824 71.2475 104.064 70.7675 104.064ZM76.727 105.144C78.215 105.144 79.019 104.328 79.019 103.32C79.019 102.216 78.131 101.832 77.327 101.532C76.691 101.304 76.103 101.124 76.103 100.656C76.103 100.284 76.379 100.008 76.967 100.008C77.435 100.008 77.855 100.212 78.263 100.512L78.899 99.672C78.419 99.3 77.759 98.964 76.943 98.964C75.623 98.964 74.795 99.696 74.795 100.728C74.795 101.712 75.671 102.156 76.451 102.444C77.075 102.684 77.711 102.9 77.711 103.392C77.711 103.8 77.411 104.1 76.775 104.1C76.175 104.1 75.671 103.848 75.143 103.44L74.495 104.328C75.071 104.796 75.923 105.144 76.727 105.144ZM80.647 107.424C81.931 107.424 82.543 106.596 83.035 105.264L85.171 99.108H83.839L82.951 102C82.807 102.528 82.651 103.116 82.507 103.656H82.459C82.279 103.104 82.111 102.516 81.943 102L80.923 99.108H79.519L81.835 104.928L81.727 105.3C81.535 105.888 81.175 106.308 80.551 106.308C80.407 106.308 80.239 106.26 80.131 106.224L79.879 107.304C80.095 107.376 80.323 107.424 80.647 107.424ZM90.6708 105.144C91.1388 105.144 91.5468 105.036 91.8708 104.928L91.6308 103.908C91.4628 103.98 91.2228 104.04 91.0188 104.04C90.4548 104.04 90.1908 103.704 90.1908 103.008V100.2H91.6908V99.108H90.1908V97.5H89.0388L88.8708 99.108L87.9588 99.168V100.2H88.7988V103.008C88.7988 104.28 89.3027 105.144 90.6708 105.144ZM95.1552 105.144C96.6312 105.144 97.9632 104.016 97.9632 102.06C97.9632 100.092 96.6312 98.964 95.1552 98.964C93.6912 98.964 92.3592 100.092 92.3592 102.06C92.3592 104.016 93.6912 105.144 95.1552 105.144ZM95.1552 104.016C94.2912 104.016 93.7752 103.236 93.7752 102.06C93.7752 100.872 94.2912 100.092 95.1552 100.092C96.0192 100.092 96.5472 100.872 96.5472 102.06C96.5472 103.236 96.0192 104.016 95.1552 104.016ZM104.251 105.144C104.995 105.144 105.703 104.88 106.267 104.508L105.799 103.644C105.367 103.92 104.935 104.076 104.431 104.076C103.483 104.076 102.811 103.476 102.691 102.432H106.435C106.471 102.288 106.495 102.024 106.495 101.76C106.495 100.116 105.655 98.964 104.059 98.964C102.679 98.964 101.347 100.14 101.347 102.06C101.347 104.004 102.619 105.144 104.251 105.144ZM102.679 101.496C102.799 100.548 103.399 100.032 104.095 100.032C104.899 100.032 105.295 100.584 105.295 101.496H102.679ZM106.965 105H108.405L109.029 103.836C109.197 103.476 109.377 103.128 109.545 102.792H109.593C109.797 103.128 110.001 103.488 110.193 103.836L110.913 105H112.401L110.529 102.084L112.269 99.108H110.841L110.277 100.224C110.133 100.548 109.965 100.896 109.821 101.22H109.773C109.593 100.896 109.401 100.548 109.233 100.224L108.573 99.108H107.085L108.837 101.928L106.965 105ZM115.21 105.144C115.678 105.144 116.086 105.036 116.41 104.928L116.17 103.908C116.002 103.98 115.762 104.04 115.558 104.04C114.994 104.04 114.73 103.704 114.73 103.008V100.2H116.23V99.108H114.73V97.5H113.578L113.41 99.108L112.498 99.168V100.2H113.338V103.008C113.338 104.28 113.842 105.144 115.21 105.144ZM119.802 105.144C120.546 105.144 121.254 104.88 121.818 104.508L121.35 103.644C120.918 103.92 120.486 104.076 119.982 104.076C119.034 104.076 118.362 103.476 118.242 102.432H121.986C122.022 102.288 122.046 102.024 122.046 101.76C122.046 100.116 121.206 98.964 119.61 98.964C118.23 98.964 116.898 100.14 116.898 102.06C116.898 104.004 118.17 105.144 119.802 105.144ZM118.23 101.496C118.35 100.548 118.95 100.032 119.646 100.032C120.45 100.032 120.846 100.584 120.846 101.496H118.23ZM123.364 105H124.744V100.884C125.236 100.404 125.572 100.152 126.088 100.152C126.736 100.152 127.012 100.512 127.012 101.484V105H128.392V101.304C128.392 99.816 127.84 98.964 126.58 98.964C125.776 98.964 125.176 99.384 124.648 99.9H124.6L124.504 99.108H123.364V105ZM132.143 105.144C132.779 105.144 133.379 104.796 133.811 104.364H133.859L133.955 105H135.095V96.528H133.715V98.664L133.763 99.612C133.307 99.216 132.887 98.964 132.215 98.964C130.931 98.964 129.719 100.14 129.719 102.06C129.719 104.004 130.667 105.144 132.143 105.144ZM132.479 104.004C131.627 104.004 131.147 103.32 131.147 102.048C131.147 100.812 131.759 100.104 132.515 100.104C132.911 100.104 133.307 100.236 133.715 100.596V103.344C133.319 103.8 132.935 104.004 132.479 104.004ZM137.633 105.144C138.137 105.144 138.521 104.748 138.521 104.208C138.521 103.668 138.137 103.272 137.633 103.272C137.129 103.272 136.733 103.668 136.733 104.208C136.733 104.748 137.129 105.144 137.633 105.144Z" fill="white"/>
<path d="M107.528 131.144C109.724 131.144 111.44 128.9 111.44 126.308C111.44 124.28 110.384 123.008 108.608 123.008C106.424 123.008 104.696 125.252 104.696 127.844C104.696 129.872 105.764 131.144 107.528 131.144ZM107.6 130.028C106.544 130.028 106.028 129.14 106.028 127.748C106.028 125.924 107.144 124.124 108.536 124.124C109.592 124.124 110.12 125.012 110.12 126.404C110.12 128.228 108.992 130.028 107.6 130.028ZM113.378 130.376H113.402C113.69 130.832 114.158 131.144 114.71 131.144C116.33 131.144 117.866 129.368 117.866 127.112C117.866 125.732 117.23 124.964 116.186 124.964C115.514 124.964 114.842 125.336 114.278 125.828H114.242L114.266 125.108H113.222L111.566 133.328H112.85L113.186 131.576L113.378 130.376ZM115.658 126.02C116.198 126.02 116.546 126.428 116.546 127.28C116.546 128.804 115.622 130.088 114.626 130.088C114.254 130.088 113.906 129.884 113.654 129.392L114.158 126.872C114.602 126.296 115.202 126.02 115.658 126.02ZM118.693 128.648C118.693 130.232 119.653 131.144 121.057 131.144C121.897 131.144 122.593 130.856 123.073 130.52L122.593 129.692C122.269 129.932 121.813 130.16 121.393 130.16C120.505 130.16 119.809 129.632 119.941 128.384H123.529C123.613 128.192 123.781 127.652 123.781 127.136C123.781 125.912 123.277 124.964 121.909 124.964C120.361 124.964 118.693 126.452 118.693 128.648ZM120.049 127.568C120.337 126.56 121.045 125.96 121.753 125.96C122.473 125.96 122.713 126.476 122.713 127.052C122.713 127.244 122.689 127.412 122.653 127.568H120.049ZM124.42 131H125.716L126.508 126.98C127.132 126.344 127.588 126.068 127.996 126.068C128.5 126.068 128.74 126.32 128.74 126.824C128.74 127.004 128.692 127.172 128.644 127.448L127.924 131H129.208L129.952 127.28C130.024 126.968 130.048 126.728 130.048 126.452C130.048 125.504 129.64 124.964 128.656 124.964C127.912 124.964 127.252 125.408 126.628 125.936H126.58L126.64 125.108H125.596L124.42 131ZM134.961 131.144C136.317 131.144 137.301 130.4 137.301 129.26C137.301 128.54 136.869 128.072 135.993 127.604C135.489 127.316 134.985 127.112 134.985 126.68C134.985 126.272 135.381 125.936 135.921 125.936C136.389 125.936 136.749 126.188 137.049 126.488L137.769 125.804C137.313 125.324 136.689 124.964 135.921 124.964C134.745 124.964 133.773 125.732 133.773 126.8C133.773 127.508 134.253 128 135.033 128.432C135.777 128.84 136.089 129.044 136.089 129.416C136.089 129.848 135.609 130.184 135.057 130.184C134.529 130.184 134.049 129.896 133.665 129.392L132.897 130.016C133.341 130.688 134.217 131.144 134.961 131.144ZM140.53 131.144C142.15 131.144 143.782 129.608 143.782 127.364C143.782 125.888 142.906 124.964 141.574 124.964C139.966 124.964 138.334 126.488 138.334 128.744C138.334 130.208 139.21 131.144 140.53 131.144ZM140.674 130.1C139.99 130.1 139.63 129.584 139.63 128.696C139.63 127.196 140.506 126.008 141.442 126.008C142.114 126.008 142.474 126.512 142.474 127.4C142.474 128.912 141.61 130.1 140.674 130.1ZM150.363 125.108H149.079L148.287 129.128C147.699 129.752 147.231 130.04 146.835 130.04C146.343 130.04 146.103 129.788 146.103 129.284C146.103 129.104 146.139 128.936 146.199 128.66L146.907 125.108H145.623L144.879 128.828C144.819 129.128 144.783 129.38 144.783 129.656C144.783 130.592 145.203 131.144 146.187 131.144C146.895 131.144 147.567 130.688 148.155 130.16H148.203L148.155 131H149.199L150.363 125.108ZM150.928 131H152.224L152.92 127.436C153.4 126.536 153.964 126.104 154.516 126.104C154.72 126.104 154.924 126.128 155.068 126.2L155.5 125.072C155.344 125 155.164 124.964 154.912 124.964C154.204 124.964 153.556 125.516 153.088 126.248H153.04L153.148 125.108H152.104L150.928 131ZM157.546 131.144C158.434 131.144 159.034 130.784 159.478 130.46L158.926 129.644C158.626 129.884 158.266 130.1 157.81 130.1C157.018 130.1 156.622 129.584 156.622 128.696C156.622 127.232 157.546 126.008 158.602 126.008C158.998 126.008 159.238 126.152 159.514 126.464L160.234 125.684C159.91 125.3 159.406 124.964 158.686 124.964C156.85 124.964 155.302 126.632 155.302 128.744C155.302 130.268 156.25 131.144 157.546 131.144ZM160.4 128.648C160.4 130.232 161.36 131.144 162.764 131.144C163.604 131.144 164.3 130.856 164.78 130.52L164.3 129.692C163.976 129.932 163.52 130.16 163.1 130.16C162.212 130.16 161.516 129.632 161.648 128.384H165.236C165.32 128.192 165.488 127.652 165.488 127.136C165.488 125.912 164.984 124.964 163.616 124.964C162.068 124.964 160.4 126.452 160.4 128.648ZM161.756 127.568C162.044 126.56 162.752 125.96 163.46 125.96C164.18 125.96 164.42 126.476 164.42 127.052C164.42 127.244 164.396 127.412 164.36 127.568H161.756ZM170.783 125.744H170.747C170.495 125.276 170.027 124.964 169.451 124.964C167.819 124.964 166.283 126.74 166.283 128.996C166.283 130.376 166.931 131.144 167.963 131.144C168.635 131.144 169.355 130.76 169.907 130.184H169.943L169.883 131H170.939L172.643 122.528H171.359L170.951 124.616L170.783 125.744ZM168.491 130.088C167.951 130.088 167.615 129.68 167.615 128.816C167.615 127.304 168.527 126.02 169.523 126.02C169.883 126.02 170.255 126.236 170.519 126.74L170.039 129.092C169.547 129.8 168.995 130.088 168.491 130.088ZM176.02 131L176.271 130.316H176.296C176.56 130.82 177.04 131.144 177.628 131.144C179.248 131.144 180.784 129.368 180.784 127.112C180.784 125.72 180.148 124.964 179.104 124.964C178.456 124.964 177.808 125.3 177.256 125.744H177.232L177.52 124.616L177.94 122.528H176.656L174.952 131H176.02ZM178.576 126.02C179.116 126.02 179.464 126.428 179.464 127.28C179.464 128.804 178.54 130.088 177.544 130.088C177.172 130.088 176.824 129.872 176.572 129.368L177.076 126.872C177.52 126.296 178.12 126.02 178.576 126.02ZM181.196 133.424C182.372 133.424 183.104 132.596 183.836 131.312L187.148 125.108H185.9L184.436 128.084C184.16 128.636 183.872 129.296 183.608 129.848H183.56C183.536 129.296 183.476 128.612 183.416 128.084L183.044 125.108H181.76L182.78 130.94L182.6 131.3C182.276 131.96 181.784 132.392 181.28 132.392C181.124 132.392 180.968 132.344 180.848 132.272L180.44 133.208C180.668 133.34 181.004 133.424 181.196 133.424Z" fill="white" fill-opacity="0.7"/>
<path fill-rule="evenodd" clip-rule="evenodd" d="M84.1429 45.9207C84.1429 58.3865 74.0373 68.4921 61.5714 68.4921C49.1056 68.4921 39 58.3865 39 45.9207C39 33.4548 49.1056 23.3492 61.5714 23.3492C74.0373 23.3492 84.1429 33.4548 84.1429 45.9207ZM71.6032 40.9048C71.6032 43.675 69.3575 45.9207 66.5873 45.9207C63.8171 45.9207 61.5714 43.675 61.5714 40.9048C61.5714 38.1346 63.8171 35.8889 66.5873 35.8889C69.3575 35.8889 71.6032 38.1346 71.6032 40.9048ZM61.5714 50.9365C61.5714 53.7067 59.3257 55.9524 56.5556 55.9524C53.7854 55.9524 51.5397 53.7067 51.5397 50.9365C51.5397 48.1664 53.7854 45.9207 56.5556 45.9207C59.3257 45.9207 61.5714 48.1664 61.5714 50.9365Z" fill="white"/>
<path d="M108.68 57.384C111.592 57.384 114.12 56.264 115.56 54.856V45.256H107.944V49.096H111.4V52.68C110.888 53.096 110.024 53.32 109.16 53.32C105.256 53.32 103.304 50.824 103.304 46.536C103.304 42.344 105.576 39.816 108.808 39.816C110.6 39.816 111.688 40.552 112.744 41.48L115.208 38.472C113.832 37.064 111.656 35.752 108.648 35.752C103.08 35.752 98.472 39.784 98.472 46.696C98.472 53.704 102.952 57.384 108.68 57.384ZM119.486 57H124.19V47.784C125.022 45.64 126.494 44.872 127.678 44.872C128.35 44.872 128.83 44.968 129.406 45.128L130.174 41.064C129.726 40.872 129.182 40.744 128.286 40.744C126.654 40.744 124.926 41.768 123.774 43.912H123.646L123.326 41.128H119.486V57ZM135.33 57.384C137.122 57.384 138.594 56.552 139.938 55.368H140.066L140.386 57H144.226V47.912C144.226 43.048 141.986 40.744 137.922 40.744C135.426 40.744 133.154 41.608 131.138 42.824L132.834 45.928C134.37 45.032 135.682 44.488 137.026 44.488C138.754 44.488 139.426 45.384 139.522 46.792C133.25 47.432 130.594 49.256 130.594 52.584C130.594 55.272 132.418 57.384 135.33 57.384ZM136.93 53.736C135.81 53.736 135.106 53.256 135.106 52.232C135.106 51.016 136.194 50.056 139.522 49.608V52.392C138.69 53.224 137.986 53.736 136.93 53.736ZM148.205 62.888H152.909V58.248L152.749 55.72C153.869 56.776 155.149 57.384 156.525 57.384C159.949 57.384 163.213 54.248 163.213 48.808C163.213 43.912 160.845 40.744 157.005 40.744C155.341 40.744 153.741 41.576 152.493 42.696H152.365L152.045 41.128H148.205V62.888ZM155.437 53.544C154.637 53.544 153.741 53.288 152.909 52.52V46.024C153.837 45.032 154.669 44.584 155.629 44.584C157.517 44.584 158.381 46.024 158.381 48.872C158.381 52.136 157.069 53.544 155.437 53.544ZM166.549 57H171.253V46.28C172.277 45.288 173.013 44.744 174.197 44.744C175.541 44.744 176.149 45.448 176.149 47.752V57H180.853V47.144C180.853 43.176 179.381 40.744 175.925 40.744C173.781 40.744 172.213 41.864 171.029 42.92L171.253 40.072V34.568H166.549V57Z" fill="white"/>
<path d="M226.416 132.192C228.912 132.192 230.352 130.688 230.352 128.96C230.352 127.488 229.552 126.64 228.288 126.128L226.944 125.584C226.048 125.216 225.36 124.992 225.36 124.352C225.36 123.76 225.872 123.408 226.688 123.408C227.52 123.408 228.16 123.712 228.848 124.24L230.048 122.752C229.152 121.856 227.888 121.376 226.688 121.376C224.512 121.376 222.976 122.752 222.976 124.48C222.976 126 224 126.896 225.072 127.328L226.432 127.904C227.344 128.288 227.936 128.496 227.936 129.152C227.936 129.776 227.456 130.16 226.48 130.16C225.616 130.16 224.656 129.712 223.904 129.072L222.56 130.688C223.616 131.68 225.056 132.192 226.416 132.192ZM234.534 132.192C235.302 132.192 235.878 132.032 236.294 131.904L235.926 130.192C235.718 130.272 235.43 130.352 235.174 130.352C234.549 130.352 234.15 129.984 234.15 129.088V125.904H236.054V124.064H234.15V121.952H232.198L231.926 124.064L230.71 124.16V125.904H231.798V129.12C231.798 130.96 232.566 132.192 234.534 132.192ZM240.873 132.192C241.817 132.192 242.873 131.856 243.689 131.296L242.905 129.872C242.329 130.224 241.785 130.4 241.193 130.4C240.137 130.4 239.337 129.872 239.129 128.72H243.881C243.929 128.528 243.977 128.096 243.977 127.68C243.977 125.52 242.857 123.872 240.601 123.872C238.697 123.872 236.857 125.456 236.857 128.032C236.857 130.656 238.601 132.192 240.873 132.192ZM239.113 127.168C239.273 126.16 239.913 125.664 240.649 125.664C241.593 125.664 241.977 126.288 241.977 127.168H239.113ZM245.603 132H247.955V127.392C248.371 126.32 249.107 125.936 249.699 125.936C250.035 125.936 250.275 125.984 250.563 126.064L250.947 124.032C250.723 123.936 250.451 123.872 250.003 123.872C249.187 123.872 248.323 124.384 247.747 125.456H247.683L247.523 124.064H245.603V132ZM256.138 132.192C257.85 132.192 259.482 130.624 259.482 127.888C259.482 125.456 258.282 123.872 256.362 123.872C255.626 123.872 254.874 124.208 254.266 124.752L254.33 123.536V120.784H251.978V132H253.818L254.01 131.152H254.074C254.698 131.84 255.434 132.192 256.138 132.192ZM255.594 130.272C255.194 130.272 254.746 130.144 254.33 129.76V126.512C254.778 126.016 255.21 125.792 255.69 125.792C256.634 125.792 257.066 126.512 257.066 127.936C257.066 129.568 256.41 130.272 255.594 130.272ZM263.309 132.192C263.837 132.192 264.237 132.112 264.493 132L264.205 130.256C264.077 130.288 264.013 130.288 263.917 130.288C263.725 130.288 263.501 130.128 263.501 129.632V120.784H261.149V129.536C261.149 131.136 261.693 132.192 263.309 132.192ZM268.112 132.192C269.2 132.192 269.936 131.696 270.608 130.896H270.656L270.832 132H272.752V124.064H270.4V129.312C269.936 129.936 269.584 130.192 268.992 130.192C268.304 130.192 268 129.824 268 128.688V124.064H265.648V128.992C265.648 130.976 266.384 132.192 268.112 132.192ZM278.373 132.192C279.317 132.192 280.373 131.856 281.189 131.296L280.405 129.872C279.829 130.224 279.285 130.4 278.693 130.4C277.637 130.4 276.837 129.872 276.629 128.72H281.381C281.429 128.528 281.477 128.096 281.477 127.68C281.477 125.52 280.357 123.872 278.101 123.872C276.197 123.872 274.357 125.456 274.357 128.032C274.357 130.656 276.101 132.192 278.373 132.192ZM276.613 127.168C276.773 126.16 277.413 125.664 278.149 125.664C279.093 125.664 279.477 126.288 279.477 127.168H276.613Z" fill="white" fill-opacity="0.7"/>
<path d="M215.996 127.3C215.999 127.2 216 127.1 216 127C216 120.373 210.627 115 204 115C197.373 115 192 120.373 192 127C192 128.824 192.407 130.552 193.135 132.1H198.6C199.76 132.1 200.7 131.16 200.7 130C200.7 128.84 199.76 127.9 198.6 127.9C196.446 127.9 194.7 126.154 194.7 124C194.7 121.846 196.446 120.1 198.6 120.1H200.4C203.548 120.1 206.1 122.652 206.1 125.8V129.4C206.1 130.891 207.309 132.1 208.8 132.1C210.291 132.1 211.5 130.891 211.5 129.4V129.1H210.6C209.109 129.1 207.9 127.891 207.9 126.4C207.9 124.909 209.109 123.7 210.6 123.7C212.091 123.7 213.3 124.909 213.3 126.4V127.3H215.996Z" fill="white" fill-opacity="0.7"/>
<path d="M215.817 129.1H213.3V129.4C213.3 131.885 211.285 133.9 208.8 133.9C206.315 133.9 204.3 131.885 204.3 129.4V125.8C204.3 123.646 202.554 121.9 200.4 121.9H198.6C197.44 121.9 196.5 122.84 196.5 124C196.5 125.16 197.44 126.1 198.6 126.1C200.754 126.1 202.5 127.846 202.5 130C202.5 132.154 200.754 133.9 198.6 133.9H194.181C196.353 136.985 199.941 139 204 139C209.911 139 214.824 134.726 215.817 129.1Z" fill="white" fill-opacity="0.7"/>
<path d="M211.5 126.4V127.3H210.6C210.103 127.3 209.7 126.897 209.7 126.4C209.7 125.903 210.103 125.5 210.6 125.5C211.097 125.5 211.5 125.903 211.5 126.4Z" fill="white" fill-opacity="0.7"/>
</svg>
