<svg width="100" height="100" viewBox="0 0 100 100" fill="none" xmlns="http://www.w3.org/2000/svg">
<path fill-rule="evenodd" clip-rule="evenodd" d="M95 50C95 74.8528 74.8528 95 50 95C25.1472 95 5 74.8528 5 50C5 25.1472 25.1472 5 50 5C74.8528 5 95 25.1472 95 50ZM70 40C70 45.5228 65.5229 50 60 50C54.4772 50 50 45.5228 50 40C50 34.4772 54.4772 30 60 30C65.5229 30 70 34.4772 70 40ZM50 60C50 65.5229 45.5228 70 40 70C34.4772 70 30 65.5229 30 60C30 54.4772 34.4772 50 40 50C45.5228 50 50 54.4772 50 60Z" fill="url(#paint0_linear)"/>
<defs>
<linearGradient id="paint0_linear" x1="5" y1="95" x2="95" y2="95" gradientUnits="userSpaceOnUse">
<stop stop-color="#FF4C4C"/>
<stop offset="1" stop-color="#FFAD4C"/>
</linearGradient>
</defs>
</svg>
