<svg width="150" height="150" viewBox="0 0 150 150" fill="none" xmlns="http://www.w3.org/2000/svg">
<path fill-rule="evenodd" clip-rule="evenodd" d="M120 78C120 102.853 99.8528 123 75 123C50.1472 123 30 102.853 30 78C30 53.1472 50.1472 33 75 33C99.8528 33 120 53.1472 120 78ZM95 68C95 73.5228 90.5228 78 85 78C79.4771 78 75 73.5228 75 68C75 62.4772 79.4771 58 85 58C90.5228 58 95 62.4772 95 68ZM75 88C75 93.5228 70.5228 98 65 98C59.4772 98 55 93.5228 55 88C55 82.4771 59.4772 78 65 78C70.5228 78 75 82.4771 75 88Z" fill="#FF4C4C"/>
<path d="M66.9419 33.2777C59.5352 33.2777 51.0568 32.6372 44.916 37.6408C41.1177 40.7357 37.7319 43.464 35.2172 47.7076C30.2776 56.0432 28.3452 65.7686 28.6199 75.3845C28.7882 81.2718 33.3357 86.0584 35.3486 91.3652C36.9394 95.5589 39.1468 99.5135 40.6843 103.771C42.6667 109.261 46.4594 114.184 51.3293 117.491C57.0246 121.36 63.414 121.901 70.2011 122.196C76.5807 122.474 83.8391 122.947 90.0981 121.487C94.7823 120.394 98.847 118.095 102.793 115.494C110.581 110.361 113.174 98.8126 116.145 90.5241C116.92 88.3638 118.367 86.7663 118.984 84.4788C119.818 81.3867 120.36 77.6378 120.403 74.4383C120.45 70.9872 120.877 67.5864 120.877 64.135C120.877 62.3693 121.427 59.5051 120.614 57.8794C119.389 55.4291 116.281 53.4756 114.358 51.6239C111.681 49.0456 109.802 46.087 106.92 43.6598C103.592 40.8572 102.143 39.351 97.7204 38.2453C94.3642 37.4063 91.1114 36.3536 87.7588 35.5381C82.4736 34.2525 78.0109 32.8046 72.5667 32.8046C64.9205 32.8046 56.3542 35.8225 50.9613 41.2154C44.9847 47.1921 38.7262 52.2849 35.2435 60.3501C34.3872 62.3331 32.9047 63.9763 31.9317 65.9223C30.9991 67.7876 30.7474 69.5783 30.0393 71.4945C28.7503 74.9825 27.6737 78.2411 27.6737 82.0081C27.6737 85.9166 27.2028 89.7926 28.9879 93.3628C30.9196 97.2262 33.3551 100.605 36.216 103.824C41.3774 109.63 47.4064 114.896 54.9039 117.491C64.0898 120.671 73.6837 121.492 83.3957 121.276C91.8749 121.088 97.7752 112.107 104.081 107.793C106.692 106.006 108.46 102.941 110.678 100.722C113.297 98.1036 114.846 94.5414 116.145 91.1023C119.365 82.579 118.5 71.6766 117.092 62.8734C115.95 55.7385 111.871 49.3468 106.92 44.3958C102.734 40.2103 96.3688 38.6773 91.4385 35.6432C90.2916 34.9374 88.5919 34.9096 87.2857 34.5919C84.6265 33.945 82.2616 33.1363 79.7159 32.0949C76.3018 30.6982 73.7932 30.439 70.1486 30.439C64.7035 30.439 56.4508 35.189 52.9851 39.4544C49.7658 43.4167 45.7353 46.6345 42.7081 50.7828C41.044 53.0633 39.5239 55.5564 38.0822 57.9846C36.6297 60.4307 34.5052 62.5216 33.1408 65.0024C31.45 68.0766 30.5596 71.6093 28.8565 74.6749C28.1377 75.9687 28.6199 78.4383 28.6199 79.8265C28.6199 81.5269 28.2193 83.7811 28.7251 85.425C30.4689 91.0924 30.5641 99.4225 34.7967 104.008C40.6398 110.338 47.1728 115.513 55.2193 118.911C59.9692 120.916 64.2813 121.716 69.3338 122.459C75.475 123.362 83.1734 123.275 89.3358 122.59C94.6554 121.999 99.6468 118.851 103.371 115.126C106.831 111.666 108.195 107.848 110.258 103.535C116.027 91.4714 123.549 80.2609 121.113 66.1326C120.181 60.7259 117.358 56.6911 114.726 51.9918C112.624 48.239 110.195 44.8321 107.156 41.7937C104.302 38.9393 99.9152 36.7628 96.2748 35.1701C89.2688 32.105 82.2218 29.4928 74.5117 29.4928" stroke="black" stroke-opacity="0.3" stroke-linecap="round" stroke-linejoin="round"/>
<path d="M82.0814 56.4601C68.443 56.7275 69.3851 78.9884 82.3443 81.0619C85.7638 81.609 90.3606 82.6871 92.7527 79.6425C95.5787 76.0458 97.6941 72.5626 97.6941 67.8147C97.6941 59.3192 92.93 55.0408 84.6836 55.0408C78.3726 55.0408 74.7784 60.8596 74.0123 66.6057C73.54 70.148 73.9857 72.2612 76.9298 74.9377C80.1253 77.8427 83.8753 79.7635 88.2319 79.6425C95.8538 79.4308 96.7745 63.087 92.963 58.8519C88.6252 54.0321 84.6216 53.1483 78.3228 53.1483C74.5912 53.1483 73.0923 57.0177 73.0923 60.245" stroke="black" stroke-opacity="0.3" stroke-linecap="round" stroke-linejoin="round"/>
<path d="M66.4688 77.7501C61.7972 77.7501 57.1978 79.6915 55.377 84.3737C53.7612 88.5286 53.8395 92.5831 57.8477 95.2552C61.0774 97.4084 66.0813 99.1286 69.3337 96.2014C73.0416 92.8644 75.2392 89.4611 74.9848 84.3737C74.7306 79.2899 70.6202 78.102 66.4951 77.277C62.3141 76.4408 58.7462 76.1033 55.6924 79.2746C53.402 81.6531 52.5084 89.4412 54.4045 92.18C56.5316 95.2525 59.8434 98.6866 63.8667 98.0676C68.0553 97.4232 71.5715 93.0244 72.7244 89.1048C73.8306 85.3435 74.1411 83.1391 70.464 80.799C66.9577 78.5678 63.5625 76.9766 59.267 77.8552C54.3347 78.8641 52.985 83.4807 52.3018 87.922C51.8169 91.0739 53.2667 93.0559 54.641 95.7283C56.4825 99.309 59.7897 99.9863 63.6301 99.9863C67.6366 99.9863 69.7586 99.6941 72.6192 96.6745C75.3593 93.7822 75.8869 88.4553 74.9848 84.8468" stroke="black" stroke-opacity="0.3" stroke-linecap="round" stroke-linejoin="round"/>
<path d="M74.7799 58.1471C71.2185 58.1471 67.7836 57.6501 64.6682 59.6327C62.4491 61.0448 60.8648 63.9808 59.6842 66.3419C58.3105 69.0893 57.959 71.7659 57.959 74.7763C57.959 76.6373 57.959 78.4983 57.959 80.3593C57.959 82.2187 57.959 81.4076 57.959 80.1436" stroke="black" stroke-opacity="0.3" stroke-linecap="round" stroke-linejoin="round"/>
<path d="M50.1955 70.2236C53.4423 72.2033 56.3597 74.4708 58.9175 77.0286C59.1903 77.3014 60.9978 73.4378 61.3855 72.4041C61.9395 70.9266 63.1483 70.2145 64.4286 69.361" stroke="black" stroke-opacity="0.3" stroke-linecap="round" stroke-linejoin="round"/>
<path d="M89.4443 78.8497C89.4443 85.6357 90.1755 91.552 94.4282 96.9645C97.2714 100.583 103.304 103.865 107.99 103.865" stroke="black" stroke-opacity="0.3" stroke-linecap="round" stroke-linejoin="round"/>
<path d="M101.952 92.6515C103.212 95.661 104.921 98.851 106.696 101.613C107.353 102.635 109.21 104.677 107.319 104.728C101.981 104.872 97.3482 106.55 92.4634 108.178" stroke="black" stroke-opacity="0.3" stroke-linecap="round" stroke-linejoin="round"/>
<path d="M79.6202 67.3041C80.2627 66.9369 81.2315 66.2669 82.0445 66.5626C82.5634 66.7513 82.8075 67.6092 83.2138 67.9601C84.5228 69.0905 85.0615 67.3615 86.0374 67.3041C87.0973 67.2418 90.1885 66.1528 90.6578 67.5608" stroke="black" stroke-opacity="0.3" stroke-linecap="round" stroke-linejoin="round"/>
<path d="M59.3418 87.8393C60.8234 87.8393 62.9017 89.0274 64.3472 88.2243C65.0044 87.8592 65.9324 88.1808 66.6574 87.9391C67.2099 87.7549 68.3247 86.9038 68.9533 87.0835C69.701 87.2971 70.3866 87.5826 69.153 87.5826C66.3879 87.5826 63.615 87.0692 60.8819 87.0692" stroke="black" stroke-opacity="0.3" stroke-linecap="round" stroke-linejoin="round"/>
<path d="M51.3455 38.0133C57.5963 38.0133 62.4702 38.2093 67.3961 42.3774C69.8768 44.4765 71.9675 47.3528 73.6275 50.1194C74.6509 51.8251 75.9494 53.1896 76.8376 54.9661C77.1411 55.573 77.6645 57.0266 78.1594 57.274" stroke="black" stroke-opacity="0.3" stroke-linecap="round" stroke-linejoin="round"/>
<path d="M66.8296 51.9868C69.8524 52.0372 72.3166 52.6253 74.9493 54.043C76.0836 54.6537 76.7644 55.5723 77.2363 54.022C77.8258 52.0848 79.4539 49.778 79.6701 47.8325C79.8029 46.6375 80.4659 45.009 81.1807 44.0559" stroke="black" stroke-opacity="0.3" stroke-linecap="round" stroke-linejoin="round"/>
<path d="M25.4635 37.244C25.4635 41.2111 24.5463 46.4385 26.1464 50.1439C27.6681 53.6678 31.389 55.8039 34.0001 58.415" stroke="black" stroke-opacity="0.3" stroke-linecap="round" stroke-linejoin="round"/>
<path d="M24.4391 56.7077C28.2143 56.7077 31.343 57.0868 34.9487 57.808C35.1143 57.8411 35.7075 47.7125 35.7075 46.1222" stroke="black" stroke-opacity="0.3" stroke-linecap="round" stroke-linejoin="round"/>
<path d="M109.806 48.1711C113.181 40.6529 119.893 33.4265 127.904 30.7562" stroke="black" stroke-opacity="0.3" stroke-linecap="round" stroke-linejoin="round"/>
<path d="M119.367 27C121.029 27 122.33 27.5105 123.882 27.6829C124.39 27.7394 124.646 28.0244 125.172 28.0244C126.631 28.0244 127.93 29.0488 129.44 29.0488C130.734 29.0488 128.67 33.4738 128.416 34.1518C127.996 35.2707 127.844 36.9924 127.221 37.9269" stroke="black" stroke-opacity="0.3" stroke-linecap="round" stroke-linejoin="round"/>
<path d="M20 108.269C24.3867 108.429 28.623 110.438 32.805 108.269C34.0612 107.618 36.7645 106.497 37.4148 105.196" stroke="black" stroke-opacity="0.3" stroke-linecap="round" stroke-linejoin="round"/>
<path d="M30.9269 105.196C32.6849 105.196 34.4428 105.196 36.2007 105.196C37.1523 105.196 37.0734 105.423 37.0734 106.372C37.0734 108.94 37.0734 111.507 37.0734 114.074" stroke="black" stroke-opacity="0.3" stroke-linecap="round" stroke-linejoin="round"/>
</svg>
