<svg width="250" height="250" viewBox="0 0 250 250" fill="none" xmlns="http://www.w3.org/2000/svg">
<path fill-rule="evenodd" clip-rule="evenodd" d="M55.4177 209.456C55.4177 230.743 57.0976 248 79.6456 248C102.194 248 103.873 230.743 103.873 209.456" fill="#F2F2F2"/>
<path fill-rule="evenodd" clip-rule="evenodd" d="M86.3534 196.174C85.5269 197.603 84.79 199.061 84.139 200.54C84.116 197.493 84.2845 194.424 84.7446 191.313C85.531 185.983 86.7322 180.682 87.8609 175.388C88.6721 171.584 88.6208 164.752 91.6994 161.72C92.5436 161.065 92.7468 162.351 92.7468 162.908C92.7575 163.026 92.7445 160.632 91.9251 161.049C87.0544 163.564 85.4763 171.474 83.9169 175.434C81.6418 181.215 79.7061 187.124 78.909 193.138C78.7076 194.657 78.598 196.176 78.5727 197.692C78.4071 197.287 78.2516 196.878 78.0796 196.474C75.2684 189.881 71.4747 183.447 66.7431 177.514C65.5784 176.054 50.9342 161.649 49.7878 163.854C49.9009 164.174 50.1377 164.44 50.4988 164.651C50.52 164.675 50.5206 164.662 50.5083 164.626C51.3683 166.016 53.8137 168.161 54.5754 169.379C56.4923 172.442 57.9821 175.693 59.4961 178.882C62.6948 185.622 65.6621 192.429 68.5386 199.25C69.2084 200.839 69.9065 202.419 70.6187 203.994C63.2769 193.405 53.4826 183.791 40 178.287C44.6049 180.63 47.624 185.037 50.7339 188.412C54.4846 192.483 58.4351 196.444 62.1929 200.51C66.6253 205.307 71.8405 210.358 76.1038 215.666C80.2333 224.336 84.2462 233.015 86.7234 242.128C85.7084 238.98 86.6438 234.628 86.4701 231.324C86.3322 228.693 86.0247 226.084 85.6035 223.48C86.1243 224.655 86.5731 225.83 86.7764 226.924C86.5908 225.09 86.377 223.268 86.1472 221.455C86.7369 219.758 87.316 218.175 87.7072 216.87C89.7118 210.179 92.0988 203.602 95.3495 197.193C98.3574 191.264 101.808 185.41 105.567 179.735C107.321 177.089 109.099 174.453 110.866 171.812C112.022 170.083 113.123 167.316 114.733 165.659C104.326 175.174 92.956 184.757 86.3534 196.174Z" fill="#F2F2F2"/>
<path fill-rule="evenodd" clip-rule="evenodd" d="M105.537 64.6372C103.193 61.8862 101.607 58.5148 101.872 54.7371C102.636 43.8524 117.788 46.2469 120.735 51.7406C123.682 57.2342 123.332 71.1694 119.523 72.1513C118.004 72.5428 114.768 71.5836 111.474 69.5984L113.541 84.2242H101.335L105.537 64.6372Z" fill="#915B3C"/>
<path fill-rule="evenodd" clip-rule="evenodd" d="M115.913 45.7571C114.245 45.2485 111.824 45.076 110.805 45.1927C111.385 43.8045 111.615 42.2578 111.427 40.7519C111.245 39.2885 110.591 38.0426 109.987 36.737C109.708 36.1351 109.392 35.5366 108.921 35.0763C108.441 34.6073 107.834 34.2978 107.197 34.1501C106.545 33.9989 105.864 34.0115 105.211 34.1487C104.922 34.2094 104.663 34.3414 104.38 34.4148C104.09 34.49 103.949 34.3085 103.739 34.1261C103.232 33.6865 102.488 33.4696 101.846 33.3919C101.126 33.3048 100.379 33.4134 99.6924 33.6501C99.024 33.8806 98.3819 34.2547 97.8987 34.7998C97.6835 35.0425 97.4882 35.3187 97.3612 35.6236C97.3092 35.7487 97.3006 35.8228 97.1757 35.8687C97.0602 35.9111 96.9252 35.9123 96.806 35.9527C95.6535 36.3431 94.6682 37.2335 94.1317 38.3768C93.8187 39.0438 93.6704 40.2182 93.711 41.5344C93.7516 42.8507 94.9401 46.2851 96.0517 47.5379C97.044 48.656 98.5024 49.3939 99.9099 49.7169C98.9757 50.7848 98.3538 52.1192 97.8939 53.4763C97.3944 54.9505 97.0852 56.4822 96.9711 58.0429C96.8626 59.5257 96.8526 61.0939 97.2002 62.545C97.5254 63.9021 98.2209 65.0154 99.3818 65.7217C99.9136 66.0452 100.486 66.2883 101.061 66.5104C101.628 66.7293 102.197 66.9421 102.791 67.065C103.916 67.2974 105.211 67.2575 106.077 66.3625C106.39 66.0399 106.733 65.6345 106.961 65.2403C107.043 65.0986 107.092 65.0059 106.992 64.8673C106.873 64.7014 106.68 64.5743 106.527 64.4445C105.654 63.7044 105.114 62.7163 104.978 61.5422C104.839 60.3508 105.159 58.8131 106.318 58.2931C107.747 57.6513 109.322 58.388 110.593 59.0747C111.133 57.1685 112.242 55.4522 113.981 54.5778C115.904 53.6105 118.111 53.4973 120.088 52.6673C120.603 52.451 121.128 52.2055 121.507 51.7649C121.665 51.5807 121.851 51.3418 121.915 51.0982C121.998 50.7782 121.791 50.51 121.632 50.2605C120.787 48.9379 117.581 46.2658 115.913 45.7571Z" fill="#191847"/>
<path fill-rule="evenodd" clip-rule="evenodd" d="M98.2828 126.44L136.077 189.624L164.411 243.041H170.514L123.039 126.44L98.2828 126.44Z" fill="#784931"/>
<path fill-rule="evenodd" clip-rule="evenodd" d="M160.679 240.575C160.11 242.094 159.826 243.231 159.826 243.985C159.826 244.902 159.979 246.24 160.284 248C161.348 248 170.911 248 188.971 248C189.717 245.536 189.287 244.205 187.68 244.009C186.074 243.812 184.74 243.635 183.678 243.476L170.344 237.532C170.088 237.418 169.787 237.533 169.673 237.79C169.671 237.794 169.669 237.798 169.667 237.803L168.81 239.882C167.323 240.576 166.115 240.922 165.185 240.922C164.43 240.922 163.387 240.617 162.056 240.007L162.056 240.007C161.545 239.773 160.941 239.997 160.707 240.508C160.697 240.53 160.688 240.553 160.679 240.575Z" fill="#E4E4E4"/>
<path fill-rule="evenodd" clip-rule="evenodd" d="M156.542 234.487L168.311 230.927C163.155 215.512 156.835 198.548 149.351 180.035C141.867 161.523 133.83 143.657 125.24 126.44H91.9983C101.549 148.219 111.675 168.009 122.374 185.809C133.074 203.608 144.463 219.834 156.542 234.487Z" fill="#D17D7B"/>
<path fill-rule="evenodd" clip-rule="evenodd" d="M95.799 126.44C92.232 148.643 85.3522 177.011 84.7029 177.886C84.2701 178.47 68.6875 183.691 37.9553 193.551L39.2736 198.932C75.9217 193.645 95.2322 189.542 97.2049 186.625C100.164 182.249 114.939 147.681 120.662 126.44H95.799Z" fill="#915B3C"/>
<path fill-rule="evenodd" clip-rule="evenodd" d="M48.7582 188.899L51.0803 197.566C78.4909 199.97 95.2861 198.233 101.466 192.355C107.645 186.477 114.688 164.505 122.594 126.44H90.8967C85.8875 157.61 83.0871 173.849 82.4953 175.158C81.9036 176.466 70.6579 181.047 48.7582 188.899Z" fill="#F49E97"/>
<path fill-rule="evenodd" clip-rule="evenodd" d="M39.4603 191.309C37.8656 191.012 36.6969 190.929 35.9542 191.06C35.051 191.219 33.7594 191.602 32.0796 192.209C32.2644 193.257 33.9249 202.674 37.0611 220.46C39.6176 220.766 40.8532 220.111 40.7678 218.496C40.6824 216.88 40.6255 215.535 40.5969 214.461L44.1354 200.298C44.2035 200.026 44.0378 199.749 43.7653 199.681C43.7606 199.68 43.7559 199.679 43.7512 199.678L41.555 199.195C40.6136 197.851 40.0622 196.722 39.9007 195.806C39.7696 195.062 39.8889 193.982 40.2586 192.566L40.2586 192.566C40.4004 192.022 40.0748 191.466 39.5312 191.324C39.5077 191.318 39.4841 191.313 39.4603 191.309Z" fill="#E4E4E4"/>
<path fill-rule="evenodd" clip-rule="evenodd" d="M124.038 94.7526L141.692 85.0836C144.628 81.5973 147.521 78.8898 150.37 76.9609C151.241 76.5974 152.763 76.3774 151.339 78.9047C149.916 81.4319 148.532 84.1543 149.257 84.9329C149.982 85.7115 151.791 84.6238 152.657 85.9175C153.234 86.7799 150.143 88.1423 143.386 90.0047L130.558 101.75L124.038 94.7526ZM151.688 102.911L159.443 98.6507C160.531 94.5104 161.831 92.4272 163.345 92.4013C164.507 91.8604 162.483 97.0921 164.686 96.6384C166.89 96.1847 172.269 92.1843 173.196 92.9966C174.567 94.1982 173.344 97.8879 171.904 99.7233C169.212 103.154 166.983 104.327 161.473 105.863C158.592 106.666 155.478 108.276 152.13 110.693L151.688 102.911Z" fill="#915B3C"/>
<path fill-rule="evenodd" clip-rule="evenodd" d="M115.441 92.5987C121.624 92.5334 129.87 91.2273 138.669 85.6425L142.124 93.348C136.055 99.3709 127.521 104.319 120.06 104.11C114.18 103.945 111.175 96.8323 115.441 92.5987Z" fill="#A22020"/>
<path fill-rule="evenodd" clip-rule="evenodd" d="M123.767 104.956C130.332 106.593 141.34 104.663 156.792 99.164C160.625 107.093 162.397 112.747 162.108 116.123C148.852 123.048 137.491 126.135 128.13 126.339C128.428 131.893 127.752 137.178 125.481 142.006C120.812 151.934 93.4738 142.74 84.2819 144.55C78.5257 125.855 89.6555 118.258 89.6645 106.296C89.6743 93.1972 100.192 73.0344 101.74 73.0344H115.852C116.631 83.0385 120.55 94.0638 123.767 104.956Z" fill="#CF1F1F"/>
<path fill-rule="evenodd" clip-rule="evenodd" d="M218 48C218 72.8528 197.853 93 173 93C148.147 93 128 72.8528 128 48C128 23.1472 148.147 3 173 3C197.853 3 218 23.1472 218 48ZM193 38C193 43.5228 188.523 48 183 48C177.477 48 173 43.5228 173 38C173 32.4772 177.477 28 183 28C188.523 28 193 32.4772 193 38ZM173 58C173 63.5228 168.523 68 163 68C157.477 68 153 63.5228 153 58C153 52.4771 157.477 48 163 48C168.523 48 173 52.4771 173 58Z" fill="#FF4C4C"/>
</svg>
