<svg width="320" height="100" viewBox="0 0 320 100" fill="none" xmlns="http://www.w3.org/2000/svg">
<path d="M143.36 73.768C149.184 73.768 154.24 71.528 157.12 68.712V49.512H141.888V57.192H148.8V64.36C147.776 65.192 146.048 65.64 144.32 65.64C136.512 65.64 132.608 60.648 132.608 52.072C132.608 43.688 137.152 38.632 143.616 38.632C147.2 38.632 149.376 40.104 151.488 41.96L156.416 35.944C153.664 33.128 149.312 30.504 143.296 30.504C132.16 30.504 122.944 38.568 122.944 52.392C122.944 66.408 131.904 73.768 143.36 73.768ZM164.973 73H174.381V54.568C176.045 50.28 178.989 48.744 181.357 48.744C182.701 48.744 183.661 48.936 184.813 49.256L186.349 41.128C185.453 40.744 184.365 40.488 182.573 40.488C179.309 40.488 175.853 42.536 173.549 46.824H173.293L172.653 41.256H164.973V73ZM196.66 73.768C200.244 73.768 203.188 72.104 205.876 69.736H206.132L206.772 73H214.452V54.824C214.452 45.096 209.972 40.488 201.844 40.488C196.852 40.488 192.308 42.216 188.276 44.648L191.668 50.856C194.74 49.064 197.364 47.976 200.052 47.976C203.508 47.976 204.852 49.768 205.044 52.584C192.5 53.864 187.188 57.512 187.188 64.168C187.188 69.544 190.836 73.768 196.66 73.768ZM199.86 66.472C197.62 66.472 196.212 65.512 196.212 63.464C196.212 61.032 198.388 59.112 205.044 58.216V63.784C203.38 65.448 201.972 66.472 199.86 66.472ZM222.41 84.776H231.818V75.496L231.498 70.44C233.738 72.552 236.298 73.768 239.05 73.768C245.898 73.768 252.426 67.496 252.426 56.616C252.426 46.824 247.69 40.488 240.01 40.488C236.682 40.488 233.482 42.152 230.986 44.392H230.73L230.09 41.256H222.41V84.776ZM236.874 66.088C235.274 66.088 233.482 65.576 231.818 64.04V51.048C233.674 49.064 235.338 48.168 237.258 48.168C241.034 48.168 242.762 51.048 242.762 56.744C242.762 63.272 240.138 66.088 236.874 66.088ZM259.098 73H268.506V51.56C270.554 49.576 272.026 48.488 274.394 48.488C277.082 48.488 278.298 49.896 278.298 54.504V73H287.706V53.288C287.706 45.352 284.762 40.488 277.85 40.488C273.562 40.488 270.426 42.728 268.058 44.84L268.506 39.144V28.136H259.098V73Z" fill="#FF4C4C"/>
<path fill-rule="evenodd" clip-rule="evenodd" d="M95 50C95 74.8528 74.8528 95 50 95C25.1472 95 5 74.8528 5 50C5 25.1472 25.1472 5 50 5C74.8528 5 95 25.1472 95 50ZM70 40C70 45.5228 65.5228 50 60 50C54.4771 50 50 45.5228 50 40C50 34.4772 54.4771 30 60 30C65.5228 30 70 34.4772 70 40ZM50 60C50 65.5228 45.5228 70 40 70C34.4772 70 30 65.5228 30 60C30 54.4771 34.4772 50 40 50C45.5228 50 50 54.4771 50 60Z" fill="url(#paint0_linear)"/>
<defs>
<linearGradient id="paint0_linear" x1="5" y1="95" x2="95" y2="95" gradientUnits="userSpaceOnUse">
<stop stop-color="#FF4C4C"/>
<stop offset="1" stop-color="#FFAD4C"/>
</linearGradient>
</defs>
</svg>
