<svg width="1487" height="1509" viewBox="0 0 1487 1509" fill="none" xmlns="http://www.w3.org/2000/svg">
<path fill-rule="evenodd" clip-rule="evenodd" d="M785.849 206.466C782.561 204.835 778.178 206.726 780.007 211.036C781.965 215.652 789.207 215.709 793.297 215.617C792.887 215.596 791.569 211.364 791.118 210.724C789.787 208.837 787.871 207.47 785.849 206.466ZM823.733 289.217C824.563 289.926 823.801 289.283 823.733 289.217V289.217ZM782.682 227.342C780.758 228.813 780.666 231.409 782.238 233.167C784.11 235.26 787.527 235.184 790.078 234.98C791.232 234.887 797.394 234.394 795.933 233.386C796.045 233.428 796.28 233.531 796.531 233.671C796.666 234.165 796.808 234.657 796.956 235.147C796.92 235.168 796.889 235.191 796.85 235.212C796.892 235.193 796.922 235.173 796.959 235.155C798.44 240.05 800.549 244.712 803.311 249.073C802.278 248.666 801.208 248.358 800.122 248.221C796.908 247.814 790.146 250.312 793.741 254.592C797.189 258.695 802.556 254.293 806.469 253.686C810.264 258.983 814.449 264.059 818.834 268.966C818.565 269.05 818.33 269.226 818.194 269.499C816.435 268.606 814.602 267.329 812.974 266.984C810.624 266.485 805.807 266.183 804.031 268.286C801.847 270.872 804.188 272.973 806.768 273.469C810.51 274.188 815.408 272.36 819.008 271.125C819.42 271.197 819.87 271.077 820.138 270.748C820.218 270.722 820.297 270.696 820.375 270.671C824.816 275.554 829.427 280.275 834.009 284.893C833.96 284.891 833.912 284.888 833.861 284.885C832.665 284.101 831.383 283.458 829.993 283.121C826.778 282.337 822.995 282.333 820.386 284.66C817.787 286.976 816.866 291.027 819.555 293.628C824.937 298.835 832.867 286.964 835.581 286.468C840.239 291.112 845.163 295.45 850.165 299.702C849.597 299.529 849.014 299.402 848.412 299.344C843.507 298.875 831.995 304.888 838.014 310.804C843.26 315.959 849.331 306.037 853.558 302.566C858.271 306.529 863.01 310.464 867.616 314.552C865.104 313.885 862.676 313.787 859.983 314.601C857.197 315.444 852.701 317.548 854.462 321.31C856.254 325.136 861.653 323.395 864.465 322.181C865.999 321.518 869.074 319.282 871.775 318.34C879.124 325.279 885.491 332.922 890.31 341.925C893.319 347.547 895.602 353.553 897.21 359.725C898.235 363.665 900.257 370.283 899.852 375.411C901.781 365.146 898.293 352.818 894.536 343.643C891.082 335.207 885.912 327.8 879.857 321.134C881.377 316.563 894.167 309.972 886.521 305.725C882.461 303.48 878.302 307.206 877.414 311.151C876.805 313.862 877.734 317.269 878.719 319.901C876.814 317.868 874.834 315.901 872.794 314C869.974 311.372 867.086 308.82 864.171 306.3C868.975 301.787 873.521 288.886 867.08 286.776C857.569 283.669 862.149 301.267 862.812 304.565C863.001 304.576 863.147 304.519 863.255 304.397C863.202 304.699 863.14 305.022 863.065 305.348C857.485 300.551 851.823 295.847 846.348 290.935C846.841 290.571 847.625 289.177 848.241 288.436C849.633 286.764 850.963 285.018 851.936 283.062C853.473 279.971 854.955 275.042 850.882 273.224C846.452 271.243 844.347 276.819 844.316 280.145C844.295 282.445 844.922 284.63 845.248 286.885C845.35 287.588 844.957 290.758 845.915 289.395C845.87 289.897 845.863 290.262 845.886 290.52C844.903 289.633 843.927 288.737 842.958 287.835C843.003 287.721 843.036 287.597 843.044 287.453C843.096 286.461 842.098 286.079 841.398 286.37C840.119 285.154 838.853 283.924 837.609 282.668C834.972 280.009 832.298 277.274 829.642 274.481C830.218 273.986 829.989 273.3 830.528 272.774C831.066 272.25 832.125 271.96 832.758 271.473C834.349 270.247 835.669 268.461 836.624 266.703C838.199 263.799 840.235 257.707 835.632 256.323C830.888 254.894 828.48 260.758 828.175 264.425C828.115 265.135 828.647 271.535 829.054 273.859C824.14 268.668 819.306 263.282 814.926 257.802C816.254 257.79 820.019 255.069 820.78 254.327C822.637 252.516 825.589 248.515 822.333 246.398C819.438 244.52 815.87 247.24 814.632 249.883C814.429 250.318 813.711 254.37 813.655 256.188C811.843 253.864 810.114 251.526 808.505 249.181C807.432 247.622 806.43 246.022 805.492 244.388C805.717 244.26 805.93 244.036 806.13 243.759C810.958 242.939 817.114 235.407 811.443 232.786C808.743 231.539 805.815 234.112 804.492 236.218C804.221 236.649 803.782 238.815 803.425 240.524C800.726 235.11 798.664 229.378 797.095 223.501C797.515 223.397 797.871 223.076 797.918 222.524C800.262 221.187 802.113 220.075 803.749 217.505C804.766 215.909 806.596 212.262 803.609 211.376C799.722 210.224 797.281 216.161 796.963 219.085C796.926 219.424 796.927 220.412 796.94 221.316C796.805 221.298 796.668 221.3 796.535 221.324C795.642 217.685 794.929 213.999 794.363 210.307C796.484 209.624 796.851 198.482 795.438 196.895C792.281 193.343 790.053 198.474 790.222 201.187C790.421 204.385 791.87 207.294 793.596 209.875C793.781 210.149 793.728 210.135 793.776 209.755C793.803 209.943 793.866 210.082 793.959 210.182C793.87 211.866 793.696 213.589 793.78 215.079C794.019 219.344 794.516 223.635 795.237 227.846C795.412 228.87 795.613 229.885 795.839 230.892C794.133 229.44 791.834 228.149 790.935 227.745C788.6 226.699 785.001 225.569 782.682 227.342ZM900.126 375.425C900.017 376.913 899.749 378.275 899.248 379.398C899.624 378.119 899.912 376.79 900.126 375.425Z" fill="#F2F2F2"/>
<g opacity="0.7">
<path opacity="0.7" fill-rule="evenodd" clip-rule="evenodd" d="M849.808 307.217C858.94 306.743 870.233 312.073 871.207 321.999C871.915 329.212 871.696 336.403 872.791 343.605C873.667 349.36 875.519 354.885 878.045 360.128C880.474 365.169 885.513 369.461 886.824 374.846C887.659 378.278 887.192 383.105 886.04 386.462C884.639 390.543 885.383 390.221 888.175 393.645C893.644 400.356 898.569 407.238 902.052 415.253C907.069 426.798 910.358 440.293 908.496 452.93C908.259 454.535 907.979 460.294 905.769 460.696C903.301 461.146 904.455 457.853 904.587 456.789C905.426 450 906.172 444.066 905.159 437.172C901.251 410.57 882.167 393.043 869.741 370.466C869.058 369.302 867.616 366.529 866.613 364.7C865.03 361.813 863.439 356.318 861.296 354.177C857.26 350.143 860.971 358.252 861.757 359.801C862.751 361.759 863.845 363.84 864.864 365.556C869.526 373.51 874.73 382.193 879.545 390.392C858.721 395.136 844.055 370.101 838.467 353.642C833.862 340.082 828.353 308.377 849.808 307.217Z" fill="#69A1AC"/>
<path opacity="0.7" fill-rule="evenodd" clip-rule="evenodd" d="M972.201 282.035C956.935 283.246 947.135 293.319 942.573 307.408C940.115 315.001 939.833 322.801 938.466 330.603C936.411 342.342 931.988 351.239 923.345 359.602C920.668 362.192 918.696 364.852 917.293 367.697C914.509 370.538 912.086 373.753 910.306 377.683C908.031 382.702 907.388 388.725 910.014 393.729C910.72 395.074 912.481 397.775 914.306 399.002C907.472 413.556 903.715 429.497 904.138 445.417C904.394 455.027 904.863 464.641 905.411 474.24C905.558 476.817 906.397 481.073 907.658 476.75C908.812 472.797 907.365 466.591 907.231 462.46C906.58 442.34 906.023 424.046 914.305 405.248C915.174 403.278 916.095 401.323 917.054 399.384C917.11 399.352 917.162 399.312 917.215 399.274C917.252 399.302 917.285 399.333 917.321 399.36C917.383 399.251 917.467 399.121 917.564 398.976C917.839 398.692 918.08 398.333 918.308 397.933C919.043 396.915 919.874 395.719 919.879 395.064C919.879 395.059 919.876 395.051 919.876 395.046C925.003 386.676 930.876 378.768 936.874 371.014C936.829 371.07 943.381 362.15 942.368 367.083C941.88 369.46 937.061 373.987 935.114 376.506C930.809 382.108 925.753 389.206 921.552 396.07C920.986 396.395 920.187 397.99 919.61 399.178C919.291 399.78 918.993 400.387 918.701 400.916C933.588 405.835 945.168 395.927 953.065 384.403C953.074 384.39 953.083 384.376 953.092 384.362C955.495 381.178 957.956 378.016 961.032 375.499C966.162 371.299 971.657 370.558 977.706 368.491C994.203 362.855 1001.22 341.475 1003.44 325.611C1005.96 307.714 993.664 280.27 972.201 282.035Z" fill="#89C5CC"/>
<path opacity="0.7" fill-rule="evenodd" clip-rule="evenodd" d="M942.046 231.915C926.379 248.222 918.809 270.839 912.816 292.102C906.122 315.85 901.7 339.964 901.53 364.655C901.419 380.877 900.978 397.2 901.925 413.403C902.261 419.157 902.834 424.922 903.746 430.615C903.821 431.082 905.862 443.793 907.815 440.831C908.925 439.147 905.723 427.646 905.481 425.73C904.12 414.941 903.803 404.072 903.87 393.204C903.979 375.312 903.451 357.511 905.265 339.684C905.535 337.022 905.749 334.227 906.381 331.623C907.053 328.855 906.198 330.063 908.384 328.967C910.509 327.902 913.134 328.054 915.339 326.717C924.083 321.415 928.556 307.796 932.037 298.86C936.019 288.641 938.439 277.744 940.372 266.99C941.791 259.089 942.806 251.236 943.38 243.233C943.561 240.71 943.571 238.073 944.067 235.593C944.201 234.924 944.871 233.74 944.846 233.148C944.795 231.894 944.038 231.157 943.976 230.103C943.32 230.693 942.676 231.298 942.046 231.915Z" fill="#89C5CC"/>
<path opacity="0.7" fill-rule="evenodd" clip-rule="evenodd" d="M856.616 449.172C856.616 476.139 878.477 498 905.444 498C932.411 498 954.271 476.139 954.271 449.172" fill="#89C5CC"/>
<path opacity="0.7" fill-rule="evenodd" clip-rule="evenodd" d="M909.361 449.328H906.781C906.96 446.091 907.197 442.859 907.738 439.658C909.808 427.416 916.279 409.435 930.473 407.448C930.997 407.374 932.923 407.362 935.256 407.498C936.362 406.881 937.601 406.507 938.906 406.421C950.99 405.53 964.486 415.279 970.315 425.425C975.014 433.605 974.223 444.346 971.32 453.037C969.377 458.855 965.135 467.15 958.061 467.231C949.21 467.332 948.783 456.394 948.612 449.999C948.385 441.497 947.31 434.091 940.611 428.296C939.05 426.946 937.343 425.758 935.766 424.427C933.297 422.343 930.568 420.21 930.25 416.763C929.81 412.007 932.495 411.151 936.594 412.034C937.293 412.185 944.331 415.343 943.289 412.847C942.971 412.084 941.809 411.48 940.342 411.027C936.547 410.614 932.02 410.136 930.719 410.422C916.675 413.503 911.208 432.955 909.755 445.315C909.599 446.649 909.472 447.987 909.361 449.328Z" fill="#69A1AC"/>
</g>
<path fill-rule="evenodd" clip-rule="evenodd" d="M1325.74 209.49C1330.35 204.081 1333.46 197.453 1332.94 190.025C1331.44 168.625 1301.65 173.333 1295.86 184.134C1290.06 194.935 1290.75 222.333 1298.24 224.263C1301.23 225.033 1307.59 223.147 1314.06 219.244L1310 248H1334L1325.74 209.49Z" fill="#B28B67"/>
<path fill-rule="evenodd" clip-rule="evenodd" d="M1343.41 182.902C1344.18 182.134 1344.6 181.037 1344.97 179.996C1345.35 178.914 1345.72 177.822 1345.97 176.696C1346.48 174.447 1346.48 171.86 1344.88 170.114C1343.59 168.713 1341.66 168.085 1339.88 167.948C1338.69 167.857 1337.47 168.024 1336.33 168.398C1335.2 168.769 1334.23 169.509 1333.13 169.968C1333.09 167.544 1332.68 165.008 1331.45 162.938C1330.26 160.947 1328.38 159.829 1326.23 159.534C1324.02 159.23 1321.85 159.746 1319.87 160.814C1319.38 161.081 1318.89 161.361 1318.42 161.678C1318.03 161.944 1317.62 162.264 1317.16 162.372C1316.65 162.492 1316.39 162.196 1316.06 161.821C1315.67 161.382 1315.23 160.996 1314.76 160.653C1312.7 159.137 1309.99 158.514 1307.6 159.423C1306.5 159.841 1305.43 160.552 1304.69 161.531C1304.02 162.404 1303.55 163.789 1302.63 164.398C1302.24 164.656 1301.96 164.314 1301.61 164.061C1301.07 163.681 1300.57 163.262 1300.03 162.892C1299.27 162.373 1298.45 161.985 1297.57 161.781C1296.28 161.484 1294.51 161.553 1294.14 163.238C1294 163.871 1294.11 164.548 1294.15 165.186C1294.21 166.061 1294.28 166.936 1294.35 167.811C1294.41 168.474 1294.48 169.115 1294.61 169.767C1294.67 170.115 1294.88 170.763 1294.73 171.111C1294.55 171.546 1293.69 171.298 1293.32 171.313C1292.6 171.343 1291.87 171.47 1291.2 171.78C1290.68 172.021 1290.13 172.374 1289.91 172.969C1289.78 173.335 1289.81 173.711 1289.88 174.088C1289.95 174.539 1289.87 174.779 1289.81 175.235C1288.83 174.755 1285.46 173.69 1285.03 175.435C1284.89 176.016 1285.22 176.673 1285.46 177.163C1285.89 178.023 1286.46 178.809 1287.03 179.558C1288.24 181.121 1289.68 182.47 1291.22 183.623C1289.41 184.429 1288.94 186.806 1290.51 188.222C1291.2 188.848 1292.13 188.987 1293.01 188.947C1293.33 188.932 1293.79 188.809 1294.04 188.865C1294.17 188.895 1294.32 189.01 1294.51 189.022C1295.74 189.107 1297.13 188.81 1298.34 188.536C1300.49 188.048 1302.52 187.03 1304.18 185.48C1304.61 185.082 1304.96 184.853 1305.54 184.859C1306.04 184.864 1306.53 185.002 1307.03 185.015C1308.36 185.048 1309.56 184.399 1310.79 183.967C1310.87 185.633 1311.34 187.469 1312.03 188.969C1312.58 190.191 1313.74 190.369 1314.88 190.476C1318.53 190.82 1322.19 190.437 1325.85 190.442C1322.31 191.241 1318.66 191.571 1315.15 192.511C1313.57 192.936 1314.78 194.004 1315.45 194.744C1316.57 195.963 1317.4 197.474 1317.98 199.065C1319.7 196.81 1322.76 195.324 1325.47 196.017C1328.46 196.782 1330.57 200.83 1328.66 203.74C1327.55 205.429 1325.54 206.081 1323.87 206.807C1325.17 208.161 1325.49 210.161 1326.27 211.846C1326.66 212.677 1327.2 213.617 1328.07 213.906C1328.39 214.013 1328.76 214.022 1329.01 214.283C1329.33 214.606 1329.4 214.967 1329.8 215.245C1331.39 216.352 1333.88 216.267 1335.29 214.821C1336.57 213.514 1336.24 211.445 1335.17 210.12C1336.87 209.412 1339.96 208.502 1339.29 205.857C1342.97 205.613 1351.9 199.646 1346.96 195.286C1349.67 193.755 1352.16 190.012 1350.42 186.713C1349.08 184.172 1345.96 183.036 1343.41 182.902Z" fill="#191847"/>
<path fill-rule="evenodd" clip-rule="evenodd" d="M1377.38 373H1300.12L1290 497H1405L1377.38 373Z" fill="#C5CFD6"/>
<path fill-rule="evenodd" clip-rule="evenodd" d="M1377.38 373H1353.62L1339.4 497H1405L1377.38 373Z" fill="black" fill-opacity="0.1"/>
<path fill-rule="evenodd" clip-rule="evenodd" d="M1212.05 351.756C1203.81 346.81 1189.99 353.165 1190 360.238C1190.03 381.403 1209.34 481.151 1210.35 487.457C1211.36 493.762 1222.16 495.428 1222.79 487.477C1223.79 474.827 1225.65 431.033 1223.79 410.763C1223.02 402.395 1222.2 394.427 1221.38 387.318C1231.52 405.621 1247.19 431.826 1268.41 465.934L1279.92 460.672C1270.88 430.876 1263.46 409.841 1257.68 397.567C1247.77 376.55 1238.47 358.552 1234.56 352.212C1228.41 342.24 1217.7 345.719 1212.05 351.756Z" fill="#B28B67"/>
<path fill-rule="evenodd" clip-rule="evenodd" d="M1279.1 444.125L1239.57 350.487C1230.1 335.255 1203.55 353.587 1206.78 362.422C1214.11 382.479 1251.4 447.414 1253.58 453.39L1279.1 444.125Z" fill="#40CA77"/>
<path fill-rule="evenodd" clip-rule="evenodd" d="M1281.3 454.767C1283.76 456.794 1285.36 458.45 1286.1 459.734C1287 461.295 1288.06 463.725 1289.27 467.021C1287.46 468.067 1271.17 477.467 1240.42 495.222C1236.73 491.758 1236.15 489.07 1238.7 487.156C1241.24 485.243 1243.34 483.629 1244.99 482.315L1261.85 459.087C1262.17 458.64 1262.8 458.54 1263.24 458.865C1263.25 458.87 1263.26 458.876 1263.27 458.882L1266.77 461.579C1269.98 461.299 1272.38 460.702 1273.97 459.788C1275.25 459.045 1276.73 457.5 1278.39 455.153L1278.39 455.153C1279.03 454.253 1280.28 454.041 1281.18 454.68C1281.22 454.708 1281.26 454.737 1281.3 454.767Z" fill="#E4E4E4"/>
<path fill-rule="evenodd" clip-rule="evenodd" d="M1225.32 482.402C1226.44 485.388 1227 487.623 1227 489.106C1227 490.909 1226.7 493.54 1226.1 497C1224.01 497 1205.21 497 1169.7 497C1168.23 492.155 1169.08 489.539 1172.24 489.152C1175.39 488.766 1178.02 488.417 1180.1 488.106L1206.32 476.419C1206.82 476.194 1207.42 476.421 1207.64 476.925C1207.64 476.934 1207.65 476.942 1207.65 476.951L1209.34 481.039C1212.26 482.403 1214.64 483.085 1216.46 483.085C1217.95 483.085 1220 482.485 1222.62 481.286L1222.62 481.285C1223.62 480.825 1224.81 481.266 1225.27 482.27C1225.29 482.313 1225.31 482.357 1225.32 482.402Z" fill="#E4E4E4"/>
<path fill-rule="evenodd" clip-rule="evenodd" d="M1187.23 367.433C1187.23 394 1199.85 455.97 1199.85 461.82L1227 461.841C1223.03 406.545 1221.62 378.6 1222.77 378.004C1224.51 377.111 1293.82 384.925 1314.61 384.925C1344.59 384.925 1356.99 366.02 1358 331H1298.61C1286.52 332.294 1223.45 345.015 1200.03 349.388C1190 351.261 1187.23 360.115 1187.23 367.433Z" fill="#7AEB93"/>
<path fill-rule="evenodd" clip-rule="evenodd" d="M1289.36 268.7L1254.65 249.69C1248.88 242.835 1243.19 237.512 1237.59 233.72C1235.88 233.005 1232.89 232.573 1235.69 237.541C1238.48 242.51 1241.21 247.863 1239.78 249.394C1238.35 250.924 1234.8 248.786 1233.1 251.329C1231.96 253.025 1238.04 255.704 1251.32 259.365L1276.54 282.458L1289.36 268.7ZM1235 284.74L1219.75 276.364C1217.61 268.224 1215.06 264.128 1212.08 264.077C1209.8 263.014 1213.78 273.3 1209.44 272.408C1205.11 271.516 1194.54 263.651 1192.71 265.248C1190.02 267.61 1192.42 274.864 1195.25 278.473C1200.55 285.218 1204.93 287.524 1215.76 290.544C1221.43 292.123 1227.55 295.289 1234.13 300.04L1235 284.74Z" fill="#997659"/>
<path fill-rule="evenodd" clip-rule="evenodd" d="M1306.27 264.465C1294.11 264.337 1277.9 261.769 1260.6 250.789L1253.8 265.939C1265.74 277.78 1282.51 287.51 1297.18 287.098C1308.74 286.773 1314.65 272.789 1306.27 264.465Z" fill="#23A220"/>
<path fill-rule="evenodd" clip-rule="evenodd" d="M1289.9 288.761C1276.99 291.98 1255.35 288.184 1224.96 277.373C1217.43 292.964 1213.94 304.078 1214.51 310.717C1240.58 324.331 1262.91 330.401 1281.32 330.802C1280.73 341.721 1282.06 352.112 1286.53 361.606C1295.71 381.124 1349.45 363.048 1367.53 366.606C1378.84 329.851 1356.96 314.914 1356.94 291.397C1356.93 265.642 1336.25 226 1333.2 226H1305.46C1303.93 245.669 1296.22 267.346 1289.9 288.761Z" fill="#15D54B"/>
<rect x="1113" y="113" width="148" height="148" rx="12" fill="url(#paint0_linear)"/>
<circle cx="1141.04" cy="141.191" r="17.619" fill="white"/>
<circle cx="1186.85" cy="141.191" r="17.619" fill="white"/>
<path fill-rule="evenodd" clip-rule="evenodd" d="M684.443 117.741C681.261 111.049 679.909 103.53 682.439 96.1886C689.728 75.0359 718.467 87.8194 721.389 100.264C724.311 112.709 716.222 140.123 708.156 140.046C704.94 140.015 699.039 136.398 693.57 130.718L689.902 160.783L665.726 154.305L684.443 117.741Z" fill="#D4A181"/>
<path fill-rule="evenodd" clip-rule="evenodd" d="M693.217 118.468C688.677 123.419 683.37 126.642 679.227 125.532C671.359 123.423 668.583 111.405 671.614 100.094C671.72 99.697 671.834 99.3044 671.954 98.9168C662.101 102.398 652.67 111.938 641.657 108.987C626.674 104.972 628.821 73.1567 649.754 78.7658C663.991 82.5804 670.437 86.5324 675.65 91.2189C677.739 88.1822 680.31 85.8473 683.057 84.4718C683.752 84.0138 684.725 83.6581 685.924 83.4079C686.664 83.2277 687.409 83.119 688.154 83.0865C692.152 82.7242 697.677 83.1934 703.62 84.5656C704.73 84.8219 705.813 85.1 706.863 85.3965C708.367 79.8522 714.074 76.566 719.627 78.0539C725.191 79.5446 728.492 85.2632 727.002 90.8267C725.56 96.2071 720.164 99.472 714.778 98.3327C711.49 98.4561 707.403 98.0985 702.997 97.2291C702.994 98.9218 702.741 100.778 702.198 102.807C701.718 104.598 701.011 106.445 700.13 108.276C699.491 106.909 698.431 105.844 697.157 105.503C693.593 104.548 690.327 106.815 689.493 109.928C688.434 113.878 689.949 117.347 693.217 118.468Z" fill="#191847"/>
<path fill-rule="evenodd" clip-rule="evenodd" d="M634.887 246.498L673.09 378.14L691.058 476.978H709.093L691.09 246.498H634.887Z" fill="#BA8B72"/>
<path fill-rule="evenodd" clip-rule="evenodd" d="M617.719 246.498C620.385 314.885 619.333 352.185 618.737 358.399C618.14 364.612 614.753 406.224 591.674 479.064H610.431C640.997 409.187 651.666 367.574 655.172 358.399C658.678 349.223 669.031 311.923 684.147 246.498H617.719Z" fill="#D4A181"/>
<path fill-rule="evenodd" clip-rule="evenodd" d="M634.067 246.498C644.004 291.796 661.191 364.104 685.627 463.42H712.005C713.954 361.481 705.666 294.388 691.313 246.498H634.067Z" fill="#6980AC"/>
<path fill-rule="evenodd" clip-rule="evenodd" d="M617.586 246.498C620.196 314.885 613.431 382.259 592.473 464.485H620.617C651.239 395.651 673.186 328.609 688.185 246.498H617.586Z" fill="#89A4CC"/>
<path fill-rule="evenodd" clip-rule="evenodd" d="M589 492.621L590.035 475.935C596.095 477.707 603.685 477.012 612.805 473.849C622.611 480.796 634.956 485.539 649.84 488.079C650.975 488.273 651.739 489.35 651.545 490.486C651.532 490.559 651.516 490.632 651.495 490.704L650.065 495.75H612.805H591.07L589 492.621Z" fill="#191847"/>
<path fill-rule="evenodd" clip-rule="evenodd" d="M687.032 492.621L688.067 475.935C694.127 477.707 701.717 477.012 710.837 473.849C720.643 480.796 732.988 485.539 747.872 488.079C749.007 488.273 749.771 489.35 749.577 490.486C749.564 490.559 749.548 490.632 749.528 490.704L748.097 495.75H710.837H689.102L687.032 492.621Z" fill="#191847"/>
<path fill-rule="evenodd" clip-rule="evenodd" d="M709.508 187.87L748.599 174.631C755.769 168.637 762.574 164.2 769.014 161.319C770.902 160.895 774.055 160.993 770.28 165.589C766.504 170.186 762.74 175.19 763.928 177.021C765.116 178.851 769.155 177.299 770.442 180.219C771.3 182.166 764.575 183.817 750.266 185.171L720.181 204.321L709.508 187.87ZM762.436 214.189L779.612 208.347C783.283 200.374 786.651 196.631 789.716 197.117C792.256 196.439 786.305 206.283 790.917 206.151C795.528 206.02 807.814 199.857 809.396 201.827C811.737 204.742 807.955 211.757 804.392 214.95C797.734 220.919 792.816 222.494 781.143 223.634C775.041 224.23 768.178 226.372 760.557 230.06L762.436 214.189Z" fill="#D4A181"/>
<path fill-rule="evenodd" clip-rule="evenodd" d="M692.914 180.459C705.423 182.529 722.539 182.828 742.294 174.683L746.528 191.473C732.129 201.474 713.135 208.429 698.143 205.349C686.328 202.922 682.792 187.49 692.914 180.459Z" fill="#2026A2"/>
<path fill-rule="evenodd" clip-rule="evenodd" d="M705.327 208.377C718 214.021 740.917 214.042 774.077 208.44C778.994 225.817 780.559 237.863 778.772 244.578C749.539 253.841 725.498 256.03 706.524 253.108C705.148 264.43 701.901 274.86 695.596 283.803C682.633 302.187 630.703 273.888 611.498 274.269C606.53 234.47 631.71 223.092 635.987 198.942C640.671 172.494 669.089 135.524 672.214 136.075L700.711 141.1C698.722 161.579 702.71 185.237 705.327 208.377Z" fill="#1F28CF"/>
<path d="M756 199.302L756 41.6984C756 33.9176 764.495 29.1176 771.16 33.1326L901.971 111.934C908.424 115.822 908.424 125.178 901.971 129.066L771.16 207.867C764.495 211.882 756 207.082 756 199.302Z" fill="url(#paint1_linear)"/>
<circle cx="794.432" cy="120.5" r="19.3" fill="white"/>
<circle cx="844.612" cy="120.5" r="19.3" fill="white"/>
<path fill-rule="evenodd" clip-rule="evenodd" d="M226.581 130.49C221.973 125.081 218.854 118.453 219.376 111.025C220.877 89.625 250.667 94.3328 256.462 105.134C262.257 115.935 261.568 143.333 254.079 145.263C251.092 146.033 244.73 144.147 238.254 140.244L242.319 169H218.319L226.581 130.49Z" fill="#915B3C"/>
<path fill-rule="evenodd" clip-rule="evenodd" d="M246.982 93.37C243.703 92.37 238.942 92.0308 236.94 92.2603C238.079 89.5308 238.531 86.4899 238.162 83.5291C237.804 80.6521 236.519 78.2024 235.33 75.6354C234.782 74.4522 234.16 73.2754 233.234 72.3704C232.291 71.4483 231.097 70.8397 229.845 70.5494C228.564 70.2522 227.224 70.2769 225.94 70.5466C225.373 70.6659 224.863 70.9255 224.307 71.0698C223.736 71.2176 223.46 70.8608 223.046 70.5021C222.049 69.638 220.587 69.2114 219.325 69.0587C217.909 68.8875 216.44 69.101 215.09 69.5664C213.776 70.0194 212.514 70.7551 211.563 71.8268C211.14 72.3039 210.756 72.8469 210.507 73.4464C210.405 73.6924 210.388 73.8381 210.142 73.9283C209.915 74.0117 209.649 74.0141 209.415 74.0935C207.149 74.8609 205.212 76.6117 204.157 78.8595C203.542 80.1709 203.25 82.4798 203.33 85.0677C203.41 87.6556 205.747 94.4081 207.932 96.8711C209.883 99.0695 212.75 100.52 215.518 101.155C213.681 103.255 212.458 105.878 211.554 108.547C210.572 111.445 209.964 114.457 209.74 117.525C209.527 120.44 209.507 123.524 210.19 126.377C210.83 129.045 212.197 131.234 214.48 132.622C215.525 133.258 216.65 133.736 217.782 134.173C218.897 134.603 220.015 135.022 221.183 135.263C223.394 135.72 225.941 135.642 227.644 133.882C228.257 133.248 228.932 132.451 229.38 131.676C229.541 131.397 229.638 131.215 229.443 130.943C229.208 130.616 228.829 130.366 228.528 130.111C226.812 128.656 225.749 126.713 225.481 124.405C225.21 122.063 225.839 119.039 228.116 118.017C230.927 116.755 234.023 118.204 236.522 119.554C237.583 115.806 239.764 112.431 243.182 110.712C246.964 108.811 251.304 108.588 255.19 106.956C256.203 106.531 257.234 106.048 257.98 105.182C258.291 104.82 258.657 104.35 258.781 103.871C258.945 103.242 258.539 102.715 258.226 102.224C256.564 99.6236 250.262 94.37 246.982 93.37Z" fill="#191847"/>
<path fill-rule="evenodd" clip-rule="evenodd" d="M212.319 252L286.625 376.227L342.334 481.25H354.333L260.992 252L212.319 252Z" fill="#784931"/>
<path fill-rule="evenodd" clip-rule="evenodd" d="M334.997 476.402C333.878 479.388 333.319 481.623 333.319 483.106C333.319 484.909 333.619 487.54 334.22 491C336.312 491 355.113 491 390.622 491C392.088 486.155 391.241 483.539 388.084 483.152C384.926 482.766 382.302 482.417 380.214 482.106L353.999 470.419C353.494 470.194 352.903 470.421 352.678 470.925C352.674 470.934 352.671 470.942 352.667 470.951L350.982 475.039C348.059 476.403 345.683 477.085 343.855 477.085C342.37 477.085 340.32 476.485 337.703 475.286L337.703 475.285C336.699 474.825 335.512 475.266 335.052 476.27C335.032 476.313 335.014 476.357 334.997 476.402Z" fill="#E4E4E4"/>
<path fill-rule="evenodd" clip-rule="evenodd" d="M326.862 464.433L350.002 457.433C339.864 427.125 327.438 393.772 312.724 357.374C298.011 320.977 282.209 285.852 265.319 252H199.963C218.741 294.821 238.648 333.729 259.685 368.725C280.721 403.721 303.114 435.624 326.862 464.433Z" fill="#D17D7B"/>
<path fill-rule="evenodd" clip-rule="evenodd" d="M207.435 252C200.422 295.654 186.896 351.427 185.619 353.149C184.768 354.296 154.131 364.562 93.7087 383.947L96.3006 394.528C168.355 384.132 206.321 376.066 210.2 370.331C216.018 361.728 245.067 293.763 256.319 252H207.435Z" fill="#915B3C"/>
<path fill-rule="evenodd" clip-rule="evenodd" d="M114.948 374.8L119.514 391.842C173.406 396.569 206.427 393.153 218.577 381.596C230.726 370.039 244.573 326.84 260.118 252H197.797C187.948 313.284 182.442 345.212 181.279 347.785C180.116 350.357 158.005 359.363 114.948 374.8Z" fill="#F49E97"/>
<path fill-rule="evenodd" clip-rule="evenodd" d="M96.6677 379.539C93.5323 378.956 91.2345 378.793 89.7744 379.05C87.9985 379.364 85.4592 380.116 82.1565 381.309C82.5198 383.369 85.7844 401.884 91.9506 436.854C96.977 437.456 99.4062 436.168 99.2384 432.991C99.0705 429.814 98.9585 427.17 98.9024 425.059L105.859 397.213C105.993 396.677 105.668 396.134 105.132 396.001C105.123 395.998 105.113 395.996 105.104 395.994L100.786 395.044C98.9351 392.402 97.851 390.181 97.5336 388.381C97.2758 386.919 97.5103 384.795 98.2372 382.01L98.2372 382.01C98.5161 380.942 97.8758 379.849 96.8071 379.57C96.761 379.558 96.7145 379.548 96.6677 379.539Z" fill="#E4E4E4"/>
<path fill-rule="evenodd" clip-rule="evenodd" d="M262.957 189.7L297.667 170.69C303.439 163.835 309.126 158.512 314.728 154.72C316.44 154.005 319.433 153.573 316.634 158.541C313.834 163.51 311.113 168.863 312.539 170.394C313.965 171.924 317.522 169.786 319.223 172.329C320.358 174.025 314.282 176.704 300.995 180.365L275.775 203.458L262.957 189.7ZM317.319 205.74L332.565 197.364C334.705 189.224 337.262 185.128 340.237 185.077C342.523 184.014 338.542 194.3 342.875 193.408C347.208 192.516 357.783 184.651 359.605 186.248C362.301 188.61 359.897 195.864 357.065 199.473C351.772 206.218 347.389 208.524 336.557 211.544C330.894 213.123 324.77 216.289 318.187 221.04L317.319 205.74Z" fill="#915B3C"/>
<path fill-rule="evenodd" clip-rule="evenodd" d="M246.053 185.465C258.21 185.337 274.423 182.769 291.721 171.789L298.515 186.939C286.583 198.78 269.805 208.51 255.135 208.098C243.574 207.773 237.665 193.789 246.053 185.465Z" fill="#A22020"/>
<path fill-rule="evenodd" clip-rule="evenodd" d="M262.423 209.761C275.33 212.98 296.974 209.184 327.355 198.373C334.89 213.964 338.374 225.078 337.805 231.717C311.743 245.331 289.405 251.401 271.002 251.802C271.587 262.721 270.258 273.112 265.793 282.606C256.613 302.124 202.864 284.048 184.792 287.606C173.474 250.851 195.357 235.914 195.374 212.397C195.394 186.642 216.073 147 219.116 147H246.863C248.393 166.669 256.099 188.346 262.423 209.761Z" fill="#CF1F1F"/>
<path d="M351 187C395.183 187 431 151.183 431 107C431 62.8172 395.183 27 351 27C306.817 27 271 62.8172 271 107C271 151.183 306.817 187 351 187Z" fill="url(#paint2_linear)"/>
<circle cx="333.067" cy="124.778" r="17.7778" fill="white"/>
<circle cx="368.623" cy="89.2221" r="17.7778" fill="white"/>
<path fill-rule="evenodd" clip-rule="evenodd" d="M1164.7 636.47C1160.09 631.062 1156.97 624.433 1157.49 617.006C1158.99 595.605 1188.78 600.313 1194.58 611.114C1200.37 621.915 1199.69 649.313 1192.2 651.244C1189.21 652.014 1182.85 650.128 1176.37 646.225L1180.44 674.98H1156.44L1164.7 636.47Z" fill="#B28B67"/>
<path fill-rule="evenodd" clip-rule="evenodd" d="M1177.57 619.369C1178.49 632.166 1180.92 638.565 1184.86 638.565C1190.77 638.565 1195.79 634.811 1198.39 634.811C1200.28 634.811 1199.85 637.178 1198.6 638.933C1197.57 640.38 1192.53 641.776 1192.53 644.02C1192.53 646.265 1196.51 644.528 1196.51 645.859C1196.51 648.061 1197.21 652.201 1193.39 652.201C1189.52 652.201 1178.43 650.792 1176.53 645.052C1175.3 641.347 1174.51 633.671 1174.15 622.022C1173.92 621.994 1173.68 621.98 1173.44 621.98C1170.12 621.98 1167.44 624.666 1167.44 627.98C1167.44 629.662 1168.13 631.183 1169.24 632.272C1167.86 634.232 1166.3 636.279 1164.52 638.391C1157.82 634.373 1152.85 622.609 1159.4 611.308C1161.21 605.772 1165.3 602.815 1170.14 601.442C1174.06 599.803 1178.13 599.618 1181.57 600.601C1188.3 601.178 1194.31 603.232 1196.02 604.451C1196.02 610.826 1194.78 612.718 1184.23 612.551C1181.64 613.92 1179.65 616.278 1177.57 619.369Z" fill="#191847"/>
<path fill-rule="evenodd" clip-rule="evenodd" d="M1148.44 757.98L1184.69 885.207L1211.14 978.98H1230.44L1202.33 757.98H1148.44Z" fill="#983698"/>
<path fill-rule="evenodd" clip-rule="evenodd" d="M1138.74 757.98C1137.9 823.554 1135.04 859.32 1134.16 865.278C1133.28 871.236 1119.97 909.136 1094.22 978.98H1114.21C1146.99 911.977 1165.28 874.076 1169.1 865.278C1172.92 856.48 1184.69 820.714 1202.44 757.98H1138.74Z" fill="#B96CB9"/>
<path fill-rule="evenodd" clip-rule="evenodd" d="M1092.44 996.98L1093.44 975.98H1114.44C1124.39 982.98 1137.39 988.647 1153.44 992.98V996.98H1115.44L1102.44 994.98V996.98H1092.44Z" fill="#191847"/>
<path fill-rule="evenodd" clip-rule="evenodd" d="M1208.44 996.98L1209.44 975.98H1230.44C1240.39 982.98 1253.39 988.647 1269.44 992.98V996.98H1231.44L1218.44 994.98V996.98H1208.44Z" fill="#191847"/>
<path fill-rule="evenodd" clip-rule="evenodd" d="M1232.79 741.59L1262.98 767.182C1271.45 770.114 1278.46 773.516 1284 777.387C1285.29 778.729 1286.76 781.368 1281.12 780.535C1275.48 779.703 1269.51 779.08 1268.59 780.96C1267.67 782.84 1270.94 785.394 1269.18 787.894C1268 789.561 1263.32 784.849 1255.14 773.757L1224.54 758.487L1232.79 741.59ZM1096.1 730.516L1113.81 733.088C1094.8 774.338 1084.61 796.153 1083.24 798.534C1080.15 803.89 1083.78 813.221 1085.2 818.16C1078.02 820.233 1080.32 809.142 1071.24 811.908C1062.95 814.433 1056.12 820.157 1047.91 813.35C1046.9 812.514 1046.05 809.777 1049.26 808.183C1057.25 804.211 1068.98 796.943 1070.8 794.264C1073.29 790.611 1081.72 769.362 1096.1 730.516Z" fill="#B28B67"/>
<path fill-rule="evenodd" clip-rule="evenodd" d="M1170.13 658.312L1181.11 654.683C1195.99 691.873 1218.2 727.856 1255.29 758.25L1246.12 774.077C1213.52 754.872 1182.65 739.953 1170.13 711.135C1165.93 701.463 1169.79 669.877 1170.13 658.312Z" fill="#C5CFD6"/>
<path fill-rule="evenodd" clip-rule="evenodd" d="M1132.44 762.98C1163.87 766.313 1188.62 766.313 1206.67 762.98C1208.91 762.567 1209.26 758.822 1208.22 756.281C1192.07 716.704 1181 682.172 1181 654.683C1178.03 656.177 1172.85 656.401 1165.44 655.354C1145.52 683.683 1136.37 716.186 1132.44 762.98Z" fill="#E766E7"/>
<path fill-rule="evenodd" clip-rule="evenodd" d="M1160.49 652.98H1168.78C1170.72 664.345 1176.81 818.243 1195.63 868.586H1093.82C1096.03 822.467 1113.44 767.067 1131.08 720.708C1115.48 734.98 1101.89 759.161 1090.3 793.253L1071.23 788.358C1085.41 727.261 1114.56 682.355 1158.68 653.639C1158.78 653.418 1158.87 653.199 1158.97 652.98H1159.7C1159.97 652.807 1160.24 652.634 1160.51 652.461L1160.49 652.98Z" fill="#DDE3E9"/>
<path fill-rule="evenodd" clip-rule="evenodd" d="M291.417 620.035C286.612 614.394 283.359 607.481 283.903 599.735C285.469 577.416 316.537 582.326 322.58 593.591C328.623 604.855 327.905 633.428 320.095 635.442C316.98 636.244 310.344 634.278 303.591 630.207L307.83 660.196H282.8L291.417 620.035Z" fill="#57331F"/>
<path fill-rule="evenodd" clip-rule="evenodd" d="M304.842 602.2C305.8 615.546 308.335 622.219 312.446 622.219C318.612 622.219 323.844 618.304 326.549 618.304C328.522 618.304 328.081 620.773 326.774 622.603C325.695 624.112 320.443 625.568 320.443 627.908C320.443 630.249 324.593 628.438 324.593 629.827C324.593 632.123 325.322 636.44 321.337 636.44C317.303 636.44 305.739 634.97 303.757 628.984C302.478 625.121 301.651 617.115 301.276 604.967C301.031 604.938 300.782 604.923 300.53 604.923C297.074 604.923 294.272 607.724 294.272 611.18C294.272 612.935 294.994 614.52 296.157 615.657C294.709 617.7 293.087 619.835 291.227 622.038C284.242 617.847 279.059 605.579 285.888 593.793C287.776 588.02 292.049 584.936 297.096 583.504C301.184 581.794 305.428 581.601 309.011 582.626C316.033 583.229 322.304 585.37 324.082 586.642C324.082 593.291 322.793 595.263 311.79 595.089C309.086 596.517 307.007 598.976 304.842 602.2Z" fill="#191847"/>
<path fill-rule="evenodd" clip-rule="evenodd" d="M280.793 746.499L331.98 876.054L366.311 985.583H379.868L327.383 746.499L280.793 746.499Z" fill="#3D2216"/>
<path fill-rule="evenodd" clip-rule="evenodd" d="M270.485 746.499C269.94 792.026 261.991 853.32 260.721 856.158C259.874 858.05 230.646 882.109 173.036 928.336L182.374 938.328C250.348 898.694 285.908 876.234 289.053 870.948C293.772 863.019 309.133 790.053 321.466 746.499H270.485Z" fill="#57331F"/>
<path fill-rule="evenodd" clip-rule="evenodd" d="M171.787 925C168.652 926.109 166.491 927.16 165.307 928.154C163.866 929.362 161.965 931.366 159.604 934.166C161.007 935.837 173.61 950.857 197.414 979.225C202.267 977.148 203.79 974.718 201.982 971.937C200.174 969.155 198.694 966.825 197.542 964.948L189.305 936.17C189.147 935.616 188.57 935.296 188.016 935.455C188.006 935.457 187.997 935.46 187.987 935.463L183.592 936.857C180.543 935.436 178.406 933.995 177.18 932.535C176.185 931.349 175.289 929.308 174.494 926.414L174.494 926.414C174.188 925.303 173.04 924.65 171.929 924.956C171.882 924.969 171.834 924.984 171.787 925Z" fill="#E4E4E4"/>
<path fill-rule="evenodd" clip-rule="evenodd" d="M360.76 980.527C359.593 983.641 359.01 985.972 359.01 987.518C359.01 989.399 359.323 992.143 359.95 995.751C362.131 995.751 381.738 995.751 418.771 995.751C420.299 990.698 419.417 987.969 416.124 987.566C412.83 987.164 410.095 986.8 407.916 986.475L380.577 974.287C380.051 974.052 379.434 974.289 379.2 974.815C379.196 974.824 379.192 974.833 379.188 974.842L377.431 979.105C374.382 980.527 371.904 981.239 369.998 981.239C368.45 981.239 366.311 980.613 363.582 979.362L363.582 979.362C362.535 978.882 361.297 979.342 360.817 980.389C360.796 980.434 360.777 980.48 360.76 980.527Z" fill="#E4E4E4"/>
<path fill-rule="evenodd" clip-rule="evenodd" d="M315.208 974.301L379.664 967.306L331.894 746.499H274.164L315.208 974.301Z" fill="#D8C276"/>
<path fill-rule="evenodd" clip-rule="evenodd" d="M186.369 912.215L228.648 962.259C273.179 913.623 299.141 881.887 306.534 867.053C313.926 852.219 320.572 812.034 326.47 746.499H261.476C258.254 804.154 256.082 834.323 254.961 837.006C253.839 839.689 230.975 864.759 186.369 912.215Z" fill="#EAD68E"/>
<path fill-rule="evenodd" clip-rule="evenodd" d="M372.018 733.566L401.561 762.387C410.157 766.053 417.2 770.102 422.69 774.533C423.925 776.022 425.269 778.876 419.46 777.599C413.651 776.322 407.483 775.24 406.391 777.129C405.299 779.018 408.517 781.913 406.499 784.386C405.153 786.034 400.629 780.791 392.926 768.657L362.206 750.544L372.018 733.566ZM227.553 707.483L250.389 707.568C232.996 763.92 223.763 793.425 222.691 796.083C220.277 802.063 225.384 811.172 227.568 816.066C220.455 819.249 221.213 807.462 212.241 811.636C204.051 815.447 197.822 822.35 188.36 816.512C187.196 815.794 185.922 813.092 189.002 810.98C196.675 805.718 207.733 796.509 209.227 793.478C211.264 789.345 217.373 760.68 227.553 707.483Z" fill="#57331F"/>
<path fill-rule="evenodd" clip-rule="evenodd" d="M297.14 642.7L306.158 641.154C320.364 691.371 393.355 725.601 397.836 744.374C399.479 751.258 394.524 754.738 397.084 756.835L385.362 765.416C383.377 763.1 379.141 767.336 370.295 764.373C361.449 761.41 297.14 702.162 297.14 642.7Z" fill="#B49C1E"/>
<path fill-rule="evenodd" clip-rule="evenodd" d="M312.31 649.377C311.27 715.861 349.703 732.82 341.142 759.49C334.073 781.515 266.408 805.19 254.699 783.602C249.96 774.863 247.809 764.293 247.565 752.803C244.573 761.631 242.206 769.231 240.465 775.602C237.461 786.594 225.818 788.342 225.818 792.576L210.477 788.342C211.518 782.589 204.286 779.788 206.225 766.935C214.913 709.349 238.256 667.607 276.255 641.708L276.648 636.087C276.809 633.788 278.803 632.055 281.101 632.216L309.19 634.18C311.489 634.341 313.222 636.334 313.061 638.633L312.31 649.377Z" fill="#E9CC33"/>
<path fill-rule="evenodd" clip-rule="evenodd" d="M719.417 626.761C714.612 621.121 711.359 614.208 711.903 606.462C713.469 584.143 744.537 589.053 750.58 600.317C756.623 611.582 755.905 640.155 748.095 642.168C744.98 642.971 738.344 641.005 731.591 636.934L735.83 666.923H710.8L719.417 626.761Z" fill="#B28B67"/>
<path fill-rule="evenodd" clip-rule="evenodd" d="M739.541 601.951C736.145 603.851 733.727 607.411 730.818 612.081C730.109 611.803 729.337 611.65 728.53 611.65C725.074 611.65 722.272 614.451 722.272 617.907C722.272 619.661 722.994 621.247 724.157 622.383C722.709 624.427 721.087 626.562 719.227 628.765C712.289 624.602 707.128 612.469 713.753 600.756C719.453 577.294 751.753 591.857 757.967 587.9C759.326 596.414 754.945 603.278 739.541 601.951Z" fill="#191847"/>
<path fill-rule="evenodd" clip-rule="evenodd" d="M709.793 757.462L760.98 887.018L795.311 996.546H808.868L756.383 757.462L709.793 757.462Z" fill="#997659"/>
<path fill-rule="evenodd" clip-rule="evenodd" d="M699.485 757.462C698.94 802.989 690.991 864.283 689.721 867.121C688.874 869.013 659.646 893.072 602.036 939.299L611.374 949.291C679.348 909.658 714.908 887.198 718.053 881.912C722.772 873.982 738.133 801.017 750.466 757.462H699.485Z" fill="#B28B67"/>
<path fill-rule="evenodd" clip-rule="evenodd" d="M600.787 935.964C597.652 937.072 595.491 938.123 594.307 939.117C592.866 940.326 590.965 942.33 588.604 945.129C590.007 946.8 602.61 961.82 626.414 990.189C631.267 988.111 632.79 985.682 630.982 982.9C629.174 980.118 627.694 977.789 626.542 975.911L618.305 947.134C618.147 946.58 617.57 946.259 617.016 946.418C617.006 946.421 616.997 946.423 616.987 946.426L612.592 947.82C609.543 946.399 607.406 944.959 606.18 943.498C605.185 942.312 604.289 940.272 603.494 937.377L603.494 937.377C603.188 936.267 602.04 935.614 600.93 935.919C600.882 935.932 600.834 935.947 600.787 935.964Z" fill="#E4E4E4"/>
<path fill-rule="evenodd" clip-rule="evenodd" d="M789.76 991.49C788.593 994.605 788.01 996.935 788.01 998.481C788.01 1000.36 788.323 1003.11 788.95 1006.71C791.131 1006.71 810.738 1006.71 847.771 1006.71C849.299 1001.66 848.417 998.933 845.124 998.53C841.83 998.127 839.095 997.763 836.916 997.438L809.577 985.25C809.051 985.016 808.434 985.252 808.2 985.778C808.196 985.787 808.192 985.796 808.188 985.805L806.431 990.068C803.382 991.491 800.905 992.202 798.998 992.202C797.45 992.202 795.311 991.577 792.582 990.326L792.582 990.326C791.535 989.846 790.297 990.305 789.817 991.352C789.796 991.398 789.777 991.443 789.76 991.49Z" fill="#E4E4E4"/>
<path fill-rule="evenodd" clip-rule="evenodd" d="M744.208 985.265L808.664 978.27L760.894 757.462H703.164L744.208 985.265Z" fill="#69A1AC"/>
<path fill-rule="evenodd" clip-rule="evenodd" d="M615.369 923.179L657.648 973.223C702.179 924.586 728.141 892.851 735.534 878.017C742.926 863.183 749.572 822.998 755.47 757.462H690.476C687.254 815.117 685.082 845.287 683.961 847.97C682.839 850.653 659.975 875.722 615.369 923.179Z" fill="#89C5CC"/>
<path fill-rule="evenodd" clip-rule="evenodd" d="M803.887 744.856L834.537 774.563C843.455 778.342 850.762 782.515 856.458 787.083C857.739 788.618 859.133 791.559 853.106 790.243C847.079 788.927 840.681 787.811 839.548 789.759C838.415 791.706 841.753 794.69 839.659 797.239C838.264 798.938 833.57 793.533 825.579 781.026L793.707 762.356L803.887 744.856ZM654.011 717.969L677.703 718.058C659.659 776.143 650.08 806.556 648.967 809.296C646.464 815.46 651.762 824.849 654.027 829.894C646.648 833.175 647.434 821.025 638.126 825.328C629.63 829.255 623.167 836.371 613.35 830.353C612.144 829.614 610.821 826.828 614.016 824.651C621.977 819.228 633.449 809.736 634.999 806.611C637.113 802.351 643.45 772.803 654.011 717.969Z" fill="#B28B67"/>
<path fill-rule="evenodd" clip-rule="evenodd" d="M726.205 651.194L735.561 649.6C750.299 701.362 826.023 736.645 830.672 755.996C832.377 763.092 827.237 766.679 829.892 768.84L817.731 777.685C815.672 775.298 811.277 779.665 802.1 776.61C792.923 773.556 726.205 712.485 726.205 651.194Z" fill="#69CFB7"/>
<path fill-rule="evenodd" clip-rule="evenodd" d="M741.943 658.075C740.864 726.605 780.736 744.086 771.855 771.577C764.521 794.279 694.322 818.684 682.175 796.43C677.258 787.423 675.027 776.528 674.774 764.684C671.669 773.783 669.213 781.617 667.407 788.185C664.291 799.515 652.211 801.316 652.211 805.681L636.296 801.316C637.376 795.387 629.873 792.499 631.885 779.251C640.898 719.893 665.116 676.867 704.538 650.171L704.955 644.248C705.12 641.952 707.112 640.22 709.409 640.376L738.862 642.422C741.161 642.578 742.895 644.571 742.735 646.869C742.735 646.871 742.735 646.872 742.731 646.873L741.943 658.075Z" fill="#79E1CF"/>
<path d="M286.087 1323.5L286.087 1231C286.087 1224.37 280.714 1219 274.087 1219L113.161 1219C106.534 1219 101.161 1224.37 101.161 1231L101.161 1323.5C101.161 1330.13 106.534 1335.5 113.161 1335.5L274.087 1335.5C280.714 1335.5 286.087 1330.13 286.087 1323.5Z" fill="url(#paint3_linear)"/>
<path fill-rule="evenodd" clip-rule="evenodd" d="M101 1315.45H247.092C259.404 1315.45 269.386 1305.47 269.386 1293.16C269.386 1280.84 259.404 1270.86 247.092 1270.86H139.372C135.088 1270.86 131.616 1267.39 131.616 1263.11C131.616 1258.82 135.088 1255.35 139.372 1255.35H285.926V1240.35H139.372C126.804 1240.35 116.616 1250.54 116.616 1263.11C116.616 1275.67 126.804 1285.86 139.372 1285.86H247.092C251.12 1285.86 254.386 1289.13 254.386 1293.16C254.386 1297.18 251.12 1300.45 247.092 1300.45H101L101 1315.45Z" fill="white"/>
<path fill-rule="evenodd" clip-rule="evenodd" d="M398.392 1141.51C403.219 1135.85 406.486 1128.9 405.941 1121.12C404.367 1098.7 373.159 1103.63 367.088 1114.95C361.017 1126.27 361.739 1154.97 369.584 1156.99C372.713 1157.8 379.379 1155.82 386.163 1151.73L381.905 1181.86H407.048L398.392 1141.51Z" fill="#915B3C"/>
<path fill-rule="evenodd" clip-rule="evenodd" d="M400.324 1146.56C403.48 1132.52 412.47 1122.95 411.097 1116.68C410.181 1112.49 407.742 1109.89 403.778 1108.87C401.728 1100.58 395.116 1097.05 383.942 1098.29C367.181 1100.15 356.951 1107.11 361.369 1122.42C365.43 1122.42 370.332 1120.96 377.111 1123.47C379.262 1124.27 380.801 1126.75 381.727 1130.9H384.79C387.763 1125.97 390.695 1124.16 393.585 1125.47C396.475 1126.77 397.132 1129.95 395.556 1134.99L397.065 1146.56H400.324Z" fill="#191847"/>
<path fill-rule="evenodd" clip-rule="evenodd" d="M477.238 1312.81H356.762C347.505 1312.81 340 1320.31 340 1329.57V1425.95C340 1435.21 347.505 1442.71 356.762 1442.71H477.238C486.495 1442.71 494 1435.21 494 1425.95V1329.57C494 1320.31 486.495 1312.81 477.238 1312.81ZM460.476 1342.14C462.791 1342.14 464.667 1344.02 464.667 1346.33V1409.19C464.667 1411.5 462.791 1413.38 460.476 1413.38H373.524C371.209 1413.38 369.333 1411.5 369.333 1409.19V1346.33C369.333 1344.02 371.209 1342.14 373.524 1342.14H460.476Z" fill="#C5CFD6"/>
<path fill-rule="evenodd" clip-rule="evenodd" d="M236.119 1437.48C256.774 1412.25 270.749 1393.56 278.046 1381.38C290.539 1360.53 300.763 1341.98 303.99 1334.9C311.685 1318 286.276 1310.09 280.526 1317.97C271.822 1329.9 253.234 1367.44 224.762 1430.58L236.119 1437.48Z" fill="#B28B67"/>
<path fill-rule="evenodd" clip-rule="evenodd" d="M278.444 1430.14L316.884 1333.38C325.106 1315.74 285.403 1304.15 279.36 1312.36C265.643 1330.99 233.039 1404.51 228.952 1410.06L278.444 1430.14Z" fill="#A2A2A2"/>
<path fill-rule="evenodd" clip-rule="evenodd" d="M380.823 1410.74C373.335 1399.82 346.099 1363.07 331.264 1347.86C327.001 1343.49 322.841 1339.3 318.907 1335.39C307.214 1323.78 283.928 1343.3 295.6 1353.88C324.668 1380.23 367.08 1415.8 370.623 1418.97C375.59 1423.41 385.528 1417.6 380.823 1410.74Z" fill="#915B3C"/>
<path fill-rule="evenodd" clip-rule="evenodd" d="M379.071 1405.8C381.651 1407.93 383.329 1409.66 384.105 1411.01C385.05 1412.64 386.156 1415.19 387.423 1418.64C385.525 1419.74 368.468 1429.59 336.251 1448.19C332.384 1444.56 331.781 1441.74 334.444 1439.74C337.106 1437.73 339.303 1436.04 341.035 1434.66L358.698 1410.33C359.038 1409.86 359.693 1409.76 360.161 1410.1C360.169 1410.1 360.177 1410.11 360.185 1410.11L363.855 1412.94C367.221 1412.65 369.734 1412.02 371.392 1411.06C372.739 1410.29 374.286 1408.67 376.031 1406.21L376.031 1406.21C376.701 1405.27 378.009 1405.04 378.953 1405.71C378.993 1405.74 379.033 1405.77 379.071 1405.8Z" fill="#E4E4E4"/>
<path fill-rule="evenodd" clip-rule="evenodd" d="M245.004 1433.71C246.176 1436.84 246.762 1439.18 246.762 1440.73C246.762 1442.62 246.447 1445.38 245.818 1449C243.626 1449 223.93 1449 186.73 1449C185.195 1443.92 186.081 1441.18 189.389 1440.78C192.697 1440.37 195.446 1440.01 197.634 1439.68L225.097 1427.44C225.626 1427.2 226.245 1427.44 226.481 1427.97C226.485 1427.98 226.488 1427.99 226.492 1428L228.258 1432.28C231.32 1433.71 233.809 1434.42 235.723 1434.42C237.279 1434.42 239.428 1433.79 242.169 1432.54L242.169 1432.54C243.221 1432.06 244.464 1432.52 244.946 1433.57C244.967 1433.61 244.986 1433.66 245.004 1433.71Z" fill="#E4E4E4"/>
<path fill-rule="evenodd" clip-rule="evenodd" d="M330.716 1338.21C362.665 1333.01 384.065 1329.45 394.916 1327.54C425.845 1322.08 434.864 1305.44 429.531 1269.13H372.545C365.004 1271.3 333.494 1284.77 278.015 1309.53C268.033 1314.49 269.892 1329.1 271.717 1333.91C271.791 1334.11 288.618 1362.94 322.199 1420.41L368.816 1390.72L330.628 1341.71C329.62 1339.68 329.649 1338.52 330.716 1338.21Z" fill="#B8B8B8"/>
<path fill-rule="evenodd" clip-rule="evenodd" d="M326.61 1255.41L293.193 1279.95C284.129 1282.4 276.557 1285.44 270.476 1289.08C269.04 1290.39 267.304 1293.04 273.261 1292.58C279.218 1292.12 285.505 1291.91 286.327 1293.94C287.149 1295.97 283.544 1298.4 285.206 1301.14C286.313 1302.97 291.547 1298.39 300.906 1287.4L333.997 1273.67L326.61 1255.41ZM454.916 1256.26L433.023 1256.35C446.541 1299.98 453.838 1323.14 454.916 1325.81C457.34 1331.81 452.21 1340.96 450.016 1345.88C457.161 1349.08 456.4 1337.24 465.413 1341.43C473.639 1345.26 479.897 1352.19 489.402 1346.33C490.571 1345.61 491.851 1342.89 488.757 1340.77C481.049 1335.49 469.941 1326.23 468.44 1323.19C466.394 1319.04 461.885 1296.73 454.916 1256.26Z" fill="#915B3C"/>
<path fill-rule="evenodd" clip-rule="evenodd" d="M392.7 1164.4L383.642 1162.84C350.03 1191.88 336.225 1247.66 295.026 1277.21L304.942 1289.5C376.415 1280.65 394.13 1212.61 392.7 1164.4Z" fill="#6B6B6B"/>
<path fill-rule="evenodd" clip-rule="evenodd" d="M432.19 1278.24C395.868 1278.24 369.149 1278.24 352.036 1278.24C348.373 1278.24 349.063 1272.95 349.593 1270.28C355.703 1239.48 379.557 1206.28 379.557 1162.44L402.677 1158.81C421.801 1189.57 428.414 1227.43 432.19 1278.24Z" fill="#DDE3E9"/>
<path fill-rule="evenodd" clip-rule="evenodd" d="M431.546 1189.04C434.904 1188.08 437.563 1185.83 439.524 1182.29C447.974 1167.04 444.922 1158.64 435.892 1155.89C426.861 1153.13 418.807 1158.81 404.418 1158.81C403.635 1158.81 402.919 1158.86 402.268 1158.96L395.03 1159.37C374.263 1229.75 368.536 1276.71 377.848 1300.24H440.936C444.674 1308.95 448.251 1316.29 451.667 1322.24H468.857C470.475 1269.93 458.038 1225.53 431.546 1189.04Z" fill="#8C8C8C"/>
<path fill-rule="evenodd" clip-rule="evenodd" d="M427.198 1264.09C425.214 1280.69 421.989 1292.74 417.524 1300.24H440.936C436.576 1290.07 431.997 1278.02 427.198 1264.09Z" fill="black" fill-opacity="0.1"/>
<path d="M488.41 775H346.698C338.918 775 334.118 766.505 338.133 759.84L408.988 642.219C412.876 635.766 422.233 635.766 426.12 642.219L496.976 759.84C500.991 766.505 496.191 775 488.41 775Z" fill="url(#paint4_linear)"/>
<circle cx="417.4" cy="721.868" r="17.7108" fill="white"/>
<path d="M1192.49 680.515L1273.51 599.485C1278.2 594.799 1285.8 594.799 1290.49 599.485L1371.51 680.515C1376.2 685.201 1376.2 692.799 1371.51 697.485L1290.49 778.515C1285.8 783.201 1278.2 783.201 1273.51 778.515L1192.49 697.485C1187.8 692.799 1187.8 685.201 1192.49 680.515Z" fill="url(#paint5_linear)"/>
<circle cx="1281.83" cy="689" r="19.6" fill="white"/>
<path d="M902 590H801C794.373 590 789 595.373 789 602V776.413C789 783.04 794.373 788.413 801 788.413H902C908.627 788.413 914 783.04 914 776.413V602C914 595.373 908.627 590 902 590Z" fill="url(#paint6_linear)"/>
<circle cx="852.319" cy="748.73" r="19.8413" fill="white"/>
<path fill-rule="evenodd" clip-rule="evenodd" d="M949.991 836.127C955.379 848.929 964.537 857.824 969.388 871.135C972.264 879.029 973.463 887.612 973.536 896.402C973.575 901.177 973.492 905.955 973.47 910.73C973.448 915.386 973.321 920.012 972.926 924.639C972.529 929.29 972.084 933.886 971.888 938.565C971.735 942.212 971.666 946.453 970.43 949.779C969.447 952.424 966.949 952.811 966.286 949.603C965.918 947.82 965.964 945.829 966.005 943.996C966.057 941.645 966.194 939.297 966.263 936.946C966.544 927.511 966.18 918.075 966.37 908.637C966.556 899.416 967.741 890.205 966.429 881.045C965.347 873.481 962.595 866.986 959.433 860.759C956.391 854.768 953.08 848.923 951.024 842.108C950.434 840.151 949.978 838.123 949.759 836.018C949.855 835.974 949.932 836.01 949.991 836.127Z" fill="#C1DEE2"/>
<path fill-rule="evenodd" clip-rule="evenodd" d="M948.523 861.383C949.59 862.154 950.186 863.281 950.907 864.393C951.804 865.775 952.858 867.023 953.754 868.406C955.624 871.29 957.266 874.351 958.97 877.352C962.205 883.048 964.661 889.119 965.878 895.709C967.139 902.538 967.479 909.587 968.008 916.518C968.569 923.864 969.133 931.264 969.208 938.638C969.241 941.942 969.42 945.449 969.023 948.73C968.776 950.772 967.854 952.513 965.776 952.496C961.363 952.461 959.291 947.573 958.425 943.563C957.15 937.66 956.896 931.389 957.098 925.351C957.342 918.071 958.605 910.9 959.152 903.648C959.731 895.971 959.404 888.43 956.765 881.201C955.431 877.548 953.884 873.983 952.494 870.354C951.902 868.809 951.417 867.222 950.618 865.784C949.729 864.183 948.625 862.731 947.929 861.007C948.127 861.133 948.325 861.258 948.523 861.383Z" fill="#89C5CC"/>
<path fill-rule="evenodd" clip-rule="evenodd" d="M999.367 846.075C999.502 845.969 999.638 845.864 999.773 845.759C999.383 847.401 998.679 848.735 998.141 850.236C997.657 851.586 997.412 853.113 997.086 854.589C996.321 858.054 995.437 861.44 994.714 864.935C993.283 871.85 993.554 879.299 994.492 886.971C995.378 894.217 996.78 901.453 997.448 908.698C998.001 914.707 998.239 920.903 997.711 926.636C997.352 930.529 996.176 935.178 992.971 934.785C991.462 934.6 990.675 932.784 990.358 930.734C989.849 927.441 989.742 923.98 989.544 920.705C989.101 913.397 989.012 906.112 988.925 898.879C988.842 892.055 988.614 885.095 989.07 878.443C989.51 872.024 990.885 866.24 992.852 860.903C993.888 858.091 994.875 855.214 996.039 852.534C996.597 851.249 997.279 850.113 997.837 848.829C998.286 847.795 998.644 846.735 999.367 846.075Z" fill="#C1DEE2"/>
<path fill-rule="evenodd" clip-rule="evenodd" d="M949.886 882.539C950.47 881.559 951.755 884.79 951.95 885.197C951.867 884.994 951.784 884.793 951.701 884.591C952.859 886.517 953.919 888.523 954.578 890.731C955.23 892.918 955.79 895.149 956.402 897.351C957.55 901.482 959.031 905.497 960.071 909.666C961.084 913.728 961.34 917.722 961.095 921.924C960.84 926.291 960.684 930.725 960.981 935.09C961.123 937.175 961.801 939.117 962.265 941.124C962.73 943.133 963.096 945.169 963.645 947.153C963.771 946.894 963.787 947.758 963.787 947.824C963.784 948.319 963.715 948.735 963.555 949.205C963.145 950.414 962.379 951.441 961.212 951.774C959.104 952.376 957.146 950.459 956.467 948.434C955.491 945.528 954.954 942.317 954.489 939.263C954.063 936.463 953.962 933.646 954.089 930.807C954.338 925.209 955.351 919.683 955.625 914.087C955.924 907.993 954.716 902.268 953.706 896.337C953.219 893.479 952.753 890.648 951.806 887.925C951.422 886.823 950.922 885.85 950.398 884.832C950.099 884.252 949.496 883.219 949.886 882.539Z" fill="#C1DEE2"/>
<path fill-rule="evenodd" clip-rule="evenodd" d="M966.991 873.021C966.749 880.001 966.332 886.929 965.401 893.836C964.451 900.884 963.361 907.909 962.447 914.964C961.557 921.831 960.624 928.812 960.749 935.775C960.84 940.904 959.99 949.58 965.686 952.112C971.455 954.675 972.693 943.728 973.072 940.114C973.798 933.182 973.563 926.176 973.21 919.206C972.849 912.052 972.245 904.934 971.496 897.806C970.665 889.889 970.013 881.936 969.49 873.996C969.231 870.069 969.167 866.148 969.238 862.22C969.306 858.513 969.165 854.768 967.847 851.248C967.778 851.298 967.71 851.348 967.641 851.398" fill="#69A1AC"/>
<path fill-rule="evenodd" clip-rule="evenodd" d="M996.774 895.136C995.736 896.647 994.69 898.144 993.711 899.745C991.957 902.61 990.372 905.795 989.895 909.891C988.897 918.463 989.698 927.721 989.891 936.555C989.931 938.36 989.702 940.111 990.414 941.829C991.059 943.387 992.265 944.574 993.415 944.567C995.876 944.553 995.501 938.526 995.505 935.873C995.512 931.224 994.991 926.527 995.036 921.882C995.08 917.28 995.36 912.665 996.027 908.294C996.703 903.87 997.692 899.621 998.998 895.657C999.179 895.107 1000.48 890.856 999.251 891.588" fill="#89C5CC"/>
<path fill-rule="evenodd" clip-rule="evenodd" d="M985.905 849.418C984.286 849.418 984.296 857.485 984.248 858.522C984.072 862.261 984.113 866.001 984.002 869.741C983.759 877.903 983.46 886.136 982.234 894.203C981.574 898.546 980.808 902.87 979.985 907.18C979.16 911.502 978.052 915.82 977.509 920.197C976.987 924.405 977.282 928.695 977.353 932.924C977.425 937.178 977.553 941.441 978.111 945.658C978.248 946.699 978.409 947.736 978.582 948.771C978.726 949.633 978.642 950.702 978.885 951.521C979.275 952.833 980.946 953.263 982.072 953.058C985.117 952.502 987.062 948.678 988.102 945.885C989.43 942.317 990.135 938.448 990.831 934.689C991.619 930.43 992.081 926.106 992.297 921.77C992.738 912.958 992.173 904.136 991.541 895.352C991.19 890.467 990.785 885.603 990.164 880.749C989.546 875.914 988.753 871.102 988.237 866.253C987.862 862.73 987.492 859.202 987.249 855.665C987.191 854.822 987.142 849.418 985.905 849.418Z" fill="#69A1AC"/>
<path fill-rule="evenodd" clip-rule="evenodd" d="M983.879 908.056C983.615 899.587 980.21 862.385 979.436 852.143C979.242 849.58 977.377 838.906 977.135 836C976.48 836.821 976.536 849.607 976.543 852.545C976.55 855.451 976.19 858.309 976.005 861.2C975.816 864.149 971.455 902.239 970.89 905.073C969.764 910.711 969.011 916.496 968.429 922.261C967.863 927.879 966.983 933.807 967.741 939.455C967.915 940.755 968.19 942.035 968.639 943.229C969.124 944.52 969.456 945.713 969.845 947.064C970.471 949.239 971.603 951.148 973.344 952.046C976.911 953.888 978.827 949.719 979.798 946.09C981.349 940.295 982.345 934.405 982.811 928.318C983.328 921.584 984.09 914.837 983.879 908.056Z" fill="#89C5CC"/>
<path d="M1000.38 932.979H947.319C946.645 932.979 946.099 933.525 946.099 934.199V987.262C946.099 987.936 946.645 988.482 947.319 988.482H1000.38C1001.06 988.482 1001.6 987.936 1001.6 987.262V934.199C1001.6 933.525 1001.06 932.979 1000.38 932.979Z" fill="white"/>
<path d="M944.879 939.078H941.22C940.546 939.078 940 939.624 940 940.298V1006.78C940 1007.45 940.546 1008 941.22 1008H944.879C945.553 1008 946.099 1007.45 946.099 1006.78V940.298C946.099 939.624 945.553 939.078 944.879 939.078Z" fill="#C5CFD6"/>
<path d="M975.376 939.078H971.716C971.043 939.078 970.496 939.624 970.496 940.298V1006.78C970.496 1007.45 971.043 1008 971.716 1008H975.376C976.05 1008 976.596 1007.45 976.596 1006.78V940.298C976.596 939.624 976.05 939.078 975.376 939.078Z" fill="#C5CFD6"/>
<path d="M1006.48 939.078H1002.82C1002.15 939.078 1001.6 939.624 1001.6 940.298V1006.78C1001.6 1007.45 1002.15 1008 1002.82 1008H1006.48C1007.16 1008 1007.7 1007.45 1007.7 1006.78V940.298C1007.7 939.624 1007.16 939.078 1006.48 939.078Z" fill="#C5CFD6"/>
<path d="M564.5 647C585.211 647 602 630.211 602 609.5C602 588.789 585.211 572 564.5 572C543.789 572 527 588.789 527 609.5C527 630.211 543.789 647 564.5 647Z" fill="#F2F2F2"/>
<path d="M564.5 581.906C565.672 581.906 566.623 580.955 566.623 579.783C566.623 578.611 565.672 577.66 564.5 577.66C563.328 577.66 562.377 578.611 562.377 579.783C562.377 580.955 563.328 581.906 564.5 581.906Z" fill="black" fill-opacity="0.1"/>
<path d="M534.783 611.623C535.955 611.623 536.906 610.672 536.906 609.5C536.906 608.328 535.955 607.377 534.783 607.377C533.611 607.377 532.66 608.328 532.66 609.5C532.66 610.672 533.611 611.623 534.783 611.623Z" fill="black" fill-opacity="0.1"/>
<path d="M594.217 611.623C595.389 611.623 596.34 610.672 596.34 609.5C596.34 608.328 595.389 607.377 594.217 607.377C593.045 607.377 592.094 608.328 592.094 609.5C592.094 610.672 593.045 611.623 594.217 611.623Z" fill="black" fill-opacity="0.1"/>
<path d="M564.5 641.34C565.672 641.34 566.623 640.389 566.623 639.217C566.623 638.045 565.672 637.094 564.5 637.094C563.328 637.094 562.377 638.045 562.377 639.217C562.377 640.389 563.328 641.34 564.5 641.34Z" fill="black" fill-opacity="0.1"/>
<path fill-rule="evenodd" clip-rule="evenodd" d="M564.5 584.028L565.915 608.792H563.085L564.5 584.028Z" fill="#AFB9C5"/>
<path fill-rule="evenodd" clip-rule="evenodd" d="M577.023 622.022L564.014 611.016L566.016 609.014L577.023 622.022Z" fill="#AFB9C5"/>
<path d="M564.5 612.33C566.063 612.33 567.33 611.063 567.33 609.5C567.33 607.937 566.063 606.67 564.5 606.67C562.937 606.67 561.67 607.937 561.67 609.5C561.67 611.063 562.937 612.33 564.5 612.33Z" fill="#C5CFD6"/>
<path opacity="0.2" fill-rule="evenodd" clip-rule="evenodd" d="M1024.13 1187.96C1025.87 1187.1 1028.19 1188.1 1027.22 1190.38C1026.19 1192.82 1022.36 1192.85 1020.19 1192.81C1020.41 1192.79 1021.11 1190.56 1021.35 1190.22C1022.05 1189.22 1023.06 1188.5 1024.13 1187.96ZM1004.11 1232.45C1003.49 1232.98 1004.06 1232.5 1004.11 1232.45V1232.45ZM1026.15 1199.3C1027.19 1200.09 1027.24 1201.48 1026.39 1202.42C1025.38 1203.54 1023.53 1203.5 1022.15 1203.39C1021.53 1203.34 1018.2 1203.08 1018.99 1202.54C1018.93 1202.56 1018.8 1202.62 1018.66 1202.69C1018.59 1202.96 1018.51 1203.22 1018.43 1203.48C1018.45 1203.5 1018.47 1203.51 1018.49 1203.52C1018.47 1203.51 1018.45 1203.5 1018.43 1203.49C1017.63 1206.11 1016.49 1208.61 1014.99 1210.94C1015.55 1210.73 1016.13 1210.56 1016.72 1210.49C1018.46 1210.27 1022.11 1211.6 1020.17 1213.9C1018.3 1216.09 1015.4 1213.74 1013.28 1213.42C1011.23 1216.25 1008.97 1218.97 1006.59 1221.6C1006.74 1221.65 1006.87 1221.74 1006.94 1221.89C1007.89 1221.41 1008.88 1220.72 1009.76 1220.54C1011.03 1220.27 1013.64 1220.11 1014.6 1221.23C1015.78 1222.62 1014.51 1223.74 1013.12 1224.01C1011.09 1224.4 1008.45 1223.42 1006.5 1222.76C1006.28 1222.8 1006.03 1222.73 1005.89 1222.56C1005.85 1222.54 1005.8 1222.53 1005.76 1222.51C1003.36 1225.13 1000.86 1227.66 998.384 1230.13C998.411 1230.13 998.437 1230.13 998.465 1230.13C999.111 1229.71 999.805 1229.37 1000.56 1229.18C1002.3 1228.76 1004.34 1228.76 1005.75 1230.01C1007.16 1231.25 1007.65 1233.41 1006.2 1234.81C1003.29 1237.6 999.002 1231.24 997.534 1230.98C995.014 1233.47 992.35 1235.79 989.645 1238.07C989.952 1237.98 990.267 1237.91 990.592 1237.88C993.245 1237.62 999.468 1240.84 996.212 1244.01C993.374 1246.77 990.094 1241.46 987.809 1239.6C985.259 1241.73 982.696 1243.84 980.204 1246.03C981.562 1245.67 982.875 1245.62 984.331 1246.05C985.838 1246.5 988.268 1247.63 987.315 1249.64C986.345 1251.69 983.426 1250.76 981.906 1250.11C981.076 1249.76 979.414 1248.56 977.954 1248.06C973.978 1251.77 970.534 1255.87 967.925 1260.69C966.296 1263.7 965.06 1266.92 964.189 1270.23C963.634 1272.34 962.539 1275.88 962.756 1278.63C961.716 1273.13 963.605 1266.53 965.639 1261.61C967.509 1257.09 970.307 1253.13 973.583 1249.55C972.763 1247.11 965.848 1243.58 969.984 1241.3C972.18 1240.1 974.428 1242.1 974.907 1244.21C975.235 1245.66 974.732 1247.48 974.199 1248.89C975.229 1247.81 976.3 1246.75 977.404 1245.73C978.93 1244.32 980.492 1242.96 982.069 1241.61C979.473 1239.19 977.018 1232.28 980.501 1231.15C985.645 1229.49 983.164 1238.91 982.804 1240.68C982.702 1240.68 982.623 1240.65 982.565 1240.59C982.593 1240.75 982.627 1240.92 982.667 1241.1C985.686 1238.53 988.749 1236.01 991.711 1233.37C991.444 1233.18 991.021 1232.43 990.688 1232.04C989.936 1231.14 989.217 1230.21 988.691 1229.16C987.861 1227.5 987.061 1224.86 989.264 1223.89C991.66 1222.83 992.797 1225.81 992.812 1227.59C992.823 1228.83 992.484 1230 992.307 1231.2C992.251 1231.58 992.463 1233.28 991.945 1232.55C991.97 1232.82 991.973 1233.01 991.961 1233.15C992.493 1232.68 993.02 1232.2 993.545 1231.71C993.52 1231.65 993.502 1231.58 993.498 1231.51C993.471 1230.98 994.01 1230.77 994.389 1230.93C995.08 1230.28 995.766 1229.62 996.439 1228.94C997.865 1227.52 999.312 1226.05 1000.75 1224.56C1000.44 1224.29 1000.56 1223.93 1000.27 1223.64C999.98 1223.36 999.407 1223.21 999.065 1222.95C998.204 1222.29 997.491 1221.34 996.976 1220.39C996.125 1218.84 995.025 1215.58 997.515 1214.84C1000.08 1214.07 1001.38 1217.21 1001.54 1219.17C1001.58 1219.55 1001.29 1222.98 1001.07 1224.22C1003.73 1221.44 1006.34 1218.56 1008.71 1215.62C1007.99 1215.62 1005.96 1214.16 1005.55 1213.76C1004.54 1212.79 1002.95 1210.65 1004.71 1209.52C1006.27 1208.51 1008.2 1209.97 1008.87 1211.38C1008.98 1211.61 1009.37 1213.78 1009.4 1214.76C1010.38 1213.51 1011.31 1212.26 1012.19 1211C1012.77 1210.17 1013.31 1209.31 1013.82 1208.44C1013.69 1208.37 1013.58 1208.25 1013.47 1208.1C1010.86 1207.66 1007.53 1203.63 1010.6 1202.22C1012.06 1201.56 1013.64 1202.93 1014.36 1204.06C1014.51 1204.29 1014.74 1205.45 1014.93 1206.37C1016.4 1203.47 1017.51 1200.4 1018.36 1197.25C1018.13 1197.19 1017.94 1197.02 1017.92 1196.72C1016.65 1196.01 1015.65 1195.41 1014.77 1194.04C1014.22 1193.18 1013.23 1191.23 1014.84 1190.76C1016.94 1190.14 1018.26 1193.32 1018.43 1194.88C1018.45 1195.06 1018.45 1195.59 1018.45 1196.08C1018.52 1196.07 1018.59 1196.07 1018.67 1196.08C1019.15 1194.13 1019.54 1192.16 1019.84 1190.18C1018.7 1189.82 1018.5 1183.85 1019.27 1183C1020.97 1181.1 1022.18 1183.84 1022.08 1185.3C1021.98 1187.01 1021.19 1188.57 1020.26 1189.95C1020.16 1190.1 1020.19 1190.09 1020.16 1189.89C1020.15 1189.99 1020.11 1190.06 1020.06 1190.11C1020.11 1191.02 1020.2 1191.94 1020.16 1192.74C1020.03 1195.02 1019.76 1197.32 1019.37 1199.57C1019.27 1200.12 1019.16 1200.67 1019.04 1201.21C1019.96 1200.43 1021.21 1199.74 1021.69 1199.52C1022.95 1198.96 1024.9 1198.35 1026.15 1199.3ZM962.55 1278.41C962.611 1279.14 962.792 1279.81 963.148 1280.36C962.886 1279.73 962.69 1279.08 962.55 1278.41Z" fill="#C1DEE2"/>
<g opacity="0.5">
<path opacity="0.5" fill-rule="evenodd" clip-rule="evenodd" d="M1008.28 1262.76C1010.37 1259.8 1014.23 1252.26 1017.16 1251.2C1019.05 1250.51 1018.5 1257.58 1018.52 1258.93C1018.61 1264.14 1018.1 1269.32 1017.48 1274.49C1016.35 1283.81 1012.65 1292.11 1007.59 1300.05C1004.98 1304.13 1001.93 1308.26 997.695 1310.81C995.747 1311.99 993.402 1312.18 991.478 1313.19C989.236 1314.37 990.457 1313.42 989.447 1315.75C988.044 1319 987.596 1323.18 986.947 1326.64C983.967 1342.52 976.753 1426.48 978.003 1442.64C978.114 1444.07 976.118 1444.41 976.018 1442.66C975.488 1433.39 980.073 1369.21 982.386 1348.21C984.699 1327.22 987.039 1308.68 989.386 1301.42C992.233 1292.61 997.375 1282.01 1001.66 1273.79C1003.64 1269.98 1005.81 1266.29 1008.28 1262.76Z" fill="#69A1AC"/>
<path opacity="0.5" fill-rule="evenodd" clip-rule="evenodd" d="M1023.74 1365.72C1029.15 1361.74 1035.02 1369.24 1030.11 1373.22C1027.4 1375.42 1024.57 1374.64 1022.98 1372.81C1021.94 1374.07 1020.97 1375.39 1020.04 1376.5C1017.2 1379.9 1014.52 1383.38 1011.96 1386.93C1006.64 1394.33 1002.08 1402.14 997.306 1409.8C992.599 1417.37 987.93 1424.98 983.663 1432.73C980.049 1439.31 975.232 1447.04 973.994 1454.25C975.872 1438.96 982.996 1424.27 991.48 1410.8C999.894 1397.44 1009.55 1382.84 1022.58 1372.3C1021.25 1370.35 1021.22 1367.56 1023.74 1365.72Z" fill="#C1DEE2"/>
<path opacity="0.5" fill-rule="evenodd" clip-rule="evenodd" d="M920.948 1328.44C923.979 1329.03 928.932 1335.89 931.431 1338.5C934.4 1341.61 937.094 1344.92 939.634 1348.39C945.101 1355.85 949.99 1363.78 954.147 1372.06C960.925 1385.55 966.355 1399.39 970.296 1414.08C972.708 1423.07 974.27 1432.39 975.195 1441.65C975.37 1443.39 977.2 1456.85 974.563 1457.21C972.192 1457.54 972.924 1447 972.81 1445.56C971.517 1429.38 967.643 1413.64 962.254 1398.38C961.08 1395.06 959.989 1390.99 958.112 1388C956.76 1385.85 958.103 1386.6 955.727 1385.79C953.687 1385.08 951.363 1385.26 949.274 1384.4C944.736 1382.54 941.103 1378.93 937.918 1375.29C931.728 1368.23 926.823 1360.59 924.266 1351.54C922.848 1346.52 921.545 1341.48 920.821 1336.3C920.634 1334.97 918.995 1328.06 920.948 1328.44Z" fill="#69A1AC"/>
<path opacity="0.5" fill-rule="evenodd" clip-rule="evenodd" d="M932.91 1214.35C944.328 1234.15 953.711 1255.91 959.769 1277.94C963.44 1291.29 966.007 1304.98 968.558 1318.58C972.507 1339.64 976.242 1360.69 977.305 1382.12C978.374 1403.67 980.488 1428.53 973.43 1449.29C976.955 1428.22 973.599 1405.78 973.005 1384.58C972.721 1374.45 971.898 1364.43 970.818 1354.36C969.771 1344.6 968.059 1334.88 966.465 1325.19C965.689 1320.48 964.874 1315.77 964.043 1311.06C963.796 1309.65 963.691 1305.48 962.8 1304.52C961.903 1303.56 957.328 1303.17 955.891 1302.46C952.998 1301.03 950.278 1299 947.869 1296.86C943.253 1292.75 939.237 1287.39 936.067 1282.1C928.734 1269.86 925.801 1254.92 925.95 1240.74C925.978 1237.99 930.404 1208.36 928.627 1207.95C928.734 1207.82 928.835 1207.69 928.93 1207.56C930.276 1209.81 931.597 1212.08 932.91 1214.35Z" fill="#89C5CC"/>
<path opacity="0.5" fill-rule="evenodd" clip-rule="evenodd" d="M1056.15 1285.77C1056.32 1285.52 1057.47 1283.75 1056.89 1283.86C1058.07 1283.63 1055.28 1285.81 1058.21 1284.47C1056.82 1285.79 1057.62 1287.49 1057.64 1289.26C1057.67 1292.13 1057.19 1294.98 1056.65 1297.79C1055.79 1302.23 1054.52 1306.54 1052.67 1310.67C1048.65 1319.67 1041.81 1328.33 1033.69 1333.96C1029.69 1336.74 1025.76 1337.68 1021.19 1338.96C1018.31 1339.77 1018.08 1341.26 1016.55 1344.06C1013.36 1349.9 1010.22 1355.71 1007.41 1361.74C1004.05 1368.94 1000.79 1376.15 997.715 1383.48C987.354 1408.16 978.921 1433.73 974.492 1460.19C974.384 1444.6 977.991 1428.54 982.542 1413.67C985.857 1402.84 990.172 1392.4 994.775 1382.07C995.89 1379.57 997.58 1376.34 998.054 1373.58C998.386 1371.64 997.372 1369.78 996.907 1367.74C995.098 1359.8 995.227 1350.9 996.816 1342.91C998.569 1334.1 1003.64 1330.02 1012.21 1328.77C1015.34 1328.31 1019.33 1328.48 1022.2 1327.14C1025.34 1325.69 1026.63 1320.9 1028.41 1317.83C1033.19 1309.58 1038.88 1301.67 1045.4 1294.71C1047.21 1292.79 1049.15 1291.01 1051.22 1289.37C1052.52 1288.33 1055.26 1287.05 1056.15 1285.77Z" fill="#89C5CC"/>
<path opacity="0.5" fill-rule="evenodd" clip-rule="evenodd" d="M960.021 1443.35H990.445C991.813 1443.35 992.921 1444.46 992.921 1445.83C992.921 1445.95 992.913 1446.07 992.895 1446.19L990.543 1462.13C989.827 1466.99 985.656 1470.59 980.742 1470.59H969.723C964.81 1470.59 960.639 1466.99 959.922 1462.13L957.571 1446.19C957.371 1444.84 958.306 1443.58 959.66 1443.38C959.779 1443.36 959.9 1443.35 960.021 1443.35Z" fill="#C1DEE2"/>
</g>
<path fill-rule="evenodd" clip-rule="evenodd" d="M663.143 1230.82C665.054 1256.81 788.183 1333.31 788.902 1335.46C789.221 1336.41 776.446 1366.57 750.576 1425.93L761.339 1430.1C801.019 1367.23 819.84 1332.45 817.802 1325.75C814.884 1316.16 783.039 1284.61 722.267 1231.1L663.143 1230.82Z" fill="#B28B67"/>
<path fill-rule="evenodd" clip-rule="evenodd" d="M753.409 1412.52L770.981 1418.9C808.036 1377.25 822.561 1342.89 819.913 1325.38C818.147 1313.7 786.412 1282.21 724.708 1230.88L661.883 1230.88C664.026 1291.06 778.152 1335.69 779.678 1338.25C781.204 1340.82 766.182 1365.93 753.409 1412.52Z" fill="#A84B18"/>
<path fill-rule="evenodd" clip-rule="evenodd" d="M746.588 1423.94C744.391 1426.51 743.024 1428.53 742.486 1430.01C741.832 1431.81 741.177 1434.54 740.522 1438.2C742.605 1438.96 761.332 1445.77 796.702 1458.65C799.919 1454.35 800.024 1451.44 797.019 1449.91C794.014 1448.38 791.527 1447.08 789.559 1446.02L767.684 1424.87C767.263 1424.46 766.592 1424.48 766.185 1424.9C766.179 1424.9 766.172 1424.91 766.165 1424.92L763.005 1428.38C759.598 1428.68 756.985 1428.5 755.164 1427.83C753.685 1427.29 751.86 1425.95 749.688 1423.81L749.688 1423.81C748.855 1422.99 747.513 1423 746.69 1423.83C746.655 1423.87 746.621 1423.9 746.588 1423.94Z" fill="#E4E4E4"/>
<path fill-rule="evenodd" clip-rule="evenodd" d="M677.3 1230.82L622.449 1361.99L568.54 1472.89H581.259L720.414 1230.82H677.3Z" fill="#997659"/>
<path fill-rule="evenodd" clip-rule="evenodd" d="M567.779 1467.87C566.593 1471.04 566 1473.41 566 1474.98C566 1476.89 566.318 1479.68 566.955 1483.35C569.173 1483.35 589.101 1483.35 626.741 1483.35C628.295 1478.21 627.398 1475.44 624.051 1475.03C620.703 1474.62 617.923 1474.25 615.709 1473.92L587.921 1461.53C587.386 1461.29 586.759 1461.53 586.521 1462.07C586.517 1462.08 586.513 1462.09 586.509 1462.09L584.723 1466.43C581.624 1467.87 579.106 1468.6 577.169 1468.6C575.595 1468.6 573.421 1467.96 570.648 1466.69L570.648 1466.69C569.583 1466.2 568.325 1466.67 567.837 1467.73C567.816 1467.78 567.797 1467.83 567.779 1467.87Z" fill="#E4E4E4"/>
<path fill-rule="evenodd" clip-rule="evenodd" d="M573.408 1449.85L601.67 1455.13C623.522 1423.13 714.973 1291.91 725 1230.82H662.083C628.598 1274.98 594.237 1417.32 573.408 1449.85Z" fill="#CC5411"/>
<path fill-rule="evenodd" clip-rule="evenodd" d="M696.923 1103.18C693.559 1096.48 692.036 1088.93 694.46 1081.49C701.443 1060.06 730.886 1072.5 734.101 1084.99C737.316 1097.49 729.644 1125.24 721.451 1125.29C718.183 1125.31 712.118 1121.75 706.45 1116.12L703.322 1146.47L678.638 1140.32L696.923 1103.18Z" fill="#B28B67"/>
<path fill-rule="evenodd" clip-rule="evenodd" d="M735.199 1090.52C735.31 1089.03 735.108 1087.3 734.962 1085.82C734.775 1083.93 734.225 1082.13 733.559 1080.39C732.304 1077.12 730.593 1074.02 728.532 1071.29C724.767 1066.3 719.312 1062.6 713.232 1061.85C710.161 1061.46 706.987 1061.87 704.057 1063.13C701.41 1064.27 698.648 1066.23 695.722 1065.69C692.539 1065.11 690.349 1061.65 688.258 1059.33C685.899 1056.71 683.231 1054.57 680.053 1053.2C674.729 1050.91 669.052 1051.47 664.102 1055.03C658.834 1058.82 654.12 1065.12 655.206 1072.15C655.408 1073.46 655.798 1074.62 656.51 1075.67C657.162 1076.64 658.246 1077.77 658.285 1079.06C658.326 1080.44 656.83 1081.83 656.121 1082.89C655.105 1084.4 654.175 1086.02 653.9 1087.88C653.448 1090.92 654.624 1094.22 656.126 1096.67C657.654 1099.16 659.861 1100.92 662.391 1102.11C664.08 1102.91 665.847 1103.55 667.685 1103.87C668.598 1104.03 669.45 1103.98 670.368 1104C671.26 1104.02 671.676 1104.36 672.278 1105C675.075 1107.96 678.448 1109.68 682.37 1110.32C685.68 1110.86 689.613 1111.01 692.808 1109.47C696.356 1107.76 697.139 1104.37 697.346 1100.59C697.989 1101.13 699.96 1101.86 699.107 1100.13C698.769 1099.44 697.92 1098.98 697.387 1098.49C696.768 1097.93 696.165 1097.24 695.767 1096.47C694.158 1093.35 697.728 1088.7 700.767 1088.54C705.282 1088.31 704.755 1094.43 707.372 1096.7C708.876 1098 710.976 1097.25 712.572 1096.36C714.708 1095.15 716.427 1093.28 717.994 1091.33C719.285 1089.72 720.523 1088.07 721.828 1086.48C722.437 1085.73 724.413 1083.69 723.957 1082.56C727.111 1082.72 730.151 1084.79 732.335 1087.06C733.237 1088 733.869 1088.94 734.144 1090.27C734.203 1090.55 734.281 1091.38 734.608 1091.49C735.215 1091.7 735.171 1090.89 735.199 1090.52Z" fill="#191847"/>
<path fill-rule="evenodd" clip-rule="evenodd" d="M764.246 1221.64L797.622 1246.94C806.748 1249.56 814.355 1252.76 820.443 1256.53C821.873 1257.87 823.583 1260.57 817.564 1260C811.545 1259.44 805.189 1259.11 804.322 1261.14C803.455 1263.17 807.059 1265.68 805.33 1268.41C804.177 1270.23 798.963 1265.53 789.688 1254.3L756.452 1239.9L764.246 1221.64ZM634.429 1220.23L656.575 1220.71C642.133 1264.4 634.344 1287.57 633.207 1290.24C630.649 1296.25 635.678 1305.55 637.811 1310.54C630.526 1313.63 631.505 1301.72 622.313 1305.79C613.923 1309.49 607.47 1316.36 597.958 1310.29C596.788 1309.55 595.54 1306.79 598.708 1304.71C606.599 1299.53 617.999 1290.41 619.57 1287.37C621.714 1283.23 626.667 1260.85 634.429 1220.23Z" fill="#B28B67"/>
<path fill-rule="evenodd" clip-rule="evenodd" d="M698.984 1128.85L708.176 1127.45C741.669 1157.27 754.655 1213.67 795.815 1244.14L785.567 1256.34C713.416 1246.17 696.69 1177.36 698.984 1128.85Z" fill="#E87613"/>
<path fill-rule="evenodd" clip-rule="evenodd" d="M657.033 1242.76C693.779 1243.4 720.809 1243.87 738.123 1244.17C741.828 1244.24 741.223 1238.9 740.734 1236.21C735.093 1205.09 711.545 1171.25 712.315 1127.11L688.989 1123.05C669.102 1153.68 661.746 1191.68 657.033 1242.76Z" fill="#DDE3E9"/>
<path fill-rule="evenodd" clip-rule="evenodd" d="M659.252 1152.98C655.872 1151.95 653.221 1149.63 651.3 1146.04C643.019 1130.54 646.254 1122.14 655.439 1119.52C664.623 1116.9 672.671 1122.77 687.228 1123.02C688.02 1123.04 688.744 1123.1 689.401 1123.21L696.716 1123.75C716.488 1194.97 721.457 1242.34 711.623 1265.87L647.799 1264.75C643.864 1273.46 640.117 1280.78 636.556 1286.71L619.165 1286.41C618.448 1233.72 631.81 1189.24 659.252 1152.98Z" fill="#FF9B21"/>
<path fill-rule="evenodd" clip-rule="evenodd" d="M662.332 1228.61C664.047 1245.35 667.098 1257.54 671.484 1265.16L647.799 1264.75C652.388 1254.59 657.233 1242.55 662.332 1228.61Z" fill="black" fill-opacity="0.1"/>
<path d="M827.5 1081.46C831.213 1079.32 835.787 1079.32 839.5 1081.46L913.67 1124.29C917.382 1126.43 919.67 1130.39 919.67 1134.68V1220.32C919.67 1224.61 917.382 1228.57 913.67 1230.71L839.5 1273.54C835.787 1275.68 831.213 1275.68 827.5 1273.54L753.33 1230.71C749.618 1228.57 747.33 1224.61 747.33 1220.32V1134.68C747.33 1130.39 749.618 1126.43 753.33 1124.29L827.5 1081.46Z" fill="url(#paint7_linear)"/>
<path d="M743.777 1127.75L827.154 1174.07C830.964 1176.19 833.327 1180.2 833.327 1184.56V1257.1V1184.56C833.327 1180.22 835.666 1176.22 839.446 1174.1L921.882 1127.75" stroke="white" stroke-width="15" stroke-linecap="round" stroke-linejoin="round"/>
<circle cx="1309.5" cy="1101.5" r="90.5" fill="url(#paint8_linear)"/>
<path fill-rule="evenodd" clip-rule="evenodd" d="M1227.06 1139.25H1268.61C1276.96 1139.25 1283.74 1132.48 1283.74 1124.12C1283.74 1115.77 1276.96 1109 1268.61 1109C1251.97 1109 1238.49 1095.51 1238.49 1078.87C1238.49 1062.24 1251.97 1048.75 1268.61 1048.75H1282.19C1306.32 1048.75 1325.89 1068.32 1325.89 1092.45V1119.6C1325.89 1130.45 1334.68 1139.25 1345.54 1139.25C1356.39 1139.25 1365.19 1130.45 1365.19 1119.6V1118.05H1359.11C1347.47 1118.05 1338.04 1108.61 1338.04 1096.97C1338.04 1085.34 1347.47 1075.9 1359.11 1075.9C1370.75 1075.9 1380.19 1085.34 1380.19 1096.98V1103.05H1399.82C1399.74 1108.16 1399.23 1113.18 1398.33 1118.05H1380.19V1119.6C1380.19 1138.74 1364.67 1154.25 1345.54 1154.25C1326.4 1154.25 1310.89 1138.74 1310.89 1119.6V1092.45C1310.89 1076.6 1298.04 1063.75 1282.19 1063.75H1268.61C1260.26 1063.75 1253.49 1070.52 1253.49 1078.87C1253.49 1087.23 1260.26 1094 1268.61 1094C1285.25 1094 1298.74 1107.49 1298.74 1124.12C1298.74 1140.76 1285.25 1154.25 1268.61 1154.25H1235.79C1232.42 1149.56 1229.49 1144.55 1227.06 1139.25ZM1365.19 1096.98V1103.05H1359.11C1355.76 1103.05 1353.04 1100.33 1353.04 1096.97C1353.04 1093.62 1355.76 1090.9 1359.11 1090.9C1362.47 1090.9 1365.19 1093.62 1365.19 1096.98Z" fill="white"/>
<path fill-rule="evenodd" clip-rule="evenodd" d="M1142.62 1068.24C1149.74 1080.33 1162.54 1108.98 1158.97 1114.94L1128.62 1123.07C1128.61 1123.02 1128.59 1122.97 1128.57 1122.91C1116.99 1124.68 1105.69 1117.49 1102.59 1105.91L1096.86 1084.53C1093.53 1072.11 1100.9 1059.34 1113.33 1056.01L1115.42 1055.45C1126.56 1052.46 1137.98 1058.09 1142.62 1068.24Z" fill="#191847"/>
<path fill-rule="evenodd" clip-rule="evenodd" d="M1113.31 1098.8C1106.99 1094.48 1101.88 1088.48 1100.36 1080.63C1095.99 1058.02 1128.46 1054.55 1137.53 1064.12C1146.59 1073.7 1153.49 1102.31 1146.19 1106.41C1143.28 1108.04 1136.09 1107.87 1128.23 1105.64L1140.48 1134.32L1115.37 1141.05L1113.31 1098.8Z" fill="#B28B67"/>
<path fill-rule="evenodd" clip-rule="evenodd" d="M1119.09 1093.23C1123.55 1105.24 1126.86 1119.43 1124.3 1123.69L1093.96 1131.82C1084.47 1103.16 1103.83 1110.06 1096.48 1082.64C1097.24 1081.38 1097.94 1080.15 1098.67 1079.05L1098.42 1078.26C1100.81 1066.19 1106.05 1059.07 1114.13 1056.91C1126.25 1053.66 1131.57 1058.22 1136.09 1062.09C1135.88 1071.03 1126.76 1074.79 1119.75 1082.2C1118.54 1081.67 1117.15 1081.53 1115.78 1081.9C1112.6 1082.75 1110.71 1085.99 1111.55 1089.14C1112.4 1092.29 1115.66 1094.15 1118.83 1093.3C1118.92 1093.28 1119.01 1093.25 1119.09 1093.23Z" fill="#191847"/>
<path fill-rule="evenodd" clip-rule="evenodd" d="M1087.94 1334.34C1113.93 1341.58 1136.35 1345.2 1155.2 1345.2C1174.06 1345.2 1191.57 1339.63 1207.74 1328.48C1182.31 1321.05 1161.37 1317.33 1144.91 1317.33C1128.46 1317.33 1109.47 1323 1087.94 1334.34Z" fill="#02AEF2"/>
<path fill-rule="evenodd" clip-rule="evenodd" d="M1177.7 1355.64C1177.45 1355.26 1177.23 1354.86 1177.07 1354.41C1173.59 1345.26 1117.96 1246.55 1112.41 1228.5H1175.05C1179.27 1242.22 1198.24 1328.33 1200.9 1345.51C1209.33 1372.61 1226.67 1460.38 1228.88 1466.46C1231.21 1472.86 1218.11 1479.52 1214.62 1471.66C1209.06 1459.15 1195.82 1424.53 1189.93 1403.39C1184.4 1383.57 1179.9 1365.74 1177.7 1355.64Z" fill="#997659"/>
<path fill-rule="evenodd" clip-rule="evenodd" d="M1126.45 1367.69C1101.01 1374.09 1007.97 1385.67 1001.59 1387.49C995.022 1389.36 989.263 1375.87 997.381 1372.95C1010.3 1368.3 1045.89 1357.56 1067.47 1353.18C1084.83 1349.65 1100.67 1346.78 1111.31 1345.09C1110.4 1315.34 1106.29 1243.92 1108.99 1228.5H1164.41C1161.82 1243.29 1139.94 1351.21 1135.87 1362.01C1134.58 1365.87 1130.73 1367.57 1126.45 1367.69Z" fill="#B28B67"/>
<path fill-rule="evenodd" clip-rule="evenodd" d="M997.888 1369.26C994.492 1368.63 992.003 1368.45 990.421 1368.73C988.498 1369.07 985.747 1369.89 982.17 1371.18C982.563 1373.41 986.099 1393.47 992.779 1431.35C998.223 1432 1000.85 1430.6 1000.67 1427.16C1000.49 1423.72 1000.37 1420.86 1000.31 1418.57L1007.85 1388.41C1007.99 1387.83 1007.64 1387.24 1007.06 1387.09C1007.05 1387.09 1007.04 1387.09 1007.03 1387.09L1002.35 1386.06C1000.34 1383.2 999.17 1380.79 998.826 1378.84C998.547 1377.26 998.801 1374.96 999.588 1371.94L999.589 1371.94C999.891 1370.78 999.197 1369.6 998.039 1369.3C997.989 1369.28 997.939 1369.27 997.888 1369.26Z" fill="#E4E4E4"/>
<path fill-rule="evenodd" clip-rule="evenodd" d="M1210.64 1470.75C1209.43 1473.98 1208.82 1476.4 1208.82 1478.01C1208.82 1479.96 1209.15 1482.81 1209.8 1486.56C1212.06 1486.56 1232.43 1486.56 1270.89 1486.56C1272.48 1481.31 1271.56 1478.48 1268.14 1478.06C1264.72 1477.64 1261.88 1477.26 1259.62 1476.92L1231.22 1464.27C1230.68 1464.02 1230.04 1464.27 1229.79 1464.81C1229.79 1464.82 1229.78 1464.83 1229.78 1464.84L1227.95 1469.27C1224.79 1470.75 1222.21 1471.49 1220.24 1471.49C1218.63 1471.49 1216.41 1470.84 1213.57 1469.54L1213.57 1469.54C1212.48 1469.04 1211.2 1469.52 1210.7 1470.6C1210.68 1470.65 1210.66 1470.7 1210.64 1470.75Z" fill="#E4E4E4"/>
<path fill-rule="evenodd" clip-rule="evenodd" d="M1109.16 1228.5C1133.59 1221.54 1156.7 1221.54 1178.49 1228.5C1186.07 1262.96 1204.5 1276.64 1207.74 1329.48C1170.91 1347.71 1125.41 1316.48 1087.5 1334.25C1076.67 1309.39 1091.83 1249.5 1109.16 1228.5Z" fill="#5BDBD4"/>
<path fill-rule="evenodd" clip-rule="evenodd" d="M1166.95 1157.13L1200.42 1130.42C1205.29 1122.06 1210.36 1115.34 1215.63 1110.26C1217.32 1109.18 1220.43 1108.16 1218.38 1113.96C1216.32 1119.76 1214.42 1125.96 1216.23 1127.31C1218.04 1128.67 1221.43 1125.73 1223.72 1128.11C1225.25 1129.7 1219.27 1133.68 1205.78 1140.07L1183.2 1169.33L1166.95 1157.13ZM1227.94 1163.93L1242.64 1152.17C1243.4 1143.13 1245.36 1138.3 1248.52 1137.69C1250.76 1136.13 1248.44 1147.8 1252.9 1146.04C1257.35 1144.27 1267.16 1133.94 1269.4 1135.29C1272.72 1137.29 1271.51 1145.44 1269.17 1149.81C1264.78 1157.96 1260.54 1161.23 1249.55 1166.48C1243.8 1169.22 1237.87 1173.73 1231.73 1180.01L1227.94 1163.93Z" fill="#997659"/>
<path fill-rule="evenodd" clip-rule="evenodd" d="M1148.12 1155.82C1161.07 1153.39 1177.88 1147.62 1194.28 1132.71L1204.36 1147.51C1193.85 1162.33 1177.77 1175.81 1162.05 1178.13C1149.65 1179.96 1140.73 1166.23 1148.12 1155.82Z" fill="#2026A2"/>
<path fill-rule="evenodd" clip-rule="evenodd" d="M1170.13 1178.53C1184.5 1179.52 1206.88 1171.42 1237.27 1154.23C1248.23 1169.36 1254.02 1180.5 1254.66 1187.66C1229.4 1207.01 1206.71 1217.65 1187.15 1221.54C1189.82 1233.02 1190.35 1244.3 1187.36 1255.22C1181.22 1277.67 1120.5 1268.59 1101.89 1275.76C1082.94 1238.88 1103.48 1218.91 1099.1 1193.94C1094.3 1166.6 1108.94 1120.62 1112.19 1120.05L1141.79 1114.83C1147.1 1135.42 1159.38 1156.99 1170.13 1178.53Z" fill="#02AEF2"/>
<defs>
<linearGradient id="paint0_linear" x1="1113" y1="261" x2="1261" y2="261" gradientUnits="userSpaceOnUse">
<stop stop-color="#5AFF4C"/>
<stop offset="1" stop-color="#4CFF9E"/>
</linearGradient>
<linearGradient id="paint1_linear" x1="916.19" y1="120.5" x2="756" y2="120.5" gradientUnits="userSpaceOnUse">
<stop stop-color="#0085FF"/>
<stop offset="1" stop-color="#4D5EFF"/>
</linearGradient>
<linearGradient id="paint2_linear" x1="271" y1="187" x2="431" y2="187" gradientUnits="userSpaceOnUse">
<stop stop-color="#FF4C4C"/>
<stop offset="1" stop-color="#FFAD4C"/>
</linearGradient>
<linearGradient id="paint3_linear" x1="217.664" y1="1328.11" x2="217.664" y2="1227.32" gradientUnits="userSpaceOnUse">
<stop stop-color="#C4C4C4"/>
<stop offset="1" stop-color="#AAAAAA"/>
</linearGradient>
<linearGradient id="paint4_linear" x1="417.554" y1="628" x2="417.554" y2="775" gradientUnits="userSpaceOnUse">
<stop stop-color="#FFE600"/>
<stop offset="1" stop-color="#FAFF00"/>
</linearGradient>
<linearGradient id="paint5_linear" x1="1282" y1="591" x2="1282" y2="787" gradientUnits="userSpaceOnUse">
<stop stop-color="#FD92FF"/>
<stop offset="1" stop-color="#FF58E4"/>
</linearGradient>
<linearGradient id="paint6_linear" x1="789" y1="690.321" x2="914" y2="690.321" gradientUnits="userSpaceOnUse">
<stop stop-color="#00EBDD"/>
<stop offset="1" stop-color="#00D1FF"/>
</linearGradient>
<linearGradient id="paint7_linear" x1="734" y1="1277" x2="933" y2="1277" gradientUnits="userSpaceOnUse">
<stop stop-color="#FF644C"/>
<stop offset="1" stop-color="#FFAD4C"/>
</linearGradient>
<linearGradient id="paint8_linear" x1="1309.5" y1="1008.29" x2="1309.5" y2="1196.53" gradientUnits="userSpaceOnUse">
<stop stop-color="#02AEF2"/>
<stop offset="1" stop-color="#5BDBD4"/>
</linearGradient>
</defs>
</svg>
