<svg width="250" height="250" viewBox="0 0 250 250" fill="none" xmlns="http://www.w3.org/2000/svg">
<path fill-rule="evenodd" clip-rule="evenodd" d="M186.252 95.6681C188.658 92.8434 190.287 89.3817 190.015 85.5027C189.231 74.3264 173.673 76.7851 170.647 82.4259C167.62 88.0667 167.98 102.375 171.891 103.383C173.451 103.785 176.774 102.801 180.156 100.762L178.033 115.78H190.567L186.252 95.6681Z" fill="#915B3C"/>
<path fill-rule="evenodd" clip-rule="evenodd" d="M187.215 98.1839C188.788 91.1852 193.27 86.4145 192.585 83.2864C192.129 81.201 190.913 79.9042 188.937 79.3959C187.915 75.2615 184.619 73.503 179.048 74.1203C170.693 75.0464 165.593 78.5163 167.796 86.1515C169.82 86.1515 172.264 85.4194 175.643 86.6738C176.716 87.0718 177.483 88.3061 177.944 90.3766H179.471C180.953 87.9194 182.415 87.0165 183.856 87.6678C185.296 88.3191 185.624 89.901 184.838 92.4136L185.59 98.1839H187.215Z" fill="#191847"/>
<path fill-rule="evenodd" clip-rule="evenodd" d="M225.557 181.06H165.499C160.884 181.06 157.143 184.801 157.143 189.416V237.463C157.143 242.078 160.884 245.819 165.499 245.819H225.557C230.172 245.819 233.913 242.078 233.913 237.463V189.416C233.913 184.801 230.172 181.06 225.557 181.06ZM217.201 195.683C218.355 195.683 219.29 196.618 219.29 197.772V229.107C219.29 230.261 218.355 231.196 217.201 231.196H173.855C172.701 231.196 171.766 230.261 171.766 229.107V197.772C171.766 196.618 172.701 195.683 173.855 195.683H217.201Z" fill="#C5CFD6"/>
<path fill-rule="evenodd" clip-rule="evenodd" d="M105.358 243.207C115.654 230.634 122.621 221.313 126.258 215.243C132.486 204.851 137.583 195.604 139.192 192.071C143.028 183.648 130.361 179.704 127.495 183.633C123.156 189.579 113.89 208.292 99.6961 239.77L105.358 243.207Z" fill="#B28B67"/>
<path fill-rule="evenodd" clip-rule="evenodd" d="M126.457 239.552L145.619 191.315C149.718 182.522 129.926 176.742 126.914 180.835C120.075 190.125 103.822 226.775 101.785 229.542L126.457 239.552Z" fill="#A2A2A2"/>
<path fill-rule="evenodd" clip-rule="evenodd" d="M177.493 229.878C173.761 224.433 160.183 206.115 152.788 198.535C150.663 196.357 148.589 194.267 146.628 192.318C140.799 186.528 129.191 196.261 135.009 201.535C149.5 214.669 170.643 232.401 172.409 233.982C174.885 236.197 179.839 233.3 177.493 229.878Z" fill="#915B3C"/>
<path fill-rule="evenodd" clip-rule="evenodd" d="M176.62 227.418C177.906 228.477 178.743 229.342 179.13 230.012C179.601 230.828 180.152 232.096 180.784 233.818C179.838 234.364 171.334 239.274 155.274 248.546C153.346 246.737 153.046 245.333 154.373 244.334C155.701 243.334 156.796 242.492 157.659 241.805L166.464 229.674C166.633 229.441 166.96 229.389 167.193 229.558C167.197 229.561 167.201 229.564 167.205 229.567L169.035 230.976C170.713 230.83 171.966 230.518 172.792 230.04C173.464 229.653 174.235 228.846 175.105 227.62L175.105 227.62C175.439 227.15 176.091 227.039 176.561 227.373C176.582 227.388 176.601 227.403 176.62 227.418Z" fill="#E4E4E4"/>
<path fill-rule="evenodd" clip-rule="evenodd" d="M109.787 241.328C110.371 242.888 110.663 244.055 110.663 244.829C110.663 245.771 110.506 247.145 110.192 248.952C109.1 248.952 99.2814 248.952 80.7368 248.952C79.9714 246.422 80.4133 245.055 82.0624 244.854C83.7116 244.652 85.0816 244.47 86.1724 244.307L99.8631 238.204C100.126 238.086 100.435 238.205 100.553 238.468C100.555 238.473 100.557 238.477 100.559 238.482L101.439 240.616C102.965 241.329 104.206 241.685 105.16 241.685C105.936 241.685 107.007 241.372 108.373 240.745L108.373 240.745C108.898 240.505 109.518 240.735 109.758 241.26C109.768 241.282 109.778 241.305 109.787 241.328Z" fill="#E4E4E4"/>
<path fill-rule="evenodd" clip-rule="evenodd" d="M152.515 193.725C168.442 191.13 179.11 189.356 184.519 188.402C199.937 185.683 204.433 177.386 201.775 159.284H173.367C169.608 160.369 153.9 167.084 126.243 179.427C121.267 181.897 122.194 189.18 123.103 191.579C123.14 191.677 131.529 206.051 148.269 234.702L171.508 219.897L152.471 195.469C151.968 194.457 151.983 193.875 152.515 193.725Z" fill="#B8B8B8"/>
<path fill-rule="evenodd" clip-rule="evenodd" d="M150.468 152.447L133.809 164.68C129.291 165.899 125.516 167.416 122.485 169.231C121.769 169.883 120.903 171.205 123.873 170.976C126.843 170.748 129.977 170.641 130.387 171.654C130.796 172.667 128.999 173.878 129.828 175.245C130.38 176.156 132.989 173.872 137.654 168.391L154.151 161.551L150.468 152.447ZM214.429 152.87L203.516 152.912C210.254 174.666 213.892 186.208 214.429 187.539C215.638 190.534 213.08 195.095 211.987 197.546C215.548 199.14 215.169 193.238 219.662 195.328C223.763 197.236 226.883 200.693 231.621 197.769C232.203 197.41 232.842 196.056 231.299 194.999C227.457 192.364 221.919 187.753 221.171 186.235C220.151 184.165 217.904 173.043 214.429 152.87Z" fill="#915B3C"/>
<path fill-rule="evenodd" clip-rule="evenodd" d="M183.414 107.075L178.898 106.3C162.143 120.775 155.261 148.581 134.723 163.312L139.666 169.439C175.296 165.028 184.127 131.11 183.414 107.075Z" fill="#6B6B6B"/>
<path fill-rule="evenodd" clip-rule="evenodd" d="M203.1 163.826C184.993 163.826 171.674 163.826 163.143 163.826C161.317 163.826 161.661 161.19 161.925 159.859C164.971 144.505 176.862 127.954 176.862 106.098L188.388 104.29C197.921 119.622 201.218 138.5 203.1 163.826Z" fill="#DDE3E9"/>
<path fill-rule="evenodd" clip-rule="evenodd" d="M202.779 119.361C204.453 118.88 205.779 117.758 206.756 115.994C210.969 108.393 209.448 104.208 204.946 102.832C200.444 101.457 196.429 104.29 189.256 104.29C188.866 104.29 188.508 104.315 188.184 104.364L184.576 104.569C174.223 139.654 171.368 163.062 176.01 174.793H207.46C209.324 179.138 211.107 182.794 212.81 185.76H221.379C222.186 159.683 215.986 137.55 202.779 119.361Z" fill="#8C8C8C"/>
<path fill-rule="evenodd" clip-rule="evenodd" d="M200.612 156.775C199.623 165.05 198.015 171.057 195.789 174.793H207.46C205.287 169.725 203.004 163.719 200.612 156.775V156.775Z" fill="black" fill-opacity="0.1"/>
<path fill-rule="evenodd" clip-rule="evenodd" d="M130 142.2V174C130 180.627 124.627 186 118 186L42 186C35.3726 186 30 180.627 30 174L30 173.6C30 173.971 30.0168 174.338 30.0497 174.7H109C115.407 174.7 120.6 169.507 120.6 163.1C120.6 156.694 115.407 151.5 109 151.5H50.75C48.1819 151.5 46.1 149.418 46.1 146.85C46.1 144.282 48.1819 142.2 50.75 142.2H130ZM130 135H50.75C44.2054 135 38.9 140.305 38.9 146.85C38.9 153.395 44.2054 158.7 50.75 158.7H109C111.43 158.7 113.4 160.67 113.4 163.1C113.4 165.53 111.43 167.5 109 167.5H30V135C30 128.373 35.3726 123 42 123L118 123C124.627 123 130 128.373 130 135Z" fill="#C4C4C4"/>
</svg>
