<svg width="150" height="150" viewBox="0 0 150 150" fill="none" xmlns="http://www.w3.org/2000/svg">
<path fill-rule="evenodd" clip-rule="evenodd" d="M125.913 70.8289V102.629C125.913 109.256 120.54 114.629 113.913 114.629L37.9128 114.629C31.2854 114.629 25.9128 109.256 25.9128 102.629L25.9128 102.229C25.9128 102.6 25.9297 102.967 25.9626 103.329H104.913C111.319 103.329 116.513 98.1354 116.513 91.7289C116.513 85.3224 111.319 80.1289 104.913 80.1289H46.6628C44.0947 80.1289 42.0128 78.047 42.0128 75.4789C42.0128 72.9108 44.0947 70.8289 46.6628 70.8289H125.913ZM125.913 63.6289H46.6628C40.1183 63.6289 34.8128 68.9343 34.8128 75.4789C34.8128 82.0235 40.1183 87.3289 46.6628 87.3289H104.913C107.343 87.3289 109.313 89.2989 109.313 91.7289C109.313 94.159 107.343 96.1289 104.913 96.1289H25.9128V63.6289C25.9128 57.0015 31.2854 51.6289 37.9128 51.6289L113.913 51.6289C120.54 51.6289 125.913 57.0015 125.913 63.6289Z" fill="#C4C4C4"/>
<path d="M25.543 63.3312C25.543 67.7632 25.543 72.1952 25.543 76.6272C25.543 78.1711 25.5914 79.7237 25.5363 81.2665C25.4618 83.3544 25.1821 85.4074 25.1821 87.5034C25.1821 91.5365 25.1821 95.5697 25.1821 99.6028C25.1821 101.486 25.1829 103.355 25.6032 105.205C25.8723 106.389 26.5904 107.204 27.2209 108.213C27.8292 109.186 28.435 110.224 29.1796 111.101C30.6453 112.827 33.4617 113.022 35.5368 113.267C36.9502 113.433 38.2561 114.055 39.6212 114.396C40.7136 114.669 41.9927 114.645 43.1107 114.563C48.0243 114.203 52.9675 114.642 57.884 114.256C60.181 114.076 62.4362 113.91 64.7426 114.109C69.0879 114.484 73.5129 115.071 77.8783 115.071C79.7226 115.071 81.5395 114.831 83.3731 114.831C87.1426 114.831 90.9072 114.489 94.6771 114.47C97.8544 114.454 100.975 114.326 104.143 114.082C105.69 113.963 107.263 113.93 108.815 113.995C109.604 114.028 110.353 114.229 111.148 114.229C111.861 114.229 112.575 114.229 113.288 114.229C114.382 114.229 115.476 114.229 116.57 114.229C118.057 114.229 120.294 114.082 121.443 113.026C121.785 112.712 122.147 112.565 122.432 112.184C122.681 111.852 122.897 111.499 123.128 111.154C123.806 110.136 124.484 109.004 124.906 107.852C125.158 107.164 125.263 106.401 125.414 105.686C125.616 104.728 125.964 103.818 126.136 102.852C126.438 101.152 126.335 99.5144 126.383 97.7913C126.438 95.8353 126.617 93.9044 126.617 91.9421C126.617 89.7249 126.617 87.5078 126.617 85.2907C126.617 83.3301 126.376 81.3754 126.376 79.4215C126.376 77.4272 126.376 75.4329 126.376 73.4386C126.376 69.9405 126.433 66.4394 126.249 62.9501C126.189 61.7951 126.278 60.5415 126.076 59.4072C126 58.984 125.619 58.7122 125.354 58.3978C124.715 57.6406 124.15 56.4619 123.342 55.8709C122.703 55.4045 122.019 55.0105 121.376 54.5474C120.254 53.7393 119.071 53.4522 117.78 53.0767C116.62 52.7397 115.53 52.6926 114.371 52.4751C112.979 52.2141 111.689 52.0205 110.266 52.0205C106.024 52.0205 101.83 51.4699 97.5917 51.4189C90.0989 51.3286 82.5969 51.4189 75.1041 51.4189C72.9527 51.4189 70.7722 51.5213 68.6265 51.3587C67.1699 51.2484 65.4284 51.3555 64.0474 50.7905C63.3057 50.4871 62.1196 51.1246 61.4002 51.2718C59.0225 51.7584 56.5235 52.0092 54.1005 52.1141C52.327 52.1909 50.5413 52.1408 48.766 52.1408C45.7638 52.1408 42.7686 51.7891 39.7683 51.9002C38.3686 51.952 36.8773 52.3553 35.4766 52.562C34.4101 52.7193 33.0501 52.5581 32.0406 52.9831C31.3095 53.291 30.6259 53.6088 29.9015 53.9457C29.5186 54.1238 29.197 54.5805 28.8721 54.8549C28.4808 55.1853 28.0574 55.6067 27.7156 55.9913C26.2918 57.5931 25.972 60.0682 25.2422 62.0143C24.5293 63.9153 24.8215 65.8009 24.6072 67.7832C24.3438 70.2192 24.8569 72.7476 24.9414 75.1766C25.0339 77.8357 25.0799 80.5315 25.2756 83.185C25.4022 84.9002 25.5435 86.5983 25.7569 88.3055C25.8957 89.4152 25.8826 90.5913 26.0845 91.6814C26.3215 92.961 26.265 94.5167 26.265 95.8126C26.265 97.7222 26.265 99.6318 26.265 101.541C26.265 102.959 26.5945 104.338 26.626 105.753C26.6383 106.306 26.7463 106.842 26.7463 107.397C26.7463 107.749 26.6775 108.178 26.8065 108.514C27.2097 109.562 26.8925 110.645 27.7691 111.522C28.1108 111.864 28.4949 112.108 28.9255 112.371C29.528 112.739 30.1954 112.963 30.8307 113.267C31.83 113.744 32.7353 114.295 33.7921 114.657C35.2643 115.161 36.297 115.312 37.843 115.312C39.6131 115.312 41.3136 115.312 43.0572 115.613C48.1149 116.485 53.2994 115.236 58.3119 114.71C61.2959 114.397 64.2525 114.596 67.2361 114.463C68.9817 114.386 70.7264 114.043 72.4703 113.895C77.2401 113.49 81.9899 112.785 86.7891 112.785C89.8172 112.785 92.8456 112.93 95.867 112.906C99.8757 112.873 103.935 112.337 107.94 112.785C109.721 112.984 111.47 113.141 113.254 113.26C115.799 113.43 118.403 113.267 120.955 113.267C121.717 113.267 123.338 113.244 123.916 112.665C124.781 111.8 124.876 110.44 125.08 109.323C126.079 103.826 125.895 98.1507 125.895 92.5638C125.895 89.3579 126.015 86.1555 126.015 82.9577C126.015 80.76 126.104 78.5026 125.748 76.3264C125.587 75.3394 125.534 74.1974 125.534 73.1979C125.534 70.6136 125.293 68.0159 125.293 65.4168C125.293 63.3771 125.44 61.2588 125.146 59.2401C124.953 57.9109 125.125 56.3203 123.91 55.51C122.282 54.4251 120.593 53.2528 118.769 52.5285C117.542 52.0412 116.255 52.17 114.972 52.1408C112.195 52.0777 109.394 51.8711 106.616 51.5994C102.559 51.2024 98.5739 51.9948 94.5 51.8467C91.5874 51.7408 88.4131 50.9523 85.5 50.7905C81.7383 50.5815 78.2719 52.0205 74.5 52.0205C72.6388 52.0205 71.3335 51.0642 69.5 51.4111C68.4927 51.6017 67.0115 51.6924 66 51.8467C63.8377 52.1765 61.6863 51.2901 59.5018 51.4657C57.6967 51.6107 55.8699 51.5392 54.0603 51.5392C52.1856 51.5392 50.3664 51.5063 48.5187 51.8467C47.0544 52.1164 45.6262 52.1324 44.1669 52.4751C43.2335 52.6942 42.2928 52.883 41.3592 53.1034C40.7761 53.2411 40.2054 53.164 39.6212 53.2505C38.452 53.4237 37.2543 53.3441 36.0716 53.3441C33.4904 53.3441 30.9626 53.1185 28.4977 54.0059C26.6092 54.6858 25.5566 56.3459 24.7275 58.1037C24.3389 58.9274 24.0205 60.8878 24.4601 61.7669" stroke="black" stroke-opacity="0.3" stroke-linecap="round" stroke-linejoin="round"/>
<path d="M25.6636 92.0892C27.9852 92.0892 30.2621 92.3299 32.5756 92.3299C33.4714 92.3299 34.3952 92.4002 35.283 92.2697C36.2802 92.123 37.2861 91.8626 38.2978 91.8486C40.9061 91.8123 43.5172 91.8486 46.1257 91.8486C48.4293 91.8486 50.8887 91.6443 53.1782 91.902C56.5494 92.2816 59.7863 92.9315 63.192 92.9315C66.0786 92.9315 68.8794 92.5588 71.7218 92.0892C73.0421 91.8711 74.361 91.5401 75.6925 91.394C76.8001 91.2724 77.9611 91.3672 79.075 91.3672C81.5162 91.3672 83.9834 91.3794 86.4083 91.6681C90.4266 92.1464 94.4831 91.8486 98.5144 91.8486C102.482 91.8486 106.261 93.244 110.246 92.39C112.302 91.9496 114.417 91.9988 116.51 91.9689C117.966 91.9481 119.433 91.8486 120.902 91.8486C121.933 91.8486 122.958 91.7282 123.97 91.7282C124.83 91.7282 125.657 91.9689 126.497 91.9689" stroke="black" stroke-opacity="0.3" stroke-linecap="round" stroke-linejoin="round"/>
<path d="M25.6636 75.0026C29.7002 75.0026 33.7252 75.1229 37.763 75.1229C41.5126 75.1229 45.2509 74.8823 49.0069 74.8823C52.1944 74.8823 55.3772 75.1229 58.5461 75.1229C61.6705 75.1229 64.7101 75.2372 67.8179 75.5374C70.245 75.7718 72.6675 75.7246 75.1043 75.7246C77.2057 75.7246 79.3026 75.6042 81.408 75.6042C83.5901 75.6042 85.7494 75.6114 87.9257 75.4572C90.4519 75.2782 92.959 75.0026 95.4929 75.0026C98.8175 75.0026 102.142 75.0026 105.467 75.0026C108.192 75.0026 110.907 74.9728 113.629 74.8756C115.405 74.8122 117.135 74.5213 118.916 74.5213C119.852 74.5213 121.022 74.481 121.931 74.7085C122.421 74.8309 123.118 75.0026 123.609 75.0026" stroke="black" stroke-opacity="0.3" stroke-linecap="round" stroke-linejoin="round"/>
<path d="M123.489 74.8823C124.371 74.8823 125.254 74.8823 126.136 74.8823" stroke="black" stroke-opacity="0.3" stroke-linecap="round" stroke-linejoin="round"/>
<path d="M17.1203 95.5785C19.266 95.9777 21.4342 96.0598 23.6179 96.0598C26.761 96.0598 29.865 96.3004 33.0034 96.3004C37.9158 96.3004 42.9159 96.7499 47.8035 96.2068C49.5817 96.0093 51.3696 95.9802 53.1447 95.8258C55.8647 95.5893 58.6553 96.1142 61.3603 96.3539C65.6027 96.7298 69.8692 96.1801 74.1082 96.1801C78.8423 96.1801 83.556 96.3934 88.2866 96.1734C90.324 96.0787 92.4421 96.2229 94.4633 95.9662C95.0293 95.8943 95.6245 95.9395 96.1947 95.9395C97.2386 95.9395 98.3839 95.8068 99.4101 96.0063C101.568 96.4258 103.862 96.1323 105.948 95.4849C106.632 95.2727 107.264 95.2201 107.9 94.8565C108.462 94.5353 108.638 93.5353 108.929 93.0249C109.452 92.1098 109.489 89.6323 108.448 89.0541C107.781 88.6838 107.001 88.145 106.229 88.0046C105.418 87.8573 104.553 87.7781 103.755 87.6102C101.195 87.0712 98.6113 86.9596 96.0008 86.8013C94.0789 86.6849 92.0965 87.0032 90.1851 86.7679C88.9057 86.6105 87.5977 86.6743 86.3079 86.6743C82.4926 86.6743 78.7445 86.7363 74.9438 87.0621C73.7788 87.1619 72.6231 87.1556 71.4543 87.1556C70.4046 87.1556 69.299 87.258 68.259 87.0955C66.1765 86.7701 63.9868 86.6743 61.8817 86.6743C61.2056 86.6743 60.679 86.8771 60.0233 87.0353C58.6508 87.3666 57.2065 87.276 55.8052 87.276C54.3011 87.276 52.7971 87.276 51.293 87.276C49.7287 87.276 48.1645 87.276 46.6002 87.276C45.227 87.276 43.6756 87.2726 42.3287 86.9685C41.1529 86.703 39.9755 86.0091 38.8994 85.4711C38.1314 85.0871 37.6353 84.4206 37.1546 83.7263C36.6391 82.9817 36.1745 82.067 35.7709 81.2597C35.5936 80.905 35.3655 80.587 35.1693 80.2436C34.9866 79.9239 34.9804 79.4891 34.9286 79.1005C34.6683 77.1483 34.5478 75.187 34.688 73.2245C34.7411 72.481 34.9629 71.2692 35.4166 70.6643C36.0482 69.8221 36.9349 69.0055 37.3084 67.997C37.5568 67.3264 37.9972 66.685 38.6654 66.3927C39.7329 65.9256 40.9543 65.0479 42.1482 65.0156C44.2398 64.9591 46.0177 63.4514 48.1645 63.4514C51.2306 63.4514 54.2474 63.5717 57.3093 63.5717C60.1572 63.5717 62.9811 63.8996 65.8257 63.9327C67.6657 63.9541 69.5072 63.9327 71.3473 63.9327C72.4736 63.9327 73.6337 63.758 74.7566 63.6653C76.1636 63.5491 77.5721 63.5713 78.9814 63.4781C81.7291 63.2964 84.5027 62.9701 87.2571 62.9701C91.3039 62.9701 95.1677 64.5343 99.2029 64.5343C101.57 64.5343 103.933 64.2937 106.309 64.2937C108.639 64.2937 110.958 64.276 113.288 64.1466C116.742 63.9547 120.118 63.6721 123.489 62.9433C124.608 62.7014 125.914 62.8338 127.025 63.0235C128.315 63.2437 127.584 63.2107 128.889 63.2107C129.347 63.2107 129.506 63.3993 129.938 63.6653C130.68 64.1216 131.45 64.5269 132.077 65.1359C132.569 65.6137 133.165 65.9749 133.702 66.3927C134.305 66.8616 132.954 67.7988 132.626 68.2912C132.071 69.1234 131.304 69.8268 130.607 70.5239C129.713 71.4179 130.25 71.0319 129.07 71.0319C126.599 71.0319 124.128 71.0319 121.657 71.0319C119.367 71.0319 117.053 70.9322 114.765 71.0386C112.148 71.1603 109.459 70.9587 106.844 71.179C104.845 71.3473 102.831 71.4038 100.827 71.5065C99.1548 71.5923 97.4611 71.5132 95.7869 71.5132C94.2159 71.5132 92.6825 71.5555 91.1343 71.2458C89.7341 70.9658 88.3295 70.9575 86.9162 70.7913C86.0088 70.6845 85.0858 70.5103 84.1688 70.5573C81.7108 70.6834 79.3154 70.667 76.8623 70.437C75.4418 70.3038 74.0085 70.2332 72.584 70.3701C70.009 70.6177 67.5091 70.7913 64.9166 70.7913C62.5851 70.7913 60.178 70.8206 57.8507 70.9718C55.4381 71.1284 53.0708 71.0964 50.6646 71.4196C49.3192 71.6004 48.0144 71.6336 46.6604 71.6336C46.2607 71.6336 45.7861 71.563 45.397 71.6603C44.9824 71.7639 44.7193 72.0774 44.3408 72.2085C43.8435 72.3806 42.9634 72.8381 42.6896 73.3248C41.9028 74.7236 41.51 76.3807 42.3888 77.8638C43.5429 79.8113 45.2648 80.2271 47.4024 80.7249C49.364 81.1817 51.5216 81.019 53.519 81.019C55.897 81.019 58.1537 80.2015 60.4912 79.9093C62.0174 79.7186 63.459 79.4548 65.0102 79.4548C66.2535 79.4548 67.4969 79.4548 68.7403 79.4548C69.5896 79.4548 70.5758 79.7426 71.4008 79.9294C72.0841 80.0841 72.74 80.0564 73.4397 80.0564C75.2646 80.0564 77.0896 80.0564 78.9145 80.0564C80.725 80.0564 82.5615 80.1456 84.3693 80.2703C86.1255 80.3914 87.9302 80.1096 89.677 80.3037C91.2549 80.4791 92.9183 80.5177 94.5168 80.5377C96.1453 80.5581 97.7628 80.6836 99.3967 80.658C101.546 80.6244 103.783 79.7911 105.948 80.2035C106.753 80.3568 107.593 80.2783 108.394 80.4241C109.361 80.5998 110.172 81.217 110.915 81.7944C111.58 82.3116 112.26 82.9252 112.927 83.4255C113.756 84.0473 114.187 85.0576 114.765 85.8922C115.743 87.3043 116.092 88.9401 116.45 90.5849C116.715 91.8047 116.51 93.1934 116.51 94.4421C116.51 95.204 116.306 96.3119 115.781 96.9021C115.27 97.4766 114.769 98.0527 114.25 98.6134C113.58 99.3377 113.265 100.375 112.272 100.779C111.261 101.191 110.298 101.806 109.297 102.257C108.307 102.702 107.436 102.889 106.349 103.012C103.164 103.371 99.9858 103.4 96.7763 103.4C95.2207 103.4 93.6931 103.313 92.1504 103.166C91.3016 103.085 90.3815 103.397 89.5567 103.547C87.9052 103.847 86.2355 103.977 84.5565 103.854C79.385 103.475 74.1503 103.881 68.9742 103.881C66.172 103.881 63.3755 103.761 60.5581 103.761C58.3378 103.761 56.1046 103.853 53.8867 103.975C52.7023 104.039 51.5259 104.031 50.3437 104.115C49.361 104.185 48.367 104.3 47.3891 104.356C40.7537 104.735 34.1205 103.881 27.4951 103.881C26.147 103.881 24.7989 103.881 23.4508 103.881C22.3048 103.881 21.1744 103.64 20.0349 103.64C19.1718 103.64 18.3071 103.4 17.4211 103.4C16.8916 103.4 17.5441 103.177 17.722 103.039C18.0286 102.8 18.3354 102.548 18.6244 102.317C19.2591 101.809 19.6871 101.189 20.3959 100.753C20.6304 100.608 20.9065 100.38 21.1513 100.271C21.5628 100.088 21.5323 100.022 21.1513 99.7899C20.1634 99.1886 19.5221 98.2209 18.7113 97.4101C18.1532 96.852 17.5568 96.3759 17 95.8191" stroke="black" stroke-opacity="0.3" stroke-linecap="round" stroke-linejoin="round"/>
<path d="M26.166 79.2689C26.9646 78.3432 28.0159 77.9198 28.8508 77.0849C29.2257 76.71 29.5393 76.3082 30.0472 76.1389" stroke="black" stroke-opacity="0.3" stroke-linecap="round" stroke-linejoin="round"/>
<path d="M25.4148 83.7762C27.834 82.5903 30.098 81.1101 31.9877 79.2203C32.6952 78.5129 33.4769 78.0055 34.0535 77.1406" stroke="black" stroke-opacity="0.3" stroke-linecap="round" stroke-linejoin="round"/>
<path d="M25.6653 88.2831C27.2347 87.1659 28.9449 86.0185 30.3602 84.708C31.0589 84.0611 31.7288 83.3041 32.5234 82.7744C33.4915 82.129 34.1249 81.4511 34.93 80.646" stroke="black" stroke-opacity="0.3" stroke-linecap="round" stroke-linejoin="round"/>
<path d="M26.9172 92.2895C27.8471 91.5799 28.8398 90.9219 29.7273 90.1612C30.1374 89.8096 30.3707 89.3136 30.7914 88.9718C31.4162 88.4642 32.3634 87.9101 32.8572 87.2816C33.4739 86.4967 34.3361 85.7277 35.1525 85.1532C35.5835 84.8499 35.8077 84.3181 36.3072 84.1516" stroke="black" stroke-opacity="0.3" stroke-linecap="round" stroke-linejoin="round"/>
<path d="M32.426 92.5398C34.2644 91.22 35.9261 89.6658 37.5314 88.0605C38.008 87.5838 38.8756 85.9043 39.5624 85.9043" stroke="black" stroke-opacity="0.3" stroke-linecap="round" stroke-linejoin="round"/>
<path d="M38.5605 91.7887C39.636 90.9898 41.0098 90.3763 41.8157 89.2569C42.1397 88.8069 42.5825 88.4006 43.0677 88.158" stroke="black" stroke-opacity="0.3" stroke-linecap="round" stroke-linejoin="round"/>
<path d="M43.9443 91.7887C45.0727 91.3426 45.9454 90.4159 47.0465 90.0081C47.4434 89.8611 47.6183 89.6311 47.8951 89.3543C48.5089 88.7404 49.1632 88.2764 49.4531 87.4067" stroke="black" stroke-opacity="0.3" stroke-linecap="round" stroke-linejoin="round"/>
<path d="M49.7034 91.6634C51.4698 90.3512 53.5459 89.3233 55.0869 87.7822" stroke="black" stroke-opacity="0.3" stroke-linecap="round" stroke-linejoin="round"/>
<path d="M54.9617 91.6636C55.8849 91.0042 56.8791 90.4832 57.7856 89.7926C58.2013 89.4758 58.6554 89.1498 59.0863 88.8536C59.5194 88.5558 60.1716 88.1782 60.3452 87.6572" stroke="black" stroke-opacity="0.3" stroke-linecap="round" stroke-linejoin="round"/>
<path d="M60.3452 92.7905C61.117 91.8643 62.1271 91.1945 62.9466 90.3143C63.2604 89.9772 63.5862 89.6747 63.9134 89.3475C64.4708 88.7902 65.3515 88.038 65.6036 87.2817" stroke="black" stroke-opacity="0.3" stroke-linecap="round" stroke-linejoin="round"/>
<path d="M66.355 92.9155C66.9123 91.3902 68.0771 90.4422 69.172 89.3473C69.5236 88.9957 70.155 88.3102 70.6117 88.158" stroke="black" stroke-opacity="0.3" stroke-linecap="round" stroke-linejoin="round"/>
<path d="M72.2393 91.6635C73.7368 90.3396 75.2384 89.1215 76.8716 88.0327" stroke="black" stroke-opacity="0.3" stroke-linecap="round" stroke-linejoin="round"/>
<path d="M79.751 90.9124C80.8122 90.2555 81.8175 89.2424 82.7557 88.4084C82.9958 88.195 83.4787 87.7501 83.7573 87.6572" stroke="black" stroke-opacity="0.3" stroke-linecap="round" stroke-linejoin="round"/>
<path d="M85.2598 91.2879C86.1513 89.9011 87.7117 89.3378 88.8905 88.2831C89.1942 88.0115 89.6671 87.4768 90.0173 87.4067" stroke="black" stroke-opacity="0.3" stroke-linecap="round" stroke-linejoin="round"/>
<path d="M90.6436 92.0393C91.7551 90.7782 93.0846 89.7234 94.2743 88.5337C94.7233 88.0847 95.2438 87.637 95.7767 87.2817" stroke="black" stroke-opacity="0.3" stroke-linecap="round" stroke-linejoin="round"/>
<path d="M97.1538 91.4131C98.207 90.5605 99.3007 89.7114 100.256 88.7561C100.629 88.3828 101.236 87.9297 101.411 87.4067" stroke="black" stroke-opacity="0.3" stroke-linecap="round" stroke-linejoin="round"/>
<path d="M102.788 91.6637C103.484 90.9878 104.357 90.557 105.041 89.9109C105.439 89.5349 106.058 89.0033 106.293 88.5337" stroke="black" stroke-opacity="0.3" stroke-linecap="round" stroke-linejoin="round"/>
<path d="M43.5686 79.0184C44.221 77.7386 45.0118 77.0213 46.17 76.264C46.4413 76.0866 46.7549 75.8884 47.0742 75.8884" stroke="black" stroke-opacity="0.3" stroke-linecap="round" stroke-linejoin="round"/>
<path d="M47.0742 80.2705C48.4907 79.0991 49.8654 77.9215 51.324 76.8275C51.6428 76.5884 52.036 76.4355 52.3326 76.1389" stroke="black" stroke-opacity="0.3" stroke-linecap="round" stroke-linejoin="round"/>
<path d="M52.3325 80.6461C54.4285 79.4174 56.3958 77.8347 58.0917 76.1389" stroke="black" stroke-opacity="0.3" stroke-linecap="round" stroke-linejoin="round"/>
<path d="M57.9666 80.6461C58.8155 79.3121 60.4861 78.64 61.2495 77.2657C61.5007 76.8136 62.1202 76.2985 62.5989 76.1389" stroke="black" stroke-opacity="0.3" stroke-linecap="round" stroke-linejoin="round"/>
<path d="M64.4768 79.7697C64.975 79.3687 65.3858 78.7496 65.8818 78.3925C66.1577 78.1938 66.4252 78.0716 66.6678 77.8291C67.0023 77.4946 67.5449 76.9107 67.9824 76.7649" stroke="black" stroke-opacity="0.3" stroke-linecap="round" stroke-linejoin="round"/>
<path d="M69.6099 80.5209C70.6466 79.2328 72.097 78.1048 72.9902 76.7649" stroke="black" stroke-opacity="0.3" stroke-linecap="round" stroke-linejoin="round"/>
<path d="M74.3677 80.1452C75.4416 79.3696 76.8461 78.7741 77.6785 77.7038C77.9792 77.3173 78.3894 76.8015 78.8748 76.6396" stroke="black" stroke-opacity="0.3" stroke-linecap="round" stroke-linejoin="round"/>
<path d="M80.6274 80.0201C81.6028 79.2168 82.5038 78.3941 83.3818 77.5161C83.6286 77.2693 84.0751 76.9191 84.3834 76.7649" stroke="black" stroke-opacity="0.3" stroke-linecap="round" stroke-linejoin="round"/>
<path d="M86.2615 80.2704C87.1074 79.3988 87.789 78.3673 88.6403 77.516C88.9776 77.1787 89.4523 76.661 89.8922 76.5144" stroke="black" stroke-opacity="0.3" stroke-linecap="round" stroke-linejoin="round"/>
<path d="M92.5215 80.7713C93.3213 79.9714 94.1502 79.2324 94.7751 78.2951C94.9734 77.9976 95.6225 77.6379 95.9575 77.5161C96.6045 77.2808 96.9177 76.3428 97.5294 76.1389" stroke="black" stroke-opacity="0.3" stroke-linecap="round" stroke-linejoin="round"/>
<path d="M97.6545 81.0216C98.6872 80.0193 99.9459 79.1878 100.847 78.0864C101.194 77.6628 101.568 77.3614 101.856 76.89C102.065 76.5471 102.453 76.1116 102.788 75.8884" stroke="black" stroke-opacity="0.3" stroke-linecap="round" stroke-linejoin="round"/>
<path d="M104.04 80.1451C105.151 79.256 106.482 78.4537 107.489 77.4464C108.016 76.9199 108.766 76.373 109.173 75.7632" stroke="black" stroke-opacity="0.3" stroke-linecap="round" stroke-linejoin="round"/>
<path d="M110.049 81.2721C111.015 79.675 112.852 78.2181 114.431 77.2031C115.116 76.7627 115.561 75.9281 116.184 75.5129" stroke="black" stroke-opacity="0.3" stroke-linecap="round" stroke-linejoin="round"/>
<path d="M113.43 84.402C114.18 83.2646 115.232 82.4313 116.254 81.5503C116.652 81.2067 116.902 80.6778 117.241 80.2705C117.889 79.4927 118.678 78.9275 119.432 78.2673C120.177 77.6156 120.99 76.4565 121.943 76.1389" stroke="black" stroke-opacity="0.3" stroke-linecap="round" stroke-linejoin="round"/>
<path d="M115.433 88.0328C116.908 87.059 118.42 86.1606 119.564 84.8055C120.295 83.9398 121.383 83.368 122.006 82.3989C122.439 81.7249 123.082 81.2605 123.633 80.7087C123.999 80.3429 124.504 79.7415 124.948 79.5193" stroke="black" stroke-opacity="0.3" stroke-linecap="round" stroke-linejoin="round"/>
<path d="M118.187 92.1645C119.797 90.5911 121.424 89.1842 122.875 87.4695C123.485 86.7491 124.408 85.4584 125.324 85.1533" stroke="black" stroke-opacity="0.3" stroke-linecap="round" stroke-linejoin="round"/>
<path d="M123.696 91.7887C124.13 91.2326 124.437 90.739 124.823 90.1611" stroke="black" stroke-opacity="0.3" stroke-linecap="round" stroke-linejoin="round"/>
<path d="M65.5121 55C64.491 55.4177 64 55.9206 64 56.9774C64 57.7433 64.498 57.9071 64.8724 58.4895C65.4981 59.4629 66.1239 60.4855 64.9305 61.281" stroke="black" stroke-opacity="0.3" stroke-linecap="round" stroke-linejoin="round"/>
<path d="M86.5368 55C85.1545 55.2304 84.3886 55.7691 84.0942 57.0937C83.9316 57.8255 83.9503 58.0326 84.385 58.6122C84.742 59.0883 85.0078 59.7187 85.3478 60.1437C85.8099 60.7213 84.3909 61.3653 84.0942 61.5137" stroke="black" stroke-opacity="0.3" stroke-linecap="round" stroke-linejoin="round"/>
<path d="M105.273 55C103.944 56.0162 103.563 57.1186 104.575 58.399C105.072 59.0277 105.389 59.6061 105.389 60.4151C105.389 61.0925 105.246 61.478 105.04 62.0952" stroke="black" stroke-opacity="0.3" stroke-linecap="round" stroke-linejoin="round"/>
<path d="M44.7486 54C43.492 55.0367 44.06 56.5647 44.6969 57.8384C45.0085 58.4615 45.2139 59.0476 45.2139 59.7512C45.2139 60.3421 45.0414 60.682 44.8649 61.2116" stroke="black" stroke-opacity="0.3" stroke-linecap="round" stroke-linejoin="round"/>
<path d="M35.6345 51.8455C35.6345 50.636 35.8031 49.4131 35.8031 48.2296C35.8031 47.3792 38.4834 47.7987 38.9694 47.7987C42.985 47.7987 47.0006 47.7987 51.0162 47.7987C55.0193 47.7987 59.0224 47.7987 63.0255 47.7987C65.7702 47.7987 68.515 47.7987 71.2597 47.7987C74.0898 47.7987 76.898 47.4615 79.7187 47.4615C82.3806 47.4615 85.0332 47.2928 87.6999 47.2928C90.3843 47.2928 93.0664 46.9863 95.7467 47.2179C100.91 47.6641 105.948 47.4615 111.1 47.4615C112.618 47.4615 114.135 47.4615 115.653 47.4615C116.294 47.4615 117.206 47.2935 117.826 47.4708C118.103 47.55 117.258 49.9911 117.245 50.328C117.218 51.0647 117.077 51.7729 117.077 52.52" stroke="black" stroke-opacity="0.3" stroke-linecap="round" stroke-linejoin="round"/>
<path d="M73.1489 96.335C73.557 96.8686 77.103 99.6577 76.3951 100.393C75.2892 101.541 73.4922 102.587 72.7837 104.004" stroke="black" stroke-opacity="0.3" stroke-linecap="round" stroke-linejoin="round"/>
<path d="M76.1575 80.4487C75.2545 81.3267 74.3578 82.2281 73.4997 83.0863C73.0781 83.5079 72.815 83.6197 73.3373 83.9181C74.4167 84.5349 75.2726 85.5896 76.1575 86.4746" stroke="black" stroke-opacity="0.3" stroke-linecap="round" stroke-linejoin="round"/>
<path d="M73.5142 63.6494C74.3638 64.771 75.2062 65.9471 76.0706 67.0275C76.5856 67.6713 76.1026 67.574 75.6648 68.255C75.2207 68.9459 74.8038 69.4812 74.2446 70.0404" stroke="black" stroke-opacity="0.3" stroke-linecap="round" stroke-linejoin="round"/>
<path d="M44.904 35C42.7475 36.6848 45.4094 38.6324 46.0304 40.3399C46.8086 42.4801 44.6169 43.597 43.5898 45.1375" stroke="black" stroke-opacity="0.3" stroke-linecap="round" stroke-linejoin="round"/>
<path d="M66.3053 35.9387C64.9672 36.2324 64.8035 36.6609 64.8035 37.8578C64.8035 39.054 66.0771 39.8424 66.7642 40.7259C68.1544 42.5132 66.0911 43.6887 65.3667 45.1376" stroke="black" stroke-opacity="0.3" stroke-linecap="round" stroke-linejoin="round"/>
<path d="M85.2662 36.3142C84.1529 37.2251 83.0134 38.047 83.0134 39.5474C83.0134 40.4402 84.0963 41.1743 84.5153 41.9462C84.9216 42.6945 85.4539 43.3148 85.4539 44.1989C85.4539 45.0794 84.703 45.5039 84.703 46.264" stroke="black" stroke-opacity="0.3" stroke-linecap="round" stroke-linejoin="round"/>
<path d="M104.978 36.502C103.023 38.4573 102.408 40.104 104.039 42.5511C104.684 43.5179 105.162 44.7693 104.602 45.8885" stroke="black" stroke-opacity="0.3" stroke-linecap="round" stroke-linejoin="round"/>
</svg>
