<svg width="272" height="100" viewBox="0 0 272 100" fill="none" xmlns="http://www.w3.org/2000/svg">
<g clip-path="url(#clip0)">
<path fill-rule="evenodd" clip-rule="evenodd" d="M100 37.2L100 69C100 75.6274 94.6274 81 88 81L12 81C5.37258 81 -2.89693e-07 75.6274 0 69L2.22928e-06 30C2.22928e-06 23.3726 5.37258 18 12 18L88 18C94.6274 18 100 23.3726 100 30H20.75C14.2054 30 8.90001 35.3054 8.90001 41.85C8.90001 48.3946 14.2054 53.7 20.75 53.7H79C81.4301 53.7 83.4 55.67 83.4 58.1C83.4 60.5301 81.4301 62.5 79 62.5H4.80724e-06L4.45856e-06 68.6C4.44235e-06 68.9708 0.0168256 69.3377 0.0497466 69.7H79C85.4065 69.7 90.6 64.5065 90.6 58.1C90.6 51.6935 85.4065 46.5 79 46.5H20.75C18.1819 46.5 16.1 44.4181 16.1 41.85C16.1 39.2819 18.1819 37.2 20.75 37.2H100Z" fill="white"/>
<path d="M124.928 73H134.336V31.272H124.928V73ZM143.41 73H152.818V51.56C154.866 49.576 156.338 48.488 158.706 48.488C161.394 48.488 162.61 49.896 162.61 54.504V73H172.018V53.288C172.018 45.352 169.074 40.488 162.162 40.488C157.874 40.488 154.674 42.728 151.986 45.288H151.73L151.09 41.256H143.41V73ZM181.635 73H191.043V48.616H196.739V41.256H191.043V39.336C191.043 36.072 192.387 34.792 194.691 34.792C195.715 34.792 196.867 35.048 197.955 35.432L199.683 28.52C198.275 28.008 195.971 27.368 193.347 27.368C184.771 27.368 181.635 32.872 181.635 39.592V41.32L177.411 41.64V48.616H181.635V73ZM201.848 73H211.256V54.568C212.92 50.28 215.864 48.744 218.232 48.744C219.576 48.744 220.536 48.936 221.688 49.256L223.224 41.128C222.328 40.744 221.24 40.488 219.448 40.488C216.184 40.488 212.728 42.536 210.424 46.824H210.168L209.528 41.256H201.848V73ZM233.535 73.768C237.119 73.768 240.063 72.104 242.751 69.736H243.007L243.647 73H251.327V54.824C251.327 45.096 246.847 40.488 238.719 40.488C233.727 40.488 229.183 42.216 225.151 44.648L228.543 50.856C231.615 49.064 234.239 47.976 236.927 47.976C240.383 47.976 241.727 49.768 241.919 52.584C229.375 53.864 224.063 57.512 224.063 64.168C224.063 69.544 227.711 73.768 233.535 73.768ZM236.735 66.472C234.495 66.472 233.087 65.512 233.087 63.464C233.087 61.032 235.263 59.112 241.919 58.216V63.784C240.255 65.448 238.847 66.472 236.735 66.472Z" fill="white"/>
</g>
<defs>
<clipPath id="clip0">
<rect width="272" height="100" fill="white"/>
</clipPath>
</defs>
</svg>
