<svg width="320" height="160" viewBox="0 0 320 160" fill="none" xmlns="http://www.w3.org/2000/svg">
<rect width="320" height="160" fill="#B7B7B7"/>
<path d="M42.604 85.824C42.856 84.996 43.084 84.108 43.3 83.232H43.348C43.576 84.096 43.804 84.996 44.056 85.824L44.332 86.784H42.328L42.604 85.824ZM39.976 90H41.392L42.004 87.876H44.644L45.256 90H46.72L44.164 82.152H42.532L39.976 90ZM58.2432 90.144C59.2512 90.144 60.0792 89.736 60.7152 89.004L59.9712 88.128C59.5272 88.608 58.9872 88.932 58.2912 88.932C56.9712 88.932 56.1312 87.852 56.1312 86.064C56.1312 84.3 57.0432 83.22 58.3272 83.22C58.9392 83.22 59.4072 83.496 59.8152 83.904L60.5592 83.004C60.0672 82.476 59.2752 82.008 58.2912 82.008C56.3112 82.008 54.7032 83.532 54.7032 86.1C54.7032 88.704 56.2632 90.144 58.2432 90.144ZM64.3173 90.144C65.7933 90.144 67.1253 89.016 67.1253 87.06C67.1253 85.092 65.7933 83.964 64.3173 83.964C62.8533 83.964 61.5213 85.092 61.5213 87.06C61.5213 89.016 62.8533 90.144 64.3173 90.144ZM64.3173 89.016C63.4533 89.016 62.9373 88.236 62.9373 87.06C62.9373 85.872 63.4533 85.092 64.3173 85.092C65.1813 85.092 65.7093 85.872 65.7093 87.06C65.7093 88.236 65.1813 89.016 64.3173 89.016ZM68.4912 90H69.8712V85.884C70.3272 85.392 70.7472 85.152 71.1072 85.152C71.7312 85.152 72.0192 85.512 72.0192 86.484V90H73.3992V85.884C73.8552 85.392 74.2632 85.152 74.6352 85.152C75.2472 85.152 75.5352 85.512 75.5352 86.484V90H76.9272V86.304C76.9272 84.816 76.3512 83.964 75.1032 83.964C74.3592 83.964 73.7712 84.42 73.2072 85.02C72.9312 84.36 72.4392 83.964 71.5752 83.964C70.8432 83.964 70.2672 84.384 69.7752 84.912H69.7272L69.6312 84.108H68.4912V90ZM78.6045 92.328H79.9845V90.48L79.9485 89.496C80.4285 89.904 80.9445 90.144 81.4605 90.144C82.7685 90.144 83.9805 88.98 83.9805 86.964C83.9805 85.14 83.1285 83.964 81.6645 83.964C81.0165 83.964 80.3805 84.312 79.8885 84.732H79.8405L79.7445 84.108H78.6045V92.328ZM81.1725 89.004C80.8245 89.004 80.4165 88.872 79.9845 88.512V85.764C80.4405 85.32 80.8485 85.104 81.2805 85.104C82.1685 85.104 82.5525 85.8 82.5525 86.976C82.5525 88.308 81.9525 89.004 81.1725 89.004ZM86.722 90.144C87.046 90.144 87.286 90.096 87.454 90.024L87.274 88.992C87.166 89.016 87.118 89.016 87.058 89.016C86.914 89.016 86.758 88.896 86.758 88.56V81.528H85.378V88.488C85.378 89.508 85.738 90.144 86.722 90.144ZM91.1558 90.144C91.8998 90.144 92.6078 89.88 93.1718 89.508L92.7038 88.644C92.2718 88.92 91.8398 89.076 91.3358 89.076C90.3878 89.076 89.7158 88.476 89.5958 87.432H93.3398C93.3758 87.288 93.3998 87.024 93.3998 86.76C93.3998 85.116 92.5598 83.964 90.9638 83.964C89.5838 83.964 88.2518 85.14 88.2518 87.06C88.2518 89.004 89.5238 90.144 91.1558 90.144ZM89.5838 86.496C89.7038 85.548 90.3038 85.032 90.9998 85.032C91.8038 85.032 92.1998 85.584 92.1998 86.496H89.5838ZM96.6766 90.144C97.1446 90.144 97.5526 90.036 97.8766 89.928L97.6366 88.908C97.4686 88.98 97.2286 89.04 97.0246 89.04C96.4606 89.04 96.1966 88.704 96.1966 88.008V85.2H97.6966V84.108H96.1966V82.5H95.0446L94.8766 84.108L93.9646 84.168V85.2H94.8046V88.008C94.8046 89.28 95.3086 90.144 96.6766 90.144ZM101.269 90.144C102.013 90.144 102.721 89.88 103.285 89.508L102.817 88.644C102.385 88.92 101.953 89.076 101.449 89.076C100.501 89.076 99.829 88.476 99.709 87.432H103.453C103.489 87.288 103.513 87.024 103.513 86.76C103.513 85.116 102.673 83.964 101.077 83.964C99.697 83.964 98.365 85.14 98.365 87.06C98.365 89.004 99.637 90.144 101.269 90.144ZM99.697 86.496C99.817 85.548 100.417 85.032 101.113 85.032C101.917 85.032 102.313 85.584 102.313 86.496H99.697ZM112.375 90H113.767V87.708L114.895 86.304L117.019 90H118.555L115.735 85.212L118.147 82.152H116.599L113.803 85.716H113.767V82.152H112.375V90ZM121.026 90.144C121.83 90.144 122.406 89.748 122.922 89.136H122.958L123.066 90H124.194V84.108H122.814V88.14C122.37 88.716 122.022 88.956 121.506 88.956C120.87 88.956 120.594 88.596 120.594 87.624V84.108H119.214V87.804C119.214 89.292 119.766 90.144 121.026 90.144ZM128.798 90.144C130.106 90.144 131.318 88.98 131.318 86.952C131.318 85.14 130.466 83.964 128.99 83.964C128.39 83.964 127.778 84.264 127.286 84.696L127.322 83.712V81.528H125.942V90H127.034L127.154 89.376H127.19C127.682 89.868 128.258 90.144 128.798 90.144ZM128.51 89.004C128.162 89.004 127.742 88.872 127.322 88.512V85.764C127.778 85.32 128.186 85.104 128.618 85.104C129.506 85.104 129.89 85.8 129.89 86.976C129.89 88.308 129.29 89.004 128.51 89.004ZM135.224 90.144C135.968 90.144 136.676 89.88 137.24 89.508L136.772 88.644C136.34 88.92 135.908 89.076 135.404 89.076C134.456 89.076 133.784 88.476 133.664 87.432H137.408C137.444 87.288 137.468 87.024 137.468 86.76C137.468 85.116 136.628 83.964 135.032 83.964C133.652 83.964 132.32 85.14 132.32 87.06C132.32 89.004 133.592 90.144 135.224 90.144ZM133.652 86.496C133.772 85.548 134.372 85.032 135.068 85.032C135.872 85.032 136.268 85.584 136.268 86.496H133.652ZM138.786 90H140.166V86.4C140.526 85.512 141.09 85.188 141.558 85.188C141.81 85.188 141.966 85.224 142.17 85.284L142.41 84.084C142.23 84 142.038 83.964 141.738 83.964C141.114 83.964 140.49 84.384 140.07 85.152H140.022L139.926 84.108H138.786V90ZM143.263 90H144.643V85.884C145.135 85.404 145.471 85.152 145.987 85.152C146.635 85.152 146.911 85.512 146.911 86.484V90H148.291V86.304C148.291 84.816 147.739 83.964 146.479 83.964C145.675 83.964 145.075 84.384 144.547 84.9H144.499L144.403 84.108H143.263V90ZM152.498 90.144C153.242 90.144 153.95 89.88 154.514 89.508L154.046 88.644C153.614 88.92 153.182 89.076 152.678 89.076C151.73 89.076 151.058 88.476 150.938 87.432H154.682C154.718 87.288 154.742 87.024 154.742 86.76C154.742 85.116 153.902 83.964 152.306 83.964C150.926 83.964 149.594 85.14 149.594 87.06C149.594 89.004 150.866 90.144 152.498 90.144ZM150.926 86.496C151.046 85.548 151.646 85.032 152.342 85.032C153.146 85.032 153.542 85.584 153.542 86.496H150.926ZM158.018 90.144C158.486 90.144 158.894 90.036 159.218 89.928L158.978 88.908C158.81 88.98 158.57 89.04 158.366 89.04C157.802 89.04 157.538 88.704 157.538 88.008V85.2H159.038V84.108H157.538V82.5H156.386L156.218 84.108L155.306 84.168V85.2H156.146V88.008C156.146 89.28 156.65 90.144 158.018 90.144ZM162.611 90.144C163.355 90.144 164.063 89.88 164.627 89.508L164.159 88.644C163.727 88.92 163.295 89.076 162.791 89.076C161.843 89.076 161.171 88.476 161.051 87.432H164.795C164.831 87.288 164.855 87.024 164.855 86.76C164.855 85.116 164.015 83.964 162.419 83.964C161.039 83.964 159.707 85.14 159.707 87.06C159.707 89.004 160.979 90.144 162.611 90.144ZM161.039 86.496C161.159 85.548 161.759 85.032 162.455 85.032C163.259 85.032 163.655 85.584 163.655 86.496H161.039ZM167.817 90.144C169.305 90.144 170.109 89.328 170.109 88.32C170.109 87.216 169.221 86.832 168.417 86.532C167.781 86.304 167.193 86.124 167.193 85.656C167.193 85.284 167.469 85.008 168.057 85.008C168.525 85.008 168.945 85.212 169.353 85.512L169.989 84.672C169.509 84.3 168.849 83.964 168.033 83.964C166.713 83.964 165.885 84.696 165.885 85.728C165.885 86.712 166.761 87.156 167.541 87.444C168.165 87.684 168.801 87.9 168.801 88.392C168.801 88.8 168.501 89.1 167.865 89.1C167.265 89.1 166.761 88.848 166.233 88.44L165.585 89.328C166.161 89.796 167.013 90.144 167.817 90.144ZM178.885 90H180.277V82.152H178.885V90ZM182.151 90H183.531V85.884C184.023 85.404 184.359 85.152 184.875 85.152C185.523 85.152 185.799 85.512 185.799 86.484V90H187.179V86.304C187.179 84.816 186.627 83.964 185.367 83.964C184.563 83.964 183.963 84.384 183.435 84.9H183.387L183.291 84.108H182.151V90ZM189.106 90H190.486V85.2H191.638V84.108H190.486V83.472C190.486 82.788 190.75 82.476 191.23 82.476C191.434 82.476 191.662 82.524 191.878 82.62L192.142 81.588C191.878 81.48 191.482 81.384 191.062 81.384C189.67 81.384 189.106 82.272 189.106 83.496V84.108L188.314 84.168V85.2H189.106V90ZM192.675 90H194.055V86.4C194.415 85.512 194.979 85.188 195.447 85.188C195.699 85.188 195.855 85.224 196.059 85.284L196.299 84.084C196.119 84 195.927 83.964 195.627 83.964C195.003 83.964 194.379 84.384 193.959 85.152H193.911L193.815 84.108H192.675V90ZM198.263 90.144C198.959 90.144 199.559 89.796 200.087 89.352H200.135L200.231 90H201.371V86.508C201.371 84.864 200.639 83.964 199.175 83.964C198.239 83.964 197.399 84.324 196.751 84.732L197.255 85.656C197.783 85.344 198.335 85.08 198.911 85.08C199.715 85.08 199.967 85.608 199.991 86.232C197.567 86.496 196.523 87.156 196.523 88.416C196.523 89.448 197.231 90.144 198.263 90.144ZM198.707 89.064C198.215 89.064 197.855 88.836 197.855 88.308C197.855 87.72 198.383 87.3 199.991 87.096V88.416C199.547 88.824 199.187 89.064 198.707 89.064ZM204.666 90.144C206.154 90.144 206.958 89.328 206.958 88.32C206.958 87.216 206.07 86.832 205.266 86.532C204.63 86.304 204.042 86.124 204.042 85.656C204.042 85.284 204.318 85.008 204.906 85.008C205.374 85.008 205.794 85.212 206.202 85.512L206.838 84.672C206.358 84.3 205.698 83.964 204.882 83.964C203.562 83.964 202.734 84.696 202.734 85.728C202.734 86.712 203.61 87.156 204.39 87.444C205.014 87.684 205.65 87.9 205.65 88.392C205.65 88.8 205.35 89.1 204.714 89.1C204.114 89.1 203.61 88.848 203.082 88.44L202.434 89.328C203.01 89.796 203.862 90.144 204.666 90.144ZM210.032 90.144C210.5 90.144 210.908 90.036 211.232 89.928L210.992 88.908C210.824 88.98 210.584 89.04 210.38 89.04C209.816 89.04 209.552 88.704 209.552 88.008V85.2H211.052V84.108H209.552V82.5H208.4L208.232 84.108L207.32 84.168V85.2H208.16V88.008C208.16 89.28 208.664 90.144 210.032 90.144ZM212.292 90H213.672V86.4C214.032 85.512 214.596 85.188 215.064 85.188C215.316 85.188 215.472 85.224 215.676 85.284L215.916 84.084C215.736 84 215.544 83.964 215.244 83.964C214.62 83.964 213.996 84.384 213.576 85.152H213.528L213.432 84.108H212.292V90ZM218.521 90.144C219.325 90.144 219.901 89.748 220.417 89.136H220.453L220.561 90H221.689V84.108H220.309V88.14C219.865 88.716 219.517 88.956 219.001 88.956C218.365 88.956 218.089 88.596 218.089 87.624V84.108H216.709V87.804C216.709 89.292 217.261 90.144 218.521 90.144ZM225.897 90.144C226.569 90.144 227.265 89.904 227.817 89.424L227.253 88.512C226.917 88.788 226.497 89.016 226.041 89.016C225.117 89.016 224.469 88.236 224.469 87.06C224.469 85.872 225.129 85.092 226.077 85.092C226.449 85.092 226.749 85.248 227.061 85.524L227.733 84.624C227.301 84.252 226.761 83.964 226.005 83.964C224.433 83.964 223.053 85.092 223.053 87.06C223.053 89.016 224.289 90.144 225.897 90.144ZM230.938 90.144C231.406 90.144 231.814 90.036 232.138 89.928L231.898 88.908C231.73 88.98 231.49 89.04 231.286 89.04C230.722 89.04 230.458 88.704 230.458 88.008V85.2H231.958V84.108H230.458V82.5H229.306L229.138 84.108L228.226 84.168V85.2H229.066V88.008C229.066 89.28 229.57 90.144 230.938 90.144ZM234.95 90.144C235.754 90.144 236.33 89.748 236.846 89.136H236.882L236.99 90H238.118V84.108H236.738V88.14C236.294 88.716 235.946 88.956 235.43 88.956C234.794 88.956 234.518 88.596 234.518 87.624V84.108H233.138V87.804C233.138 89.292 233.69 90.144 234.95 90.144ZM239.866 90H241.246V86.4C241.606 85.512 242.17 85.188 242.638 85.188C242.89 85.188 243.046 85.224 243.25 85.284L243.49 84.084C243.31 84 243.118 83.964 242.818 83.964C242.194 83.964 241.57 84.384 241.15 85.152H241.102L241.006 84.108H239.866V90ZM246.746 90.144C247.49 90.144 248.198 89.88 248.762 89.508L248.294 88.644C247.862 88.92 247.43 89.076 246.926 89.076C245.978 89.076 245.306 88.476 245.186 87.432H248.93C248.966 87.288 248.99 87.024 248.99 86.76C248.99 85.116 248.15 83.964 246.554 83.964C245.174 83.964 243.842 85.14 243.842 87.06C243.842 89.004 245.114 90.144 246.746 90.144ZM245.174 86.496C245.294 85.548 245.894 85.032 246.59 85.032C247.394 85.032 247.79 85.584 247.79 86.496H245.174ZM258.703 90H260.287L260.959 87.264C261.091 86.712 261.199 86.16 261.307 85.536H261.355C261.487 86.16 261.583 86.7 261.715 87.252L262.399 90H264.043L265.543 84.108H264.247L263.539 87.168C263.431 87.732 263.335 88.284 263.227 88.86H263.179C263.047 88.284 262.927 87.732 262.783 87.168L262.003 84.108H260.743L259.975 87.168C259.831 87.72 259.711 88.284 259.603 88.86H259.555C259.447 88.284 259.363 87.732 259.243 87.168L258.535 84.108H257.143L258.703 90ZM266.708 90H268.088V84.108H266.708V90ZM267.404 83.076C267.896 83.076 268.256 82.752 268.256 82.296C268.256 81.828 267.896 81.504 267.404 81.504C266.912 81.504 266.552 81.828 266.552 82.296C266.552 82.752 266.912 83.076 267.404 83.076ZM271.925 90.144C272.393 90.144 272.801 90.036 273.125 89.928L272.885 88.908C272.717 88.98 272.477 89.04 272.273 89.04C271.709 89.04 271.445 88.704 271.445 88.008V85.2H272.945V84.108H271.445V82.5H270.293L270.125 84.108L269.213 84.168V85.2H270.053V88.008C270.053 89.28 270.557 90.144 271.925 90.144ZM274.185 90H275.565V85.884C276.057 85.404 276.393 85.152 276.909 85.152C277.557 85.152 277.833 85.512 277.833 86.484V90H279.213V86.304C279.213 84.816 278.661 83.964 277.401 83.964C276.597 83.964 276.009 84.384 275.517 84.852L275.565 83.712V81.528H274.185V90ZM42.58 105H43.972V98.328H46.24V97.152H40.312V98.328H42.58V105ZM49.0913 105.144C49.8353 105.144 50.5433 104.88 51.1073 104.508L50.6393 103.644C50.2073 103.92 49.7753 104.076 49.2713 104.076C48.3233 104.076 47.6513 103.476 47.5313 102.432H51.2753C51.3113 102.288 51.3353 102.024 51.3353 101.76C51.3353 100.116 50.4953 98.964 48.8993 98.964C47.5193 98.964 46.1873 100.14 46.1873 102.06C46.1873 104.004 47.4593 105.144 49.0913 105.144ZM47.5193 101.496C47.6393 100.548 48.2393 100.032 48.9353 100.032C49.7393 100.032 50.1353 100.584 50.1353 101.496H47.5193ZM52.6533 105H54.0333V101.4C54.3933 100.512 54.9573 100.188 55.4253 100.188C55.6773 100.188 55.8333 100.224 56.0373 100.284L56.2773 99.084C56.0973 99 55.9053 98.964 55.6053 98.964C54.9813 98.964 54.3573 99.384 53.9373 100.152H53.8893L53.7933 99.108H52.6533V105ZM57.1299 105H58.5099V101.4C58.8699 100.512 59.4339 100.188 59.9019 100.188C60.1539 100.188 60.3099 100.224 60.5139 100.284L60.7539 99.084C60.5739 99 60.3819 98.964 60.0819 98.964C59.4579 98.964 58.8339 99.384 58.4139 100.152H58.3659L58.2699 99.108H57.1299V105ZM62.7181 105.144C63.4141 105.144 64.0141 104.796 64.5421 104.352H64.5901L64.6861 105H65.8261V101.508C65.8261 99.864 65.0941 98.964 63.6301 98.964C62.6941 98.964 61.8541 99.324 61.2061 99.732L61.7101 100.656C62.2381 100.344 62.7901 100.08 63.3661 100.08C64.1701 100.08 64.4221 100.608 64.4461 101.232C62.0221 101.496 60.9781 102.156 60.9781 103.416C60.9781 104.448 61.6861 105.144 62.7181 105.144ZM63.1621 104.064C62.6701 104.064 62.3101 103.836 62.3101 103.308C62.3101 102.72 62.8381 102.3 64.4461 102.096V103.416C64.0021 103.824 63.6421 104.064 63.1621 104.064ZM67.7176 105H69.0976V100.2H70.2496V99.108H69.0976V98.472C69.0976 97.788 69.3616 97.476 69.8416 97.476C70.0456 97.476 70.2736 97.524 70.4896 97.62L70.7536 96.588C70.4896 96.48 70.0936 96.384 69.6736 96.384C68.2816 96.384 67.7176 97.272 67.7176 98.496V99.108L66.9256 99.168V100.2H67.7176V105ZM73.581 105.144C75.057 105.144 76.389 104.016 76.389 102.06C76.389 100.092 75.057 98.964 73.581 98.964C72.117 98.964 70.785 100.092 70.785 102.06C70.785 104.016 72.117 105.144 73.581 105.144ZM73.581 104.016C72.717 104.016 72.201 103.236 72.201 102.06C72.201 100.872 72.717 100.092 73.581 100.092C74.445 100.092 74.973 100.872 74.973 102.06C74.973 103.236 74.445 104.016 73.581 104.016ZM77.7549 105H79.1349V101.4C79.4949 100.512 80.0589 100.188 80.5269 100.188C80.7789 100.188 80.9349 100.224 81.1389 100.284L81.3789 99.084C81.1989 99 81.0069 98.964 80.7069 98.964C80.0829 98.964 79.4589 99.384 79.0389 100.152H78.9909L78.8949 99.108H77.7549V105ZM82.2315 105H83.6115V100.884C84.0675 100.392 84.4875 100.152 84.8475 100.152C85.4715 100.152 85.7595 100.512 85.7595 101.484V105H87.1395V100.884C87.5955 100.392 88.0035 100.152 88.3755 100.152C88.9875 100.152 89.2755 100.512 89.2755 101.484V105H90.6675V101.304C90.6675 99.816 90.0915 98.964 88.8435 98.964C88.0995 98.964 87.5115 99.42 86.9475 100.02C86.6715 99.36 86.1795 98.964 85.3155 98.964C84.5835 98.964 84.0075 99.384 83.5155 99.912H83.4675L83.3715 99.108H82.2315V105Z" fill="white"/>
<path fill-rule="evenodd" clip-rule="evenodd" d="M86.6324 39.4765V55.2022C86.6324 58.5159 83.9461 61.2022 80.6324 61.2022L43 61.2022C39.6863 61.2022 37 58.5159 37 55.2022V55.0037C37 55.2074 37.0101 55.4086 37.03 55.607H76.2096C79.3966 55.607 81.9801 53.0235 81.9801 49.8365C81.9801 46.6495 79.3966 44.0659 76.2096 44.0659H47.2987C46.0314 44.0659 45.004 43.0385 45.004 41.7712C45.004 40.5039 46.0314 39.4765 47.2987 39.4765H86.6324ZM86.6321 35.8765C86.6013 32.5892 83.9269 29.9338 80.6324 29.9338H43C39.6863 29.9338 37 32.6201 37 35.9338V52.007H76.2096C77.4083 52.007 78.3801 51.0352 78.3801 49.8365C78.3801 48.6377 77.4083 47.6659 76.2096 47.6659H47.2987C44.0432 47.6659 41.404 45.0267 41.404 41.7712C41.404 38.5157 44.0432 35.8765 47.2987 35.8765H86.6321Z" fill="white"/>
<path d="M99.464 57H104.168V36.136H99.464V57ZM108.705 57H113.409V46.28C114.433 45.288 115.169 44.744 116.353 44.744C117.697 44.744 118.305 45.448 118.305 47.752V57H123.009V47.144C123.009 43.176 121.537 40.744 118.081 40.744C115.937 40.744 114.337 41.864 112.993 43.144H112.865L112.545 41.128H108.705V57ZM127.818 57H132.522V44.808H135.37V41.128H132.522V40.168C132.522 38.536 133.194 37.896 134.345 37.896C134.858 37.896 135.434 38.024 135.978 38.216L136.842 34.76C136.138 34.504 134.986 34.184 133.674 34.184C129.386 34.184 127.818 36.936 127.818 40.296V41.16L125.706 41.32V44.808H127.818V57ZM137.924 57H142.628V47.784C143.46 45.64 144.932 44.872 146.116 44.872C146.788 44.872 147.268 44.968 147.844 45.128L148.612 41.064C148.164 40.872 147.62 40.744 146.724 40.744C145.092 40.744 143.364 41.768 142.212 43.912H142.084L141.764 41.128H137.924V57ZM153.768 57.384C155.56 57.384 157.032 56.552 158.376 55.368H158.504L158.824 57H162.664V47.912C162.664 43.048 160.424 40.744 156.36 40.744C153.864 40.744 151.592 41.608 149.576 42.824L151.272 45.928C152.808 45.032 154.12 44.488 155.464 44.488C157.192 44.488 157.864 45.384 157.96 46.792C151.688 47.432 149.032 49.256 149.032 52.584C149.032 55.272 150.856 57.384 153.768 57.384ZM155.368 53.736C154.248 53.736 153.544 53.256 153.544 52.232C153.544 51.016 154.632 50.056 157.96 49.608V52.392C157.128 53.224 156.424 53.736 155.368 53.736Z" fill="white"/>
<path d="M107.528 131.144C109.724 131.144 111.44 128.9 111.44 126.308C111.44 124.28 110.384 123.008 108.608 123.008C106.424 123.008 104.696 125.252 104.696 127.844C104.696 129.872 105.764 131.144 107.528 131.144ZM107.6 130.028C106.544 130.028 106.028 129.14 106.028 127.748C106.028 125.924 107.144 124.124 108.536 124.124C109.592 124.124 110.12 125.012 110.12 126.404C110.12 128.228 108.992 130.028 107.6 130.028ZM113.378 130.376H113.402C113.69 130.832 114.158 131.144 114.71 131.144C116.33 131.144 117.866 129.368 117.866 127.112C117.866 125.732 117.23 124.964 116.186 124.964C115.514 124.964 114.842 125.336 114.278 125.828H114.242L114.266 125.108H113.222L111.566 133.328H112.85L113.186 131.576L113.378 130.376ZM115.658 126.02C116.198 126.02 116.546 126.428 116.546 127.28C116.546 128.804 115.622 130.088 114.626 130.088C114.254 130.088 113.906 129.884 113.654 129.392L114.158 126.872C114.602 126.296 115.202 126.02 115.658 126.02ZM118.693 128.648C118.693 130.232 119.653 131.144 121.057 131.144C121.897 131.144 122.593 130.856 123.073 130.52L122.593 129.692C122.269 129.932 121.813 130.16 121.393 130.16C120.505 130.16 119.809 129.632 119.941 128.384H123.529C123.613 128.192 123.781 127.652 123.781 127.136C123.781 125.912 123.277 124.964 121.909 124.964C120.361 124.964 118.693 126.452 118.693 128.648ZM120.049 127.568C120.337 126.56 121.045 125.96 121.753 125.96C122.473 125.96 122.713 126.476 122.713 127.052C122.713 127.244 122.689 127.412 122.653 127.568H120.049ZM124.42 131H125.716L126.508 126.98C127.132 126.344 127.588 126.068 127.996 126.068C128.5 126.068 128.74 126.32 128.74 126.824C128.74 127.004 128.692 127.172 128.644 127.448L127.924 131H129.208L129.952 127.28C130.024 126.968 130.048 126.728 130.048 126.452C130.048 125.504 129.64 124.964 128.656 124.964C127.912 124.964 127.252 125.408 126.628 125.936H126.58L126.64 125.108H125.596L124.42 131ZM134.961 131.144C136.317 131.144 137.301 130.4 137.301 129.26C137.301 128.54 136.869 128.072 135.993 127.604C135.489 127.316 134.985 127.112 134.985 126.68C134.985 126.272 135.381 125.936 135.921 125.936C136.389 125.936 136.749 126.188 137.049 126.488L137.769 125.804C137.313 125.324 136.689 124.964 135.921 124.964C134.745 124.964 133.773 125.732 133.773 126.8C133.773 127.508 134.253 128 135.033 128.432C135.777 128.84 136.089 129.044 136.089 129.416C136.089 129.848 135.609 130.184 135.057 130.184C134.529 130.184 134.049 129.896 133.665 129.392L132.897 130.016C133.341 130.688 134.217 131.144 134.961 131.144ZM140.53 131.144C142.15 131.144 143.782 129.608 143.782 127.364C143.782 125.888 142.906 124.964 141.574 124.964C139.966 124.964 138.334 126.488 138.334 128.744C138.334 130.208 139.21 131.144 140.53 131.144ZM140.674 130.1C139.99 130.1 139.63 129.584 139.63 128.696C139.63 127.196 140.506 126.008 141.442 126.008C142.114 126.008 142.474 126.512 142.474 127.4C142.474 128.912 141.61 130.1 140.674 130.1ZM150.363 125.108H149.079L148.287 129.128C147.699 129.752 147.231 130.04 146.835 130.04C146.343 130.04 146.103 129.788 146.103 129.284C146.103 129.104 146.139 128.936 146.199 128.66L146.907 125.108H145.623L144.879 128.828C144.819 129.128 144.783 129.38 144.783 129.656C144.783 130.592 145.203 131.144 146.187 131.144C146.895 131.144 147.567 130.688 148.155 130.16H148.203L148.155 131H149.199L150.363 125.108ZM150.928 131H152.224L152.92 127.436C153.4 126.536 153.964 126.104 154.516 126.104C154.72 126.104 154.924 126.128 155.068 126.2L155.5 125.072C155.344 125 155.164 124.964 154.912 124.964C154.204 124.964 153.556 125.516 153.088 126.248H153.04L153.148 125.108H152.104L150.928 131ZM157.546 131.144C158.434 131.144 159.034 130.784 159.478 130.46L158.926 129.644C158.626 129.884 158.266 130.1 157.81 130.1C157.018 130.1 156.622 129.584 156.622 128.696C156.622 127.232 157.546 126.008 158.602 126.008C158.998 126.008 159.238 126.152 159.514 126.464L160.234 125.684C159.91 125.3 159.406 124.964 158.686 124.964C156.85 124.964 155.302 126.632 155.302 128.744C155.302 130.268 156.25 131.144 157.546 131.144ZM160.4 128.648C160.4 130.232 161.36 131.144 162.764 131.144C163.604 131.144 164.3 130.856 164.78 130.52L164.3 129.692C163.976 129.932 163.52 130.16 163.1 130.16C162.212 130.16 161.516 129.632 161.648 128.384H165.236C165.32 128.192 165.488 127.652 165.488 127.136C165.488 125.912 164.984 124.964 163.616 124.964C162.068 124.964 160.4 126.452 160.4 128.648ZM161.756 127.568C162.044 126.56 162.752 125.96 163.46 125.96C164.18 125.96 164.42 126.476 164.42 127.052C164.42 127.244 164.396 127.412 164.36 127.568H161.756ZM170.783 125.744H170.747C170.495 125.276 170.027 124.964 169.451 124.964C167.819 124.964 166.283 126.74 166.283 128.996C166.283 130.376 166.931 131.144 167.963 131.144C168.635 131.144 169.355 130.76 169.907 130.184H169.943L169.883 131H170.939L172.643 122.528H171.359L170.951 124.616L170.783 125.744ZM168.491 130.088C167.951 130.088 167.615 129.68 167.615 128.816C167.615 127.304 168.527 126.02 169.523 126.02C169.883 126.02 170.255 126.236 170.519 126.74L170.039 129.092C169.547 129.8 168.995 130.088 168.491 130.088ZM176.02 131L176.271 130.316H176.296C176.56 130.82 177.04 131.144 177.628 131.144C179.248 131.144 180.784 129.368 180.784 127.112C180.784 125.72 180.148 124.964 179.104 124.964C178.456 124.964 177.808 125.3 177.256 125.744H177.232L177.52 124.616L177.94 122.528H176.656L174.952 131H176.02ZM178.576 126.02C179.116 126.02 179.464 126.428 179.464 127.28C179.464 128.804 178.54 130.088 177.544 130.088C177.172 130.088 176.824 129.872 176.572 129.368L177.076 126.872C177.52 126.296 178.12 126.02 178.576 126.02ZM181.196 133.424C182.372 133.424 183.104 132.596 183.836 131.312L187.148 125.108H185.9L184.436 128.084C184.16 128.636 183.872 129.296 183.608 129.848H183.56C183.536 129.296 183.476 128.612 183.416 128.084L183.044 125.108H181.76L182.78 130.94L182.6 131.3C182.276 131.96 181.784 132.392 181.28 132.392C181.124 132.392 180.968 132.344 180.848 132.272L180.44 133.208C180.668 133.34 181.004 133.424 181.196 133.424Z" fill="white" fill-opacity="0.7"/>
<path d="M226.416 132.192C228.912 132.192 230.352 130.688 230.352 128.96C230.352 127.488 229.552 126.64 228.288 126.128L226.944 125.584C226.048 125.216 225.36 124.992 225.36 124.352C225.36 123.76 225.872 123.408 226.688 123.408C227.52 123.408 228.16 123.712 228.848 124.24L230.048 122.752C229.152 121.856 227.888 121.376 226.688 121.376C224.512 121.376 222.976 122.752 222.976 124.48C222.976 126 224 126.896 225.072 127.328L226.432 127.904C227.344 128.288 227.936 128.496 227.936 129.152C227.936 129.776 227.456 130.16 226.48 130.16C225.616 130.16 224.656 129.712 223.904 129.072L222.56 130.688C223.616 131.68 225.056 132.192 226.416 132.192ZM234.534 132.192C235.302 132.192 235.878 132.032 236.294 131.904L235.926 130.192C235.718 130.272 235.43 130.352 235.174 130.352C234.549 130.352 234.15 129.984 234.15 129.088V125.904H236.054V124.064H234.15V121.952H232.198L231.926 124.064L230.71 124.16V125.904H231.798V129.12C231.798 130.96 232.566 132.192 234.534 132.192ZM240.873 132.192C241.817 132.192 242.873 131.856 243.689 131.296L242.905 129.872C242.329 130.224 241.785 130.4 241.193 130.4C240.137 130.4 239.337 129.872 239.129 128.72H243.881C243.929 128.528 243.977 128.096 243.977 127.68C243.977 125.52 242.857 123.872 240.601 123.872C238.697 123.872 236.857 125.456 236.857 128.032C236.857 130.656 238.601 132.192 240.873 132.192ZM239.113 127.168C239.273 126.16 239.913 125.664 240.649 125.664C241.593 125.664 241.977 126.288 241.977 127.168H239.113ZM245.603 132H247.955V127.392C248.371 126.32 249.107 125.936 249.699 125.936C250.035 125.936 250.275 125.984 250.563 126.064L250.947 124.032C250.723 123.936 250.451 123.872 250.003 123.872C249.187 123.872 248.323 124.384 247.747 125.456H247.683L247.523 124.064H245.603V132ZM256.138 132.192C257.85 132.192 259.482 130.624 259.482 127.888C259.482 125.456 258.282 123.872 256.362 123.872C255.626 123.872 254.874 124.208 254.266 124.752L254.33 123.536V120.784H251.978V132H253.818L254.01 131.152H254.074C254.698 131.84 255.434 132.192 256.138 132.192ZM255.594 130.272C255.194 130.272 254.746 130.144 254.33 129.76V126.512C254.778 126.016 255.21 125.792 255.69 125.792C256.634 125.792 257.066 126.512 257.066 127.936C257.066 129.568 256.41 130.272 255.594 130.272ZM263.309 132.192C263.837 132.192 264.237 132.112 264.493 132L264.205 130.256C264.077 130.288 264.013 130.288 263.917 130.288C263.725 130.288 263.501 130.128 263.501 129.632V120.784H261.149V129.536C261.149 131.136 261.693 132.192 263.309 132.192ZM268.112 132.192C269.2 132.192 269.936 131.696 270.608 130.896H270.656L270.832 132H272.752V124.064H270.4V129.312C269.936 129.936 269.584 130.192 268.992 130.192C268.304 130.192 268 129.824 268 128.688V124.064H265.648V128.992C265.648 130.976 266.384 132.192 268.112 132.192ZM278.373 132.192C279.317 132.192 280.373 131.856 281.189 131.296L280.405 129.872C279.829 130.224 279.285 130.4 278.693 130.4C277.637 130.4 276.837 129.872 276.629 128.72H281.381C281.429 128.528 281.477 128.096 281.477 127.68C281.477 125.52 280.357 123.872 278.101 123.872C276.197 123.872 274.357 125.456 274.357 128.032C274.357 130.656 276.101 132.192 278.373 132.192ZM276.613 127.168C276.773 126.16 277.413 125.664 278.149 125.664C279.093 125.664 279.477 126.288 279.477 127.168H276.613Z" fill="white" fill-opacity="0.7"/>
<path d="M215.996 127.3C215.999 127.2 216 127.1 216 127C216 120.373 210.627 115 204 115C197.373 115 192 120.373 192 127C192 128.824 192.407 130.552 193.135 132.1H198.6C199.76 132.1 200.7 131.16 200.7 130C200.7 128.84 199.76 127.9 198.6 127.9C196.446 127.9 194.7 126.154 194.7 124C194.7 121.846 196.446 120.1 198.6 120.1H200.4C203.548 120.1 206.1 122.652 206.1 125.8V129.4C206.1 130.891 207.309 132.1 208.8 132.1C210.291 132.1 211.5 130.891 211.5 129.4V129.1H210.6C209.109 129.1 207.9 127.891 207.9 126.4C207.9 124.909 209.109 123.7 210.6 123.7C212.091 123.7 213.3 124.909 213.3 126.4V127.3H215.996Z" fill="white" fill-opacity="0.7"/>
<path d="M215.817 129.1H213.3V129.4C213.3 131.885 211.285 133.9 208.8 133.9C206.315 133.9 204.3 131.885 204.3 129.4V125.8C204.3 123.646 202.554 121.9 200.4 121.9H198.6C197.44 121.9 196.5 122.84 196.5 124C196.5 125.16 197.44 126.1 198.6 126.1C200.754 126.1 202.5 127.846 202.5 130C202.5 132.154 200.754 133.9 198.6 133.9H194.181C196.353 136.985 199.941 139 204 139C209.911 139 214.824 134.726 215.817 129.1Z" fill="white" fill-opacity="0.7"/>
<path d="M211.5 126.4V127.3H210.6C210.103 127.3 209.7 126.897 209.7 126.4C209.7 125.903 210.103 125.5 210.6 125.5C211.097 125.5 211.5 125.903 211.5 126.4Z" fill="white" fill-opacity="0.7"/>
</svg>
