<svg width="250" height="250" viewBox="0 0 250 250" fill="none" xmlns="http://www.w3.org/2000/svg">
<path opacity="0.2" fill-rule="evenodd" clip-rule="evenodd" d="M219.813 107.968C220.678 107.539 221.832 108.036 221.351 109.171C220.835 110.386 218.929 110.401 217.853 110.377C217.961 110.371 218.307 109.257 218.426 109.089C218.777 108.592 219.281 108.232 219.813 107.968ZM209.848 130.103C209.543 130.364 209.823 130.128 209.848 130.103V130.103ZM220.819 113.608C221.336 114 221.361 114.692 220.938 115.16C220.434 115.718 219.514 115.698 218.828 115.644C218.517 115.62 216.86 115.489 217.253 115.22C217.223 115.232 217.159 115.259 217.092 115.297C217.055 115.428 217.017 115.559 216.977 115.69C216.987 115.695 216.995 115.701 217.006 115.707C216.995 115.702 216.987 115.697 216.977 115.692C216.577 116.997 216.009 118.239 215.266 119.401C215.544 119.293 215.832 119.211 216.124 119.174C216.989 119.065 218.808 119.73 217.84 120.871C216.911 121.964 215.468 120.792 214.415 120.631C213.393 122.043 212.267 123.396 211.086 124.704C211.159 124.727 211.222 124.773 211.258 124.846C211.732 124.608 212.225 124.267 212.663 124.175C213.296 124.042 214.592 123.961 215.069 124.521C215.657 125.21 215.026 125.77 214.332 125.902C213.325 126.094 212.008 125.608 211.039 125.279C210.928 125.299 210.807 125.267 210.735 125.179C210.714 125.172 210.692 125.165 210.672 125.159C209.476 126.46 208.235 127.719 207.001 128.95C207.014 128.949 207.028 128.949 207.041 128.948C207.363 128.739 207.708 128.567 208.082 128.477C208.947 128.268 209.965 128.266 210.667 128.886C211.366 129.503 211.613 130.582 210.889 131.276C209.44 132.664 207.308 129.502 206.578 129.37C205.324 130.608 203.999 131.765 202.653 132.898C202.806 132.852 202.962 132.818 203.124 132.803C204.444 132.677 207.541 134.278 205.92 135.855C204.508 137.229 202.876 134.586 201.739 133.662C200.471 134.718 199.195 135.767 197.955 136.858C198.631 136.679 199.284 136.653 200.009 136.869C200.758 137.094 201.968 137.654 201.494 138.656C201.011 139.676 199.558 139.213 198.802 138.89C198.389 138.713 197.562 138.118 196.836 137.867C194.858 139.717 193.144 141.755 191.846 144.154C191.035 145.653 190.42 147.253 189.987 148.898C189.71 149.948 189.166 151.712 189.274 153.078C188.756 150.343 189.696 147.058 190.708 144.613C191.639 142.364 193.031 140.39 194.661 138.613C194.253 137.395 190.812 135.641 192.87 134.508C193.963 133.909 195.081 134.901 195.32 135.953C195.483 136.675 195.233 137.583 194.967 138.284C195.48 137.742 196.013 137.218 196.562 136.711C197.321 136.01 198.099 135.33 198.883 134.658C197.592 133.456 196.37 130.019 198.103 129.456C200.663 128.627 199.428 133.317 199.249 134.196C199.198 134.199 199.159 134.184 199.13 134.151C199.144 134.232 199.161 134.318 199.181 134.404C200.683 133.125 202.207 131.871 203.681 130.562C203.548 130.465 203.337 130.093 203.172 129.896C202.798 129.451 202.44 128.986 202.178 128.465C201.765 127.641 201.367 126.328 202.463 125.843C203.655 125.315 204.221 126.8 204.229 127.686C204.234 128.299 204.065 128.882 203.977 129.482C203.95 129.67 204.055 130.514 203.797 130.151C203.809 130.285 203.811 130.382 203.805 130.451C204.07 130.215 204.332 129.976 204.593 129.735C204.581 129.705 204.572 129.672 204.57 129.633C204.556 129.369 204.825 129.267 205.013 129.345C205.357 129.02 205.698 128.692 206.033 128.358C206.743 127.649 207.463 126.92 208.178 126.175C208.023 126.043 208.085 125.86 207.94 125.72C207.795 125.581 207.51 125.504 207.34 125.374C206.912 125.048 206.557 124.572 206.3 124.104C205.877 123.33 205.33 121.707 206.568 121.338C207.845 120.956 208.492 122.518 208.574 123.495C208.59 123.685 208.446 125.39 208.336 126.009C209.659 124.625 210.96 123.19 212.139 121.729C211.782 121.726 210.77 121.001 210.565 120.804C210.066 120.321 209.272 119.256 210.148 118.691C210.927 118.19 211.887 118.915 212.219 119.619C212.274 119.735 212.467 120.814 212.481 121.299C212.969 120.679 213.435 120.056 213.868 119.431C214.157 119.015 214.427 118.589 214.68 118.153C214.619 118.119 214.562 118.06 214.508 117.986C213.209 117.768 211.554 115.762 213.08 115.063C213.807 114.73 214.594 115.415 214.95 115.976C215.022 116.091 215.14 116.668 215.236 117.124C215.963 115.681 216.519 114.153 216.942 112.587C216.829 112.559 216.733 112.474 216.72 112.326C216.09 111.971 215.592 111.674 215.152 110.99C214.879 110.565 214.387 109.593 215.19 109.357C216.236 109.049 216.893 110.631 216.978 111.41C216.988 111.5 216.987 111.764 216.984 112.005C217.02 112 217.057 112 217.093 112.007C217.333 111.037 217.525 110.055 217.678 109.071C217.108 108.889 217.011 105.92 217.391 105.497C218.241 104.55 218.839 105.917 218.794 106.64C218.74 107.492 218.349 108.267 217.885 108.956C217.835 109.028 217.849 109.025 217.836 108.923C217.829 108.974 217.812 109.011 217.787 109.037C217.811 109.486 217.857 109.945 217.835 110.342C217.77 111.479 217.636 112.622 217.441 113.744C217.393 114.017 217.339 114.288 217.278 114.556C217.737 114.169 218.356 113.824 218.598 113.717C219.227 113.438 220.195 113.136 220.819 113.608ZM189.171 152.97C189.201 153.335 189.292 153.669 189.469 153.942C189.339 153.63 189.241 153.304 189.171 152.97Z" fill="#C1DEE2"/>
<g opacity="0.5">
<path opacity="0.5" fill-rule="evenodd" clip-rule="evenodd" d="M211.927 145.185C212.963 143.708 214.885 139.958 216.343 139.43C217.282 139.09 217.008 142.606 217.02 143.276C217.065 145.87 216.813 148.448 216.501 151.02C215.939 155.658 214.102 159.79 211.582 163.738C210.286 165.769 208.765 167.825 206.658 169.093C205.689 169.677 204.522 169.774 203.565 170.277C202.45 170.863 203.057 170.389 202.554 171.551C201.856 173.165 201.633 175.246 201.31 176.968C199.828 184.87 196.238 226.645 196.86 234.684C196.916 235.396 195.922 235.567 195.873 234.697C195.609 230.085 197.89 198.147 199.041 187.703C200.192 177.258 201.356 168.031 202.524 164.418C203.941 160.034 206.499 154.762 208.629 150.673C209.618 148.774 210.696 146.94 211.927 145.185Z" fill="#69A1AC"/>
<path opacity="0.5" fill-rule="evenodd" clip-rule="evenodd" d="M219.615 196.411C222.311 194.432 225.228 198.167 222.789 200.146C221.441 201.24 220.031 200.851 219.238 199.939C218.723 200.567 218.24 201.223 217.777 201.778C216.366 203.468 215.032 205.198 213.757 206.968C211.108 210.647 208.838 214.533 206.465 218.347C204.123 222.113 201.8 225.897 199.677 229.757C197.878 233.028 195.481 236.876 194.866 240.462C195.8 232.857 199.345 225.548 203.566 218.843C207.753 212.194 212.558 204.933 219.04 199.686C218.38 198.715 218.362 197.33 219.615 196.411Z" fill="#C1DEE2"/>
<path opacity="0.5" fill-rule="evenodd" clip-rule="evenodd" d="M168.472 177.864C169.98 178.159 172.444 181.571 173.687 182.871C175.165 184.416 176.505 186.063 177.769 187.788C180.489 191.501 182.922 195.449 184.991 199.566C188.363 206.278 191.065 213.168 193.025 220.477C194.226 224.951 195.003 229.588 195.463 234.192C195.55 235.061 196.461 241.756 195.149 241.937C193.969 242.099 194.333 236.853 194.276 236.139C193.633 228.088 191.705 220.254 189.024 212.666C188.44 211.012 187.897 208.988 186.963 207.5C186.291 206.428 186.959 206.802 185.776 206.397C184.762 206.048 183.605 206.133 182.566 205.707C180.308 204.781 178.5 202.983 176.915 201.175C173.835 197.661 171.395 193.86 170.123 189.357C169.417 186.861 168.769 184.35 168.409 181.776C168.316 181.111 167.5 177.674 168.472 177.864Z" fill="#69A1AC"/>
<path opacity="0.5" fill-rule="evenodd" clip-rule="evenodd" d="M174.424 121.098C180.105 130.95 184.773 141.773 187.788 152.735C189.614 159.377 190.892 166.192 192.161 172.959C194.126 183.435 195.984 193.911 196.513 204.574C197.045 215.298 198.097 227.667 194.585 237.997C196.339 227.51 194.669 216.347 194.373 205.795C194.232 200.757 193.823 195.769 193.286 190.761C192.764 185.903 191.913 181.068 191.12 176.248C190.733 173.901 190.328 171.557 189.915 169.215C189.791 168.516 189.739 166.442 189.296 165.964C188.85 165.484 186.573 165.288 185.858 164.935C184.419 164.225 183.065 163.216 181.867 162.15C179.57 160.107 177.572 157.437 175.995 154.805C172.346 148.715 170.887 141.282 170.96 134.229C170.975 132.86 173.177 118.114 172.292 117.911C172.346 117.848 172.396 117.784 172.444 117.717C173.113 118.838 173.77 119.967 174.424 121.098Z" fill="#89C5CC"/>
<path opacity="0.5" fill-rule="evenodd" clip-rule="evenodd" d="M235.743 156.632C235.83 156.506 236.401 155.626 236.114 155.683C236.699 155.568 235.309 156.652 236.767 155.987C236.075 156.641 236.474 157.49 236.483 158.369C236.498 159.798 236.259 161.214 235.99 162.611C235.565 164.82 234.932 166.968 234.013 169.023C232.01 173.501 228.609 177.811 224.571 180.61C222.577 181.993 220.623 182.463 218.35 183.099C216.914 183.501 216.8 184.244 216.038 185.638C214.451 188.54 212.892 191.432 211.492 194.433C209.821 198.015 208.199 201.602 206.669 205.248C201.513 217.529 197.317 230.252 195.113 243.419C195.06 235.66 196.855 227.668 199.119 220.272C200.768 214.884 202.915 209.689 205.205 204.548C205.76 203.302 206.601 201.699 206.837 200.324C207.002 199.361 206.498 198.434 206.267 197.419C205.366 193.466 205.43 189.038 206.221 185.064C207.093 180.682 209.615 178.648 213.88 178.027C215.44 177.8 217.423 177.883 218.853 177.218C220.412 176.494 221.055 174.113 221.941 172.585C224.321 168.479 227.149 164.542 230.396 161.083C231.296 160.125 232.263 159.241 233.288 158.422C233.935 157.905 235.302 157.269 235.743 156.632Z" fill="#89C5CC"/>
<path opacity="0.5" fill-rule="evenodd" clip-rule="evenodd" d="M187.913 235.039H203.051C203.731 235.039 204.283 235.591 204.283 236.271C204.283 236.332 204.279 236.392 204.27 236.451L203.1 244.385C202.743 246.803 200.668 248.595 198.223 248.595H192.741C190.296 248.595 188.22 246.803 187.864 244.385L186.694 236.451C186.594 235.778 187.06 235.152 187.733 235.052C187.793 235.043 187.853 235.039 187.913 235.039Z" fill="#C1DEE2"/>
</g>
<path fill-rule="evenodd" clip-rule="evenodd" d="M83.3801 126.169C84.3123 138.843 144.367 176.157 144.718 177.204C144.873 177.669 138.642 192.378 126.025 221.331L131.274 223.363C150.628 192.7 159.807 175.735 158.813 172.468C157.39 167.79 141.858 152.402 112.217 126.304L83.3801 126.169Z" fill="#B28B67"/>
<path fill-rule="evenodd" clip-rule="evenodd" d="M127.406 214.792L135.977 217.9C154.05 197.587 161.135 180.827 159.843 172.287C158.982 166.594 143.503 151.232 113.408 126.2L82.7656 126.2C83.8111 155.551 139.474 177.316 140.219 178.567C140.963 179.818 133.636 192.068 127.406 214.792Z" fill="#A84B18"/>
<path fill-rule="evenodd" clip-rule="evenodd" d="M124.08 220.361C123.008 221.614 122.341 222.601 122.079 223.321C121.76 224.197 121.441 225.529 121.121 227.316C122.137 227.686 131.271 231.01 148.522 237.289C150.091 235.194 150.143 233.774 148.677 233.028C147.211 232.282 145.998 231.648 145.038 231.128L134.369 220.814C134.164 220.616 133.837 220.622 133.638 220.827C133.635 220.83 133.631 220.834 133.628 220.838L132.087 222.525C130.425 222.671 129.151 222.582 128.263 222.259C127.541 221.997 126.651 221.343 125.592 220.297L125.592 220.297C125.185 219.896 124.531 219.9 124.13 220.307C124.112 220.324 124.096 220.342 124.08 220.361Z" fill="#E4E4E4"/>
<path fill-rule="evenodd" clip-rule="evenodd" d="M90.2854 126.169L63.5326 190.147L37.2388 244.234H43.4423L111.314 126.169H90.2854Z" fill="#997659"/>
<path fill-rule="evenodd" clip-rule="evenodd" d="M36.8676 241.788C36.2892 243.332 36 244.487 36 245.254C36 246.186 36.1553 247.547 36.4659 249.335C37.5475 249.335 47.2675 249.335 65.6259 249.335C66.3836 246.83 65.9462 245.478 64.3136 245.278C62.681 245.078 61.3247 244.898 60.2449 244.737L46.6916 238.695C46.4308 238.579 46.1252 238.696 46.0089 238.957C46.0069 238.961 46.005 238.965 46.0031 238.97L45.1319 241.083C43.6206 241.788 42.3924 242.141 41.4475 242.141C40.6798 242.141 39.6195 241.831 38.2668 241.211L38.2668 241.211C37.7477 240.973 37.1339 241.201 36.8959 241.72C36.8857 241.742 36.8762 241.765 36.8676 241.788Z" fill="#E4E4E4"/>
<path fill-rule="evenodd" clip-rule="evenodd" d="M39.613 232.998L53.3974 235.573C64.0555 219.965 108.66 155.963 113.55 126.169H82.8632C66.5315 147.707 49.7724 217.131 39.613 232.998Z" fill="#CC5411"/>
<path fill-rule="evenodd" clip-rule="evenodd" d="M99.8564 63.9125C98.2154 60.6469 97.4726 56.9611 98.6548 53.3333C102.061 42.8806 116.421 48.9474 117.989 55.0426C119.557 61.1377 115.816 74.674 111.819 74.6972C110.226 74.7064 107.268 72.9729 104.503 70.2223L102.977 85.0282L90.9377 82.0264L99.8564 63.9125Z" fill="#B28B67"/>
<path fill-rule="evenodd" clip-rule="evenodd" d="M118.525 57.7374C118.579 57.0115 118.48 56.1658 118.409 55.4486C118.318 54.524 118.05 53.6441 117.725 52.7968C117.113 51.2015 116.278 49.6906 115.273 48.3587C113.437 45.9258 110.776 44.1233 107.811 43.7538C106.313 43.5672 104.765 43.7649 103.336 44.3802C102.045 44.9361 100.698 45.8925 99.2706 45.6296C97.718 45.3435 96.65 43.6565 95.6298 42.5248C94.4795 41.2488 93.178 40.2035 91.6279 39.5369C89.0312 38.4203 86.2624 38.6927 83.848 40.4287C81.2789 42.2761 78.9793 45.3514 79.5092 48.7801C79.6077 49.4175 79.7981 49.9816 80.145 50.4962C80.4632 50.9682 80.9918 51.5177 81.0109 52.1499C81.0311 52.8218 80.3013 53.5001 79.9553 54.0156C79.4597 54.7541 79.0065 55.5461 78.8722 56.4496C78.6516 57.9335 79.2253 59.5456 79.9579 60.7397C80.7034 61.9549 81.7797 62.8134 83.0135 63.3931C83.8373 63.7802 84.6992 64.0953 85.5958 64.2507C86.0409 64.3278 86.4567 64.3036 86.9041 64.3135C87.3392 64.3231 87.5423 64.4889 87.836 64.7999C89.2 66.2449 90.8451 67.0825 92.7581 67.3952C94.3727 67.659 96.2908 67.7336 97.8492 66.9811C99.5798 66.1452 99.9615 64.4928 100.063 62.6508C100.376 62.9154 101.338 63.2705 100.921 62.4237C100.756 62.0882 100.342 61.8653 100.083 61.6274C99.7804 61.3505 99.4866 61.0168 99.2923 60.6396C98.5077 59.1165 100.249 56.8492 101.731 56.7736C103.933 56.6613 103.676 59.6448 104.953 60.7513C105.686 61.3875 106.711 61.0234 107.489 60.5848C108.531 59.9971 109.369 59.0835 110.133 58.1316C110.763 57.3477 111.367 56.5443 112.003 55.7668C112.3 55.4037 113.264 54.4081 113.042 53.8584C114.58 53.9342 116.063 54.9452 117.128 56.0519C117.568 56.5094 117.876 56.9696 118.01 57.6169C118.039 57.7556 118.077 58.1561 118.236 58.2119C118.533 58.3157 118.511 57.9198 118.525 57.7374Z" fill="#191847"/>
<path fill-rule="evenodd" clip-rule="evenodd" d="M132.692 121.693L148.971 134.03C153.422 135.309 157.132 136.868 160.102 138.707C160.799 139.362 161.633 140.679 158.697 140.403C155.762 140.126 152.662 139.967 152.239 140.958C151.816 141.948 153.574 143.173 152.73 144.504C152.168 145.392 149.625 143.097 145.101 137.618L128.89 130.596L132.692 121.693ZM69.3754 121.004L80.177 121.235C73.1331 142.544 69.3338 153.85 68.7793 155.151C67.5317 158.08 69.9845 162.617 71.0248 165.05C67.4719 166.558 67.949 160.751 63.4659 162.732C59.3738 164.541 56.2265 167.892 51.5869 164.93C51.0165 164.566 50.4079 163.222 51.9527 162.207C55.8014 159.679 61.3616 155.232 62.1283 153.75C63.1737 151.729 65.5895 140.814 69.3754 121.004Z" fill="#B28B67"/>
<path fill-rule="evenodd" clip-rule="evenodd" d="M100.862 76.4353L105.345 75.7504C121.681 90.2961 128.014 117.803 148.09 132.666L143.092 138.616C107.901 133.655 99.7428 100.096 100.862 76.4353Z" fill="#E87613"/>
<path fill-rule="evenodd" clip-rule="evenodd" d="M80.4003 131.991C98.3229 132.304 111.506 132.534 119.951 132.682C121.758 132.713 121.463 130.111 121.225 128.796C118.473 113.62 106.988 97.1129 107.364 75.5857L95.9865 73.6065C86.2868 88.5431 82.6991 107.079 80.4003 131.991Z" fill="#DDE3E9"/>
<path fill-rule="evenodd" clip-rule="evenodd" d="M81.4826 88.2019C79.834 87.699 78.5412 86.5707 77.6042 84.8171C73.5652 77.2575 75.143 73.1617 79.6228 71.8845C84.1026 70.6074 88.0278 73.4677 95.1276 73.5916C95.5138 73.5984 95.867 73.6286 96.1874 73.6824L99.7552 73.9475C109.399 108.683 111.822 131.787 107.026 143.261L75.8964 142.718C73.9774 146.965 72.1496 150.535 70.4131 153.428L61.9309 153.28C61.5809 127.581 68.0982 105.889 81.4826 88.2019Z" fill="#FF9B21"/>
<path fill-rule="evenodd" clip-rule="evenodd" d="M82.9849 125.089C83.8217 133.257 85.3096 139.201 87.4488 142.92L75.8965 142.718C78.1351 137.764 80.4979 131.887 82.9849 125.089V125.089Z" fill="black" fill-opacity="0.1"/>
<path fill-rule="evenodd" clip-rule="evenodd" d="M174.301 52.6077C170.588 50.4641 166.014 50.4641 162.301 52.6077L131 70.6795C129.989 71.263 129.084 71.9811 128.302 72.8038L163.877 92.5676C165.59 93.5194 167.079 94.7665 168.292 96.2254C169.493 94.7772 170.963 93.5365 172.656 92.5848L208.137 72.6359C207.393 71.8831 206.544 71.2229 205.603 70.6795L174.301 52.6077ZM211.43 79.0444L176.184 98.8608C173.539 100.348 171.901 103.148 171.901 106.183V106.204V139.144C171.901 141.132 170.289 142.744 168.301 142.744C166.313 142.744 164.701 141.132 164.701 139.144V106.204C164.701 103.154 163.047 100.343 160.381 98.8615L125.134 79.2802C125.046 79.8681 125 80.4667 125 81.0718V117.215C125 121.503 127.287 125.464 131 127.608L162.301 145.679C166.014 147.823 170.588 147.823 174.301 145.679L205.603 127.608C209.315 125.464 211.603 121.503 211.603 117.215V81.0718C211.603 80.3856 211.544 79.7078 211.43 79.0444Z" fill="#FFBE60"/>
</svg>
