<svg width="150" height="150" viewBox="0 0 150 150" fill="none" xmlns="http://www.w3.org/2000/svg">
<path fill-rule="evenodd" clip-rule="evenodd" d="M81.3013 28.6077C77.5885 26.4641 73.0141 26.4641 69.3013 28.6077L38 46.6795C36.9894 47.263 36.0845 47.9811 35.3025 48.8038L70.8772 68.5676C72.5904 69.5194 74.0785 70.7665 75.2923 72.2254C76.4927 70.7772 77.9632 69.5365 79.6559 68.5848L115.137 48.6359C114.393 47.8831 113.544 47.2229 112.603 46.6795L81.3013 28.6077ZM118.43 55.0444L83.1845 74.8608C80.5387 76.3484 78.9012 79.1476 78.9012 82.1829V82.2044V115.144C78.9012 117.132 77.2894 118.744 75.3012 118.744C73.313 118.744 71.7012 117.132 71.7012 115.144V82.2044C71.7012 79.1538 70.0473 76.343 67.3806 74.8615L32.1343 55.2802C32.0456 55.8681 32 56.4667 32 57.0718V93.2154C32 97.5026 34.2872 101.464 38 103.608L69.3013 121.679C73.0141 123.823 77.5885 123.823 81.3013 121.679L112.603 103.608C116.315 101.464 118.603 97.5026 118.603 93.2154V57.0718C118.603 56.3856 118.544 55.7078 118.43 55.0444Z" fill="#FFBE60"/>
<path d="M31.5718 51.4629C34.3283 51.5882 36.6791 53.7843 39.1822 54.7414C42.0287 55.8297 44.3785 58.0749 46.9798 59.605C48.0629 60.2421 49.1873 60.7594 50.2681 61.387C51.3614 62.0218 52.3756 62.9449 53.5073 63.4742C55.8192 64.5556 58.1044 65.7917 60.3202 67.058C62.4048 68.2491 64.2433 69.7808 66.4834 70.6909C68.1313 71.3603 69.6692 72.296 71.3471 72.9061C71.8417 73.086 72.5105 73.6163 72.9026 73.93C73.5499 74.4478 73.5031 74.5695 73.6706 75.5742C73.9101 77.0112 74.184 78.4026 74.3204 79.8569C74.8766 85.7905 73.9542 91.8298 74.5468 97.7558C75.0701 102.989 74.9898 108.406 74.9898 113.666C74.9898 115.668 75.1671 117.672 75.1671 119.691C75.1671 120.193 74.9967 121.118 75.3049 121.503C75.5078 121.756 75.6987 122.916 75.6987 123.236" stroke="black" stroke-linecap="round" stroke-linejoin="round"/>
<path d="M74.4581 76.0963C76.65 75.3105 78.5882 73.9016 80.5918 72.739C81.5486 72.1838 82.57 71.7405 83.4962 71.1342C84.8752 70.2316 86.2517 69.3444 87.6509 68.476C89.0297 67.6202 90.4247 66.7742 91.8451 65.9851C94.1295 64.716 96.2122 63.1835 98.5202 61.9583C100.214 61.0591 102.099 60.4414 103.837 59.6151C106.138 58.5204 108.302 56.9226 110.512 55.6376C113.239 54.0521 116.006 52.435 118.496 50.4983C118.872 50.2065 118.759 50.9279 118.762 51.1087C118.781 52.0871 119.076 53.0535 119.195 54.023C119.49 56.4234 119.189 58.838 118.979 61.2298C118.46 67.1305 118.971 73.1267 118.546 79.0302C118.195 83.8992 118.408 88.8367 118.408 93.7195C118.408 95.5248 118.231 97.2707 118.231 99.0458C118.231 99.9015 118.237 99.9524 117.591 100.503C115.103 102.622 112.66 104.109 109.645 105.376C107.541 106.261 105.362 107.016 103.285 107.956C101.102 108.944 99.2625 110.524 97.0631 111.54C93.4863 113.19 90.2273 115.204 86.8633 117.25C83.5536 119.263 79.5565 120.091 76.4075 122.389C76.0121 122.678 74.7503 123.279 74.6354 123.768C74.4155 124.702 70.3432 123.058 69.9194 122.872C68.1887 122.109 66.4932 121.36 64.7112 120.755C63.1043 120.209 61.6774 119.048 60.1725 118.274C59.1833 117.765 58.1042 117.448 57.0909 116.994C55.3556 116.215 53.9684 114.75 52.4833 113.597C50.0128 111.679 46.928 110.681 44.5085 108.665C41.8915 106.484 38.8693 104.767 36.0021 102.856C34.9412 102.149 34.0564 101.344 32.9501 100.69C31.9034 100.072 31.5088 99.7844 31.5914 98.5043C31.9408 93.0895 32.8828 87.6897 33.4817 82.2989C33.7239 80.1189 33.3439 77.8871 33.3439 75.7025C33.3439 73.8253 33.3439 71.9481 33.3439 70.0709C33.3439 67.9218 33.0045 65.6898 32.7729 63.5533C32.6 61.9587 32.6017 60.3196 32.3692 58.7389C32.0793 56.7672 32.2519 54.814 31.9655 52.8809C31.8949 52.404 32.0402 51.8302 31.8376 51.3844C31.6097 50.8832 32.6056 50.4533 32.9107 50.203C34.4346 48.9526 36.0027 47.877 37.8137 47.0721C41.2809 45.5311 44.62 43.2643 47.6 40.9286C49.2249 39.655 51.1836 38.7141 53.0149 37.7781C55.3994 36.5594 57.6007 34.9834 60.0248 33.84C61.9943 32.911 64.0038 32.0572 65.9517 31.0833C67.7611 30.1786 68.887 28.7732 70.4215 27.5389C71.7873 26.4404 73.2938 25.8054 74.8224 25.1367C77.8511 23.8116 81.3537 26.8948 83.6734 28.5628C86.7967 30.8088 89.9281 33.2724 93.2825 35.1592C97.448 37.5023 101.737 39.8868 105.55 42.7796C106.716 43.6639 107.92 44.4362 109.153 45.2212C110.12 45.8363 111.34 46.5505 112.117 47.3872C112.816 48.1403 114.145 48.9558 115.041 49.4744C115.878 49.9592 116.676 50.6013 117.522 51.1087" stroke="black" stroke-linecap="round" stroke-linejoin="round"/>
<path d="M73.2175 73.2607C75.8054 72.6797 78.4621 71.7965 80.9166 70.7895C82.8434 69.999 84.7633 69.4021 86.5678 68.3085C90.4213 65.973 94.9605 64.8645 98.5595 62.096C101.017 60.2055 103.786 58.9962 106.012 56.7697C107.402 55.3804 108.965 54.1959 110.433 52.8906C111.23 52.1818 111.726 51.9324 112.737 51.6796C113.582 51.4683 115.155 51.5263 115.75 50.9314" stroke="black" stroke-linecap="round" stroke-linejoin="round"/>
<path d="M75.5214 75.0327C75.5214 77.3306 75.3559 79.5826 75.0685 81.8654C74.8499 83.6008 74.3624 85.2839 74.1824 87.0244C73.9066 89.6905 74.1036 92.458 74.1036 95.137C74.1036 100.391 73.9264 105.633 73.9264 110.89C73.9264 113.226 73.4763 116.164 74.0642 118.451C74.433 119.885 74.2808 121.404 74.2808 122.881" stroke="black" stroke-linecap="round" stroke-linejoin="round"/>
<path d="M33.1667 53.2354C43.2667 57.8969 52.976 63.5648 62.693 68.919C66.7457 71.1521 71.645 71.7269 75.3443 74.5013" stroke="black" stroke-linecap="round" stroke-linejoin="round"/>
<path d="M31.749 51.1087C34.84 50.0387 37.6793 48.3618 40.6197 46.9441C43.1954 45.7022 45.9658 44.894 48.5846 43.7443C53.1596 41.7358 56.7931 38.6698 60.3203 35.1986C62.692 32.8645 65.5448 31.5201 68.3541 29.8033C69.8348 28.8984 71.3542 28.0229 72.7648 27.0072C73.4959 26.4808 74.0923 25.7753 74.8127 25.2351C75.5711 24.6662 79.41 27.6314 80.1193 28.0705C81.9441 29.2002 83.6109 30.296 85.5835 31.162C87.0499 31.8058 88.6149 32.3021 90.1517 32.7668C92.4948 33.4751 94.6852 34.7063 96.7481 36.0059C101.805 39.1916 105.816 43.5926 110.532 47.2099C111.793 48.1774 112.809 49.3969 114.135 50.3014C114.64 50.6453 115.553 51.2278 115.75 51.8175" stroke="black" stroke-linecap="round" stroke-linejoin="round"/>
<path d="M117.522 52.3491C117.522 57.9274 117.056 63.5786 116.557 69.1355C116.314 71.8384 116.459 74.5952 116.459 77.3071C116.459 79.6541 116.248 82.1155 116.646 84.4352C117.357 88.5877 117.345 92.8965 117.345 97.1062C117.345 98.4031 117.699 99.6521 117.699 100.906" stroke="black" stroke-linecap="round" stroke-linejoin="round"/>
<path d="M117.699 100.906C112.452 102.543 107.35 104.776 102.222 106.755C99.4251 107.834 96.688 109.251 94.0407 110.663C92.1467 111.673 90.3028 112.836 88.419 113.883C86.6152 114.885 84.8271 115.917 83.0434 116.954C80.7587 118.283 78.5863 119.871 76.0926 120.794C75.5315 121.002 75.1554 121.473 74.7241 121.818C74.1408 122.285 73.4603 122.611 72.8633 123.059" stroke="black" stroke-linecap="round" stroke-linejoin="round"/>
<path d="M72.8632 123.058C70.3732 122.679 68.2083 121.288 65.8139 120.577C64.7727 120.268 63.836 119.845 62.8701 119.347C62.1591 118.98 61.296 118.843 60.6254 118.441C59.0125 117.473 57.9624 116.021 56.4706 114.916C54.6083 113.537 53.6272 110.975 51.5972 109.905C48.6631 108.358 45.2052 108.097 42.9234 105.435C42.6554 105.123 41.6256 104.954 41.2399 104.726C39.7218 103.832 38.2684 102.816 36.6125 102.186C35.4261 101.735 34.3348 101.331 33.2651 100.65C32.9159 100.428 31.7048 100.353 31.5816 99.9219C31.3927 99.2609 31.6007 98.4002 31.5323 97.7165C31.4025 96.4181 31.0247 95.1452 30.8235 93.8571C30.2591 90.2454 30.603 86.7109 30.853 83.0863C31.0926 79.6119 31.2173 76.1969 31.2173 72.6994C31.2173 69.2802 31.4885 65.9013 31.5717 62.4898C31.611 60.878 31.5805 59.0924 31.7588 57.4883C31.8817 56.3817 32.3942 54.3802 31.7489 53.4124" stroke="black" stroke-linecap="round" stroke-linejoin="round"/>
<path d="M75.9482 83.8921C76.3894 81.6866 77.789 80.2937 78.8391 78.3905C79.3905 77.391 80.6312 74.2817 81.4129 73.5" stroke="black" stroke-linecap="round" stroke-linejoin="round"/>
<path d="M75.9482 87.8533C76.3056 86.1857 77.5444 84.989 78.509 83.6321C79.4475 82.3119 80.2774 80.9579 81.1698 79.6108C82.7353 77.2479 85.3313 72.8723 86.9129 70.5" stroke="black" stroke-linecap="round" stroke-linejoin="round"/>
<path d="M76.1284 93.9752C76.4591 92.4121 77.4523 91.1181 78.3091 89.7939C79.2487 88.3418 79.781 86.3076 80.913 85C83.1628 82.4011 84.7754 80.525 86.413 77.5C88.6113 73.4392 90.7336 70.2512 93.413 66.5" stroke="black" stroke-linecap="round" stroke-linejoin="round"/>
<path d="M76.4885 100.097C76.7641 98.4434 77.5445 97.1706 78.4191 95.7557C79.1732 94.5359 81.3528 91.3153 81.913 90C83.6562 85.9073 85.6903 84.3221 87.913 80.5C90.6798 75.7422 95.1441 69.7467 97.913 65" stroke="black" stroke-linecap="round" stroke-linejoin="round"/>
<path d="M76.3083 104.598C77.5584 102.098 78.9556 99.877 80.5496 97.6163C81.6187 96.1002 82.7459 94.6241 83.8306 93.115C86.3045 89.673 88.1881 85.8829 90.4326 82.2917C92.5136 78.9621 94.9101 75.8361 96.9246 72.4787C98.2517 70.2669 99.5349 68.0349 100.986 65.8967C101.996 64.4085 102.943 62.8392 104.217 61.5654" stroke="black" stroke-linecap="round" stroke-linejoin="round"/>
<path d="M76.6685 109.1C78.2731 105.722 80.8465 102.987 83.1104 100.057C84.9601 97.6635 86.3554 95.035 87.7418 92.3649C88.8398 90.2502 90.4004 88.468 91.793 86.5531C93.4461 84.2801 94.7836 81.7833 96.3844 79.471C98.0973 76.9968 99.7512 74.6342 101.756 72.3888C102.166 71.9297 102.219 71.5424 102.446 70.9884C103.028 69.5693 103.94 68.2871 104.577 66.8872C105.503 64.8521 106.52 62.8694 107.468 60.8554C107.874 59.993 108.399 58.8233 109.078 58.1445" stroke="black" stroke-linecap="round" stroke-linejoin="round"/>
<path d="M76.8486 113.601C78.5032 110.025 81.1166 107.162 83.0605 103.778C84.7242 100.882 86.3189 98.1427 88.5122 95.5957C90.4504 93.3449 91.9453 90.7499 93.7737 88.4136C95.5531 86.14 97.1772 83.769 98.9153 81.4515C100.51 79.3254 102.064 77.0652 103.417 74.7794C105.152 71.8473 107.75 69.5518 109.438 66.567C110.228 65.1718 111.17 63.852 112.099 62.5458C112.818 61.5349 113.909 60.6916 114.37 59.5148C114.964 57.9972 116.021 56.2435 117.181 55.0835" stroke="black" stroke-linecap="round" stroke-linejoin="round"/>
<path d="M76.4885 117.562C79.7086 112.809 83.8251 108.81 87.0717 104.098C89.0149 101.278 90.8689 98.3488 92.6834 95.4455C94.0089 93.3248 95.1471 91.2364 96.6946 89.2537C98.3391 87.1467 99.7127 84.8621 101.056 82.5517C102.539 80.0013 104.413 77.7659 105.987 75.2795C107.635 72.6787 109.218 70.0634 111.059 67.5871C112.761 65.2968 114.165 62.387 116.461 60.665" stroke="black" stroke-linecap="round" stroke-linejoin="round"/>
<path d="M80.9897 117.202C83.2382 113.435 86.2978 110.056 89.3723 106.939C91.4243 104.859 92.8186 100.047 94.9129 98C96.8711 96.0862 98.2739 94.4468 99.4129 92C100.737 89.1545 102.591 87.5722 103.867 84.7024C104.981 82.1943 106.179 81.1259 107.913 79C109.163 77.467 110.414 76.2001 111.413 74.5C112.199 73.1612 112.968 71.203 113.913 70C114.348 69.4459 115.9 67.5125 116.413 67" stroke="black" stroke-linecap="round" stroke-linejoin="round"/>
<path d="M89.6323 111.801C92.5707 107.468 95.7807 103.201 98.455 98.6966C100.354 95.4981 102.902 92.7232 104.937 89.6139C107.122 86.2751 109.652 83.2855 111.999 80.071C112.85 78.9052 113.962 77.9279 114.98 76.91C115.32 76.5698 115.749 75.7851 116.1 75.6096" stroke="black" stroke-linecap="round" stroke-linejoin="round"/>
<path d="M95.9343 108.92C97.7875 104.716 101 101.231 103.677 97.5362C104.843 95.9264 106.197 94.4593 107.338 92.8348C108.107 91.7395 108.84 90.5835 109.708 89.5638C111.991 86.8839 114.157 84.286 116.1 81.3713" stroke="black" stroke-linecap="round" stroke-linejoin="round"/>
<path d="M101.696 106.579C103.457 103.271 106.08 100.271 108.368 97.2964C109.453 95.8862 110.561 94.1133 111.949 92.9851C112.83 92.2694 113.67 90.9417 114.3 90.0142C114.816 89.255 115.272 88.7173 115.56 87.8535" stroke="black" stroke-linecap="round" stroke-linejoin="round"/>
<path d="M107.458 103.878C108.637 102.345 109.99 100.995 111.059 99.3769C111.416 98.8364 111.683 98.2247 112.139 97.7564C112.558 97.3266 113.095 97.0309 113.49 96.576C114.408 95.5168 115.292 92.8042 116.641 92.3547" stroke="black" stroke-linecap="round" stroke-linejoin="round"/>
<path d="M114.12 100.097C114.846 98.4108 116.091 97.3084 117.041 95.8158C117.39 95.2669 117.693 94.6731 118.081 94.1553" stroke="black" stroke-linecap="round" stroke-linejoin="round"/>
</svg>
