<svg width="100" height="100" viewBox="0 0 100 100" fill="none" xmlns="http://www.w3.org/2000/svg">
<path fill-rule="evenodd" clip-rule="evenodd" d="M56 3.46409C52.2872 1.3205 47.7128 1.3205 44 3.46409L12.6987 21.5359C11.6882 22.1194 10.7832 22.8375 10.0012 23.6602L45.576 43.424C47.2892 44.3758 48.7773 45.6229 49.991 47.0818C51.1915 45.6336 52.6619 44.3929 54.3546 43.4412L89.836 23.4923C89.092 22.7395 88.2425 22.0793 87.3013 21.5359L56 3.46409ZM93.129 29.9008L57.8832 49.7172C55.2374 51.2048 53.5999 54.004 53.5999 57.0393V57.0608V90C53.5999 91.9882 51.9882 93.6 49.9999 93.6C48.0117 93.6 46.3999 91.9882 46.3999 90V57.0608C46.3999 54.0102 44.7461 51.1994 42.0793 49.7179L6.83299 30.1366C6.74429 30.7245 6.69873 31.3231 6.69873 31.9282V68.0718C6.69873 72.359 8.98592 76.3205 12.6987 78.4641L44 96.5359C47.7128 98.6795 52.2872 98.6795 56 96.5359L87.3013 78.4641C91.0141 76.3205 93.3013 72.359 93.3013 68.0718V31.9282C93.3013 31.242 93.2427 30.5642 93.129 29.9008Z" fill="black"/>
</svg>
