<svg width="250" height="250" viewBox="0 0 250 250" fill="none" xmlns="http://www.w3.org/2000/svg">
<path fill-rule="evenodd" clip-rule="evenodd" d="M83.3801 126.169C84.3123 138.843 144.367 176.157 144.718 177.204C144.873 177.669 138.642 192.378 126.025 221.331L131.274 223.363C150.628 192.7 159.807 175.735 158.813 172.468C157.39 167.79 141.858 152.402 112.217 126.304L83.3801 126.169Z" fill="#B28B67"/>
<path fill-rule="evenodd" clip-rule="evenodd" d="M127.406 214.792L135.977 217.9C154.05 197.587 161.135 180.827 159.843 172.287C158.982 166.594 143.503 151.232 113.408 126.2L82.7656 126.2C83.8111 155.551 139.474 177.316 140.219 178.567C140.963 179.818 133.636 192.068 127.406 214.792Z" fill="#A84B18"/>
<path fill-rule="evenodd" clip-rule="evenodd" d="M124.08 220.361C123.008 221.614 122.341 222.601 122.079 223.321C121.76 224.197 121.441 225.529 121.121 227.316C122.137 227.686 131.271 231.01 148.522 237.289C150.091 235.194 150.143 233.774 148.677 233.028C147.211 232.282 145.998 231.648 145.038 231.128L134.369 220.814C134.164 220.616 133.837 220.621 133.638 220.827C133.635 220.83 133.631 220.834 133.628 220.837L132.087 222.525C130.425 222.671 129.151 222.582 128.263 222.259C127.541 221.997 126.651 221.343 125.592 220.297L125.592 220.297C125.185 219.896 124.531 219.9 124.13 220.307C124.112 220.324 124.096 220.342 124.08 220.361Z" fill="#E4E4E4"/>
<path fill-rule="evenodd" clip-rule="evenodd" d="M90.2854 126.169L63.5326 190.147L37.2388 244.234H43.4423L111.314 126.169H90.2854Z" fill="#997659"/>
<path fill-rule="evenodd" clip-rule="evenodd" d="M36.8676 241.788C36.2892 243.332 36 244.487 36 245.254C36 246.186 36.1553 247.547 36.4659 249.335C37.5475 249.335 47.2675 249.335 65.6259 249.335C66.3836 246.83 65.9462 245.478 64.3136 245.278C62.681 245.078 61.3247 244.898 60.2449 244.737L46.6916 238.695C46.4308 238.579 46.1252 238.696 46.0089 238.957C46.0069 238.961 46.005 238.965 46.0031 238.97L45.1319 241.083C43.6206 241.788 42.3924 242.141 41.4475 242.141C40.6798 242.141 39.6195 241.831 38.2668 241.211L38.2668 241.211C37.7477 240.973 37.1339 241.201 36.8959 241.72C36.8857 241.742 36.8762 241.765 36.8676 241.788Z" fill="#E4E4E4"/>
<path fill-rule="evenodd" clip-rule="evenodd" d="M39.613 232.998L53.3974 235.573C64.0555 219.965 108.66 155.963 113.55 126.169H82.8632C66.5315 147.707 49.7724 217.131 39.613 232.998Z" fill="#CC5411"/>
<path fill-rule="evenodd" clip-rule="evenodd" d="M99.8564 63.9125C98.2154 60.6469 97.4726 56.9611 98.6548 53.3333C102.061 42.8807 116.421 48.9474 117.989 55.0426C119.557 61.1378 115.816 74.6741 111.819 74.6972C110.226 74.7064 107.268 72.973 104.503 70.2224L102.977 85.0283L90.9377 82.0265L99.8564 63.9125Z" fill="#B28B67"/>
<path fill-rule="evenodd" clip-rule="evenodd" d="M118.525 57.7374C118.579 57.0115 118.48 56.1658 118.409 55.4486C118.318 54.524 118.05 53.6441 117.725 52.7968C117.113 51.2015 116.278 49.6906 115.273 48.3587C113.437 45.9258 110.776 44.1233 107.811 43.7538C106.313 43.5672 104.765 43.7649 103.336 44.3802C102.045 44.9361 100.698 45.8925 99.2706 45.6296C97.718 45.3435 96.65 43.6565 95.6298 42.5248C94.4795 41.2488 93.178 40.2035 91.6279 39.5369C89.0312 38.4203 86.2624 38.6927 83.848 40.4287C81.2789 42.2761 78.9793 45.3514 79.5092 48.7801C79.6077 49.4175 79.7981 49.9816 80.145 50.4962C80.4632 50.9682 80.9918 51.5177 81.0109 52.1499C81.0311 52.8218 80.3013 53.5001 79.9553 54.0156C79.4597 54.7541 79.0065 55.5461 78.8722 56.4496C78.6516 57.9335 79.2253 59.5456 79.9579 60.7397C80.7034 61.9549 81.7797 62.8134 83.0135 63.3931C83.8373 63.7802 84.6992 64.0953 85.5958 64.2507C86.0409 64.3278 86.4567 64.3036 86.9041 64.3135C87.3392 64.3231 87.5423 64.4889 87.836 64.7999C89.2 66.2449 90.8451 67.0825 92.7581 67.3952C94.3727 67.659 96.2908 67.7336 97.8492 66.9811C99.5798 66.1452 99.9615 64.4928 100.063 62.6508C100.376 62.9154 101.338 63.2705 100.921 62.4237C100.756 62.0882 100.342 61.8653 100.083 61.6274C99.7804 61.3505 99.4866 61.0168 99.2923 60.6396C98.5077 59.1165 100.249 56.8492 101.731 56.7736C103.933 56.6613 103.676 59.6448 104.953 60.7513C105.686 61.3875 106.711 61.0234 107.489 60.5848C108.531 59.9971 109.369 59.0835 110.133 58.1316C110.763 57.3477 111.367 56.5443 112.003 55.7668C112.3 55.4037 113.264 54.4081 113.042 53.8584C114.58 53.9342 116.063 54.9452 117.128 56.0519C117.568 56.5094 117.876 56.9696 118.01 57.6169C118.039 57.7556 118.077 58.1561 118.236 58.2119C118.533 58.3157 118.511 57.9198 118.525 57.7374Z" fill="#191847"/>
<path fill-rule="evenodd" clip-rule="evenodd" d="M132.692 121.693L148.971 134.03C153.422 135.309 157.132 136.868 160.102 138.707C160.799 139.362 161.633 140.679 158.697 140.403C155.762 140.126 152.662 139.967 152.239 140.958C151.816 141.948 153.574 143.173 152.73 144.504C152.168 145.392 149.625 143.097 145.101 137.618L128.89 130.596L132.692 121.693ZM69.3754 121.004L80.177 121.235C73.1331 142.544 69.3338 153.85 68.7793 155.151C67.5317 158.08 69.9845 162.617 71.0248 165.05C67.4719 166.558 67.949 160.751 63.4659 162.732C59.3738 164.541 56.2265 167.892 51.5869 164.93C51.0165 164.566 50.4079 163.222 51.9527 162.207C55.8014 159.679 61.3616 155.232 62.1283 153.75C63.1737 151.729 65.5895 140.814 69.3754 121.004Z" fill="#B28B67"/>
<path fill-rule="evenodd" clip-rule="evenodd" d="M100.862 76.4353L105.345 75.7504C121.681 90.2961 128.014 117.803 148.09 132.666L143.092 138.616C107.901 133.655 99.7428 100.096 100.862 76.4353Z" fill="#E87613"/>
<path fill-rule="evenodd" clip-rule="evenodd" d="M80.4003 131.991C98.3229 132.304 111.506 132.534 119.951 132.682C121.758 132.713 121.463 130.111 121.225 128.796C118.473 113.62 106.988 97.1129 107.364 75.5858L95.9865 73.6065C86.2868 88.5432 82.6991 107.079 80.4003 131.991Z" fill="#DDE3E9"/>
<path fill-rule="evenodd" clip-rule="evenodd" d="M81.4826 88.2019C79.834 87.699 78.5412 86.5707 77.6042 84.8171C73.5652 77.2575 75.143 73.1617 79.6228 71.8845C84.1026 70.6074 88.0278 73.4677 95.1276 73.5916C95.5138 73.5984 95.867 73.6286 96.1874 73.6824L99.7552 73.9475C109.399 108.683 111.822 131.787 107.026 143.261L75.8964 142.718C73.9774 146.965 72.1496 150.535 70.4131 153.428L61.9309 153.28C61.5809 127.581 68.0982 105.889 81.4826 88.2019Z" fill="#FF9B21"/>
<path fill-rule="evenodd" clip-rule="evenodd" d="M82.9849 125.089C83.8217 133.257 85.3096 139.201 87.4488 142.92L75.8965 142.718C78.1351 137.764 80.4979 131.887 82.9849 125.089V125.089Z" fill="black" fill-opacity="0.1"/>
<path fill-rule="evenodd" clip-rule="evenodd" d="M174.301 52.6077C170.588 50.4641 166.014 50.4641 162.301 52.6077L131 70.6795C129.989 71.263 129.084 71.9811 128.302 72.8038L163.877 92.5676C165.59 93.5194 167.079 94.7665 168.292 96.2254C169.493 94.7772 170.963 93.5365 172.656 92.5848L208.137 72.6359C207.393 71.8831 206.544 71.2229 205.603 70.6795L174.301 52.6077ZM211.43 79.0444L176.184 98.8608C173.539 100.348 171.901 103.148 171.901 106.183V106.204V139.144C171.901 141.132 170.289 142.744 168.301 142.744C166.313 142.744 164.701 141.132 164.701 139.144V106.204C164.701 103.154 163.047 100.343 160.381 98.8615L125.134 79.2802C125.046 79.8681 125 80.4667 125 81.0718V117.215C125 121.503 127.287 125.464 131 127.608L162.301 145.679C166.014 147.823 170.588 147.823 174.301 145.679L205.603 127.608C209.315 125.464 211.603 121.503 211.603 117.215V81.0718C211.603 80.3856 211.544 79.7078 211.43 79.0444Z" fill="#FFBE60"/>
</svg>
