<svg width="387" height="100" viewBox="0 0 387 100" fill="none" xmlns="http://www.w3.org/2000/svg">
<path fill-rule="evenodd" clip-rule="evenodd" d="M56 3.46408C52.2872 1.32049 47.7128 1.32049 44 3.46408L12.6987 21.5359C11.6882 22.1193 10.7832 22.8375 10.0012 23.6602L45.576 43.424C47.2892 44.3757 48.7773 45.6229 49.991 47.0818C51.1915 45.6336 52.6619 44.3929 54.3546 43.4412L89.836 23.4922C89.092 22.7395 88.2425 22.0793 87.3013 21.5359L56 3.46408ZM93.129 29.9007L57.8832 49.7172C55.2374 51.2048 53.5999 54.004 53.5999 57.0393V57.0608V90C53.5999 91.9882 51.9882 93.6 49.9999 93.6C48.0117 93.6 46.3999 91.9882 46.3999 90V57.0608C46.3999 54.0102 44.7461 51.1994 42.0793 49.7179L6.83299 30.1366C6.74429 30.7245 6.69873 31.3231 6.69873 31.9282V68.0718C6.69873 72.359 8.98592 76.3205 12.6987 78.4641L44 96.5359C47.7128 98.6795 52.2872 98.6795 56 96.5359L87.3013 78.4641C91.0141 76.3205 93.3013 72.359 93.3013 68.0718V31.9282C93.3013 31.242 93.2427 30.5641 93.129 29.9007Z" fill="white"/>
<path d="M124.928 73H150.848V65.064H134.336V31.272H124.928V73ZM157.285 73H166.693V41.256H157.285V73ZM161.957 36.584C165.157 36.584 167.397 34.536 167.397 31.656C167.397 28.776 165.157 26.792 161.957 26.792C158.821 26.792 156.517 28.776 156.517 31.656C156.517 34.536 158.821 36.584 161.957 36.584ZM191.613 73.768C198.461 73.768 204.989 67.496 204.989 56.552C204.989 46.824 200.189 40.488 192.509 40.488C189.565 40.488 186.557 41.832 184.125 44.008L184.381 39.144V28.136H174.973V73H182.333L183.101 69.608H183.357C185.853 72.36 188.797 73.768 191.613 73.768ZM189.437 66.088C187.837 66.088 186.045 65.576 184.381 64.04V51.048C186.173 49.064 187.901 48.168 189.821 48.168C193.597 48.168 195.325 51.048 195.325 56.744C195.325 63.272 192.701 66.088 189.437 66.088ZM211.66 73H221.068V54.568C222.732 50.28 225.676 48.744 228.044 48.744C229.388 48.744 230.348 48.936 231.5 49.256L233.036 41.128C232.14 40.744 231.052 40.488 229.26 40.488C225.996 40.488 222.54 42.536 220.236 46.824H219.98L219.34 41.256H211.66V73ZM243.348 73.768C246.932 73.768 249.876 72.104 252.564 69.736H252.82L253.46 73H261.14V54.824C261.14 45.096 256.66 40.488 248.532 40.488C243.54 40.488 238.996 42.216 234.964 44.648L238.356 50.856C241.428 49.064 244.052 47.976 246.74 47.976C250.196 47.976 251.54 49.768 251.732 52.584C239.188 53.864 233.876 57.512 233.876 64.168C233.876 69.544 237.524 73.768 243.348 73.768ZM246.548 66.472C244.308 66.472 242.9 65.512 242.9 63.464C242.9 61.032 245.076 59.112 251.732 58.216V63.784C250.068 65.448 248.66 66.472 246.548 66.472ZM269.098 73H278.506V54.568C280.17 50.28 283.114 48.744 285.482 48.744C286.826 48.744 287.786 48.936 288.938 49.256L290.474 41.128C289.578 40.744 288.49 40.488 286.698 40.488C283.434 40.488 279.978 42.536 277.674 46.824H277.418L276.778 41.256H269.098V73ZM294.598 73H304.006V41.256H294.598V73ZM299.27 36.584C302.47 36.584 304.71 34.536 304.71 31.656C304.71 28.776 302.47 26.792 299.27 26.792C296.134 26.792 293.83 28.776 293.83 31.656C293.83 34.536 296.134 36.584 299.27 36.584ZM326.493 73.768C330.269 73.768 334.493 72.424 337.757 70.184L334.621 64.488C332.317 65.896 330.141 66.6 327.773 66.6C323.549 66.6 320.349 64.488 319.517 59.88H338.525C338.717 59.112 338.909 57.384 338.909 55.72C338.909 47.08 334.429 40.488 325.405 40.488C317.789 40.488 310.429 46.824 310.429 57.128C310.429 67.624 317.405 73.768 326.493 73.768ZM319.453 53.672C320.093 49.64 322.653 47.656 325.597 47.656C329.373 47.656 330.909 50.152 330.909 53.672H319.453ZM354.754 73.768C363.266 73.768 367.81 69.288 367.81 63.528C367.81 57.704 363.266 55.464 359.234 53.992C355.97 52.776 353.026 52.008 353.026 49.96C353.026 48.36 354.178 47.464 356.61 47.464C358.85 47.464 361.026 48.488 363.33 50.152L367.554 44.52C364.802 42.472 361.218 40.488 356.354 40.488C348.994 40.488 344.194 44.52 344.194 50.408C344.194 55.656 348.738 58.28 352.578 59.752C355.842 61.032 359.042 61.992 359.042 64.104C359.042 65.768 357.826 66.792 355.01 66.792C352.322 66.792 349.698 65.64 346.818 63.464L342.594 69.352C345.794 71.976 350.594 73.768 354.754 73.768Z" fill="white"/>
</svg>
