<svg width="320" height="160" viewBox="0 0 320 160" fill="none" xmlns="http://www.w3.org/2000/svg">
<rect width="320" height="160" fill="#FFAD4C"/>
<path d="M42.604 85.824C42.856 84.996 43.084 84.108 43.3 83.232H43.348C43.576 84.096 43.804 84.996 44.056 85.824L44.332 86.784H42.328L42.604 85.824ZM39.976 90H41.392L42.004 87.876H44.644L45.256 90H46.72L44.164 82.152H42.532L39.976 90ZM51.6138 90.144C53.1018 90.144 53.9058 89.328 53.9058 88.32C53.9058 87.216 53.0178 86.832 52.2138 86.532C51.5778 86.304 50.9898 86.124 50.9898 85.656C50.9898 85.284 51.2658 85.008 51.8538 85.008C52.3218 85.008 52.7418 85.212 53.1498 85.512L53.7858 84.672C53.3058 84.3 52.6458 83.964 51.8298 83.964C50.5098 83.964 49.6818 84.696 49.6818 85.728C49.6818 86.712 50.5578 87.156 51.3378 87.444C51.9618 87.684 52.5978 87.9 52.5978 88.392C52.5978 88.8 52.2978 89.1 51.6618 89.1C51.0618 89.1 50.5578 88.848 50.0298 88.44L49.3818 89.328C49.9578 89.796 50.8098 90.144 51.6138 90.144ZM57.6577 90.144C58.4017 90.144 59.1097 89.88 59.6737 89.508L59.2057 88.644C58.7737 88.92 58.3417 89.076 57.8377 89.076C56.8897 89.076 56.2177 88.476 56.0977 87.432H59.8417C59.8777 87.288 59.9017 87.024 59.9017 86.76C59.9017 85.116 59.0617 83.964 57.4657 83.964C56.0857 83.964 54.7537 85.14 54.7537 87.06C54.7537 89.004 56.0257 90.144 57.6577 90.144ZM56.0857 86.496C56.2057 85.548 56.8057 85.032 57.5017 85.032C58.3057 85.032 58.7017 85.584 58.7017 86.496H56.0857ZM63.1786 90.144C63.6466 90.144 64.0546 90.036 64.3786 89.928L64.1386 88.908C63.9706 88.98 63.7306 89.04 63.5266 89.04C62.9626 89.04 62.6986 88.704 62.6986 88.008V85.2H64.1986V84.108H62.6986V82.5H61.5466L61.3786 84.108L60.4666 84.168V85.2H61.3066V88.008C61.3066 89.28 61.8106 90.144 63.1786 90.144ZM70.2528 90.144C71.7288 90.144 73.0608 89.016 73.0608 87.06C73.0608 85.092 71.7288 83.964 70.2528 83.964C68.7888 83.964 67.4568 85.092 67.4568 87.06C67.4568 89.016 68.7888 90.144 70.2528 90.144ZM70.2528 89.016C69.3888 89.016 68.8728 88.236 68.8728 87.06C68.8728 85.872 69.3888 85.092 70.2528 85.092C71.1168 85.092 71.6448 85.872 71.6448 87.06C71.6448 88.236 71.1168 89.016 70.2528 89.016ZM74.6199 90H75.9999V85.2H77.1519V84.108H75.9999V83.472C75.9999 82.788 76.2639 82.476 76.7439 82.476C76.9479 82.476 77.1759 82.524 77.3919 82.62L77.6559 81.588C77.3919 81.48 76.9959 81.384 76.5759 81.384C75.1839 81.384 74.6199 82.272 74.6199 83.496V84.108L73.8279 84.168V85.2H74.6199V90ZM82.3428 90.144C83.1468 90.144 83.7228 89.748 84.2388 89.136H84.2748L84.3828 90H85.5108V84.108H84.1308V88.14C83.6868 88.716 83.3388 88.956 82.8228 88.956C82.1868 88.956 81.9108 88.596 81.9108 87.624V84.108H80.5308V87.804C80.5308 89.292 81.0828 90.144 82.3428 90.144ZM88.9028 90.144C90.3908 90.144 91.1948 89.328 91.1948 88.32C91.1948 87.216 90.3068 86.832 89.5028 86.532C88.8668 86.304 88.2788 86.124 88.2788 85.656C88.2788 85.284 88.5548 85.008 89.1428 85.008C89.6108 85.008 90.0308 85.212 90.4388 85.512L91.0748 84.672C90.5948 84.3 89.9348 83.964 89.1188 83.964C87.7988 83.964 86.9708 84.696 86.9708 85.728C86.9708 86.712 87.8468 87.156 88.6268 87.444C89.2508 87.684 89.8868 87.9 89.8868 88.392C89.8868 88.8 89.5868 89.1 88.9508 89.1C88.3508 89.1 87.8468 88.848 87.3188 88.44L86.6708 89.328C87.2468 89.796 88.0988 90.144 88.9028 90.144ZM94.9468 90.144C95.6908 90.144 96.3988 89.88 96.9628 89.508L96.4948 88.644C96.0628 88.92 95.6308 89.076 95.1268 89.076C94.1788 89.076 93.5068 88.476 93.3868 87.432H97.1308C97.1668 87.288 97.1908 87.024 97.1908 86.76C97.1908 85.116 96.3508 83.964 94.7548 83.964C93.3748 83.964 92.0428 85.14 92.0428 87.06C92.0428 89.004 93.3148 90.144 94.9468 90.144ZM93.3748 86.496C93.4948 85.548 94.0948 85.032 94.7908 85.032C95.5948 85.032 95.9908 85.584 95.9908 86.496H93.3748ZM98.7019 90H100.082V85.2H101.234V84.108H100.082V83.472C100.082 82.788 100.346 82.476 100.826 82.476C101.03 82.476 101.258 82.524 101.474 82.62L101.738 81.588C101.474 81.48 101.078 81.384 100.658 81.384C99.2659 81.384 98.7019 82.272 98.7019 83.496V84.108L97.9099 84.168V85.2H98.7019V90ZM104.023 90.144C104.827 90.144 105.403 89.748 105.919 89.136H105.955L106.063 90H107.191V84.108H105.811V88.14C105.367 88.716 105.019 88.956 104.503 88.956C103.867 88.956 103.591 88.596 103.591 87.624V84.108H102.211V87.804C102.211 89.292 102.763 90.144 104.023 90.144ZM110.283 90.144C110.607 90.144 110.847 90.096 111.015 90.024L110.835 88.992C110.727 89.016 110.679 89.016 110.619 89.016C110.475 89.016 110.319 88.896 110.319 88.56V81.528H108.939V88.488C108.939 89.508 109.299 90.144 110.283 90.144ZM118.345 90.144C118.669 90.144 118.909 90.096 119.077 90.024L118.897 88.992C118.789 89.016 118.741 89.016 118.681 89.016C118.537 89.016 118.381 88.896 118.381 88.56V81.528H117.001V88.488C117.001 89.508 117.361 90.144 118.345 90.144ZM120.259 90H121.639V84.108H120.259V90ZM120.955 83.076C121.447 83.076 121.807 82.752 121.807 82.296C121.807 81.828 121.447 81.504 120.955 81.504C120.463 81.504 120.103 81.828 120.103 82.296C120.103 82.752 120.463 83.076 120.955 83.076ZM126.255 90.144C127.563 90.144 128.775 88.98 128.775 86.952C128.775 85.14 127.923 83.964 126.447 83.964C125.847 83.964 125.235 84.264 124.743 84.696L124.779 83.712V81.528H123.399V90H124.491L124.611 89.376H124.647C125.139 89.868 125.715 90.144 126.255 90.144ZM125.967 89.004C125.619 89.004 125.199 88.872 124.779 88.512V85.764C125.235 85.32 125.643 85.104 126.075 85.104C126.963 85.104 127.347 85.8 127.347 86.976C127.347 88.308 126.747 89.004 125.967 89.004ZM130.161 90H131.541V86.4C131.901 85.512 132.465 85.188 132.933 85.188C133.185 85.188 133.341 85.224 133.545 85.284L133.785 84.084C133.605 84 133.413 83.964 133.113 83.964C132.489 83.964 131.865 84.384 131.445 85.152H131.397L131.301 84.108H130.161V90ZM135.749 90.144C136.445 90.144 137.045 89.796 137.573 89.352H137.621L137.717 90H138.857V86.508C138.857 84.864 138.125 83.964 136.661 83.964C135.725 83.964 134.885 84.324 134.237 84.732L134.741 85.656C135.269 85.344 135.821 85.08 136.397 85.08C137.201 85.08 137.453 85.608 137.477 86.232C135.053 86.496 134.009 87.156 134.009 88.416C134.009 89.448 134.717 90.144 135.749 90.144ZM136.193 89.064C135.701 89.064 135.341 88.836 135.341 88.308C135.341 87.72 135.869 87.3 137.477 87.096V88.416C137.033 88.824 136.673 89.064 136.193 89.064ZM140.509 90H141.889V86.4C142.249 85.512 142.813 85.188 143.281 85.188C143.533 85.188 143.689 85.224 143.893 85.284L144.133 84.084C143.953 84 143.761 83.964 143.461 83.964C142.837 83.964 142.213 84.384 141.793 85.152H141.745L141.649 84.108H140.509V90ZM144.985 90H146.365V84.108H144.985V90ZM145.681 83.076C146.173 83.076 146.533 82.752 146.533 82.296C146.533 81.828 146.173 81.504 145.681 81.504C145.189 81.504 144.829 81.828 144.829 82.296C144.829 82.752 145.189 83.076 145.681 83.076ZM150.646 90.144C151.39 90.144 152.098 89.88 152.662 89.508L152.194 88.644C151.762 88.92 151.33 89.076 150.826 89.076C149.878 89.076 149.206 88.476 149.086 87.432H152.83C152.866 87.288 152.89 87.024 152.89 86.76C152.89 85.116 152.05 83.964 150.454 83.964C149.074 83.964 147.742 85.14 147.742 87.06C147.742 89.004 149.014 90.144 150.646 90.144ZM149.074 86.496C149.194 85.548 149.794 85.032 150.49 85.032C151.294 85.032 151.69 85.584 151.69 86.496H149.074ZM155.852 90.144C157.34 90.144 158.144 89.328 158.144 88.32C158.144 87.216 157.256 86.832 156.452 86.532C155.816 86.304 155.228 86.124 155.228 85.656C155.228 85.284 155.504 85.008 156.092 85.008C156.56 85.008 156.98 85.212 157.388 85.512L158.024 84.672C157.544 84.3 156.884 83.964 156.068 83.964C154.748 83.964 153.92 84.696 153.92 85.728C153.92 86.712 154.796 87.156 155.576 87.444C156.2 87.684 156.836 87.9 156.836 88.392C156.836 88.8 156.536 89.1 155.9 89.1C155.3 89.1 154.796 88.848 154.268 88.44L153.62 89.328C154.196 89.796 155.048 90.144 155.852 90.144Z" fill="white"/>
<path fill-rule="evenodd" clip-rule="evenodd" d="M64.5539 22.7321C62.6975 21.6603 60.4103 21.6603 58.5539 22.7321L43 31.7121C42.4953 32.0035 42.0432 32.3621 41.6525 32.7729L59.3558 42.6081C60.2066 43.0808 60.9459 43.6996 61.5496 44.4233C62.1466 43.7049 62.8772 43.0893 63.7177 42.6167L81.3744 32.6895C81.0026 32.3135 80.5781 31.9836 80.1078 31.7121L64.5539 22.7321ZM83.0215 35.8934L65.482 45.7547C64.1676 46.4938 63.354 47.8844 63.354 49.3924L63.354 49.4031V65.7991C63.354 66.669 62.737 67.3947 61.9168 67.5626C61.7996 67.5865 61.6783 67.5991 61.554 67.5991C60.5599 67.5991 59.754 66.7932 59.754 65.7991V49.4031C59.754 47.8876 58.9324 46.4911 57.6075 45.7551L40.0674 36.0106C40.0229 36.3051 40 36.6051 40 36.9083V54.8684C40 57.012 41.1436 58.9928 43 60.0646L58.5539 69.0446C60.4103 70.1164 62.6975 70.1164 64.5539 69.0446L80.1079 60.0646C81.9643 58.9928 83.1079 57.012 83.1079 54.8684V36.9083C83.1079 36.5648 83.0785 36.2255 83.0215 35.8934Z" fill="white"/>
<path d="M98.7653 57H111.725V53.032H103.469V36.136H98.7653V57ZM114.944 57H119.648V41.128H114.944V57ZM117.28 38.792C118.88 38.792 120 37.768 120 36.328C120 34.888 118.88 33.896 117.28 33.896C115.712 33.896 114.56 34.888 114.56 36.328C114.56 37.768 115.712 38.792 117.28 38.792ZM132.108 57.384C135.532 57.384 138.796 54.248 138.796 48.776C138.796 43.912 136.396 40.744 132.556 40.744C131.084 40.744 129.58 41.416 128.364 42.504L128.492 40.072V34.568H123.788V57H127.468L127.852 55.304H127.98C129.228 56.68 130.7 57.384 132.108 57.384ZM131.02 53.544C130.22 53.544 129.324 53.288 128.492 52.52V46.024C129.388 45.032 130.252 44.584 131.212 44.584C133.1 44.584 133.964 46.024 133.964 48.872C133.964 52.136 132.652 53.544 131.02 53.544ZM142.131 57H146.835V47.784C147.667 45.64 149.139 44.872 150.323 44.872C150.995 44.872 151.475 44.968 152.051 45.128L152.819 41.064C152.371 40.872 151.827 40.744 150.931 40.744C149.299 40.744 147.571 41.768 146.419 43.912H146.291L145.971 41.128H142.131V57ZM157.975 57.384C159.767 57.384 161.239 56.552 162.583 55.368H162.711L163.031 57H166.871V47.912C166.871 43.048 164.631 40.744 160.567 40.744C158.071 40.744 155.799 41.608 153.783 42.824L155.479 45.928C157.015 45.032 158.327 44.488 159.671 44.488C161.399 44.488 162.071 45.384 162.167 46.792C155.895 47.432 153.239 49.256 153.239 52.584C153.239 55.272 155.063 57.384 157.975 57.384ZM159.575 53.736C158.455 53.736 157.751 53.256 157.751 52.232C157.751 51.016 158.839 50.056 162.167 49.608V52.392C161.335 53.224 160.631 53.736 159.575 53.736ZM170.85 57H175.554V47.784C176.386 45.64 177.858 44.872 179.042 44.872C179.714 44.872 180.194 44.968 180.77 45.128L181.538 41.064C181.09 40.872 180.546 40.744 179.65 40.744C178.018 40.744 176.29 41.768 175.138 43.912H175.01L174.69 41.128H170.85V57ZM183.6 57H188.304V41.128H183.6V57ZM185.936 38.792C187.536 38.792 188.656 37.768 188.656 36.328C188.656 34.888 187.536 33.896 185.936 33.896C184.368 33.896 183.216 34.888 183.216 36.328C183.216 37.768 184.368 38.792 185.936 38.792ZM199.548 57.384C201.436 57.384 203.548 56.712 205.18 55.592L203.612 52.744C202.46 53.448 201.372 53.8 200.188 53.8C198.076 53.8 196.476 52.744 196.06 50.44H205.564C205.66 50.056 205.756 49.192 205.756 48.36C205.756 44.04 203.516 40.744 199.004 40.744C195.196 40.744 191.516 43.912 191.516 49.064C191.516 54.312 195.004 57.384 199.548 57.384ZM196.028 47.336C196.348 45.32 197.628 44.328 199.1 44.328C200.988 44.328 201.756 45.576 201.756 47.336H196.028ZM213.678 57.384C217.934 57.384 220.206 55.144 220.206 52.264C220.206 49.352 217.934 48.232 215.918 47.496C214.286 46.888 212.814 46.504 212.814 45.48C212.814 44.68 213.39 44.232 214.606 44.232C215.726 44.232 216.814 44.744 217.966 45.576L220.078 42.76C218.702 41.736 216.91 40.744 214.478 40.744C210.798 40.744 208.398 42.76 208.398 45.704C208.398 48.328 210.67 49.64 212.59 50.376C214.222 51.016 215.822 51.496 215.822 52.552C215.822 53.384 215.214 53.896 213.806 53.896C212.462 53.896 211.15 53.32 209.71 52.232L207.598 55.176C209.198 56.488 211.598 57.384 213.678 57.384Z" fill="white"/>
<path d="M107.528 131.144C109.724 131.144 111.44 128.9 111.44 126.308C111.44 124.28 110.384 123.008 108.608 123.008C106.424 123.008 104.696 125.252 104.696 127.844C104.696 129.872 105.764 131.144 107.528 131.144ZM107.6 130.028C106.544 130.028 106.028 129.14 106.028 127.748C106.028 125.924 107.144 124.124 108.536 124.124C109.592 124.124 110.12 125.012 110.12 126.404C110.12 128.228 108.992 130.028 107.6 130.028ZM113.378 130.376H113.402C113.69 130.832 114.158 131.144 114.71 131.144C116.33 131.144 117.866 129.368 117.866 127.112C117.866 125.732 117.23 124.964 116.186 124.964C115.514 124.964 114.842 125.336 114.278 125.828H114.242L114.266 125.108H113.222L111.566 133.328H112.85L113.186 131.576L113.378 130.376ZM115.658 126.02C116.198 126.02 116.546 126.428 116.546 127.28C116.546 128.804 115.622 130.088 114.626 130.088C114.254 130.088 113.906 129.884 113.654 129.392L114.158 126.872C114.602 126.296 115.202 126.02 115.658 126.02ZM118.693 128.648C118.693 130.232 119.653 131.144 121.057 131.144C121.897 131.144 122.593 130.856 123.073 130.52L122.593 129.692C122.269 129.932 121.813 130.16 121.393 130.16C120.505 130.16 119.809 129.632 119.941 128.384H123.529C123.613 128.192 123.781 127.652 123.781 127.136C123.781 125.912 123.277 124.964 121.909 124.964C120.361 124.964 118.693 126.452 118.693 128.648ZM120.049 127.568C120.337 126.56 121.045 125.96 121.753 125.96C122.473 125.96 122.713 126.476 122.713 127.052C122.713 127.244 122.689 127.412 122.653 127.568H120.049ZM124.42 131H125.716L126.508 126.98C127.132 126.344 127.588 126.068 127.996 126.068C128.5 126.068 128.74 126.32 128.74 126.824C128.74 127.004 128.692 127.172 128.644 127.448L127.924 131H129.208L129.952 127.28C130.024 126.968 130.048 126.728 130.048 126.452C130.048 125.504 129.64 124.964 128.656 124.964C127.912 124.964 127.252 125.408 126.628 125.936H126.58L126.64 125.108H125.596L124.42 131ZM134.961 131.144C136.317 131.144 137.301 130.4 137.301 129.26C137.301 128.54 136.869 128.072 135.993 127.604C135.489 127.316 134.985 127.112 134.985 126.68C134.985 126.272 135.381 125.936 135.921 125.936C136.389 125.936 136.749 126.188 137.049 126.488L137.769 125.804C137.313 125.324 136.689 124.964 135.921 124.964C134.745 124.964 133.773 125.732 133.773 126.8C133.773 127.508 134.253 128 135.033 128.432C135.777 128.84 136.089 129.044 136.089 129.416C136.089 129.848 135.609 130.184 135.057 130.184C134.529 130.184 134.049 129.896 133.665 129.392L132.897 130.016C133.341 130.688 134.217 131.144 134.961 131.144ZM140.53 131.144C142.15 131.144 143.782 129.608 143.782 127.364C143.782 125.888 142.906 124.964 141.574 124.964C139.966 124.964 138.334 126.488 138.334 128.744C138.334 130.208 139.21 131.144 140.53 131.144ZM140.674 130.1C139.99 130.1 139.63 129.584 139.63 128.696C139.63 127.196 140.506 126.008 141.442 126.008C142.114 126.008 142.474 126.512 142.474 127.4C142.474 128.912 141.61 130.1 140.674 130.1ZM150.363 125.108H149.079L148.287 129.128C147.699 129.752 147.231 130.04 146.835 130.04C146.343 130.04 146.103 129.788 146.103 129.284C146.103 129.104 146.139 128.936 146.199 128.66L146.907 125.108H145.623L144.879 128.828C144.819 129.128 144.783 129.38 144.783 129.656C144.783 130.592 145.203 131.144 146.187 131.144C146.895 131.144 147.567 130.688 148.155 130.16H148.203L148.155 131H149.199L150.363 125.108ZM150.928 131H152.224L152.92 127.436C153.4 126.536 153.964 126.104 154.516 126.104C154.72 126.104 154.924 126.128 155.068 126.2L155.5 125.072C155.344 125 155.164 124.964 154.912 124.964C154.204 124.964 153.556 125.516 153.088 126.248H153.04L153.148 125.108H152.104L150.928 131ZM157.546 131.144C158.434 131.144 159.034 130.784 159.478 130.46L158.926 129.644C158.626 129.884 158.266 130.1 157.81 130.1C157.018 130.1 156.622 129.584 156.622 128.696C156.622 127.232 157.546 126.008 158.602 126.008C158.998 126.008 159.238 126.152 159.514 126.464L160.234 125.684C159.91 125.3 159.406 124.964 158.686 124.964C156.85 124.964 155.302 126.632 155.302 128.744C155.302 130.268 156.25 131.144 157.546 131.144ZM160.4 128.648C160.4 130.232 161.36 131.144 162.764 131.144C163.604 131.144 164.3 130.856 164.78 130.52L164.3 129.692C163.976 129.932 163.52 130.16 163.1 130.16C162.212 130.16 161.516 129.632 161.648 128.384H165.236C165.32 128.192 165.488 127.652 165.488 127.136C165.488 125.912 164.984 124.964 163.616 124.964C162.068 124.964 160.4 126.452 160.4 128.648ZM161.756 127.568C162.044 126.56 162.752 125.96 163.46 125.96C164.18 125.96 164.42 126.476 164.42 127.052C164.42 127.244 164.396 127.412 164.36 127.568H161.756ZM170.783 125.744H170.747C170.495 125.276 170.027 124.964 169.451 124.964C167.819 124.964 166.283 126.74 166.283 128.996C166.283 130.376 166.931 131.144 167.963 131.144C168.635 131.144 169.355 130.76 169.907 130.184H169.943L169.883 131H170.939L172.643 122.528H171.359L170.951 124.616L170.783 125.744ZM168.491 130.088C167.951 130.088 167.615 129.68 167.615 128.816C167.615 127.304 168.527 126.02 169.523 126.02C169.883 126.02 170.255 126.236 170.519 126.74L170.039 129.092C169.547 129.8 168.995 130.088 168.491 130.088ZM176.02 131L176.271 130.316H176.296C176.56 130.82 177.04 131.144 177.628 131.144C179.248 131.144 180.784 129.368 180.784 127.112C180.784 125.72 180.148 124.964 179.104 124.964C178.456 124.964 177.808 125.3 177.256 125.744H177.232L177.52 124.616L177.94 122.528H176.656L174.952 131H176.02ZM178.576 126.02C179.116 126.02 179.464 126.428 179.464 127.28C179.464 128.804 178.54 130.088 177.544 130.088C177.172 130.088 176.824 129.872 176.572 129.368L177.076 126.872C177.52 126.296 178.12 126.02 178.576 126.02ZM181.196 133.424C182.372 133.424 183.104 132.596 183.836 131.312L187.148 125.108H185.9L184.436 128.084C184.16 128.636 183.872 129.296 183.608 129.848H183.56C183.536 129.296 183.476 128.612 183.416 128.084L183.044 125.108H181.76L182.78 130.94L182.6 131.3C182.276 131.96 181.784 132.392 181.28 132.392C181.124 132.392 180.968 132.344 180.848 132.272L180.44 133.208C180.668 133.34 181.004 133.424 181.196 133.424Z" fill="white" fill-opacity="0.7"/>
<path d="M226.416 132.192C228.912 132.192 230.352 130.688 230.352 128.96C230.352 127.488 229.552 126.64 228.288 126.128L226.944 125.584C226.048 125.216 225.36 124.992 225.36 124.352C225.36 123.76 225.872 123.408 226.688 123.408C227.52 123.408 228.16 123.712 228.848 124.24L230.048 122.752C229.152 121.856 227.888 121.376 226.688 121.376C224.512 121.376 222.976 122.752 222.976 124.48C222.976 126 224 126.896 225.072 127.328L226.432 127.904C227.344 128.288 227.936 128.496 227.936 129.152C227.936 129.776 227.456 130.16 226.48 130.16C225.616 130.16 224.656 129.712 223.904 129.072L222.56 130.688C223.616 131.68 225.056 132.192 226.416 132.192ZM234.534 132.192C235.302 132.192 235.878 132.032 236.294 131.904L235.926 130.192C235.718 130.272 235.43 130.352 235.174 130.352C234.549 130.352 234.15 129.984 234.15 129.088V125.904H236.054V124.064H234.15V121.952H232.198L231.926 124.064L230.71 124.16V125.904H231.798V129.12C231.798 130.96 232.566 132.192 234.534 132.192ZM240.873 132.192C241.817 132.192 242.873 131.856 243.689 131.296L242.905 129.872C242.329 130.224 241.785 130.4 241.193 130.4C240.137 130.4 239.337 129.872 239.129 128.72H243.881C243.929 128.528 243.977 128.096 243.977 127.68C243.977 125.52 242.857 123.872 240.601 123.872C238.697 123.872 236.857 125.456 236.857 128.032C236.857 130.656 238.601 132.192 240.873 132.192ZM239.113 127.168C239.273 126.16 239.913 125.664 240.649 125.664C241.593 125.664 241.977 126.288 241.977 127.168H239.113ZM245.603 132H247.955V127.392C248.371 126.32 249.107 125.936 249.699 125.936C250.035 125.936 250.275 125.984 250.563 126.064L250.947 124.032C250.723 123.936 250.451 123.872 250.003 123.872C249.187 123.872 248.323 124.384 247.747 125.456H247.683L247.523 124.064H245.603V132ZM256.138 132.192C257.85 132.192 259.482 130.624 259.482 127.888C259.482 125.456 258.282 123.872 256.362 123.872C255.626 123.872 254.874 124.208 254.266 124.752L254.33 123.536V120.784H251.978V132H253.818L254.01 131.152H254.074C254.698 131.84 255.434 132.192 256.138 132.192ZM255.594 130.272C255.194 130.272 254.746 130.144 254.33 129.76V126.512C254.778 126.016 255.21 125.792 255.69 125.792C256.634 125.792 257.066 126.512 257.066 127.936C257.066 129.568 256.41 130.272 255.594 130.272ZM263.309 132.192C263.837 132.192 264.237 132.112 264.493 132L264.205 130.256C264.077 130.288 264.013 130.288 263.917 130.288C263.725 130.288 263.501 130.128 263.501 129.632V120.784H261.149V129.536C261.149 131.136 261.693 132.192 263.309 132.192ZM268.112 132.192C269.2 132.192 269.936 131.696 270.608 130.896H270.656L270.832 132H272.752V124.064H270.4V129.312C269.936 129.936 269.584 130.192 268.992 130.192C268.304 130.192 268 129.824 268 128.688V124.064H265.648V128.992C265.648 130.976 266.384 132.192 268.112 132.192ZM278.373 132.192C279.317 132.192 280.373 131.856 281.189 131.296L280.405 129.872C279.829 130.224 279.285 130.4 278.693 130.4C277.637 130.4 276.837 129.872 276.629 128.72H281.381C281.429 128.528 281.477 128.096 281.477 127.68C281.477 125.52 280.357 123.872 278.101 123.872C276.197 123.872 274.357 125.456 274.357 128.032C274.357 130.656 276.101 132.192 278.373 132.192ZM276.613 127.168C276.773 126.16 277.413 125.664 278.149 125.664C279.093 125.664 279.477 126.288 279.477 127.168H276.613Z" fill="white" fill-opacity="0.7"/>
<path d="M215.996 127.3C215.999 127.2 216 127.1 216 127C216 120.373 210.627 115 204 115C197.373 115 192 120.373 192 127C192 128.824 192.407 130.552 193.135 132.1H198.6C199.76 132.1 200.7 131.16 200.7 130C200.7 128.84 199.76 127.9 198.6 127.9C196.446 127.9 194.7 126.154 194.7 124C194.7 121.846 196.446 120.1 198.6 120.1H200.4C203.548 120.1 206.1 122.652 206.1 125.8V129.4C206.1 130.891 207.309 132.1 208.8 132.1C210.291 132.1 211.5 130.891 211.5 129.4V129.1H210.6C209.109 129.1 207.9 127.891 207.9 126.4C207.9 124.909 209.109 123.7 210.6 123.7C212.091 123.7 213.3 124.909 213.3 126.4V127.3H215.996Z" fill="white" fill-opacity="0.7"/>
<path d="M215.817 129.1H213.3V129.4C213.3 131.885 211.285 133.9 208.8 133.9C206.315 133.9 204.3 131.885 204.3 129.4V125.8C204.3 123.646 202.554 121.9 200.4 121.9H198.6C197.44 121.9 196.5 122.84 196.5 124C196.5 125.16 197.44 126.1 198.6 126.1C200.754 126.1 202.5 127.846 202.5 130C202.5 132.154 200.754 133.9 198.6 133.9H194.181C196.353 136.985 199.941 139 204 139C209.911 139 214.824 134.726 215.817 129.1Z" fill="white" fill-opacity="0.7"/>
<path d="M211.5 126.4V127.3H210.6C210.103 127.3 209.7 126.897 209.7 126.4C209.7 125.903 210.103 125.5 210.6 125.5C211.097 125.5 211.5 125.903 211.5 126.4Z" fill="white" fill-opacity="0.7"/>
</svg>
