<svg width="349" height="100" viewBox="0 0 349 100" fill="none" xmlns="http://www.w3.org/2000/svg">
<path fill-rule="evenodd" clip-rule="evenodd" d="M30 0H69C75.6274 0 81 5.37258 81 12V88C81 94.6274 75.6274 100 69 100H30C23.3726 100 18 94.6274 18 88V12C18 5.37258 23.3726 0 30 0ZM50 90C55.5228 90 60 85.5229 60 80C60 74.4771 55.5228 70 50 70C44.4772 70 40 74.4771 40 80C40 85.5229 44.4772 90 50 90Z" fill="white"/>
<path d="M124.928 73H133.376V57.704C133.376 53.608 132.608 47.528 132.16 43.496H132.416L135.744 53.416L141.696 69.352H146.88L152.832 53.416L156.224 43.496H156.48C156.032 47.528 155.264 53.608 155.264 57.704V73H163.84V31.272H153.6L147.008 49.832C146.176 52.264 145.472 54.952 144.64 57.512H144.384C143.552 54.952 142.784 52.264 141.952 49.832L135.232 31.272H124.928V73ZM186.542 73.768C194.542 73.768 201.966 67.688 201.966 57.128C201.966 46.568 194.542 40.488 186.542 40.488C178.478 40.488 171.054 46.568 171.054 57.128C171.054 67.688 178.478 73.768 186.542 73.768ZM186.542 66.152C182.638 66.152 180.718 62.632 180.718 57.128C180.718 51.624 182.638 48.104 186.542 48.104C190.382 48.104 192.366 51.624 192.366 57.128C192.366 62.632 190.382 66.152 186.542 66.152ZM225.05 73.768C231.898 73.768 238.426 67.496 238.426 56.552C238.426 46.824 233.626 40.488 225.946 40.488C223.002 40.488 219.994 41.832 217.562 44.008L217.818 39.144V28.136H208.41V73H215.77L216.538 69.608H216.794C219.29 72.36 222.234 73.768 225.05 73.768ZM222.874 66.088C221.274 66.088 219.482 65.576 217.818 64.04V51.048C219.61 49.064 221.338 48.168 223.258 48.168C227.034 48.168 228.762 51.048 228.762 56.744C228.762 63.272 226.138 66.088 222.874 66.088ZM245.098 73H254.506V41.256H245.098V73ZM249.77 36.584C252.97 36.584 255.21 34.536 255.21 31.656C255.21 28.776 252.97 26.792 249.77 26.792C246.634 26.792 244.33 28.776 244.33 31.656C244.33 34.536 246.634 36.584 249.77 36.584ZM271.425 73.768C273.537 73.768 275.137 73.448 276.161 73L275.009 66.024C274.497 66.152 274.241 66.152 273.857 66.152C273.089 66.152 272.193 65.512 272.193 63.528V28.136H262.785V63.144C262.785 69.544 264.961 73.768 271.425 73.768ZM295.306 73.768C299.082 73.768 303.306 72.424 306.57 70.184L303.434 64.488C301.13 65.896 298.954 66.6 296.586 66.6C292.362 66.6 289.162 64.488 288.33 59.88H307.338C307.53 59.112 307.722 57.384 307.722 55.72C307.722 47.08 303.242 40.488 294.218 40.488C286.602 40.488 279.242 46.824 279.242 57.128C279.242 67.624 286.218 73.768 295.306 73.768ZM288.266 53.672C288.906 49.64 291.466 47.656 294.41 47.656C298.186 47.656 299.722 50.152 299.722 53.672H288.266Z" fill="white"/>
</svg>
