<svg width="150" height="150" viewBox="0 0 150 150" fill="none" xmlns="http://www.w3.org/2000/svg">
<path fill-rule="evenodd" clip-rule="evenodd" d="M55.9128 25H94.9128C101.54 25 106.913 30.3726 106.913 37V113C106.913 119.627 101.54 125 94.9128 125H55.9128C49.2854 125 43.9128 119.627 43.9128 113V37C43.9128 30.3726 49.2854 25 55.9128 25ZM75.9128 115C81.4357 115 85.9128 110.523 85.9128 105C85.9128 99.4771 81.4357 95 75.9128 95C70.39 95 65.9128 99.4771 65.9128 105C65.9128 110.523 70.39 115 75.9128 115Z" fill="#6CE6DE"/>
<path d="M55.4413 25.3749C59.9894 25.3749 64.5313 25.5153 69.0837 25.5153C73.9895 25.5153 78.8843 25.3749 83.7876 25.3749C84.9112 25.3749 86.3058 25.5759 87.4089 25.3436C88.4712 25.12 89.369 24.532 90.4917 24.532C91.0832 24.532 91.7078 24.3915 92.3258 24.3915C93.2767 24.3915 94.1751 25.0236 95.0887 25.0939C96.1657 25.1767 97.3311 25.6336 98.3978 25.8275C100.214 26.1578 101.511 27.2971 103.065 28.247C103.855 28.7296 104.362 29.5492 104.813 30.362C105.541 31.6725 106.152 32.9879 106.546 34.4438C107.262 37.0923 106.858 40.1598 106.858 42.8884C106.858 47.6326 106.634 52.4506 106.866 57.1942C107.009 60.135 107.841 63.0176 107.841 65.9666C107.841 68.1754 107.727 70.4066 107.529 72.6083C107.276 75.4249 107.517 78.2553 107.17 81.0685C106.978 82.6255 106.577 84.3107 106.577 85.8762C106.577 90.9491 106.577 96.0221 106.577 101.095C106.577 103.26 106.453 105.428 106.827 107.557C107.098 109.105 107.422 110.639 107.139 112.193C106.921 113.393 106.589 114.55 106.226 115.713C105.88 116.82 106.043 117.925 105.843 119.046C105.676 119.989 105.313 121.008 104.751 121.777C104.342 122.337 103.494 122.565 102.917 122.94C102.43 123.256 101.964 123.585 101.457 123.861C100.305 124.489 99.3263 125.418 97.9998 125.75C96.599 126.1 95.0916 126.355 93.6526 126.382C90.4244 126.443 87.1881 126.382 83.9593 126.382C82.3307 126.382 80.7022 126.382 79.0736 126.382C77.2545 126.382 75.504 126.221 73.704 126.109C72.1301 126.011 70.5566 125.68 68.9823 125.68C67.0545 125.68 65.1268 125.68 63.199 125.68C59.6929 125.68 56.0813 125.944 52.6316 125.328C52.2215 125.255 51.6061 125.387 51.2268 125.227C50.9389 125.106 50.6832 124.914 50.3761 124.837C49.4244 124.599 48.9236 123.423 48.1674 122.87C46.8325 121.894 46.227 120.245 45.2641 119.007C44.7923 118.4 44.3028 116.998 44.2104 116.259C44.1475 115.756 44.2171 115.229 44.2026 114.722C44.1847 114.096 43.9364 113.481 43.9217 112.849C43.8985 111.853 44.0364 110.79 43.8905 109.805C43.6109 107.918 43.1304 106.074 42.8681 104.186C42.5588 101.959 42.7978 99.553 42.7978 97.3021C42.7978 95.5877 42.7978 93.8733 42.7978 92.1589C42.7978 90.4404 42.3537 88.5412 42.6651 86.8283C42.9367 85.3346 43.1911 83.9309 43.2193 82.4109C43.2778 79.2471 43.43 76.1048 43.2115 72.9361C42.8976 68.385 41.5334 63.7196 42.1266 59.122C42.3597 57.3155 42.6573 55.4352 42.6573 53.6119C42.6573 52.0666 42.7245 50.3149 43.0085 48.7809C43.2051 47.7194 43.2193 46.4716 43.2193 45.3937C43.2193 43.9186 43.2193 42.4435 43.2193 40.9685C43.2193 39.856 43.194 38.7402 43.2193 37.6281C43.247 36.4072 43.2602 34.9961 43.5002 33.796C43.9703 31.4457 44.8131 29.1898 46.8406 27.7631C47.2442 27.479 47.536 27.0623 48.0035 26.8577C48.3627 26.7006 48.7851 26.6031 49.0493 26.2802C49.7532 25.4199 50.7474 24.8791 51.7887 24.532C53.1759 24.0696 54.3873 23.8295 55.8315 23.8295C57.5593 23.8295 59.276 23.6891 60.9903 23.6891C64.6138 23.6891 68.2309 23.5486 71.8622 23.5486C75.3462 23.5486 78.7575 24.1105 82.2423 24.1105C83.1726 24.1105 84.1002 23.97 85.0129 23.97C85.9631 23.97 87.2372 23.5434 88.1738 23.9076C89.1284 24.2788 90.0412 24.5313 91.0147 24.8441C93.1266 25.523 95.4014 25.7357 97.5705 26.2178C97.9858 26.31 98.3907 26.814 98.7412 27.0607C99.2635 27.4282 99.7954 27.8807 100.248 28.3328C100.969 29.0538 101.39 29.9829 102.082 30.7132C102.576 31.2346 103.127 31.9096 103.486 32.5395C103.972 33.3898 105.12 34.0893 105.453 35.0057C105.807 35.9795 106.187 36.8286 106.405 37.8466C106.629 38.8892 107.139 39.7039 107.139 40.828C107.139 41.82 107.56 42.7572 107.56 43.7781C107.56 45.3911 107.56 47.004 107.56 48.617C107.56 50.2993 107.725 51.9252 107.873 53.5963C107.961 54.5954 107.934 55.58 107.99 56.5777C108.06 57.8417 108.577 59.0352 108.676 60.2771C108.965 63.8858 108.825 67.5499 108.825 71.1723C108.825 76.0025 107.765 80.7242 107.568 85.5562C107.477 87.7992 107.56 90.0619 107.56 92.3071C107.56 93.5745 107.279 94.7984 107.279 96.069C107.279 97.3418 107.56 98.5778 107.56 99.8308C107.56 101.113 107.56 102.396 107.56 103.678C107.56 104.329 107.861 104.982 107.951 105.622C108.084 106.568 107.982 107.586 107.982 108.541C107.982 109.79 107.841 111.065 107.841 112.334C107.841 115.923 107.526 119.419 105.422 122.449C103.778 124.816 100.484 125.68 97.75 125.68C96.8568 125.68 95.9465 125.49 95.0574 125.391C93.7487 125.245 92.4621 125.287 91.1395 125.258C88.4491 125.2 85.8536 124.642 83.1476 124.946C81.5874 125.122 79.9703 125.399 78.4024 125.399C77.0756 125.399 75.7881 125.732 74.4689 125.851C73.0478 125.979 71.6085 126.025 70.1842 126.093C68.2928 126.183 66.3145 126.242 64.4322 126.242C59.1142 126.242 53.7762 126.382 48.4483 126.382C47.9568 126.382 47.0046 126.495 46.6221 126.07C46.1881 125.588 45.8232 124.934 45.2563 124.493C44.5792 123.967 44.5635 123.172 44.3119 122.417C43.9107 121.214 43.5288 120.003 43.149 118.788C42.8039 117.684 42.5125 116.72 42.3842 115.565C42.273 114.564 42.4177 113.562 42.5481 112.584C42.7318 111.206 42.9383 109.789 42.9383 108.4C42.9383 107.523 43.091 106.667 43.2193 105.801C43.2932 105.302 43.4513 104.305 43.7109 103.889C43.8862 103.609 43.7812 103.057 43.7812 102.75C43.7812 101.595 43.7812 100.44 43.7812 99.2845C43.7812 98.2217 43.8281 97.2268 43.9919 96.1782C44.2621 94.4493 44.2026 92.7297 44.2026 90.9804C44.2026 88.972 44.2026 86.9636 44.2026 84.9552C44.2026 80.9916 43.84 77.0083 44.2651 73.061C44.38 71.9935 44.4666 70.823 44.4836 69.7518C44.5032 68.52 44.0708 67.4882 43.9373 66.2866C43.7154 64.2892 43.5746 62.2901 43.391 60.2927C42.9618 55.6254 43.7352 50.8883 43.1412 46.221C42.8286 43.7644 42.7978 41.2057 42.7978 38.7285C42.7978 36.1951 42.7179 33.5723 42.9695 31.0566C43.1597 29.1543 43.664 28.0314 45.108 26.8499C45.5059 26.5244 46.1255 26.4777 46.6221 26.3895C47.3283 26.2639 48.1224 26.0773 48.8386 26.0773" stroke="black" stroke-linecap="round" stroke-linejoin="round"/>
<path d="M73.985 95.7569C71.9574 95.7569 69.7804 95.8668 68.0847 97.0914C66.6121 98.155 65.8358 100.023 65.1346 101.626C64.0148 104.186 63.6195 107.862 65.7043 110.016C69.4599 113.897 75.0834 117.17 80.416 114.16C81.7441 113.41 84.5986 111.603 84.6617 109.774C84.7569 107.013 84.9225 104.052 84.17 101.376C83.4985 98.9884 81.4142 96.6321 79.1126 95.6944C77.2205 94.9236 73.9861 93.9301 72.0182 94.914C69.3371 96.2545 67.8893 99.3958 67.1013 102.11C66.7248 103.407 66.3989 104.512 66.3989 105.872C66.3989 106.74 66.289 107.707 66.5706 108.541C66.8445 109.351 67.2437 110.075 67.5852 110.851C68.0838 111.984 69.0646 112.731 70.0203 113.458C70.883 114.114 71.993 114.841 73.0875 115.003C75.8508 115.412 78.3718 114.953 80.8687 113.739C81.871 113.251 82.5129 112.572 83.3193 111.842C84.1066 111.13 85.1559 110.133 85.6451 109.181C86.0678 108.357 86.2506 107.25 86.4177 106.348C86.6228 105.24 86.6235 103.854 86.0665 102.859C85.6306 102.081 85.4625 101.32 84.8334 100.643C84.1779 99.9366 84.1 98.9547 83.3193 98.2855C82.3301 97.4377 81.3658 96.2544 80.135 95.7569C78.5726 95.1252 76.6358 94.7311 74.9684 94.633" stroke="black" stroke-linecap="round" stroke-linejoin="round"/>
<path d="M50.1028 30.7131C49.8519 32.6093 49.1075 34.349 48.698 36.192C48.5446 36.8822 48.5575 37.5275 48.5575 38.2368C48.5575 39.3097 48.3338 40.3946 48.2688 41.4679C48.077 44.6321 47.8801 47.7647 47.8551 50.9427C47.8223 55.1116 47.7894 59.3145 47.5429 63.4769C47.3116 67.3839 47.3651 71.3423 47.5819 75.2462C47.6958 77.2948 48.1279 79.3221 48.2688 81.365C48.3944 83.1876 48.0653 85.072 48.3858 86.8751C48.5563 87.8338 48.698 89.0327 48.698 89.9969C48.698 90.793 48.698 91.5891 48.698 92.3851C48.698 92.9779 49.0762 92.8066 49.5955 92.8066C49.9722 92.8066 50.2828 92.9471 50.6726 92.9471C55.0438 92.9471 59.3336 93.8631 63.6985 92.9471C66.0886 92.4454 68.9018 92.8066 71.3001 92.8066C73.7709 92.8066 76.2264 92.9471 78.6911 92.9471C81.4825 92.9471 84.274 92.9471 87.0654 92.9471C88.3246 92.9471 89.5837 92.9471 90.8429 92.9471C91.8488 92.9471 92.8062 93.2021 93.793 93.228C94.5965 93.2492 95.4005 93.4865 96.1734 93.7119C96.7882 93.8912 97.4502 93.8256 98.0699 93.9382C98.7748 94.0664 99.4542 94.0709 100.185 94.0709C100.713 94.0709 101.241 94.0709 101.769 94.0709C102.353 94.0709 102.362 94.0516 102.362 93.4465C102.362 90.5698 103.177 87.7813 103.205 84.9083C103.269 78.4974 102.924 72.1089 102.924 65.709C102.924 62.349 102.784 58.9804 102.784 55.6098C102.784 53.6217 103.104 51.6382 102.815 49.6471C102.426 46.9655 101.776 44.3674 101.168 41.7332C100.681 39.6198 100.255 37.4625 100.255 35.2866C100.255 34.4294 100.536 33.5846 100.536 32.7111C100.536 32.1373 100.416 31.5904 100.396 31.0253C100.366 30.1995 93.5831 30.3183 92.5755 30.12C90.5936 29.7299 88.7579 29.0273 86.7142 29.0273C84.3191 29.0273 81.8519 29.1483 79.4716 29.3864C75.003 29.8332 70.4712 30.2917 65.9774 30.2917C63.3396 30.2917 60.6661 30.3332 58.0323 30.4634C56.0369 30.5621 54.1963 31.2751 52.2101 31.2751C51.4262 31.2751 50.5608 31.3809 49.8219 31.1346" stroke="black" stroke-linecap="round" stroke-linejoin="round"/>
<path d="M47.5981 68.2017C50.4863 67.5437 53.3576 66.7623 55.6557 64.8177C56.5836 64.0326 57.3841 63.2346 58.187 62.3069C58.5016 61.9433 59.056 61.6194 59.2649 61.2017" stroke="black" stroke-linecap="round" stroke-linejoin="round"/>
<path d="M59.2649 61.2017C60.6915 61.9354 62.0063 62.8723 63.0037 64.1491C63.5612 64.8626 64.1169 65.4103 64.8868 65.8957C66.316 66.7967 67.8318 67.6363 69.5194 67.9629C70.3822 68.1299 71.1778 68.4338 72.0642 68.5429C73.2542 68.6893 74.2303 68.2803 75.2982 67.8333C76.7432 67.2284 78.2864 66.1278 79.4055 65.0087" stroke="black" stroke-linecap="round" stroke-linejoin="round"/>
<path d="M75.4756 71.5175C76.8342 69.8392 78.5366 68.4616 79.9513 66.8235C80.8784 65.75 81.9401 64.712 82.9601 63.726C83.3104 63.3873 84.4002 61.5173 84.9523 61.959C87.179 63.7403 89.6834 65.1797 91.9319 66.9463C92.6134 67.4818 93.4278 67.8291 94.1356 68.3245C94.5059 68.5837 95.0964 68.7303 95.2477 69.1842" stroke="black" stroke-linecap="round" stroke-linejoin="round"/>
<path d="M90.5811 65.7455C91.3191 65.7127 91.8717 65.4298 92.546 65.1588C93.3149 64.8498 94.1791 64.8526 94.9271 64.5106C95.5108 64.2438 96.5016 63.6144 97.1718 63.8557C98.6777 64.3978 100.15 65.4308 101.552 66.2095C102.051 66.4869 102.513 66.9832 102.985 67.2192" stroke="black" stroke-linecap="round" stroke-linejoin="round"/>
<path d="M47.9302 64.4624C51.0912 64.4624 54.2523 64.4624 57.4133 64.4624C59.4026 64.4624 61.375 64.9167 63.3758 64.9167C65.0415 64.9167 66.7072 64.9167 68.3729 64.9167C70.7107 64.9167 73.152 65.0284 75.4648 64.7148C78.032 64.3667 80.7233 65.1438 83.3074 65.1438C85.6356 65.1438 87.9638 65.1438 90.292 65.1438C92.5915 65.1438 94.9592 64.9872 97.2451 65.2322C98.79 65.3977 100.323 65.5981 101.876 65.5981" stroke="black" stroke-linecap="round" stroke-linejoin="round"/>
<path d="M65.3064 56.5125C65.3064 56.284 65.0879 53.9004 65.4894 53.9004C67.0777 53.9004 68.5102 54.4195 70.0701 54.5755C71.0171 54.6702 71.9588 54.6954 72.9157 54.6954C74.1084 54.6954 75.269 54.4682 76.4616 54.4682C78.9407 54.4682 81.3994 54.3547 83.8752 54.3547C84.4823 54.3547 84.8406 53.9965 84.8406 54.7585C84.8406 55.3432 84.8406 55.9278 84.8406 56.5125" stroke="black" stroke-linecap="round" stroke-linejoin="round"/>
<path d="M64.9658 43.7925C64.9776 43.1672 64.9256 42.3271 65.1046 41.723C65.1419 41.5973 65.1441 40.9067 65.2434 40.8649C65.7611 40.6469 66.9226 41.3092 67.4644 41.3822C68.1954 41.4808 68.8956 41.7312 69.6222 41.8365C72.1878 42.2084 74.8139 41.7895 77.3703 42.1141C79.4693 42.3807 81.5897 42.4296 83.705 42.4296C84.3167 42.4296 84.5407 42.2991 84.3612 42.9975C84.1843 43.6853 84.2728 44.4446 84.2728 45.1553" stroke="black" stroke-linecap="round" stroke-linejoin="round"/>
<path d="M65.42 73.6616C65.42 73.9856 65.1517 76.7878 65.603 76.8353C67.4462 77.0293 69.3326 77.1823 71.1869 77.1823C74.3458 77.1823 77.4809 77.4095 80.6322 77.4095C81.2847 77.4095 81.9424 77.3844 82.5944 77.4095C83.1623 77.4313 83.7466 77.6366 84.3295 77.6366C85.6899 77.6366 85.1813 75.1893 85.1813 74.343" stroke="black" stroke-linecap="round" stroke-linejoin="round"/>
<path d="M65.5337 86.6087C65.5337 87.4918 65.2917 88.7429 65.54 89.612C65.6074 89.848 67.6054 89.5714 67.8114 89.5616C69.264 89.4924 70.7042 89.448 72.1587 89.448C74.91 89.448 77.6368 89.3344 80.3862 89.3344C81.8332 89.3344 83.2802 89.3344 84.7271 89.3344C85.397 89.3344 85.1814 88.8591 85.1814 88.2618C85.1814 87.6351 85.1814 87.0083 85.1814 86.3816" stroke="black" stroke-linecap="round" stroke-linejoin="round"/>
<path d="M51.678 37.319C51.678 38.0652 51.6933 38.8386 52.3594 37.8617C52.7867 37.2349 52.9688 36.5033 53.3563 35.8679C53.5465 35.556 53.4951 36.9234 53.4951 37.0856C53.4951 37.6081 53.4771 38.1343 53.4951 38.6567C53.507 39.0021 53.6905 38.7779 53.7223 38.5557C53.7854 38.1133 53.846 37.6705 53.9242 37.2307C54.0755 36.3792 54.2358 37.6653 54.6434 37.8238C55.0861 37.9959 55.4809 37.7259 55.7665 37.4074C55.8626 37.3002 56.2961 36.569 56.3281 37.0162C56.3627 37.5007 56.3169 38.0491 56.4732 38.5178C56.6583 39.0733 57.4739 37.9672 57.571 37.8427C58.1064 37.1568 58.1309 37.0919 58.9465 37.0919C59.6609 37.0919 60.0822 36.9321 60.0822 37.7733" stroke="black" stroke-linecap="round" stroke-linejoin="round"/>
<path d="M87.3392 37.5462C88.0434 38.4788 88.5621 38.0312 89.4151 37.3696C89.7148 37.137 90.1442 36.7726 90.4561 36.5115C90.5177 36.4599 90.6133 36.2695 90.6328 36.3474C90.7334 36.7497 90.3509 37.9018 91.0618 37.3191C91.1975 37.2079 92.34 36.0104 92.5382 36.3474C92.5903 36.4358 92.5108 36.6106 92.6455 36.6313C93.0517 36.6938 93.5237 36.5648 93.9137 36.4673C94.3059 36.3692 94.7708 35.966 94.8917 36.4736C94.939 36.6722 94.9978 37.3421 95.346 37.1487C95.9639 36.8054 96.4838 36.8648 97.2199 36.8648" stroke="black" stroke-linecap="round" stroke-linejoin="round"/>
<path d="M95.6299 81.7251C93.6807 81.7704 91.24 84.9159 92.677 86.7474C93.4105 87.6822 93.9867 89.037 95.2387 89.3785C96.0379 89.5965 97.3906 89.6054 98.0716 89.1009C99.5781 87.985 99.5426 85.8287 99.3714 84.1164C99.3102 83.5045 98.6516 83.0276 98.3556 82.5201C97.8599 81.6703 95.8874 81.9522 95.062 81.9522" stroke="black" stroke-linecap="round" stroke-linejoin="round"/>
<path d="M95.857 71.6173C94.9058 71.6173 93.9459 71.4545 93.308 72.3051C92.7479 73.0519 92.6771 73.8107 92.6771 74.709C92.6771 74.9982 92.6062 75.4077 92.7275 75.6806C92.9423 76.164 93.0162 77.6826 93.4129 78C94.5085 78.8765 96.4129 78.5 97.6489 78C99.0337 78 99.1953 75.7734 98.8667 74.8604C98.6234 74.1848 98.2044 73.5505 97.6489 73.0938C97.3781 72.8711 97.0792 72.5121 96.7593 72.3682" stroke="black" stroke-linecap="round" stroke-linejoin="round"/>
<path d="M52.1323 76.5009C52.1323 78.9496 52.2201 81.4168 52.126 83.864C52.0735 85.2296 51.9052 86.6063 51.9052 87.9715" stroke="black" stroke-linecap="round" stroke-linejoin="round"/>
<path d="M52.5865 76.5009C54.1329 76.5009 55.6978 76.4436 57.2177 76.3873C57.6098 76.3728 57.9578 76.2737 58.3786 76.2737C58.6043 76.2737 58.7885 76.1602 59.0032 76.1602C59.3478 76.1602 59.165 77.2283 59.1484 77.4347C58.961 79.7529 59.171 82.083 58.9717 84.4003C58.8584 85.7178 59.1484 86.6772 59.1484 88C59.1484 88.1993 58.4023 89.0937 58.1726 89.1072C56.9794 89.1774 55.8806 89.354 54.7191 89.1072C53.8347 88.9193 52.8214 89.1072 51.9128 89.1072" stroke="black" stroke-linecap="round" stroke-linejoin="round"/>
<path d="M74.8379 64.5654C73.7467 65.0331 72.6619 66.908 74.4068 67.2115C76.0774 67.502 77.403 64.7613 75.6406 64.5654" stroke="black" stroke-linecap="round" stroke-linejoin="round"/>
<path d="M94.1583 85.6883C94.5421 86.2102 95.0044 86.8215 95.2286 87.4381C95.2613 87.528 95.5239 88.0992 95.5429 88.0327C95.7895 87.1696 96.6425 85.3699 97.5221 85.0767" stroke="black" stroke-linecap="round" stroke-linejoin="round"/>
<path d="M94.3914 76.4589C95.0043 75.976 95.3388 75.0334 96.023 74.6913" stroke="black" stroke-linecap="round" stroke-linejoin="round"/>
<path d="M93.9834 74.0115C94.5053 74.6757 94.9687 75.2548 95.5849 75.8094C95.7823 75.987 96.0525 76.2459 96.159 76.459" stroke="black" stroke-linecap="round" stroke-linejoin="round"/>
<path d="M67.9128 82.525C69.293 81.1449 70.6481 79.7512 72.0378 78.4001C72.7191 77.7377 74.0628 75.2457 75.0709 75.2457C76.8134 75.2457 77.9863 73.8206 79.5734 74.0189C80.7471 74.1657 80.737 74.3153 81.3662 75.1243C81.9117 75.8257 82.6523 77.2012 83.5501 77.4834C86.609 78.4448 87.9335 80.5885 89.2657 83.253" stroke="black" stroke-linecap="round" stroke-linejoin="round"/>
<path d="M55.9128 70.4638C57.1138 69.554 57.4599 69.4932 58.9459 69.4932C59.7925 69.4932 60.4865 69.0481 61.2511 69.0079C63.5704 68.8858 64.2034 70.1988 65.8613 71.4883C66.9867 72.3635 67.8427 73.361 68.7731 74.3461C69.6483 75.2728 71.0253 75.9575 72.1702 76.5299" stroke="black" stroke-linecap="round" stroke-linejoin="round"/>
<path d="M81.9128 75C83.2113 72.9856 84.6889 71.2313 85.7782 69.0768C86.0007 68.6366 88.656 70.2066 88.9128 70.8044" stroke="black" stroke-linecap="round" stroke-linejoin="round"/>
</svg>
