<svg width="320" height="160" viewBox="0 0 320 160" fill="none" xmlns="http://www.w3.org/2000/svg">
<rect width="320" height="160" fill="#00DACD"/>
<path d="M42.604 85.824C42.856 84.996 43.084 84.108 43.3 83.232H43.348C43.576 84.096 43.804 84.996 44.056 85.824L44.332 86.784H42.328L42.604 85.824ZM39.976 90H41.392L42.004 87.876H44.644L45.256 90H46.72L44.164 82.152H42.532L39.976 90ZM50.0898 90H51.3498V86.412C51.3498 85.68 51.2298 84.636 51.1698 83.916H51.2178L51.8418 85.74L53.1378 89.268H53.9658L55.2498 85.74L55.8858 83.916H55.9338C55.8618 84.636 55.7538 85.68 55.7538 86.412V90H57.0378V82.152H55.4538L54.0978 85.992C53.9298 86.484 53.7738 87.012 53.6058 87.528H53.5578C53.3898 87.012 53.2218 86.484 53.0538 85.992L51.6618 82.152H50.0898V90ZM61.3232 90.144C62.7992 90.144 64.1312 89.016 64.1312 87.06C64.1312 85.092 62.7992 83.964 61.3232 83.964C59.8592 83.964 58.5272 85.092 58.5272 87.06C58.5272 89.016 59.8592 90.144 61.3232 90.144ZM61.3232 89.016C60.4592 89.016 59.9432 88.236 59.9432 87.06C59.9432 85.872 60.4592 85.092 61.3232 85.092C62.1872 85.092 62.7152 85.872 62.7152 87.06C62.7152 88.236 62.1872 89.016 61.3232 89.016ZM68.3531 90.144C69.6611 90.144 70.8731 88.98 70.8731 86.952C70.8731 85.14 70.0211 83.964 68.5451 83.964C67.9451 83.964 67.3331 84.264 66.8411 84.696L66.8771 83.712V81.528H65.4971V90H66.5891L66.7091 89.376H66.7451C67.2371 89.868 67.8131 90.144 68.3531 90.144ZM68.0651 89.004C67.7171 89.004 67.2971 88.872 66.8771 88.512V85.764C67.3331 85.32 67.7411 85.104 68.1731 85.104C69.0611 85.104 69.4451 85.8 69.4451 86.976C69.4451 88.308 68.8451 89.004 68.0651 89.004ZM72.2588 90H73.6388V84.108H72.2588V90ZM72.9548 83.076C73.4468 83.076 73.8068 82.752 73.8068 82.296C73.8068 81.828 73.4468 81.504 72.9548 81.504C72.4628 81.504 72.1028 81.828 72.1028 82.296C72.1028 82.752 72.4628 83.076 72.9548 83.076ZM76.7434 90.144C77.0674 90.144 77.3074 90.096 77.4754 90.024L77.2954 88.992C77.1874 89.016 77.1394 89.016 77.0794 89.016C76.9354 89.016 76.7794 88.896 76.7794 88.56V81.528H75.3994V88.488C75.3994 89.508 75.7594 90.144 76.7434 90.144ZM81.1773 90.144C81.9213 90.144 82.6293 89.88 83.1933 89.508L82.7253 88.644C82.2933 88.92 81.8613 89.076 81.3573 89.076C80.4093 89.076 79.7373 88.476 79.6173 87.432H83.3613C83.3973 87.288 83.4213 87.024 83.4213 86.76C83.4213 85.116 82.5813 83.964 80.9853 83.964C79.6053 83.964 78.2733 85.14 78.2733 87.06C78.2733 89.004 79.5452 90.144 81.1773 90.144ZM79.6053 86.496C79.7253 85.548 80.3253 85.032 81.0213 85.032C81.8253 85.032 82.2213 85.584 82.2213 86.496H79.6053ZM88.8696 85.824C89.1216 84.996 89.3496 84.108 89.5656 83.232H89.6136C89.8416 84.096 90.0696 84.996 90.3216 85.824L90.5976 86.784H88.5936L88.8696 85.824ZM86.2416 90H87.6576L88.2696 87.876H90.9096L91.5216 90H92.9856L90.4296 82.152H88.7976L86.2416 90ZM93.833 92.328H95.213V90.48L95.177 89.496C95.657 89.904 96.173 90.144 96.689 90.144C97.997 90.144 99.209 88.98 99.209 86.964C99.209 85.14 98.357 83.964 96.893 83.964C96.245 83.964 95.609 84.312 95.117 84.732H95.069L94.973 84.108H93.833V92.328ZM96.401 89.004C96.053 89.004 95.645 88.872 95.213 88.512V85.764C95.669 85.32 96.077 85.104 96.509 85.104C97.397 85.104 97.781 85.8 97.781 86.976C97.781 88.308 97.181 89.004 96.401 89.004ZM100.606 92.328H101.986V90.48L101.95 89.496C102.43 89.904 102.946 90.144 103.462 90.144C104.77 90.144 105.982 88.98 105.982 86.964C105.982 85.14 105.13 83.964 103.666 83.964C103.018 83.964 102.382 84.312 101.89 84.732H101.842L101.746 84.108H100.606V92.328ZM103.174 89.004C102.826 89.004 102.418 88.872 101.986 88.512V85.764C102.442 85.32 102.85 85.104 103.282 85.104C104.17 85.104 104.554 85.8 104.554 86.976C104.554 88.308 103.954 89.004 103.174 89.004ZM111.858 90.144C112.326 90.144 112.734 90.036 113.058 89.928L112.818 88.908C112.65 88.98 112.41 89.04 112.206 89.04C111.642 89.04 111.378 88.704 111.378 88.008V85.2H112.878V84.108H111.378V82.5H110.226L110.058 84.108L109.146 84.168V85.2H109.986V88.008C109.986 89.28 110.49 90.144 111.858 90.144ZM116.343 90.144C117.819 90.144 119.151 89.016 119.151 87.06C119.151 85.092 117.819 83.964 116.343 83.964C114.879 83.964 113.547 85.092 113.547 87.06C113.547 89.016 114.879 90.144 116.343 90.144ZM116.343 89.016C115.479 89.016 114.963 88.236 114.963 87.06C114.963 85.872 115.479 85.092 116.343 85.092C117.207 85.092 117.735 85.872 117.735 87.06C117.735 88.236 117.207 89.016 116.343 89.016ZM125.379 90.144C126.051 90.144 126.747 89.904 127.299 89.424L126.735 88.512C126.399 88.788 125.979 89.016 125.523 89.016C124.599 89.016 123.951 88.236 123.951 87.06C123.951 85.872 124.611 85.092 125.559 85.092C125.931 85.092 126.231 85.248 126.543 85.524L127.215 84.624C126.783 84.252 126.243 83.964 125.487 83.964C123.915 83.964 122.535 85.092 122.535 87.06C122.535 89.016 123.771 90.144 125.379 90.144ZM130.581 90.144C132.057 90.144 133.389 89.016 133.389 87.06C133.389 85.092 132.057 83.964 130.581 83.964C129.117 83.964 127.785 85.092 127.785 87.06C127.785 89.016 129.117 90.144 130.581 90.144ZM130.581 89.016C129.717 89.016 129.201 88.236 129.201 87.06C129.201 85.872 129.717 85.092 130.581 85.092C131.445 85.092 131.973 85.872 131.973 87.06C131.973 88.236 131.445 89.016 130.581 89.016ZM134.755 90H136.135V85.884C136.627 85.404 136.963 85.152 137.479 85.152C138.127 85.152 138.403 85.512 138.403 86.484V90H139.783V86.304C139.783 84.816 139.231 83.964 137.971 83.964C137.167 83.964 136.567 84.384 136.039 84.9H135.991L135.895 84.108H134.755V90ZM143.546 90.144C144.014 90.144 144.422 90.036 144.746 89.928L144.506 88.908C144.338 88.98 144.098 89.04 143.894 89.04C143.33 89.04 143.066 88.704 143.066 88.008V85.2H144.566V84.108H143.066V82.5H141.914L141.746 84.108L140.834 84.168V85.2H141.674V88.008C141.674 89.28 142.178 90.144 143.546 90.144ZM145.806 90H147.186V86.4C147.546 85.512 148.11 85.188 148.578 85.188C148.83 85.188 148.986 85.224 149.19 85.284L149.43 84.084C149.25 84 149.058 83.964 148.758 83.964C148.134 83.964 147.51 84.384 147.09 85.152H147.042L146.946 84.108H145.806V90ZM152.577 90.144C154.053 90.144 155.385 89.016 155.385 87.06C155.385 85.092 154.053 83.964 152.577 83.964C151.113 83.964 149.781 85.092 149.781 87.06C149.781 89.016 151.113 90.144 152.577 90.144ZM152.577 89.016C151.713 89.016 151.197 88.236 151.197 87.06C151.197 85.872 151.713 85.092 152.577 85.092C153.441 85.092 153.969 85.872 153.969 87.06C153.969 88.236 153.441 89.016 152.577 89.016ZM158.095 90.144C158.419 90.144 158.659 90.096 158.827 90.024L158.647 88.992C158.539 89.016 158.491 89.016 158.431 89.016C158.287 89.016 158.131 88.896 158.131 88.56V81.528H156.751V88.488C156.751 89.508 157.111 90.144 158.095 90.144ZM163.839 90.144C164.535 90.144 165.135 89.796 165.663 89.352H165.711L165.807 90H166.947V86.508C166.947 84.864 166.215 83.964 164.751 83.964C163.815 83.964 162.975 84.324 162.327 84.732L162.831 85.656C163.359 85.344 163.911 85.08 164.487 85.08C165.291 85.08 165.543 85.608 165.567 86.232C163.143 86.496 162.099 87.156 162.099 88.416C162.099 89.448 162.807 90.144 163.839 90.144ZM164.283 89.064C163.791 89.064 163.431 88.836 163.431 88.308C163.431 87.72 163.959 87.3 165.567 87.096V88.416C165.123 88.824 164.763 89.064 164.283 89.064ZM169.943 90.144C170.267 90.144 170.507 90.096 170.675 90.024L170.495 88.992C170.387 89.016 170.339 89.016 170.279 89.016C170.135 89.016 169.979 88.896 169.979 88.56V81.528H168.599V88.488C168.599 89.508 168.959 90.144 169.943 90.144ZM173.2 90.144C173.524 90.144 173.764 90.096 173.932 90.024L173.752 88.992C173.644 89.016 173.596 89.016 173.536 89.016C173.392 89.016 173.236 88.896 173.236 88.56V81.528H171.856V88.488C171.856 89.508 172.216 90.144 173.2 90.144ZM177.517 90H178.873V88.5L179.797 87.444L181.309 90H182.809L180.589 86.508L182.605 84.108H181.093L178.909 86.82H178.873V81.528H177.517V90ZM183.786 90H185.166V84.108H183.786V90ZM184.482 83.076C184.974 83.076 185.334 82.752 185.334 82.296C185.334 81.828 184.974 81.504 184.482 81.504C183.99 81.504 183.63 81.828 183.63 82.296C183.63 82.752 183.99 83.076 184.482 83.076ZM186.927 90H188.307V85.884C188.799 85.404 189.135 85.152 189.651 85.152C190.299 85.152 190.575 85.512 190.575 86.484V90H191.955V86.304C191.955 84.816 191.403 83.964 190.143 83.964C189.339 83.964 188.739 84.384 188.211 84.9H188.163L188.067 84.108H186.927V90ZM195.706 90.144C196.342 90.144 196.942 89.796 197.374 89.364H197.422L197.518 90H198.658V81.528H197.278V83.664L197.326 84.612C196.87 84.216 196.45 83.964 195.778 83.964C194.494 83.964 193.282 85.14 193.282 87.06C193.282 89.004 194.23 90.144 195.706 90.144ZM196.042 89.004C195.19 89.004 194.71 88.32 194.71 87.048C194.71 85.812 195.322 85.104 196.078 85.104C196.474 85.104 196.87 85.236 197.278 85.596V88.344C196.882 88.8 196.498 89.004 196.042 89.004ZM202.059 90.144C203.547 90.144 204.351 89.328 204.351 88.32C204.351 87.216 203.463 86.832 202.659 86.532C202.023 86.304 201.435 86.124 201.435 85.656C201.435 85.284 201.711 85.008 202.299 85.008C202.767 85.008 203.187 85.212 203.595 85.512L204.231 84.672C203.751 84.3 203.091 83.964 202.275 83.964C200.955 83.964 200.127 84.696 200.127 85.728C200.127 86.712 201.003 87.156 201.783 87.444C202.407 87.684 203.043 87.9 203.043 88.392C203.043 88.8 202.743 89.1 202.107 89.1C201.507 89.1 201.003 88.848 200.475 88.44L199.827 89.328C200.403 89.796 201.255 90.144 202.059 90.144ZM210.397 90.144C211.873 90.144 213.205 89.016 213.205 87.06C213.205 85.092 211.873 83.964 210.397 83.964C208.933 83.964 207.601 85.092 207.601 87.06C207.601 89.016 208.933 90.144 210.397 90.144ZM210.397 89.016C209.533 89.016 209.017 88.236 209.017 87.06C209.017 85.872 209.533 85.092 210.397 85.092C211.261 85.092 211.789 85.872 211.789 87.06C211.789 88.236 211.261 89.016 210.397 89.016ZM214.764 90H216.144V85.2H217.296V84.108H216.144V83.472C216.144 82.788 216.408 82.476 216.888 82.476C217.092 82.476 217.32 82.524 217.536 82.62L217.8 81.588C217.536 81.48 217.14 81.384 216.72 81.384C215.328 81.384 214.764 82.272 214.764 83.496V84.108L213.972 84.168V85.2H214.764V90ZM220.855 90H223.027C225.355 90 226.771 88.644 226.771 86.04C226.771 83.448 225.355 82.152 222.955 82.152H220.855V90ZM222.247 88.872V83.28H222.859C224.443 83.28 225.343 84.12 225.343 86.04C225.343 87.972 224.443 88.872 222.859 88.872H222.247ZM228.235 90H229.615V86.4C229.975 85.512 230.539 85.188 231.007 85.188C231.259 85.188 231.415 85.224 231.619 85.284L231.859 84.084C231.679 84 231.487 83.964 231.187 83.964C230.563 83.964 229.939 84.384 229.519 85.152H229.471L229.375 84.108H228.235V90ZM235.007 90.144C236.483 90.144 237.815 89.016 237.815 87.06C237.815 85.092 236.483 83.964 235.007 83.964C233.543 83.964 232.211 85.092 232.211 87.06C232.211 89.016 233.543 90.144 235.007 90.144ZM235.007 89.016C234.143 89.016 233.627 88.236 233.627 87.06C233.627 85.872 234.143 85.092 235.007 85.092C235.871 85.092 236.399 85.872 236.399 87.06C236.399 88.236 235.871 89.016 235.007 89.016ZM239.181 90H240.561V85.884C241.053 85.404 241.389 85.152 241.905 85.152C242.553 85.152 242.829 85.512 242.829 86.484V90H244.209V86.304C244.209 84.816 243.657 83.964 242.397 83.964C241.593 83.964 240.993 84.384 240.465 84.9H240.417L240.321 84.108H239.181V90ZM248.416 90.144C249.16 90.144 249.868 89.88 250.432 89.508L249.964 88.644C249.532 88.92 249.1 89.076 248.596 89.076C247.648 89.076 246.976 88.476 246.856 87.432H250.6C250.636 87.288 250.66 87.024 250.66 86.76C250.66 85.116 249.82 83.964 248.224 83.964C246.844 83.964 245.512 85.14 245.512 87.06C245.512 89.004 246.784 90.144 248.416 90.144ZM246.844 86.496C246.964 85.548 247.564 85.032 248.26 85.032C249.064 85.032 249.46 85.584 249.46 86.496H246.844ZM253.622 90.144C255.11 90.144 255.914 89.328 255.914 88.32C255.914 87.216 255.026 86.832 254.222 86.532C253.586 86.304 252.998 86.124 252.998 85.656C252.998 85.284 253.274 85.008 253.862 85.008C254.33 85.008 254.75 85.212 255.158 85.512L255.794 84.672C255.314 84.3 254.654 83.964 253.838 83.964C252.518 83.964 251.69 84.696 251.69 85.728C251.69 86.712 252.566 87.156 253.346 87.444C253.97 87.684 254.606 87.9 254.606 88.392C254.606 88.8 254.306 89.1 253.67 89.1C253.07 89.1 252.566 88.848 252.038 88.44L251.39 89.328C251.966 89.796 252.818 90.144 253.622 90.144Z" fill="white"/>
<path fill-rule="evenodd" clip-rule="evenodd" d="M52 21H71.4048C74.7185 21 77.4048 23.6863 77.4048 27V64.8489C77.4048 68.1627 74.7185 70.8489 71.4048 70.8489H52C48.6863 70.8489 46 68.1627 46 64.8489V27C46 23.6863 48.6863 21 52 21ZM61.9517 65.864C64.7047 65.864 66.9366 63.6322 66.9366 60.8792C66.9366 58.1261 64.7047 55.8943 61.9517 55.8943C59.1986 55.8943 56.9668 58.1261 56.9668 60.8792C56.9668 63.6322 59.1986 65.864 61.9517 65.864Z" fill="white"/>
<path d="M99.464 57H103.688V49.352C103.688 47.304 103.304 44.264 103.08 42.248H103.208L104.872 47.208L107.848 55.176H110.44L113.416 47.208L115.112 42.248H115.24C115.016 44.264 114.632 47.304 114.632 49.352V57H118.92V36.136H113.8L110.504 45.416C110.088 46.632 109.736 47.976 109.32 49.256H109.192C108.776 47.976 108.392 46.632 107.976 45.416L104.616 36.136H99.464V57ZM130.271 57.384C134.271 57.384 137.983 54.344 137.983 49.064C137.983 43.784 134.271 40.744 130.271 40.744C126.239 40.744 122.527 43.784 122.527 49.064C122.527 54.344 126.239 57.384 130.271 57.384ZM130.271 53.576C128.319 53.576 127.359 51.816 127.359 49.064C127.359 46.312 128.319 44.552 130.271 44.552C132.191 44.552 133.183 46.312 133.183 49.064C133.183 51.816 132.191 53.576 130.271 53.576ZM149.525 57.384C152.949 57.384 156.213 54.248 156.213 48.776C156.213 43.912 153.813 40.744 149.973 40.744C148.501 40.744 146.997 41.416 145.781 42.504L145.909 40.072V34.568H141.205V57H144.885L145.269 55.304H145.397C146.645 56.68 148.117 57.384 149.525 57.384ZM148.437 53.544C147.637 53.544 146.741 53.288 145.909 52.52V46.024C146.805 45.032 147.669 44.584 148.629 44.584C150.517 44.584 151.381 46.024 151.381 48.872C151.381 52.136 150.069 53.544 148.437 53.544ZM159.549 57H164.253V41.128H159.549V57ZM161.885 38.792C163.485 38.792 164.605 37.768 164.605 36.328C164.605 34.888 163.485 33.896 161.885 33.896C160.317 33.896 159.165 34.888 159.165 36.328C159.165 37.768 160.317 38.792 161.885 38.792ZM172.713 57.384C173.769 57.384 174.569 57.224 175.081 57L174.505 53.512C174.249 53.576 174.121 53.576 173.929 53.576C173.545 53.576 173.097 53.256 173.097 52.264V34.568H168.393V52.072C168.393 55.272 169.481 57.384 172.713 57.384ZM184.653 57.384C186.541 57.384 188.653 56.712 190.285 55.592L188.717 52.744C187.565 53.448 186.477 53.8 185.293 53.8C183.181 53.8 181.581 52.744 181.165 50.44H190.669C190.765 50.056 190.861 49.192 190.861 48.36C190.861 44.04 188.621 40.744 184.109 40.744C180.301 40.744 176.621 43.912 176.621 49.064C176.621 54.312 180.109 57.384 184.653 57.384ZM181.133 47.336C181.453 45.32 182.733 44.328 184.205 44.328C186.093 44.328 186.861 45.576 186.861 47.336H181.133Z" fill="white"/>
<path d="M107.528 131.144C109.724 131.144 111.44 128.9 111.44 126.308C111.44 124.28 110.384 123.008 108.608 123.008C106.424 123.008 104.696 125.252 104.696 127.844C104.696 129.872 105.764 131.144 107.528 131.144ZM107.6 130.028C106.544 130.028 106.028 129.14 106.028 127.748C106.028 125.924 107.144 124.124 108.536 124.124C109.592 124.124 110.12 125.012 110.12 126.404C110.12 128.228 108.992 130.028 107.6 130.028ZM113.378 130.376H113.402C113.69 130.832 114.158 131.144 114.71 131.144C116.33 131.144 117.866 129.368 117.866 127.112C117.866 125.732 117.23 124.964 116.186 124.964C115.514 124.964 114.842 125.336 114.278 125.828H114.242L114.266 125.108H113.222L111.566 133.328H112.85L113.186 131.576L113.378 130.376ZM115.658 126.02C116.198 126.02 116.546 126.428 116.546 127.28C116.546 128.804 115.622 130.088 114.626 130.088C114.254 130.088 113.906 129.884 113.654 129.392L114.158 126.872C114.602 126.296 115.202 126.02 115.658 126.02ZM118.693 128.648C118.693 130.232 119.653 131.144 121.057 131.144C121.897 131.144 122.593 130.856 123.073 130.52L122.593 129.692C122.269 129.932 121.813 130.16 121.393 130.16C120.505 130.16 119.809 129.632 119.941 128.384H123.529C123.613 128.192 123.781 127.652 123.781 127.136C123.781 125.912 123.277 124.964 121.909 124.964C120.361 124.964 118.693 126.452 118.693 128.648ZM120.049 127.568C120.337 126.56 121.045 125.96 121.753 125.96C122.473 125.96 122.713 126.476 122.713 127.052C122.713 127.244 122.689 127.412 122.653 127.568H120.049ZM124.42 131H125.716L126.508 126.98C127.132 126.344 127.588 126.068 127.996 126.068C128.5 126.068 128.74 126.32 128.74 126.824C128.74 127.004 128.692 127.172 128.644 127.448L127.924 131H129.208L129.952 127.28C130.024 126.968 130.048 126.728 130.048 126.452C130.048 125.504 129.64 124.964 128.656 124.964C127.912 124.964 127.252 125.408 126.628 125.936H126.58L126.64 125.108H125.596L124.42 131ZM134.961 131.144C136.317 131.144 137.301 130.4 137.301 129.26C137.301 128.54 136.869 128.072 135.993 127.604C135.489 127.316 134.985 127.112 134.985 126.68C134.985 126.272 135.381 125.936 135.921 125.936C136.389 125.936 136.749 126.188 137.049 126.488L137.769 125.804C137.313 125.324 136.689 124.964 135.921 124.964C134.745 124.964 133.773 125.732 133.773 126.8C133.773 127.508 134.253 128 135.033 128.432C135.777 128.84 136.089 129.044 136.089 129.416C136.089 129.848 135.609 130.184 135.057 130.184C134.529 130.184 134.049 129.896 133.665 129.392L132.897 130.016C133.341 130.688 134.217 131.144 134.961 131.144ZM140.53 131.144C142.15 131.144 143.782 129.608 143.782 127.364C143.782 125.888 142.906 124.964 141.574 124.964C139.966 124.964 138.334 126.488 138.334 128.744C138.334 130.208 139.21 131.144 140.53 131.144ZM140.674 130.1C139.99 130.1 139.63 129.584 139.63 128.696C139.63 127.196 140.506 126.008 141.442 126.008C142.114 126.008 142.474 126.512 142.474 127.4C142.474 128.912 141.61 130.1 140.674 130.1ZM150.363 125.108H149.079L148.287 129.128C147.699 129.752 147.231 130.04 146.835 130.04C146.343 130.04 146.103 129.788 146.103 129.284C146.103 129.104 146.139 128.936 146.199 128.66L146.907 125.108H145.623L144.879 128.828C144.819 129.128 144.783 129.38 144.783 129.656C144.783 130.592 145.203 131.144 146.187 131.144C146.895 131.144 147.567 130.688 148.155 130.16H148.203L148.155 131H149.199L150.363 125.108ZM150.928 131H152.224L152.92 127.436C153.4 126.536 153.964 126.104 154.516 126.104C154.72 126.104 154.924 126.128 155.068 126.2L155.5 125.072C155.344 125 155.164 124.964 154.912 124.964C154.204 124.964 153.556 125.516 153.088 126.248H153.04L153.148 125.108H152.104L150.928 131ZM157.546 131.144C158.434 131.144 159.034 130.784 159.478 130.46L158.926 129.644C158.626 129.884 158.266 130.1 157.81 130.1C157.018 130.1 156.622 129.584 156.622 128.696C156.622 127.232 157.546 126.008 158.602 126.008C158.998 126.008 159.238 126.152 159.514 126.464L160.234 125.684C159.91 125.3 159.406 124.964 158.686 124.964C156.85 124.964 155.302 126.632 155.302 128.744C155.302 130.268 156.25 131.144 157.546 131.144ZM160.4 128.648C160.4 130.232 161.36 131.144 162.764 131.144C163.604 131.144 164.3 130.856 164.78 130.52L164.3 129.692C163.976 129.932 163.52 130.16 163.1 130.16C162.212 130.16 161.516 129.632 161.648 128.384H165.236C165.32 128.192 165.488 127.652 165.488 127.136C165.488 125.912 164.984 124.964 163.616 124.964C162.068 124.964 160.4 126.452 160.4 128.648ZM161.756 127.568C162.044 126.56 162.752 125.96 163.46 125.96C164.18 125.96 164.42 126.476 164.42 127.052C164.42 127.244 164.396 127.412 164.36 127.568H161.756ZM170.783 125.744H170.747C170.495 125.276 170.027 124.964 169.451 124.964C167.819 124.964 166.283 126.74 166.283 128.996C166.283 130.376 166.931 131.144 167.963 131.144C168.635 131.144 169.355 130.76 169.907 130.184H169.943L169.883 131H170.939L172.643 122.528H171.359L170.951 124.616L170.783 125.744ZM168.491 130.088C167.951 130.088 167.615 129.68 167.615 128.816C167.615 127.304 168.527 126.02 169.523 126.02C169.883 126.02 170.255 126.236 170.519 126.74L170.039 129.092C169.547 129.8 168.995 130.088 168.491 130.088ZM176.02 131L176.271 130.316H176.296C176.56 130.82 177.04 131.144 177.628 131.144C179.248 131.144 180.784 129.368 180.784 127.112C180.784 125.72 180.148 124.964 179.104 124.964C178.456 124.964 177.808 125.3 177.256 125.744H177.232L177.52 124.616L177.94 122.528H176.656L174.952 131H176.02ZM178.576 126.02C179.116 126.02 179.464 126.428 179.464 127.28C179.464 128.804 178.54 130.088 177.544 130.088C177.172 130.088 176.824 129.872 176.572 129.368L177.076 126.872C177.52 126.296 178.12 126.02 178.576 126.02ZM181.196 133.424C182.372 133.424 183.104 132.596 183.836 131.312L187.148 125.108H185.9L184.436 128.084C184.16 128.636 183.872 129.296 183.608 129.848H183.56C183.536 129.296 183.476 128.612 183.416 128.084L183.044 125.108H181.76L182.78 130.94L182.6 131.3C182.276 131.96 181.784 132.392 181.28 132.392C181.124 132.392 180.968 132.344 180.848 132.272L180.44 133.208C180.668 133.34 181.004 133.424 181.196 133.424Z" fill="white" fill-opacity="0.7"/>
<path d="M226.416 132.192C228.912 132.192 230.352 130.688 230.352 128.96C230.352 127.488 229.552 126.64 228.288 126.128L226.944 125.584C226.048 125.216 225.36 124.992 225.36 124.352C225.36 123.76 225.872 123.408 226.688 123.408C227.52 123.408 228.16 123.712 228.848 124.24L230.048 122.752C229.152 121.856 227.888 121.376 226.688 121.376C224.512 121.376 222.976 122.752 222.976 124.48C222.976 126 224 126.896 225.072 127.328L226.432 127.904C227.344 128.288 227.936 128.496 227.936 129.152C227.936 129.776 227.456 130.16 226.48 130.16C225.616 130.16 224.656 129.712 223.904 129.072L222.56 130.688C223.616 131.68 225.056 132.192 226.416 132.192ZM234.534 132.192C235.302 132.192 235.878 132.032 236.294 131.904L235.926 130.192C235.718 130.272 235.43 130.352 235.174 130.352C234.549 130.352 234.15 129.984 234.15 129.088V125.904H236.054V124.064H234.15V121.952H232.198L231.926 124.064L230.71 124.16V125.904H231.798V129.12C231.798 130.96 232.566 132.192 234.534 132.192ZM240.873 132.192C241.817 132.192 242.873 131.856 243.689 131.296L242.905 129.872C242.329 130.224 241.785 130.4 241.193 130.4C240.137 130.4 239.337 129.872 239.129 128.72H243.881C243.929 128.528 243.977 128.096 243.977 127.68C243.977 125.52 242.857 123.872 240.601 123.872C238.697 123.872 236.857 125.456 236.857 128.032C236.857 130.656 238.601 132.192 240.873 132.192ZM239.113 127.168C239.273 126.16 239.913 125.664 240.649 125.664C241.593 125.664 241.977 126.288 241.977 127.168H239.113ZM245.603 132H247.955V127.392C248.371 126.32 249.107 125.936 249.699 125.936C250.035 125.936 250.275 125.984 250.563 126.064L250.947 124.032C250.723 123.936 250.451 123.872 250.003 123.872C249.187 123.872 248.323 124.384 247.747 125.456H247.683L247.523 124.064H245.603V132ZM256.138 132.192C257.85 132.192 259.482 130.624 259.482 127.888C259.482 125.456 258.282 123.872 256.362 123.872C255.626 123.872 254.874 124.208 254.266 124.752L254.33 123.536V120.784H251.978V132H253.818L254.01 131.152H254.074C254.698 131.84 255.434 132.192 256.138 132.192ZM255.594 130.272C255.194 130.272 254.746 130.144 254.33 129.76V126.512C254.778 126.016 255.21 125.792 255.69 125.792C256.634 125.792 257.066 126.512 257.066 127.936C257.066 129.568 256.41 130.272 255.594 130.272ZM263.309 132.192C263.837 132.192 264.237 132.112 264.493 132L264.205 130.256C264.077 130.288 264.013 130.288 263.917 130.288C263.725 130.288 263.501 130.128 263.501 129.632V120.784H261.149V129.536C261.149 131.136 261.693 132.192 263.309 132.192ZM268.112 132.192C269.2 132.192 269.936 131.696 270.608 130.896H270.656L270.832 132H272.752V124.064H270.4V129.312C269.936 129.936 269.584 130.192 268.992 130.192C268.304 130.192 268 129.824 268 128.688V124.064H265.648V128.992C265.648 130.976 266.384 132.192 268.112 132.192ZM278.373 132.192C279.317 132.192 280.373 131.856 281.189 131.296L280.405 129.872C279.829 130.224 279.285 130.4 278.693 130.4C277.637 130.4 276.837 129.872 276.629 128.72H281.381C281.429 128.528 281.477 128.096 281.477 127.68C281.477 125.52 280.357 123.872 278.101 123.872C276.197 123.872 274.357 125.456 274.357 128.032C274.357 130.656 276.101 132.192 278.373 132.192ZM276.613 127.168C276.773 126.16 277.413 125.664 278.149 125.664C279.093 125.664 279.477 126.288 279.477 127.168H276.613Z" fill="white" fill-opacity="0.7"/>
<path d="M215.996 127.3C215.999 127.2 216 127.1 216 127C216 120.373 210.627 115 204 115C197.373 115 192 120.373 192 127C192 128.824 192.407 130.552 193.135 132.1H198.6C199.76 132.1 200.7 131.16 200.7 130C200.7 128.84 199.76 127.9 198.6 127.9C196.446 127.9 194.7 126.154 194.7 124C194.7 121.846 196.446 120.1 198.6 120.1H200.4C203.548 120.1 206.1 122.652 206.1 125.8V129.4C206.1 130.891 207.309 132.1 208.8 132.1C210.291 132.1 211.5 130.891 211.5 129.4V129.1H210.6C209.109 129.1 207.9 127.891 207.9 126.4C207.9 124.909 209.109 123.7 210.6 123.7C212.091 123.7 213.3 124.909 213.3 126.4V127.3H215.996Z" fill="white" fill-opacity="0.7"/>
<path d="M215.817 129.1H213.3V129.4C213.3 131.885 211.285 133.9 208.8 133.9C206.315 133.9 204.3 131.885 204.3 129.4V125.8C204.3 123.646 202.554 121.9 200.4 121.9H198.6C197.44 121.9 196.5 122.84 196.5 124C196.5 125.16 197.44 126.1 198.6 126.1C200.754 126.1 202.5 127.846 202.5 130C202.5 132.154 200.754 133.9 198.6 133.9H194.181C196.353 136.985 199.941 139 204 139C209.911 139 214.824 134.726 215.817 129.1Z" fill="white" fill-opacity="0.7"/>
<path d="M211.5 126.4V127.3H210.6C210.103 127.3 209.7 126.897 209.7 126.4C209.7 125.903 210.103 125.5 210.6 125.5C211.097 125.5 211.5 125.903 211.5 126.4Z" fill="white" fill-opacity="0.7"/>
</svg>
