<svg width="250" height="250" viewBox="0 0 250 250" fill="none" xmlns="http://www.w3.org/2000/svg">
<path fill-rule="evenodd" clip-rule="evenodd" d="M152.221 159.066C155.036 165.756 159.822 170.404 162.357 177.36C163.86 181.485 164.487 185.971 164.525 190.564C164.545 193.059 164.502 195.556 164.49 198.051C164.479 200.484 164.413 202.902 164.206 205.32C163.998 207.75 163.766 210.152 163.664 212.597C163.584 214.502 163.547 216.719 162.901 218.457C162.388 219.839 161.082 220.041 160.736 218.365C160.544 217.433 160.568 216.393 160.589 215.435C160.616 214.206 160.688 212.979 160.724 211.751C160.871 206.821 160.681 201.89 160.78 196.958C160.877 192.139 161.496 187.326 160.811 182.539C160.245 178.586 158.807 175.192 157.155 171.938C155.565 168.808 153.835 165.753 152.761 162.192C152.452 161.169 152.214 160.109 152.1 159.01C152.15 158.986 152.19 159.005 152.221 159.066Z" fill="#C1DEE2"/>
<path fill-rule="evenodd" clip-rule="evenodd" d="M151.454 172.265C152.011 172.667 152.323 173.256 152.7 173.837C153.168 174.559 153.719 175.212 154.187 175.934C155.164 177.442 156.022 179.041 156.913 180.609C158.603 183.586 159.887 186.758 160.523 190.202C161.182 193.771 161.359 197.454 161.636 201.076C161.929 204.915 162.224 208.782 162.263 212.635C162.28 214.362 162.374 216.194 162.166 217.909C162.037 218.976 161.556 219.886 160.47 219.877C158.163 219.859 157.081 217.304 156.628 215.209C155.962 212.124 155.829 208.847 155.935 205.692C156.062 201.887 156.722 198.14 157.008 194.351C157.311 190.339 157.14 186.398 155.761 182.621C155.064 180.712 154.255 178.849 153.529 176.952C153.22 176.145 152.966 175.316 152.549 174.564C152.084 173.728 151.507 172.969 151.143 172.068C151.247 172.134 151.35 172.199 151.454 172.265Z" fill="#89C5CC"/>
<path fill-rule="evenodd" clip-rule="evenodd" d="M178.023 164.265C178.094 164.21 178.165 164.155 178.235 164.1C178.032 164.958 177.664 165.655 177.382 166.439C177.13 167.145 177.001 167.943 176.831 168.714C176.431 170.524 175.969 172.294 175.592 174.12C174.844 177.734 174.985 181.627 175.476 185.635C175.939 189.422 176.671 193.204 177.02 196.99C177.309 200.13 177.434 203.367 177.158 206.363C176.97 208.398 176.356 210.827 174.681 210.622C173.892 210.525 173.481 209.576 173.315 208.505C173.049 206.784 172.994 204.975 172.89 203.264C172.658 199.445 172.612 195.638 172.566 191.858C172.523 188.292 172.404 184.656 172.642 181.179C172.872 177.825 173.591 174.802 174.619 172.014C175.16 170.544 175.676 169.041 176.284 167.64C176.576 166.968 176.932 166.375 177.224 165.704C177.458 165.164 177.645 164.61 178.023 164.265Z" fill="#C1DEE2"/>
<path fill-rule="evenodd" clip-rule="evenodd" d="M152.166 183.319C152.471 182.807 153.143 184.496 153.245 184.708C153.201 184.603 153.158 184.497 153.114 184.392C153.72 185.399 154.274 186.446 154.618 187.601C154.959 188.743 155.251 189.909 155.571 191.06C156.171 193.219 156.945 195.317 157.488 197.495C158.018 199.618 158.151 201.705 158.023 203.901C157.89 206.183 157.808 208.5 157.964 210.781C158.038 211.871 158.392 212.885 158.635 213.934C158.878 214.984 159.069 216.048 159.356 217.085C159.422 216.949 159.43 217.401 159.43 217.435C159.429 217.694 159.392 217.911 159.309 218.157C159.095 218.789 158.694 219.325 158.085 219.499C156.983 219.814 155.96 218.812 155.605 217.754C155.095 216.236 154.814 214.558 154.571 212.962C154.349 211.498 154.296 210.026 154.362 208.543C154.493 205.617 155.022 202.73 155.165 199.805C155.321 196.621 154.69 193.63 154.162 190.53C153.908 189.037 153.664 187.557 153.169 186.134C152.969 185.558 152.708 185.05 152.434 184.518C152.278 184.215 151.962 183.675 152.166 183.319Z" fill="#C1DEE2"/>
<path fill-rule="evenodd" clip-rule="evenodd" d="M161.104 178.346C160.978 181.994 160.76 185.614 160.274 189.223C159.777 192.906 159.207 196.577 158.73 200.264C158.265 203.852 157.778 207.5 157.843 211.139C157.89 213.819 157.446 218.353 160.423 219.676C163.437 221.015 164.084 215.295 164.282 213.406C164.661 209.784 164.539 206.123 164.354 202.48C164.165 198.742 163.85 195.023 163.459 191.298C163.025 187.16 162.684 183.004 162.41 178.855C162.275 176.803 162.242 174.754 162.279 172.701C162.314 170.764 162.241 168.807 161.552 166.968C161.516 166.994 161.48 167.02 161.444 167.047" fill="#69A1AC"/>
<path fill-rule="evenodd" clip-rule="evenodd" d="M176.668 189.902C176.126 190.692 175.579 191.474 175.067 192.311C174.151 193.808 173.323 195.473 173.074 197.613C172.552 202.092 172.97 206.93 173.071 211.546C173.092 212.49 172.973 213.405 173.345 214.302C173.682 215.116 174.312 215.737 174.913 215.734C176.199 215.726 176.003 212.577 176.005 211.19C176.009 208.761 175.736 206.306 175.76 203.879C175.783 201.474 175.929 199.062 176.278 196.778C176.631 194.466 177.148 192.246 177.83 190.175C177.925 189.887 178.604 187.666 177.963 188.048" fill="#89C5CC"/>
<path fill-rule="evenodd" clip-rule="evenodd" d="M170.988 166.012C170.143 166.012 170.148 170.227 170.122 170.769C170.03 172.723 170.052 174.677 169.994 176.632C169.867 180.897 169.71 185.199 169.07 189.415C168.725 191.684 168.325 193.944 167.895 196.196C167.463 198.455 166.884 200.711 166.601 202.998C166.328 205.197 166.482 207.439 166.52 209.649C166.557 211.872 166.624 214.1 166.915 216.303C166.987 216.847 167.071 217.389 167.162 217.93C167.237 218.38 167.193 218.939 167.32 219.367C167.524 220.053 168.397 220.277 168.985 220.17C170.576 219.88 171.593 217.882 172.136 216.422C172.831 214.558 173.199 212.536 173.562 210.571C173.974 208.346 174.216 206.086 174.329 203.82C174.559 199.215 174.264 194.606 173.934 190.015C173.75 187.463 173.538 184.921 173.214 182.384C172.891 179.858 172.477 177.343 172.207 174.809C172.011 172.968 171.818 171.124 171.691 169.276C171.66 168.835 171.635 166.012 170.988 166.012Z" fill="#69A1AC"/>
<path fill-rule="evenodd" clip-rule="evenodd" d="M169.93 196.654C169.792 192.228 168.013 172.788 167.608 167.436C167.507 166.096 166.532 160.519 166.406 159C166.063 159.429 166.092 166.111 166.096 167.646C166.1 169.164 165.912 170.658 165.815 172.168C165.716 173.71 163.438 193.614 163.142 195.095C162.554 198.041 162.16 201.065 161.856 204.077C161.56 207.013 161.101 210.111 161.496 213.062C161.587 213.741 161.731 214.41 161.966 215.034C162.219 215.709 162.393 216.332 162.596 217.038C162.923 218.175 163.515 219.172 164.424 219.642C166.289 220.604 167.29 218.426 167.797 216.529C168.608 213.501 169.128 210.423 169.372 207.242C169.642 203.723 170.04 200.197 169.93 196.654Z" fill="#89C5CC"/>
<path d="M178.554 209.678H150.825C150.473 209.678 150.187 209.963 150.187 210.315V238.045C150.187 238.397 150.473 238.682 150.825 238.682H178.554C178.906 238.682 179.191 238.397 179.191 238.045V210.315C179.191 209.963 178.906 209.678 178.554 209.678Z" fill="white"/>
<path d="M149.55 212.865H147.637C147.285 212.865 147 213.15 147 213.502V248.244C147 248.596 147.285 248.881 147.637 248.881H149.55C149.902 248.881 150.187 248.596 150.187 248.244V213.502C150.187 213.15 149.902 212.865 149.55 212.865Z" fill="#C5CFD6"/>
<path d="M165.486 212.865H163.574C163.222 212.865 162.936 213.15 162.936 213.502V248.244C162.936 248.596 163.222 248.881 163.574 248.881H165.486C165.838 248.881 166.124 248.596 166.124 248.244V213.502C166.124 213.15 165.838 212.865 165.486 212.865Z" fill="#C5CFD6"/>
<path d="M181.741 212.865H179.829C179.477 212.865 179.192 213.15 179.192 213.502V248.244C179.192 248.596 179.477 248.881 179.829 248.881H181.741C182.093 248.881 182.379 248.596 182.379 248.244V213.502C182.379 213.15 182.093 212.865 181.741 212.865Z" fill="#C5CFD6"/>
<path fill-rule="evenodd" clip-rule="evenodd" d="M95.674 50.7779C93.1628 47.8302 91.4632 44.2178 91.7472 40.17C92.5655 28.5072 108.801 31.0729 111.959 36.9593C115.117 42.8457 114.741 57.777 110.66 58.8291C109.032 59.2487 105.565 58.2209 102.036 56.0938L104.251 71.7651H91.1713L95.674 50.7779Z" fill="#B28B67"/>
<path fill-rule="evenodd" clip-rule="evenodd" d="M106.19 37.813C104.415 38.8059 103.152 40.6663 101.632 43.1066C101.261 42.961 100.858 42.8811 100.436 42.8811C98.63 42.8811 97.1661 44.3451 97.1661 46.151C97.1661 47.0678 97.5434 47.8964 98.1511 48.4902C97.3945 49.5581 96.5466 50.6737 95.5749 51.8249C91.949 49.6495 89.2521 43.3091 92.7142 37.1884C95.6929 24.928 112.572 32.5379 115.819 30.4701C116.529 34.9192 114.239 38.5066 106.19 37.813Z" fill="#191847"/>
<path fill-rule="evenodd" clip-rule="evenodd" d="M90.6445 119.078L117.393 186.779L135.333 244.015H142.418L114.991 119.078L90.6445 119.078Z" fill="#997659"/>
<path fill-rule="evenodd" clip-rule="evenodd" d="M85.2583 119.078C84.9734 142.868 80.8195 174.899 80.1559 176.382C79.7134 177.37 64.4398 189.943 34.3348 214.099L39.2142 219.321C74.7352 198.61 93.3176 186.873 94.9613 184.111C97.4269 179.967 105.454 141.838 111.899 119.078H85.2583Z" fill="#B28B67"/>
<path fill-rule="evenodd" clip-rule="evenodd" d="M33.6823 212.356C32.0436 212.935 30.9148 213.485 30.2958 214.004C29.543 214.636 28.5496 215.683 27.3158 217.146C28.0486 218.019 34.6346 225.868 47.0737 240.692C49.6101 239.607 50.4058 238.337 49.4609 236.884C48.5159 235.43 47.7426 234.213 47.1409 233.232L42.8366 218.193C42.7538 217.904 42.4521 217.737 42.1627 217.819C42.1578 217.821 42.1528 217.822 42.1479 217.824L39.8511 218.552C38.2576 217.81 37.1408 217.057 36.5005 216.294C35.9803 215.674 35.5123 214.608 35.0965 213.095L35.0965 213.095C34.9369 212.515 34.337 212.173 33.7566 212.333C33.7316 212.34 33.7068 212.348 33.6823 212.356Z" fill="#E4E4E4"/>
<path fill-rule="evenodd" clip-rule="evenodd" d="M132.433 241.372C131.823 243 131.518 244.218 131.518 245.026C131.518 246.009 131.682 247.443 132.009 249.328C133.149 249.328 143.395 249.328 162.747 249.328C163.546 246.687 163.085 245.262 161.364 245.051C159.643 244.841 158.213 244.651 157.075 244.481L142.788 238.112C142.513 237.989 142.191 238.113 142.069 238.388C142.067 238.392 142.065 238.397 142.063 238.402L141.144 240.63C139.551 241.373 138.257 241.745 137.26 241.745C136.451 241.745 135.334 241.418 133.908 240.764L133.908 240.764C133.36 240.513 132.713 240.753 132.463 241.301C132.452 241.324 132.442 241.348 132.433 241.372Z" fill="#E4E4E4"/>
<path fill-rule="evenodd" clip-rule="evenodd" d="M108.629 238.119L142.311 234.464L117.349 119.078H87.1807L108.629 238.119Z" fill="#69A1AC"/>
<path fill-rule="evenodd" clip-rule="evenodd" d="M41.302 205.675L63.3956 231.827C86.6662 206.411 100.233 189.827 104.096 182.075C107.959 174.323 111.432 153.324 114.514 119.078H80.5506C78.8668 149.206 77.7319 164.972 77.1457 166.374C76.5595 167.776 64.6116 180.876 41.302 205.675Z" fill="#89C5CC"/>
<path fill-rule="evenodd" clip-rule="evenodd" d="M139.815 112.49L155.832 128.014C160.492 129.989 164.31 132.17 167.287 134.556C167.956 135.358 168.685 136.895 165.535 136.208C162.386 135.52 159.042 134.937 158.45 135.955C157.858 136.972 159.602 138.532 158.509 139.863C157.779 140.751 155.327 137.927 151.15 131.391L134.496 121.635L139.815 112.49ZM61.4952 98.4401L73.8758 98.4862C64.4463 128.84 59.4408 144.732 58.8594 146.164C57.5511 149.385 60.3196 154.291 61.5035 156.928C57.6475 158.642 58.0584 152.293 53.1941 154.542C48.7543 156.594 45.3769 160.313 40.2473 157.168C39.6166 156.781 38.9255 155.326 40.5953 154.188C44.7553 151.354 50.7502 146.394 51.5602 144.761C52.6647 142.535 55.9764 127.094 61.4952 98.4401Z" fill="#B28B67"/>
<path fill-rule="evenodd" clip-rule="evenodd" d="M99.2211 63.5454L104.11 62.7122C111.812 89.7615 151.383 108.199 153.812 118.311C154.703 122.019 152.017 123.894 153.404 125.023L147.05 129.645C145.973 128.398 143.677 130.68 138.881 129.084C134.086 127.487 99.2211 95.574 99.2211 63.5454Z" fill="#69CFB7"/>
<path fill-rule="evenodd" clip-rule="evenodd" d="M107.445 67.1416C106.881 102.953 127.717 112.088 123.076 126.454C119.244 138.317 82.5603 151.07 76.2125 139.441C73.6429 134.734 72.4771 129.041 72.3449 122.851C70.7225 127.607 69.4394 131.7 68.4955 135.132C66.8672 141.053 60.5546 141.994 60.5546 144.275L52.2379 141.994C52.802 138.896 48.8813 137.387 49.9326 130.464C54.6427 99.4455 67.2982 76.9613 87.8988 63.0112L88.1166 59.916C88.203 58.7159 89.2439 57.8111 90.4443 57.8925L105.836 58.9619C107.037 59.0434 107.943 60.0846 107.859 61.2857C107.859 61.2863 107.859 61.287 107.857 61.2875L107.445 67.1416Z" fill="#79E1CF"/>
<path fill-rule="evenodd" clip-rule="evenodd" d="M145 35H184C190.627 35 196 40.3726 196 47V123C196 129.627 190.627 135 184 135H145C138.373 135 133 129.627 133 123V47C133 40.3726 138.373 35 145 35ZM165 125C170.523 125 175 120.523 175 115C175 109.477 170.523 105 165 105C159.477 105 155 109.477 155 115C155 120.523 159.477 125 165 125Z" fill="#6CE6DE"/>
</svg>
