<svg width="250" height="250" viewBox="0 0 250 250" fill="none" xmlns="http://www.w3.org/2000/svg">
<path fill-rule="evenodd" clip-rule="evenodd" d="M95.674 50.7779C93.1628 47.8302 91.4632 44.2178 91.7472 40.17C92.5655 28.5072 108.801 31.0729 111.959 36.9593C115.117 42.8457 114.741 57.777 110.66 58.8291C109.032 59.2487 105.565 58.2209 102.036 56.0938L104.251 71.7651H91.1713L95.674 50.7779Z" fill="#B28B67"/>
<path fill-rule="evenodd" clip-rule="evenodd" d="M106.19 37.813C104.415 38.8059 103.152 40.6663 101.632 43.1066C101.261 42.961 100.858 42.8811 100.436 42.8811C98.63 42.8811 97.1661 44.3451 97.1661 46.151C97.1661 47.0678 97.5434 47.8964 98.1511 48.4902C97.3945 49.5581 96.5466 50.6737 95.5749 51.8249C91.949 49.6495 89.2521 43.3091 92.7142 37.1884C95.6929 24.928 112.572 32.5379 115.819 30.4701C116.529 34.9192 114.239 38.5066 106.19 37.813Z" fill="#191847"/>
<path fill-rule="evenodd" clip-rule="evenodd" d="M90.6445 119.078L117.393 186.779L135.333 244.015H142.418L114.991 119.078L90.6445 119.078Z" fill="#997659"/>
<path fill-rule="evenodd" clip-rule="evenodd" d="M85.2583 119.078C84.9734 142.868 80.8195 174.899 80.1559 176.382C79.7134 177.37 64.4398 189.943 34.3348 214.099L39.2142 219.321C74.7352 198.61 93.3176 186.873 94.9613 184.111C97.4269 179.967 105.454 141.838 111.899 119.078H85.2583Z" fill="#B28B67"/>
<path fill-rule="evenodd" clip-rule="evenodd" d="M33.6823 212.356C32.0436 212.935 30.9148 213.485 30.2958 214.004C29.543 214.636 28.5496 215.683 27.3158 217.146C28.0486 218.019 34.6346 225.868 47.0737 240.692C49.6101 239.607 50.4058 238.337 49.4609 236.884C48.5159 235.43 47.7426 234.212 47.1409 233.231L42.8366 218.193C42.7538 217.904 42.4521 217.736 42.1627 217.819C42.1578 217.821 42.1528 217.822 42.1479 217.824L39.8511 218.552C38.2576 217.809 37.1408 217.057 36.5005 216.294C35.9803 215.674 35.5123 214.607 35.0965 213.095L35.0965 213.095C34.9369 212.515 34.337 212.173 33.7566 212.333C33.7316 212.34 33.7068 212.348 33.6823 212.356Z" fill="#E4E4E4"/>
<path fill-rule="evenodd" clip-rule="evenodd" d="M132.433 241.372C131.823 243 131.518 244.218 131.518 245.026C131.518 246.009 131.682 247.443 132.009 249.328C133.149 249.328 143.395 249.328 162.747 249.328C163.546 246.687 163.085 245.262 161.364 245.051C159.643 244.841 158.213 244.651 157.075 244.481L142.788 238.112C142.513 237.989 142.191 238.113 142.069 238.388C142.067 238.392 142.065 238.397 142.063 238.402L141.144 240.629C139.551 241.373 138.257 241.744 137.26 241.744C136.451 241.744 135.334 241.418 133.908 240.764L133.908 240.764C133.36 240.513 132.713 240.753 132.463 241.301C132.452 241.324 132.442 241.348 132.433 241.372Z" fill="#E4E4E4"/>
<path fill-rule="evenodd" clip-rule="evenodd" d="M108.629 238.119L142.311 234.464L117.349 119.078H87.1807L108.629 238.119Z" fill="#69A1AC"/>
<path fill-rule="evenodd" clip-rule="evenodd" d="M41.302 205.675L63.3956 231.826C86.6662 206.411 100.233 189.827 104.096 182.075C107.959 174.323 111.432 153.324 114.514 119.078H80.5506C78.8668 149.206 77.7319 164.972 77.1457 166.374C76.5596 167.776 64.6116 180.876 41.302 205.675Z" fill="#89C5CC"/>
<path fill-rule="evenodd" clip-rule="evenodd" d="M139.815 112.49L155.832 128.014C160.492 129.989 164.31 132.17 167.287 134.556C167.956 135.358 168.685 136.895 165.535 136.208C162.386 135.52 159.042 134.937 158.45 135.955C157.858 136.972 159.602 138.532 158.509 139.863C157.779 140.751 155.327 137.927 151.15 131.391L134.496 121.635L139.815 112.49ZM61.4952 98.4401L73.8758 98.4862C64.4463 128.84 59.4408 144.732 58.8594 146.164C57.5511 149.385 60.3196 154.291 61.5035 156.928C57.6475 158.642 58.0584 152.293 53.1941 154.542C48.7543 156.594 45.3769 160.313 40.2473 157.168C39.6166 156.781 38.9255 155.326 40.5953 154.188C44.7553 151.354 50.7502 146.394 51.5602 144.761C52.6647 142.535 55.9764 127.094 61.4952 98.4401Z" fill="#B28B67"/>
<path fill-rule="evenodd" clip-rule="evenodd" d="M99.2211 63.5455L104.11 62.7123C111.812 89.7616 151.383 108.2 153.812 118.311C154.703 122.019 152.017 123.894 153.404 125.023L147.05 129.645C145.973 128.398 143.677 130.68 138.881 129.084C134.086 127.488 99.2211 95.5742 99.2211 63.5455Z" fill="#69CFB7"/>
<path fill-rule="evenodd" clip-rule="evenodd" d="M107.445 67.1416C106.881 102.953 127.717 112.088 123.076 126.454C119.244 138.317 82.5603 151.07 76.2125 139.441C73.6429 134.734 72.4771 129.041 72.3449 122.851C70.7225 127.607 69.4394 131.7 68.4955 135.132C66.8672 141.053 60.5546 141.994 60.5546 144.275L52.2379 141.994C52.802 138.896 48.8813 137.387 49.9326 130.464C54.6427 99.4455 67.2982 76.9613 87.8988 63.0112L88.1166 59.9161C88.203 58.716 89.2439 57.8112 90.4443 57.8926L105.836 58.9619C107.037 59.0434 107.943 60.0847 107.859 61.2857C107.859 61.2864 107.859 61.287 107.857 61.2876L107.445 67.1416Z" fill="#79E1CF"/>
<path fill-rule="evenodd" clip-rule="evenodd" d="M145 35H184C190.627 35 196 40.3726 196 47V123C196 129.627 190.627 135 184 135H145C138.373 135 133 129.627 133 123V47C133 40.3726 138.373 35 145 35ZM165 125C170.523 125 175 120.523 175 115C175 109.477 170.523 105 165 105C159.477 105 155 109.477 155 115C155 120.523 159.477 125 165 125Z" fill="#6CE6DE"/>
</svg>
