<svg width="150" height="150" viewBox="0 0 150 150" fill="none" xmlns="http://www.w3.org/2000/svg">
<path fill-rule="evenodd" clip-rule="evenodd" d="M45.576 116.943H110.179C117.96 116.943 122.76 108.447 118.745 101.782L86.4434 48.1618C82.5559 41.7087 73.1992 41.7087 69.3118 48.1618L37.0102 101.782C32.9952 108.447 37.7951 116.943 45.576 116.943ZM77.8776 96.9426C83.4004 96.9426 87.8776 92.4654 87.8776 86.9426C87.8776 81.4198 83.4004 76.9426 77.8776 76.9426C72.3547 76.9426 67.8776 81.4198 67.8776 86.9426C67.8776 92.4654 72.3547 96.9426 77.8776 96.9426Z" fill="#FCEC00"/>
<path d="M70.761 79.605C68.4382 81.9981 68.3869 85.475 67.7562 88.5386C67.1723 91.3746 67.4917 93.8701 70.1485 95.5306C71.5229 96.3896 72.8432 97.2883 74.2975 98.0154C75.3602 98.5468 76.7213 98.3275 77.8802 98.3275C79.973 98.3275 83.737 97.4159 85.0687 95.6231C87.1973 92.7577 86.5711 89.0207 86.5711 85.6262C86.5711 82.5344 85.6717 80.1478 84.5371 77.3629C84.208 76.5551 82.4543 76.9006 81.7865 76.9006C80.2029 76.9006 78.6595 76.8734 77.1059 77.2242C75.4271 77.6033 73.7571 78.5192 72.171 79.1889C70.1254 80.0526 68.2647 81.8815 68.2647 84.1816" stroke="black" stroke-linecap="round" stroke-linejoin="round"/>
<path d="M73.0493 78.1486C76.6859 77.6717 82.0374 76.6728 85.115 79.4083C86.7045 80.8213 87.4033 82.7468 87.4033 84.8517C87.4033 87.1063 87.4883 88.796 86.4671 90.8383C85.2923 93.188 83.0258 95.8988 80.4343 96.5706C79.084 96.9207 77.8321 97.2872 76.424 97.2872C75.3164 97.2872 73.7753 97.5919 72.8413 96.9174C70.1306 94.9596 68.9159 92.4285 67.5482 89.4977C67.0275 88.382 67.1778 85.3839 68.0104 84.5513C68.8482 83.7135 69.6657 82.6145 70.137 81.5233C70.5416 80.5863 71.0824 79.6048 72.2172 79.6048" stroke="black" stroke-linecap="round" stroke-linejoin="round"/>
<path d="M77.7537 33.9007C74.8313 36.7568 72.7257 39.7274 70.8008 43.2942C69.1759 46.3049 67.1322 49.0476 65.3629 51.9669C64.424 53.5161 63.418 54.996 62.5702 56.6022C61.7641 58.1297 61.0051 59.7226 60.0642 61.172C59.4441 62.1273 59.0433 63.3941 58.2625 64.2349C56.4628 66.1731 54.4183 67.8851 52.6936 69.9021C51.7831 70.967 51.2535 72.3243 50.4824 73.4809C49.6242 74.7682 48.8355 76.1375 48.0501 77.4692C45.905 81.1067 43.974 84.9664 42.0881 88.7381C41.254 90.4063 40.5921 92.0861 39.6067 93.6846C38.5341 95.4245 37.7518 97.2479 36.9205 99.1061C36.4759 100.1 35.9723 101.083 35.6266 102.12C35.2122 103.363 34.3395 104.403 33.8576 105.625C33.4397 106.685 33.0319 107.762 32.58 108.794C32.3475 109.326 32.4903 109.809 32.3426 110.326C32.2594 110.617 32.8855 110.777 33.1697 110.858C34.1913 111.15 35.2678 112.141 36.1835 112.701C37.2245 113.337 38.1181 113.947 39.2464 114.421C40.1461 114.798 40.8662 115.403 41.6377 115.977C43.1264 117.082 44.5881 118.289 46.1747 119.252C46.9123 119.7 47.8256 119.831 48.4924 120.35C48.8786 120.65 49.2914 121.007 49.598 121.39C49.8395 121.692 50.8504 121.307 51.1458 121.251C51.9016 121.108 52.6653 121.056 53.4307 121.013C56.0476 120.868 58.6106 120.064 61.178 119.621C64.068 119.123 66.9065 118.709 69.8262 118.507C72.4879 118.324 74.9968 117.402 77.6391 117.041C80.0105 116.718 82.3976 116.514 84.764 116.157C87.5141 115.742 90.3125 115.862 93.0846 115.862C95.7487 115.862 98.4348 116.332 101.094 116.149C101.532 116.118 101.779 115.834 102.167 115.715C103.277 115.373 104.389 115.038 105.5 114.691C107.326 114.12 109.221 113.8 111.044 113.217C112.003 112.91 112.992 112.498 113.984 112.332C114.972 112.168 115.884 111.801 116.892 111.726C118.061 111.64 119.43 111.518 120.536 111.177C121.195 110.975 121.19 110.748 120.798 110.08C119.844 108.453 118.864 106.722 117.997 105.035C117.016 103.127 115.44 101.355 114.689 99.3518C114.344 98.4335 113.954 97.5377 113.575 96.6328C113.197 95.7294 112.982 94.7303 112.461 93.8975C110.939 91.4618 109.583 88.9085 108.35 86.314C107.85 85.2633 107.326 84.2068 107.023 83.0791C106.848 82.4256 106.748 81.9599 106.278 81.4494C105.301 80.3878 104.334 79.0216 103.813 77.6822C103.034 75.6792 101.458 74.13 100.226 72.4081C98.8911 70.5431 98.0248 68.3961 96.7699 66.4788C96.2046 65.6151 95.8335 64.6095 95.263 63.7926C94.0925 62.1166 93.0139 60.3712 91.9053 58.6578C91.0496 57.3354 90.0444 56.1107 89.2437 54.7596C87.6308 52.0378 85.7415 49.4452 84.3873 46.5864C83.6264 44.98 82.7152 43.3559 81.7011 41.8937C80.8004 40.5951 80.1508 39.0405 79.0804 37.8809C78.0388 36.7524 77.8271 35.014 77.1641 33.6878C76.81 32.9796 76.7751 33.5542 76.5416 34.0481C76.2336 34.6998 75.8963 35.3225 75.5753 35.9645C74.7546 37.6058 73.8394 38.9941 72.8236 40.5179C71.3949 42.661 70.0549 44.8523 68.6141 46.9877C67.2289 49.0407 66.3477 51.4332 64.9288 53.441C62.5089 56.8655 60.1094 60.4265 58.0824 64.112C57.4303 65.2976 56.9673 66.604 56.3052 67.781C55.9735 68.3706 55.3174 68.9559 54.8721 69.468C53.5549 70.9827 52.3372 72.5736 51.0066 74.0787C48.9288 76.429 47.2597 79.3325 45.6506 82.0226C44.4356 84.054 43.2822 86.1139 42.0799 88.1484C40.9778 90.0136 39.8761 91.8825 38.8369 93.7828C38.0571 95.2087 37.6023 96.9255 36.9205 98.4181C35.53 101.462 34.2857 104.557 33.0796 107.672C32.846 108.276 32.4996 109.062 32.1296 109.597C31.7584 110.133 32.0924 110.082 32.58 110.277C33.2683 110.552 33.9271 110.925 34.6111 111.218C35.4111 111.561 36.0532 112.429 36.8059 112.881C37.7696 113.459 39.1456 113.643 39.9834 114.421C41.1745 115.527 42.8427 115.81 44.1437 116.714C45.3014 117.518 46.6121 118.092 47.7553 118.884C48.7925 119.602 49.7723 119.652 50.9247 120.063C51.3716 120.223 51.8135 120.362 52.2514 120.546C53.2653 120.973 54.8306 120.154 55.9039 120.137C59.205 120.083 62.5119 120.137 65.8133 120.137C69.5807 120.137 73.5417 119.508 77.2296 118.736C80.3393 118.086 83.4801 117.566 86.5984 116.959C88.9972 116.493 91.3217 115.733 93.7479 115.42C96.9009 115.013 100.007 114.838 103.1 114.019C105.985 113.256 109.002 112.696 111.953 112.291C114.87 111.892 117.687 111.292 120.651 111.292C121.52 111.292 122.356 110.997 123.222 110.997C123.343 110.997 123.861 110.828 123.886 110.94C123.975 111.343 123.566 111.711 123.468 112.078C123.42 112.257 122.43 110.758 122.19 110.473C121.468 109.613 120.974 108.714 120.43 107.746C119.506 106.105 119.038 103.874 117.735 102.48C115.928 100.547 115.498 97.6713 114.279 95.4044C113.229 93.4497 111.847 91.547 111.012 89.4915C110.339 87.8359 109.673 86.4722 108.497 85.061C106.528 82.6972 105.084 79.959 103.191 77.5347C101.009 74.7428 99.732 71.4471 97.8018 68.5098C96.6136 66.7018 95.1491 65.166 94.0346 63.3013C93.2649 62.0135 92.3673 60.8648 91.4958 59.6487C89.753 57.2169 88.469 54.55 86.754 52.1061C84.9868 49.5878 84.534 46.2118 82.5364 43.851C81.538 42.6712 80.824 41.2871 79.8502 40.092C78.9567 38.9955 78.0303 37.8438 77.1968 36.7016C76.8704 36.2543 76.3241 34.6889 75.8046 35.293C74.5129 36.7949 73.4149 38.4524 72.152 39.9774C71.06 41.2961 69.9266 42.918 69.0564 44.3997C68.316 45.6604 67.5612 46.9065 66.878 48.1997C65.8925 50.0651 64.6841 51.8507 63.6021 53.654" stroke="black" stroke-linecap="round" stroke-linejoin="round"/>
<path d="M51.5144 121.169C51.9791 118.897 52.9111 116.914 53.6928 114.764C54.3361 112.995 54.839 111.166 55.4208 109.376C56.6879 105.477 57.5445 101.442 58.7294 97.5172C59.8037 93.9585 61.0367 90.4824 62.0462 86.9035C62.4747 85.3843 62.6471 83.8433 63.1272 82.3174C63.5879 80.8528 63.9907 79.3557 64.4866 77.9032C65.1217 76.0433 65.4521 74.0661 65.928 72.1623C66.5362 69.7298 67.3053 67.3774 68.0245 64.9801C69.0091 61.6983 69.6506 58.339 70.6043 55.0543C71.6266 51.5328 72.887 48.111 73.9865 44.6126C74.4181 43.2394 74.6268 41.9176 75.215 40.567C75.4926 39.9296 75.7055 39.2326 75.8292 38.5523C75.9101 38.1072 75.8931 37.667 75.993 37.2174C76.1367 36.5705 76.427 35.1985 76.427 36.7015C76.427 38.6058 76.5511 40.5037 76.0585 42.3605C75.6035 44.0755 74.9966 45.7944 74.396 47.4626C73.6051 49.6596 72.818 51.8645 72.1521 54.1043C71.6937 55.6461 71.328 57.2202 70.8254 58.7478C70.4967 59.7468 70.0009 60.6612 69.6461 61.6469C68.6782 64.3353 67.9315 67.0748 66.7715 69.6973C65.9019 71.6634 65.0492 73.6316 64.2246 75.6183C62.4313 79.9386 60.515 84.2076 59.1798 88.7053C58.7879 90.0254 58.6605 91.3906 58.2871 92.7345C57.4096 95.8938 56.1974 99.005 55.1669 102.12C53.7736 106.331 53.3124 110.759 51.9566 114.977C51.6775 115.846 51.7549 116.888 51.4407 117.705C51.278 118.128 51.4164 118.564 51.2195 118.958" stroke="black" stroke-linecap="round" stroke-linejoin="round"/>
<path d="M77.4589 74.5865C79.8368 73.8787 82.2884 73.5005 84.7558 73.2598C86.071 73.1314 87.3554 72.7395 88.6622 72.5555C90.4172 72.3083 92.0142 72.0805 93.7889 72.0805C94.5877 72.0805 95.9036 72.0331 96.5078 72.6373C97.1432 73.2727 96.6995 74.1107 95.8854 74.2916C93.9507 74.7216 92.1441 75.5751 90.1363 75.7576C87.7637 75.9733 85.6084 75.3835 83.2899 75.0615C81.5137 74.8148 80.0648 73.9924 78.3434 73.5873C76.956 73.2609 75.4114 73.1123 73.9865 73.1123C71.2973 73.1123 68.1526 72.4518 65.5103 73.1123C64.6773 73.3206 61.8332 74.0814 61.8332 75.3235C61.8332 75.9142 64.8213 76.7814 65.3056 76.9123C66.4969 77.2343 68.0388 77.2015 69.2693 77.0843C71.2091 76.8995 73.0837 76.2213 75.0266 76.0524C76.4194 75.9313 77.7169 75.2235 79.0804 75.0287" stroke="black" stroke-linecap="round" stroke-linejoin="round"/>
<path d="M67.4348 91.5389C66.0126 91.5389 64.6569 91.9811 63.2336 91.9811C62.8298 91.9811 61.3891 91.9835 61.0961 92.3497C60.9117 92.5802 59.6602 92.9945 59.3272 93.013C58.8956 93.037 58.2522 93.1516 57.8531 93.3406C57.439 93.5368 57.024 93.4409 56.6001 93.6764C56.1852 93.9068 55.5798 93.9359 55.1259 94.0367C54.5028 94.1752 53.8852 93.2478 53.357 93.013C52.8536 92.7893 52.3884 92.5011 51.8829 92.2678C50.8348 91.7841 49.9175 91.0403 48.8609 90.5398C47.7229 90.0007 46.4794 89.7482 45.3312 89.2458C44.1468 88.7276 42.9802 88.2534 41.8998 87.5588C40.9595 86.9543 39.7986 86.7084 38.8369 86.1993C37.6893 85.5918 36.5465 84.9011 35.5201 84.1028C34.8408 83.5744 33.9074 83.7431 33.268 83.1036C33.1081 82.9438 32.4361 82.5468 32.8667 82.5468C33.3273 82.5468 33.7454 82.2519 34.1934 82.2519C34.6631 82.2519 35.0617 81.8097 35.5201 81.8097C35.9616 81.8097 36.3029 81.6623 36.6994 81.6623C38.6735 81.6623 40.5758 80.8829 42.5304 80.6386C43.8995 80.4674 45.2994 80.3736 46.6497 80.0735C47.354 79.917 48.184 80.1614 48.8609 79.8606C49.2004 79.7097 49.6757 79.5985 50.0402 79.5985" stroke="black" stroke-linecap="round" stroke-linejoin="round"/>
<path d="M86.8933 88.7381C88.9429 88.3477 91.2008 88.0257 93.0846 87.0838C94.9587 86.1468 97.4539 86.2321 99.5052 86.2321C100.453 86.2321 101.582 86.1134 102.486 85.8226C103.469 85.5067 104.518 85.4865 105.467 85.0528C106.327 84.6599 107.379 84.6698 108.276 84.3894C109.432 84.0281 110.542 83.3626 111.74 83.1446C112.985 82.9182 114.526 83.2213 115.712 82.6942C116.566 82.3146 115.622 82.3587 115.196 81.9571C114.706 81.4936 113.783 80.9826 113.165 80.7451C112.28 80.4047 111.458 79.7772 110.561 79.4511C109.511 79.0693 108.735 78.2392 107.621 77.977C106.757 77.7736 105.645 76.9291 104.992 76.3227C104.063 75.4603 102.968 74.8367 101.929 74.1443" stroke="black" stroke-linecap="round" stroke-linejoin="round"/>
<path d="M36.6257 96.6984C34.8959 96.7277 33.405 97.6658 31.7284 97.7303C30.6526 97.7716 29.5114 98.1725 28.4525 98.1725C27.6094 98.1725 26.745 98.5821 25.8974 98.6147C25.1091 98.645 24.3092 98.7621 23.5797 98.7621C23.2931 98.7621 22.4442 98.6916 22.7198 98.7703C23.2318 98.9166 23.8594 99.2789 24.3086 99.5647C24.9335 99.9624 25.6885 100.269 26.3396 100.678C27.0869 101.149 27.8302 101.638 28.5508 102.153C29.0336 102.498 29.3963 102.968 29.9185 103.258C30.8871 103.796 31.9894 104.036 32.9076 104.659C33.6722 105.177 34.4751 105.437 35.299 105.838C36.0382 106.198 36.7313 106.695 37.4774 107.017C39.0615 107.701 40.4956 108.593 42.0718 109.302C43.2725 109.842 44.6969 110.294 45.6506 111.178C46.5225 111.985 47.4439 112.761 48.4842 113.356C49.063 113.687 49.5354 114.426 50.1139 114.683C50.8869 115.026 51.8824 114.722 52.6936 114.609C53.9056 114.441 55.1549 114.388 56.379 114.388C60.6057 114.388 64.872 113.693 69.0236 112.881C73.9493 111.917 79.031 111.536 83.8795 110.178C88.7457 108.816 93.7073 107.028 98.7436 106.436C101.339 106.13 104.08 105.361 106.581 104.585C108.913 103.861 111.406 103.514 113.804 103.07C115.128 102.825 116.745 102.153 118.071 102.153C119.312 102.153 120.595 101.463 121.863 101.416C123.704 101.347 125.639 100.738 127.366 100.244C127.71 100.146 128.032 100.086 128.373 99.9496C128.656 99.8366 127.807 99.7014 127.579 99.4992C126.664 98.6858 125.231 98.3951 124.18 97.804C123.793 97.5862 123.099 97.3781 122.649 97.2962C121.908 97.1616 121.341 96.6129 120.716 96.2561C119.537 95.5821 118.587 94.4038 117.408 93.7829C116.241 93.1687 114.984 92.8564 113.943 92.0467C113.32 91.5618 112.403 91.0501 111.659 90.8019" stroke="black" stroke-linecap="round" stroke-linejoin="round"/>
<path d="M61.391 59.6979C58.3328 60.1776 55.3281 61.0246 52.2187 61.0246C50.7849 61.0246 49.2305 61.0448 47.8372 61.3931C46.8146 61.6488 45.6214 62.002 44.586 62.0565C44.1399 62.0799 43.7974 62.1063 43.3739 62.2366C42.7831 62.4184 42.9102 62.3078 43.333 62.6461C44.0318 63.2051 44.9898 63.2666 45.8799 63.5633C46.6362 63.8154 47.1772 64.5348 47.9028 64.8573C48.5489 65.1444 49.7468 65.5592 50.1877 66.1103C50.5582 66.5735 51.7197 66.9741 52.2842 67.1831C53.2774 67.551 54.1703 68.1012 55.1997 68.4689C56.1847 68.8207 57.1391 69.1663 58.1152 69.5417C58.9732 69.8717 59.7159 70.5154 60.5065 70.9339C61.0916 71.2437 61.6717 71.6269 62.3492 71.7775C63.417 72.0148 64.9147 71.2062 65.928 70.8684C66.992 70.5138 68.45 70.0167 69.5724 70.0167C70.728 70.0167 71.9222 69.8464 73.0284 69.5008C74.2159 69.1297 75.5944 68.9608 76.7219 68.5098C77.9642 68.0129 79.4762 68.1617 80.7757 67.8792C81.394 67.7448 82.1328 67.6581 82.7658 67.6581C83.3626 67.6581 83.97 67.3839 84.5675 67.3633C85.2519 67.3397 85.9243 67.2159 86.5985 67.2159C87.163 67.2159 87.6711 66.9211 88.2282 66.9211C90.0858 66.9211 91.9197 66.0781 93.7889 66.0366C95.0315 66.009 96.1512 65.6465 97.2941 65.4387C98.2255 65.2694 99.0215 64.7099 100.013 64.7099C100.675 64.7099 101.449 64.415 102.077 64.415C102.867 64.415 103.598 63.8254 104.362 63.8254C104.581 63.8254 105.25 63.6226 104.951 63.4569C104.648 63.2882 104.39 63.0287 104.141 62.7935C103.612 62.2946 102.804 62.0508 102.15 61.6879C101.311 61.2214 100.574 60.77 99.6526 60.4349C98.5331 60.0278 97.6268 59.211 96.5079 58.7806C95.6451 58.4488 94.8587 57.6685 93.9036 57.4949C92.8241 57.2986 91.5226 56.325 90.726 55.5703C90.1643 55.0381 89.1809 54.0962 88.3674 54.0962" stroke="black" stroke-linecap="round" stroke-linejoin="round"/>
<path d="M72.1521 40.3868C71.4759 40.4029 70.0528 40.4066 69.4249 40.7553C68.8901 41.0525 67.7007 40.8291 67.1073 40.8291C65.9187 40.8291 64.8235 40.9219 63.6677 41.1321C62.7999 41.2898 61.9382 41.6799 61.0634 41.7135C59.4084 41.7772 57.7305 42.5065 56.0841 42.598C55.9591 42.6049 55.3384 42.598 55.4945 42.598C55.7693 42.598 56.0458 42.7775 56.3052 42.8928C56.8928 43.154 57.5214 43.3738 58.0005 43.7773C58.491 44.1903 59.2378 44.3519 59.835 44.5226C60.3677 44.6748 60.9486 45.0712 61.5384 45.104C62.0112 45.1303 63.1576 45.3397 63.5284 45.6281C64.0161 46.0075 64.7403 46.6555 65.3711 46.7255C66.0903 46.8055 66.9081 47.4096 67.5168 47.7574C68.1135 48.0984 68.7394 48.2856 69.3185 48.6419C69.9173 49.0104 70.9374 48.9005 71.4232 49.3053C71.6296 49.4773 72.5556 49.0841 72.8891 49.0841C73.4543 49.0841 74.0027 49.1297 74.5434 48.9695C75.2297 48.7661 76.3658 48.7893 77.0822 48.7893C77.704 48.7893 78.1962 48.5272 78.7856 48.4945C79.4453 48.4578 80.0824 48.1997 80.7757 48.1997C81.5321 48.1997 82.1716 47.7574 82.9459 47.7574C84.6013 47.7574 86.4049 47.1286 87.9579 46.6109C89.2902 46.1668 90.7994 45.8493 92.2001 45.6937C92.3541 45.6765 92.7102 45.5474 92.6424 45.5135C92.246 45.3153 92.0266 45.01 91.6842 44.7437C91.2607 44.4143 90.7029 44.201 90.3165 43.892C89.408 43.1651 88.2551 42.6784 87.3355 41.8609C85.2834 40.0369 82.0464 40.4046 80.1123 38.4705" stroke="black" stroke-linecap="round" stroke-linejoin="round"/>
<path d="M27.9284 91.9811C28.1324 91.0519 28.6346 90.5743 29.2551 89.9174C29.4521 89.7088 29.6362 89.2846 29.8448 89.1803" stroke="black" stroke-linecap="round" stroke-linejoin="round"/>
<path d="M38.8369 73.8495C38.8646 72.6858 39.3784 71.5631 40.0162 70.6064" stroke="black" stroke-linecap="round" stroke-linejoin="round"/>
<path d="M21 100.384C21.3413 99.4357 21.899 99.0109 22.5724 98.2954C22.7137 98.1453 22.8289 98.2 22.9164 98.0251" stroke="black" stroke-linecap="round" stroke-linejoin="round"/>
<path d="M31.9085 83.7261C32.2599 82.8205 33.0638 80.835 34.1197 80.483" stroke="black" stroke-linecap="round" stroke-linejoin="round"/>
<path d="M41.7852 64.415C42.3594 63.3107 43.165 62.3452 43.8489 61.3193" stroke="black" stroke-linecap="round" stroke-linejoin="round"/>
<path d="M47.9764 54.8332C48.003 53.7428 48.5818 52.759 49.4506 52.1798" stroke="black" stroke-linecap="round" stroke-linejoin="round"/>
<path d="M54.61 43.0403C55.1103 41.8451 55.9355 40.9368 56.6656 39.8873C56.8669 39.5978 57.1095 39.0634 57.4108 38.9127" stroke="black" stroke-linecap="round" stroke-linejoin="round"/>
<path d="M91.1682 41.7136C91.74 42.5799 92.8517 43.9599 92.9372 45.0713C92.9843 45.6839 93.6743 46.2098 93.6743 46.8731" stroke="black" stroke-linecap="round" stroke-linejoin="round"/>
<path d="M97.0647 51.7375C97.2182 52.5731 97.6159 53.1251 97.9492 53.875C98.061 54.1265 98.244 54.2623 98.244 54.5384" stroke="black" stroke-linecap="round" stroke-linejoin="round"/>
<path d="M103.109 60.8772C103.65 62.1304 104.57 63.2081 105.205 64.4151C105.329 64.6509 105.557 65.1969 105.762 65.2996" stroke="black" stroke-linecap="round" stroke-linejoin="round"/>
<path d="M109.153 71.196C109.399 72.3476 109.982 73.2921 110.627 74.2589C110.813 74.5382 111.069 74.8366 111.069 75.1762" stroke="black" stroke-linecap="round" stroke-linejoin="round"/>
<path d="M114.165 80.3356C114.57 81.7185 115.177 82.8655 115.86 84.0946C116.173 84.6586 117.064 85.0541 117.26 85.6424" stroke="black" stroke-linecap="round" stroke-linejoin="round"/>
<path d="M121.093 91.6863C121.385 92.5174 121.691 93.3351 122.354 93.9466C122.55 94.1272 122.715 94.2663 122.862 94.4871" stroke="black" stroke-linecap="round" stroke-linejoin="round"/>
<path d="M125.515 98.1726C125.764 99.8384 126.719 101.022 127.432 102.448" stroke="black" stroke-linecap="round" stroke-linejoin="round"/>
<path d="M49.4506 119.252C49.4506 118.267 49.4506 117.281 49.4506 116.296C49.4506 116.028 49.3085 115.229 49.4833 115.01C50.1499 114.177 50.5904 112.993 51.0721 112.029" stroke="black" stroke-linecap="round" stroke-linejoin="round"/>
<path d="M52.2514 105.838C52.2514 104.357 52.6485 103.127 53.2833 101.858" stroke="black" stroke-linecap="round" stroke-linejoin="round"/>
<path d="M54.7574 96.6983C54.7574 94.9774 54.8036 93.1649 55.7893 91.6863" stroke="black" stroke-linecap="round" stroke-linejoin="round"/>
<path d="M58.0005 84.021C58.0005 82.3313 58.2391 80.8622 59.1798 79.4512" stroke="black" stroke-linecap="round" stroke-linejoin="round"/>
<path d="M61.9806 73.9969C61.9806 72.4647 62.1526 70.8766 63.3073 69.7219" stroke="black" stroke-linecap="round" stroke-linejoin="round"/>
<path d="M66.6978 61.3194C66.7257 59.6744 67.3913 57.6995 68.3193 56.3074" stroke="black" stroke-linecap="round" stroke-linejoin="round"/>
<path d="M70.9728 50.2635C71.1838 48.6387 71.825 46.9213 72.7417 45.5463" stroke="black" stroke-linecap="round" stroke-linejoin="round"/>
<path d="M62.7177 29.7731C63.5477 28.3786 65.1144 27.3384 65.8133 25.9404" stroke="black" stroke-linecap="round" stroke-linejoin="round"/>
<path d="M87.9252 32.4266C87.5205 31.4877 86.7933 30.6488 86.4511 29.7076C86.1787 28.9587 86.0074 28.1482 85.714 27.4146" stroke="black" stroke-linecap="round" stroke-linejoin="round"/>
<path d="M75.8374 32.7215C75.8374 31.5048 75.875 30.6993 76.427 29.6258C76.6288 29.2334 76.8286 28.8226 77.0167 28.4465" stroke="black" stroke-linecap="round" stroke-linejoin="round"/>
<path d="M73.3314 18.8646C73.8459 17.6639 74.775 16.9293 75.477 15.9082C75.8154 15.416 76.0472 14.2636 76.5744 14" stroke="black" stroke-linecap="round" stroke-linejoin="round"/>
<path d="M76.5744 14C77.377 15.1113 78.0801 16.3292 78.7856 17.5051C79.0433 17.9346 79.4552 18.2874 79.6701 18.7172" stroke="black" stroke-linecap="round" stroke-linejoin="round"/>
<path d="M76.7219 15.6216C76.7219 16.8009 76.7219 17.9802 76.7219 19.1595" stroke="black" stroke-linecap="round" stroke-linejoin="round"/>
<path d="M76.4806 96.1277C77.412 96.1277 78.4244 96.2167 79.3044 95.8396C79.9534 95.5615 80.5285 94.9324 81.0189 94.4421C82.7158 92.7451 83.9679 91.2148 84.7504 88.8952C85.2812 87.3218 85.8166 85.772 85.8166 84.0976C85.8166 83.4858 85.9462 82.8947 85.9462 82.2822C85.9462 82.1189 85.8394 81.4485 85.8166 81.9508C85.7315 83.8218 85.2353 85.9764 84.1597 87.5409C83.6386 88.299 82.9812 88.9579 82.3444 89.6156C81.6321 90.3512 81.0613 91.2418 80.3706 92.0072C78.5445 94.0307 76.4699 95.6091 73.6855 95.6091C72.8001 95.6091 71.6388 94.8022 71.1066 94.1179C70.9528 93.9202 72.4196 94.8311 72.6554 94.8311C73.1475 94.8311 73.5896 94.9607 74.0817 94.9607C75.0487 94.9607 75.6483 94.8579 76.5454 94.5069C78.3268 93.8098 80.115 93.1851 81.5376 91.8415C83.6487 89.8477 84.8347 87.2899 85.161 84.4073C85.2702 83.4434 85.4392 82.4182 85.0962 81.4826C84.8141 80.7131 84.2102 80.176 83.7491 79.5304C83.5691 79.2785 83.0692 78.588 82.7622 78.5003C82.6549 78.4696 82.1809 78.3634 82.3156 78.3634" stroke="black" stroke-linecap="round" stroke-linejoin="round"/>
<path d="M77.9069 96.5167C78.5237 96.5167 79.2858 96.6366 79.8447 96.3222C80.2461 96.0965 80.4476 95.6706 80.7596 95.3497C81.6992 94.3833 82.7306 93.697 83.497 92.5475C84.2725 91.3842 85.1243 90.2509 85.7518 88.9961C86.263 87.9735 85.9855 86.8549 86.2056 85.7544" stroke="black" stroke-linecap="round" stroke-linejoin="round"/>
<path d="M78.2959 73.9548C78.2959 75.7711 78.2187 77.6188 78.1662 79.4008C78.155 79.7829 78.063 80.0491 78.4976 80.0491C78.693 80.0491 79.3235 80.1646 79.3332 79.8906C79.39 78.3024 79.2782 76.5916 79.5638 75.0209C79.6591 74.4967 79.4583 73.6954 78.8146 73.6954" stroke="black" stroke-linecap="round" stroke-linejoin="round"/>
<path d="M62.3491 75.2406C64.4736 75.2406 66.5151 75.7657 68.6423 75.7657C69.3052 75.7657 70.0691 75.8698 70.7206 75.7365C71.3289 75.6121 71.897 75.171 72.5218 75.1167C74.432 74.9505 76.5005 74.7156 78.3629 74.7156" stroke="black" stroke-linecap="round" stroke-linejoin="round"/>
<path d="M81.907 74.3218C84.0947 74.3218 86.2823 74.3218 88.47 74.3218C91.2469 74.3218 93.9628 73.1405 96.7394 73.1405" stroke="black" stroke-linecap="round" stroke-linejoin="round"/>
<path d="M61.5101 74.6201C62.2555 73.357 63.0827 72.461 64.2573 71.6084C65.4653 70.7316 66.4437 69.5767 67.7096 68.7657C69.2977 67.7484 71.3166 67.4086 73.1159 66.9588C74.8782 66.5182 76.7416 66.0259 78.5662 66.0259" stroke="black" stroke-linecap="round" stroke-linejoin="round"/>
<path d="M96.1512 73.8268C96.1512 74.6086 96.1867 74.9276 95.7839 75.575C95.1397 76.6103 94.6088 77.6442 93.6684 78.4544C92.0676 79.8336 90.255 80.4367 88.3503 81.2604C85.6541 82.4263 83.046 83.4289 80.1528 84.0076" stroke="black" stroke-linecap="round" stroke-linejoin="round"/>
<path d="M84.8416 91.9503C86.2853 91.9503 87.9521 91.6222 89.0436 92.7573C89.8243 93.5692 90.5536 94.6993 90.908 95.7627C91.4288 97.3249 91.6037 99.1141 91.6037 100.716" stroke="black" stroke-linecap="round" stroke-linejoin="round"/>
<path d="M91.6037 100.716C90.4238 100.486 89.3496 100.494 89.3496 101.968C89.3496 103.041 90.0539 102.97 90.9637 102.97C91.6138 102.97 92.2068 102.197 92.3411 101.593C92.5695 100.565 91.8947 100.716 91.1028 100.716" stroke="black" stroke-linecap="round" stroke-linejoin="round"/>
<path d="M70.8163 93.2024C69.2958 93.2024 65.8125 93.1955 65.3064 95.2199C64.9319 96.7178 64.0541 97.6116 64.0541 99.2132" stroke="black" stroke-linecap="round" stroke-linejoin="round"/>
<path d="M63.8037 100.465C62.6835 100.465 62.1249 100.313 61.7444 101.412C61.6571 101.664 61.2782 102.438 61.8001 102.469C62.6524 102.519 63.2008 101.671 63.5533 100.966" stroke="black" stroke-linecap="round" stroke-linejoin="round"/>
<path d="M74.8235 94.9558C72.8405 97.9302 69.564 101.189 69.564 104.974" stroke="black" stroke-linecap="round" stroke-linejoin="round"/>
<path d="M68.8127 105.725C68.8127 106.821 68.6782 107.478 69.9397 107.478C70.7941 107.478 71.0281 107.528 71.4285 106.727C71.6642 106.255 72.069 105.61 71.512 105.224C70.8997 104.8 69.8145 104.188 69.8145 105.224" stroke="black" stroke-linecap="round" stroke-linejoin="round"/>
<path d="M79.213 98.4816C79.9102 99.374 80.8781 99.7825 81.5571 98.6507C81.8901 98.0958 79.7404 97.6116 79.4305 97.6116" stroke="black" stroke-linecap="round" stroke-linejoin="round"/>
</svg>
