<svg width="456" height="100" viewBox="0 0 456 100" fill="none" xmlns="http://www.w3.org/2000/svg">
<path fill-rule="evenodd" clip-rule="evenodd" d="M17.6984 91H82.3016C90.0825 91 94.8824 82.5048 90.8674 75.8399L58.5658 22.2192C54.6784 15.7661 45.3217 15.7661 41.4342 22.2192L9.13261 75.8399C5.11759 82.5048 9.91758 91 17.6984 91ZM50 71C55.5229 71 60 66.5228 60 61C60 55.4772 55.5229 51 50 51C44.4772 51 40 55.4772 40 61C40 66.5228 44.4772 71 50 71Z" fill="black"/>
<path d="M124.928 73H134.336V58.856H139.52C148.352 58.856 155.84 54.504 155.84 44.712C155.84 34.6 148.416 31.272 139.264 31.272H124.928V73ZM134.336 51.368V38.76H138.688C143.808 38.76 146.624 40.36 146.624 44.712C146.624 49.064 144.128 51.368 138.944 51.368H134.336ZM175.118 73.768C178.894 73.768 183.118 72.424 186.382 70.184L183.246 64.488C180.942 65.896 178.766 66.6 176.398 66.6C172.174 66.6 168.974 64.488 168.142 59.88H187.15C187.342 59.112 187.534 57.384 187.534 55.72C187.534 47.08 183.054 40.488 174.03 40.488C166.414 40.488 159.054 46.824 159.054 57.128C159.054 67.624 166.03 73.768 175.118 73.768ZM168.078 53.672C168.718 49.64 171.278 47.656 174.222 47.656C177.998 47.656 179.534 50.152 179.534 53.672H168.078ZM194.035 73H203.443V54.568C205.107 50.28 208.051 48.744 210.419 48.744C211.763 48.744 212.723 48.936 213.875 49.256L215.411 41.128C214.515 40.744 213.427 40.488 211.635 40.488C208.371 40.488 204.915 42.536 202.611 46.824H202.355L201.715 41.256H194.035V73ZM232.734 73.768C236.19 73.768 240.094 72.744 243.23 69.992L239.518 63.848C237.854 65.128 235.87 66.152 233.822 66.152C229.726 66.152 226.718 62.632 226.718 57.128C226.718 51.624 229.598 48.104 234.142 48.104C235.614 48.104 236.894 48.68 238.43 49.96L242.846 43.88C240.478 41.896 237.47 40.488 233.566 40.488C224.798 40.488 217.054 46.568 217.054 57.128C217.054 67.688 223.902 73.768 232.734 73.768ZM261.181 73.768C264.957 73.768 269.181 72.424 272.445 70.184L269.309 64.488C267.005 65.896 264.829 66.6 262.461 66.6C258.237 66.6 255.037 64.488 254.205 59.88H273.213C273.405 59.112 273.597 57.384 273.597 55.72C273.597 47.08 269.117 40.488 260.093 40.488C252.477 40.488 245.117 46.824 245.117 57.128C245.117 67.624 252.093 73.768 261.181 73.768ZM254.141 53.672C254.781 49.64 257.341 47.656 260.285 47.656C264.061 47.656 265.597 50.152 265.597 53.672H254.141ZM280.098 84.776H289.506V75.496L289.186 70.44C291.426 72.552 293.986 73.768 296.738 73.768C303.586 73.768 310.114 67.496 310.114 56.616C310.114 46.824 305.378 40.488 297.698 40.488C294.37 40.488 291.17 42.152 288.674 44.392H288.418L287.778 41.256H280.098V84.776ZM294.562 66.088C292.962 66.088 291.17 65.576 289.506 64.04V51.048C291.362 49.064 293.026 48.168 294.946 48.168C298.722 48.168 300.45 51.048 300.45 56.744C300.45 63.272 297.826 66.088 294.562 66.088ZM327.322 73.768C330.394 73.768 332.698 73.128 334.362 72.616L332.89 65.768C332.058 66.088 330.906 66.408 329.882 66.408C327.385 66.408 325.786 64.936 325.786 61.352V48.616H333.402V41.256H325.786V32.808H317.978L316.89 41.256L312.026 41.64V48.616H316.378V61.48C316.378 68.84 319.45 73.768 327.322 73.768ZM339.598 73H349.006V41.256H339.598V73ZM344.27 36.584C347.47 36.584 349.71 34.536 349.71 31.656C349.71 28.776 347.47 26.792 344.27 26.792C341.134 26.792 338.83 28.776 338.83 31.656C338.83 34.536 341.134 36.584 344.27 36.584ZM370.917 73.768C378.917 73.768 386.341 67.688 386.341 57.128C386.341 46.568 378.917 40.488 370.917 40.488C362.853 40.488 355.429 46.568 355.429 57.128C355.429 67.688 362.853 73.768 370.917 73.768ZM370.917 66.152C367.013 66.152 365.093 62.632 365.093 57.128C365.093 51.624 367.013 48.104 370.917 48.104C374.757 48.104 376.741 51.624 376.741 57.128C376.741 62.632 374.757 66.152 370.917 66.152ZM392.785 73H402.193V51.56C404.241 49.576 405.713 48.488 408.081 48.488C410.769 48.488 411.985 49.896 411.985 54.504V73H421.393V53.288C421.393 45.352 418.449 40.488 411.537 40.488C407.249 40.488 404.049 42.728 401.361 45.288H401.105L400.465 41.256H392.785V73Z" fill="black"/>
</svg>
