<svg width="320" height="160" viewBox="0 0 320 160" fill="none" xmlns="http://www.w3.org/2000/svg">
<rect width="320" height="160" fill="#C7BF00"/>
<path d="M42.604 85.824C42.856 84.996 43.084 84.108 43.3 83.232H43.348C43.576 84.096 43.804 84.996 44.056 85.824L44.332 86.784H42.328L42.604 85.824ZM39.976 90H41.392L42.004 87.876H44.644L45.256 90H46.72L44.164 82.152H42.532L39.976 90ZM52.5575 90.144C54.3215 90.144 55.3775 89.088 55.3775 87.816C55.3775 86.676 54.7175 86.088 53.7935 85.692L52.7255 85.248C52.0775 84.984 51.4775 84.756 51.4775 84.144C51.4775 83.568 51.9695 83.22 52.7135 83.22C53.3855 83.22 53.9135 83.472 54.4175 83.892L55.1255 83.004C54.5135 82.392 53.6255 82.008 52.7135 82.008C51.1775 82.008 50.0735 82.968 50.0735 84.216C50.0735 85.368 50.8895 85.98 51.6575 86.304L52.7375 86.772C53.4455 87.072 53.9495 87.276 53.9495 87.924C53.9495 88.536 53.4695 88.932 52.5815 88.932C51.8615 88.932 51.1055 88.572 50.5415 88.044L49.7255 88.992C50.4695 89.724 51.5015 90.144 52.5575 90.144ZM56.6846 92.328H58.0646V90.48L58.0286 89.496C58.5086 89.904 59.0246 90.144 59.5406 90.144C60.8486 90.144 62.0606 88.98 62.0606 86.964C62.0606 85.14 61.2086 83.964 59.7446 83.964C59.0966 83.964 58.4606 84.312 57.9686 84.732H57.9206L57.8246 84.108H56.6846V92.328ZM59.2526 89.004C58.9046 89.004 58.4966 88.872 58.0646 88.512V85.764C58.5206 85.32 58.9286 85.104 59.3606 85.104C60.2486 85.104 60.6326 85.8 60.6326 86.976C60.6326 88.308 60.0326 89.004 59.2526 89.004ZM64.7454 90.144C65.4414 90.144 66.0414 89.796 66.5694 89.352H66.6174L66.7134 90H67.8534V86.508C67.8534 84.864 67.1214 83.964 65.6574 83.964C64.7214 83.964 63.8814 84.324 63.2334 84.732L63.7374 85.656C64.2654 85.344 64.8174 85.08 65.3934 85.08C66.1974 85.08 66.4494 85.608 66.4734 86.232C64.0494 86.496 63.0054 87.156 63.0054 88.416C63.0054 89.448 63.7134 90.144 64.7454 90.144ZM65.1894 89.064C64.6974 89.064 64.3374 88.836 64.3374 88.308C64.3374 87.72 64.8654 87.3 66.4734 87.096V88.416C66.0294 88.824 65.6694 89.064 65.1894 89.064ZM71.3934 90.144C71.8614 90.144 72.2694 90.036 72.5934 89.928L72.3534 88.908C72.1854 88.98 71.9454 89.04 71.7414 89.04C71.1774 89.04 70.9134 88.704 70.9134 88.008V85.2H72.4134V84.108H70.9134V82.5H69.7614L69.5934 84.108L68.6814 84.168V85.2H69.5214V88.008C69.5214 89.28 70.0254 90.144 71.3934 90.144ZM73.6533 90H75.0333V84.108H73.6533V90ZM74.3493 83.076C74.8413 83.076 75.2013 82.752 75.2013 82.296C75.2013 81.828 74.8413 81.504 74.3493 81.504C73.8573 81.504 73.4973 81.828 73.4973 82.296C73.4973 82.752 73.8573 83.076 74.3493 83.076ZM78.222 90.144C78.918 90.144 79.518 89.796 80.046 89.352H80.094L80.19 90H81.33V86.508C81.33 84.864 80.598 83.964 79.134 83.964C78.198 83.964 77.358 84.324 76.71 84.732L77.214 85.656C77.742 85.344 78.294 85.08 78.87 85.08C79.674 85.08 79.926 85.608 79.95 86.232C77.526 86.496 76.482 87.156 76.482 88.416C76.482 89.448 77.19 90.144 78.222 90.144ZM78.666 89.064C78.174 89.064 77.814 88.836 77.814 88.308C77.814 87.72 78.342 87.3 79.95 87.096V88.416C79.506 88.824 79.146 89.064 78.666 89.064ZM84.3255 90.144C84.6495 90.144 84.8895 90.096 85.0575 90.024L84.8775 88.992C84.7695 89.016 84.7215 89.016 84.6615 89.016C84.5175 89.016 84.3615 88.896 84.3615 88.56V81.528H82.9815V88.488C82.9815 89.508 83.3415 90.144 84.3255 90.144ZM90.8214 90.144C92.2854 90.144 93.4974 89.328 93.4974 87.936C93.4974 86.928 92.8134 86.28 91.9134 86.04V85.992C92.7414 85.668 93.2454 85.092 93.2454 84.24C93.2454 82.944 92.2374 82.224 90.7734 82.224C89.8614 82.224 89.1294 82.608 88.4814 83.184L89.1894 84.036C89.6574 83.604 90.1254 83.316 90.7254 83.316C91.4214 83.316 91.8534 83.7 91.8534 84.336C91.8534 85.044 91.3614 85.56 89.8614 85.56V86.568C91.6014 86.568 92.1054 87.072 92.1054 87.864C92.1054 88.584 91.5294 89.016 90.7014 89.016C89.9334 89.016 89.3454 88.644 88.8894 88.176L88.2294 89.064C88.7694 89.664 89.5854 90.144 90.8214 90.144ZM95.0898 90H97.2617C99.5898 90 101.006 88.644 101.006 86.04C101.006 83.448 99.5898 82.152 97.1898 82.152H95.0898V90ZM96.4818 88.872V83.28H97.0938C98.6778 83.28 99.5778 84.12 99.5778 86.04C99.5778 87.972 98.6778 88.872 97.0938 88.872H96.4818ZM107.46 90.144C109.224 90.144 110.28 89.088 110.28 87.816C110.28 86.676 109.62 86.088 108.696 85.692L107.628 85.248C106.98 84.984 106.38 84.756 106.38 84.144C106.38 83.568 106.872 83.22 107.616 83.22C108.288 83.22 108.816 83.472 109.32 83.892L110.028 83.004C109.416 82.392 108.528 82.008 107.616 82.008C106.08 82.008 104.976 82.968 104.976 84.216C104.976 85.368 105.792 85.98 106.56 86.304L107.64 86.772C108.348 87.072 108.852 87.276 108.852 87.924C108.852 88.536 108.372 88.932 107.484 88.932C106.764 88.932 106.008 88.572 105.444 88.044L104.628 88.992C105.372 89.724 106.404 90.144 107.46 90.144ZM114.047 90.144C114.719 90.144 115.415 89.904 115.967 89.424L115.403 88.512C115.067 88.788 114.647 89.016 114.191 89.016C113.267 89.016 112.619 88.236 112.619 87.06C112.619 85.872 113.279 85.092 114.227 85.092C114.599 85.092 114.899 85.248 115.211 85.524L115.883 84.624C115.451 84.252 114.911 83.964 114.155 83.964C112.583 83.964 111.203 85.092 111.203 87.06C111.203 89.016 112.439 90.144 114.047 90.144ZM119.357 90.144C120.101 90.144 120.809 89.88 121.373 89.508L120.905 88.644C120.473 88.92 120.041 89.076 119.537 89.076C118.589 89.076 117.917 88.476 117.797 87.432H121.541C121.577 87.288 121.601 87.024 121.601 86.76C121.601 85.116 120.761 83.964 119.165 83.964C117.785 83.964 116.453 85.14 116.453 87.06C116.453 89.004 117.725 90.144 119.357 90.144ZM117.785 86.496C117.905 85.548 118.505 85.032 119.201 85.032C120.005 85.032 120.401 85.584 120.401 86.496H117.785ZM122.919 90H124.299V85.884C124.791 85.404 125.127 85.152 125.643 85.152C126.291 85.152 126.567 85.512 126.567 86.484V90H127.947V86.304C127.947 84.816 127.395 83.964 126.135 83.964C125.331 83.964 124.731 84.384 124.203 84.9H124.155L124.059 84.108H122.919V90ZM132.154 90.144C132.898 90.144 133.606 89.88 134.17 89.508L133.702 88.644C133.27 88.92 132.838 89.076 132.334 89.076C131.386 89.076 130.714 88.476 130.594 87.432H134.338C134.374 87.288 134.398 87.024 134.398 86.76C134.398 85.116 133.558 83.964 131.962 83.964C130.582 83.964 129.25 85.14 129.25 87.06C129.25 89.004 130.522 90.144 132.154 90.144ZM130.582 86.496C130.702 85.548 131.302 85.032 131.998 85.032C132.802 85.032 133.198 85.584 133.198 86.496H130.582ZM138.414 90H139.806V86.928H141.006L142.698 90H144.258L142.386 86.724C143.322 86.4 143.946 85.68 143.946 84.48C143.946 82.728 142.698 82.152 141.066 82.152H138.414V90ZM139.806 85.824V83.268H140.922C141.99 83.268 142.578 83.58 142.578 84.48C142.578 85.368 141.99 85.824 140.922 85.824H139.806ZM147.798 90.144C148.542 90.144 149.25 89.88 149.814 89.508L149.346 88.644C148.914 88.92 148.482 89.076 147.978 89.076C147.03 89.076 146.358 88.476 146.238 87.432H149.982C150.018 87.288 150.042 87.024 150.042 86.76C150.042 85.116 149.202 83.964 147.606 83.964C146.226 83.964 144.894 85.14 144.894 87.06C144.894 89.004 146.166 90.144 147.798 90.144ZM146.226 86.496C146.346 85.548 146.946 85.032 147.642 85.032C148.446 85.032 148.842 85.584 148.842 86.496H146.226ZM151.36 92.328H152.74V90.48L152.704 89.496C153.184 89.904 153.7 90.144 154.216 90.144C155.524 90.144 156.736 88.98 156.736 86.964C156.736 85.14 155.884 83.964 154.42 83.964C153.772 83.964 153.136 84.312 152.644 84.732H152.596L152.5 84.108H151.36V92.328ZM153.928 89.004C153.58 89.004 153.172 88.872 152.74 88.512V85.764C153.196 85.32 153.604 85.104 154.036 85.104C154.924 85.104 155.308 85.8 155.308 86.976C155.308 88.308 154.708 89.004 153.928 89.004ZM158.134 90H159.514V86.4C159.874 85.512 160.438 85.188 160.906 85.188C161.158 85.188 161.314 85.224 161.518 85.284L161.758 84.084C161.578 84 161.386 83.964 161.086 83.964C160.462 83.964 159.838 84.384 159.418 85.152H159.37L159.274 84.108H158.134V90ZM165.013 90.144C165.757 90.144 166.465 89.88 167.029 89.508L166.561 88.644C166.129 88.92 165.697 89.076 165.193 89.076C164.245 89.076 163.573 88.476 163.453 87.432H167.197C167.233 87.288 167.257 87.024 167.257 86.76C167.257 85.116 166.417 83.964 164.821 83.964C163.441 83.964 162.109 85.14 162.109 87.06C162.109 89.004 163.381 90.144 165.013 90.144ZM163.441 86.496C163.561 85.548 164.161 85.032 164.857 85.032C165.661 85.032 166.057 85.584 166.057 86.496H163.441ZM170.219 90.144C171.707 90.144 172.511 89.328 172.511 88.32C172.511 87.216 171.623 86.832 170.819 86.532C170.183 86.304 169.595 86.124 169.595 85.656C169.595 85.284 169.871 85.008 170.459 85.008C170.927 85.008 171.347 85.212 171.755 85.512L172.391 84.672C171.911 84.3 171.251 83.964 170.435 83.964C169.115 83.964 168.287 84.696 168.287 85.728C168.287 86.712 169.163 87.156 169.943 87.444C170.567 87.684 171.203 87.9 171.203 88.392C171.203 88.8 170.903 89.1 170.267 89.1C169.667 89.1 169.163 88.848 168.635 88.44L167.987 89.328C168.563 89.796 169.415 90.144 170.219 90.144ZM176.263 90.144C177.007 90.144 177.715 89.88 178.279 89.508L177.811 88.644C177.379 88.92 176.947 89.076 176.443 89.076C175.495 89.076 174.823 88.476 174.703 87.432H178.447C178.483 87.288 178.507 87.024 178.507 86.76C178.507 85.116 177.667 83.964 176.071 83.964C174.691 83.964 173.359 85.14 173.359 87.06C173.359 89.004 174.631 90.144 176.263 90.144ZM174.691 86.496C174.811 85.548 175.411 85.032 176.107 85.032C176.911 85.032 177.307 85.584 177.307 86.496H174.691ZM179.825 90H181.205V85.884C181.697 85.404 182.033 85.152 182.549 85.152C183.197 85.152 183.473 85.512 183.473 86.484V90H184.853V86.304C184.853 84.816 184.301 83.964 183.041 83.964C182.237 83.964 181.637 84.384 181.109 84.9H181.061L180.965 84.108H179.825V90ZM188.616 90.144C189.084 90.144 189.492 90.036 189.816 89.928L189.576 88.908C189.408 88.98 189.168 89.04 188.964 89.04C188.4 89.04 188.136 88.704 188.136 88.008V85.2H189.636V84.108H188.136V82.5H186.984L186.816 84.108L185.904 84.168V85.2H186.744V88.008C186.744 89.28 187.248 90.144 188.616 90.144ZM192.046 90.144C192.742 90.144 193.342 89.796 193.87 89.352H193.918L194.014 90H195.154V86.508C195.154 84.864 194.422 83.964 192.958 83.964C192.022 83.964 191.182 84.324 190.534 84.732L191.038 85.656C191.566 85.344 192.118 85.08 192.694 85.08C193.498 85.08 193.75 85.608 193.774 86.232C191.35 86.496 190.306 87.156 190.306 88.416C190.306 89.448 191.014 90.144 192.046 90.144ZM192.49 89.064C191.998 89.064 191.638 88.836 191.638 88.308C191.638 87.72 192.166 87.3 193.774 87.096V88.416C193.33 88.824 192.97 89.064 192.49 89.064ZM198.694 90.144C199.162 90.144 199.57 90.036 199.894 89.928L199.654 88.908C199.486 88.98 199.246 89.04 199.042 89.04C198.478 89.04 198.214 88.704 198.214 88.008V85.2H199.714V84.108H198.214V82.5H197.062L196.894 84.108L195.982 84.168V85.2H196.822V88.008C196.822 89.28 197.326 90.144 198.694 90.144ZM200.954 90H202.334V84.108H200.954V90ZM201.65 83.076C202.142 83.076 202.502 82.752 202.502 82.296C202.502 81.828 202.142 81.504 201.65 81.504C201.158 81.504 200.798 81.828 200.798 82.296C200.798 82.752 201.158 83.076 201.65 83.076ZM206.507 90.144C207.983 90.144 209.315 89.016 209.315 87.06C209.315 85.092 207.983 83.964 206.507 83.964C205.043 83.964 203.711 85.092 203.711 87.06C203.711 89.016 205.043 90.144 206.507 90.144ZM206.507 89.016C205.643 89.016 205.127 88.236 205.127 87.06C205.127 85.872 205.643 85.092 206.507 85.092C207.371 85.092 207.899 85.872 207.899 87.06C207.899 88.236 207.371 89.016 206.507 89.016ZM210.681 90H212.061V85.884C212.553 85.404 212.889 85.152 213.405 85.152C214.053 85.152 214.329 85.512 214.329 86.484V90H215.709V86.304C215.709 84.816 215.157 83.964 213.897 83.964C213.093 83.964 212.493 84.384 211.965 84.9H211.917L211.821 84.108H210.681V90ZM220.094 90H224.942V88.824H221.486V86.508H224.306V85.332H221.486V83.328H224.822V82.152H220.094V90ZM226.431 90H227.811V85.884C228.303 85.404 228.639 85.152 229.155 85.152C229.803 85.152 230.079 85.512 230.079 86.484V90H231.459V86.304C231.459 84.816 230.907 83.964 229.647 83.964C228.843 83.964 228.243 84.384 227.715 84.9H227.667L227.571 84.108H226.431V90ZM235.198 92.604C237.118 92.604 238.342 91.692 238.342 90.528C238.342 89.508 237.598 89.076 236.182 89.076H235.138C234.418 89.076 234.178 88.872 234.178 88.536C234.178 88.272 234.286 88.128 234.466 87.972C234.73 88.08 235.018 88.128 235.27 88.128C236.518 88.128 237.502 87.432 237.502 86.124C237.502 85.716 237.358 85.356 237.166 85.128H238.246V84.108H236.134C235.894 84.024 235.594 83.964 235.27 83.964C234.034 83.964 232.942 84.72 232.942 86.076C232.942 86.772 233.314 87.336 233.71 87.636V87.684C233.374 87.924 233.062 88.32 233.062 88.776C233.062 89.256 233.29 89.568 233.59 89.76V89.808C233.05 90.144 232.75 90.576 232.75 91.068C232.75 92.1 233.794 92.604 235.198 92.604ZM235.27 87.264C234.694 87.264 234.238 86.832 234.238 86.076C234.238 85.332 234.694 84.912 235.27 84.912C235.846 84.912 236.29 85.344 236.29 86.076C236.29 86.832 235.834 87.264 235.27 87.264ZM235.414 91.704C234.478 91.704 233.902 91.392 233.902 90.864C233.902 90.588 234.046 90.324 234.358 90.084C234.586 90.144 234.838 90.168 235.162 90.168H235.966C236.638 90.168 237.01 90.3 237.01 90.756C237.01 91.26 236.362 91.704 235.414 91.704ZM239.38 90H240.76V84.108H239.38V90ZM240.076 83.076C240.568 83.076 240.928 82.752 240.928 82.296C240.928 81.828 240.568 81.504 240.076 81.504C239.584 81.504 239.224 81.828 239.224 82.296C239.224 82.752 239.584 83.076 240.076 83.076ZM242.521 90H243.901V85.884C244.393 85.404 244.729 85.152 245.245 85.152C245.893 85.152 246.169 85.512 246.169 86.484V90H247.549V86.304C247.549 84.816 246.997 83.964 245.737 83.964C244.933 83.964 244.333 84.384 243.805 84.9H243.757L243.661 84.108H242.521V90ZM251.755 90.144C252.499 90.144 253.207 89.88 253.771 89.508L253.303 88.644C252.871 88.92 252.439 89.076 251.935 89.076C250.987 89.076 250.315 88.476 250.195 87.432H253.939C253.975 87.288 253.999 87.024 253.999 86.76C253.999 85.116 253.159 83.964 251.563 83.964C250.183 83.964 248.851 85.14 248.851 87.06C248.851 89.004 250.123 90.144 251.755 90.144ZM250.183 86.496C250.303 85.548 250.903 85.032 251.599 85.032C252.403 85.032 252.799 85.584 252.799 86.496H250.183ZM255.305 92.184C256.493 91.776 257.177 90.864 257.177 89.688C257.177 88.8 256.793 88.272 256.145 88.272C255.641 88.272 255.221 88.608 255.221 89.124C255.221 89.664 255.641 89.976 256.109 89.976C256.145 89.976 256.181 89.976 256.217 89.976C256.229 90.576 255.785 91.128 255.005 91.428L255.305 92.184ZM262.628 90.144C263.324 90.144 263.924 89.796 264.452 89.352H264.5L264.596 90H265.736V86.508C265.736 84.864 265.004 83.964 263.54 83.964C262.604 83.964 261.764 84.324 261.116 84.732L261.62 85.656C262.148 85.344 262.7 85.08 263.276 85.08C264.08 85.08 264.332 85.608 264.356 86.232C261.932 86.496 260.888 87.156 260.888 88.416C260.888 89.448 261.596 90.144 262.628 90.144ZM263.072 89.064C262.58 89.064 262.22 88.836 262.22 88.308C262.22 87.72 262.748 87.3 264.356 87.096V88.416C263.912 88.824 263.552 89.064 263.072 89.064ZM267.388 90H268.768V85.884C269.26 85.404 269.596 85.152 270.112 85.152C270.76 85.152 271.036 85.512 271.036 86.484V90H272.416V86.304C272.416 84.816 271.864 83.964 270.604 83.964C269.8 83.964 269.2 84.384 268.672 84.9H268.624L268.528 84.108H267.388V90ZM276.167 90.144C276.803 90.144 277.403 89.796 277.835 89.364H277.883L277.979 90H279.119V81.528H277.739V83.664L277.787 84.612C277.331 84.216 276.911 83.964 276.239 83.964C274.955 83.964 273.743 85.14 273.743 87.06C273.743 89.004 274.691 90.144 276.167 90.144ZM276.503 89.004C275.651 89.004 275.171 88.32 275.171 87.048C275.171 85.812 275.783 85.104 276.539 85.104C276.935 85.104 277.331 85.236 277.739 85.596V88.344C277.343 88.8 276.959 89.004 276.503 89.004ZM42.304 105.144C43 105.144 43.6 104.796 44.128 104.352H44.176L44.272 105H45.412V101.508C45.412 99.864 44.68 98.964 43.216 98.964C42.28 98.964 41.44 99.324 40.792 99.732L41.296 100.656C41.824 100.344 42.376 100.08 42.952 100.08C43.756 100.08 44.008 100.608 44.032 101.232C41.608 101.496 40.564 102.156 40.564 103.416C40.564 104.448 41.272 105.144 42.304 105.144ZM42.748 104.064C42.256 104.064 41.896 103.836 41.896 103.308C41.896 102.72 42.424 102.3 44.032 102.096V103.416C43.588 103.824 43.228 104.064 42.748 104.064ZM48.7075 105.144C50.1955 105.144 50.9995 104.328 50.9995 103.32C50.9995 102.216 50.1115 101.832 49.3075 101.532C48.6715 101.304 48.0835 101.124 48.0835 100.656C48.0835 100.284 48.3595 100.008 48.9475 100.008C49.4155 100.008 49.8355 100.212 50.2435 100.512L50.8795 99.672C50.3995 99.3 49.7395 98.964 48.9235 98.964C47.6035 98.964 46.7755 99.696 46.7755 100.728C46.7755 101.712 47.6515 102.156 48.4315 102.444C49.0555 102.684 49.6915 102.9 49.6915 103.392C49.6915 103.8 49.3915 104.1 48.7555 104.1C48.1555 104.1 47.6515 103.848 47.1235 103.44L46.4755 104.328C47.0515 104.796 47.9035 105.144 48.7075 105.144ZM53.8755 105.144C55.3635 105.144 56.1675 104.328 56.1675 103.32C56.1675 102.216 55.2795 101.832 54.4755 101.532C53.8395 101.304 53.2515 101.124 53.2515 100.656C53.2515 100.284 53.5275 100.008 54.1155 100.008C54.5835 100.008 55.0035 100.212 55.4115 100.512L56.0475 99.672C55.5675 99.3 54.9075 98.964 54.0915 98.964C52.7715 98.964 51.9435 99.696 51.9435 100.728C51.9435 101.712 52.8195 102.156 53.5995 102.444C54.2235 102.684 54.8595 102.9 54.8595 103.392C54.8595 103.8 54.5595 104.1 53.9235 104.1C53.3235 104.1 52.8195 103.848 52.2915 103.44L51.6435 104.328C52.2195 104.796 53.0715 105.144 53.8755 105.144ZM59.8114 105.144C61.2874 105.144 62.6194 104.016 62.6194 102.06C62.6194 100.092 61.2874 98.964 59.8114 98.964C58.3474 98.964 57.0154 100.092 57.0154 102.06C57.0154 104.016 58.3474 105.144 59.8114 105.144ZM59.8114 104.016C58.9474 104.016 58.4314 103.236 58.4314 102.06C58.4314 100.872 58.9474 100.092 59.8114 100.092C60.6754 100.092 61.2034 100.872 61.2034 102.06C61.2034 103.236 60.6754 104.016 59.8114 104.016ZM66.4454 105.144C67.1174 105.144 67.8134 104.904 68.3654 104.424L67.8014 103.512C67.4654 103.788 67.0454 104.016 66.5894 104.016C65.6654 104.016 65.0174 103.236 65.0174 102.06C65.0174 100.872 65.6774 100.092 66.6254 100.092C66.9974 100.092 67.2974 100.248 67.6094 100.524L68.2814 99.624C67.8494 99.252 67.3094 98.964 66.5534 98.964C64.9814 98.964 63.6014 100.092 63.6014 102.06C63.6014 104.016 64.8374 105.144 66.4454 105.144ZM69.5283 105H70.9083V99.108H69.5283V105ZM70.2243 98.076C70.7163 98.076 71.0763 97.752 71.0763 97.296C71.0763 96.828 70.7163 96.504 70.2243 96.504C69.7323 96.504 69.3723 96.828 69.3723 97.296C69.3723 97.752 69.7323 98.076 70.2243 98.076ZM74.097 105.144C74.793 105.144 75.393 104.796 75.921 104.352H75.969L76.065 105H77.205V101.508C77.205 99.864 76.473 98.964 75.009 98.964C74.073 98.964 73.233 99.324 72.585 99.732L73.089 100.656C73.617 100.344 74.169 100.08 74.745 100.08C75.549 100.08 75.801 100.608 75.825 101.232C73.401 101.496 72.357 102.156 72.357 103.416C72.357 104.448 73.065 105.144 74.097 105.144ZM74.541 104.064C74.049 104.064 73.689 103.836 73.689 103.308C73.689 102.72 74.217 102.3 75.825 102.096V103.416C75.381 103.824 75.021 104.064 74.541 104.064ZM80.745 105.144C81.213 105.144 81.621 105.036 81.945 104.928L81.705 103.908C81.537 103.98 81.297 104.04 81.093 104.04C80.529 104.04 80.265 103.704 80.265 103.008V100.2H81.765V99.108H80.265V97.5H79.113L78.945 99.108L78.033 99.168V100.2H78.873V103.008C78.873 104.28 79.377 105.144 80.745 105.144ZM85.3374 105.144C86.0814 105.144 86.7894 104.88 87.3534 104.508L86.8854 103.644C86.4534 103.92 86.0214 104.076 85.5174 104.076C84.5694 104.076 83.8974 103.476 83.7774 102.432H87.5214C87.5574 102.288 87.5814 102.024 87.5814 101.76C87.5814 100.116 86.7414 98.964 85.1454 98.964C83.7654 98.964 82.4334 100.14 82.4334 102.06C82.4334 104.004 83.7054 105.144 85.3374 105.144ZM83.7654 101.496C83.8854 100.548 84.4854 100.032 85.1814 100.032C85.9854 100.032 86.3814 100.584 86.3814 101.496H83.7654ZM90.9634 105.144C91.5994 105.144 92.1994 104.796 92.6314 104.364H92.6794L92.7754 105H93.9154V96.528H92.5354V98.664L92.5834 99.612C92.1274 99.216 91.7074 98.964 91.0354 98.964C89.7514 98.964 88.5394 100.14 88.5394 102.06C88.5394 104.004 89.4874 105.144 90.9634 105.144ZM91.2994 104.004C90.4474 104.004 89.9674 103.32 89.9674 102.048C89.9674 100.812 90.5794 100.104 91.3354 100.104C91.7314 100.104 92.1274 100.236 92.5354 100.596V103.344C92.1394 103.8 91.7554 104.004 91.2994 104.004ZM99.5032 105.144C100.199 105.144 100.799 104.796 101.327 104.352H101.375L101.471 105H102.611V101.508C102.611 99.864 101.879 98.964 100.415 98.964C99.4792 98.964 98.6392 99.324 97.9912 99.732L98.4952 100.656C99.0232 100.344 99.5752 100.08 100.151 100.08C100.955 100.08 101.207 100.608 101.231 101.232C98.8072 101.496 97.7632 102.156 97.7632 103.416C97.7632 104.448 98.4712 105.144 99.5032 105.144ZM99.9472 104.064C99.4552 104.064 99.0952 103.836 99.0952 103.308C99.0952 102.72 99.6232 102.3 101.231 102.096V103.416C100.787 103.824 100.427 104.064 99.9472 104.064ZM104.263 107.328H105.643V105.48L105.607 104.496C106.087 104.904 106.603 105.144 107.119 105.144C108.427 105.144 109.639 103.98 109.639 101.964C109.639 100.14 108.787 98.964 107.323 98.964C106.675 98.964 106.039 99.312 105.547 99.732H105.499L105.403 99.108H104.263V107.328ZM106.831 104.004C106.483 104.004 106.075 103.872 105.643 103.512V100.764C106.099 100.32 106.507 100.104 106.939 100.104C107.827 100.104 108.211 100.8 108.211 101.976C108.211 103.308 107.611 104.004 106.831 104.004ZM111.036 107.328H112.416V105.48L112.38 104.496C112.86 104.904 113.376 105.144 113.892 105.144C115.2 105.144 116.412 103.98 116.412 101.964C116.412 100.14 115.56 98.964 114.096 98.964C113.448 98.964 112.812 99.312 112.32 99.732H112.272L112.176 99.108H111.036V107.328ZM113.604 104.004C113.256 104.004 112.848 103.872 112.416 103.512V100.764C112.872 100.32 113.28 100.104 113.712 100.104C114.6 100.104 114.984 100.8 114.984 101.976C114.984 103.308 114.384 104.004 113.604 104.004ZM119.154 105.144C119.478 105.144 119.718 105.096 119.886 105.024L119.706 103.992C119.598 104.016 119.55 104.016 119.49 104.016C119.346 104.016 119.19 103.896 119.19 103.56V96.528H117.81V103.488C117.81 104.508 118.17 105.144 119.154 105.144ZM121.067 105H122.447V99.108H121.067V105ZM121.763 98.076C122.255 98.076 122.615 97.752 122.615 97.296C122.615 96.828 122.255 96.504 121.763 96.504C121.271 96.504 120.911 96.828 120.911 97.296C120.911 97.752 121.271 98.076 121.763 98.076ZM126.668 105.144C127.34 105.144 128.036 104.904 128.588 104.424L128.024 103.512C127.688 103.788 127.268 104.016 126.812 104.016C125.888 104.016 125.24 103.236 125.24 102.06C125.24 100.872 125.9 100.092 126.848 100.092C127.22 100.092 127.52 100.248 127.832 100.524L128.504 99.624C128.072 99.252 127.532 98.964 126.776 98.964C125.204 98.964 123.824 100.092 123.824 102.06C123.824 104.016 125.06 105.144 126.668 105.144ZM131.062 105.144C131.758 105.144 132.358 104.796 132.886 104.352H132.934L133.03 105H134.17V101.508C134.17 99.864 133.438 98.964 131.974 98.964C131.038 98.964 130.198 99.324 129.55 99.732L130.054 100.656C130.582 100.344 131.134 100.08 131.71 100.08C132.514 100.08 132.766 100.608 132.79 101.232C130.366 101.496 129.322 102.156 129.322 103.416C129.322 104.448 130.03 105.144 131.062 105.144ZM131.506 104.064C131.014 104.064 130.654 103.836 130.654 103.308C130.654 102.72 131.182 102.3 132.79 102.096V103.416C132.346 103.824 131.986 104.064 131.506 104.064ZM137.71 105.144C138.178 105.144 138.586 105.036 138.91 104.928L138.67 103.908C138.502 103.98 138.262 104.04 138.058 104.04C137.494 104.04 137.23 103.704 137.23 103.008V100.2H138.73V99.108H137.23V97.5H136.078L135.91 99.108L134.998 99.168V100.2H135.838V103.008C135.838 104.28 136.342 105.144 137.71 105.144ZM139.97 105H141.35V99.108H139.97V105ZM140.666 98.076C141.158 98.076 141.518 97.752 141.518 97.296C141.518 96.828 141.158 96.504 140.666 96.504C140.174 96.504 139.814 96.828 139.814 97.296C139.814 97.752 140.174 98.076 140.666 98.076ZM145.522 105.144C146.998 105.144 148.33 104.016 148.33 102.06C148.33 100.092 146.998 98.964 145.522 98.964C144.058 98.964 142.726 100.092 142.726 102.06C142.726 104.016 144.058 105.144 145.522 105.144ZM145.522 104.016C144.658 104.016 144.142 103.236 144.142 102.06C144.142 100.872 144.658 100.092 145.522 100.092C146.386 100.092 146.914 100.872 146.914 102.06C146.914 103.236 146.386 104.016 145.522 104.016ZM149.696 105H151.076V100.884C151.568 100.404 151.904 100.152 152.42 100.152C153.068 100.152 153.344 100.512 153.344 101.484V105H154.724V101.304C154.724 99.816 154.172 98.964 152.912 98.964C152.108 98.964 151.508 99.384 150.98 99.9H150.932L150.836 99.108H149.696V105ZM158.055 105.144C159.543 105.144 160.347 104.328 160.347 103.32C160.347 102.216 159.459 101.832 158.655 101.532C158.019 101.304 157.431 101.124 157.431 100.656C157.431 100.284 157.707 100.008 158.295 100.008C158.763 100.008 159.183 100.212 159.591 100.512L160.227 99.672C159.747 99.3 159.087 98.964 158.271 98.964C156.951 98.964 156.123 99.696 156.123 100.728C156.123 101.712 156.999 102.156 157.779 102.444C158.403 102.684 159.039 102.9 159.039 103.392C159.039 103.8 158.739 104.1 158.103 104.1C157.503 104.1 156.999 103.848 156.471 103.44L155.823 104.328C156.399 104.796 157.251 105.144 158.055 105.144Z" fill="white"/>
<path fill-rule="evenodd" clip-rule="evenodd" d="M45.1663 66.5H77.4679C81.3583 66.5 83.7583 62.2524 81.7508 58.92L65.6 32.1096C63.6563 28.883 58.9779 28.8831 57.0342 32.1096L40.8834 58.92C38.8759 62.2524 41.2759 66.5 45.1663 66.5ZM61.3171 56.5C64.0785 56.5 66.3171 54.2614 66.3171 51.5C66.3171 48.7386 64.0785 46.5 61.3171 46.5C58.5557 46.5 56.3171 48.7386 56.3171 51.5C56.3171 54.2614 58.5557 56.5 61.3171 56.5Z" fill="white"/>
<path d="M98.9396 57H103.644V49.928H106.236C110.652 49.928 114.396 47.752 114.396 42.856C114.396 37.8 110.684 36.136 106.108 36.136H98.9396V57ZM103.644 46.184V39.88H105.82C108.38 39.88 109.788 40.68 109.788 42.856C109.788 45.032 108.54 46.184 105.948 46.184H103.644ZM124.035 57.384C125.923 57.384 128.035 56.712 129.667 55.592L128.099 52.744C126.947 53.448 125.859 53.8 124.675 53.8C122.563 53.8 120.963 52.744 120.547 50.44H130.051C130.147 50.056 130.243 49.192 130.243 48.36C130.243 44.04 128.003 40.744 123.491 40.744C119.683 40.744 116.003 43.912 116.003 49.064C116.003 54.312 119.491 57.384 124.035 57.384ZM120.515 47.336C120.835 45.32 122.115 44.328 123.587 44.328C125.475 44.328 126.243 45.576 126.243 47.336H120.515ZM133.493 57H138.197V47.784C139.029 45.64 140.501 44.872 141.685 44.872C142.357 44.872 142.837 44.968 143.413 45.128L144.181 41.064C143.733 40.872 143.189 40.744 142.293 40.744C140.661 40.744 138.933 41.768 137.781 43.912H137.653L137.333 41.128H133.493V57ZM152.843 57.384C154.571 57.384 156.523 56.872 158.091 55.496L156.235 52.424C155.403 53.064 154.411 53.576 153.387 53.576C151.339 53.576 149.835 51.816 149.835 49.064C149.835 46.312 151.275 44.552 153.547 44.552C154.283 44.552 154.923 44.84 155.691 45.48L157.899 42.44C156.715 41.448 155.211 40.744 153.259 40.744C148.875 40.744 145.003 43.784 145.003 49.064C145.003 54.344 148.427 57.384 152.843 57.384ZM167.066 57.384C168.954 57.384 171.066 56.712 172.698 55.592L171.13 52.744C169.978 53.448 168.89 53.8 167.706 53.8C165.594 53.8 163.994 52.744 163.578 50.44H173.082C173.178 50.056 173.274 49.192 173.274 48.36C173.274 44.04 171.034 40.744 166.522 40.744C162.714 40.744 159.034 43.912 159.034 49.064C159.034 54.312 162.522 57.384 167.066 57.384ZM163.546 47.336C163.866 45.32 165.146 44.328 166.618 44.328C168.506 44.328 169.274 45.576 169.274 47.336H163.546ZM176.524 62.888H181.228V58.248L181.068 55.72C182.188 56.776 183.468 57.384 184.844 57.384C188.268 57.384 191.532 54.248 191.532 48.808C191.532 43.912 189.164 40.744 185.324 40.744C183.66 40.744 182.06 41.576 180.812 42.696H180.684L180.364 41.128H176.524V62.888ZM183.756 53.544C182.956 53.544 182.06 53.288 181.228 52.52V46.024C182.156 45.032 182.988 44.584 183.948 44.584C185.836 44.584 186.7 46.024 186.7 48.872C186.7 52.136 185.388 53.544 183.756 53.544ZM200.136 57.384C201.672 57.384 202.824 57.064 203.656 56.808L202.92 53.384C202.504 53.544 201.928 53.704 201.416 53.704C200.168 53.704 199.368 52.968 199.368 51.176V44.808H203.176V41.128H199.368V36.904H195.464L194.92 41.128L192.488 41.32V44.808H194.664V51.24C194.664 54.92 196.2 57.384 200.136 57.384ZM206.274 57H210.978V41.128H206.274V57ZM208.61 38.792C210.21 38.792 211.33 37.768 211.33 36.328C211.33 34.888 210.21 33.896 208.61 33.896C207.042 33.896 205.89 34.888 205.89 36.328C205.89 37.768 207.042 38.792 208.61 38.792ZM221.934 57.384C225.934 57.384 229.646 54.344 229.646 49.064C229.646 43.784 225.934 40.744 221.934 40.744C217.902 40.744 214.19 43.784 214.19 49.064C214.19 54.344 217.902 57.384 221.934 57.384ZM221.934 53.576C219.982 53.576 219.022 51.816 219.022 49.064C219.022 46.312 219.982 44.552 221.934 44.552C223.854 44.552 224.846 46.312 224.846 49.064C224.846 51.816 223.854 53.576 221.934 53.576ZM232.868 57H237.572V46.28C238.596 45.288 239.332 44.744 240.516 44.744C241.86 44.744 242.468 45.448 242.468 47.752V57H247.172V47.144C247.172 43.176 245.7 40.744 242.244 40.744C240.1 40.744 238.5 41.864 237.156 43.144H237.028L236.708 41.128H232.868V57Z" fill="white"/>
<path d="M107.528 131.144C109.724 131.144 111.44 128.9 111.44 126.308C111.44 124.28 110.384 123.008 108.608 123.008C106.424 123.008 104.696 125.252 104.696 127.844C104.696 129.872 105.764 131.144 107.528 131.144ZM107.6 130.028C106.544 130.028 106.028 129.14 106.028 127.748C106.028 125.924 107.144 124.124 108.536 124.124C109.592 124.124 110.12 125.012 110.12 126.404C110.12 128.228 108.992 130.028 107.6 130.028ZM113.378 130.376H113.402C113.69 130.832 114.158 131.144 114.71 131.144C116.33 131.144 117.866 129.368 117.866 127.112C117.866 125.732 117.23 124.964 116.186 124.964C115.514 124.964 114.842 125.336 114.278 125.828H114.242L114.266 125.108H113.222L111.566 133.328H112.85L113.186 131.576L113.378 130.376ZM115.658 126.02C116.198 126.02 116.546 126.428 116.546 127.28C116.546 128.804 115.622 130.088 114.626 130.088C114.254 130.088 113.906 129.884 113.654 129.392L114.158 126.872C114.602 126.296 115.202 126.02 115.658 126.02ZM118.693 128.648C118.693 130.232 119.653 131.144 121.057 131.144C121.897 131.144 122.593 130.856 123.073 130.52L122.593 129.692C122.269 129.932 121.813 130.16 121.393 130.16C120.505 130.16 119.809 129.632 119.941 128.384H123.529C123.613 128.192 123.781 127.652 123.781 127.136C123.781 125.912 123.277 124.964 121.909 124.964C120.361 124.964 118.693 126.452 118.693 128.648ZM120.049 127.568C120.337 126.56 121.045 125.96 121.753 125.96C122.473 125.96 122.713 126.476 122.713 127.052C122.713 127.244 122.689 127.412 122.653 127.568H120.049ZM124.42 131H125.716L126.508 126.98C127.132 126.344 127.588 126.068 127.996 126.068C128.5 126.068 128.74 126.32 128.74 126.824C128.74 127.004 128.692 127.172 128.644 127.448L127.924 131H129.208L129.952 127.28C130.024 126.968 130.048 126.728 130.048 126.452C130.048 125.504 129.64 124.964 128.656 124.964C127.912 124.964 127.252 125.408 126.628 125.936H126.58L126.64 125.108H125.596L124.42 131ZM134.961 131.144C136.317 131.144 137.301 130.4 137.301 129.26C137.301 128.54 136.869 128.072 135.993 127.604C135.489 127.316 134.985 127.112 134.985 126.68C134.985 126.272 135.381 125.936 135.921 125.936C136.389 125.936 136.749 126.188 137.049 126.488L137.769 125.804C137.313 125.324 136.689 124.964 135.921 124.964C134.745 124.964 133.773 125.732 133.773 126.8C133.773 127.508 134.253 128 135.033 128.432C135.777 128.84 136.089 129.044 136.089 129.416C136.089 129.848 135.609 130.184 135.057 130.184C134.529 130.184 134.049 129.896 133.665 129.392L132.897 130.016C133.341 130.688 134.217 131.144 134.961 131.144ZM140.53 131.144C142.15 131.144 143.782 129.608 143.782 127.364C143.782 125.888 142.906 124.964 141.574 124.964C139.966 124.964 138.334 126.488 138.334 128.744C138.334 130.208 139.21 131.144 140.53 131.144ZM140.674 130.1C139.99 130.1 139.63 129.584 139.63 128.696C139.63 127.196 140.506 126.008 141.442 126.008C142.114 126.008 142.474 126.512 142.474 127.4C142.474 128.912 141.61 130.1 140.674 130.1ZM150.363 125.108H149.079L148.287 129.128C147.699 129.752 147.231 130.04 146.835 130.04C146.343 130.04 146.103 129.788 146.103 129.284C146.103 129.104 146.139 128.936 146.199 128.66L146.907 125.108H145.623L144.879 128.828C144.819 129.128 144.783 129.38 144.783 129.656C144.783 130.592 145.203 131.144 146.187 131.144C146.895 131.144 147.567 130.688 148.155 130.16H148.203L148.155 131H149.199L150.363 125.108ZM150.928 131H152.224L152.92 127.436C153.4 126.536 153.964 126.104 154.516 126.104C154.72 126.104 154.924 126.128 155.068 126.2L155.5 125.072C155.344 125 155.164 124.964 154.912 124.964C154.204 124.964 153.556 125.516 153.088 126.248H153.04L153.148 125.108H152.104L150.928 131ZM157.546 131.144C158.434 131.144 159.034 130.784 159.478 130.46L158.926 129.644C158.626 129.884 158.266 130.1 157.81 130.1C157.018 130.1 156.622 129.584 156.622 128.696C156.622 127.232 157.546 126.008 158.602 126.008C158.998 126.008 159.238 126.152 159.514 126.464L160.234 125.684C159.91 125.3 159.406 124.964 158.686 124.964C156.85 124.964 155.302 126.632 155.302 128.744C155.302 130.268 156.25 131.144 157.546 131.144ZM160.4 128.648C160.4 130.232 161.36 131.144 162.764 131.144C163.604 131.144 164.3 130.856 164.78 130.52L164.3 129.692C163.976 129.932 163.52 130.16 163.1 130.16C162.212 130.16 161.516 129.632 161.648 128.384H165.236C165.32 128.192 165.488 127.652 165.488 127.136C165.488 125.912 164.984 124.964 163.616 124.964C162.068 124.964 160.4 126.452 160.4 128.648ZM161.756 127.568C162.044 126.56 162.752 125.96 163.46 125.96C164.18 125.96 164.42 126.476 164.42 127.052C164.42 127.244 164.396 127.412 164.36 127.568H161.756ZM170.783 125.744H170.747C170.495 125.276 170.027 124.964 169.451 124.964C167.819 124.964 166.283 126.74 166.283 128.996C166.283 130.376 166.931 131.144 167.963 131.144C168.635 131.144 169.355 130.76 169.907 130.184H169.943L169.883 131H170.939L172.643 122.528H171.359L170.951 124.616L170.783 125.744ZM168.491 130.088C167.951 130.088 167.615 129.68 167.615 128.816C167.615 127.304 168.527 126.02 169.523 126.02C169.883 126.02 170.255 126.236 170.519 126.74L170.039 129.092C169.547 129.8 168.995 130.088 168.491 130.088ZM176.02 131L176.271 130.316H176.296C176.56 130.82 177.04 131.144 177.628 131.144C179.248 131.144 180.784 129.368 180.784 127.112C180.784 125.72 180.148 124.964 179.104 124.964C178.456 124.964 177.808 125.3 177.256 125.744H177.232L177.52 124.616L177.94 122.528H176.656L174.952 131H176.02ZM178.576 126.02C179.116 126.02 179.464 126.428 179.464 127.28C179.464 128.804 178.54 130.088 177.544 130.088C177.172 130.088 176.824 129.872 176.572 129.368L177.076 126.872C177.52 126.296 178.12 126.02 178.576 126.02ZM181.196 133.424C182.372 133.424 183.104 132.596 183.836 131.312L187.148 125.108H185.9L184.436 128.084C184.16 128.636 183.872 129.296 183.608 129.848H183.56C183.536 129.296 183.476 128.612 183.416 128.084L183.044 125.108H181.76L182.78 130.94L182.6 131.3C182.276 131.96 181.784 132.392 181.28 132.392C181.124 132.392 180.968 132.344 180.848 132.272L180.44 133.208C180.668 133.34 181.004 133.424 181.196 133.424Z" fill="white" fill-opacity="0.7"/>
<path d="M226.416 132.192C228.912 132.192 230.352 130.688 230.352 128.96C230.352 127.488 229.552 126.64 228.288 126.128L226.944 125.584C226.048 125.216 225.36 124.992 225.36 124.352C225.36 123.76 225.872 123.408 226.688 123.408C227.52 123.408 228.16 123.712 228.848 124.24L230.048 122.752C229.152 121.856 227.888 121.376 226.688 121.376C224.512 121.376 222.976 122.752 222.976 124.48C222.976 126 224 126.896 225.072 127.328L226.432 127.904C227.344 128.288 227.936 128.496 227.936 129.152C227.936 129.776 227.456 130.16 226.48 130.16C225.616 130.16 224.656 129.712 223.904 129.072L222.56 130.688C223.616 131.68 225.056 132.192 226.416 132.192ZM234.534 132.192C235.302 132.192 235.878 132.032 236.294 131.904L235.926 130.192C235.718 130.272 235.43 130.352 235.174 130.352C234.549 130.352 234.15 129.984 234.15 129.088V125.904H236.054V124.064H234.15V121.952H232.198L231.926 124.064L230.71 124.16V125.904H231.798V129.12C231.798 130.96 232.566 132.192 234.534 132.192ZM240.873 132.192C241.817 132.192 242.873 131.856 243.689 131.296L242.905 129.872C242.329 130.224 241.785 130.4 241.193 130.4C240.137 130.4 239.337 129.872 239.129 128.72H243.881C243.929 128.528 243.977 128.096 243.977 127.68C243.977 125.52 242.857 123.872 240.601 123.872C238.697 123.872 236.857 125.456 236.857 128.032C236.857 130.656 238.601 132.192 240.873 132.192ZM239.113 127.168C239.273 126.16 239.913 125.664 240.649 125.664C241.593 125.664 241.977 126.288 241.977 127.168H239.113ZM245.603 132H247.955V127.392C248.371 126.32 249.107 125.936 249.699 125.936C250.035 125.936 250.275 125.984 250.563 126.064L250.947 124.032C250.723 123.936 250.451 123.872 250.003 123.872C249.187 123.872 248.323 124.384 247.747 125.456H247.683L247.523 124.064H245.603V132ZM256.138 132.192C257.85 132.192 259.482 130.624 259.482 127.888C259.482 125.456 258.282 123.872 256.362 123.872C255.626 123.872 254.874 124.208 254.266 124.752L254.33 123.536V120.784H251.978V132H253.818L254.01 131.152H254.074C254.698 131.84 255.434 132.192 256.138 132.192ZM255.594 130.272C255.194 130.272 254.746 130.144 254.33 129.76V126.512C254.778 126.016 255.21 125.792 255.69 125.792C256.634 125.792 257.066 126.512 257.066 127.936C257.066 129.568 256.41 130.272 255.594 130.272ZM263.309 132.192C263.837 132.192 264.237 132.112 264.493 132L264.205 130.256C264.077 130.288 264.013 130.288 263.917 130.288C263.725 130.288 263.501 130.128 263.501 129.632V120.784H261.149V129.536C261.149 131.136 261.693 132.192 263.309 132.192ZM268.112 132.192C269.2 132.192 269.936 131.696 270.608 130.896H270.656L270.832 132H272.752V124.064H270.4V129.312C269.936 129.936 269.584 130.192 268.992 130.192C268.304 130.192 268 129.824 268 128.688V124.064H265.648V128.992C265.648 130.976 266.384 132.192 268.112 132.192ZM278.373 132.192C279.317 132.192 280.373 131.856 281.189 131.296L280.405 129.872C279.829 130.224 279.285 130.4 278.693 130.4C277.637 130.4 276.837 129.872 276.629 128.72H281.381C281.429 128.528 281.477 128.096 281.477 127.68C281.477 125.52 280.357 123.872 278.101 123.872C276.197 123.872 274.357 125.456 274.357 128.032C274.357 130.656 276.101 132.192 278.373 132.192ZM276.613 127.168C276.773 126.16 277.413 125.664 278.149 125.664C279.093 125.664 279.477 126.288 279.477 127.168H276.613Z" fill="white" fill-opacity="0.7"/>
<path d="M215.996 127.3C215.999 127.2 216 127.1 216 127C216 120.373 210.627 115 204 115C197.373 115 192 120.373 192 127C192 128.824 192.407 130.552 193.135 132.1H198.6C199.76 132.1 200.7 131.16 200.7 130C200.7 128.84 199.76 127.9 198.6 127.9C196.446 127.9 194.7 126.154 194.7 124C194.7 121.846 196.446 120.1 198.6 120.1H200.4C203.548 120.1 206.1 122.652 206.1 125.8V129.4C206.1 130.891 207.309 132.1 208.8 132.1C210.291 132.1 211.5 130.891 211.5 129.4V129.1H210.6C209.109 129.1 207.9 127.891 207.9 126.4C207.9 124.909 209.109 123.7 210.6 123.7C212.091 123.7 213.3 124.909 213.3 126.4V127.3H215.996Z" fill="white" fill-opacity="0.7"/>
<path d="M215.817 129.1H213.3V129.4C213.3 131.885 211.285 133.9 208.8 133.9C206.315 133.9 204.3 131.885 204.3 129.4V125.8C204.3 123.646 202.554 121.9 200.4 121.9H198.6C197.44 121.9 196.5 122.84 196.5 124C196.5 125.16 197.44 126.1 198.6 126.1C200.754 126.1 202.5 127.846 202.5 130C202.5 132.154 200.754 133.9 198.6 133.9H194.181C196.353 136.985 199.941 139 204 139C209.911 139 214.824 134.726 215.817 129.1Z" fill="white" fill-opacity="0.7"/>
<path d="M211.5 126.4V127.3H210.6C210.103 127.3 209.7 126.897 209.7 126.4C209.7 125.903 210.103 125.5 210.6 125.5C211.097 125.5 211.5 125.903 211.5 126.4Z" fill="white" fill-opacity="0.7"/>
</svg>
