<svg width="250" height="250" viewBox="0 0 250 250" fill="none" xmlns="http://www.w3.org/2000/svg">
<path d="M122.438 50.8764C133.174 50.8764 141.876 42.1737 141.876 31.4382C141.876 20.7028 133.174 12 122.438 12C111.703 12 103 20.7028 103 31.4382C103 42.1737 111.703 50.8764 122.438 50.8764Z" fill="#F2F2F2"/>
<path d="M122.438 17.1348C123.046 17.1348 123.539 16.6421 123.539 16.0345C123.539 15.4268 123.046 14.9342 122.438 14.9342C121.831 14.9342 121.338 15.4268 121.338 16.0345C121.338 16.6421 121.831 17.1348 122.438 17.1348Z" fill="black" fill-opacity="0.1"/>
<path d="M107.034 32.5386C107.642 32.5386 108.135 32.046 108.135 31.4383C108.135 30.8306 107.642 30.338 107.034 30.338C106.427 30.338 105.934 30.8306 105.934 31.4383C105.934 32.046 106.427 32.5386 107.034 32.5386Z" fill="black" fill-opacity="0.1"/>
<path d="M137.842 32.5386C138.45 32.5386 138.942 32.046 138.942 31.4383C138.942 30.8306 138.45 30.338 137.842 30.338C137.234 30.338 136.742 30.8306 136.742 31.4383C136.742 32.046 137.234 32.5386 137.842 32.5386Z" fill="black" fill-opacity="0.1"/>
<path d="M122.438 47.9424C123.046 47.9424 123.539 47.4498 123.539 46.8421C123.539 46.2344 123.046 45.7418 122.438 45.7418C121.831 45.7418 121.338 46.2344 121.338 46.8421C121.338 47.4498 121.831 47.9424 122.438 47.9424Z" fill="black" fill-opacity="0.1"/>
<path fill-rule="evenodd" clip-rule="evenodd" d="M122.438 18.235L123.172 31.0715H121.705L122.438 18.235Z" fill="#AFB9C5"/>
<path fill-rule="evenodd" clip-rule="evenodd" d="M128.929 37.9293L122.187 32.2239L123.224 31.1865L128.929 37.9293Z" fill="#AFB9C5"/>
<path d="M122.438 32.9053C123.248 32.9053 123.905 32.2484 123.905 31.4382C123.905 30.628 123.248 29.9712 122.438 29.9712C121.628 29.9712 120.971 30.628 120.971 31.4382C120.971 32.2484 121.628 32.9053 122.438 32.9053Z" fill="#C5CFD6"/>
<path fill-rule="evenodd" clip-rule="evenodd" d="M99.6388 54.2465C97.1478 51.3226 95.4619 47.7393 95.7436 43.7241C96.5553 32.1553 112.66 34.7003 115.792 40.5393C118.925 46.3782 118.553 61.1892 114.504 62.2328C112.889 62.649 109.45 61.6295 105.949 59.5195L108.146 75.0645H95.1723L99.6388 54.2465Z" fill="#57331F"/>
<path fill-rule="evenodd" clip-rule="evenodd" d="M106.598 45.0018C107.094 51.9198 108.408 55.3788 110.539 55.3788C113.735 55.3788 116.447 53.3496 117.85 53.3496C118.872 53.3496 118.644 54.629 117.966 55.5776C117.407 56.3602 114.684 57.1146 114.684 58.3279C114.684 59.5412 116.835 58.6025 116.835 59.3221C116.835 60.5124 117.214 62.7504 115.148 62.7504C113.057 62.7504 107.062 61.9885 106.035 58.8855C105.372 56.8828 104.943 52.7331 104.749 46.4361C104.622 46.4211 104.493 46.4133 104.362 46.4133C102.571 46.4133 101.119 47.8655 101.119 49.6568C101.119 50.5662 101.493 51.3882 102.096 51.9771C101.345 53.0365 100.504 54.1431 99.5405 55.285C95.9196 53.1126 93.2328 46.7533 96.7727 40.6443C97.7512 37.6516 99.9663 36.0531 102.582 35.3108C104.701 34.4244 106.901 34.3244 108.758 34.8558C112.399 35.1681 115.649 36.2781 116.57 36.9373C116.57 40.3837 115.903 41.4062 110.199 41.3161C108.797 42.0562 107.72 43.3308 106.598 45.0018Z" fill="#191847"/>
<path fill-rule="evenodd" clip-rule="evenodd" d="M94.1315 119.8L120.664 186.955L138.46 243.729H145.487L118.282 119.8L94.1315 119.8Z" fill="#3D2216"/>
<path fill-rule="evenodd" clip-rule="evenodd" d="M88.7887 119.8C88.5061 143.398 84.3857 175.171 83.7274 176.642C83.2885 177.622 68.138 190.094 38.2758 214.055L43.1158 219.235C78.3504 198.69 96.783 187.048 98.4135 184.308C100.859 180.198 108.822 142.376 115.214 119.8H88.7887Z" fill="#57331F"/>
<path fill-rule="evenodd" clip-rule="evenodd" d="M37.6284 212.326C36.0029 212.901 34.8832 213.446 34.2692 213.961C33.5224 214.587 32.5371 215.626 31.3132 217.077C32.0401 217.943 38.573 225.729 50.9119 240.434C53.4277 239.357 54.217 238.098 53.2797 236.656C52.3424 235.214 51.5754 234.006 50.9785 233.033L46.7089 218.116C46.6267 217.829 46.3274 217.663 46.0404 217.745C46.0355 217.747 46.0306 217.748 46.0257 217.75L43.7475 218.472C42.1668 217.736 41.059 216.989 40.4239 216.232C39.9079 215.617 39.4436 214.559 39.0312 213.059L39.0312 213.059C38.8729 212.483 38.2778 212.145 37.702 212.303C37.6772 212.31 37.6527 212.318 37.6284 212.326Z" fill="#E4E4E4"/>
<path fill-rule="evenodd" clip-rule="evenodd" d="M135.583 241.108C134.978 242.723 134.676 243.931 134.676 244.732C134.676 245.707 134.838 247.13 135.163 249C136.294 249 146.457 249 165.653 249C166.445 246.38 165.988 244.966 164.281 244.757C162.574 244.549 161.156 244.36 160.026 244.192L145.855 237.874C145.582 237.752 145.263 237.875 145.141 238.148C145.139 238.152 145.137 238.157 145.135 238.162L144.224 240.371C142.644 241.109 141.36 241.477 140.372 241.477C139.569 241.477 138.46 241.153 137.046 240.505L137.046 240.505C136.503 240.256 135.861 240.494 135.612 241.037C135.602 241.06 135.592 241.084 135.583 241.108Z" fill="#E4E4E4"/>
<path fill-rule="evenodd" clip-rule="evenodd" d="M111.971 237.882L145.382 234.256L120.62 119.8H90.6956L111.971 237.882Z" fill="#D8C276"/>
<path fill-rule="evenodd" clip-rule="evenodd" d="M45.1867 205.699L67.1021 231.64C90.1852 206.429 103.643 189.979 107.475 182.289C111.306 174.6 114.751 153.77 117.809 119.8H84.1188C82.4487 149.685 81.3229 165.324 80.7414 166.714C80.16 168.105 68.3084 181.1 45.1867 205.699Z" fill="#EAD68E"/>
<path fill-rule="evenodd" clip-rule="evenodd" d="M141.418 113.096L156.732 128.035C161.188 129.936 164.839 132.034 167.685 134.331C168.325 135.103 169.021 136.582 166.01 135.92C162.999 135.258 159.802 134.697 159.236 135.677C158.67 136.656 160.338 138.157 159.292 139.438C158.594 140.293 156.249 137.575 152.256 131.285L136.332 121.897L141.418 113.096ZM66.5344 99.5753L78.3718 99.6197C69.356 128.83 64.5702 144.124 64.0142 145.501C62.7633 148.601 65.4104 153.323 66.5424 155.86C62.8555 157.51 63.2484 151.4 58.5975 153.564C54.3524 155.539 51.1232 159.117 46.2187 156.091C45.6157 155.719 44.9549 154.318 46.5514 153.223C50.5289 150.496 56.2608 145.723 57.0352 144.151C58.0913 142.009 61.2577 127.15 66.5344 99.5753Z" fill="#57331F"/>
<path fill-rule="evenodd" clip-rule="evenodd" d="M102.605 65.9953L107.28 65.1935C114.644 91.2238 152.478 108.967 154.801 118.698C155.653 122.266 153.085 124.07 154.411 125.157L148.335 129.605C147.306 128.405 145.111 130.601 140.525 129.065C135.94 127.528 102.605 96.8173 102.605 65.9953Z" fill="#B49C1E"/>
<path fill-rule="evenodd" clip-rule="evenodd" d="M110.468 69.4559C109.929 103.918 129.851 112.709 125.414 126.534C121.749 137.95 86.6753 150.222 80.606 139.032C78.1492 134.502 77.0345 129.023 76.908 123.067C75.3568 127.643 74.13 131.583 73.2276 134.885C71.6707 140.583 65.6351 141.489 65.6351 143.684L57.6832 141.489C58.2226 138.507 54.4739 137.055 55.479 130.393C59.9826 100.543 72.0828 78.9057 91.7796 65.4811L91.9834 62.567C92.0667 61.3757 93.1 60.4775 94.2913 60.5608L108.852 61.5789C110.043 61.6622 110.941 62.6955 110.858 63.8869L110.468 69.4559Z" fill="#E9CC33"/>
<path fill-rule="evenodd" clip-rule="evenodd" d="M139.698 134H204.302C212.082 134 216.882 125.505 212.867 118.84L180.566 65.2193C176.678 58.7661 167.322 58.7661 163.434 65.2193L131.133 118.84C127.118 125.505 131.918 134 139.698 134ZM172 114C177.523 114 182 109.523 182 104C182 98.4772 177.523 94 172 94C166.477 94 162 98.4772 162 104C162 109.523 166.477 114 172 114Z" fill="#FCEC00"/>
</svg>
