<svg width="253" height="100" viewBox="0 0 253 100" fill="none" xmlns="http://www.w3.org/2000/svg">
<g clip-path="url(#clip0)">
<path d="M137.664 73.768C147.648 73.768 153.408 67.752 153.408 60.84C153.408 54.952 150.208 51.56 145.152 49.512L139.776 47.336C136.192 45.864 133.44 44.968 133.44 42.408C133.44 40.04 135.488 38.632 138.752 38.632C142.08 38.632 144.64 39.848 147.392 41.96L152.192 36.008C148.608 32.424 143.552 30.504 138.752 30.504C130.048 30.504 123.904 36.008 123.904 42.92C123.904 49 128 52.584 132.288 54.312L137.728 56.616C141.376 58.152 143.744 58.984 143.744 61.608C143.744 64.104 141.824 65.64 137.92 65.64C134.464 65.64 130.624 63.848 127.616 61.288L122.24 67.752C126.464 71.72 132.224 73.768 137.664 73.768ZM160.491 73H172.779C185.003 73 193.194 66.28 193.194 51.944C193.194 37.608 185.003 31.272 172.267 31.272H160.491V73ZM169.899 65.384V38.888H171.691C178.795 38.888 183.531 41.96 183.531 51.944C183.531 61.928 178.795 65.384 171.691 65.384H169.899ZM201.116 73H210.524V61.8L215.388 55.4L225.564 73H235.868L220.956 47.912L233.564 31.272H223.196L210.78 48.36H210.524V31.272H201.116V73Z" fill="white"/>
<path d="M97.9853 51.2C97.9951 50.8012 98 50.4012 98 50C98 23.4903 76.5097 2 50 2C23.4903 2 2 23.4903 2 50C2 57.2944 3.6271 64.2088 6.53816 70.4H28.4C33.0392 70.4 36.8 66.6392 36.8 62C36.8 57.3608 33.0392 53.6 28.4 53.6C19.7844 53.6 12.8 46.6156 12.8 38C12.8 29.3844 19.7844 22.4 28.4 22.4H35.6C48.1921 22.4 58.4 32.6079 58.4 45.2V59.6C58.4 65.5647 63.2353 70.4 69.2 70.4C75.1647 70.4 80 65.5647 80 59.6V58.4H76.4C70.4353 58.4 65.6 53.5647 65.6 47.6C65.6 41.6353 70.4353 36.8 76.4 36.8C82.3647 36.8 87.2 41.6353 87.2 47.6V51.2H97.9853Z" fill="white"/>
<path d="M97.2675 58.4H87.2V59.6C87.2 69.5411 79.1411 77.6 69.2 77.6C59.2589 77.6 51.2 69.5411 51.2 59.6V45.2C51.2 36.5844 44.2156 29.6 35.6 29.6H28.4C23.7608 29.6 20 33.3608 20 38C20 42.6392 23.7608 46.4 28.4 46.4C37.0156 46.4 44 53.3844 44 62C44 70.6156 37.0157 77.6 28.4 77.6H10.7237C19.4102 89.9386 33.7637 98 50 98C73.6441 98 93.2953 80.9046 97.2675 58.4Z" fill="white"/>
<path d="M80 47.6V51.2H76.4C74.4118 51.2 72.8 49.5882 72.8 47.6C72.8 45.6118 74.4118 44 76.4 44C78.3882 44 80 45.6118 80 47.6Z" fill="white"/>
</g>
<defs>
<clipPath id="clip0">
<rect width="253" height="100" fill="white"/>
</clipPath>
</defs>
</svg>
