<svg width="253" height="100" viewBox="0 0 253 100" fill="none" xmlns="http://www.w3.org/2000/svg">
<g clip-path="url(#clip0)">
<path d="M137.664 73.768C147.648 73.768 153.408 67.752 153.408 60.84C153.408 54.952 150.208 51.56 145.152 49.512L139.776 47.336C136.192 45.864 133.44 44.968 133.44 42.408C133.44 40.04 135.488 38.632 138.752 38.632C142.08 38.632 144.64 39.848 147.392 41.96L152.192 36.008C148.608 32.424 143.552 30.504 138.752 30.504C130.048 30.504 123.904 36.008 123.904 42.92C123.904 49 128 52.584 132.288 54.312L137.728 56.616C141.376 58.152 143.744 58.984 143.744 61.608C143.744 64.104 141.824 65.64 137.92 65.64C134.464 65.64 130.624 63.848 127.616 61.288L122.24 67.752C126.464 71.72 132.224 73.768 137.664 73.768ZM160.491 73H172.779C185.003 73 193.194 66.28 193.194 51.944C193.194 37.608 185.003 31.272 172.267 31.272H160.491V73ZM169.899 65.384V38.888H171.691C178.795 38.888 183.531 41.96 183.531 51.944C183.531 61.928 178.795 65.384 171.691 65.384H169.899ZM201.116 73H210.524V61.8L215.388 55.4L225.564 73H235.868L220.956 47.912L233.564 31.272H223.196L210.78 48.36H210.524V31.272H201.116V73Z" fill="url(#paint0_linear)"/>
<circle cx="50" cy="50" r="48" fill="url(#paint1_linear)"/>
<path fill-rule="evenodd" clip-rule="evenodd" d="M6.53809 70.4H28.3999C33.0391 70.4 36.7999 66.6392 36.7999 62C36.7999 57.3608 33.0391 53.6 28.3999 53.6C19.7843 53.6 12.7999 46.6157 12.7999 38C12.7999 29.3844 19.7843 22.4 28.3999 22.4H35.5999C48.192 22.4 58.3999 32.6079 58.3999 45.2V59.6C58.3999 65.5647 63.2352 70.4 69.1999 70.4C75.1646 70.4 79.9999 65.5647 79.9999 59.6V58.4H76.3999C70.4352 58.4 65.5999 53.5647 65.5999 47.6C65.5999 41.6353 70.4352 36.8 76.3999 36.8C82.3646 36.8 87.1999 41.6354 87.1999 47.6V51.2H97.9852C97.9251 53.65 97.6814 56.0544 97.2674 58.4H87.1999V59.6C87.1999 69.5412 79.141 77.6 69.1999 77.6C59.2588 77.6 51.1999 69.5411 51.1999 59.6V45.2C51.1999 36.5844 44.2156 29.6 35.5999 29.6H28.3999C23.7607 29.6 19.9999 33.3608 19.9999 38C19.9999 42.6392 23.7607 46.4 28.3999 46.4C37.0156 46.4 43.9999 53.3844 43.9999 62C43.9999 70.6157 37.0156 77.6 28.3999 77.6H10.7236C9.12989 75.3362 7.72692 72.9284 6.53809 70.4ZM79.9999 47.6V51.2H76.3999C74.4117 51.2 72.7999 49.5882 72.7999 47.6C72.7999 45.6118 74.4117 44 76.3999 44C78.3881 44 79.9999 45.6118 79.9999 47.6Z" fill="white"/>
</g>
<defs>
<linearGradient id="paint0_linear" x1="120" y1="50.5618" x2="379" y2="50.5618" gradientUnits="userSpaceOnUse">
<stop stop-color="#02AEF2"/>
<stop offset="1" stop-color="#5BDBD4"/>
</linearGradient>
<linearGradient id="paint1_linear" x1="50" y1="0.560005" x2="50" y2="100.4" gradientUnits="userSpaceOnUse">
<stop stop-color="#02AEF2"/>
<stop offset="1" stop-color="#5BDBD4"/>
</linearGradient>
<clipPath id="clip0">
<rect width="253" height="100" fill="white"/>
</clipPath>
</defs>
</svg>
