<svg width="379" height="100" viewBox="0 0 379 100" fill="none" xmlns="http://www.w3.org/2000/svg">
<path d="M137.664 73.768C147.648 73.768 153.408 67.752 153.408 60.84C153.408 54.952 150.208 51.56 145.152 49.512L139.776 47.336C136.192 45.864 133.44 44.968 133.44 42.408C133.44 40.04 135.488 38.632 138.752 38.632C142.08 38.632 144.64 39.848 147.392 41.96L152.192 36.008C148.608 32.424 143.552 30.504 138.752 30.504C130.048 30.504 123.904 36.008 123.904 42.92C123.904 49 128 52.584 132.288 54.312L137.728 56.616C141.376 58.152 143.744 58.984 143.744 61.608C143.744 64.104 141.824 65.64 137.92 65.64C134.464 65.64 130.624 63.848 127.616 61.288L122.24 67.752C126.464 71.72 132.224 73.768 137.664 73.768ZM170.134 73.768C173.206 73.768 175.51 73.128 177.174 72.616L175.702 65.768C174.87 66.088 173.718 66.408 172.694 66.408C170.198 66.408 168.598 64.936 168.598 61.352V48.616H176.214V41.256H168.598V32.808H160.79L159.702 41.256L154.838 41.64V48.616H159.19V61.48C159.19 68.84 162.262 73.768 170.134 73.768ZM195.493 73.768C199.269 73.768 203.493 72.424 206.757 70.184L203.621 64.488C201.317 65.896 199.141 66.6 196.773 66.6C192.549 66.6 189.349 64.488 188.517 59.88H207.525C207.717 59.112 207.909 57.384 207.909 55.72C207.909 47.08 203.429 40.488 194.405 40.488C186.789 40.488 179.429 46.824 179.429 57.128C179.429 67.624 186.405 73.768 195.493 73.768ZM188.453 53.672C189.093 49.64 191.653 47.656 194.597 47.656C198.373 47.656 199.909 50.152 199.909 53.672H188.453ZM214.41 73H223.818V54.568C225.482 50.28 228.426 48.744 230.794 48.744C232.138 48.744 233.098 48.936 234.25 49.256L235.786 41.128C234.89 40.744 233.802 40.488 232.01 40.488C228.746 40.488 225.29 42.536 222.986 46.824H222.73L222.09 41.256H214.41V73ZM256.55 73.768C263.398 73.768 269.926 67.496 269.926 56.552C269.926 46.824 265.126 40.488 257.446 40.488C254.502 40.488 251.494 41.832 249.062 44.008L249.318 39.144V28.136H239.91V73H247.27L248.038 69.608H248.294C250.79 72.36 253.734 73.768 256.55 73.768ZM254.374 66.088C252.774 66.088 250.982 65.576 249.318 64.04V51.048C251.11 49.064 252.838 48.168 254.758 48.168C258.534 48.168 260.262 51.048 260.262 56.744C260.262 63.272 257.638 66.088 254.374 66.088ZM285.238 73.768C287.35 73.768 288.95 73.448 289.974 73L288.822 66.024C288.31 66.152 288.054 66.152 287.67 66.152C286.902 66.152 286.006 65.512 286.006 63.528V28.136H276.598V63.144C276.598 69.544 278.774 73.768 285.238 73.768ZM304.446 73.768C308.798 73.768 311.742 71.784 314.43 68.584H314.622L315.326 73H323.006V41.256H313.598V62.248C311.742 64.744 310.334 65.768 307.966 65.768C305.214 65.768 303.998 64.296 303.998 59.752V41.256H294.59V60.968C294.59 68.904 297.534 73.768 304.446 73.768ZM345.493 73.768C349.269 73.768 353.493 72.424 356.757 70.184L353.621 64.488C351.317 65.896 349.141 66.6 346.773 66.6C342.549 66.6 339.349 64.488 338.517 59.88H357.525C357.717 59.112 357.909 57.384 357.909 55.72C357.909 47.08 353.429 40.488 344.405 40.488C336.789 40.488 329.429 46.824 329.429 57.128C329.429 67.624 336.405 73.768 345.493 73.768ZM338.453 53.672C339.093 49.64 341.653 47.656 344.597 47.656C348.373 47.656 349.909 50.152 349.909 53.672H338.453Z" fill="white"/>
<path d="M97.9853 51.2C97.9951 50.8012 98 50.4012 98 50C98 23.4903 76.5097 2 50 2C23.4903 2 2 23.4903 2 50C2 57.2944 3.6271 64.2088 6.53816 70.4H28.4C33.0392 70.4 36.8 66.6392 36.8 62C36.8 57.3608 33.0392 53.6 28.4 53.6C19.7844 53.6 12.8 46.6156 12.8 38C12.8 29.3844 19.7844 22.4 28.4 22.4H35.6C48.1921 22.4 58.4 32.6079 58.4 45.2V59.6C58.4 65.5647 63.2353 70.4 69.2 70.4C75.1647 70.4 80 65.5647 80 59.6V58.4H76.4C70.4353 58.4 65.6 53.5647 65.6 47.6C65.6 41.6353 70.4353 36.8 76.4 36.8C82.3647 36.8 87.2 41.6353 87.2 47.6V51.2H97.9853Z" fill="white"/>
<path d="M97.2675 58.4H87.2V59.6C87.2 69.5411 79.1411 77.6 69.2 77.6C59.2589 77.6 51.2 69.5411 51.2 59.6V45.2C51.2 36.5844 44.2156 29.6 35.6 29.6H28.4C23.7608 29.6 20 33.3608 20 38C20 42.6392 23.7608 46.4 28.4 46.4C37.0156 46.4 44 53.3844 44 62C44 70.6156 37.0157 77.6 28.4 77.6H10.7237C19.4102 89.9386 33.7637 98 50 98C73.6441 98 93.2953 80.9046 97.2675 58.4Z" fill="white"/>
<path d="M80 47.6V51.2H76.4C74.4118 51.2 72.8 49.5882 72.8 47.6C72.8 45.6118 74.4118 44 76.4 44C78.3882 44 80 45.6118 80 47.6Z" fill="white"/>
</svg>
