<svg width="379" height="100" viewBox="0 0 379 100" fill="none" xmlns="http://www.w3.org/2000/svg">
<path d="M137.664 73.768C147.648 73.768 153.408 67.752 153.408 60.84C153.408 54.952 150.208 51.56 145.152 49.512L139.776 47.336C136.192 45.864 133.44 44.968 133.44 42.408C133.44 40.04 135.488 38.632 138.752 38.632C142.08 38.632 144.64 39.848 147.392 41.96L152.192 36.008C148.608 32.424 143.552 30.504 138.752 30.504C130.048 30.504 123.904 36.008 123.904 42.92C123.904 49 128 52.584 132.288 54.312L137.728 56.616C141.376 58.152 143.744 58.984 143.744 61.608C143.744 64.104 141.824 65.64 137.92 65.64C134.464 65.64 130.624 63.848 127.616 61.288L122.24 67.752C126.464 71.72 132.224 73.768 137.664 73.768ZM170.134 73.768C173.206 73.768 175.51 73.128 177.174 72.616L175.702 65.768C174.87 66.088 173.718 66.408 172.694 66.408C170.198 66.408 168.598 64.936 168.598 61.352V48.616H176.214V41.256H168.598V32.808H160.79L159.702 41.256L154.838 41.64V48.616H159.19V61.48C159.19 68.84 162.262 73.768 170.134 73.768ZM195.493 73.768C199.269 73.768 203.493 72.424 206.757 70.184L203.621 64.488C201.317 65.896 199.141 66.6 196.773 66.6C192.549 66.6 189.349 64.488 188.517 59.88H207.525C207.717 59.112 207.909 57.384 207.909 55.72C207.909 47.08 203.429 40.488 194.405 40.488C186.789 40.488 179.429 46.824 179.429 57.128C179.429 67.624 186.405 73.768 195.493 73.768ZM188.453 53.672C189.093 49.64 191.653 47.656 194.597 47.656C198.373 47.656 199.909 50.152 199.909 53.672H188.453ZM214.41 73H223.818V54.568C225.482 50.28 228.426 48.744 230.794 48.744C232.138 48.744 233.098 48.936 234.25 49.256L235.786 41.128C234.89 40.744 233.802 40.488 232.01 40.488C228.746 40.488 225.29 42.536 222.986 46.824H222.73L222.09 41.256H214.41V73Z" fill="#999999"/>
<path d="M256.55 73.768C263.398 73.768 269.926 67.496 269.926 56.552C269.926 46.824 265.126 40.488 257.446 40.488C254.502 40.488 251.494 41.832 249.062 44.008L249.318 39.144V28.136H239.91V73H247.27L248.038 69.608H248.294C250.79 72.36 253.734 73.768 256.55 73.768ZM254.374 66.088C252.774 66.088 250.982 65.576 249.318 64.04V51.048C251.11 49.064 252.838 48.168 254.758 48.168C258.534 48.168 260.262 51.048 260.262 56.744C260.262 63.272 257.638 66.088 254.374 66.088ZM285.238 73.768C287.35 73.768 288.95 73.448 289.974 73L288.822 66.024C288.31 66.152 288.054 66.152 287.67 66.152C286.902 66.152 286.006 65.512 286.006 63.528V28.136H276.598V63.144C276.598 69.544 278.774 73.768 285.238 73.768ZM304.446 73.768C308.798 73.768 311.742 71.784 314.43 68.584H314.622L315.326 73H323.006V41.256H313.598V62.248C311.742 64.744 310.334 65.768 307.966 65.768C305.214 65.768 303.998 64.296 303.998 59.752V41.256H294.59V60.968C294.59 68.904 297.534 73.768 304.446 73.768ZM345.493 73.768C349.269 73.768 353.493 72.424 356.757 70.184L353.621 64.488C351.317 65.896 349.141 66.6 346.773 66.6C342.549 66.6 339.349 64.488 338.517 59.88H357.525C357.717 59.112 357.909 57.384 357.909 55.72C357.909 47.08 353.429 40.488 344.405 40.488C336.789 40.488 329.429 46.824 329.429 57.128C329.429 67.624 336.405 73.768 345.493 73.768ZM338.453 53.672C339.093 49.64 341.653 47.656 344.597 47.656C348.373 47.656 349.909 50.152 349.909 53.672H338.453Z" fill="url(#paint0_linear)"/>
<circle cx="50" cy="50" r="48" fill="url(#paint1_linear)"/>
<path fill-rule="evenodd" clip-rule="evenodd" d="M6.53809 70.4H28.3999C33.0391 70.4 36.7999 66.6392 36.7999 62C36.7999 57.3608 33.0391 53.6 28.3999 53.6C19.7843 53.6 12.7999 46.6157 12.7999 38C12.7999 29.3844 19.7843 22.4 28.3999 22.4H35.5999C48.192 22.4 58.3999 32.6079 58.3999 45.2V59.6C58.3999 65.5647 63.2352 70.4 69.1999 70.4C75.1646 70.4 79.9999 65.5647 79.9999 59.6V58.4H76.3999C70.4352 58.4 65.5999 53.5647 65.5999 47.6C65.5999 41.6353 70.4352 36.8 76.3999 36.8C82.3646 36.8 87.1999 41.6354 87.1999 47.6V51.2H97.9852C97.9251 53.65 97.6814 56.0544 97.2674 58.4H87.1999V59.6C87.1999 69.5412 79.141 77.6 69.1999 77.6C59.2588 77.6 51.1999 69.5411 51.1999 59.6V45.2C51.1999 36.5844 44.2156 29.6 35.5999 29.6H28.3999C23.7607 29.6 19.9999 33.3608 19.9999 38C19.9999 42.6392 23.7607 46.4 28.3999 46.4C37.0156 46.4 43.9999 53.3844 43.9999 62C43.9999 70.6157 37.0156 77.6 28.3999 77.6H10.7236C9.12989 75.3362 7.72692 72.9284 6.53809 70.4ZM79.9999 47.6V51.2H76.3999C74.4117 51.2 72.7999 49.5882 72.7999 47.6C72.7999 45.6118 74.4117 44 76.3999 44C78.3881 44 79.9999 45.6118 79.9999 47.6Z" fill="white"/>
<defs>
<linearGradient id="paint0_linear" x1="120" y1="50.5618" x2="379" y2="50.5618" gradientUnits="userSpaceOnUse">
<stop stop-color="#02AEF2"/>
<stop offset="1" stop-color="#5BDBD4"/>
</linearGradient>
<linearGradient id="paint1_linear" x1="50" y1="0.560005" x2="50" y2="100.4" gradientUnits="userSpaceOnUse">
<stop stop-color="#02AEF2"/>
<stop offset="1" stop-color="#5BDBD4"/>
</linearGradient>
</defs>
</svg>
