<svg width="150" height="150" viewBox="0 0 150 150" fill="none" xmlns="http://www.w3.org/2000/svg">
<path d="M122.985 76.2C122.995 75.8012 123 75.4012 123 75C123 48.4903 101.51 27 75 27C48.4903 27 27 48.4903 27 75C27 82.2944 28.6271 89.2088 31.5382 95.4H53.4C58.0392 95.4 61.8 91.6392 61.8 87C61.8 82.3608 58.0392 78.6 53.4 78.6C44.7844 78.6 37.8 71.6156 37.8 63C37.8 54.3844 44.7844 47.4 53.4 47.4H60.6C73.1921 47.4 83.4 57.6079 83.4 70.2V84.6C83.4 90.5647 88.2353 95.4 94.2 95.4C100.165 95.4 105 90.5647 105 84.6V83.4H101.4C95.4353 83.4 90.6 78.5647 90.6 72.6C90.6 66.6353 95.4353 61.8 101.4 61.8C107.365 61.8 112.2 66.6353 112.2 72.6V76.2H122.985Z" fill="#31C5FF"/>
<path d="M122.267 83.4H112.2V84.6C112.2 94.5411 104.141 102.6 94.2 102.6C84.2589 102.6 76.2 94.5411 76.2 84.6V70.2C76.2 61.5844 69.2156 54.6 60.6 54.6H53.4C48.7608 54.6 45 58.3608 45 63C45 67.6392 48.7608 71.4 53.4 71.4C62.0156 71.4 69 78.3844 69 87C69 95.6156 62.0157 102.6 53.4 102.6H35.7237C44.4102 114.939 58.7637 123 75 123C98.6441 123 118.295 105.905 122.267 83.4Z" fill="#31C5FF"/>
<path d="M105 72.6V76.2H101.4C99.4118 76.2 97.8 74.5882 97.8 72.6C97.8 70.6118 99.4118 69 101.4 69C103.388 69 105 70.6118 105 72.6Z" fill="#31C5FF"/>
<path d="M75.2324 27.299C76.761 27.299 78.5257 27.0556 80.0305 27.3231C82.2478 27.7173 84.4428 28.6011 86.6006 29.2519C87.5441 29.5365 88.5534 29.8535 89.4698 30.2284C89.7728 30.3524 90.0529 30.5255 90.3378 30.6865C90.961 31.0388 91.6261 31.0298 92.3149 31.1446C94.1601 31.4522 95.6806 32.0678 97.3178 32.9167C98.6603 33.6128 99.9441 34.6046 101.218 35.4363C102.164 36.054 103.141 36.6116 104.087 37.2265C104.947 37.7857 105.736 38.461 106.594 39.0168C108.606 40.3187 109.947 42.4234 111.308 44.3392C113.164 46.952 114.688 49.7846 116.612 52.35C117.122 53.0297 117.471 53.7673 117.818 54.538C118.419 55.8743 119.08 57.131 119.741 58.4379C120.206 59.3579 120.684 60.1652 121.019 61.1504C121.364 62.1673 121.453 63.23 121.453 64.2968C121.453 65.6349 121.453 66.9731 121.453 68.3112C121.453 69.6494 121.67 70.9694 121.67 72.3016C121.67 74.3849 121.778 76.4518 121.778 78.5342C121.778 79.7196 121.778 80.9051 121.778 82.0905C121.778 83.0855 121.85 84.1152 121.507 85.0682C121.208 85.8975 120.805 86.8087 120.693 87.6781C120.569 88.6431 120.079 89.5197 119.934 90.4991C119.801 91.3977 119.514 92.2725 119.12 93.091C118.578 94.2158 117.608 95.0909 117.107 96.2495C116.765 97.0397 116.278 97.7 115.865 98.4315C115.306 99.4201 114.876 100.516 114.448 101.566C114.119 102.374 113.55 103.09 113.044 103.79C112.716 104.244 112.193 104.555 111.742 104.875C111.16 105.288 110.672 105.782 110.169 106.286C108.311 108.144 106.831 110.282 104.877 112.036C103.658 113.13 102.528 114.321 101.272 115.375C100.899 115.689 100.511 116.126 100.078 116.352C99.6732 116.563 99.2606 116.657 98.8609 116.918C97.3891 117.881 95.7139 118.524 94.304 119.595C93.1302 120.486 91.8636 120.804 90.4704 121.234C88.6036 121.81 86.6654 122.373 84.72 122.584C83.151 122.755 81.5147 122.823 79.9581 123.055C77.0316 123.49 74.1051 123.645 71.1457 123.645C69.2733 123.645 67.4622 122.903 65.6484 122.512C64.2348 122.207 62.9356 121.726 61.5617 121.307C60.4767 120.975 59.3016 120.631 58.2465 120.216C56.819 119.653 55.3804 119.336 53.8704 119.028C52.8097 118.812 51.7456 118.256 50.7721 117.786C50.2316 117.525 49.6634 117.349 49.1507 117.027C48.4834 116.607 47.9505 116.025 47.2882 115.592C46.1631 114.858 45.3166 113.797 44.3346 112.904C43.2372 111.906 42.1625 110.836 41.2725 109.649C39.8804 107.793 38.3118 106.018 36.7156 104.333C35.8014 103.368 35.177 102.192 34.4372 101.102C33.3836 99.5491 32.2965 98.0668 31.3148 96.4605C30.1085 94.4865 29.061 92.5689 28.53 90.3002C27.9646 87.8841 27.2555 85.49 26.782 83.0549C26.2271 80.2008 26.0828 77.4021 26.0828 74.4956C26.0828 72.7441 25.9377 70.8907 26.2154 69.1551C26.4164 67.8989 26.4723 66.5951 26.7579 65.3577C27.235 63.2901 27.7542 61.1265 28.4939 59.1371C29.1341 57.4151 29.9953 55.8378 30.8507 54.2125C31.4476 53.0784 32.3699 52.1724 33.0207 51.0661C33.7839 49.7685 34.7057 48.7822 35.7874 47.7508C36.7738 46.8103 37.6607 45.8648 38.5119 44.8093C39.3464 43.7745 40.0599 42.7248 41.0073 41.7774C42.3388 40.4459 43.5158 39.0129 45.07 37.9318C46.3501 37.0412 47.3359 35.823 48.7047 35.0626C50.3077 34.172 51.8575 33.1853 53.4665 32.3019C54.8636 31.5349 56.453 31.175 57.8727 30.4454C58.896 29.9196 59.9951 29.5061 60.9951 28.9505C61.2711 28.7972 61.6568 28.7203 61.9716 28.7094C62.4992 28.6912 62.8991 28.3824 63.37 28.1669C67.1595 26.4328 71.5465 26.214 75.6664 26.214C78.5492 26.214 81.4341 26.1953 84.286 26.648C86.1472 26.9434 87.9576 27.7202 89.723 28.3598C90.3883 28.6009 91.1201 28.5338 91.8085 28.7335C93.8359 29.3217 95.7766 30.2067 97.7157 31.0301C98.9872 31.5701 100.425 32.0036 101.622 32.6817C103.004 33.465 104.152 34.4761 105.329 35.5388C106.52 36.6151 107.383 38.0548 108.535 39.1735C109.488 40.0982 110.134 41.2976 110.971 42.3199C113.056 44.8684 115.206 47.2757 116.944 50.0896C118.412 52.4668 119.272 55.0991 120.524 57.5699C120.794 58.1021 121.098 58.6029 121.344 59.1492C121.443 59.3697 121.448 59.5704 121.453 59.8122C121.471 60.818 121.506 61.8228 121.585 62.8261C121.772 65.1938 122.609 67.5593 122.646 69.9267C122.693 72.8666 122.646 75.8108 122.646 78.7512C122.646 80.2938 122.641 81.7856 122.164 83.2719C121.538 85.2208 120.844 87.1338 120.151 89.0585C119.597 90.595 119.105 92.1276 118.366 93.5913C117.794 94.7261 117.023 95.798 116.293 96.8342C115.418 98.0762 114.608 99.3674 113.725 100.601C112.6 102.174 111.253 103.583 110.024 105.074C109.328 105.919 108.804 106.94 108.053 107.732C106.658 109.203 104.707 110.194 103.122 111.439C101.479 112.731 99.8154 113.993 98.1316 115.231C97.3874 115.778 96.5201 116.121 95.7326 116.599C94.5433 117.321 93.3819 118.083 92.2003 118.817C89.8538 120.274 87.4291 121.432 84.7682 122.168C83.921 122.403 83.0809 122.331 82.2065 122.349C80.7925 122.379 79.37 122.532 77.969 122.723C75.5458 123.053 73.107 123.428 70.6574 123.428C68.3702 123.428 66.5604 123.005 64.4067 122.211C61.2298 121.039 57.9926 120.068 54.7866 118.98C53.4372 118.522 51.9925 118.118 50.7119 117.485C48.5189 116.401 46.4657 114.926 44.4793 113.507C42.8052 112.311 41.1029 111.107 39.6451 109.649C38.5034 108.507 37.0156 107.519 36.2575 106.069C35.3857 104.401 34.6162 102.757 33.5692 101.186C32.624 99.7684 32.2219 98.3286 31.6765 96.7498C31.152 95.2314 30.3722 93.8687 29.8742 92.3436C29.2305 90.3722 28.6967 88.2517 28.307 86.2134C27.9154 84.1648 27.9213 82.1047 27.7585 80.0351C27.5909 77.9042 26.8997 75.8371 26.9568 73.6939C26.9848 72.6431 27.3405 71.6875 27.5475 70.6681C27.7744 69.5511 27.9506 68.4176 28.09 67.2865C28.3574 65.1176 28.8761 63.0598 29.5005 60.9695C30.1866 58.6726 30.8332 56.359 31.779 54.1522C32.5314 52.3965 33.5083 50.7676 34.2925 49.0287C35.1718 47.079 36.2144 45.3055 37.7403 43.7907C38.7525 42.7858 39.923 41.9621 40.947 40.9697C41.5947 40.3421 42.1866 39.68 42.8156 39.0409C43.8517 37.9881 45.0449 36.9919 46.3719 36.3284C47.9261 35.5513 49.4446 34.6051 51.0374 33.9173C52.682 33.2072 53.9751 31.8791 55.6606 31.2049C56.7887 30.7537 57.937 30.2412 59.0843 29.8487C61.196 29.1262 63.309 28.7711 65.5038 28.4442C67.5276 28.1428 69.4743 27.6245 71.5435 27.6245" stroke="black" stroke-opacity="0.3" stroke-linecap="round" stroke-linejoin="round"/>
<path d="M61.5973 92.7568C61.5973 90.0942 61.5973 87.4316 61.5973 84.7691C61.5973 82.505 60.7885 80.7629 59.51 78.9927C58.6205 77.7611 57.7367 76.9215 56.379 76.2027C53.9192 74.9005 51.2228 73.9753 48.6703 72.8547C47.5506 72.3632 45.6926 72.2241 44.7126 71.5114C43.8871 70.911 42.4064 70.9618 41.6953 70.2507" stroke="black" stroke-opacity="0.3" stroke-linecap="round" stroke-linejoin="round"/>
<path d="M82.6152 90.3387C82.6152 87.3742 82.5903 84.2982 83.2146 81.4107C83.5009 80.0866 83.7012 78.6296 83.7312 77.2774C83.7624 75.8745 84.6114 74.6142 84.6612 73.2681C84.7082 72.0004 85.4052 70.7448 85.4052 69.4654C85.4052 67.7474 85.6394 66.0319 85.5912 64.2987C85.5558 63.0215 84.4102 61.8742 83.7312 60.9094C82.6297 59.344 80.7582 57.9551 79.0812 57.0447C77.565 56.2216 76.481 54.7381 74.7826 54.1514C73.4537 53.6923 72.0578 53.5768 70.7009 53.2214C69.1374 52.8119 67.5998 52.3738 66.0199 52.0227C62.4299 51.2249 59.2065 49.6047 55.4799 49.6047C53.6253 49.6047 51.9331 49.4128 50.1066 49.088C49.0028 48.8918 47.6495 48.6747 46.5312 48.6747C45.1509 48.6747 43.8 48.4887 42.4392 48.4887C42.073 48.4887 40.4764 48.2611 40.7652 48.1167" stroke="black" stroke-opacity="0.3" stroke-linecap="round" stroke-linejoin="round"/>
<path d="M77.779 89.9668C77.779 88.7236 77.6037 87.3296 77.8203 86.1022C77.9617 85.3009 78.3648 84.586 78.6263 83.8288C79.0914 82.4826 79.1817 81.1576 79.5563 79.8195C80.5631 76.224 80.3245 72.5097 80.848 68.8455C81.0193 67.6468 81.3749 66.0445 81.1063 64.8362C80.8469 63.6685 79.9324 62.2795 79.267 61.2815C78.4337 60.0316 77.1996 59.3689 76.074 58.4088C73.5961 56.2953 71.8642 54.306 68.479 53.8828" stroke="black" stroke-opacity="0.3" stroke-linecap="round" stroke-linejoin="round"/>
<path d="M41.695 70.0649C39.7486 69.3779 38.2961 67.9038 36.673 66.6755C35.4887 65.7793 34.0197 64.7218 33.325 63.3689C32.7313 62.2128 32.1249 61.0606 31.6923 59.8349C31.5541 59.4434 36.608 59.9958 37.2103 60.1965C37.9563 60.4452 38.5924 61.0366 39.2666 61.4159C40.5329 62.1281 42.076 62.5812 43.183 63.5652C43.9012 64.2037 44.7108 64.694 45.4976 65.2185C46.8634 66.129 42.4158 64.0682 40.951 63.3275C37.4672 61.5661 34.0936 59.2958 30.4936 57.7889C29.8932 57.5375 28.5331 56.9098 28.489 56.1149C28.4148 54.7799 29.1617 54.537 30.535 54.4512C33.0655 54.293 34.9686 55.7109 37.2413 56.5799C39.3552 57.3881 41.5213 57.9644 43.5963 58.8635C44.0566 59.063 44.6572 59.5321 45.136 59.6385C45.8847 59.8049 44.8386 59.6525 44.547 59.6489C40.1362 59.5944 36.2149 57.7074 32.4466 55.5775C30.9998 54.7598 27.7656 52.2533 27.7656 50.2662C27.7656 49.6872 31.289 50.6822 31.5476 50.8035C33.6784 51.8028 35.7207 53.0226 37.7786 54.1619C39.7883 55.2743 41.9938 56.5831 44.2576 57.0862C44.9723 57.245 45.6674 57.5796 46.3346 57.8715C46.9244 58.1295 44.7105 57.8218 44.4436 57.7475C42.8433 57.3021 41.3113 56.3247 39.8453 55.5569C38.4567 54.8295 37.0455 54.1388 35.681 53.3662C33.6528 52.2177 32.1082 50.8986 30.535 49.2328C29.9018 48.5625 28.489 47.1348 28.489 46.1638C28.489 44.606 33.7427 45.9084 34.4513 46.1742C36.7293 47.0284 39.0974 47.8872 41.323 48.8608C42.7106 49.468 44.219 49.9899 45.4976 50.8035C46.5743 51.4887 44.1316 50.7143 43.741 50.5348C41.7132 49.6032 39.5523 49.0465 37.696 47.7552C37.323 47.4957 36.7009 47.1596 36.673 46.6288C36.6228 45.6754 38.0109 45.8485 38.657 45.7918C41.424 45.5491 45.3517 46.0075 47.461 48.1168" stroke="black" stroke-opacity="0.3" stroke-linecap="round" stroke-linejoin="round"/>
<path d="M53.0413 71.5528C50.18 71.5528 48.0334 70.5308 45.746 68.9075C45.322 68.6066 42.0018 66.104 43.1316 65.3218C44.8427 64.1372 47.864 64.1128 49.8793 64.1128C51.9488 64.1128 53.7594 65.7911 55.2733 67.0888" stroke="black" stroke-opacity="0.3" stroke-linecap="round" stroke-linejoin="round"/>
<path d="M51.739 64.2988C49.9013 63.2732 47.7979 62.592 46.159 61.2091C45.4735 60.6308 43.957 58.5457 45.1256 57.6441C46.7347 56.4028 49.8377 57.4115 51.2636 58.3365C52.1716 58.9254 53.0475 59.5394 53.9296 60.1655C54.3789 60.4843 54.9771 60.6931 55.273 61.1368" stroke="black" stroke-opacity="0.3" stroke-linecap="round" stroke-linejoin="round"/>
<path d="M48.3913 56.3008C45.6233 56.3008 43.0758 55.9955 40.5793 54.7301C39.9076 54.3897 38.3564 53.3192 38.1716 52.4878C37.9155 51.3354 44.702 51.4648 45.219 51.4648C48.6167 51.4648 52.0254 51.9655 54.9013 53.8828" stroke="black" stroke-opacity="0.3" stroke-linecap="round" stroke-linejoin="round"/>
<path d="M97.4131 78.5C95.5408 77.6292 93.5328 73.8157 93.2276 71.8318C92.9288 69.8895 94.3015 68.8043 95.4079 67.4608C96.9455 65.5937 100.491 65.9728 102.61 65.9728C104.635 65.9728 106.202 66.5864 107.922 67.5538C109.277 68.3164 110.514 69.2966 111.859 70.0648C113.364 70.9249 114.936 71.6503 116.478 72.4725C118.337 73.4642 120.497 73.9657 122.419 74.9008C124.233 75.7832 132.913 77.1328 134.413 78" stroke="black" stroke-opacity="0.3" stroke-linecap="round" stroke-linejoin="round"/>
<path d="M134.881 78.0628C129.504 78.0628 124.15 77.6908 118.792 77.6908C116.511 77.6908 114.148 77.6619 112.003 76.9468" stroke="black" stroke-opacity="0.3" stroke-linecap="round" stroke-linejoin="round"/>
<path d="M134.323 79.5508C132.378 80.2917 130.326 80.9103 128.289 81.3178C125.879 81.7997 123.573 81.7828 121.117 81.7828C117.769 81.7828 114.421 81.7828 111.073 81.7828" stroke="black" stroke-opacity="0.3" stroke-linecap="round" stroke-linejoin="round"/>
<path d="M96.1932 78.0627C98.288 79.289 99.9633 81.0641 101.215 83.1261C101.684 83.8983 102.496 85.2672 102.693 86.1538C102.836 86.7982 102.703 87.6348 102.703 88.2928C102.703 89.3024 101.829 89.9908 101.319 90.7934C100.585 91.9456 99.2389 92.6122 97.9085 92.9014C92.7649 94.0196 87.1881 92.319 82.2432 91.0828" stroke="black" stroke-opacity="0.3" stroke-linecap="round" stroke-linejoin="round"/>
<path d="M109.771 82.3408C110.543 84.3387 111.259 86.0742 111.259 88.1895C111.259 90.4347 110.152 91.4403 109.068 93.2735C107.129 96.556 104.037 100.757 100.016 101.489C99.1468 101.647 98.323 102.037 97.5777 102.512C96.8436 102.979 95.7378 103.05 94.9323 103.359C93.7556 103.81 92.4852 104.006 91.2743 104.382C89.6047 104.9 87.3739 104.909 85.8803 105.86C85.2206 106.279 84.4863 106.138 83.731 106.149C82.0605 106.173 80.5704 106.846 78.9777 107.224C77.2188 107.64 75.1247 107.451 73.315 107.451C71.6713 107.451 70.0472 107.337 68.4376 107.038C66.412 106.661 64.3869 106.57 62.3823 105.963C59.7369 105.161 56.9942 104.137 54.25 103.731C46.8199 102.63 39.5483 101.313 32.0229 101.313" stroke="black" stroke-opacity="0.3" stroke-linecap="round" stroke-linejoin="round"/>
<path d="M61.969 92.0127C61.6131 93.5943 59.6639 94.0744 58.2386 94.4307C55.7939 95.0419 53.3229 95.3607 50.8089 95.3607C49.0709 95.3607 47.8019 95.1678 46.1589 94.8027C44.6724 94.4724 42.9856 93.9269 41.4676 93.8727C40.3227 93.8318 39.2336 93.5007 38.0679 93.5007C38.0555 93.5007 39.8418 94.6051 40.3929 94.8027C41.2847 95.1224 42.0833 95.3531 42.9969 95.588C46.344 96.4487 49.9548 96.688 53.2269 97.7787" stroke="black" stroke-opacity="0.3" stroke-linecap="round" stroke-linejoin="round"/>
<path d="M42.8111 95.7329C40.3142 95.7329 38.0679 94.5191 35.5985 94.4309C34.9357 94.4073 34.2675 94.4309 33.6041 94.4309C32.443 94.4309 34.3597 95.6788 34.6685 95.9189C35.8875 96.8671 37.6358 96.6629 39.0911 96.6629C40.92 96.6629 43.0955 96.3365 44.8571 96.8489C46.1514 97.2254 47.6206 97.7751 48.9491 97.9649C50.0167 98.1174 51.3384 98.4156 52.2971 98.8949" stroke="black" stroke-opacity="0.3" stroke-linecap="round" stroke-linejoin="round"/>
<path d="M45.0513 98.2605C43.1795 98.2337 41.3631 97.6221 39.5599 97.1568C37.9226 96.7342 36.2994 96.414 34.6779 95.9177C33.2391 95.4772 31.769 94.5874 30.2428 94.489C30.1223 94.4812 28.4739 94.458 28.4958 94.5567C28.639 95.2011 30.73 96.0089 31.2788 96.2833C32.2475 96.7677 33.5031 96.935 34.5695 97.0417C35.8477 97.1695 37.0744 97.6061 38.3208 97.8948C39.4778 98.1629 40.7723 98.2561 41.8824 98.6261" stroke="black" stroke-opacity="0.3" stroke-linecap="round" stroke-linejoin="round"/>
<path d="M32.985 101.186C28.9982 101.186 25.0244 100.219 21.1897 99.1679C20.4808 98.9735 19.9651 98.8482 19.3344 98.4772C18.5719 98.0287 17.0564 99.0152 16.1655 99.2627C16.0923 99.283 15.32 99.6298 15.3936 99.696C15.6441 99.9215 17.1357 99.8407 17.4791 99.845C18.878 99.8625 20.2782 99.845 21.6772 99.845C24.079 99.845 26.4486 100.454 28.8411 100.454" stroke="black" stroke-opacity="0.3" stroke-linecap="round" stroke-linejoin="round"/>
<path d="M31.1571 97.4073C28.241 97.4073 25.3248 97.4073 22.4087 97.4073C21.0048 97.4073 16.8297 97.1164 18.1971 97.4344C19.4448 97.7245 20.6769 98.3012 21.9212 98.6532C23.024 98.9651 24.1774 99.2965 25.2526 99.6959C26.2131 100.053 26.9682 100.089 27.9882 100.089" stroke="black" stroke-opacity="0.3" stroke-linecap="round" stroke-linejoin="round"/>
<path d="M23.7223 99.9669C22.0415 99.9669 20.3011 99.833 18.6304 100.035C17.9158 100.121 16.956 100.218 16.2944 100.515C15.5391 100.855 14.921 101.193 14.4052 101.856C14.195 102.126 15.7111 102.245 15.8542 102.256C17.0986 102.348 18.4579 102.372 19.7002 102.256C21.9098 102.049 23.7712 100.568 25.9162 100.211" stroke="black" stroke-opacity="0.3" stroke-linecap="round" stroke-linejoin="round"/>
<path d="M31.6445 98.6264C30.4264 98.6264 29.1688 98.5076 27.9881 98.843C27.1816 99.0721 26.3598 99.2382 25.5505 99.4524C25.0147 99.5943 25.927 99.4261 26.0109 99.4118C26.7302 99.2894 27.4761 99.2421 28.2047 99.2358C29.3034 99.2262 30.3264 99.2647 31.4007 99.4795" stroke="black" stroke-opacity="0.3" stroke-linecap="round" stroke-linejoin="round"/>
<path d="M53.0978 101.92C49.2958 101.92 45.6584 102.013 41.9055 102.627C39.462 103.027 37.0304 103.237 34.5537 103.237C31.9731 103.237 29.3924 103.237 26.8118 103.237C26.064 103.237 25.3162 103.237 24.5685 103.237C22.8532 103.237 25.5004 103.455 25.9827 103.578C27.4339 103.949 28.5356 104.313 30.0549 104.334C31.1978 104.35 32.1277 104.578 33.1273 105.078C34.0435 105.536 35.1996 105.487 36.1996 105.431C37.0536 105.384 38.4634 104.527 39.272 104.212C40.6754 103.666 41.9402 103.456 43.4417 103.456" stroke="black" stroke-opacity="0.3" stroke-linecap="round" stroke-linejoin="round"/>
<path d="M57.4441 75.7656C56.2922 74.6137 54.9031 73.4348 54.1637 71.9561C53.6945 71.0176 53.2445 70.0198 52.5957 69.1856C52.3411 68.8583 51.5404 68.1605 52.3264 68.1467C54.879 68.1019 56.2496 68.9534 58.1367 70.5709" stroke="black" stroke-opacity="0.3" stroke-linecap="round" stroke-linejoin="round"/>
<path d="M62.4656 91.8691C62.9347 91.224 63.5766 90.7519 63.4949 89.9355C63.4017 89.0035 62.5677 88.1331 61.9846 87.444C61.565 86.948 60.9301 86.7894 61.7249 86.3184C62.5523 85.8281 63.469 85.5634 64.3511 85.2025C65.0375 84.9218 65.0083 84.9246 64.3703 84.5965C62.4991 83.6342 64.8445 82.4986 65.8518 82.2108C66.8959 81.9125 64.1309 81.0709 64.0432 80.8736C63.7841 80.2905 66.5826 79.6836 66.4193 78.6226C66.2843 77.745 63.0642 76.7026 63.5334 75.8425C63.9011 75.1685 65.2325 74.7052 65.8902 74.4188C65.9753 74.3817 66.9678 73.879 66.8426 73.8512C65.4493 73.5416 64.1094 72.3794 65.5824 71.1288C66.2192 70.5881 68.0066 70.2309 68.0066 69.1856C68.0066 67.9155 65.5824 67.9306 65.5824 66.6845C65.5824 65.4181 69.8755 65.6285 69.5458 64.1448C69.2541 62.8324 66.7945 62.604 66.7945 61.2397C66.7945 60.3413 67.2961 59.1716 66.6598 58.3826C65.9395 57.4894 64.4783 56.8266 63.4083 56.449C62.7679 56.223 63.1488 56.051 63.5815 55.7756C64.0635 55.4689 62.7689 55.1368 62.5041 54.9868C61.805 54.5907 61.6935 54.506 62.1962 53.9575C62.5823 53.5363 62.2414 53.6016 61.773 53.6016" stroke="black" stroke-opacity="0.3" stroke-linecap="round" stroke-linejoin="round"/>
<path d="M61.0804 55.1599C60.4972 54.7225 56.2109 51.6891 56.8669 51.1388C57.7118 50.4302 59.8097 50.3115 60.9072 50.3115" stroke="black" stroke-opacity="0.3" stroke-linecap="round" stroke-linejoin="round"/>
<path d="M83.764 76.1118C83.7112 79.7028 83.5908 83.2881 83.5908 86.886C83.5908 88.6262 84.1103 90.3376 84.1103 92.0422" stroke="black" stroke-opacity="0.3" stroke-linecap="round" stroke-linejoin="round"/>
<path d="M61.0807 91.1765C60.5735 92.5572 59.4363 93.7011 58.4834 94.8128" stroke="black" stroke-opacity="0.3" stroke-linecap="round" stroke-linejoin="round"/>
<path d="M19.5231 103.644C19.2917 103.764 17.3997 104.814 17.6953 104.894C18.357 105.075 19.1068 105.202 19.7924 105.202C20.5831 105.202 22.6399 104.186 22.6399 103.211C22.6399 102.615 23.5491 102.667 23.8135 102.258C23.9062 102.115 21.1743 102.308 20.562 103.124" stroke="black" stroke-opacity="0.3" stroke-linecap="round" stroke-linejoin="round"/>
<path d="M49.4787 104.688C54.0821 104.688 58.3533 104.744 62.8128 103.811C67.001 102.934 63.3932 103.109 61.1461 103.109C57.1021 103.109 53.1137 102.714 49.084 102.714" stroke="black" stroke-opacity="0.3" stroke-linecap="round" stroke-linejoin="round"/>
<path d="M49.8736 105.083C46.711 105.083 42.6036 105.632 39.6099 104.293C37.6475 103.415 35.679 102.983 33.6885 102.319" stroke="black" stroke-opacity="0.3" stroke-linecap="round" stroke-linejoin="round"/>
<path d="M37.6783 67.3159C37.0972 66.5627 34.7116 64.8111 34.8336 63.7127C34.8951 63.1597 38.1508 64.2334 38.6265 64.4713" stroke="black" stroke-opacity="0.3" stroke-linecap="round" stroke-linejoin="round"/>
<path d="M58.7292 81.5394C56.1967 80.4663 53.7189 79.8102 51.1012 79.074C50.0051 78.7657 48.8335 78.7308 47.7718 78.3154C47.0553 78.035 46.3101 77.6892 45.5488 77.5568C43.8399 77.2596 42.309 76.1052 40.6285 75.6603C38.9336 75.2117 37.3502 74.4652 35.6872 73.9535C34.9901 73.739 34.1734 73.5558 33.6011 73.1107C33.1109 72.7294 33.6627 72.8266 34.0857 72.7208C35.0321 72.4842 36.0079 72.4585 36.962 72.2889C37.8365 72.1334 38.7709 72.2134 39.6592 72.0992C40.9925 71.9278 42.3201 71.5913 43.6628 71.4987C45.6503 71.3616 47.3677 71.5873 49.2469 72.0571" stroke="black" stroke-opacity="0.3" stroke-linecap="round" stroke-linejoin="round"/>
<path d="M55.8843 81.9187C57.9996 82.4224 58.8688 85.8017 59.772 87.6081C60.389 88.842 61.234 90.0422 61.5737 91.401" stroke="black" stroke-opacity="0.3" stroke-linecap="round" stroke-linejoin="round"/>
<path d="M34.644 71.8676C36.8381 69.8615 40.8441 71.3424 43.2729 72.152C44.6697 72.6176 47.5484 73.2204 48.1089 74.9019" stroke="black" stroke-opacity="0.3" stroke-linecap="round" stroke-linejoin="round"/>
<path d="M103.096 71.5571C100.031 72.1201 102.806 75.1905 104.725 73.6205C105.068 73.3403 105.804 72.1668 105.144 71.9129C104.485 71.6596 103.366 71.7572 102.812 72.1263" stroke="black" stroke-opacity="0.3" stroke-linecap="round" stroke-linejoin="round"/>
<path d="M103.523 73.2646C104.317 74.2895 103.64 72.98 103.666 72.98" stroke="black" stroke-opacity="0.3" stroke-linecap="round" stroke-linejoin="round"/>
</svg>
