<svg width="250" height="250" viewBox="0 0 250 250" fill="none" xmlns="http://www.w3.org/2000/svg">
<path fill-rule="evenodd" clip-rule="evenodd" d="M121.206 64.0183C119.661 58.8623 116.031 54.8268 112.264 51.1293C104.93 43.9311 100.986 39.4805 98.3717 28.9509C96.8346 22.7581 95.27 16.1957 90.3944 11.7028C86.8443 8.43101 80.7343 5.68209 75.9867 8.02498C68.6827 12.3845 66.7214 21.3308 67.4579 29.3418C68.3708 39.2708 73.0088 45.393 81.9189 49.0501C86.9393 51.1098 90.2766 53.8275 93.0019 58.5631C95.1818 62.3498 96.4528 67.0916 99.1922 70.5244C103.288 75.656 108.413 77.9372 114.73 77.0848C108.813 66.1982 101.9 55.2095 93.5614 46.0435C92.7809 45.122 88.1772 41.5949 89.1057 40.0244C90.1286 38.2952 94.8547 44.7909 94.8212 44.7516C97.2444 47.5332 99.4867 50.489 101.689 53.4732C101.683 53.4761 101.676 53.4777 101.67 53.4808C103.937 56.5429 106.186 59.6502 108.393 62.7965C109.285 64.1273 110.153 65.4752 110.984 66.8569C112.204 68.8843 114.14 74.6384 116.137 75.8851C116.564 76.1516 116.959 76.3006 117.328 76.3621C118.69 78.5923 120.015 80.8403 121.276 83.115C124.567 89.0557 127.393 95.3284 128.69 102.036C129.068 103.993 128.8 111.316 130.136 112.729C132.58 115.314 131.864 110.336 131.718 108.834C130.504 96.3919 126.038 85.792 119.552 75.3321C121.545 72.7301 121.832 66.1073 121.206 64.0183Z" fill="#F2F2F2"/>
<path fill-rule="evenodd" clip-rule="evenodd" d="M37.5284 70.0299C40.104 66.9951 46.2957 66.4802 50.0825 66.6833C54.7683 66.9347 59.5812 68.0753 64.0392 69.4546C71.3829 71.7264 78.5187 75.8722 84.9863 79.885C85.7657 80.3685 95.3682 86.1432 94.5182 87.1566C93.6762 88.1607 84.2496 81.3012 82.1488 80.1189C77.6657 77.5954 73.5542 74.611 68.6125 72.9445C63.4958 71.2186 58.0845 70.5353 52.7039 70.5824C52.0134 70.5886 49.7609 70.1071 49.7123 71.1287C49.6647 72.1279 53.3917 71.6066 54.049 71.6126C56.7635 71.6375 59.4947 71.893 62.1706 72.3634C67.1843 73.2447 71.8977 75.0201 76.1918 77.7432C74.9937 80.529 72.1214 81.8136 69.1084 81.1164C66.5043 80.5136 63.9657 79.0273 61.4157 78.5975C59.6596 78.3017 57.9011 78.4777 56.1981 78.9725C51.7061 80.278 49.1153 82.9524 44.1764 81.0921C40.3045 79.6337 33.8293 74.3942 37.5284 70.0299Z" fill="#F2F2F2"/>
<path fill-rule="evenodd" clip-rule="evenodd" d="M40.4412 41.3103H41.6597C41.5743 39.7639 41.4631 38.22 41.2018 36.691C40.2223 30.9594 37.1596 22.5413 30.4424 21.611C30.1946 21.5763 29.283 21.5705 28.1788 21.6345C27.6554 21.3452 27.0692 21.1703 26.4516 21.1301C20.7325 20.713 14.3457 25.2774 11.587 30.0273C9.36312 33.8569 9.73777 38.8858 11.1114 42.9545C12.0312 45.6784 14.0387 49.5621 17.3865 49.5999C21.5751 49.6473 21.777 44.5261 21.858 41.5322C21.9657 37.5519 22.4741 34.0846 25.6445 31.3715C26.3834 30.7395 27.191 30.1834 27.9374 29.5601C29.1061 28.5846 30.3976 27.5857 30.5481 25.9718C30.756 23.7452 29.4855 23.3445 27.5457 23.7582C27.215 23.8286 23.8839 25.3073 24.3772 24.1385C24.5277 23.7815 25.0777 23.4985 25.7718 23.2865C27.568 23.0933 29.7101 22.8692 30.3262 23.0031C36.9723 24.4455 39.5599 33.5529 40.2471 39.3392C40.3249 39.9944 40.3871 40.6518 40.4412 41.3103H40.4412Z" fill="#F2F2F2"/>
<path d="M227.985 55.2C227.995 54.8012 228 54.4012 228 54C228 27.4903 206.51 6 180 6C153.49 6 132 27.4903 132 54C132 61.2944 133.627 68.2088 136.538 74.4H158.4C163.039 74.4 166.8 70.6392 166.8 66C166.8 61.3608 163.039 57.6 158.4 57.6C149.784 57.6 142.8 50.6156 142.8 42C142.8 33.3844 149.784 26.4 158.4 26.4H165.6C178.192 26.4 188.4 36.6079 188.4 49.2V63.6C188.4 69.5647 193.235 74.4 199.2 74.4C205.165 74.4 210 69.5647 210 63.6V62.4H206.4C200.435 62.4 195.6 57.5647 195.6 51.6C195.6 45.6353 200.435 40.8 206.4 40.8C212.365 40.8 217.2 45.6353 217.2 51.6V55.2H227.985Z" fill="#31C5FF"/>
<path d="M227.267 62.4H217.2V63.6C217.2 73.5411 209.141 81.6 199.2 81.6C189.259 81.6 181.2 73.5411 181.2 63.6V49.2C181.2 40.5844 174.216 33.6 165.6 33.6H158.4C153.761 33.6 150 37.3608 150 42C150 46.6392 153.761 50.4 158.4 50.4C167.016 50.4 174 57.3844 174 66C174 74.6156 167.016 81.6 158.4 81.6H140.724C149.41 93.9386 163.764 102 180 102C203.644 102 223.295 84.9046 227.267 62.4Z" fill="#31C5FF"/>
<path d="M210 51.6V55.2H206.4C204.412 55.2 202.8 53.5882 202.8 51.6C202.8 49.6118 204.412 48 206.4 48C208.388 48 210 49.6118 210 51.6Z" fill="#31C5FF"/>
<path fill-rule="evenodd" clip-rule="evenodd" d="M94.159 42.2096C97.6642 48.1656 103.974 62.2851 102.214 65.2246L87.2601 69.2315C87.2514 69.2054 87.2428 69.1794 87.2343 69.1534C81.5274 70.0251 75.9576 66.481 74.4286 60.775L71.6054 50.2384C69.9647 44.1155 73.5983 37.822 79.7212 36.1814L80.7525 35.905C86.2441 34.4336 91.873 37.2049 94.159 42.2096Z" fill="#191847"/>
<path fill-rule="evenodd" clip-rule="evenodd" d="M79.7132 57.2676C76.5964 55.14 74.0805 52.1832 73.3321 48.3151C71.1757 37.1702 87.1816 35.4603 91.6489 40.1799C96.1161 44.8995 99.513 58.9973 95.9156 61.0187C94.4809 61.8249 90.9418 61.7401 87.0681 60.64L93.102 74.775L80.7265 78.091L79.7132 57.2676Z" fill="#B28B67"/>
<path fill-rule="evenodd" clip-rule="evenodd" d="M82.5635 54.5235C84.7603 60.4414 86.3895 67.4352 85.1311 69.5361L70.1773 73.543C65.4996 59.4182 75.0406 62.8168 71.4209 49.3078C71.7927 48.6871 72.1381 48.0788 72.4963 47.538L72.3732 47.1452C73.5548 41.1972 76.136 37.6898 80.1168 36.6232C86.088 35.0232 88.7107 37.2721 90.9419 39.1802C90.8354 43.5828 86.3407 45.4357 82.8844 49.0883C82.2914 48.8262 81.6064 48.7574 80.929 48.939C79.3627 49.3587 78.4301 50.9574 78.8461 52.5098C79.2621 54.0623 80.8691 54.9806 82.4354 54.5609C82.4786 54.5493 82.5213 54.5368 82.5635 54.5235Z" fill="#191847"/>
<path fill-rule="evenodd" clip-rule="evenodd" d="M67.2109 173.35C80.0174 176.919 91.0663 178.703 100.358 178.703C109.649 178.703 118.28 175.955 126.249 170.46C113.717 166.798 103.396 164.967 95.2866 164.967C87.1771 164.967 77.8186 167.761 67.2109 173.35Z" fill="#02AEF2"/>
<path fill-rule="evenodd" clip-rule="evenodd" d="M111.444 183.846C111.321 183.661 111.216 183.46 111.134 183.242C109.422 178.732 82.0031 130.084 79.2715 121.19H110.141C112.218 127.952 121.566 170.389 122.881 178.856C127.032 192.212 135.578 235.466 136.669 238.462C137.817 241.615 131.359 244.898 129.638 241.023C126.9 234.857 120.376 217.795 117.471 207.377C114.748 197.61 112.531 188.823 111.444 183.846Z" fill="#997659"/>
<path fill-rule="evenodd" clip-rule="evenodd" d="M86.1885 189.785C73.653 192.941 27.801 198.647 24.6545 199.542C21.4176 200.462 18.5795 193.816 22.5804 192.377C28.9466 190.086 46.4881 184.793 57.1236 182.633C65.6781 180.896 73.4842 179.478 78.725 178.648C78.2811 163.983 76.2515 128.791 77.5817 121.19H104.896C103.62 128.478 92.8364 181.662 90.8321 186.986C90.196 188.886 88.2981 189.726 86.1885 189.785Z" fill="#B28B67"/>
<path fill-rule="evenodd" clip-rule="evenodd" d="M22.8302 190.56C21.1564 190.248 19.9297 190.162 19.1502 190.299C18.2022 190.466 16.8466 190.868 15.0835 191.505C15.2774 192.604 17.0203 202.488 20.312 221.157C22.9952 221.478 24.2921 220.791 24.2025 219.095C24.1129 217.399 24.0531 215.987 24.0231 214.86L27.7371 199.995C27.8085 199.709 27.6346 199.419 27.3485 199.348C27.3437 199.346 27.3387 199.345 27.3338 199.344L25.0287 198.837C24.0406 197.427 23.4618 196.241 23.2924 195.28C23.1548 194.5 23.28 193.366 23.668 191.879L23.668 191.879C23.8169 191.309 23.4751 190.725 22.9045 190.576C22.88 190.57 22.8551 190.564 22.8302 190.56Z" fill="#E4E4E4"/>
<path fill-rule="evenodd" clip-rule="evenodd" d="M127.679 240.574C127.082 242.168 126.783 243.361 126.783 244.152C126.783 245.115 126.944 246.52 127.264 248.367C128.381 248.367 138.418 248.367 157.374 248.367C158.156 245.78 157.704 244.383 156.019 244.177C154.333 243.971 152.933 243.785 151.818 243.618L137.823 237.38C137.554 237.26 137.238 237.381 137.118 237.65C137.116 237.654 137.114 237.659 137.112 237.664L136.212 239.846C134.652 240.574 133.384 240.938 132.408 240.938C131.615 240.938 130.521 240.618 129.124 239.978L129.124 239.978C128.588 239.732 127.954 239.967 127.708 240.503C127.698 240.526 127.688 240.55 127.679 240.574Z" fill="#E4E4E4"/>
<path fill-rule="evenodd" clip-rule="evenodd" d="M77.6699 121.19C89.7062 117.759 101.095 117.759 111.835 121.19C115.572 138.173 124.652 144.914 126.249 170.953C108.099 179.936 85.6774 164.546 66.9931 173.307C61.6547 161.052 69.1285 131.54 77.6699 121.19Z" fill="#5BDBD4"/>
<path fill-rule="evenodd" clip-rule="evenodd" d="M106.146 86.0177L122.641 72.855C125.043 68.7342 127.542 65.4222 130.137 62.919C130.971 62.3864 132.505 61.8826 131.492 64.7416C130.478 67.6005 129.541 70.6528 130.432 71.3214C131.323 71.99 132.996 70.5416 134.125 71.7145C134.878 72.4963 131.93 74.4609 125.283 77.608L114.154 92.0265L106.146 86.0177ZM136.206 89.3693L143.448 83.5743C143.822 79.1175 144.789 76.7379 146.348 76.4354C147.452 75.6671 146.308 81.4171 148.504 80.5488C150.699 79.6805 155.533 74.5857 156.639 75.2522C158.274 76.2382 157.679 80.2561 156.523 82.4064C154.363 86.4254 152.271 88.0383 146.855 90.6224C144.023 91.9736 141.096 94.1971 138.073 97.293L136.206 89.3693Z" fill="#997659"/>
<path fill-rule="evenodd" clip-rule="evenodd" d="M96.8692 85.3693C103.249 84.1751 111.535 81.3289 119.617 73.981L124.586 81.2768C119.405 88.5777 111.482 95.2228 103.732 96.3672C97.6238 97.269 93.2276 90.5013 96.8692 85.3693Z" fill="#2064A2"/>
<path fill-rule="evenodd" clip-rule="evenodd" d="M107.717 96.5618C114.799 97.0493 125.828 93.0571 140.803 84.5853C146.202 92.0425 149.059 97.534 149.372 101.06C136.927 110.598 125.743 115.844 116.105 117.759C117.419 123.418 117.679 128.977 116.208 134.357C113.182 145.419 83.2572 140.945 74.0843 144.482C64.744 126.303 74.8704 116.461 72.7103 104.156C70.3448 90.681 77.5599 68.0257 79.1595 67.7437L93.7467 65.1715C96.3659 75.3192 102.417 85.9449 107.717 96.5618Z" fill="#02AEF2"/>
</svg>
