<svg width="2008" height="400" viewBox="0 0 2008 400" fill="none" xmlns="http://www.w3.org/2000/svg">
<g clip-path="url(#clip0)">
<circle cx="200" cy="200" r="200" fill="url(#paint0_linear)"/>
<path fill-rule="evenodd" clip-rule="evenodd" d="M18.9092 285H110C129.33 285 145 269.33 145 250C145 230.67 129.33 215 110 215C74.1017 215 45.0002 185.899 45.0002 150C45.0002 114.101 74.1017 85 110 85H160C201.422 85 235 118.579 235 160V240C235 264.853 255.147 285 280 285C304.853 285 325 264.853 325 240V235H310C285.147 235 265 214.853 265 190C265 165.147 285.147 145 310 145C334.853 145 355 165.147 355 190V205H399.939C399.688 215.208 398.673 225.226 396.948 235H355V240C355 281.421 321.422 315 280 315C238.579 315 205 281.421 205 240V160C205 135.147 184.853 115 160 115H110C90.6702 115 75.0002 130.67 75.0002 150C75.0002 169.33 90.6702 185 110 185C145.899 185 175 214.102 175 250C175 285.899 145.899 315 110 315H36.349C29.7084 305.567 23.8627 295.535 18.9092 285ZM325 190V205H310C301.716 205 295 198.284 295 190C295 181.716 301.716 175 310 175C318.284 175 325 181.716 325 190Z" fill="white"/>
<path d="M500 259.2C515.6 277.2 536 286.8 560 286.8C590 286.8 614 268.56 614 240C614 211.2 591.2 201.36 570.8 192C554.72 184.56 531.2 176.88 531.2 158.4C531.2 144 544.4 136.8 559.52 136.8C570.32 136.8 580.4 140.4 590 148.8L605.6 133.2C596 124.8 581.6 114 560 114C530 114 507.2 132 507.2 159.6C507.2 186 528.32 198.24 550.4 208.08C566.48 215.28 590 220.8 590 240C590 255.6 574.4 264 558.8 264C540.8 264 527.6 255.6 516.56 243.12L500 259.2Z" fill="#999999"/>
<path d="M619.916 169.2V190.8H646.316V236.64C646.316 275.76 665.996 286.8 690.716 286.8C693.596 286.8 699.116 286.08 701.516 285.36L699.356 264.48C697.436 264.96 694.796 265.44 692.396 265.44C680.876 265.44 669.116 261.6 669.116 236.64V190.8H701.516V169.2H669.116V135.6H646.316V169.2H619.916Z" fill="#999999"/>
<path d="M748.132 255.12C742.372 249.36 738.772 240.48 737.812 231.6H831.172C831.412 229.92 831.652 228.48 831.652 226.8C831.652 194.88 806.932 166.8 773.812 166.8C740.932 166.8 714.772 193.68 714.772 226.8C714.772 259.92 740.932 286.8 773.812 286.8C797.092 286.8 814.372 277.68 823.492 264.96L808.372 250.8C802.612 257.76 792.532 266.4 773.812 266.4C763.732 266.4 754.372 262.32 748.132 255.12ZM773.812 188.4C788.692 188.4 799.972 198.72 805.492 211.2H740.452C746.452 197.76 758.452 188.4 773.812 188.4Z" fill="#999999"/>
<path d="M916.944 166.8C902.784 166.8 890.064 171.36 882.144 180.48V169.2H859.344V284.4H882.144V231.36C882.144 200.16 900.144 188.4 916.944 188.4V166.8Z" fill="#999999"/>
<path d="M1058.05 226.8C1058.05 193.68 1031.89 166.8 999.014 166.8C985.094 166.8 972.374 171.6 962.534 179.52V116.4H939.734V284.4H962.534V274.32C972.374 282.24 985.094 286.8 999.014 286.8C1031.89 286.8 1058.05 259.92 1058.05 226.8ZM962.774 226.8C962.774 205.92 978.374 188.4 999.014 188.4C1019.41 188.4 1035.49 205.44 1035.49 226.8C1035.49 247.68 1019.65 265.2 999.014 265.2C977.894 265.2 962.774 247.2 962.774 226.8Z" fill="url(#paint1_linear)"/>
<path d="M1085.75 284.4H1108.55V116.4H1085.75V284.4Z" fill="url(#paint2_linear)"/>
<path d="M1164.98 169.2H1142.18V222C1142.18 261.36 1168.1 284.4 1200.5 284.4C1214.18 284.4 1226.9 280.08 1236.98 272.16V282H1259.78V169.2H1236.98V223.92C1236.98 248.64 1219.46 262.8 1200.5 262.8C1176.02 262.8 1164.98 241.68 1164.98 222V169.2Z" fill="url(#paint3_linear)"/>
<path d="M1320.71 255.12C1314.95 249.36 1311.35 240.48 1310.39 231.6H1403.75C1403.99 229.92 1404.23 228.48 1404.23 226.8C1404.23 194.88 1379.51 166.8 1346.39 166.8C1313.51 166.8 1287.35 193.68 1287.35 226.8C1287.35 259.92 1313.51 286.8 1346.39 286.8C1369.67 286.8 1386.95 277.68 1396.07 264.96L1380.95 250.8C1375.19 257.76 1365.11 266.4 1346.39 266.4C1336.31 266.4 1326.95 262.32 1320.71 255.12ZM1346.39 188.4C1361.27 188.4 1372.55 198.72 1378.07 211.2H1313.03C1319.03 197.76 1331.03 188.4 1346.39 188.4Z" fill="url(#paint4_linear)"/>
<path d="M1478.51 285H1569.69V261.97H1505.77V131.31H1478.51V285ZM1622.08 287.82C1635.71 287.82 1647.46 281.005 1657.8 272.31H1658.74L1660.62 285H1682.94V216.615C1682.94 184.42 1668.61 166.795 1639.94 166.795C1621.61 166.795 1605.16 173.845 1592.47 181.835L1602.34 199.93C1612.68 193.82 1623.49 188.65 1634.77 188.65C1650.51 188.65 1655.45 198.99 1655.92 211.21C1608.45 216.38 1588 229.305 1588 253.98C1588 274.19 1601.87 287.82 1622.08 287.82ZM1630.77 266.67C1621.14 266.67 1614.09 262.205 1614.09 251.865C1614.09 240.35 1624.43 232.125 1655.92 228.13V253.98C1647.22 261.97 1640.17 266.67 1630.77 266.67ZM1771.22 287.82C1796.83 287.82 1820.57 265.025 1820.57 225.31C1820.57 189.825 1803.88 166.795 1774.98 166.795C1763.23 166.795 1751.24 172.67 1741.61 181.13L1742.31 161.86V119.09H1715.29V285H1736.67L1739.02 272.78H1739.73C1749.36 282.415 1760.64 287.82 1771.22 287.82ZM1765.58 265.495C1758.76 265.495 1750.54 262.91 1742.31 255.86V202.045C1751.24 193.35 1759.23 189.12 1767.69 189.12C1785.08 189.12 1792.6 202.75 1792.6 225.78C1792.6 251.865 1780.85 265.495 1765.58 265.495ZM1878.98 287.82C1908.12 287.82 1923.86 271.84 1923.86 252.1C1923.86 230.48 1906.47 222.96 1890.73 217.085C1878.27 212.62 1866.76 209.095 1866.76 199.93C1866.76 192.645 1872.16 187.24 1883.68 187.24C1892.84 187.24 1901.07 191.235 1909.06 197.11L1921.51 180.66C1912.11 173.375 1899.19 166.795 1883.21 166.795C1857.36 166.795 1841.14 181.13 1841.14 201.34C1841.14 220.61 1858.3 229.305 1873.57 234.945C1885.79 239.645 1898.25 243.875 1898.25 253.51C1898.25 261.5 1892.37 267.375 1879.92 267.375C1868.17 267.375 1858.3 262.44 1847.96 254.45L1835.27 271.84C1846.55 281.005 1863.23 287.82 1878.98 287.82Z" fill="#999999"/>
</g>
<defs>
<linearGradient id="paint0_linear" x1="200" y1="-5.99998" x2="200" y2="410" gradientUnits="userSpaceOnUse">
<stop stop-color="#02AEF2"/>
<stop offset="1" stop-color="#5BDBD4"/>
</linearGradient>
<linearGradient id="paint1_linear" x1="940" y1="116" x2="940" y2="287" gradientUnits="userSpaceOnUse">
<stop stop-color="#02AEF2"/>
<stop offset="1" stop-color="#5BDBD4"/>
</linearGradient>
<linearGradient id="paint2_linear" x1="940" y1="116" x2="940" y2="287" gradientUnits="userSpaceOnUse">
<stop stop-color="#02AEF2"/>
<stop offset="1" stop-color="#5BDBD4"/>
</linearGradient>
<linearGradient id="paint3_linear" x1="940" y1="116" x2="940" y2="287" gradientUnits="userSpaceOnUse">
<stop stop-color="#02AEF2"/>
<stop offset="1" stop-color="#5BDBD4"/>
</linearGradient>
<linearGradient id="paint4_linear" x1="940" y1="116" x2="940" y2="287" gradientUnits="userSpaceOnUse">
<stop stop-color="#02AEF2"/>
<stop offset="1" stop-color="#5BDBD4"/>
</linearGradient>
<clipPath id="clip0">
<rect width="2008" height="400" fill="white"/>
</clipPath>
</defs>
</svg>
