<svg width="320" height="160" viewBox="0 0 320 160" fill="none" xmlns="http://www.w3.org/2000/svg">
<rect width="320" height="160" fill="#02AEF2"/>
<path d="M42.58 90H43.972V83.328H46.24V82.152H40.312V83.328H42.58V90ZM47.4268 90H48.8068V85.884C49.2988 85.404 49.6348 85.152 50.1508 85.152C50.7988 85.152 51.0748 85.512 51.0748 86.484V90H52.4548V86.304C52.4548 84.816 51.9028 83.964 50.6428 83.964C49.8388 83.964 49.2508 84.384 48.7588 84.852L48.8068 83.712V81.528H47.4268V90ZM56.6382 90.144C57.3822 90.144 58.0902 89.88 58.6542 89.508L58.1862 88.644C57.7542 88.92 57.3222 89.076 56.8182 89.076C55.8702 89.076 55.1982 88.476 55.0782 87.432H58.8222C58.8582 87.288 58.8822 87.024 58.8822 86.76C58.8822 85.116 58.0422 83.964 56.4462 83.964C55.0662 83.964 53.7342 85.14 53.7342 87.06C53.7342 89.004 55.0062 90.144 56.6382 90.144ZM55.0662 86.496C55.1862 85.548 55.7862 85.032 56.4822 85.032C57.2862 85.032 57.6822 85.584 57.6822 86.496H55.0662ZM66.4078 92.328H67.7878V90.48L67.7518 89.496C68.2318 89.904 68.7478 90.144 69.2638 90.144C70.5718 90.144 71.7838 88.98 71.7838 86.964C71.7838 85.14 70.9318 83.964 69.4678 83.964C68.8198 83.964 68.1838 84.312 67.6918 84.732H67.6438L67.5478 84.108H66.4078V92.328ZM68.9758 89.004C68.6278 89.004 68.2198 88.872 67.7878 88.512V85.764C68.2438 85.32 68.6518 85.104 69.0838 85.104C69.9718 85.104 70.3558 85.8 70.3558 86.976C70.3558 88.308 69.7558 89.004 68.9758 89.004ZM73.1812 90H74.5612V86.4C74.9212 85.512 75.4852 85.188 75.9532 85.188C76.2052 85.188 76.3612 85.224 76.5652 85.284L76.8052 84.084C76.6252 84 76.4332 83.964 76.1332 83.964C75.5092 83.964 74.8852 84.384 74.4652 85.152H74.4172L74.3212 84.108H73.1812V90ZM79.9526 90.144C81.4286 90.144 82.7606 89.016 82.7606 87.06C82.7606 85.092 81.4286 83.964 79.9526 83.964C78.4886 83.964 77.1566 85.092 77.1566 87.06C77.1566 89.016 78.4886 90.144 79.9526 90.144ZM79.9526 89.016C79.0886 89.016 78.5726 88.236 78.5726 87.06C78.5726 85.872 79.0886 85.092 79.9526 85.092C80.8166 85.092 81.3446 85.872 81.3446 87.06C81.3446 88.236 80.8166 89.016 79.9526 89.016ZM86.1906 90.144C86.8266 90.144 87.4266 89.796 87.8586 89.364H87.9066L88.0026 90H89.1426V81.528H87.7626V83.664L87.8106 84.612C87.3546 84.216 86.9346 83.964 86.2626 83.964C84.9786 83.964 83.7666 85.14 83.7666 87.06C83.7666 89.004 84.7146 90.144 86.1906 90.144ZM86.5266 89.004C85.6746 89.004 85.1946 88.32 85.1946 87.048C85.1946 85.812 85.8066 85.104 86.5626 85.104C86.9586 85.104 87.3546 85.236 87.7626 85.596V88.344C87.3666 88.8 86.9826 89.004 86.5266 89.004ZM92.652 90.144C93.456 90.144 94.032 89.748 94.548 89.136H94.584L94.692 90H95.82V84.108H94.44V88.14C93.996 88.716 93.648 88.956 93.132 88.956C92.496 88.956 92.22 88.596 92.22 87.624V84.108H90.84V87.804C90.84 89.292 91.392 90.144 92.652 90.144ZM100.028 90.144C100.7 90.144 101.396 89.904 101.948 89.424L101.384 88.512C101.048 88.788 100.628 89.016 100.172 89.016C99.248 89.016 98.6 88.236 98.6 87.06C98.6 85.872 99.26 85.092 100.208 85.092C100.58 85.092 100.88 85.248 101.192 85.524L101.864 84.624C101.432 84.252 100.892 83.964 100.136 83.964C98.564 83.964 97.184 85.092 97.184 87.06C97.184 89.016 98.42 90.144 100.028 90.144ZM105.07 90.144C105.538 90.144 105.946 90.036 106.27 89.928L106.03 88.908C105.862 88.98 105.622 89.04 105.418 89.04C104.854 89.04 104.59 88.704 104.59 88.008V85.2H106.09V84.108H104.59V82.5H103.438L103.27 84.108L102.358 84.168V85.2H103.198V88.008C103.198 89.28 103.702 90.144 105.07 90.144ZM115.949 90.144C117.425 90.144 118.757 89.016 118.757 87.06C118.757 85.092 117.425 83.964 115.949 83.964C114.485 83.964 113.153 85.092 113.153 87.06C113.153 89.016 114.485 90.144 115.949 90.144ZM115.949 89.016C115.085 89.016 114.569 88.236 114.569 87.06C114.569 85.872 115.085 85.092 115.949 85.092C116.813 85.092 117.341 85.872 117.341 87.06C117.341 88.236 116.813 89.016 115.949 89.016ZM123.928 90H125.308V85.2H126.46V84.108H125.308V83.472C125.308 82.788 125.56 82.476 126.052 82.476C126.256 82.476 126.484 82.524 126.688 82.62L126.952 81.588C126.688 81.48 126.304 81.384 125.872 81.384C124.48 81.384 123.928 82.272 123.928 83.496V84.108H121.696V83.592C121.696 82.932 122.008 82.596 122.5 82.596C122.812 82.596 123.016 82.644 123.244 82.752L123.508 81.72C123.22 81.588 122.8 81.504 122.356 81.504C120.928 81.504 120.316 82.38 120.316 83.592V84.108L119.524 84.168V85.2H120.316V90H121.696V85.2H123.928V90ZM129.897 90.144C130.641 90.144 131.349 89.88 131.913 89.508L131.445 88.644C131.013 88.92 130.581 89.076 130.077 89.076C129.129 89.076 128.457 88.476 128.337 87.432H132.081C132.117 87.288 132.141 87.024 132.141 86.76C132.141 85.116 131.301 83.964 129.705 83.964C128.325 83.964 126.993 85.14 126.993 87.06C126.993 89.004 128.265 90.144 129.897 90.144ZM128.325 86.496C128.445 85.548 129.045 85.032 129.741 85.032C130.545 85.032 130.941 85.584 130.941 86.496H128.325ZM133.459 90H134.839V86.4C135.199 85.512 135.763 85.188 136.231 85.188C136.483 85.188 136.639 85.224 136.843 85.284L137.083 84.084C136.903 84 136.711 83.964 136.411 83.964C135.787 83.964 135.163 84.384 134.743 85.152H134.695L134.599 84.108H133.459V90ZM140.339 90.144C141.083 90.144 141.791 89.88 142.355 89.508L141.887 88.644C141.455 88.92 141.023 89.076 140.519 89.076C139.571 89.076 138.899 88.476 138.779 87.432H142.523C142.559 87.288 142.583 87.024 142.583 86.76C142.583 85.116 141.743 83.964 140.147 83.964C138.767 83.964 137.435 85.14 137.435 87.06C137.435 89.004 138.707 90.144 140.339 90.144ZM138.767 86.496C138.887 85.548 139.487 85.032 140.183 85.032C140.987 85.032 141.383 85.584 141.383 86.496H138.767ZM145.965 90.144C146.601 90.144 147.201 89.796 147.633 89.364H147.681L147.777 90H148.917V81.528H147.537V83.664L147.585 84.612C147.129 84.216 146.709 83.964 146.037 83.964C144.753 83.964 143.541 85.14 143.541 87.06C143.541 89.004 144.489 90.144 145.965 90.144ZM146.301 89.004C145.449 89.004 144.969 88.32 144.969 87.048C144.969 85.812 145.581 85.104 146.337 85.104C146.733 85.104 147.129 85.236 147.537 85.596V88.344C147.141 88.8 146.757 89.004 146.301 89.004ZM159.738 90.144C161.046 90.144 162.258 88.98 162.258 86.952C162.258 85.14 161.406 83.964 159.93 83.964C159.33 83.964 158.718 84.264 158.226 84.696L158.262 83.712V81.528H156.882V90H157.974L158.094 89.376H158.13C158.622 89.868 159.198 90.144 159.738 90.144ZM159.45 89.004C159.102 89.004 158.682 88.872 158.262 88.512V85.764C158.718 85.32 159.126 85.104 159.558 85.104C160.446 85.104 160.83 85.8 160.83 86.976C160.83 88.308 160.23 89.004 159.45 89.004ZM163.969 92.424C165.253 92.424 165.865 91.596 166.357 90.264L168.493 84.108H167.161L166.273 87C166.129 87.528 165.973 88.116 165.829 88.656H165.781C165.601 88.104 165.433 87.516 165.265 87L164.245 84.108H162.841L165.157 89.928L165.049 90.3C164.857 90.888 164.497 91.308 163.873 91.308C163.729 91.308 163.561 91.26 163.453 91.224L163.201 92.304C163.417 92.376 163.645 92.424 163.969 92.424ZM178.134 90.144C179.898 90.144 180.954 89.088 180.954 87.816C180.954 86.676 180.294 86.088 179.37 85.692L178.302 85.248C177.654 84.984 177.054 84.756 177.054 84.144C177.054 83.568 177.546 83.22 178.29 83.22C178.962 83.22 179.49 83.472 179.994 83.892L180.702 83.004C180.09 82.392 179.202 82.008 178.29 82.008C176.754 82.008 175.65 82.968 175.65 84.216C175.65 85.368 176.466 85.98 177.234 86.304L178.314 86.772C179.022 87.072 179.526 87.276 179.526 87.924C179.526 88.536 179.046 88.932 178.158 88.932C177.438 88.932 176.682 88.572 176.118 88.044L175.302 88.992C176.046 89.724 177.078 90.144 178.134 90.144ZM184.021 90.144C184.489 90.144 184.897 90.036 185.221 89.928L184.981 88.908C184.813 88.98 184.573 89.04 184.369 89.04C183.805 89.04 183.541 88.704 183.541 88.008V85.2H185.041V84.108H183.541V82.5H182.389L182.221 84.108L181.309 84.168V85.2H182.149V88.008C182.149 89.28 182.653 90.144 184.021 90.144ZM188.613 90.144C189.357 90.144 190.065 89.88 190.629 89.508L190.161 88.644C189.729 88.92 189.297 89.076 188.793 89.076C187.845 89.076 187.173 88.476 187.053 87.432H190.797C190.833 87.288 190.857 87.024 190.857 86.76C190.857 85.116 190.017 83.964 188.421 83.964C187.041 83.964 185.709 85.14 185.709 87.06C185.709 89.004 186.981 90.144 188.613 90.144ZM187.041 86.496C187.161 85.548 187.761 85.032 188.457 85.032C189.261 85.032 189.657 85.584 189.657 86.496H187.041ZM192.175 90H193.555V86.4C193.915 85.512 194.479 85.188 194.947 85.188C195.199 85.188 195.355 85.224 195.559 85.284L195.799 84.084C195.619 84 195.427 83.964 195.127 83.964C194.503 83.964 193.879 84.384 193.459 85.152H193.411L193.315 84.108H192.175V90ZM199.508 90.144C200.816 90.144 202.028 88.98 202.028 86.952C202.028 85.14 201.176 83.964 199.7 83.964C199.1 83.964 198.488 84.264 197.996 84.696L198.032 83.712V81.528H196.652V90H197.744L197.864 89.376H197.9C198.392 89.868 198.968 90.144 199.508 90.144ZM199.22 89.004C198.872 89.004 198.452 88.872 198.032 88.512V85.764C198.488 85.32 198.896 85.104 199.328 85.104C200.216 85.104 200.6 85.8 200.6 86.976C200.6 88.308 200 89.004 199.22 89.004ZM204.757 90.144C205.081 90.144 205.321 90.096 205.489 90.024L205.309 88.992C205.201 89.016 205.153 89.016 205.093 89.016C204.949 89.016 204.793 88.896 204.793 88.56V81.528H203.413V88.488C203.413 89.508 203.773 90.144 204.757 90.144ZM208.423 90.144C209.227 90.144 209.803 89.748 210.319 89.136H210.355L210.463 90H211.591V84.108H210.211V88.14C209.767 88.716 209.419 88.956 208.903 88.956C208.267 88.956 207.991 88.596 207.991 87.624V84.108H206.611V87.804C206.611 89.292 207.163 90.144 208.423 90.144ZM215.859 90.144C216.603 90.144 217.311 89.88 217.875 89.508L217.407 88.644C216.975 88.92 216.543 89.076 216.039 89.076C215.091 89.076 214.419 88.476 214.299 87.432H218.043C218.079 87.288 218.103 87.024 218.103 86.76C218.103 85.116 217.263 83.964 215.667 83.964C214.287 83.964 212.955 85.14 212.955 87.06C212.955 89.004 214.227 90.144 215.859 90.144ZM214.287 86.496C214.407 85.548 215.007 85.032 215.703 85.032C216.507 85.032 216.903 85.584 216.903 86.496H214.287ZM227.705 90.144C228.173 90.144 228.581 90.036 228.905 89.928L228.665 88.908C228.497 88.98 228.257 89.04 228.053 89.04C227.489 89.04 227.225 88.704 227.225 88.008V85.2H228.725V84.108H227.225V82.5H226.073L225.905 84.108L224.993 84.168V85.2H225.833V88.008C225.833 89.28 226.337 90.144 227.705 90.144ZM232.189 90.144C233.665 90.144 234.997 89.016 234.997 87.06C234.997 85.092 233.665 83.964 232.189 83.964C230.725 83.964 229.393 85.092 229.393 87.06C229.393 89.016 230.725 90.144 232.189 90.144ZM232.189 89.016C231.325 89.016 230.809 88.236 230.809 87.06C230.809 85.872 231.325 85.092 232.189 85.092C233.053 85.092 233.581 85.872 233.581 87.06C233.581 88.236 233.053 89.016 232.189 89.016ZM242.571 90H243.951V84.108H242.571V90ZM243.267 83.076C243.759 83.076 244.119 82.752 244.119 82.296C244.119 81.828 243.759 81.504 243.267 81.504C242.775 81.504 242.415 81.828 242.415 82.296C242.415 82.752 242.775 83.076 243.267 83.076ZM247.787 90.144C248.255 90.144 248.663 90.036 248.987 89.928L248.747 88.908C248.579 88.98 248.339 89.04 248.135 89.04C247.571 89.04 247.307 88.704 247.307 88.008V85.2H248.807V84.108H247.307V82.5H246.155L245.987 84.108L245.075 84.168V85.2H245.915V88.008C245.915 89.28 246.419 90.144 247.787 90.144ZM251.574 90.144C253.062 90.144 253.866 89.328 253.866 88.32C253.866 87.216 252.978 86.832 252.174 86.532C251.538 86.304 250.95 86.124 250.95 85.656C250.95 85.284 251.226 85.008 251.814 85.008C252.282 85.008 252.702 85.212 253.11 85.512L253.746 84.672C253.266 84.3 252.606 83.964 251.79 83.964C250.47 83.964 249.642 84.696 249.642 85.728C249.642 86.712 250.518 87.156 251.298 87.444C251.922 87.684 252.558 87.9 252.558 88.392C252.558 88.8 252.258 89.1 251.622 89.1C251.022 89.1 250.518 88.848 249.99 88.44L249.342 89.328C249.918 89.796 250.77 90.144 251.574 90.144ZM263.826 90.144C264.57 90.144 265.278 89.88 265.842 89.508L265.374 88.644C264.942 88.92 264.51 89.076 264.006 89.076C263.058 89.076 262.386 88.476 262.266 87.432H266.01C266.046 87.288 266.07 87.024 266.07 86.76C266.07 85.116 265.23 83.964 263.634 83.964C262.254 83.964 260.922 85.14 260.922 87.06C260.922 89.004 262.194 90.144 263.826 90.144ZM262.254 86.496C262.374 85.548 262.974 85.032 263.67 85.032C264.474 85.032 264.87 85.584 264.87 86.496H262.254ZM267.388 90H268.768V85.884C269.26 85.404 269.596 85.152 270.112 85.152C270.76 85.152 271.036 85.512 271.036 86.484V90H272.416V86.304C272.416 84.816 271.864 83.964 270.604 83.964C269.8 83.964 269.2 84.384 268.672 84.9H268.624L268.528 84.108H267.388V90ZM276.167 90.144C276.803 90.144 277.403 89.796 277.835 89.364H277.883L277.979 90H279.119V81.528H277.739V83.664L277.787 84.612C277.331 84.216 276.911 83.964 276.239 83.964C274.955 83.964 273.743 85.14 273.743 87.06C273.743 89.004 274.691 90.144 276.167 90.144ZM276.503 89.004C275.651 89.004 275.171 88.32 275.171 87.048C275.171 85.812 275.783 85.104 276.539 85.104C276.935 85.104 277.331 85.236 277.739 85.596V88.344C277.343 88.8 276.959 89.004 276.503 89.004ZM42.628 105.144C43.432 105.144 44.008 104.748 44.524 104.136H44.56L44.668 105H45.796V99.108H44.416V103.14C43.972 103.716 43.624 103.956 43.108 103.956C42.472 103.956 42.196 103.596 42.196 102.624V99.108H40.816V102.804C40.816 104.292 41.368 105.144 42.628 105.144ZM49.188 105.144C50.676 105.144 51.48 104.328 51.48 103.32C51.48 102.216 50.592 101.832 49.788 101.532C49.152 101.304 48.564 101.124 48.564 100.656C48.564 100.284 48.84 100.008 49.428 100.008C49.896 100.008 50.316 100.212 50.724 100.512L51.36 99.672C50.88 99.3 50.22 98.964 49.404 98.964C48.084 98.964 47.256 99.696 47.256 100.728C47.256 101.712 48.132 102.156 48.912 102.444C49.536 102.684 50.172 102.9 50.172 103.392C50.172 103.8 49.872 104.1 49.236 104.1C48.636 104.1 48.132 103.848 47.604 103.44L46.956 104.328C47.532 104.796 48.384 105.144 49.188 105.144ZM55.2319 105.144C55.9759 105.144 56.6839 104.88 57.2479 104.508L56.7799 103.644C56.3479 103.92 55.9159 104.076 55.4119 104.076C54.4639 104.076 53.7919 103.476 53.6719 102.432H57.4159C57.4519 102.288 57.4759 102.024 57.4759 101.76C57.4759 100.116 56.6359 98.964 55.0399 98.964C53.6599 98.964 52.3279 100.14 52.3279 102.06C52.3279 104.004 53.5999 105.144 55.2319 105.144ZM53.6599 101.496C53.7799 100.548 54.3799 100.032 55.0759 100.032C55.8799 100.032 56.2759 100.584 56.2759 101.496H53.6599ZM58.794 105H60.174V101.4C60.534 100.512 61.098 100.188 61.566 100.188C61.818 100.188 61.974 100.224 62.178 100.284L62.418 99.084C62.238 99 62.046 98.964 61.746 98.964C61.122 98.964 60.498 99.384 60.078 100.152H60.03L59.934 99.108H58.794V105ZM64.8442 105.144C66.3322 105.144 67.1362 104.328 67.1362 103.32C67.1362 102.216 66.2482 101.832 65.4442 101.532C64.8082 101.304 64.2202 101.124 64.2202 100.656C64.2202 100.284 64.4962 100.008 65.0842 100.008C65.5522 100.008 65.9722 100.212 66.3802 100.512L67.0162 99.672C66.5362 99.3 65.8762 98.964 65.0602 98.964C63.7402 98.964 62.9122 99.696 62.9122 100.728C62.9122 101.712 63.7882 102.156 64.5682 102.444C65.1922 102.684 65.8282 102.9 65.8282 103.392C65.8282 103.8 65.5282 104.1 64.8922 104.1C64.2922 104.1 63.7882 103.848 63.2602 103.44L62.6122 104.328C63.1882 104.796 64.0402 105.144 64.8442 105.144Z" fill="white"/>
<path d="M105.832 57.384C110.824 57.384 113.704 54.376 113.704 50.92C113.704 47.976 112.104 46.28 109.576 45.256L106.888 44.168C105.096 43.432 103.72 42.984 103.72 41.704C103.72 40.52 104.744 39.816 106.376 39.816C108.04 39.816 109.32 40.424 110.696 41.48L113.096 38.504C111.304 36.712 108.776 35.752 106.376 35.752C102.024 35.752 98.952 38.504 98.952 41.96C98.952 45 101 46.792 103.144 47.656L105.864 48.808C107.688 49.576 108.872 49.992 108.872 51.304C108.872 52.552 107.912 53.32 105.96 53.32C104.232 53.32 102.312 52.424 100.808 51.144L98.12 54.376C100.232 56.36 103.112 57.384 105.832 57.384ZM122.067 57.384C123.603 57.384 124.755 57.064 125.587 56.808L124.851 53.384C124.435 53.544 123.859 53.704 123.347 53.704C122.099 53.704 121.299 52.968 121.299 51.176V44.808H125.107V41.128H121.299V36.904H117.395L116.851 41.128L114.419 41.32V44.808H116.595V51.24C116.595 54.92 118.131 57.384 122.067 57.384ZM134.747 57.384C136.635 57.384 138.747 56.712 140.379 55.592L138.811 52.744C137.659 53.448 136.571 53.8 135.387 53.8C133.275 53.8 131.675 52.744 131.259 50.44H140.763C140.859 50.056 140.955 49.192 140.955 48.36C140.955 44.04 138.715 40.744 134.203 40.744C130.395 40.744 126.715 43.912 126.715 49.064C126.715 54.312 130.203 57.384 134.747 57.384ZM131.227 47.336C131.547 45.32 132.827 44.328 134.299 44.328C136.187 44.328 136.955 45.576 136.955 47.336H131.227ZM144.205 57H148.909V47.784C149.741 45.64 151.213 44.872 152.397 44.872C153.069 44.872 153.549 44.968 154.125 45.128L154.893 41.064C154.445 40.872 153.901 40.744 153.005 40.744C151.373 40.744 149.645 41.768 148.493 43.912H148.365L148.045 41.128H144.205V57ZM165.275 57.384C168.699 57.384 171.963 54.248 171.963 48.776C171.963 43.912 169.563 40.744 165.723 40.744C164.251 40.744 162.747 41.416 161.531 42.504L161.659 40.072V34.568H156.955V57H160.635L161.019 55.304H161.147C162.395 56.68 163.867 57.384 165.275 57.384ZM164.187 53.544C163.387 53.544 162.491 53.288 161.659 52.52V46.024C162.555 45.032 163.419 44.584 164.379 44.584C166.267 44.584 167.131 46.024 167.131 48.872C167.131 52.136 165.819 53.544 164.187 53.544ZM179.619 57.384C180.675 57.384 181.475 57.224 181.987 57L181.411 53.512C181.155 53.576 181.027 53.576 180.835 53.576C180.451 53.576 180.003 53.256 180.003 52.264V34.568H175.299V52.072C175.299 55.272 176.387 57.384 179.619 57.384ZM189.223 57.384C191.399 57.384 192.871 56.392 194.215 54.792H194.311L194.663 57H198.503V41.128H193.799V51.624C192.871 52.872 192.167 53.384 190.983 53.384C189.607 53.384 188.999 52.648 188.999 50.376V41.128H184.295V50.984C184.295 54.952 185.767 57.384 189.223 57.384ZM209.747 57.384C211.635 57.384 213.747 56.712 215.379 55.592L213.811 52.744C212.659 53.448 211.571 53.8 210.387 53.8C208.275 53.8 206.675 52.744 206.259 50.44H215.763C215.859 50.056 215.955 49.192 215.955 48.36C215.955 44.04 213.715 40.744 209.203 40.744C205.395 40.744 201.715 43.912 201.715 49.064C201.715 54.312 205.203 57.384 209.747 57.384ZM206.227 47.336C206.547 45.32 207.827 44.328 209.299 44.328C211.187 44.328 211.955 45.576 211.955 47.336H206.227Z" fill="white"/>
<path d="M85.9926 46.6C85.9975 46.4006 86 46.2006 86 46C86 32.7452 75.2548 22 62 22C48.7452 22 38 32.7452 38 46C38 49.6472 38.8136 53.1044 40.2691 56.2H51.2C53.5196 56.2 55.4 54.3196 55.4 52C55.4 49.6804 53.5196 47.8 51.2 47.8C46.8922 47.8 43.4 44.3078 43.4 40C43.4 35.6922 46.8922 32.2 51.2 32.2H54.8C61.0961 32.2 66.2 37.304 66.2 43.6V50.8C66.2 53.7823 68.6177 56.2 71.6 56.2C74.5823 56.2 77 53.7823 77 50.8V50.2H75.2C72.2177 50.2 69.8 47.7823 69.8 44.8C69.8 41.8177 72.2177 39.4 75.2 39.4C78.1823 39.4 80.6 41.8177 80.6 44.8V46.6H85.9926Z" fill="white"/>
<path d="M85.6337 50.2H80.6V50.8C80.6 55.7706 76.5706 59.8 71.6 59.8C66.6294 59.8 62.6 55.7706 62.6 50.8V43.6C62.6 39.2922 59.1078 35.8 54.8 35.8H51.2C48.8804 35.8 47 37.6804 47 40C47 42.3196 48.8804 44.2 51.2 44.2C55.5078 44.2 59 47.6922 59 52C59 56.3078 55.5078 59.8 51.2 59.8H42.3619C46.7051 65.9693 53.8818 70 62 70C73.822 70 83.6477 61.4523 85.6337 50.2Z" fill="white"/>
<path d="M77 44.8V46.6H75.2C74.2059 46.6 73.4 45.7941 73.4 44.8C73.4 43.8059 74.2059 43 75.2 43C76.1941 43 77 43.8059 77 44.8Z" fill="white"/>
<path d="M107.528 131.144C109.724 131.144 111.44 128.9 111.44 126.308C111.44 124.28 110.384 123.008 108.608 123.008C106.424 123.008 104.696 125.252 104.696 127.844C104.696 129.872 105.764 131.144 107.528 131.144ZM107.6 130.028C106.544 130.028 106.028 129.14 106.028 127.748C106.028 125.924 107.144 124.124 108.536 124.124C109.592 124.124 110.12 125.012 110.12 126.404C110.12 128.228 108.992 130.028 107.6 130.028ZM113.378 130.376H113.402C113.69 130.832 114.158 131.144 114.71 131.144C116.33 131.144 117.866 129.368 117.866 127.112C117.866 125.732 117.23 124.964 116.186 124.964C115.514 124.964 114.842 125.336 114.278 125.828H114.242L114.266 125.108H113.222L111.566 133.328H112.85L113.186 131.576L113.378 130.376ZM115.658 126.02C116.198 126.02 116.546 126.428 116.546 127.28C116.546 128.804 115.622 130.088 114.626 130.088C114.254 130.088 113.906 129.884 113.654 129.392L114.158 126.872C114.602 126.296 115.202 126.02 115.658 126.02ZM118.693 128.648C118.693 130.232 119.653 131.144 121.057 131.144C121.897 131.144 122.593 130.856 123.073 130.52L122.593 129.692C122.269 129.932 121.813 130.16 121.393 130.16C120.505 130.16 119.809 129.632 119.941 128.384H123.529C123.613 128.192 123.781 127.652 123.781 127.136C123.781 125.912 123.277 124.964 121.909 124.964C120.361 124.964 118.693 126.452 118.693 128.648ZM120.049 127.568C120.337 126.56 121.045 125.96 121.753 125.96C122.473 125.96 122.713 126.476 122.713 127.052C122.713 127.244 122.689 127.412 122.653 127.568H120.049ZM124.42 131H125.716L126.508 126.98C127.132 126.344 127.588 126.068 127.996 126.068C128.5 126.068 128.74 126.32 128.74 126.824C128.74 127.004 128.692 127.172 128.644 127.448L127.924 131H129.208L129.952 127.28C130.024 126.968 130.048 126.728 130.048 126.452C130.048 125.504 129.64 124.964 128.656 124.964C127.912 124.964 127.252 125.408 126.628 125.936H126.58L126.64 125.108H125.596L124.42 131ZM134.961 131.144C136.317 131.144 137.301 130.4 137.301 129.26C137.301 128.54 136.869 128.072 135.993 127.604C135.489 127.316 134.985 127.112 134.985 126.68C134.985 126.272 135.381 125.936 135.921 125.936C136.389 125.936 136.749 126.188 137.049 126.488L137.769 125.804C137.313 125.324 136.689 124.964 135.921 124.964C134.745 124.964 133.773 125.732 133.773 126.8C133.773 127.508 134.253 128 135.033 128.432C135.777 128.84 136.089 129.044 136.089 129.416C136.089 129.848 135.609 130.184 135.057 130.184C134.529 130.184 134.049 129.896 133.665 129.392L132.897 130.016C133.341 130.688 134.217 131.144 134.961 131.144ZM140.53 131.144C142.15 131.144 143.782 129.608 143.782 127.364C143.782 125.888 142.906 124.964 141.574 124.964C139.966 124.964 138.334 126.488 138.334 128.744C138.334 130.208 139.21 131.144 140.53 131.144ZM140.674 130.1C139.99 130.1 139.63 129.584 139.63 128.696C139.63 127.196 140.506 126.008 141.442 126.008C142.114 126.008 142.474 126.512 142.474 127.4C142.474 128.912 141.61 130.1 140.674 130.1ZM150.363 125.108H149.079L148.287 129.128C147.699 129.752 147.231 130.04 146.835 130.04C146.343 130.04 146.103 129.788 146.103 129.284C146.103 129.104 146.139 128.936 146.199 128.66L146.907 125.108H145.623L144.879 128.828C144.819 129.128 144.783 129.38 144.783 129.656C144.783 130.592 145.203 131.144 146.187 131.144C146.895 131.144 147.567 130.688 148.155 130.16H148.203L148.155 131H149.199L150.363 125.108ZM150.928 131H152.224L152.92 127.436C153.4 126.536 153.964 126.104 154.516 126.104C154.72 126.104 154.924 126.128 155.068 126.2L155.5 125.072C155.344 125 155.164 124.964 154.912 124.964C154.204 124.964 153.556 125.516 153.088 126.248H153.04L153.148 125.108H152.104L150.928 131ZM157.546 131.144C158.434 131.144 159.034 130.784 159.478 130.46L158.926 129.644C158.626 129.884 158.266 130.1 157.81 130.1C157.018 130.1 156.622 129.584 156.622 128.696C156.622 127.232 157.546 126.008 158.602 126.008C158.998 126.008 159.238 126.152 159.514 126.464L160.234 125.684C159.91 125.3 159.406 124.964 158.686 124.964C156.85 124.964 155.302 126.632 155.302 128.744C155.302 130.268 156.25 131.144 157.546 131.144ZM160.4 128.648C160.4 130.232 161.36 131.144 162.764 131.144C163.604 131.144 164.3 130.856 164.78 130.52L164.3 129.692C163.976 129.932 163.52 130.16 163.1 130.16C162.212 130.16 161.516 129.632 161.648 128.384H165.236C165.32 128.192 165.488 127.652 165.488 127.136C165.488 125.912 164.984 124.964 163.616 124.964C162.068 124.964 160.4 126.452 160.4 128.648ZM161.756 127.568C162.044 126.56 162.752 125.96 163.46 125.96C164.18 125.96 164.42 126.476 164.42 127.052C164.42 127.244 164.396 127.412 164.36 127.568H161.756ZM170.783 125.744H170.747C170.495 125.276 170.027 124.964 169.451 124.964C167.819 124.964 166.283 126.74 166.283 128.996C166.283 130.376 166.931 131.144 167.963 131.144C168.635 131.144 169.355 130.76 169.907 130.184H169.943L169.883 131H170.939L172.643 122.528H171.359L170.951 124.616L170.783 125.744ZM168.491 130.088C167.951 130.088 167.615 129.68 167.615 128.816C167.615 127.304 168.527 126.02 169.523 126.02C169.883 126.02 170.255 126.236 170.519 126.74L170.039 129.092C169.547 129.8 168.995 130.088 168.491 130.088ZM176.02 131L176.271 130.316H176.296C176.56 130.82 177.04 131.144 177.628 131.144C179.248 131.144 180.784 129.368 180.784 127.112C180.784 125.72 180.148 124.964 179.104 124.964C178.456 124.964 177.808 125.3 177.256 125.744H177.232L177.52 124.616L177.94 122.528H176.656L174.952 131H176.02ZM178.576 126.02C179.116 126.02 179.464 126.428 179.464 127.28C179.464 128.804 178.54 130.088 177.544 130.088C177.172 130.088 176.824 129.872 176.572 129.368L177.076 126.872C177.52 126.296 178.12 126.02 178.576 126.02ZM181.196 133.424C182.372 133.424 183.104 132.596 183.836 131.312L187.148 125.108H185.9L184.436 128.084C184.16 128.636 183.872 129.296 183.608 129.848H183.56C183.536 129.296 183.476 128.612 183.416 128.084L183.044 125.108H181.76L182.78 130.94L182.6 131.3C182.276 131.96 181.784 132.392 181.28 132.392C181.124 132.392 180.968 132.344 180.848 132.272L180.44 133.208C180.668 133.34 181.004 133.424 181.196 133.424Z" fill="white" fill-opacity="0.7"/>
<path d="M226.416 132.192C228.912 132.192 230.352 130.688 230.352 128.96C230.352 127.488 229.552 126.64 228.288 126.128L226.944 125.584C226.048 125.216 225.36 124.992 225.36 124.352C225.36 123.76 225.872 123.408 226.688 123.408C227.52 123.408 228.16 123.712 228.848 124.24L230.048 122.752C229.152 121.856 227.888 121.376 226.688 121.376C224.512 121.376 222.976 122.752 222.976 124.48C222.976 126 224 126.896 225.072 127.328L226.432 127.904C227.344 128.288 227.936 128.496 227.936 129.152C227.936 129.776 227.456 130.16 226.48 130.16C225.616 130.16 224.656 129.712 223.904 129.072L222.56 130.688C223.616 131.68 225.056 132.192 226.416 132.192ZM234.534 132.192C235.302 132.192 235.878 132.032 236.294 131.904L235.926 130.192C235.718 130.272 235.43 130.352 235.174 130.352C234.549 130.352 234.15 129.984 234.15 129.088V125.904H236.054V124.064H234.15V121.952H232.198L231.926 124.064L230.71 124.16V125.904H231.798V129.12C231.798 130.96 232.566 132.192 234.534 132.192ZM240.873 132.192C241.817 132.192 242.873 131.856 243.689 131.296L242.905 129.872C242.329 130.224 241.785 130.4 241.193 130.4C240.137 130.4 239.337 129.872 239.129 128.72H243.881C243.929 128.528 243.977 128.096 243.977 127.68C243.977 125.52 242.857 123.872 240.601 123.872C238.697 123.872 236.857 125.456 236.857 128.032C236.857 130.656 238.601 132.192 240.873 132.192ZM239.113 127.168C239.273 126.16 239.913 125.664 240.649 125.664C241.593 125.664 241.977 126.288 241.977 127.168H239.113ZM245.603 132H247.955V127.392C248.371 126.32 249.107 125.936 249.699 125.936C250.035 125.936 250.275 125.984 250.563 126.064L250.947 124.032C250.723 123.936 250.451 123.872 250.003 123.872C249.187 123.872 248.323 124.384 247.747 125.456H247.683L247.523 124.064H245.603V132ZM256.138 132.192C257.85 132.192 259.482 130.624 259.482 127.888C259.482 125.456 258.282 123.872 256.362 123.872C255.626 123.872 254.874 124.208 254.266 124.752L254.33 123.536V120.784H251.978V132H253.818L254.01 131.152H254.074C254.698 131.84 255.434 132.192 256.138 132.192ZM255.594 130.272C255.194 130.272 254.746 130.144 254.33 129.76V126.512C254.778 126.016 255.21 125.792 255.69 125.792C256.634 125.792 257.066 126.512 257.066 127.936C257.066 129.568 256.41 130.272 255.594 130.272ZM263.309 132.192C263.837 132.192 264.237 132.112 264.493 132L264.205 130.256C264.077 130.288 264.013 130.288 263.917 130.288C263.725 130.288 263.501 130.128 263.501 129.632V120.784H261.149V129.536C261.149 131.136 261.693 132.192 263.309 132.192ZM268.112 132.192C269.2 132.192 269.936 131.696 270.608 130.896H270.656L270.832 132H272.752V124.064H270.4V129.312C269.936 129.936 269.584 130.192 268.992 130.192C268.304 130.192 268 129.824 268 128.688V124.064H265.648V128.992C265.648 130.976 266.384 132.192 268.112 132.192ZM278.373 132.192C279.317 132.192 280.373 131.856 281.189 131.296L280.405 129.872C279.829 130.224 279.285 130.4 278.693 130.4C277.637 130.4 276.837 129.872 276.629 128.72H281.381C281.429 128.528 281.477 128.096 281.477 127.68C281.477 125.52 280.357 123.872 278.101 123.872C276.197 123.872 274.357 125.456 274.357 128.032C274.357 130.656 276.101 132.192 278.373 132.192ZM276.613 127.168C276.773 126.16 277.413 125.664 278.149 125.664C279.093 125.664 279.477 126.288 279.477 127.168H276.613Z" fill="white" fill-opacity="0.7"/>
<path d="M215.996 127.3C215.999 127.2 216 127.1 216 127C216 120.373 210.627 115 204 115C197.373 115 192 120.373 192 127C192 128.824 192.407 130.552 193.135 132.1H198.6C199.76 132.1 200.7 131.16 200.7 130C200.7 128.84 199.76 127.9 198.6 127.9C196.446 127.9 194.7 126.154 194.7 124C194.7 121.846 196.446 120.1 198.6 120.1H200.4C203.548 120.1 206.1 122.652 206.1 125.8V129.4C206.1 130.891 207.309 132.1 208.8 132.1C210.291 132.1 211.5 130.891 211.5 129.4V129.1H210.6C209.109 129.1 207.9 127.891 207.9 126.4C207.9 124.909 209.109 123.7 210.6 123.7C212.091 123.7 213.3 124.909 213.3 126.4V127.3H215.996Z" fill="white" fill-opacity="0.7"/>
<path d="M215.817 129.1H213.3V129.4C213.3 131.885 211.285 133.9 208.8 133.9C206.315 133.9 204.3 131.885 204.3 129.4V125.8C204.3 123.646 202.554 121.9 200.4 121.9H198.6C197.44 121.9 196.5 122.84 196.5 124C196.5 125.16 197.44 126.1 198.6 126.1C200.754 126.1 202.5 127.846 202.5 130C202.5 132.154 200.754 133.9 198.6 133.9H194.181C196.353 136.985 199.941 139 204 139C209.911 139 214.824 134.726 215.817 129.1Z" fill="white" fill-opacity="0.7"/>
<path d="M211.5 126.4V127.3H210.6C210.103 127.3 209.7 126.897 209.7 126.4C209.7 125.903 210.103 125.5 210.6 125.5C211.097 125.5 211.5 125.903 211.5 126.4Z" fill="white" fill-opacity="0.7"/>
</svg>
