<svg width="100" height="100" viewBox="0 0 100 100" fill="none" xmlns="http://www.w3.org/2000/svg">
<path fill-rule="evenodd" clip-rule="evenodd" d="M50 98C76.5097 98 98 76.5097 98 50C98 23.4903 76.5097 2 50 2C23.4903 2 2 23.4903 2 50C2 57.2944 3.6271 64.2088 6.53817 70.4H28.3999C33.0391 70.4 36.7999 66.6392 36.7999 62C36.7999 57.3608 33.0391 53.6 28.3999 53.6C19.7843 53.6 12.7999 46.6157 12.7999 38C12.7999 29.3844 19.7843 22.4 28.3999 22.4H35.5999C48.192 22.4 58.3999 32.6079 58.3999 45.2V59.6C58.3999 65.5647 63.2352 70.4 69.1999 70.4C75.1646 70.4 79.9999 65.5647 79.9999 59.6V58.4H76.3999C70.4352 58.4 65.5999 53.5647 65.5999 47.6C65.5999 41.6353 70.4352 36.8 76.3999 36.8C82.3646 36.8 87.1999 41.6353 87.1999 47.6V51.2H97.9852C97.9251 53.6499 97.6814 56.0544 97.2674 58.4H87.1999V59.6C87.1999 69.5411 79.141 77.6 69.1999 77.6C59.2588 77.6 51.1999 69.5411 51.1999 59.6V45.2C51.1999 36.5844 44.2156 29.6 35.5999 29.6H28.3999C23.7607 29.6 19.9999 33.3608 19.9999 38C19.9999 42.6392 23.7607 46.4 28.3999 46.4C37.0156 46.4 43.9999 53.3844 43.9999 62C43.9999 70.6156 37.0156 77.6 28.3999 77.6H10.7237C19.4102 89.9386 33.7637 98 50 98ZM79.9999 51.2V47.6C79.9999 45.6118 78.3881 44 76.3999 44C74.4117 44 72.7999 45.6118 72.7999 47.6C72.7999 49.5882 74.4117 51.2 76.3999 51.2H79.9999Z" fill="white"/>
</svg>
