<svg width="250" height="250" viewBox="0 0 250 250" fill="none" xmlns="http://www.w3.org/2000/svg">
<path d="M227.985 55.2C227.995 54.8012 228 54.4012 228 54C228 27.4903 206.51 6 180 6C153.49 6 132 27.4903 132 54C132 61.2944 133.627 68.2088 136.538 74.4H158.4C163.039 74.4 166.8 70.6392 166.8 66C166.8 61.3608 163.039 57.6 158.4 57.6C149.784 57.6 142.8 50.6156 142.8 42C142.8 33.3844 149.784 26.4 158.4 26.4H165.6C178.192 26.4 188.4 36.6079 188.4 49.2V63.6C188.4 69.5647 193.235 74.4 199.2 74.4C205.165 74.4 210 69.5647 210 63.6V62.4H206.4C200.435 62.4 195.6 57.5647 195.6 51.6C195.6 45.6353 200.435 40.8 206.4 40.8C212.365 40.8 217.2 45.6353 217.2 51.6V55.2H227.985Z" fill="#31C5FF"/>
<path d="M227.267 62.4H217.2V63.6C217.2 73.5411 209.141 81.6 199.2 81.6C189.259 81.6 181.2 73.5411 181.2 63.6V49.2C181.2 40.5844 174.216 33.6 165.6 33.6H158.4C153.761 33.6 150 37.3608 150 42C150 46.6392 153.761 50.4 158.4 50.4C167.016 50.4 174 57.3844 174 66C174 74.6156 167.016 81.6 158.4 81.6H140.724C149.41 93.9386 163.764 102 180 102C203.644 102 223.295 84.9046 227.267 62.4Z" fill="#31C5FF"/>
<path d="M210 51.6V55.2H206.4C204.412 55.2 202.8 53.5882 202.8 51.6C202.8 49.6118 204.412 48 206.4 48C208.388 48 210 49.6118 210 51.6Z" fill="#31C5FF"/>
<path fill-rule="evenodd" clip-rule="evenodd" d="M94.159 42.2095C97.6642 48.1656 103.974 62.285 102.214 65.2246L87.2601 69.2314C87.2514 69.2053 87.2428 69.1793 87.2343 69.1533C81.5274 70.0251 75.9576 66.4809 74.4286 60.7749L71.6054 50.2383C69.9647 44.1155 73.5983 37.8219 79.7212 36.1813L80.7525 35.905C86.2441 34.4335 91.873 37.2048 94.159 42.2095Z" fill="#191847"/>
<path fill-rule="evenodd" clip-rule="evenodd" d="M79.7132 57.2675C76.5964 55.1399 74.0805 52.183 73.3321 48.315C71.1757 37.1701 87.1816 35.4602 91.6489 40.1798C96.1161 44.8994 99.513 58.9972 95.9156 61.0186C94.4809 61.8247 90.9418 61.74 87.0681 60.6399L93.102 74.7749L80.7265 78.0909L79.7132 57.2675Z" fill="#B28B67"/>
<path fill-rule="evenodd" clip-rule="evenodd" d="M82.5635 54.5234C84.7603 60.4413 86.3895 67.4351 85.1311 69.536L70.1773 73.5429C65.4996 59.4181 75.0406 62.8167 71.4209 49.3077C71.7927 48.687 72.1381 48.0787 72.4963 47.538L72.3732 47.1451C73.5548 41.1971 76.136 37.6898 80.1168 36.6231C86.088 35.0231 88.7107 37.272 90.9419 39.1801C90.8354 43.5827 86.3407 45.4356 82.8844 49.0882C82.2914 48.8261 81.6064 48.7574 80.929 48.9389C79.3627 49.3586 78.4301 50.9573 78.8461 52.5098C79.2621 54.0622 80.8691 54.9805 82.4354 54.5608C82.4786 54.5493 82.5213 54.5368 82.5635 54.5234Z" fill="#191847"/>
<path fill-rule="evenodd" clip-rule="evenodd" d="M67.2109 173.35C80.0174 176.919 91.0663 178.703 100.358 178.703C109.649 178.703 118.28 175.955 126.249 170.46C113.717 166.798 103.396 164.967 95.2866 164.967C87.1771 164.967 77.8186 167.761 67.2109 173.35Z" fill="#02AEF2"/>
<path fill-rule="evenodd" clip-rule="evenodd" d="M111.444 183.846C111.321 183.661 111.216 183.46 111.134 183.242C109.422 178.732 82.0031 130.084 79.2715 121.19H110.141C112.218 127.952 121.566 170.389 122.881 178.856C127.032 192.212 135.578 235.466 136.669 238.462C137.817 241.615 131.359 244.898 129.638 241.023C126.9 234.857 120.376 217.795 117.471 207.377C114.748 197.61 112.531 188.823 111.444 183.846Z" fill="#997659"/>
<path fill-rule="evenodd" clip-rule="evenodd" d="M86.1885 189.785C73.653 192.941 27.801 198.647 24.6545 199.542C21.4176 200.462 18.5795 193.816 22.5804 192.377C28.9466 190.086 46.4881 184.793 57.1236 182.633C65.6781 180.896 73.4842 179.478 78.725 178.648C78.2811 163.983 76.2515 128.79 77.5817 121.19H104.896C103.62 128.478 92.8364 181.662 90.8321 186.985C90.196 188.886 88.2981 189.726 86.1885 189.785Z" fill="#B28B67"/>
<path fill-rule="evenodd" clip-rule="evenodd" d="M22.8302 190.56C21.1564 190.248 19.9297 190.161 19.1502 190.299C18.2022 190.466 16.8466 190.868 15.0835 191.504C15.2774 192.604 17.0203 202.488 20.312 221.156C22.9952 221.478 24.2921 220.791 24.2025 219.095C24.1129 217.399 24.0531 215.987 24.0231 214.86L27.7371 199.995C27.8085 199.709 27.6346 199.419 27.3485 199.348C27.3437 199.346 27.3387 199.345 27.3338 199.344L25.0287 198.837C24.0406 197.427 23.4618 196.241 23.2924 195.28C23.1548 194.499 23.28 193.366 23.668 191.879L23.668 191.879C23.8169 191.308 23.4751 190.725 22.9045 190.576C22.88 190.57 22.8551 190.564 22.8302 190.56Z" fill="#E4E4E4"/>
<path fill-rule="evenodd" clip-rule="evenodd" d="M127.679 240.574C127.082 242.168 126.783 243.361 126.783 244.152C126.783 245.115 126.944 246.52 127.264 248.367C128.381 248.367 138.418 248.367 157.374 248.367C158.156 245.78 157.704 244.383 156.019 244.177C154.333 243.971 152.933 243.785 151.818 243.618L137.823 237.38C137.554 237.26 137.238 237.381 137.118 237.65C137.116 237.654 137.114 237.659 137.112 237.664L136.212 239.846C134.652 240.574 133.384 240.938 132.408 240.938C131.615 240.938 130.521 240.618 129.124 239.978L129.124 239.978C128.588 239.732 127.954 239.967 127.708 240.503C127.698 240.526 127.688 240.55 127.679 240.574Z" fill="#E4E4E4"/>
<path fill-rule="evenodd" clip-rule="evenodd" d="M77.6699 121.19C89.7062 117.759 101.095 117.759 111.835 121.19C115.572 138.173 124.652 144.914 126.249 170.953C108.099 179.936 85.6774 164.546 66.9931 173.306C61.6547 161.052 69.1285 131.54 77.6699 121.19Z" fill="#5BDBD4"/>
<path fill-rule="evenodd" clip-rule="evenodd" d="M106.146 86.0176L122.641 72.855C125.043 68.7342 127.542 65.4222 130.137 62.9189C130.971 62.3864 132.505 61.8826 131.492 64.7415C130.478 67.6004 129.541 70.6527 130.432 71.3213C131.323 71.9899 132.996 70.5415 134.125 71.7144C134.878 72.4963 131.93 74.4608 125.283 77.608L114.154 92.0265L106.146 86.0176ZM136.206 89.3692L143.448 83.5743C143.822 79.1174 144.789 76.7378 146.348 76.4353C147.452 75.6671 146.308 81.4171 148.504 80.5488C150.699 79.6805 155.533 74.5856 156.639 75.2521C158.274 76.2382 157.679 80.256 156.523 82.4064C154.363 86.4254 152.271 88.0382 146.855 90.6224C144.023 91.9735 141.096 94.197 138.073 97.2929L136.206 89.3692Z" fill="#997659"/>
<path fill-rule="evenodd" clip-rule="evenodd" d="M96.8692 85.3693C103.249 84.1751 111.535 81.3289 119.617 73.981L124.586 81.2768C119.405 88.5777 111.482 95.2228 103.732 96.3672C97.6238 97.269 93.2276 90.5013 96.8692 85.3693Z" fill="#2064A2"/>
<path fill-rule="evenodd" clip-rule="evenodd" d="M107.717 96.5618C114.799 97.0493 125.828 93.0571 140.803 84.5853C146.202 92.0425 149.059 97.534 149.372 101.06C136.927 110.598 125.743 115.844 116.105 117.759C117.419 123.418 117.679 128.977 116.208 134.357C113.182 145.419 83.2572 140.945 74.0843 144.482C64.744 126.303 74.8704 116.461 72.7103 104.156C70.3448 90.681 77.5599 68.0257 79.1595 67.7437L93.7467 65.1715C96.3659 75.3192 102.417 85.9449 107.717 96.5618Z" fill="#02AEF2"/>
</svg>
