<svg width="250" height="250" viewBox="0 0 250 250" fill="none" xmlns="http://www.w3.org/2000/svg">
<path fill-rule="evenodd" clip-rule="evenodd" d="M168.369 105.245C170.673 102.541 172.232 99.2264 171.972 95.5127C171.221 84.8125 156.326 87.1664 153.428 92.567C150.531 97.9675 150.875 111.666 154.62 112.632C156.113 113.017 159.294 112.074 162.532 110.122L160.5 124.5H172.5L168.369 105.245Z" fill="#B28B67"/>
<path fill-rule="evenodd" clip-rule="evenodd" d="M177.203 91.9509C177.591 91.5668 177.802 91.0185 177.985 90.498C178.175 89.9572 178.36 89.4109 178.486 88.848C178.738 87.7234 178.74 86.4301 177.938 85.5568C177.294 84.8565 176.329 84.5425 175.438 84.4742C174.844 84.4287 174.235 84.5118 173.666 84.6989C173.101 84.8845 172.614 85.2543 172.067 85.4839C172.046 84.2719 171.839 83.0038 171.224 81.969C170.632 80.9734 169.689 80.4147 168.615 80.2668C167.512 80.1151 166.423 80.3732 165.436 80.907C165.189 81.0407 164.944 81.1807 164.71 81.3392C164.514 81.472 164.31 81.6318 164.079 81.6858C163.823 81.746 163.696 81.5978 163.529 81.4106C163.333 81.1911 163.113 80.9978 162.88 80.8264C161.849 80.0686 160.496 79.7571 159.302 80.2113C158.752 80.4205 158.217 80.7759 157.843 81.2656C157.511 81.7022 157.273 82.3946 156.814 82.6988C156.619 82.8279 156.481 82.6568 156.304 82.5304C156.037 82.3404 155.783 82.1308 155.513 81.9461C155.134 81.6864 154.724 81.4923 154.285 81.3906C153.642 81.2418 152.753 81.2767 152.569 82.1191C152.5 82.4355 152.553 82.7739 152.575 83.0928C152.606 83.5305 152.638 83.9682 152.676 84.4053C152.704 84.7372 152.741 85.0577 152.804 85.3837C152.837 85.5574 152.942 85.8813 152.867 86.0553C152.774 86.2728 152.344 86.1491 152.161 86.1567C151.798 86.1717 151.434 86.2352 151.099 86.3902C150.839 86.5103 150.566 86.6869 150.456 86.9847C150.389 87.1677 150.406 87.3556 150.438 87.5438C150.476 87.7697 150.433 87.8895 150.404 88.1174C149.917 87.8776 148.23 87.3448 148.017 88.2175C147.947 88.5082 148.108 88.8365 148.23 89.0816C148.446 89.5115 148.728 89.9044 149.017 90.2791C149.619 91.0607 150.338 91.7349 151.112 92.3115C150.206 92.7145 149.969 93.903 150.754 94.6111C151.1 94.9238 151.566 94.9934 152.003 94.9734C152.163 94.9661 152.394 94.9046 152.52 94.9324C152.587 94.9474 152.66 95.0048 152.754 95.0112C153.37 95.0535 154.067 94.9049 154.67 94.768C155.744 94.5241 156.761 94.0151 157.592 93.2398C157.805 93.041 157.981 92.9265 158.268 92.9294C158.519 92.932 158.766 93.0009 159.017 93.0073C159.681 93.0242 160.28 92.6994 160.897 92.4833C160.935 93.3167 161.172 94.2346 161.513 94.9843C161.791 95.5957 162.372 95.6846 162.942 95.7382C164.766 95.9099 166.597 95.7183 168.424 95.7209C166.656 96.1205 164.828 96.2853 163.076 96.7556C162.284 96.9681 162.889 97.502 163.227 97.8721C163.785 98.4816 164.2 99.2368 164.488 100.032C165.352 98.9048 166.881 98.1619 168.236 98.5083C169.732 98.8909 170.786 100.915 169.829 102.37C169.274 103.214 168.27 103.541 167.435 103.903C168.087 104.581 168.244 105.581 168.636 106.423C168.83 106.839 169.101 107.308 169.533 107.453C169.693 107.507 169.881 107.511 170.007 107.642C170.163 107.803 170.201 107.984 170.4 108.122C171.197 108.676 172.441 108.633 173.147 107.911C173.786 107.257 173.62 106.223 173.086 105.56C173.935 105.206 175.482 104.751 175.145 103.429C176.984 103.306 181.45 100.323 178.981 98.1431C180.336 97.3774 181.581 95.506 180.711 93.8563C180.041 92.586 178.482 92.0182 177.203 91.9509Z" fill="#191847"/>
<path fill-rule="evenodd" clip-rule="evenodd" d="M194.189 187H155.561L150.5 249H208L194.189 187Z" fill="#C5CFD6"/>
<path fill-rule="evenodd" clip-rule="evenodd" d="M194.189 187H182.309L175.198 249H208L194.189 187Z" fill="black" fill-opacity="0.1"/>
<path fill-rule="evenodd" clip-rule="evenodd" d="M111.523 176.378C107.405 173.905 100.495 177.082 100.5 180.619C100.514 191.201 110.172 241.076 110.676 244.228C111.18 247.381 116.582 248.214 116.896 244.239C117.397 237.913 118.327 216.017 117.396 205.881C117.012 201.698 116.599 197.713 116.191 194.159C121.259 203.31 129.096 216.413 139.703 233.467L145.462 230.836C140.94 215.938 137.232 205.42 134.338 199.283C129.383 188.775 124.737 179.776 122.782 176.606C119.706 171.62 114.352 173.36 111.523 176.378Z" fill="#B28B67"/>
<path fill-rule="evenodd" clip-rule="evenodd" d="M145.05 222.563L125.286 175.744C120.552 168.127 107.277 177.294 108.892 181.711C112.557 191.74 131.2 224.207 132.292 227.195L145.05 222.563Z" fill="#40CA77"/>
<path fill-rule="evenodd" clip-rule="evenodd" d="M146.148 227.884C147.379 228.897 148.18 229.725 148.55 230.367C149.001 231.148 149.529 232.362 150.134 234.011C149.228 234.534 141.087 239.234 125.711 248.111C123.865 246.379 123.577 245.035 124.848 244.078C126.119 243.121 127.168 242.315 127.994 241.658L136.424 230.043C136.586 229.82 136.899 229.77 137.122 229.932C137.126 229.935 137.13 229.938 137.134 229.941L138.885 231.29C140.492 231.149 141.691 230.851 142.483 230.394C143.126 230.023 143.864 229.25 144.697 228.077L144.697 228.077C145.016 227.626 145.641 227.52 146.091 227.84C146.11 227.854 146.129 227.868 146.148 227.884Z" fill="#E4E4E4"/>
<path fill-rule="evenodd" clip-rule="evenodd" d="M118.161 241.701C118.72 243.194 119 244.312 119 245.053C119 245.955 118.85 247.27 118.549 249C117.503 249 108.103 249 90.3485 249C89.6156 246.577 90.0387 245.269 91.6176 245.076C93.1965 244.883 94.5081 244.709 95.5525 244.553L108.66 238.709C108.912 238.597 109.208 238.71 109.32 238.963C109.322 238.967 109.324 238.971 109.326 238.976L110.168 241.019C111.63 241.701 112.818 242.042 113.732 242.042C114.474 242.042 115.5 241.742 116.808 241.143L116.808 241.143C117.31 240.913 117.903 241.133 118.134 241.635C118.143 241.657 118.153 241.679 118.161 241.701Z" fill="#E4E4E4"/>
<path fill-rule="evenodd" clip-rule="evenodd" d="M99.1148 184.217C99.1148 197.5 105.423 228.485 105.427 231.41L119 231.42C117.013 203.773 116.309 189.8 116.887 189.502C117.753 189.055 152.412 192.963 162.807 192.963C177.796 192.963 183.997 183.51 184.5 166H154.807C148.761 166.647 117.226 173.008 105.514 175.194C100.5 176.13 99.1148 180.557 99.1148 184.217Z" fill="#7AEB93"/>
<path fill-rule="evenodd" clip-rule="evenodd" d="M150.181 134.85L132.826 125.345C129.94 121.918 127.096 119.256 124.295 117.36C123.44 117.003 121.943 116.786 123.343 119.271C124.742 121.755 126.103 124.431 125.39 125.197C124.677 125.962 122.898 124.893 122.048 126.165C121.481 127.012 124.518 128.352 131.162 130.183L143.772 141.729L150.181 134.85ZM123 142.87L115.377 138.682C114.307 134.612 113.028 132.564 111.541 132.539C110.398 132.007 112.388 137.15 110.222 136.704C108.055 136.258 102.768 132.325 101.857 133.124C100.509 134.305 101.711 137.932 103.127 139.737C105.773 143.109 107.965 144.262 113.381 145.772C116.213 146.562 119.274 148.144 122.566 150.52L123 142.87Z" fill="#997659"/>
<path fill-rule="evenodd" clip-rule="evenodd" d="M158.633 132.733C152.554 132.668 144.448 131.385 135.799 125.894L132.402 133.469C138.368 139.39 146.757 144.255 154.092 144.049C159.872 143.887 162.827 136.895 158.633 132.733Z" fill="#23A220"/>
<path fill-rule="evenodd" clip-rule="evenodd" d="M150.448 144.881C143.994 146.49 133.173 144.592 117.982 139.187C114.214 146.982 112.472 152.539 112.757 155.859C125.788 162.666 136.957 165.7 146.158 165.901C145.866 171.361 146.531 176.556 148.763 181.303C153.353 191.062 180.227 182.024 189.264 183.803C194.922 165.426 183.981 157.957 183.972 146.198C183.963 133.321 173.623 113.5 172.101 113.5H158.228C157.463 123.335 153.61 134.173 150.448 144.881Z" fill="#15D54B"/>
<path fill-rule="evenodd" clip-rule="evenodd" d="M55 47C48.3726 47 43 52.3726 43 59V119C43 125.627 48.3726 131 55 131H115C121.627 131 127 125.627 127 119V59C127 52.3726 121.627 47 115 47H55ZM69 63C69 68.5228 64.5228 73 59 73C53.4772 73 49 68.5228 49 63C49 57.4772 53.4772 53 59 53C64.5228 53 69 57.4772 69 63ZM95 63C95 68.5228 90.5228 73 85 73C79.4772 73 75 68.5228 75 63C75 57.4772 79.4772 53 85 53C90.5228 53 95 57.4772 95 63Z" fill="#81F181"/>
</svg>
