<svg width="150" height="150" viewBox="0 0 150 150" fill="none" xmlns="http://www.w3.org/2000/svg">
<path fill-rule="evenodd" clip-rule="evenodd" d="M44.722 33.2612C38.0946 33.2612 32.722 38.6338 32.722 45.2612V105.261C32.722 111.889 38.0946 117.261 44.722 117.261H104.722C111.349 117.261 116.722 111.889 116.722 105.261V45.2612C116.722 38.6338 111.349 33.2612 104.722 33.2612H44.722ZM58.722 49.2612C58.722 54.7841 54.2448 59.2612 48.722 59.2612C43.1991 59.2612 38.722 54.7841 38.722 49.2612C38.722 43.7384 43.1991 39.2612 48.722 39.2612C54.2448 39.2612 58.722 43.7384 58.722 49.2612ZM84.722 49.2612C84.722 54.7841 80.2448 59.2612 74.722 59.2612C69.1991 59.2612 64.722 54.7841 64.722 49.2612C64.722 43.7384 69.1991 39.2612 74.722 39.2612C80.2448 39.2612 84.722 43.7384 84.722 49.2612Z" fill="#81F181"/>
<path d="M39.0445 40.1407C39.0445 43.5056 39.2276 46.8657 39.2799 50.2097C39.307 51.9478 39.2799 53.6888 39.2799 55.4273C39.2799 56.2106 39.2393 57.674 39.6329 58.3826C40.3212 59.6214 42.69 58.9326 44.0397 58.7879C46.2242 58.5539 48.6164 58.6116 50.7611 58.2126C53.0486 57.787 55.0329 58.5003 57.2732 58.5003C58.7607 58.5003 58.5809 58.1012 58.5809 56.5126C58.5809 53.7564 58.1778 51.1066 57.8748 48.379C57.6402 46.2677 57.2037 44.3233 57.1686 42.1807C57.138 40.3132 56.4086 40.6375 54.7625 40.4284C51.3677 39.9973 48.0511 40.8469 44.6805 40.8469C42.8308 40.8469 40.8635 40.3761 39.0445 40.3761" stroke="black" stroke-opacity="0.3" stroke-linecap="round" stroke-linejoin="round"/>
<path d="M65.4069 40.3762C65.4069 45.0381 65.7368 49.8847 65.1584 54.512C65.0346 55.5022 64.2651 58.9473 65.6946 58.9711C66.9309 58.9917 83.2688 59.8049 83.2956 58.8665C83.4678 52.8417 83.2956 46.911 83.2956 40.8993C83.2956 39.4024 82.0516 39.8062 80.7065 39.9577C78.7943 40.1732 76.9563 40.6116 75.0312 40.6116C71.734 40.6116 68.479 41.0823 65.1715 41.0823" stroke="black" stroke-opacity="0.3" stroke-linecap="round" stroke-linejoin="round"/>
<path d="M32.6893 61.3248C37.4753 61.3248 42.2613 61.3248 47.0473 61.3248C50.3167 61.3248 53.5772 60.8559 56.8286 60.6317C61.0283 60.3421 65.3267 60.3832 69.5391 60.3832C73.3603 60.3832 77.0026 60.3904 80.7588 61.1417C84.4212 61.8742 87.9744 62.3276 91.7169 62.2663C94.9877 62.2127 98.2311 61.3248 101.524 61.3248C105.726 61.3248 109.928 61.3248 114.13 61.3248" stroke="black" stroke-opacity="0.3" stroke-linecap="round" stroke-linejoin="round"/>
<path d="M108.716 40.1407C105.581 41.4531 102.623 44.8081 100.714 47.6729" stroke="black" stroke-opacity="0.3" stroke-linecap="round" stroke-linejoin="round"/>
<path d="M99.3013 39.1992C102.969 41.3385 105.555 44.8902 108.952 47.4375" stroke="black" stroke-opacity="0.3" stroke-linecap="round" stroke-linejoin="round"/>
<path d="M38.5737 34.2563C35.316 36.2427 32.5987 39.5255 32.4539 43.436C32.3805 45.4187 32.4209 47.7626 31.9962 49.6735C31.555 51.6591 32.0898 53.8882 31.6301 55.9111C30.461 61.0549 31.277 66.4618 31.277 71.6683C31.277 77.8328 31.5124 84.0791 31.5124 90.2763C31.5124 92.9003 31.5124 95.5244 31.5124 98.1484C31.5124 100.646 31.3221 103.141 31.9308 105.576C32.7323 108.782 34.2856 113.02 37.763 114.285C42.0475 115.843 46.8938 114.762 51.2318 115.933C56.6779 117.402 62.4126 117.109 67.996 117.109C75.5674 117.109 83.1501 117.345 90.71 117.345C93.5001 117.345 96.3089 117.58 99.1183 117.58C100.217 117.58 101.266 117.222 102.361 117.122C103.65 117.005 104.901 117.159 106.18 116.926C108.124 116.573 110.738 116.622 112.365 115.357C113.59 114.404 114.299 113.3 115.019 111.931C115.857 110.34 116.235 108.473 116.602 106.714C116.964 104.977 116.813 103.056 117.007 101.287C117.258 99.001 117.642 96.7234 117.883 94.4346C118.225 91.1851 117.661 87.8773 117.661 84.6272C117.661 79.5393 116.719 74.5287 116.719 69.4453C116.719 62.0006 116.955 54.6192 116.955 47.2021C116.955 44.7638 117.173 42.202 116.942 39.7746C116.725 37.4963 114.21 35.7236 112.496 34.6093C111.709 34.0983 111.021 33.4759 110.233 32.9747C109.271 32.3621 107.281 32.3732 106.18 32.3732C103.092 32.3732 100.084 32.844 96.9999 32.844C95.7096 32.844 94.4194 32.844 93.1292 32.844C91.4165 32.844 89.657 32.9642 87.9509 32.7917C86.4411 32.639 84.9747 32.2217 83.4525 32.1509C79.7618 31.9793 76.3063 31.7304 72.7036 32.844C66.1649 34.865 59.1041 33.8087 52.3695 34.2432C47.5236 34.5558 42.7061 34.0209 37.8676 34.0209C35.4945 34.0209 33.9752 36.5464 33.0293 38.3884C31.7353 40.9082 31.7478 44.2141 31.7478 46.9667C31.7478 51.56 31.6314 56.1643 31.9701 60.7363C32.2189 64.0958 31.7474 67.2942 32.9246 70.5568C33.495 72.1374 34.5341 74.0165 34.5723 75.7351C34.6094 77.4029 34.5723 79.0755 34.5723 80.7435C34.5723 82.4402 34.0685 84.1955 33.7615 85.8564C33.3989 87.8188 33.5518 89.7322 33.2646 91.7016C32.4171 97.5131 30.4847 102.769 31.6954 108.688C32.3799 112.034 34.0064 115.324 37.5145 116.403C39.7862 117.102 42.1416 116.874 44.5105 116.874C48.5116 116.874 52.5584 117.056 56.554 116.861C58.0031 116.79 59.4054 116.396 60.8301 116.168C62.4583 115.907 64.0463 115.933 65.6945 115.933C69.4413 115.933 73.5592 116.409 77.2542 115.697C81.2189 114.933 85.7266 114.756 89.7685 114.756C93.2765 114.756 96.7875 114.711 100.295 114.756C103.554 114.797 106.742 115.462 110.024 115.462C112.169 115.462 116.613 115.72 118.014 113.696C118.792 112.572 118.838 111.257 118.838 109.943C118.838 108.489 118.195 107.266 118.132 105.864C118.001 102.987 117.661 100.133 117.661 97.2199C117.661 94.1034 117.661 90.9868 117.661 87.8702C117.661 84.4322 117.233 81.0481 117.19 77.6443C117.172 76.1674 116.719 74.8147 116.719 73.329C116.719 72.2039 117.19 71.1516 117.19 70.0338C117.19 67.3598 117.661 64.7977 117.661 62.1355C117.661 57.4279 117.661 52.7204 117.661 48.0128C117.661 45.8247 117.661 43.6365 117.661 41.4484C117.661 40.4048 117.19 39.486 117.19 38.4931" stroke="black" stroke-opacity="0.3" stroke-linecap="round" stroke-linejoin="round"/>
<path d="M108.481 111.696C109.492 109.751 111.18 108.291 112.718 106.753" stroke="black" stroke-opacity="0.3" stroke-linecap="round" stroke-linejoin="round"/>
<path d="M102.361 111.46C104.212 108.471 106.889 105.756 109.37 103.274C110.37 102.275 110.95 101.499 111.776 100.398" stroke="black" stroke-opacity="0.3" stroke-linecap="round" stroke-linejoin="round"/>
<path d="M38.0867 65.619C38.0867 69.4269 38.0682 73.2239 38.2427 77.0271C38.3559 79.4949 38.4377 81.9361 38.4377 84.4082C38.4377 88.7352 38.5254 93.0576 38.5254 97.3861C38.5254 99.6869 38.5453 101.989 38.5254 104.289C38.5174 105.224 38.4061 106.165 38.2622 107.088C38.2152 107.389 38.2233 107.726 38.1062 108.004C38.0566 108.122 38.0617 108.386 38.0867 108.511C38.1489 108.823 40.5069 108.391 40.6901 108.375C45.5433 107.952 50.4196 108.092 55.2865 108.092C59.6314 108.092 63.9747 108.019 68.3132 108.287C70.0966 108.397 71.8994 108.49 73.676 108.687C74.4569 108.774 75.2907 108.584 76.0648 108.511C78.569 108.278 81.0898 108.355 83.602 108.355C88.5617 108.355 93.5215 108.355 98.4812 108.355C101.994 108.355 105.637 108.102 109.124 108.619C109.362 108.654 109.875 108.631 110.089 108.75C110.406 108.926 110.309 108.293 110.309 108.136C110.309 107.24 110.258 106.35 110.221 105.455C110.096 102.471 110.005 99.5005 109.953 96.5135C109.884 92.5537 109.607 88.6081 109.607 84.6422C109.607 81.8789 109.566 79.1123 109.611 76.3494C109.645 74.2926 109.857 72.2113 110.001 70.1579C110.095 68.825 110.083 67.4906 110.216 66.1602C110.235 65.966 110.221 65.7653 110.221 65.5703C110.221 65.1664 108.839 65.3558 108.627 65.3558C106.474 65.3558 104.334 65.353 102.186 65.1803C100.387 65.0355 98.596 64.6541 96.7944 64.5757C95.702 64.5282 94.6018 64.566 93.5085 64.566C92.1576 64.566 90.829 64.8729 89.4864 64.995C86.0066 65.3113 82.4906 65.268 78.9997 65.268C78.1278 65.268 77.2326 65.2148 76.3622 65.2826C75.4454 65.3541 74.5359 65.6173 73.637 65.7945C72.1368 66.0904 70.6274 66.3514 69.1079 66.5258C65.9605 66.8872 62.8195 66.6721 59.6645 66.6721C56.7456 66.6721 53.891 66.1051 51.0012 65.7555C49.1945 65.537 47.3846 65.4435 45.5653 65.4435C44.7138 65.4435 43.8875 65.268 43.0399 65.268C41.5016 65.268 39.969 65.0925 38.4377 65.0925" stroke="black" stroke-opacity="0.3" stroke-linecap="round" stroke-linejoin="round"/>
</svg>
