<svg width="320" height="160" viewBox="0 0 320 160" fill="none" xmlns="http://www.w3.org/2000/svg">
<rect width="320" height="160" fill="#15D44B"/>
<path d="M42.604 85.824C42.856 84.996 43.084 84.108 43.3 83.232H43.348C43.576 84.096 43.804 84.996 44.056 85.824L44.332 86.784H42.328L42.604 85.824ZM39.976 90H41.392L42.004 87.876H44.644L45.256 90H46.72L44.164 82.152H42.532L39.976 90ZM50.0898 90H51.4818V86.724H54.3378V85.548H51.4818V83.328H54.8298V82.152H50.0898V90ZM55.8526 90H57.2326V86.4C57.5926 85.512 58.1566 85.188 58.6246 85.188C58.8766 85.188 59.0326 85.224 59.2366 85.284L59.4766 84.084C59.2966 84 59.1046 83.964 58.8046 83.964C58.1806 83.964 57.5566 84.384 57.1366 85.152H57.0886L56.9926 84.108H55.8526V90ZM61.4407 90.144C62.1367 90.144 62.7367 89.796 63.2647 89.352H63.3127L63.4087 90H64.5487V86.508C64.5487 84.864 63.8167 83.964 62.3527 83.964C61.4167 83.964 60.5767 84.324 59.9287 84.732L60.4327 85.656C60.9607 85.344 61.5127 85.08 62.0887 85.08C62.8927 85.08 63.1447 85.608 63.1687 86.232C60.7447 86.496 59.7007 87.156 59.7007 88.416C59.7007 89.448 60.4087 90.144 61.4407 90.144ZM61.8847 89.064C61.3927 89.064 61.0327 88.836 61.0327 88.308C61.0327 87.72 61.5607 87.3 63.1687 87.096V88.416C62.7247 88.824 62.3647 89.064 61.8847 89.064ZM66.2002 90H67.5802V85.884C68.0362 85.392 68.4562 85.152 68.8162 85.152C69.4402 85.152 69.7282 85.512 69.7282 86.484V90H71.1082V85.884C71.5642 85.392 71.9722 85.152 72.3442 85.152C72.9562 85.152 73.2442 85.512 73.2442 86.484V90H74.6362V86.304C74.6362 84.816 74.0602 83.964 72.8122 83.964C72.0682 83.964 71.4802 84.42 70.9162 85.02C70.6402 84.36 70.1482 83.964 69.2842 83.964C68.5522 83.964 67.9762 84.384 67.4842 84.912H67.4362L67.3402 84.108H66.2002V90ZM78.8335 90.144C79.5775 90.144 80.2855 89.88 80.8495 89.508L80.3815 88.644C79.9495 88.92 79.5175 89.076 79.0135 89.076C78.0655 89.076 77.3935 88.476 77.2735 87.432H81.0175C81.0535 87.288 81.0775 87.024 81.0775 86.76C81.0775 85.116 80.2375 83.964 78.6415 83.964C77.2615 83.964 75.9295 85.14 75.9295 87.06C75.9295 89.004 77.2015 90.144 78.8335 90.144ZM77.2615 86.496C77.3815 85.548 77.9815 85.032 78.6775 85.032C79.4815 85.032 79.8775 85.584 79.8775 86.496H77.2615ZM83.3675 90H84.9515L85.6235 87.264C85.7555 86.712 85.8635 86.16 85.9715 85.536H86.0195C86.1515 86.16 86.2475 86.7 86.3795 87.252L87.0635 90H88.7075L90.2075 84.108H88.9115L88.2035 87.168C88.0955 87.732 87.9995 88.284 87.8915 88.86H87.8435C87.7115 88.284 87.5915 87.732 87.4475 87.168L86.6675 84.108H85.4075L84.6395 87.168C84.4955 87.72 84.3755 88.284 84.2675 88.86H84.2195C84.1115 88.284 84.0275 87.732 83.9075 87.168L83.1995 84.108H81.8075L83.3675 90ZM93.7138 90.144C95.1898 90.144 96.5218 89.016 96.5218 87.06C96.5218 85.092 95.1898 83.964 93.7138 83.964C92.2498 83.964 90.9178 85.092 90.9178 87.06C90.9178 89.016 92.2498 90.144 93.7138 90.144ZM93.7138 89.016C92.8498 89.016 92.3338 88.236 92.3338 87.06C92.3338 85.872 92.8498 85.092 93.7138 85.092C94.5778 85.092 95.1058 85.872 95.1058 87.06C95.1058 88.236 94.5778 89.016 93.7138 89.016ZM97.8877 90H99.2677V86.4C99.6277 85.512 100.192 85.188 100.66 85.188C100.912 85.188 101.068 85.224 101.272 85.284L101.512 84.084C101.332 84 101.14 83.964 100.84 83.964C100.216 83.964 99.5917 84.384 99.1717 85.152H99.1237L99.0277 84.108H97.8877V90ZM102.364 90H103.72V88.5L104.644 87.444L106.156 90H107.656L105.436 86.508L107.452 84.108H105.94L103.756 86.82H103.72V81.528H102.364V90ZM113.112 90.144C113.58 90.144 113.988 90.036 114.312 89.928L114.072 88.908C113.904 88.98 113.664 89.04 113.46 89.04C112.896 89.04 112.632 88.704 112.632 88.008V85.2H114.132V84.108H112.632V82.5H111.48L111.312 84.108L110.4 84.168V85.2H111.24V88.008C111.24 89.28 111.744 90.144 113.112 90.144ZM117.597 90.144C119.073 90.144 120.405 89.016 120.405 87.06C120.405 85.092 119.073 83.964 117.597 83.964C116.133 83.964 114.801 85.092 114.801 87.06C114.801 89.016 116.133 90.144 117.597 90.144ZM117.597 89.016C116.733 89.016 116.217 88.236 116.217 87.06C116.217 85.872 116.733 85.092 117.597 85.092C118.461 85.092 118.989 85.872 118.989 87.06C118.989 88.236 118.461 89.016 117.597 89.016ZM127.425 90.144C128.433 90.144 129.261 89.736 129.897 89.004L129.153 88.128C128.709 88.608 128.169 88.932 127.473 88.932C126.153 88.932 125.313 87.852 125.313 86.064C125.313 84.3 126.225 83.22 127.509 83.22C128.121 83.22 128.589 83.496 128.997 83.904L129.741 83.004C129.249 82.476 128.457 82.008 127.473 82.008C125.493 82.008 123.885 83.532 123.885 86.1C123.885 88.704 125.445 90.144 127.425 90.144ZM133.499 90.144C134.975 90.144 136.307 89.016 136.307 87.06C136.307 85.092 134.975 83.964 133.499 83.964C132.035 83.964 130.703 85.092 130.703 87.06C130.703 89.016 132.035 90.144 133.499 90.144ZM133.499 89.016C132.635 89.016 132.119 88.236 132.119 87.06C132.119 85.872 132.635 85.092 133.499 85.092C134.363 85.092 134.891 85.872 134.891 87.06C134.891 88.236 134.363 89.016 133.499 89.016ZM137.673 90H139.053V85.884C139.509 85.392 139.929 85.152 140.289 85.152C140.913 85.152 141.201 85.512 141.201 86.484V90H142.581V85.884C143.037 85.392 143.445 85.152 143.817 85.152C144.429 85.152 144.717 85.512 144.717 86.484V90H146.109V86.304C146.109 84.816 145.533 83.964 144.285 83.964C143.541 83.964 142.953 84.42 142.389 85.02C142.113 84.36 141.621 83.964 140.757 83.964C140.025 83.964 139.449 84.384 138.957 84.912H138.909L138.813 84.108H137.673V90ZM147.786 92.328H149.166V90.48L149.13 89.496C149.61 89.904 150.126 90.144 150.642 90.144C151.95 90.144 153.162 88.98 153.162 86.964C153.162 85.14 152.31 83.964 150.846 83.964C150.198 83.964 149.562 84.312 149.07 84.732H149.022L148.926 84.108H147.786V92.328ZM150.354 89.004C150.006 89.004 149.598 88.872 149.166 88.512V85.764C149.622 85.32 150.03 85.104 150.462 85.104C151.35 85.104 151.734 85.8 151.734 86.976C151.734 88.308 151.134 89.004 150.354 89.004ZM156.972 90.144C158.448 90.144 159.78 89.016 159.78 87.06C159.78 85.092 158.448 83.964 156.972 83.964C155.508 83.964 154.176 85.092 154.176 87.06C154.176 89.016 155.508 90.144 156.972 90.144ZM156.972 89.016C156.108 89.016 155.592 88.236 155.592 87.06C155.592 85.872 156.108 85.092 156.972 85.092C157.836 85.092 158.364 85.872 158.364 87.06C158.364 88.236 157.836 89.016 156.972 89.016ZM162.743 90.144C164.231 90.144 165.035 89.328 165.035 88.32C165.035 87.216 164.147 86.832 163.343 86.532C162.707 86.304 162.119 86.124 162.119 85.656C162.119 85.284 162.395 85.008 162.983 85.008C163.451 85.008 163.871 85.212 164.279 85.512L164.915 84.672C164.435 84.3 163.775 83.964 162.959 83.964C161.639 83.964 160.811 84.696 160.811 85.728C160.811 86.712 161.687 87.156 162.467 87.444C163.091 87.684 163.727 87.9 163.727 88.392C163.727 88.8 163.427 89.1 162.791 89.1C162.191 89.1 161.687 88.848 161.159 88.44L160.511 89.328C161.087 89.796 161.939 90.144 162.743 90.144ZM168.787 90.144C169.531 90.144 170.239 89.88 170.803 89.508L170.335 88.644C169.903 88.92 169.471 89.076 168.967 89.076C168.019 89.076 167.347 88.476 167.227 87.432H170.971C171.007 87.288 171.031 87.024 171.031 86.76C171.031 85.116 170.191 83.964 168.595 83.964C167.215 83.964 165.883 85.14 165.883 87.06C165.883 89.004 167.155 90.144 168.787 90.144ZM167.215 86.496C167.335 85.548 167.935 85.032 168.631 85.032C169.435 85.032 169.831 85.584 169.831 86.496H167.215ZM174.871 90H176.131V86.412C176.131 85.68 176.011 84.636 175.951 83.916H175.999L176.623 85.74L177.919 89.268H178.747L180.031 85.74L180.667 83.916H180.715C180.643 84.636 180.535 85.68 180.535 86.412V90H181.819V82.152H180.235L178.879 85.992C178.711 86.484 178.555 87.012 178.387 87.528H178.339C178.171 87.012 178.003 86.484 177.835 85.992L176.443 82.152H174.871V90ZM183.692 90H185.072V84.108H183.692V90ZM184.388 83.076C184.88 83.076 185.24 82.752 185.24 82.296C185.24 81.828 184.88 81.504 184.388 81.504C183.896 81.504 183.536 81.828 183.536 82.296C183.536 82.752 183.896 83.076 184.388 83.076ZM189.293 90.144C189.965 90.144 190.661 89.904 191.213 89.424L190.649 88.512C190.313 88.788 189.893 89.016 189.437 89.016C188.513 89.016 187.865 88.236 187.865 87.06C187.865 85.872 188.525 85.092 189.473 85.092C189.845 85.092 190.145 85.248 190.457 85.524L191.129 84.624C190.697 84.252 190.157 83.964 189.401 83.964C187.829 83.964 186.449 85.092 186.449 87.06C186.449 89.016 187.685 90.144 189.293 90.144ZM192.376 90H193.756V86.4C194.116 85.512 194.68 85.188 195.148 85.188C195.4 85.188 195.556 85.224 195.76 85.284L196 84.084C195.82 84 195.628 83.964 195.328 83.964C194.704 83.964 194.08 84.384 193.66 85.152H193.612L193.516 84.108H192.376V90ZM199.147 90.144C200.623 90.144 201.955 89.016 201.955 87.06C201.955 85.092 200.623 83.964 199.147 83.964C197.683 83.964 196.351 85.092 196.351 87.06C196.351 89.016 197.683 90.144 199.147 90.144ZM199.147 89.016C198.283 89.016 197.767 88.236 197.767 87.06C197.767 85.872 198.283 85.092 199.147 85.092C200.011 85.092 200.539 85.872 200.539 87.06C200.539 88.236 200.011 89.016 199.147 89.016ZM203.514 90H204.894V85.2H206.046V84.108H204.894V83.472C204.894 82.788 205.158 82.476 205.638 82.476C205.842 82.476 206.07 82.524 206.286 82.62L206.55 81.588C206.286 81.48 205.89 81.384 205.47 81.384C204.078 81.384 203.514 82.272 203.514 83.496V84.108L202.722 84.168V85.2H203.514V90ZM207.083 90H208.463V86.4C208.823 85.512 209.387 85.188 209.855 85.188C210.107 85.188 210.263 85.224 210.467 85.284L210.707 84.084C210.527 84 210.335 83.964 210.035 83.964C209.411 83.964 208.787 84.384 208.367 85.152H208.319L208.223 84.108H207.083V90ZM213.854 90.144C215.33 90.144 216.662 89.016 216.662 87.06C216.662 85.092 215.33 83.964 213.854 83.964C212.39 83.964 211.058 85.092 211.058 87.06C211.058 89.016 212.39 90.144 213.854 90.144ZM213.854 89.016C212.99 89.016 212.474 88.236 212.474 87.06C212.474 85.872 212.99 85.092 213.854 85.092C214.718 85.092 215.246 85.872 215.246 87.06C215.246 88.236 214.718 89.016 213.854 89.016ZM218.028 90H219.408V85.884C219.9 85.404 220.236 85.152 220.752 85.152C221.4 85.152 221.676 85.512 221.676 86.484V90H223.056V86.304C223.056 84.816 222.504 83.964 221.244 83.964C220.44 83.964 219.84 84.384 219.312 84.9H219.264L219.168 84.108H218.028V90ZM226.819 90.144C227.287 90.144 227.695 90.036 228.019 89.928L227.779 88.908C227.611 88.98 227.371 89.04 227.167 89.04C226.603 89.04 226.339 88.704 226.339 88.008V85.2H227.839V84.108H226.339V82.5H225.187L225.019 84.108L224.107 84.168V85.2H224.947V88.008C224.947 89.28 225.451 90.144 226.819 90.144ZM231.412 90.144C232.156 90.144 232.864 89.88 233.428 89.508L232.96 88.644C232.528 88.92 232.096 89.076 231.592 89.076C230.644 89.076 229.972 88.476 229.852 87.432H233.596C233.632 87.288 233.656 87.024 233.656 86.76C233.656 85.116 232.816 83.964 231.22 83.964C229.84 83.964 228.508 85.14 228.508 87.06C228.508 89.004 229.78 90.144 231.412 90.144ZM229.84 86.496C229.96 85.548 230.56 85.032 231.256 85.032C232.06 85.032 232.456 85.584 232.456 86.496H229.84ZM234.974 90H236.354V85.884C236.846 85.404 237.182 85.152 237.698 85.152C238.346 85.152 238.622 85.512 238.622 86.484V90H240.002V86.304C240.002 84.816 239.45 83.964 238.19 83.964C237.386 83.964 236.786 84.384 236.258 84.9H236.21L236.114 84.108H234.974V90ZM243.753 90.144C244.389 90.144 244.989 89.796 245.421 89.364H245.469L245.565 90H246.705V81.528H245.325V83.664L245.373 84.612C244.917 84.216 244.497 83.964 243.825 83.964C242.541 83.964 241.329 85.14 241.329 87.06C241.329 89.004 242.277 90.144 243.753 90.144ZM244.089 89.004C243.237 89.004 242.757 88.32 242.757 87.048C242.757 85.812 243.369 85.104 244.125 85.104C244.521 85.104 244.917 85.236 245.325 85.596V88.344C244.929 88.8 244.545 89.004 244.089 89.004ZM250.106 90.144C251.594 90.144 252.398 89.328 252.398 88.32C252.398 87.216 251.51 86.832 250.706 86.532C250.07 86.304 249.482 86.124 249.482 85.656C249.482 85.284 249.758 85.008 250.346 85.008C250.814 85.008 251.234 85.212 251.642 85.512L252.278 84.672C251.798 84.3 251.138 83.964 250.322 83.964C249.002 83.964 248.174 84.696 248.174 85.728C248.174 86.712 249.05 87.156 249.83 87.444C250.454 87.684 251.09 87.9 251.09 88.392C251.09 88.8 250.79 89.1 250.154 89.1C249.554 89.1 249.05 88.848 248.522 88.44L247.874 89.328C248.45 89.796 249.302 90.144 250.106 90.144Z" fill="white"/>
<path d="M105.832 57.384C110.824 57.384 113.704 54.376 113.704 50.92C113.704 47.976 112.104 46.28 109.576 45.256L106.888 44.168C105.096 43.432 103.72 42.984 103.72 41.704C103.72 40.52 104.744 39.816 106.376 39.816C108.04 39.816 109.32 40.424 110.696 41.48L113.096 38.504C111.304 36.712 108.776 35.752 106.376 35.752C102.024 35.752 98.952 38.504 98.952 41.96C98.952 45 101 46.792 103.144 47.656L105.864 48.808C107.688 49.576 108.872 49.992 108.872 51.304C108.872 52.552 107.912 53.32 105.96 53.32C104.232 53.32 102.312 52.424 100.808 51.144L98.12 54.376C100.232 56.36 103.112 57.384 105.832 57.384ZM121.629 57.384C123.805 57.384 125.277 56.392 126.621 54.792H126.717L127.069 57H130.909V41.128H126.205V51.624C125.277 52.872 124.573 53.384 123.389 53.384C122.013 53.384 121.405 52.648 121.405 50.376V41.128H116.701V50.984C116.701 54.952 118.173 57.384 121.629 57.384ZM135.049 62.888H139.753V58.248L139.593 55.72C140.713 56.776 141.993 57.384 143.369 57.384C146.793 57.384 150.057 54.248 150.057 48.808C150.057 43.912 147.689 40.744 143.849 40.744C142.185 40.744 140.585 41.576 139.337 42.696H139.209L138.889 41.128H135.049V62.888ZM142.281 53.544C141.481 53.544 140.585 53.288 139.753 52.52V46.024C140.681 45.032 141.513 44.584 142.473 44.584C144.361 44.584 145.225 46.024 145.225 48.872C145.225 52.136 143.913 53.544 142.281 53.544ZM160.497 57.384C162.385 57.384 164.497 56.712 166.129 55.592L164.561 52.744C163.409 53.448 162.321 53.8 161.137 53.8C159.025 53.8 157.425 52.744 157.009 50.44H166.513C166.609 50.056 166.705 49.192 166.705 48.36C166.705 44.04 164.465 40.744 159.953 40.744C156.145 40.744 152.465 43.912 152.465 49.064C152.465 54.312 155.953 57.384 160.497 57.384ZM156.977 47.336C157.297 45.32 158.577 44.328 160.049 44.328C161.937 44.328 162.705 45.576 162.705 47.336H156.977ZM169.955 57H174.659V47.784C175.491 45.64 176.963 44.872 178.147 44.872C178.819 44.872 179.299 44.968 179.875 45.128L180.643 41.064C180.195 40.872 179.651 40.744 178.755 40.744C177.123 40.744 175.395 41.768 174.243 43.912H174.115L173.795 41.128H169.955V57ZM191.025 57.384C194.449 57.384 197.713 54.248 197.713 48.776C197.713 43.912 195.313 40.744 191.473 40.744C190.001 40.744 188.497 41.416 187.281 42.504L187.409 40.072V34.568H182.705V57H186.385L186.769 55.304H186.897C188.145 56.68 189.617 57.384 191.025 57.384ZM189.937 53.544C189.137 53.544 188.241 53.288 187.409 52.52V46.024C188.305 45.032 189.169 44.584 190.129 44.584C192.017 44.584 192.881 46.024 192.881 48.872C192.881 52.136 191.569 53.544 189.937 53.544ZM205.369 57.384C206.425 57.384 207.225 57.224 207.737 57L207.161 53.512C206.905 53.576 206.777 53.576 206.585 53.576C206.201 53.576 205.753 53.256 205.753 52.264V34.568H201.049V52.072C201.049 55.272 202.137 57.384 205.369 57.384ZM217.021 57.384C221.021 57.384 224.733 54.344 224.733 49.064C224.733 43.784 221.021 40.744 217.021 40.744C212.989 40.744 209.277 43.784 209.277 49.064C209.277 54.344 212.989 57.384 217.021 57.384ZM217.021 53.576C215.069 53.576 214.109 51.816 214.109 49.064C214.109 46.312 215.069 44.552 217.021 44.552C218.941 44.552 219.933 46.312 219.933 49.064C219.933 51.816 218.941 53.576 217.021 53.576ZM234.867 57.384C236.595 57.384 238.547 56.872 240.115 55.496L238.259 52.424C237.427 53.064 236.435 53.576 235.411 53.576C233.363 53.576 231.859 51.816 231.859 49.064C231.859 46.312 233.299 44.552 235.571 44.552C236.307 44.552 236.947 44.84 237.715 45.48L239.923 42.44C238.739 41.448 237.235 40.744 235.283 40.744C230.899 40.744 227.027 43.784 227.027 49.064C227.027 54.344 230.451 57.384 234.867 57.384ZM242.893 57H247.469V53.096L249.485 50.824L253.069 57H258.157L252.173 47.656L257.741 41.128H252.621L247.597 47.432H247.469V34.568H242.893V57ZM265.096 57.384C269.352 57.384 271.624 55.144 271.624 52.264C271.624 49.352 269.352 48.232 267.336 47.496C265.704 46.888 264.232 46.504 264.232 45.48C264.232 44.68 264.808 44.232 266.024 44.232C267.144 44.232 268.232 44.744 269.384 45.576L271.496 42.76C270.12 41.736 268.328 40.744 265.896 40.744C262.216 40.744 259.816 42.76 259.816 45.704C259.816 48.328 262.088 49.64 264.008 50.376C265.64 51.016 267.24 51.496 267.24 52.552C267.24 53.384 266.632 53.896 265.224 53.896C263.88 53.896 262.568 53.32 261.128 52.232L259.016 55.176C260.616 56.488 263.016 57.384 265.096 57.384Z" fill="white"/>
<path fill-rule="evenodd" clip-rule="evenodd" d="M46 25.0352C42.6863 25.0352 40 27.7214 40 31.0352V61.4045C40 64.7182 42.6863 67.4045 46 67.4045H76.3694C79.6831 67.4045 82.3694 64.7182 82.3694 61.4045V31.0352C82.3694 27.7214 79.6831 25.0352 76.3694 25.0352H46ZM53.1143 33.1055C53.1143 35.8912 50.856 38.1495 48.0703 38.1495C45.2846 38.1495 43.0264 35.8912 43.0264 33.1055C43.0264 30.3198 45.2846 28.0615 48.0703 28.0615C50.856 28.0615 53.1143 30.3198 53.1143 33.1055ZM66.2286 33.1055C66.2286 35.8912 63.9704 38.1495 61.1847 38.1495C58.399 38.1495 56.1407 35.8912 56.1407 33.1055C56.1407 30.3198 58.399 28.0615 61.1847 28.0615C63.9704 28.0615 66.2286 30.3198 66.2286 33.1055Z" fill="white"/>
<path d="M107.528 131.144C109.724 131.144 111.44 128.9 111.44 126.308C111.44 124.28 110.384 123.008 108.608 123.008C106.424 123.008 104.696 125.252 104.696 127.844C104.696 129.872 105.764 131.144 107.528 131.144ZM107.6 130.028C106.544 130.028 106.028 129.14 106.028 127.748C106.028 125.924 107.144 124.124 108.536 124.124C109.592 124.124 110.12 125.012 110.12 126.404C110.12 128.228 108.992 130.028 107.6 130.028ZM113.378 130.376H113.402C113.69 130.832 114.158 131.144 114.71 131.144C116.33 131.144 117.866 129.368 117.866 127.112C117.866 125.732 117.23 124.964 116.186 124.964C115.514 124.964 114.842 125.336 114.278 125.828H114.242L114.266 125.108H113.222L111.566 133.328H112.85L113.186 131.576L113.378 130.376ZM115.658 126.02C116.198 126.02 116.546 126.428 116.546 127.28C116.546 128.804 115.622 130.088 114.626 130.088C114.254 130.088 113.906 129.884 113.654 129.392L114.158 126.872C114.602 126.296 115.202 126.02 115.658 126.02ZM118.693 128.648C118.693 130.232 119.653 131.144 121.057 131.144C121.897 131.144 122.593 130.856 123.073 130.52L122.593 129.692C122.269 129.932 121.813 130.16 121.393 130.16C120.505 130.16 119.809 129.632 119.941 128.384H123.529C123.613 128.192 123.781 127.652 123.781 127.136C123.781 125.912 123.277 124.964 121.909 124.964C120.361 124.964 118.693 126.452 118.693 128.648ZM120.049 127.568C120.337 126.56 121.045 125.96 121.753 125.96C122.473 125.96 122.713 126.476 122.713 127.052C122.713 127.244 122.689 127.412 122.653 127.568H120.049ZM124.42 131H125.716L126.508 126.98C127.132 126.344 127.588 126.068 127.996 126.068C128.5 126.068 128.74 126.32 128.74 126.824C128.74 127.004 128.692 127.172 128.644 127.448L127.924 131H129.208L129.952 127.28C130.024 126.968 130.048 126.728 130.048 126.452C130.048 125.504 129.64 124.964 128.656 124.964C127.912 124.964 127.252 125.408 126.628 125.936H126.58L126.64 125.108H125.596L124.42 131ZM134.961 131.144C136.317 131.144 137.301 130.4 137.301 129.26C137.301 128.54 136.869 128.072 135.993 127.604C135.489 127.316 134.985 127.112 134.985 126.68C134.985 126.272 135.381 125.936 135.921 125.936C136.389 125.936 136.749 126.188 137.049 126.488L137.769 125.804C137.313 125.324 136.689 124.964 135.921 124.964C134.745 124.964 133.773 125.732 133.773 126.8C133.773 127.508 134.253 128 135.033 128.432C135.777 128.84 136.089 129.044 136.089 129.416C136.089 129.848 135.609 130.184 135.057 130.184C134.529 130.184 134.049 129.896 133.665 129.392L132.897 130.016C133.341 130.688 134.217 131.144 134.961 131.144ZM140.53 131.144C142.15 131.144 143.782 129.608 143.782 127.364C143.782 125.888 142.906 124.964 141.574 124.964C139.966 124.964 138.334 126.488 138.334 128.744C138.334 130.208 139.21 131.144 140.53 131.144ZM140.674 130.1C139.99 130.1 139.63 129.584 139.63 128.696C139.63 127.196 140.506 126.008 141.442 126.008C142.114 126.008 142.474 126.512 142.474 127.4C142.474 128.912 141.61 130.1 140.674 130.1ZM150.363 125.108H149.079L148.287 129.128C147.699 129.752 147.231 130.04 146.835 130.04C146.343 130.04 146.103 129.788 146.103 129.284C146.103 129.104 146.139 128.936 146.199 128.66L146.907 125.108H145.623L144.879 128.828C144.819 129.128 144.783 129.38 144.783 129.656C144.783 130.592 145.203 131.144 146.187 131.144C146.895 131.144 147.567 130.688 148.155 130.16H148.203L148.155 131H149.199L150.363 125.108ZM150.928 131H152.224L152.92 127.436C153.4 126.536 153.964 126.104 154.516 126.104C154.72 126.104 154.924 126.128 155.068 126.2L155.5 125.072C155.344 125 155.164 124.964 154.912 124.964C154.204 124.964 153.556 125.516 153.088 126.248H153.04L153.148 125.108H152.104L150.928 131ZM157.546 131.144C158.434 131.144 159.034 130.784 159.478 130.46L158.926 129.644C158.626 129.884 158.266 130.1 157.81 130.1C157.018 130.1 156.622 129.584 156.622 128.696C156.622 127.232 157.546 126.008 158.602 126.008C158.998 126.008 159.238 126.152 159.514 126.464L160.234 125.684C159.91 125.3 159.406 124.964 158.686 124.964C156.85 124.964 155.302 126.632 155.302 128.744C155.302 130.268 156.25 131.144 157.546 131.144ZM160.4 128.648C160.4 130.232 161.36 131.144 162.764 131.144C163.604 131.144 164.3 130.856 164.78 130.52L164.3 129.692C163.976 129.932 163.52 130.16 163.1 130.16C162.212 130.16 161.516 129.632 161.648 128.384H165.236C165.32 128.192 165.488 127.652 165.488 127.136C165.488 125.912 164.984 124.964 163.616 124.964C162.068 124.964 160.4 126.452 160.4 128.648ZM161.756 127.568C162.044 126.56 162.752 125.96 163.46 125.96C164.18 125.96 164.42 126.476 164.42 127.052C164.42 127.244 164.396 127.412 164.36 127.568H161.756ZM170.783 125.744H170.747C170.495 125.276 170.027 124.964 169.451 124.964C167.819 124.964 166.283 126.74 166.283 128.996C166.283 130.376 166.931 131.144 167.963 131.144C168.635 131.144 169.355 130.76 169.907 130.184H169.943L169.883 131H170.939L172.643 122.528H171.359L170.951 124.616L170.783 125.744ZM168.491 130.088C167.951 130.088 167.615 129.68 167.615 128.816C167.615 127.304 168.527 126.02 169.523 126.02C169.883 126.02 170.255 126.236 170.519 126.74L170.039 129.092C169.547 129.8 168.995 130.088 168.491 130.088ZM176.02 131L176.271 130.316H176.296C176.56 130.82 177.04 131.144 177.628 131.144C179.248 131.144 180.784 129.368 180.784 127.112C180.784 125.72 180.148 124.964 179.104 124.964C178.456 124.964 177.808 125.3 177.256 125.744H177.232L177.52 124.616L177.94 122.528H176.656L174.952 131H176.02ZM178.576 126.02C179.116 126.02 179.464 126.428 179.464 127.28C179.464 128.804 178.54 130.088 177.544 130.088C177.172 130.088 176.824 129.872 176.572 129.368L177.076 126.872C177.52 126.296 178.12 126.02 178.576 126.02ZM181.196 133.424C182.372 133.424 183.104 132.596 183.836 131.312L187.148 125.108H185.9L184.436 128.084C184.16 128.636 183.872 129.296 183.608 129.848H183.56C183.536 129.296 183.476 128.612 183.416 128.084L183.044 125.108H181.76L182.78 130.94L182.6 131.3C182.276 131.96 181.784 132.392 181.28 132.392C181.124 132.392 180.968 132.344 180.848 132.272L180.44 133.208C180.668 133.34 181.004 133.424 181.196 133.424Z" fill="white" fill-opacity="0.7"/>
<path d="M226.416 132.192C228.912 132.192 230.352 130.688 230.352 128.96C230.352 127.488 229.552 126.64 228.288 126.128L226.944 125.584C226.048 125.216 225.36 124.992 225.36 124.352C225.36 123.76 225.872 123.408 226.688 123.408C227.52 123.408 228.16 123.712 228.848 124.24L230.048 122.752C229.152 121.856 227.888 121.376 226.688 121.376C224.512 121.376 222.976 122.752 222.976 124.48C222.976 126 224 126.896 225.072 127.328L226.432 127.904C227.344 128.288 227.936 128.496 227.936 129.152C227.936 129.776 227.456 130.16 226.48 130.16C225.616 130.16 224.656 129.712 223.904 129.072L222.56 130.688C223.616 131.68 225.056 132.192 226.416 132.192ZM234.534 132.192C235.302 132.192 235.878 132.032 236.294 131.904L235.926 130.192C235.718 130.272 235.43 130.352 235.174 130.352C234.549 130.352 234.15 129.984 234.15 129.088V125.904H236.054V124.064H234.15V121.952H232.198L231.926 124.064L230.71 124.16V125.904H231.798V129.12C231.798 130.96 232.566 132.192 234.534 132.192ZM240.873 132.192C241.817 132.192 242.873 131.856 243.689 131.296L242.905 129.872C242.329 130.224 241.785 130.4 241.193 130.4C240.137 130.4 239.337 129.872 239.129 128.72H243.881C243.929 128.528 243.977 128.096 243.977 127.68C243.977 125.52 242.857 123.872 240.601 123.872C238.697 123.872 236.857 125.456 236.857 128.032C236.857 130.656 238.601 132.192 240.873 132.192ZM239.113 127.168C239.273 126.16 239.913 125.664 240.649 125.664C241.593 125.664 241.977 126.288 241.977 127.168H239.113ZM245.603 132H247.955V127.392C248.371 126.32 249.107 125.936 249.699 125.936C250.035 125.936 250.275 125.984 250.563 126.064L250.947 124.032C250.723 123.936 250.451 123.872 250.003 123.872C249.187 123.872 248.323 124.384 247.747 125.456H247.683L247.523 124.064H245.603V132ZM256.138 132.192C257.85 132.192 259.482 130.624 259.482 127.888C259.482 125.456 258.282 123.872 256.362 123.872C255.626 123.872 254.874 124.208 254.266 124.752L254.33 123.536V120.784H251.978V132H253.818L254.01 131.152H254.074C254.698 131.84 255.434 132.192 256.138 132.192ZM255.594 130.272C255.194 130.272 254.746 130.144 254.33 129.76V126.512C254.778 126.016 255.21 125.792 255.69 125.792C256.634 125.792 257.066 126.512 257.066 127.936C257.066 129.568 256.41 130.272 255.594 130.272ZM263.309 132.192C263.837 132.192 264.237 132.112 264.493 132L264.205 130.256C264.077 130.288 264.013 130.288 263.917 130.288C263.725 130.288 263.501 130.128 263.501 129.632V120.784H261.149V129.536C261.149 131.136 261.693 132.192 263.309 132.192ZM268.112 132.192C269.2 132.192 269.936 131.696 270.608 130.896H270.656L270.832 132H272.752V124.064H270.4V129.312C269.936 129.936 269.584 130.192 268.992 130.192C268.304 130.192 268 129.824 268 128.688V124.064H265.648V128.992C265.648 130.976 266.384 132.192 268.112 132.192ZM278.373 132.192C279.317 132.192 280.373 131.856 281.189 131.296L280.405 129.872C279.829 130.224 279.285 130.4 278.693 130.4C277.637 130.4 276.837 129.872 276.629 128.72H281.381C281.429 128.528 281.477 128.096 281.477 127.68C281.477 125.52 280.357 123.872 278.101 123.872C276.197 123.872 274.357 125.456 274.357 128.032C274.357 130.656 276.101 132.192 278.373 132.192ZM276.613 127.168C276.773 126.16 277.413 125.664 278.149 125.664C279.093 125.664 279.477 126.288 279.477 127.168H276.613Z" fill="white" fill-opacity="0.7"/>
<path d="M215.996 127.3C215.999 127.2 216 127.1 216 127C216 120.373 210.627 115 204 115C197.373 115 192 120.373 192 127C192 128.824 192.407 130.552 193.135 132.1H198.6C199.76 132.1 200.7 131.16 200.7 130C200.7 128.84 199.76 127.9 198.6 127.9C196.446 127.9 194.7 126.154 194.7 124C194.7 121.846 196.446 120.1 198.6 120.1H200.4C203.548 120.1 206.1 122.652 206.1 125.8V129.4C206.1 130.891 207.309 132.1 208.8 132.1C210.291 132.1 211.5 130.891 211.5 129.4V129.1H210.6C209.109 129.1 207.9 127.891 207.9 126.4C207.9 124.909 209.109 123.7 210.6 123.7C212.091 123.7 213.3 124.909 213.3 126.4V127.3H215.996Z" fill="white" fill-opacity="0.7"/>
<path d="M215.817 129.1H213.3V129.4C213.3 131.885 211.285 133.9 208.8 133.9C206.315 133.9 204.3 131.885 204.3 129.4V125.8C204.3 123.646 202.554 121.9 200.4 121.9H198.6C197.44 121.9 196.5 122.84 196.5 124C196.5 125.16 197.44 126.1 198.6 126.1C200.754 126.1 202.5 127.846 202.5 130C202.5 132.154 200.754 133.9 198.6 133.9H194.181C196.353 136.985 199.941 139 204 139C209.911 139 214.824 134.726 215.817 129.1Z" fill="white" fill-opacity="0.7"/>
<path d="M211.5 126.4V127.3H210.6C210.103 127.3 209.7 126.897 209.7 126.4C209.7 125.903 210.103 125.5 210.6 125.5C211.097 125.5 211.5 125.903 211.5 126.4Z" fill="white" fill-opacity="0.7"/>
</svg>
