<svg width="100" height="100" viewBox="0 0 100 100" fill="none" xmlns="http://www.w3.org/2000/svg">
<path fill-rule="evenodd" clip-rule="evenodd" d="M20 8C13.3726 8 8 13.3726 8 20V80C8 86.6274 13.3726 92 20 92H80C86.6274 92 92 86.6274 92 80V20C92 13.3726 86.6274 8 80 8H20ZM34 24C34 29.5228 29.5228 34 24 34C18.4772 34 14 29.5228 14 24C14 18.4772 18.4772 14 24 14C29.5228 14 34 18.4772 34 24ZM60 24C60 29.5228 55.5228 34 50 34C44.4772 34 40 29.5228 40 24C40 18.4772 44.4772 14 50 14C55.5228 14 60 18.4772 60 24Z" fill="url(#paint0_linear)"/>
<defs>
<linearGradient id="paint0_linear" x1="8" y1="92" x2="92" y2="92" gradientUnits="userSpaceOnUse">
<stop stop-color="#5AFF4C"/>
<stop offset="1" stop-color="#4CFF9E"/>
</linearGradient>
</defs>
</svg>
