<svg width="512" height="100" viewBox="0 0 512 100" fill="none" xmlns="http://www.w3.org/2000/svg">
<path d="M137.664 73.768C147.648 73.768 153.408 67.752 153.408 60.84C153.408 54.952 150.208 51.56 145.152 49.512L139.776 47.336C136.192 45.864 133.44 44.968 133.44 42.408C133.44 40.04 135.488 38.632 138.752 38.632C142.08 38.632 144.64 39.848 147.392 41.96L152.192 36.008C148.608 32.424 143.552 30.504 138.752 30.504C130.048 30.504 123.904 36.008 123.904 42.92C123.904 49 128 52.584 132.288 54.312L137.728 56.616C141.376 58.152 143.744 58.984 143.744 61.608C143.744 64.104 141.824 65.64 137.92 65.64C134.464 65.64 130.624 63.848 127.616 61.288L122.24 67.752C126.464 71.72 132.224 73.768 137.664 73.768ZM169.259 73.768C173.611 73.768 176.555 71.784 179.243 68.584H179.435L180.139 73H187.819V41.256H178.411V62.248C176.555 64.744 175.147 65.768 172.779 65.768C170.027 65.768 168.811 64.296 168.811 59.752V41.256H159.403V60.968C159.403 68.904 162.347 73.768 169.259 73.768ZM196.098 84.776H205.506V75.496L205.186 70.44C207.426 72.552 209.986 73.768 212.738 73.768C219.586 73.768 226.114 67.496 226.114 56.616C226.114 46.824 221.378 40.488 213.698 40.488C210.37 40.488 207.17 42.152 204.674 44.392H204.418L203.778 41.256H196.098V84.776ZM210.562 66.088C208.962 66.088 207.17 65.576 205.506 64.04V51.048C207.362 49.064 209.026 48.168 210.946 48.168C214.722 48.168 216.45 51.048 216.45 56.744C216.45 63.272 213.826 66.088 210.562 66.088ZM246.993 73.768C250.769 73.768 254.993 72.424 258.257 70.184L255.121 64.488C252.817 65.896 250.641 66.6 248.273 66.6C244.049 66.6 240.849 64.488 240.017 59.88H259.025C259.217 59.112 259.409 57.384 259.409 55.72C259.409 47.08 254.929 40.488 245.905 40.488C238.289 40.488 230.929 46.824 230.929 57.128C230.929 67.624 237.905 73.768 246.993 73.768ZM239.953 53.672C240.593 49.64 243.153 47.656 246.097 47.656C249.873 47.656 251.409 50.152 251.409 53.672H239.953ZM265.91 73H275.318V54.568C276.982 50.28 279.926 48.744 282.294 48.744C283.638 48.744 284.598 48.936 285.75 49.256L287.286 41.128C286.39 40.744 285.302 40.488 283.51 40.488C280.246 40.488 276.79 42.536 274.486 46.824H274.23L273.59 41.256H265.91V73ZM308.05 73.768C314.898 73.768 321.426 67.496 321.426 56.552C321.426 46.824 316.626 40.488 308.946 40.488C306.002 40.488 302.994 41.832 300.562 44.008L300.818 39.144V28.136H291.41V73H298.77L299.538 69.608H299.794C302.29 72.36 305.234 73.768 308.05 73.768ZM305.874 66.088C304.274 66.088 302.482 65.576 300.818 64.04V51.048C302.61 49.064 304.338 48.168 306.258 48.168C310.034 48.168 311.762 51.048 311.762 56.744C311.762 63.272 309.138 66.088 305.874 66.088ZM336.738 73.768C338.85 73.768 340.45 73.448 341.474 73L340.322 66.024C339.81 66.152 339.554 66.152 339.17 66.152C338.402 66.152 337.506 65.512 337.506 63.528V28.136H328.098V63.144C328.098 69.544 330.274 73.768 336.738 73.768ZM360.042 73.768C368.042 73.768 375.466 67.688 375.466 57.128C375.466 46.568 368.042 40.488 360.042 40.488C351.978 40.488 344.554 46.568 344.554 57.128C344.554 67.688 351.978 73.768 360.042 73.768ZM360.042 66.152C356.138 66.152 354.218 62.632 354.218 57.128C354.218 51.624 356.138 48.104 360.042 48.104C363.882 48.104 365.866 51.624 365.866 57.128C365.866 62.632 363.882 66.152 360.042 66.152ZM395.734 73.768C399.19 73.768 403.094 72.744 406.23 69.992L402.518 63.848C400.854 65.128 398.87 66.152 396.822 66.152C392.726 66.152 389.718 62.632 389.718 57.128C389.718 51.624 392.598 48.104 397.142 48.104C398.614 48.104 399.894 48.68 401.43 49.96L405.846 43.88C403.478 41.896 400.47 40.488 396.566 40.488C387.798 40.488 380.054 46.568 380.054 57.128C380.054 67.688 386.902 73.768 395.734 73.768ZM411.785 73H420.937V65.192L424.969 60.648L432.137 73H442.313L430.345 54.312L441.481 41.256H431.241L421.193 53.864H420.937V28.136H411.785V73ZM456.192 73.768C464.704 73.768 469.248 69.288 469.248 63.528C469.248 57.704 464.704 55.464 460.672 53.992C457.408 52.776 454.464 52.008 454.464 49.96C454.464 48.36 455.616 47.464 458.048 47.464C460.288 47.464 462.464 48.488 464.768 50.152L468.992 44.52C466.24 42.472 462.656 40.488 457.792 40.488C450.432 40.488 445.632 44.52 445.632 50.408C445.632 55.656 450.176 58.28 454.016 59.752C457.28 61.032 460.48 61.992 460.48 64.104C460.48 65.768 459.264 66.792 456.448 66.792C453.76 66.792 451.135 65.64 448.256 63.464L444.032 69.352C447.232 71.976 452.032 73.768 456.192 73.768Z" fill="#81F181"/>
<path fill-rule="evenodd" clip-rule="evenodd" d="M20 8C13.3726 8 8 13.3726 8 20V80C8 86.6274 13.3726 92 20 92H80C86.6274 92 92 86.6274 92 80V20C92 13.3726 86.6274 8 80 8H20ZM34 24C34 29.5228 29.5228 34 24 34C18.4772 34 14 29.5228 14 24C14 18.4772 18.4772 14 24 14C29.5228 14 34 18.4772 34 24ZM60 24C60 29.5228 55.5228 34 50 34C44.4771 34 40 29.5228 40 24C40 18.4772 44.4771 14 50 14C55.5228 14 60 18.4772 60 24Z" fill="url(#paint0_linear)"/>
<defs>
<linearGradient id="paint0_linear" x1="8" y1="92" x2="92" y2="92" gradientUnits="userSpaceOnUse">
<stop stop-color="#5AFF4C"/>
<stop offset="1" stop-color="#4CFF9E"/>
</linearGradient>
</defs>
</svg>
