<svg width="416" height="100" viewBox="0 0 416 100" fill="none" xmlns="http://www.w3.org/2000/svg">
<path fill-rule="evenodd" clip-rule="evenodd" d="M17 17.6984L17 82.3016C17 90.0825 25.4952 94.8824 32.1601 90.8674L85.7808 58.5658C92.2339 54.6784 92.2339 45.3217 85.7808 41.4342L32.1601 9.13261C25.4952 5.11759 17 9.91758 17 17.6984ZM47 50C47 55.5229 42.5229 60 37 60C31.4772 60 27 55.5229 27 50C27 44.4772 31.4772 40 37 40C42.5229 40 47 44.4772 47 50ZM73 50C73 55.5229 68.5229 60 63 60C57.4772 60 53 55.5229 53 50C53 44.4772 57.4772 40 63 40C68.5229 40 73 44.4772 73 50Z" fill="white"/>
<path d="M137.664 73.768C147.648 73.768 153.408 67.752 153.408 60.84C153.408 54.952 150.208 51.56 145.152 49.512L139.776 47.336C136.192 45.864 133.44 44.968 133.44 42.408C133.44 40.04 135.488 38.632 138.752 38.632C142.08 38.632 144.64 39.848 147.392 41.96L152.192 36.008C148.608 32.424 143.552 30.504 138.752 30.504C130.048 30.504 123.904 36.008 123.904 42.92C123.904 49 128 52.584 132.288 54.312L137.728 56.616C141.376 58.152 143.744 58.984 143.744 61.608C143.744 64.104 141.824 65.64 137.92 65.64C134.464 65.64 130.624 63.848 127.616 61.288L122.24 67.752C126.464 71.72 132.224 73.768 137.664 73.768ZM163.243 85.416C170.731 85.416 174.123 81.32 177.131 73.32L188.139 41.256H179.115L175.275 54.888C174.507 57.896 173.803 60.904 173.099 63.912H172.843C172.01 60.776 171.243 57.768 170.347 54.888L165.803 41.256H156.331L168.555 72.168L168.107 73.832C167.275 76.328 165.675 77.992 162.539 77.992C161.835 77.992 161.003 77.736 160.427 77.608L158.763 84.776C160.043 85.16 161.323 85.416 163.243 85.416ZM193.098 73H202.506V51.56C204.554 49.576 206.026 48.488 208.394 48.488C211.082 48.488 212.298 49.896 212.298 54.504V73H221.706V53.288C221.706 45.352 218.762 40.488 211.85 40.488C207.562 40.488 204.362 42.728 201.674 45.288H201.418L200.778 41.256H193.098V73ZM237.723 73.768C241.307 73.768 244.251 72.104 246.939 69.736H247.195L247.835 73H255.515V54.824C255.515 45.096 251.035 40.488 242.907 40.488C237.915 40.488 233.371 42.216 229.339 44.648L232.731 50.856C235.803 49.064 238.427 47.976 241.115 47.976C244.571 47.976 245.915 49.768 246.107 52.584C233.562 53.864 228.251 57.512 228.251 64.168C228.251 69.544 231.899 73.768 237.723 73.768ZM240.923 66.472C238.683 66.472 237.275 65.512 237.275 63.464C237.275 61.032 239.451 59.112 246.107 58.216V63.784C244.443 65.448 243.035 66.472 240.923 66.472ZM263.473 84.776H272.881V75.496L272.561 70.44C274.801 72.552 277.361 73.768 280.113 73.768C286.961 73.768 293.489 67.496 293.489 56.616C293.489 46.824 288.753 40.488 281.073 40.488C277.745 40.488 274.545 42.152 272.049 44.392H271.793L271.153 41.256H263.473V84.776ZM277.937 66.088C276.337 66.088 274.545 65.576 272.881 64.04V51.048C274.737 49.064 276.401 48.168 278.321 48.168C282.097 48.168 283.825 51.048 283.825 56.744C283.825 63.272 281.201 66.088 277.937 66.088ZM309.192 73.768C317.704 73.768 322.248 69.288 322.248 63.528C322.248 57.704 317.704 55.464 313.672 53.992C310.408 52.776 307.464 52.008 307.464 49.96C307.464 48.36 308.616 47.464 311.048 47.464C313.288 47.464 315.464 48.488 317.768 50.152L321.992 44.52C319.24 42.472 315.656 40.488 310.792 40.488C303.432 40.488 298.632 44.52 298.632 50.408C298.632 55.656 303.176 58.28 307.016 59.752C310.28 61.032 313.48 61.992 313.48 64.104C313.48 65.768 312.264 66.792 309.448 66.792C306.76 66.792 304.135 65.64 301.256 63.464L297.032 69.352C300.232 71.976 305.032 73.768 309.192 73.768ZM342.431 73.768C346.207 73.768 350.431 72.424 353.695 70.184L350.559 64.488C348.255 65.896 346.079 66.6 343.711 66.6C339.487 66.6 336.287 64.488 335.455 59.88H354.463C354.655 59.112 354.847 57.384 354.847 55.72C354.847 47.08 350.367 40.488 341.343 40.488C333.727 40.488 326.367 46.824 326.367 57.128C326.367 67.624 333.343 73.768 342.431 73.768ZM335.391 53.672C336.031 49.64 338.591 47.656 341.535 47.656C345.311 47.656 346.847 50.152 346.847 53.672H335.391ZM370.692 73.768C379.204 73.768 383.748 69.288 383.748 63.528C383.748 57.704 379.204 55.464 375.172 53.992C371.908 52.776 368.964 52.008 368.964 49.96C368.964 48.36 370.116 47.464 372.548 47.464C374.788 47.464 376.964 48.488 379.268 50.152L383.492 44.52C380.74 42.472 377.156 40.488 372.292 40.488C364.932 40.488 360.132 44.52 360.132 50.408C360.132 55.656 364.676 58.28 368.516 59.752C371.78 61.032 374.98 61.992 374.98 64.104C374.98 65.768 373.764 66.792 370.948 66.792C368.26 66.792 365.635 65.64 362.756 63.464L358.532 69.352C361.732 71.976 366.532 73.768 370.692 73.768Z" fill="white"/>
</svg>
