<svg width="150" height="150" viewBox="0 0 150 150" fill="none" xmlns="http://www.w3.org/2000/svg">
<path fill-rule="evenodd" clip-rule="evenodd" d="M39.7419 42.6984L39.7419 107.302C39.7419 115.082 48.2371 119.882 54.9021 115.867L108.523 83.5658C114.976 79.6784 114.976 70.3217 108.523 66.4342L54.9021 34.1326C48.2371 30.1176 39.7419 34.9176 39.7419 42.6984ZM69.7419 75C69.7419 80.5229 65.2647 85 59.7419 85C54.219 85 49.7419 80.5229 49.7419 75C49.7419 69.4772 54.219 65 59.7419 65C65.2647 65 69.7419 69.4772 69.7419 75ZM95.7419 75C95.7419 80.5229 91.2647 85 85.7419 85C80.219 85 75.7419 80.5229 75.7419 75C75.7419 69.4772 80.219 65 85.7419 65C91.2647 65 95.7419 69.4772 95.7419 75Z" fill="#44A5FF"/>
<path d="M50.1432 65.8685C50.1432 67.9823 50.1432 70.0961 50.1432 72.2099C50.1432 74.1706 49.9684 76.2267 50.2074 78.1727C50.4526 80.1697 50.9519 82.0532 50.9519 84.0649C50.9519 84.7999 53.3185 84.1739 53.7504 84.1484C56.6812 83.9748 59.5426 84.4883 62.4539 84.6747C64.3582 84.7965 66.2906 85.0469 68.192 85.0469C68.3748 85.0469 68.5615 85.0577 68.744 85.0469C68.9793 85.0331 68.9039 83.8226 68.9173 83.667C69.0859 81.7113 68.9751 79.7116 68.9751 77.7491C68.9751 76.6687 68.9751 75.5882 68.9751 74.5078C68.9751 73.3994 69.0991 72.2115 68.8531 71.1252C68.4934 69.5364 68.0508 67.9694 68.0508 66.337C68.0508 65.4727 68.2658 65.1659 67.2806 65.1753C63.9872 65.2066 60.7361 65.735 57.4603 65.9583C55.3461 66.1025 53.1888 65.984 51.0675 65.984" stroke="black" stroke-linecap="round" stroke-linejoin="round"/>
<path d="M76.2536 66.7926C76.2536 70.951 76.0161 75.1817 76.2793 79.3343C76.3517 80.4763 76.7896 81.636 76.8313 82.7618C76.8463 83.1669 76.8313 83.5761 76.8313 83.9813C76.8313 84.4653 76.6172 85.071 77.2292 85.0404C80.6028 84.8717 83.9627 84.6438 87.3384 84.989C89.3966 85.1996 91.4022 85.2779 93.4681 85.2779C93.8831 85.2779 94.2982 85.2779 94.7132 85.2779C95.1326 85.2779 94.97 84.7303 94.97 84.4178C94.97 82.3839 94.6234 80.3866 94.6234 78.3459C94.6234 75.3822 94.3923 72.4311 94.3923 69.4627C94.3923 68.4999 94.3923 67.5371 94.3923 66.5744C94.3923 66.1641 94.2218 66.2149 93.8211 66.2149C92.3327 66.2149 90.8493 66.3305 89.3602 66.3305C87.655 66.3305 85.9205 66.0324 84.2254 66.3305C82.9166 66.5606 81.6138 66.6463 80.2973 66.7926C79.516 66.8794 78.7328 67.0471 77.993 67.3061C77.6972 67.4096 76.8511 67.2151 76.7158 67.4858" stroke="black" stroke-linecap="round" stroke-linejoin="round"/>
<path d="M69.6682 74.9955C71.3627 74.9955 73.0572 74.9955 74.7517 74.9955" stroke="black" stroke-linecap="round" stroke-linejoin="round"/>
<path d="M71.8633 72.4537C72.9348 73.301 74.0764 74.3162 75.2651 74.9955C75.9529 75.3885 72.7305 78.6326 72.4409 79.5013" stroke="black" stroke-linecap="round" stroke-linejoin="round"/>
<path d="M94.97 74.9954C97.2676 74.9954 99.5228 75.1109 101.812 75.1109C102.864 75.1109 103.917 75.2094 104.906 74.8799" stroke="black" stroke-linecap="round" stroke-linejoin="round"/>
<path d="M100.862 72.2227C101.654 72.7125 102.23 73.4224 102.968 73.9813C103.376 74.2909 103.831 74.5901 104.155 74.989C104.321 75.1932 105.124 75.6921 105.124 75.9775C105.124 76.2482 104.284 76.6519 104.097 76.7862C103.472 77.2359 103.085 77.7369 102.595 78.3202C102.06 78.9589 101.362 79.8517 101.093 80.6566" stroke="black" stroke-linecap="round" stroke-linejoin="round"/>
<path d="M41.2471 75.6887C43.8658 75.6887 46.4846 75.6887 49.1033 75.6887" stroke="black" stroke-linecap="round" stroke-linejoin="round"/>
<path d="M45.7529 72.8003C46.6293 73.3261 47.7422 73.823 48.3845 74.6488C48.5841 74.9055 49.0811 75.2688 49.1932 75.5731C49.3101 75.8901 47.4148 77.4935 47.1907 77.7425C46.7829 78.1956 46.1805 78.565 45.984 79.1546" stroke="black" stroke-linecap="round" stroke-linejoin="round"/>
<path d="M39.0956 40.8055C39.0956 50.8516 40.1221 60.9041 39.6435 70.9561C39.492 74.136 38.7235 77.2126 38.7235 80.424C38.7235 84.6904 38.7235 89.0011 38.7235 93.2305C38.7235 96.6451 38.8451 100.065 38.9096 103.484C38.9427 105.24 39.4677 106.895 39.4677 108.631C39.4677 110.181 39.3161 111.849 39.6951 113.365C39.9535 114.399 40.5106 116.785 41.6073 117.272C43.105 117.938 44.3924 118.389 46.0622 118.389C48.528 118.389 50.3751 117.75 52.3466 116.342C54.34 114.918 56.2964 113.619 58.3519 112.249C59.5714 111.436 61.0129 110.733 62.3933 110.244C64.3565 109.548 66.0209 108.634 67.8508 107.68C70.6692 106.212 73.3191 104.389 75.8923 102.533C79.8253 99.6961 84.1162 97.4454 88.0993 94.6879C91.2164 92.5299 95.0718 91.6331 98.3011 89.6955C100.635 88.2951 102.857 86.99 104.958 85.2717C106.098 84.3387 107.589 83.9068 108.637 82.8943C109.498 82.0635 110.213 81.0444 111.097 80.2586C112.458 79.0488 113.77 77.3784 115.376 76.4859C117.212 75.4661 115.706 74.4886 115.004 73.2611C114.128 71.7271 111.491 71.9336 110.25 70.7597C108.323 68.937 106.224 67.175 103.986 65.7363C102.826 64.9908 101.549 64.456 100.399 63.6898C99.2044 62.8931 98.2192 61.7082 96.8644 61.1781C95.9323 60.8133 95.1916 60.129 94.3527 59.5967C92.1919 58.2254 89.7647 57.1616 87.7996 55.5035C86.3911 54.3152 85.233 53.0832 83.5618 52.2477C81.9753 51.4544 80.7562 50.3953 79.4687 49.1882C78.5033 48.2831 77.4021 47.3326 76.0784 47.0899C75.0764 46.9062 74.2984 46.186 73.484 45.6222C72.1666 44.7101 71.0036 43.639 69.7217 42.6867C68.422 41.7212 67.0558 40.6253 65.6182 39.8753C63.9055 38.9817 62.4515 37.8709 60.8222 36.8571C59.6134 36.1049 58.2496 35.6932 57.1426 34.8416C55.6571 33.6989 53.9505 32.824 52.4913 31.689C51.9139 31.24 50.5544 30.7588 49.8039 30.7588C48.6945 30.7588 47.8094 30.9026 46.7651 31.2756C43.6706 32.3808 40.7108 33.8004 39.7468 37.2706C39.4455 38.3554 39.619 39.3912 39.4264 40.4748C39.1425 42.0718 38.7792 43.844 38.7235 45.4568C38.6058 48.8704 38.1654 52.2729 38.1654 55.6896C38.1654 61.0506 38.1654 66.4116 38.1654 71.7726C38.1654 74.0636 38.0371 76.3904 38.1757 78.6772C38.2853 80.4855 38.7958 82.2296 39.0543 84.0107C39.4246 86.5618 39.6685 89.223 40.491 91.6904C41.3692 94.325 41.1734 97.0003 41.6073 99.6906C42.1256 102.904 42.4446 106.246 42.4446 109.5C42.4446 111.629 42.4446 113.758 42.4446 115.887C42.4446 116.487 42.4446 117.086 42.4446 117.686C42.4446 118.521 42.644 118.35 43.3748 118.389C43.8853 118.416 44.6266 118.833 44.9562 119.236C45.1773 119.506 45.2353 119.768 45.2353 120.104C45.2353 120.193 45.1702 120.919 45.318 120.911C45.8657 120.88 46.716 119.891 47.1785 119.619C47.9869 119.142 48.8772 118.832 49.7005 118.389C50.9488 117.717 52.2584 117.191 53.4526 116.414C55.4932 115.088 57.7178 114.436 59.7886 113.221C62.6083 111.566 65.6115 110.039 68.1402 107.97C69.4743 106.878 71.5139 106.035 73.1016 105.365C73.5466 105.177 73.8953 104.834 74.3109 104.59C76.0303 103.579 77.7906 102.689 79.541 101.737C84.0703 99.2738 88.7064 96.8357 92.6369 93.4579C94.3005 92.0282 95.4279 90.116 96.9574 88.5482C98.7151 86.7466 101.02 85.4882 102.818 83.6902C104.765 81.7432 107.449 80.8484 109.381 78.9873C109.979 78.4116 110.866 78.1276 111.376 77.4472C111.863 76.7984 112.341 76.0544 112.772 75.3696C113.866 73.6315 112.705 71.4707 111.552 70.1085C111.056 69.5227 110.412 68.8408 109.795 68.3824C108.624 67.5129 107.148 67.207 106.074 66.1911C105.154 65.3208 104.301 64.803 103.19 64.1859C99.4663 62.1171 96.2561 59.3003 92.6886 56.9919C91.3776 56.1437 90.0784 55.2505 88.7712 54.3872C87.6685 53.6591 86.9435 52.8899 85.7014 52.6094C84.5902 52.3585 83.5972 51.7328 82.5695 51.2657C81.378 50.7241 80.0992 50.3714 78.9519 49.736C77.1699 48.7491 75.4105 47.681 73.7011 46.5731C72.7899 45.9825 71.7864 45.0393 70.807 44.6196C69.3633 44.0008 67.7605 43.2246 66.5588 42.2009C65.471 41.2743 64.2261 40.6861 63.0548 39.8753C62.6452 39.5917 62.7701 39.372 62.228 39.2758C60.9609 39.051 59.7598 38.5842 58.7137 37.8287C57.3581 36.8497 56.0945 35.5817 54.5379 34.9449C54.0334 34.7386 53.542 34.5263 53.0494 34.2938C52.4985 34.0336 51.8856 34.1299 51.313 33.9217C50.36 33.5751 49.3072 33.3425 48.3982 32.888C47.6051 32.4915 46.9295 31.7667 46.0725 31.503C44.7353 31.0915 43.8481 29.8992 42.5893 29.4151C41.9516 29.1699 41.5128 28.7669 41.3386 29.7252C41.1513 30.7554 41.3283 31.9574 41.3283 33.0017C41.3283 38.1294 40.9052 43.3007 40.7701 48.4336C40.7318 49.8887 40.398 51.2408 40.398 52.7231C40.398 54.6145 39.6538 56.4368 39.6538 58.2943" stroke="black" stroke-linecap="round" stroke-linejoin="round"/>
<path d="M83.9339 65.5504C83.5082 62.6988 82.4454 59.7232 82.4454 56.8163C82.4454 56.2237 82.4454 55.6311 82.4454 55.0385C82.4454 54.3112 82.4965 54.2013 81.7012 54.2013C80.021 54.2013 78.2586 53.7631 76.6159 53.4571C74.8768 53.1331 73.2291 53.085 71.4685 53.085C68.7535 53.085 66.0385 53.085 63.3236 53.085C61.5457 53.085 59.7679 53.085 57.9901 53.085C57.1908 53.085 57.7007 54.5858 57.7007 55.2142C57.7007 56.2955 57.8867 57.3708 57.8867 58.4701C57.8867 60.086 57.8867 61.7019 57.8867 63.3178C57.8867 63.9802 57.8815 65.3723 57.5146 65.9225" stroke="black" stroke-linecap="round" stroke-linejoin="round"/>
<path d="M53.9797 61.0851C55.4456 62.5954 55.7488 65.1543 57.2873 66.5219C58.2349 67.3642 61.8872 61.2711 63.0962 61.2711" stroke="black" stroke-linecap="round" stroke-linejoin="round"/>
<path d="M58.6309 85.6438C58.6309 91.8929 58.4449 98.091 58.4449 104.342C58.4449 104.527 58.3392 105.306 58.5586 105.355C59.2748 105.514 60.127 105.179 60.8636 105.179C62.0384 105.179 63.2133 105.179 64.3882 105.179C66.5993 105.179 68.7175 105.365 70.9103 105.365" stroke="black" stroke-linecap="round" stroke-linejoin="round"/>
<path d="M66.4451 101.458C68.0815 102.143 69.0082 103.216 70.0731 104.518C70.3006 104.796 71.017 105.901 70.8276 105.923C69.0093 106.137 68.1536 108.393 66.6311 108.9" stroke="black" stroke-linecap="round" stroke-linejoin="round"/>
<path d="M55.6919 75.956C55.7113 75.1233 55.9915 73.3548 56.8779 72.9519C57.174 72.8173 57.0964 74.9487 57.0964 75.1679C57.0964 75.879 57.2368 76.5785 57.2368 77.2824C57.2368 77.7639 58.0411 76.4706 58.1498 76.2291C58.364 75.7531 58.7371 74.1301 59.4138 74.1301C60.0909 74.1301 60.0677 74.1771 60.2175 74.8324C60.4969 76.0549 61.247 74.0326 61.4191 74.2238C61.4894 74.3018 61.5292 76.3072 62.1526 75.7531C62.5328 75.4151 62.6492 74.7136 63.1357 74.5515" stroke="black" stroke-linecap="round" stroke-linejoin="round"/>
<path d="M82.3772 75.8154C82.4956 75.1997 82.646 74.6372 82.9936 74.1066C83.3466 73.5678 83.381 74.7983 83.4306 75.0352C83.5335 75.527 83.6924 77.4247 84.4137 76.3616C84.5617 76.1435 85.086 74.8479 85.4047 74.8479C85.6896 74.8479 85.547 75.3785 85.904 75.3785C86.1261 75.3785 86.8472 74.6424 86.9808 74.8947C87.0242 74.9766 86.9523 75.3536 87.1057 75.3005C87.4837 75.1696 87.8272 74.7374 88.0732 74.4422C88.6925 73.699 88.355 74.6107 88.713 74.5358C89.57 74.3564 90.204 73.5076 91.0851 73.2874" stroke="black" stroke-linecap="round" stroke-linejoin="round"/>
<path d="M28 75.9038C31.1428 75.9038 34.0941 76.1741 37.1886 76.1741" stroke="black" stroke-linecap="round" stroke-linejoin="round"/>
<path d="M32.5942 71.3094C32.6691 71.4019 37.5928 77.0009 37.3987 77.195C36.0381 78.5557 34.0558 79.7369 33.1347 81.5791" stroke="black" stroke-linecap="round" stroke-linejoin="round"/>
<path d="M57.998 25.0962C57.998 34.1945 58.2683 43.3369 58.2683 52.3918" stroke="black" stroke-linecap="round" stroke-linejoin="round"/>
<path d="M52.593 48.6081C54.444 49.8668 55.4924 51.2656 56.9771 52.6018C57.6663 53.2221 59.5507 49.7938 59.995 49.1786C60.5113 48.4637 61.2325 47.8232 61.5114 46.9866" stroke="black" stroke-linecap="round" stroke-linejoin="round"/>
<path d="M72.3215 105.361C79.7684 105.361 87.0936 105.513 94.4823 105.902C97.4828 106.06 100.591 106.172 103.671 106.172" stroke="black" stroke-linecap="round" stroke-linejoin="round"/>
<path d="M99.8874 103.47C100.616 103.488 104.452 103.834 104.196 105.241C103.953 106.578 102.306 107.604 101.509 108.605C100.68 109.644 99.5269 110.497 98.8064 111.577" stroke="black" stroke-linecap="round" stroke-linejoin="round"/>
</svg>
