<svg width="320" height="160" viewBox="0 0 320 160" fill="none" xmlns="http://www.w3.org/2000/svg">
<rect width="320" height="160" fill="#44A5FF"/>
<path d="M42.604 85.824C42.856 84.996 43.084 84.108 43.3 83.232H43.348C43.576 84.096 43.804 84.996 44.056 85.824L44.332 86.784H42.328L42.604 85.824ZM39.976 90H41.392L42.004 87.876H44.644L45.256 90H46.72L44.164 82.152H42.532L39.976 90ZM50.0898 90H52.2617C54.5898 90 56.0058 88.644 56.0058 86.04C56.0058 83.448 54.5898 82.152 52.1898 82.152H50.0898V90ZM51.4818 88.872V83.28H52.0938C53.6778 83.28 54.5778 84.12 54.5778 86.04C54.5778 87.972 53.6778 88.872 52.0938 88.872H51.4818ZM57.4698 90H58.8498V84.108H57.4698V90ZM58.1658 83.076C58.6578 83.076 59.0178 82.752 59.0178 82.296C59.0178 81.828 58.6578 81.504 58.1658 81.504C57.6738 81.504 57.3138 81.828 57.3138 82.296C57.3138 82.752 57.6738 83.076 58.1658 83.076ZM62.2544 90.144C63.7424 90.144 64.5464 89.328 64.5464 88.32C64.5464 87.216 63.6584 86.832 62.8544 86.532C62.2184 86.304 61.6304 86.124 61.6304 85.656C61.6304 85.284 61.9064 85.008 62.4944 85.008C62.9624 85.008 63.3824 85.212 63.7904 85.512L64.4264 84.672C63.9464 84.3 63.2864 83.964 62.4704 83.964C61.1504 83.964 60.3224 84.696 60.3224 85.728C60.3224 86.712 61.1984 87.156 61.9784 87.444C62.6024 87.684 63.2384 87.9 63.2384 88.392C63.2384 88.8 62.9384 89.1 62.3024 89.1C61.7024 89.1 61.1984 88.848 60.6704 88.44L60.0224 89.328C60.5984 89.796 61.4504 90.144 62.2544 90.144ZM67.62 90.144C68.088 90.144 68.496 90.036 68.82 89.928L68.58 88.908C68.412 88.98 68.172 89.04 67.968 89.04C67.404 89.04 67.14 88.704 67.14 88.008V85.2H68.64V84.108H67.14V82.5H65.988L65.82 84.108L64.908 84.168V85.2H65.748V88.008C65.748 89.28 66.252 90.144 67.62 90.144ZM69.8799 90H71.2599V86.4C71.6199 85.512 72.1839 85.188 72.6519 85.188C72.9039 85.188 73.0599 85.224 73.2639 85.284L73.5039 84.084C73.3239 84 73.1319 83.964 72.8319 83.964C72.2079 83.964 71.5839 84.384 71.1639 85.152H71.1159L71.0199 84.108H69.8799V90ZM74.3565 90H75.7365V84.108H74.3565V90ZM75.0525 83.076C75.5445 83.076 75.9045 82.752 75.9045 82.296C75.9045 81.828 75.5445 81.504 75.0525 81.504C74.5605 81.504 74.2005 81.828 74.2005 82.296C74.2005 82.752 74.5605 83.076 75.0525 83.076ZM80.3531 90.144C81.6611 90.144 82.8731 88.98 82.8731 86.952C82.8731 85.14 82.0211 83.964 80.5451 83.964C79.9451 83.964 79.3331 84.264 78.8411 84.696L78.8771 83.712V81.528H77.4971V90H78.5891L78.7091 89.376H78.7451C79.2371 89.868 79.8131 90.144 80.3531 90.144ZM80.0651 89.004C79.7171 89.004 79.2971 88.872 78.8771 88.512V85.764C79.3331 85.32 79.7411 85.104 80.1731 85.104C81.0611 85.104 81.4451 85.8 81.4451 86.976C81.4451 88.308 80.8451 89.004 80.0651 89.004ZM86.0108 90.144C86.8148 90.144 87.3908 89.748 87.9068 89.136H87.9428L88.0508 90H89.1788V84.108H87.7988V88.14C87.3548 88.716 87.0068 88.956 86.4908 88.956C85.8548 88.956 85.5788 88.596 85.5788 87.624V84.108H84.1988V87.804C84.1988 89.292 84.7508 90.144 86.0108 90.144ZM93.0028 90.144C93.4708 90.144 93.8788 90.036 94.2028 89.928L93.9628 88.908C93.7948 88.98 93.5548 89.04 93.3508 89.04C92.7868 89.04 92.5228 88.704 92.5228 88.008V85.2H94.0228V84.108H92.5228V82.5H91.3708L91.2028 84.108L90.2908 84.168V85.2H91.1308V88.008C91.1308 89.28 91.6348 90.144 93.0028 90.144ZM97.5952 90.144C98.3392 90.144 99.0472 89.88 99.6112 89.508L99.1432 88.644C98.7112 88.92 98.2792 89.076 97.7752 89.076C96.8272 89.076 96.1552 88.476 96.0352 87.432H99.7792C99.8152 87.288 99.8392 87.024 99.8392 86.76C99.8392 85.116 98.9992 83.964 97.4032 83.964C96.0232 83.964 94.6912 85.14 94.6912 87.06C94.6912 89.004 95.9632 90.144 97.5952 90.144ZM96.0232 86.496C96.1432 85.548 96.7432 85.032 97.4392 85.032C98.2432 85.032 98.6392 85.584 98.6392 86.496H96.0232ZM103.221 90.144C103.857 90.144 104.457 89.796 104.889 89.364H104.937L105.033 90H106.173V81.528H104.793V83.664L104.841 84.612C104.385 84.216 103.965 83.964 103.293 83.964C102.009 83.964 100.797 85.14 100.797 87.06C100.797 89.004 101.745 90.144 103.221 90.144ZM103.557 89.004C102.705 89.004 102.225 88.32 102.225 87.048C102.225 85.812 102.837 85.104 103.593 85.104C103.989 85.104 104.385 85.236 104.793 85.596V88.344C104.397 88.8 104.013 89.004 103.557 89.004ZM110.453 90H113.165C114.893 90 116.177 89.268 116.177 87.696C116.177 86.64 115.541 86.028 114.677 85.836V85.788C115.361 85.548 115.769 84.828 115.769 84.084C115.769 82.644 114.581 82.152 112.961 82.152H110.453V90ZM111.845 85.392V83.232H112.865C113.885 83.232 114.401 83.52 114.401 84.288C114.401 84.96 113.933 85.392 112.841 85.392H111.845ZM111.845 88.92V86.436H113.021C114.197 86.436 114.821 86.796 114.821 87.624C114.821 88.5 114.173 88.92 113.021 88.92H111.845ZM119.245 90.144C120.049 90.144 120.625 89.748 121.141 89.136H121.177L121.285 90H122.413V84.108H121.033V88.14C120.589 88.716 120.241 88.956 119.725 88.956C119.089 88.956 118.813 88.596 118.813 87.624V84.108H117.433V87.804C117.433 89.292 117.985 90.144 119.245 90.144ZM125.805 90.144C127.293 90.144 128.097 89.328 128.097 88.32C128.097 87.216 127.209 86.832 126.405 86.532C125.769 86.304 125.181 86.124 125.181 85.656C125.181 85.284 125.457 85.008 126.045 85.008C126.513 85.008 126.933 85.212 127.341 85.512L127.977 84.672C127.497 84.3 126.837 83.964 126.021 83.964C124.701 83.964 123.873 84.696 123.873 85.728C123.873 86.712 124.749 87.156 125.529 87.444C126.153 87.684 126.789 87.9 126.789 88.392C126.789 88.8 126.489 89.1 125.853 89.1C125.253 89.1 124.749 88.848 124.221 88.44L123.573 89.328C124.149 89.796 125.001 90.144 125.805 90.144ZM129.329 90H130.709V84.108H129.329V90ZM130.025 83.076C130.517 83.076 130.877 82.752 130.877 82.296C130.877 81.828 130.517 81.504 130.025 81.504C129.533 81.504 129.173 81.828 129.173 82.296C129.173 82.752 129.533 83.076 130.025 83.076ZM132.47 90H133.85V85.884C134.342 85.404 134.678 85.152 135.194 85.152C135.842 85.152 136.118 85.512 136.118 86.484V90H137.498V86.304C137.498 84.816 136.946 83.964 135.686 83.964C134.882 83.964 134.282 84.384 133.754 84.9H133.706L133.61 84.108H132.47V90ZM141.705 90.144C142.449 90.144 143.157 89.88 143.721 89.508L143.253 88.644C142.821 88.92 142.389 89.076 141.885 89.076C140.937 89.076 140.265 88.476 140.145 87.432H143.889C143.925 87.288 143.949 87.024 143.949 86.76C143.949 85.116 143.109 83.964 141.513 83.964C140.133 83.964 138.801 85.14 138.801 87.06C138.801 89.004 140.073 90.144 141.705 90.144ZM140.133 86.496C140.253 85.548 140.853 85.032 141.549 85.032C142.353 85.032 142.749 85.584 142.749 86.496H140.133ZM146.911 90.144C148.399 90.144 149.203 89.328 149.203 88.32C149.203 87.216 148.315 86.832 147.511 86.532C146.875 86.304 146.287 86.124 146.287 85.656C146.287 85.284 146.563 85.008 147.151 85.008C147.619 85.008 148.039 85.212 148.447 85.512L149.083 84.672C148.603 84.3 147.943 83.964 147.127 83.964C145.807 83.964 144.979 84.696 144.979 85.728C144.979 86.712 145.855 87.156 146.635 87.444C147.259 87.684 147.895 87.9 147.895 88.392C147.895 88.8 147.595 89.1 146.959 89.1C146.359 89.1 145.855 88.848 145.327 88.44L144.679 89.328C145.255 89.796 146.107 90.144 146.911 90.144ZM152.079 90.144C153.567 90.144 154.371 89.328 154.371 88.32C154.371 87.216 153.483 86.832 152.679 86.532C152.043 86.304 151.455 86.124 151.455 85.656C151.455 85.284 151.731 85.008 152.319 85.008C152.787 85.008 153.207 85.212 153.615 85.512L154.251 84.672C153.771 84.3 153.111 83.964 152.295 83.964C150.975 83.964 150.147 84.696 150.147 85.728C150.147 86.712 151.023 87.156 151.803 87.444C152.427 87.684 153.063 87.9 153.063 88.392C153.063 88.8 152.763 89.1 152.127 89.1C151.527 89.1 151.023 88.848 150.495 88.44L149.847 89.328C150.423 89.796 151.275 90.144 152.079 90.144ZM158.905 90H160.597L161.545 85.872C161.677 85.26 161.797 84.66 161.905 84.06H161.953C162.049 84.66 162.169 85.26 162.301 85.872L163.273 90H165.001L166.501 82.152H165.169L164.485 86.112C164.365 86.94 164.233 87.78 164.113 88.62H164.065C163.885 87.78 163.717 86.928 163.537 86.112L162.577 82.152H161.365L160.405 86.112C160.225 86.94 160.057 87.792 159.889 88.62H159.841C159.721 87.792 159.589 86.952 159.457 86.112L158.773 82.152H157.345L158.905 90ZM170.015 90.144C171.491 90.144 172.823 89.016 172.823 87.06C172.823 85.092 171.491 83.964 170.015 83.964C168.551 83.964 167.219 85.092 167.219 87.06C167.219 89.016 168.551 90.144 170.015 90.144ZM170.015 89.016C169.151 89.016 168.635 88.236 168.635 87.06C168.635 85.872 169.151 85.092 170.015 85.092C170.879 85.092 171.407 85.872 171.407 87.06C171.407 88.236 170.879 89.016 170.015 89.016ZM174.189 90H175.569V86.4C175.929 85.512 176.493 85.188 176.961 85.188C177.213 85.188 177.369 85.224 177.573 85.284L177.813 84.084C177.633 84 177.441 83.964 177.141 83.964C176.517 83.964 175.893 84.384 175.473 85.152H175.425L175.329 84.108H174.189V90ZM178.665 90H180.021V88.5L180.945 87.444L182.457 90H183.957L181.737 86.508L183.753 84.108H182.241L180.057 86.82H180.021V81.528H178.665V90ZM185.175 90H186.555V85.2H187.707V84.108H186.555V83.472C186.555 82.788 186.819 82.476 187.299 82.476C187.503 82.476 187.731 82.524 187.947 82.62L188.211 81.588C187.947 81.48 187.551 81.384 187.131 81.384C185.739 81.384 185.175 82.272 185.175 83.496V84.108L184.383 84.168V85.2H185.175V90ZM190.087 90.144C190.411 90.144 190.651 90.096 190.819 90.024L190.639 88.992C190.531 89.016 190.483 89.016 190.423 89.016C190.279 89.016 190.123 88.896 190.123 88.56V81.528H188.743V88.488C188.743 89.508 189.103 90.144 190.087 90.144ZM194.413 90.144C195.889 90.144 197.221 89.016 197.221 87.06C197.221 85.092 195.889 83.964 194.413 83.964C192.949 83.964 191.617 85.092 191.617 87.06C191.617 89.016 192.949 90.144 194.413 90.144ZM194.413 89.016C193.549 89.016 193.033 88.236 193.033 87.06C193.033 85.872 193.549 85.092 194.413 85.092C195.277 85.092 195.805 85.872 195.805 87.06C195.805 88.236 195.277 89.016 194.413 89.016ZM199.489 90H201.073L201.745 87.264C201.877 86.712 201.985 86.16 202.093 85.536H202.141C202.273 86.16 202.369 86.7 202.501 87.252L203.185 90H204.829L206.329 84.108H205.033L204.325 87.168C204.217 87.732 204.121 88.284 204.013 88.86H203.965C203.833 88.284 203.713 87.732 203.569 87.168L202.789 84.108H201.529L200.761 87.168C200.617 87.72 200.497 88.284 200.389 88.86H200.341C200.233 88.284 200.149 87.732 200.029 87.168L199.321 84.108H197.929L199.489 90ZM210.016 90H214.864V88.824H211.408V86.508H214.228V85.332H211.408V83.328H214.744V82.152H210.016V90ZM216.353 90H217.733V85.884C218.225 85.404 218.561 85.152 219.077 85.152C219.725 85.152 220.001 85.512 220.001 86.484V90H221.381V86.304C221.381 84.816 220.829 83.964 219.569 83.964C218.765 83.964 218.165 84.384 217.637 84.9H217.589L217.493 84.108H216.353V90ZM225.119 92.604C227.039 92.604 228.263 91.692 228.263 90.528C228.263 89.508 227.519 89.076 226.103 89.076H225.059C224.339 89.076 224.099 88.872 224.099 88.536C224.099 88.272 224.207 88.128 224.387 87.972C224.651 88.08 224.939 88.128 225.191 88.128C226.439 88.128 227.423 87.432 227.423 86.124C227.423 85.716 227.279 85.356 227.087 85.128H228.167V84.108H226.055C225.815 84.024 225.515 83.964 225.191 83.964C223.955 83.964 222.863 84.72 222.863 86.076C222.863 86.772 223.235 87.336 223.631 87.636V87.684C223.295 87.924 222.983 88.32 222.983 88.776C222.983 89.256 223.211 89.568 223.511 89.76V89.808C222.971 90.144 222.671 90.576 222.671 91.068C222.671 92.1 223.715 92.604 225.119 92.604ZM225.191 87.264C224.615 87.264 224.159 86.832 224.159 86.076C224.159 85.332 224.615 84.912 225.191 84.912C225.767 84.912 226.211 85.344 226.211 86.076C226.211 86.832 225.755 87.264 225.191 87.264ZM225.335 91.704C224.399 91.704 223.823 91.392 223.823 90.864C223.823 90.588 223.967 90.324 224.279 90.084C224.507 90.144 224.759 90.168 225.083 90.168H225.887C226.559 90.168 226.931 90.3 226.931 90.756C226.931 91.26 226.283 91.704 225.335 91.704ZM229.302 90H230.682V84.108H229.302V90ZM229.998 83.076C230.49 83.076 230.85 82.752 230.85 82.296C230.85 81.828 230.49 81.504 229.998 81.504C229.506 81.504 229.146 81.828 229.146 82.296C229.146 82.752 229.506 83.076 229.998 83.076ZM232.442 90H233.822V85.884C234.314 85.404 234.65 85.152 235.166 85.152C235.814 85.152 236.09 85.512 236.09 86.484V90H237.47V86.304C237.47 84.816 236.918 83.964 235.658 83.964C234.854 83.964 234.254 84.384 233.726 84.9H233.678L233.582 84.108H232.442V90ZM241.677 90.144C242.421 90.144 243.129 89.88 243.693 89.508L243.225 88.644C242.793 88.92 242.361 89.076 241.857 89.076C240.909 89.076 240.237 88.476 240.117 87.432H243.861C243.897 87.288 243.921 87.024 243.921 86.76C243.921 85.116 243.081 83.964 241.485 83.964C240.105 83.964 238.773 85.14 238.773 87.06C238.773 89.004 240.045 90.144 241.677 90.144ZM240.105 86.496C240.225 85.548 240.825 85.032 241.521 85.032C242.325 85.032 242.721 85.584 242.721 86.496H240.105Z" fill="white"/>
<path fill-rule="evenodd" clip-rule="evenodd" d="M46 29.8492V62.0254C46 65.9159 50.2476 68.3159 53.5801 66.3084L80.2864 50.2202C83.513 48.2765 83.5129 43.5981 80.2864 41.6544L53.5801 25.5663C50.2476 23.5588 46 25.9588 46 29.8492ZM60.9624 45.9373C60.9624 48.6918 58.7294 50.9248 55.9749 50.9248C53.2204 50.9248 50.9875 48.6918 50.9875 45.9373C50.9875 43.1828 53.2204 40.9499 55.9749 40.9499C58.7294 40.9499 60.9624 43.1828 60.9624 45.9373ZM73.9297 45.9374C73.9297 48.6919 71.6968 50.9248 68.9423 50.9248C66.1878 50.9248 63.9548 48.6919 63.9548 45.9374C63.9548 43.1829 66.1878 40.9499 68.9423 40.9499C71.6968 40.9499 73.9297 43.1829 73.9297 45.9374Z" fill="white"/>
<path d="M105.832 57.384C110.824 57.384 113.704 54.376 113.704 50.92C113.704 47.976 112.104 46.28 109.576 45.256L106.888 44.168C105.096 43.432 103.72 42.984 103.72 41.704C103.72 40.52 104.744 39.816 106.376 39.816C108.04 39.816 109.32 40.424 110.696 41.48L113.096 38.504C111.304 36.712 108.776 35.752 106.376 35.752C102.024 35.752 98.952 38.504 98.952 41.96C98.952 45 101 46.792 103.144 47.656L105.864 48.808C107.688 49.576 108.872 49.992 108.872 51.304C108.872 52.552 107.912 53.32 105.96 53.32C104.232 53.32 102.312 52.424 100.808 51.144L98.12 54.376C100.232 56.36 103.112 57.384 105.832 57.384ZM118.621 63.208C122.365 63.208 124.061 61.16 125.565 57.16L131.069 41.128H126.557L124.637 47.944C124.253 49.448 123.901 50.952 123.549 52.456H123.421C123.005 50.888 122.621 49.384 122.173 47.944L119.901 41.128H115.165L121.277 56.584L121.053 57.416C120.637 58.664 119.837 59.496 118.269 59.496C117.917 59.496 117.501 59.368 117.213 59.304L116.381 62.888C117.021 63.08 117.661 63.208 118.621 63.208ZM133.549 57H138.253V46.28C139.277 45.288 140.013 44.744 141.197 44.744C142.541 44.744 143.149 45.448 143.149 47.752V57H147.853V47.144C147.853 43.176 146.381 40.744 142.925 40.744C140.781 40.744 139.181 41.864 137.837 43.144H137.709L137.389 41.128H133.549V57ZM155.861 57.384C157.653 57.384 159.125 56.552 160.469 55.368H160.597L160.917 57H164.757V47.912C164.757 43.048 162.517 40.744 158.453 40.744C155.957 40.744 153.685 41.608 151.669 42.824L153.365 45.928C154.901 45.032 156.213 44.488 157.557 44.488C159.285 44.488 159.957 45.384 160.053 46.792C153.781 47.432 151.125 49.256 151.125 52.584C151.125 55.272 152.949 57.384 155.861 57.384ZM157.461 53.736C156.341 53.736 155.637 53.256 155.637 52.232C155.637 51.016 156.725 50.056 160.053 49.608V52.392C159.221 53.224 158.517 53.736 157.461 53.736ZM168.736 62.888H173.44V58.248L173.28 55.72C174.4 56.776 175.68 57.384 177.056 57.384C180.48 57.384 183.744 54.248 183.744 48.808C183.744 43.912 181.376 40.744 177.536 40.744C175.872 40.744 174.272 41.576 173.024 42.696H172.896L172.576 41.128H168.736V62.888ZM175.968 53.544C175.168 53.544 174.272 53.288 173.44 52.52V46.024C174.368 45.032 175.2 44.584 176.16 44.584C178.048 44.584 178.912 46.024 178.912 48.872C178.912 52.136 177.6 53.544 175.968 53.544ZM191.596 57.384C195.852 57.384 198.124 55.144 198.124 52.264C198.124 49.352 195.852 48.232 193.836 47.496C192.204 46.888 190.732 46.504 190.732 45.48C190.732 44.68 191.308 44.232 192.524 44.232C193.644 44.232 194.732 44.744 195.884 45.576L197.996 42.76C196.62 41.736 194.828 40.744 192.396 40.744C188.716 40.744 186.316 42.76 186.316 45.704C186.316 48.328 188.588 49.64 190.508 50.376C192.14 51.016 193.74 51.496 193.74 52.552C193.74 53.384 193.132 53.896 191.724 53.896C190.38 53.896 189.068 53.32 187.628 52.232L185.516 55.176C187.116 56.488 189.516 57.384 191.596 57.384ZM208.215 57.384C210.103 57.384 212.215 56.712 213.847 55.592L212.279 52.744C211.127 53.448 210.039 53.8 208.855 53.8C206.743 53.8 205.143 52.744 204.727 50.44H214.231C214.327 50.056 214.423 49.192 214.423 48.36C214.423 44.04 212.183 40.744 207.671 40.744C203.863 40.744 200.183 43.912 200.183 49.064C200.183 54.312 203.671 57.384 208.215 57.384ZM204.695 47.336C205.015 45.32 206.295 44.328 207.767 44.328C209.655 44.328 210.423 45.576 210.423 47.336H204.695ZM222.346 57.384C226.602 57.384 228.874 55.144 228.874 52.264C228.874 49.352 226.602 48.232 224.586 47.496C222.954 46.888 221.482 46.504 221.482 45.48C221.482 44.68 222.058 44.232 223.274 44.232C224.394 44.232 225.482 44.744 226.634 45.576L228.746 42.76C227.37 41.736 225.578 40.744 223.146 40.744C219.466 40.744 217.066 42.76 217.066 45.704C217.066 48.328 219.338 49.64 221.258 50.376C222.89 51.016 224.49 51.496 224.49 52.552C224.49 53.384 223.882 53.896 222.474 53.896C221.13 53.896 219.818 53.32 218.378 52.232L216.266 55.176C217.866 56.488 220.266 57.384 222.346 57.384Z" fill="white"/>
<path d="M107.528 131.144C109.724 131.144 111.44 128.9 111.44 126.308C111.44 124.28 110.384 123.008 108.608 123.008C106.424 123.008 104.696 125.252 104.696 127.844C104.696 129.872 105.764 131.144 107.528 131.144ZM107.6 130.028C106.544 130.028 106.028 129.14 106.028 127.748C106.028 125.924 107.144 124.124 108.536 124.124C109.592 124.124 110.12 125.012 110.12 126.404C110.12 128.228 108.992 130.028 107.6 130.028ZM113.378 130.376H113.402C113.69 130.832 114.158 131.144 114.71 131.144C116.33 131.144 117.866 129.368 117.866 127.112C117.866 125.732 117.23 124.964 116.186 124.964C115.514 124.964 114.842 125.336 114.278 125.828H114.242L114.266 125.108H113.222L111.566 133.328H112.85L113.186 131.576L113.378 130.376ZM115.658 126.02C116.198 126.02 116.546 126.428 116.546 127.28C116.546 128.804 115.622 130.088 114.626 130.088C114.254 130.088 113.906 129.884 113.654 129.392L114.158 126.872C114.602 126.296 115.202 126.02 115.658 126.02ZM118.693 128.648C118.693 130.232 119.653 131.144 121.057 131.144C121.897 131.144 122.593 130.856 123.073 130.52L122.593 129.692C122.269 129.932 121.813 130.16 121.393 130.16C120.505 130.16 119.809 129.632 119.941 128.384H123.529C123.613 128.192 123.781 127.652 123.781 127.136C123.781 125.912 123.277 124.964 121.909 124.964C120.361 124.964 118.693 126.452 118.693 128.648ZM120.049 127.568C120.337 126.56 121.045 125.96 121.753 125.96C122.473 125.96 122.713 126.476 122.713 127.052C122.713 127.244 122.689 127.412 122.653 127.568H120.049ZM124.42 131H125.716L126.508 126.98C127.132 126.344 127.588 126.068 127.996 126.068C128.5 126.068 128.74 126.32 128.74 126.824C128.74 127.004 128.692 127.172 128.644 127.448L127.924 131H129.208L129.952 127.28C130.024 126.968 130.048 126.728 130.048 126.452C130.048 125.504 129.64 124.964 128.656 124.964C127.912 124.964 127.252 125.408 126.628 125.936H126.58L126.64 125.108H125.596L124.42 131ZM134.961 131.144C136.317 131.144 137.301 130.4 137.301 129.26C137.301 128.54 136.869 128.072 135.993 127.604C135.489 127.316 134.985 127.112 134.985 126.68C134.985 126.272 135.381 125.936 135.921 125.936C136.389 125.936 136.749 126.188 137.049 126.488L137.769 125.804C137.313 125.324 136.689 124.964 135.921 124.964C134.745 124.964 133.773 125.732 133.773 126.8C133.773 127.508 134.253 128 135.033 128.432C135.777 128.84 136.089 129.044 136.089 129.416C136.089 129.848 135.609 130.184 135.057 130.184C134.529 130.184 134.049 129.896 133.665 129.392L132.897 130.016C133.341 130.688 134.217 131.144 134.961 131.144ZM140.53 131.144C142.15 131.144 143.782 129.608 143.782 127.364C143.782 125.888 142.906 124.964 141.574 124.964C139.966 124.964 138.334 126.488 138.334 128.744C138.334 130.208 139.21 131.144 140.53 131.144ZM140.674 130.1C139.99 130.1 139.63 129.584 139.63 128.696C139.63 127.196 140.506 126.008 141.442 126.008C142.114 126.008 142.474 126.512 142.474 127.4C142.474 128.912 141.61 130.1 140.674 130.1ZM150.363 125.108H149.079L148.287 129.128C147.699 129.752 147.231 130.04 146.835 130.04C146.343 130.04 146.103 129.788 146.103 129.284C146.103 129.104 146.139 128.936 146.199 128.66L146.907 125.108H145.623L144.879 128.828C144.819 129.128 144.783 129.38 144.783 129.656C144.783 130.592 145.203 131.144 146.187 131.144C146.895 131.144 147.567 130.688 148.155 130.16H148.203L148.155 131H149.199L150.363 125.108ZM150.928 131H152.224L152.92 127.436C153.4 126.536 153.964 126.104 154.516 126.104C154.72 126.104 154.924 126.128 155.068 126.2L155.5 125.072C155.344 125 155.164 124.964 154.912 124.964C154.204 124.964 153.556 125.516 153.088 126.248H153.04L153.148 125.108H152.104L150.928 131ZM157.546 131.144C158.434 131.144 159.034 130.784 159.478 130.46L158.926 129.644C158.626 129.884 158.266 130.1 157.81 130.1C157.018 130.1 156.622 129.584 156.622 128.696C156.622 127.232 157.546 126.008 158.602 126.008C158.998 126.008 159.238 126.152 159.514 126.464L160.234 125.684C159.91 125.3 159.406 124.964 158.686 124.964C156.85 124.964 155.302 126.632 155.302 128.744C155.302 130.268 156.25 131.144 157.546 131.144ZM160.4 128.648C160.4 130.232 161.36 131.144 162.764 131.144C163.604 131.144 164.3 130.856 164.78 130.52L164.3 129.692C163.976 129.932 163.52 130.16 163.1 130.16C162.212 130.16 161.516 129.632 161.648 128.384H165.236C165.32 128.192 165.488 127.652 165.488 127.136C165.488 125.912 164.984 124.964 163.616 124.964C162.068 124.964 160.4 126.452 160.4 128.648ZM161.756 127.568C162.044 126.56 162.752 125.96 163.46 125.96C164.18 125.96 164.42 126.476 164.42 127.052C164.42 127.244 164.396 127.412 164.36 127.568H161.756ZM170.783 125.744H170.747C170.495 125.276 170.027 124.964 169.451 124.964C167.819 124.964 166.283 126.74 166.283 128.996C166.283 130.376 166.931 131.144 167.963 131.144C168.635 131.144 169.355 130.76 169.907 130.184H169.943L169.883 131H170.939L172.643 122.528H171.359L170.951 124.616L170.783 125.744ZM168.491 130.088C167.951 130.088 167.615 129.68 167.615 128.816C167.615 127.304 168.527 126.02 169.523 126.02C169.883 126.02 170.255 126.236 170.519 126.74L170.039 129.092C169.547 129.8 168.995 130.088 168.491 130.088ZM176.02 131L176.271 130.316H176.296C176.56 130.82 177.04 131.144 177.628 131.144C179.248 131.144 180.784 129.368 180.784 127.112C180.784 125.72 180.148 124.964 179.104 124.964C178.456 124.964 177.808 125.3 177.256 125.744H177.232L177.52 124.616L177.94 122.528H176.656L174.952 131H176.02ZM178.576 126.02C179.116 126.02 179.464 126.428 179.464 127.28C179.464 128.804 178.54 130.088 177.544 130.088C177.172 130.088 176.824 129.872 176.572 129.368L177.076 126.872C177.52 126.296 178.12 126.02 178.576 126.02ZM181.196 133.424C182.372 133.424 183.104 132.596 183.836 131.312L187.148 125.108H185.9L184.436 128.084C184.16 128.636 183.872 129.296 183.608 129.848H183.56C183.536 129.296 183.476 128.612 183.416 128.084L183.044 125.108H181.76L182.78 130.94L182.6 131.3C182.276 131.96 181.784 132.392 181.28 132.392C181.124 132.392 180.968 132.344 180.848 132.272L180.44 133.208C180.668 133.34 181.004 133.424 181.196 133.424Z" fill="white" fill-opacity="0.7"/>
<path d="M226.416 132.192C228.912 132.192 230.352 130.688 230.352 128.96C230.352 127.488 229.552 126.64 228.288 126.128L226.944 125.584C226.048 125.216 225.36 124.992 225.36 124.352C225.36 123.76 225.872 123.408 226.688 123.408C227.52 123.408 228.16 123.712 228.848 124.24L230.048 122.752C229.152 121.856 227.888 121.376 226.688 121.376C224.512 121.376 222.976 122.752 222.976 124.48C222.976 126 224 126.896 225.072 127.328L226.432 127.904C227.344 128.288 227.936 128.496 227.936 129.152C227.936 129.776 227.456 130.16 226.48 130.16C225.616 130.16 224.656 129.712 223.904 129.072L222.56 130.688C223.616 131.68 225.056 132.192 226.416 132.192ZM234.534 132.192C235.302 132.192 235.878 132.032 236.294 131.904L235.926 130.192C235.718 130.272 235.43 130.352 235.174 130.352C234.549 130.352 234.15 129.984 234.15 129.088V125.904H236.054V124.064H234.15V121.952H232.198L231.926 124.064L230.71 124.16V125.904H231.798V129.12C231.798 130.96 232.566 132.192 234.534 132.192ZM240.873 132.192C241.817 132.192 242.873 131.856 243.689 131.296L242.905 129.872C242.329 130.224 241.785 130.4 241.193 130.4C240.137 130.4 239.337 129.872 239.129 128.72H243.881C243.929 128.528 243.977 128.096 243.977 127.68C243.977 125.52 242.857 123.872 240.601 123.872C238.697 123.872 236.857 125.456 236.857 128.032C236.857 130.656 238.601 132.192 240.873 132.192ZM239.113 127.168C239.273 126.16 239.913 125.664 240.649 125.664C241.593 125.664 241.977 126.288 241.977 127.168H239.113ZM245.603 132H247.955V127.392C248.371 126.32 249.107 125.936 249.699 125.936C250.035 125.936 250.275 125.984 250.563 126.064L250.947 124.032C250.723 123.936 250.451 123.872 250.003 123.872C249.187 123.872 248.323 124.384 247.747 125.456H247.683L247.523 124.064H245.603V132ZM256.138 132.192C257.85 132.192 259.482 130.624 259.482 127.888C259.482 125.456 258.282 123.872 256.362 123.872C255.626 123.872 254.874 124.208 254.266 124.752L254.33 123.536V120.784H251.978V132H253.818L254.01 131.152H254.074C254.698 131.84 255.434 132.192 256.138 132.192ZM255.594 130.272C255.194 130.272 254.746 130.144 254.33 129.76V126.512C254.778 126.016 255.21 125.792 255.69 125.792C256.634 125.792 257.066 126.512 257.066 127.936C257.066 129.568 256.41 130.272 255.594 130.272ZM263.309 132.192C263.837 132.192 264.237 132.112 264.493 132L264.205 130.256C264.077 130.288 264.013 130.288 263.917 130.288C263.725 130.288 263.501 130.128 263.501 129.632V120.784H261.149V129.536C261.149 131.136 261.693 132.192 263.309 132.192ZM268.112 132.192C269.2 132.192 269.936 131.696 270.608 130.896H270.656L270.832 132H272.752V124.064H270.4V129.312C269.936 129.936 269.584 130.192 268.992 130.192C268.304 130.192 268 129.824 268 128.688V124.064H265.648V128.992C265.648 130.976 266.384 132.192 268.112 132.192ZM278.373 132.192C279.317 132.192 280.373 131.856 281.189 131.296L280.405 129.872C279.829 130.224 279.285 130.4 278.693 130.4C277.637 130.4 276.837 129.872 276.629 128.72H281.381C281.429 128.528 281.477 128.096 281.477 127.68C281.477 125.52 280.357 123.872 278.101 123.872C276.197 123.872 274.357 125.456 274.357 128.032C274.357 130.656 276.101 132.192 278.373 132.192ZM276.613 127.168C276.773 126.16 277.413 125.664 278.149 125.664C279.093 125.664 279.477 126.288 279.477 127.168H276.613Z" fill="white" fill-opacity="0.7"/>
<path d="M215.996 127.3C215.999 127.2 216 127.1 216 127C216 120.373 210.627 115 204 115C197.373 115 192 120.373 192 127C192 128.824 192.407 130.552 193.135 132.1H198.6C199.76 132.1 200.7 131.16 200.7 130C200.7 128.84 199.76 127.9 198.6 127.9C196.446 127.9 194.7 126.154 194.7 124C194.7 121.846 196.446 120.1 198.6 120.1H200.4C203.548 120.1 206.1 122.652 206.1 125.8V129.4C206.1 130.891 207.309 132.1 208.8 132.1C210.291 132.1 211.5 130.891 211.5 129.4V129.1H210.6C209.109 129.1 207.9 127.891 207.9 126.4C207.9 124.909 209.109 123.7 210.6 123.7C212.091 123.7 213.3 124.909 213.3 126.4V127.3H215.996Z" fill="white" fill-opacity="0.7"/>
<path d="M215.817 129.1H213.3V129.4C213.3 131.885 211.285 133.9 208.8 133.9C206.315 133.9 204.3 131.885 204.3 129.4V125.8C204.3 123.646 202.554 121.9 200.4 121.9H198.6C197.44 121.9 196.5 122.84 196.5 124C196.5 125.16 197.44 126.1 198.6 126.1C200.754 126.1 202.5 127.846 202.5 130C202.5 132.154 200.754 133.9 198.6 133.9H194.181C196.353 136.985 199.941 139 204 139C209.911 139 214.824 134.726 215.817 129.1Z" fill="white" fill-opacity="0.7"/>
<path d="M211.5 126.4V127.3H210.6C210.103 127.3 209.7 126.897 209.7 126.4C209.7 125.903 210.103 125.5 210.6 125.5C211.097 125.5 211.5 125.903 211.5 126.4Z" fill="white" fill-opacity="0.7"/>
</svg>
