<svg width="100" height="100" viewBox="0 0 100 100" fill="none" xmlns="http://www.w3.org/2000/svg">
<path fill-rule="evenodd" clip-rule="evenodd" d="M17 17.6984L17 82.3016C17 90.0825 25.4952 94.8824 32.1601 90.8674L85.7808 58.5658C92.2339 54.6784 92.2339 45.3217 85.7808 41.4342L32.1601 9.13261C25.4952 5.11759 17 9.91758 17 17.6984ZM47 50C47 55.5229 42.5229 60 37 60C31.4772 60 27 55.5229 27 50C27 44.4772 31.4772 40 37 40C42.5229 40 47 44.4772 47 50ZM73 50C73 55.5229 68.5229 60 63 60C57.4772 60 53 55.5229 53 50C53 44.4772 57.4772 40 63 40C68.5229 40 73 44.4772 73 50Z" fill="white"/>
</svg>
