<svg width="250" height="250" viewBox="0 0 250 250" fill="none" xmlns="http://www.w3.org/2000/svg">
<path fill-rule="evenodd" clip-rule="evenodd" d="M107.425 102.733C105.781 101.918 103.589 102.863 104.503 105.018C105.483 107.326 109.104 107.354 111.148 107.309C110.944 107.298 110.285 105.182 110.059 104.862C109.394 103.919 108.435 103.235 107.425 102.733ZM126.367 144.108C126.781 144.463 126.4 144.142 126.367 144.108V144.108ZM105.841 113.171C104.879 113.906 104.833 115.205 105.619 116.084C106.555 117.13 108.264 117.092 109.539 116.99C110.116 116.944 113.197 116.697 112.467 116.193C112.523 116.214 112.64 116.266 112.766 116.336C112.833 116.582 112.904 116.828 112.978 117.073C112.96 117.084 112.945 117.095 112.925 117.106C112.946 117.097 112.961 117.087 112.979 117.077C113.72 119.525 114.775 121.856 116.156 124.036C115.639 123.833 115.104 123.679 114.561 123.61C112.954 123.407 109.573 124.656 111.371 126.796C113.094 128.848 115.778 126.647 117.735 126.343C119.632 128.992 121.724 131.53 123.917 133.983C123.783 134.025 123.665 134.113 123.597 134.249C122.718 133.803 121.801 133.165 120.987 132.992C119.812 132.743 117.403 132.592 116.515 133.643C115.423 134.936 116.594 135.986 117.884 136.234C119.755 136.594 122.204 135.68 124.004 135.062C124.21 135.099 124.435 135.039 124.569 134.874C124.609 134.861 124.649 134.848 124.687 134.836C126.908 137.277 129.213 139.638 131.505 141.947C131.48 141.945 131.456 141.944 131.43 141.943C130.833 141.551 130.192 141.229 129.497 141.06C127.889 140.669 125.998 140.667 124.693 141.83C123.394 142.988 122.933 145.014 124.278 146.314C126.969 148.918 130.933 142.982 132.291 142.734C134.619 145.056 137.082 147.225 139.582 149.351C139.298 149.264 139.007 149.201 138.706 149.172C136.254 148.937 130.498 151.944 133.507 154.902C136.13 157.48 139.165 152.518 141.279 150.783C143.636 152.764 146.005 154.732 148.308 156.776C147.052 156.443 145.838 156.394 144.492 156.8C143.099 157.222 140.85 158.274 141.731 160.155C142.627 162.068 145.327 161.198 146.733 160.59C147.5 160.259 149.037 159.141 150.387 158.67C154.062 162.14 157.245 165.961 159.655 170.463C161.16 173.273 162.301 176.276 163.105 179.363C163.618 181.333 164.628 184.641 164.426 187.205C165.39 182.073 163.647 175.909 161.768 171.322C160.041 167.103 157.456 163.4 154.429 160.067C155.188 157.782 161.583 154.486 157.76 152.363C155.73 151.24 153.651 153.103 153.207 155.076C152.902 156.431 153.367 158.134 153.86 159.45C152.907 158.434 151.917 157.451 150.897 156.5C149.487 155.186 148.043 153.91 146.586 152.65C148.987 150.394 151.261 143.943 148.04 142.888C143.285 141.335 145.574 150.133 145.906 151.783C146 151.788 146.074 151.76 146.128 151.699C146.101 151.85 146.07 152.011 146.032 152.174C143.243 149.775 140.412 147.424 137.674 144.968C137.92 144.785 138.313 144.089 138.621 143.718C139.316 142.882 139.982 142.009 140.468 141.031C141.236 139.486 141.977 137.021 139.941 136.112C137.726 135.122 136.674 137.909 136.658 139.572C136.648 140.723 136.961 141.815 137.124 142.943C137.175 143.294 136.979 144.879 137.458 144.197C137.435 144.449 137.432 144.631 137.443 144.76C136.951 144.317 136.464 143.869 135.979 143.418C136.002 143.361 136.018 143.298 136.022 143.226C136.048 142.731 135.549 142.54 135.199 142.685C134.56 142.077 133.926 141.462 133.304 140.834C131.986 139.505 130.649 138.137 129.321 136.74C129.609 136.493 129.494 136.15 129.764 135.887C130.033 135.625 130.563 135.48 130.879 135.236C131.675 134.623 132.335 133.731 132.812 132.852C133.6 131.4 134.618 128.353 132.316 127.661C129.944 126.947 128.74 129.879 128.587 131.712C128.558 132.068 128.824 135.268 129.027 136.43C126.57 133.834 124.153 131.141 121.963 128.401C122.627 128.395 124.509 127.035 124.89 126.663C125.818 125.758 127.294 123.757 125.667 122.699C124.219 121.76 122.435 123.12 121.816 124.442C121.714 124.659 121.356 126.685 121.328 127.594C120.421 126.432 119.557 125.263 118.753 124.091C118.216 123.311 117.715 122.511 117.246 121.694C117.359 121.63 117.465 121.518 117.565 121.379C119.979 120.97 123.057 117.203 120.221 115.893C118.871 115.27 117.407 116.556 116.746 117.609C116.611 117.824 116.391 118.908 116.213 119.762C114.863 117.055 113.832 114.189 113.047 111.251C113.258 111.198 113.436 111.038 113.459 110.762C114.631 110.094 115.556 109.537 116.375 108.252C116.883 107.454 117.798 105.631 116.305 105.188C114.361 104.612 113.14 107.58 112.981 109.042C112.963 109.212 112.964 109.706 112.97 110.158C112.903 110.149 112.834 110.15 112.767 110.162C112.321 108.342 111.965 106.499 111.681 104.653C112.742 104.312 112.926 98.7409 112.219 97.9476C110.641 96.1714 109.527 98.7372 109.611 100.093C109.711 101.692 110.435 103.147 111.298 104.438C111.391 104.574 111.364 104.568 111.388 104.377C111.401 104.471 111.433 104.541 111.48 104.591C111.435 105.433 111.348 106.295 111.39 107.039C111.509 109.172 111.758 111.317 112.119 113.423C112.206 113.935 112.307 114.443 112.419 114.946C111.567 114.22 110.417 113.574 109.967 113.373C108.8 112.849 107.001 112.284 105.841 113.171ZM164.563 187.213C164.509 187.956 164.375 188.637 164.124 189.199C164.312 188.559 164.456 187.895 164.563 187.213Z" fill="#F2F2F2"/>
<g opacity="0.7">
<path opacity="0.7" fill-rule="evenodd" clip-rule="evenodd" d="M139.404 153.108C143.97 152.872 149.617 155.537 150.104 160.5C150.458 164.106 150.348 167.702 150.896 171.302C151.334 174.18 152.26 176.943 153.523 179.564C154.737 182.085 157.257 184.23 157.912 186.923C158.33 188.639 158.096 191.053 157.52 192.731C156.819 194.772 157.192 194.61 158.587 196.323C161.322 199.678 163.785 203.119 165.526 207.127C168.035 212.899 169.679 219.646 168.748 225.965C168.63 226.767 168.489 229.647 167.384 229.848C166.15 230.073 166.727 228.426 166.793 227.894C167.213 224.5 167.586 221.533 167.08 218.086C165.126 204.785 155.584 196.022 149.371 184.733C149.029 184.151 148.308 182.765 147.807 181.85C147.015 180.406 146.22 177.659 145.148 176.588C143.13 174.571 144.985 178.626 145.379 179.4C145.876 180.379 146.423 181.42 146.932 182.278C149.263 186.255 151.865 190.596 154.273 194.696C143.86 197.068 136.528 184.551 133.733 176.321C131.431 169.541 128.677 153.689 139.404 153.108Z" fill="#69A1AC"/>
<path opacity="0.7" fill-rule="evenodd" clip-rule="evenodd" d="M200.6 140.517C192.968 141.123 188.068 146.159 185.787 153.204C184.557 157 184.416 160.9 183.733 164.802C182.705 170.671 180.494 175.119 176.173 179.301C174.834 180.596 173.848 181.926 173.147 183.349C171.755 184.769 170.543 186.376 169.653 188.342C168.516 190.851 168.194 193.862 169.507 196.364C169.86 197.037 170.74 198.387 171.653 199.001C168.236 206.278 166.357 214.248 166.569 222.208C166.697 227.014 166.932 231.821 167.205 236.62C167.279 237.908 167.699 240.036 168.329 237.875C168.906 235.898 168.182 232.795 168.115 230.73C167.79 220.67 167.511 211.523 171.653 202.124C172.087 201.139 172.547 200.162 173.027 199.192C173.055 199.176 173.081 199.156 173.108 199.137C173.126 199.151 173.142 199.166 173.161 199.18C173.191 199.125 173.233 199.06 173.282 198.988C173.42 198.846 173.54 198.667 173.654 198.466C174.021 197.957 174.437 197.359 174.439 197.032C174.439 197.029 174.438 197.025 174.438 197.023C177.002 192.838 179.938 188.884 182.937 185.007C182.915 185.035 186.191 180.575 185.684 183.041C185.44 184.23 183.03 186.494 182.057 187.753C179.904 190.554 177.376 194.103 175.276 197.535C174.993 197.697 174.594 198.495 174.305 199.089C174.145 199.39 173.997 199.694 173.85 199.958C181.294 202.417 187.084 197.464 191.032 191.702C191.037 191.695 191.041 191.688 191.046 191.681C192.247 190.089 193.478 188.508 195.016 187.25C197.581 185.15 200.328 184.779 203.353 183.746C211.602 180.927 215.109 170.237 216.222 162.305C217.479 153.357 211.332 139.635 200.6 140.517Z" fill="#89C5CC"/>
<path opacity="0.7" fill-rule="evenodd" clip-rule="evenodd" d="M185.523 115.458C177.689 123.611 173.905 134.92 170.908 145.551C167.561 157.425 165.35 169.482 165.265 181.827C165.21 189.938 164.989 198.1 165.462 206.201C165.63 209.079 165.917 211.961 166.373 214.807C166.411 215.041 167.431 221.396 168.407 219.916C168.962 219.073 167.361 213.323 167.24 212.365C166.56 206.97 166.402 201.536 166.435 196.102C166.489 187.156 166.226 178.255 167.132 169.342C167.268 168.011 167.375 166.613 167.691 165.311C168.026 163.927 167.599 164.531 168.692 163.984C169.754 163.451 171.067 163.527 172.169 162.859C176.541 160.208 178.778 153.398 180.518 148.93C182.509 143.82 183.719 138.372 184.686 132.995C185.395 129.044 185.903 125.118 186.19 121.116C186.28 119.855 186.286 118.536 186.534 117.296C186.6 116.962 186.935 116.37 186.923 116.074C186.897 115.447 186.519 115.078 186.488 114.551C186.16 114.847 185.838 115.149 185.523 115.458Z" fill="#89C5CC"/>
<path opacity="0.7" fill-rule="evenodd" clip-rule="evenodd" d="M142.808 224.086C142.808 237.569 153.738 248.5 167.222 248.5C180.705 248.5 191.636 237.569 191.636 224.086" fill="#89C5CC"/>
<path opacity="0.7" fill-rule="evenodd" clip-rule="evenodd" d="M169.181 224.164H167.891C167.98 222.545 168.098 220.93 168.369 219.329C169.404 213.208 172.64 204.218 179.736 203.224C179.998 203.187 180.961 203.181 182.128 203.249C182.681 202.94 183.3 202.753 183.953 202.71C189.995 202.265 196.743 207.14 199.657 212.212C202.007 216.302 201.611 221.673 200.16 226.018C199.188 228.927 197.067 233.075 193.53 233.116C189.105 233.166 188.892 227.697 188.806 224.499C188.692 220.249 188.155 216.546 184.806 213.648C184.025 212.973 183.172 212.379 182.383 211.714C181.148 210.672 179.784 209.605 179.625 207.881C179.405 205.503 180.747 205.075 182.797 205.517C183.146 205.592 186.666 207.172 186.144 205.923C185.985 205.542 185.404 205.24 184.671 205.014C182.773 204.807 180.51 204.568 179.859 204.711C172.838 206.251 170.104 215.978 169.378 222.157C169.299 222.824 169.236 223.494 169.181 224.164V224.164Z" fill="#69A1AC"/>
</g>
<path fill-rule="evenodd" clip-rule="evenodd" d="M78.7218 59.8707C77.1309 56.5246 76.4546 52.765 77.7195 49.0943C81.364 38.518 95.7334 44.9097 97.1944 51.1321C98.6554 57.3545 94.6109 71.0613 90.5782 71.0229C88.97 71.0076 86.0198 69.199 83.2849 66.3591L81.4513 81.3914L69.363 78.1523L78.7218 59.8707Z" fill="#D4A181"/>
<path fill-rule="evenodd" clip-rule="evenodd" d="M83.1086 60.2338C80.8386 62.7095 78.1848 64.3208 76.1136 63.7658C72.1795 62.7117 70.7916 56.7024 72.3069 51.0472C72.3601 50.8485 72.417 50.6522 72.4772 50.4584C67.5504 52.1991 62.8349 56.9688 57.3284 55.4933C49.8369 53.486 50.9106 37.5784 61.3772 40.3829C68.4954 42.2902 71.7186 44.2662 74.3249 46.6094C75.3696 45.0911 76.6551 43.9236 78.0288 43.2359C78.3762 43.0069 78.8626 42.829 79.462 42.704C79.8321 42.6139 80.2047 42.5595 80.5771 42.5433C82.5761 42.3621 85.3383 42.5967 88.3102 43.2828C88.8652 43.4109 89.4067 43.55 89.9315 43.6982C90.6835 40.9261 93.5372 39.283 96.3136 40.0269C99.0954 40.7723 100.746 43.6316 100.001 46.4133C99.28 49.1035 96.5821 50.736 93.8892 50.1664C92.245 50.228 90.2015 50.0493 87.9987 49.6145C87.9971 50.4609 87.8707 51.3891 87.599 52.4034C87.359 53.299 87.0056 54.2224 86.5652 55.138C86.2453 54.4544 85.7153 53.9222 85.0783 53.7516C83.2965 53.2741 81.6635 54.4076 81.2465 55.9639C80.7173 57.9391 81.4747 59.6735 83.1086 60.2338Z" fill="#191847"/>
<path fill-rule="evenodd" clip-rule="evenodd" d="M53.9436 124.249L73.0447 190.07L82.0289 239.489H91.0463L82.0449 124.249H53.9436Z" fill="#BA8B72"/>
<path fill-rule="evenodd" clip-rule="evenodd" d="M45.3596 124.249C46.6924 158.443 46.1667 177.093 45.8684 180.199C45.5701 183.306 43.8767 204.112 32.3369 240.532H41.7158C56.9983 205.593 62.3333 184.787 64.0861 180.199C65.8389 175.611 71.0157 156.961 78.5735 124.249H45.3596Z" fill="#D4A181"/>
<path fill-rule="evenodd" clip-rule="evenodd" d="M53.5337 124.249C58.5022 146.898 67.0955 183.052 79.3137 232.71H92.5027C93.4769 181.741 89.3329 148.194 82.1565 124.249H53.5337Z" fill="#6980AC"/>
<path fill-rule="evenodd" clip-rule="evenodd" d="M45.293 124.249C46.5983 158.443 43.2155 192.13 32.7368 233.243H46.8088C62.1194 198.825 73.093 165.304 80.5927 124.249H45.293Z" fill="#89A4CC"/>
<path fill-rule="evenodd" clip-rule="evenodd" d="M31 247.311L31.5175 238.967C34.5474 239.854 38.3423 239.506 42.9024 237.925C47.8056 241.398 53.9781 243.769 61.4198 245.039C61.9876 245.136 62.3693 245.675 62.2724 246.243C62.2662 246.28 62.2579 246.316 62.2477 246.352L61.5323 248.875H42.9024H32.035L31 247.311Z" fill="#191847"/>
<path fill-rule="evenodd" clip-rule="evenodd" d="M80.0161 247.311L80.5336 238.967C83.5635 239.854 87.3585 239.506 91.9185 237.925C96.8217 241.398 102.994 243.769 110.436 245.039C111.004 245.136 111.385 245.675 111.289 246.243C111.282 246.28 111.274 246.316 111.264 246.352L110.548 248.875H91.9185H81.0511L80.0161 247.311Z" fill="#191847"/>
<path fill-rule="evenodd" clip-rule="evenodd" d="M91.2542 94.9351L110.8 88.3157C114.385 85.3185 117.787 83.0998 121.007 81.6596C121.951 81.4476 123.528 81.4965 121.64 83.7947C119.752 86.0928 117.87 88.595 118.464 89.5103C119.058 90.4255 121.078 89.6494 121.721 91.1096C122.15 92.0831 118.788 92.9084 111.633 93.5857L96.5907 103.161L91.2542 94.9351ZM117.718 108.094L126.306 105.174C128.142 101.187 129.826 99.3155 131.358 99.5587C132.628 99.2196 129.653 104.141 131.959 104.076C134.264 104.01 140.407 100.928 141.198 101.913C142.369 103.371 140.477 106.878 138.696 108.475C135.367 111.459 132.908 112.247 127.072 112.817C124.02 113.115 120.589 114.186 116.779 116.03L117.718 108.094Z" fill="#D4A181"/>
<path fill-rule="evenodd" clip-rule="evenodd" d="M82.9569 91.2299C89.2118 92.2648 97.7697 92.4141 107.647 88.3418L109.764 96.7368C102.564 101.737 93.0676 105.214 85.5714 103.674C79.6641 102.461 77.8961 94.7449 82.9569 91.2299Z" fill="#2026A2"/>
<path fill-rule="evenodd" clip-rule="evenodd" d="M89.1635 105.189C95.5 108.01 106.958 108.021 123.539 105.22C125.997 113.908 126.779 119.931 125.886 123.289C111.27 127.92 99.2492 129.015 89.7623 127.554C89.0739 133.215 87.4505 138.43 84.2979 142.901C77.8168 152.093 51.8517 137.944 42.249 138.134C39.7653 118.235 52.3551 112.546 54.4936 100.471C56.8355 87.2469 71.0446 68.7622 72.607 69.0377L86.8557 71.5501C85.8609 81.7893 87.8551 93.6187 89.1635 105.189Z" fill="#1F28CF"/>
<path fill-rule="evenodd" clip-rule="evenodd" d="M114 26.6984L114 91.3015C114 99.0824 122.495 103.882 129.16 99.8673L182.781 67.5658C189.234 63.6783 189.234 54.3216 182.781 50.4341L129.16 18.1325C122.495 14.1175 114 18.9175 114 26.6984ZM144 59C144 64.5228 139.523 69 134 69C128.477 69 124 64.5228 124 59C124 53.4771 128.477 49 134 49C139.523 49 144 53.4771 144 59ZM170 59C170 64.5228 165.523 69 160 69C154.477 69 150 64.5228 150 59C150 53.4771 154.477 49 160 49C165.523 49 170 53.4771 170 59Z" fill="#44A5FF"/>
</svg>
