<svg width="250" height="250" viewBox="0 0 250 250" fill="none" xmlns="http://www.w3.org/2000/svg">
<path fill-rule="evenodd" clip-rule="evenodd" d="M78.7218 59.8707C77.1309 56.5246 76.4546 52.765 77.7195 49.0943C81.364 38.518 95.7334 44.9097 97.1944 51.1321C98.6554 57.3545 94.6109 71.0613 90.5782 71.0229C88.97 71.0076 86.0198 69.199 83.2849 66.3591L81.4513 81.3914L69.363 78.1523L78.7218 59.8707Z" fill="#D4A181"/>
<path fill-rule="evenodd" clip-rule="evenodd" d="M83.1086 60.2338C80.8386 62.7095 78.1848 64.3208 76.1136 63.7658C72.1795 62.7117 70.7916 56.7024 72.3069 51.0472C72.3601 50.8485 72.417 50.6522 72.4772 50.4584C67.5504 52.1991 62.8349 56.9688 57.3284 55.4933C49.8369 53.486 50.9106 37.5784 61.3772 40.3829C68.4954 42.2902 71.7186 44.2662 74.3249 46.6094C75.3696 45.0911 76.6551 43.9236 78.0288 43.2359C78.3762 43.0069 78.8626 42.829 79.462 42.704C79.8321 42.6139 80.2047 42.5595 80.5771 42.5433C82.5761 42.3621 85.3383 42.5967 88.3102 43.2828C88.8652 43.4109 89.4067 43.55 89.9315 43.6982C90.6835 40.9261 93.5372 39.283 96.3136 40.0269C99.0954 40.7723 100.746 43.6316 100.001 46.4133C99.28 49.1035 96.5821 50.736 93.8892 50.1664C92.245 50.228 90.2015 50.0493 87.9987 49.6145C87.9971 50.4609 87.8707 51.3891 87.599 52.4034C87.359 53.299 87.0056 54.2224 86.5652 55.138C86.2453 54.4544 85.7153 53.9222 85.0783 53.7516C83.2965 53.2741 81.6635 54.4076 81.2465 55.9639C80.7173 57.9391 81.4747 59.6735 83.1086 60.2338Z" fill="#191847"/>
<path fill-rule="evenodd" clip-rule="evenodd" d="M53.9436 124.249L73.0447 190.07L82.0289 239.489H91.0463L82.0449 124.249H53.9436Z" fill="#BA8B72"/>
<path fill-rule="evenodd" clip-rule="evenodd" d="M45.3596 124.249C46.6924 158.443 46.1667 177.093 45.8684 180.199C45.5701 183.306 43.8767 204.112 32.3369 240.532H41.7158C56.9983 205.593 62.3333 184.787 64.0861 180.199C65.8389 175.611 71.0157 156.961 78.5735 124.249H45.3596Z" fill="#D4A181"/>
<path fill-rule="evenodd" clip-rule="evenodd" d="M53.5337 124.249C58.5022 146.898 67.0955 183.052 79.3137 232.71H92.5027C93.4769 181.741 89.3329 148.194 82.1565 124.249H53.5337Z" fill="#6980AC"/>
<path fill-rule="evenodd" clip-rule="evenodd" d="M45.293 124.249C46.5983 158.443 43.2155 192.13 32.7368 233.243H46.8088C62.1194 198.825 73.093 165.305 80.5927 124.249H45.293Z" fill="#89A4CC"/>
<path fill-rule="evenodd" clip-rule="evenodd" d="M31 247.311L31.5175 238.968C34.5474 239.854 38.3423 239.506 42.9024 237.925C47.8056 241.398 53.9781 243.769 61.4198 245.039C61.9876 245.136 62.3693 245.675 62.2724 246.243C62.2662 246.28 62.2579 246.316 62.2477 246.352L61.5323 248.875H42.9024H32.035L31 247.311Z" fill="#191847"/>
<path fill-rule="evenodd" clip-rule="evenodd" d="M80.0161 247.311L80.5336 238.968C83.5635 239.854 87.3585 239.506 91.9185 237.925C96.8217 241.398 102.994 243.769 110.436 245.039C111.004 245.136 111.385 245.675 111.289 246.243C111.282 246.28 111.274 246.316 111.264 246.352L110.548 248.875H91.9185H81.0511L80.0161 247.311Z" fill="#191847"/>
<path fill-rule="evenodd" clip-rule="evenodd" d="M91.2542 94.9351L110.8 88.3157C114.385 85.3185 117.787 83.0998 121.007 81.6596C121.951 81.4476 123.528 81.4965 121.64 83.7947C119.752 86.0928 117.87 88.595 118.464 89.5103C119.058 90.4255 121.078 89.6494 121.721 91.1096C122.15 92.0831 118.788 92.9084 111.633 93.5857L96.5907 103.161L91.2542 94.9351ZM117.718 108.094L126.306 105.174C128.142 101.187 129.826 99.3155 131.358 99.5587C132.628 99.2196 129.653 104.141 131.959 104.076C134.264 104.01 140.407 100.928 141.198 101.913C142.369 103.371 140.477 106.878 138.696 108.475C135.367 111.459 132.908 112.247 127.072 112.817C124.02 113.115 120.589 114.186 116.779 116.03L117.718 108.094Z" fill="#D4A181"/>
<path fill-rule="evenodd" clip-rule="evenodd" d="M82.9569 91.2298C89.2118 92.2647 97.7697 92.4141 107.647 88.3417L109.764 96.7367C102.564 101.737 93.0676 105.214 85.5714 103.674C79.6641 102.461 77.8961 94.7448 82.9569 91.2298Z" fill="#2026A2"/>
<path fill-rule="evenodd" clip-rule="evenodd" d="M89.1635 105.189C95.5 108.01 106.958 108.021 123.539 105.22C125.997 113.908 126.779 119.931 125.886 123.289C111.27 127.92 99.2492 129.015 89.7623 127.554C89.0739 133.215 87.4505 138.43 84.2979 142.901C77.8168 152.093 51.8517 137.944 42.249 138.134C39.7653 118.235 52.3551 112.546 54.4936 100.471C56.8355 87.2469 71.0446 68.7622 72.607 69.0377L86.8557 71.5501C85.8609 81.7893 87.8551 93.6187 89.1635 105.189Z" fill="#1F28CF"/>
<path fill-rule="evenodd" clip-rule="evenodd" d="M114 26.6984L114 91.3016C114 99.0825 122.495 103.882 129.16 99.8674L182.781 67.5658C189.234 63.6784 189.234 54.3217 182.781 50.4342L129.16 18.1326C122.495 14.1176 114 18.9176 114 26.6984ZM144 59C144 64.5229 139.523 69 134 69C128.477 69 124 64.5229 124 59C124 53.4772 128.477 49 134 49C139.523 49 144 53.4772 144 59ZM170 59C170 64.5229 165.523 69 160 69C154.477 69 150 64.5229 150 59C150 53.4772 154.477 49 160 49C165.523 49 170 53.4772 170 59Z" fill="#44A5FF"/>
</svg>
